<?xml version="1.0" encoding="utf-8" standalone="no"?>
<!DOCTYPE svg PUBLIC "-//W3C//DTD SVG 1.1//EN"
  "http://www.w3.org/Graphics/SVG/1.1/DTD/svg11.dtd">
<!-- Created with matplotlib (https://matplotlib.org/) -->
<svg height="288pt" version="1.1" viewBox="0 0 432 288" width="432pt" xmlns="http://www.w3.org/2000/svg" xmlns:xlink="http://www.w3.org/1999/xlink">
 <defs>
  <style type="text/css">
*{stroke-linecap:butt;stroke-linejoin:round;}
  </style>
 </defs>
 <g id="figure_1">
  <g id="patch_1">
   <path d="M 0 288 
L 432 288 
L 432 0 
L 0 0 
z
" style="fill:#ffffff;"/>
  </g>
  <g id="axes_1">
   <g id="patch_2">
    <path d="M 54 252 
L 388.8 252 
L 388.8 34.56 
L 54 34.56 
z
" style="fill:#ffffff;"/>
   </g>
   <g id="matplotlib.axis_1">
    <g id="xtick_1">
     <g id="line2d_1">
      <path clip-path="url(#pe99a9e395b)" d="M 69.218182 252 
L 69.218182 34.56 
" style="fill:none;stroke:#b0b0b0;stroke-linecap:square;stroke-width:0.8;"/>
     </g>
     <g id="line2d_2">
      <defs>
       <path d="M 0 0 
L 0 3.5 
" id="md609974551" style="stroke:#000000;stroke-width:0.8;"/>
      </defs>
      <g>
       <use style="stroke:#000000;stroke-width:0.8;" x="69.218182" xlink:href="#md609974551" y="252"/>
      </g>
     </g>
     <g id="text_1">
      <!-- 0 -->
      <defs>
       <path d="M 31.78125 66.40625 
Q 24.171875 66.40625 20.328125 58.90625 
Q 16.5 51.421875 16.5 36.375 
Q 16.5 21.390625 20.328125 13.890625 
Q 24.171875 6.390625 31.78125 6.390625 
Q 39.453125 6.390625 43.28125 13.890625 
Q 47.125 21.390625 47.125 36.375 
Q 47.125 51.421875 43.28125 58.90625 
Q 39.453125 66.40625 31.78125 66.40625 
z
M 31.78125 74.21875 
Q 44.046875 74.21875 50.515625 64.515625 
Q 56.984375 54.828125 56.984375 36.375 
Q 56.984375 17.96875 50.515625 8.265625 
Q 44.046875 -1.421875 31.78125 -1.421875 
Q 19.53125 -1.421875 13.0625 8.265625 
Q 6.59375 17.96875 6.59375 36.375 
Q 6.59375 54.828125 13.0625 64.515625 
Q 19.53125 74.21875 31.78125 74.21875 
z
" id="DejaVuSans-48"/>
      </defs>
      <g transform="translate(66.036932 266.598437)scale(0.1 -0.1)">
       <use xlink:href="#DejaVuSans-48"/>
      </g>
     </g>
    </g>
    <g id="xtick_2">
     <g id="line2d_3">
      <path clip-path="url(#pe99a9e395b)" d="M 107.45482 252 
L 107.45482 34.56 
" style="fill:none;stroke:#b0b0b0;stroke-linecap:square;stroke-width:0.8;"/>
     </g>
     <g id="line2d_4">
      <g>
       <use style="stroke:#000000;stroke-width:0.8;" x="107.45482" xlink:href="#md609974551" y="252"/>
      </g>
     </g>
     <g id="text_2">
      <!-- 25 -->
      <defs>
       <path d="M 19.1875 8.296875 
L 53.609375 8.296875 
L 53.609375 0 
L 7.328125 0 
L 7.328125 8.296875 
Q 12.9375 14.109375 22.625 23.890625 
Q 32.328125 33.6875 34.8125 36.53125 
Q 39.546875 41.84375 41.421875 45.53125 
Q 43.3125 49.21875 43.3125 52.78125 
Q 43.3125 58.59375 39.234375 62.25 
Q 35.15625 65.921875 28.609375 65.921875 
Q 23.96875 65.921875 18.8125 64.3125 
Q 13.671875 62.703125 7.8125 59.421875 
L 7.8125 69.390625 
Q 13.765625 71.78125 18.9375 73 
Q 24.125 74.21875 28.421875 74.21875 
Q 39.75 74.21875 46.484375 68.546875 
Q 53.21875 62.890625 53.21875 53.421875 
Q 53.21875 48.921875 51.53125 44.890625 
Q 49.859375 40.875 45.40625 35.40625 
Q 44.1875 33.984375 37.640625 27.21875 
Q 31.109375 20.453125 19.1875 8.296875 
z
" id="DejaVuSans-50"/>
       <path d="M 10.796875 72.90625 
L 49.515625 72.90625 
L 49.515625 64.59375 
L 19.828125 64.59375 
L 19.828125 46.734375 
Q 21.96875 47.46875 24.109375 47.828125 
Q 26.265625 48.1875 28.421875 48.1875 
Q 40.625 48.1875 47.75 41.5 
Q 54.890625 34.8125 54.890625 23.390625 
Q 54.890625 11.625 47.5625 5.09375 
Q 40.234375 -1.421875 26.90625 -1.421875 
Q 22.3125 -1.421875 17.546875 -0.640625 
Q 12.796875 0.140625 7.71875 1.703125 
L 7.71875 11.625 
Q 12.109375 9.234375 16.796875 8.0625 
Q 21.484375 6.890625 26.703125 6.890625 
Q 35.15625 6.890625 40.078125 11.328125 
Q 45.015625 15.765625 45.015625 23.390625 
Q 45.015625 31 40.078125 35.4375 
Q 35.15625 39.890625 26.703125 39.890625 
Q 22.75 39.890625 18.8125 39.015625 
Q 14.890625 38.140625 10.796875 36.28125 
z
" id="DejaVuSans-53"/>
      </defs>
      <g transform="translate(101.09232 266.598437)scale(0.1 -0.1)">
       <use xlink:href="#DejaVuSans-50"/>
       <use x="63.623047" xlink:href="#DejaVuSans-53"/>
      </g>
     </g>
    </g>
    <g id="xtick_3">
     <g id="line2d_5">
      <path clip-path="url(#pe99a9e395b)" d="M 145.691457 252 
L 145.691457 34.56 
" style="fill:none;stroke:#b0b0b0;stroke-linecap:square;stroke-width:0.8;"/>
     </g>
     <g id="line2d_6">
      <g>
       <use style="stroke:#000000;stroke-width:0.8;" x="145.691457" xlink:href="#md609974551" y="252"/>
      </g>
     </g>
     <g id="text_3">
      <!-- 50 -->
      <g transform="translate(139.328957 266.598437)scale(0.1 -0.1)">
       <use xlink:href="#DejaVuSans-53"/>
       <use x="63.623047" xlink:href="#DejaVuSans-48"/>
      </g>
     </g>
    </g>
    <g id="xtick_4">
     <g id="line2d_7">
      <path clip-path="url(#pe99a9e395b)" d="M 183.928095 252 
L 183.928095 34.56 
" style="fill:none;stroke:#b0b0b0;stroke-linecap:square;stroke-width:0.8;"/>
     </g>
     <g id="line2d_8">
      <g>
       <use style="stroke:#000000;stroke-width:0.8;" x="183.928095" xlink:href="#md609974551" y="252"/>
      </g>
     </g>
     <g id="text_4">
      <!-- 75 -->
      <defs>
       <path d="M 8.203125 72.90625 
L 55.078125 72.90625 
L 55.078125 68.703125 
L 28.609375 0 
L 18.3125 0 
L 43.21875 64.59375 
L 8.203125 64.59375 
z
" id="DejaVuSans-55"/>
      </defs>
      <g transform="translate(177.565595 266.598437)scale(0.1 -0.1)">
       <use xlink:href="#DejaVuSans-55"/>
       <use x="63.623047" xlink:href="#DejaVuSans-53"/>
      </g>
     </g>
    </g>
    <g id="xtick_5">
     <g id="line2d_9">
      <path clip-path="url(#pe99a9e395b)" d="M 222.164733 252 
L 222.164733 34.56 
" style="fill:none;stroke:#b0b0b0;stroke-linecap:square;stroke-width:0.8;"/>
     </g>
     <g id="line2d_10">
      <g>
       <use style="stroke:#000000;stroke-width:0.8;" x="222.164733" xlink:href="#md609974551" y="252"/>
      </g>
     </g>
     <g id="text_5">
      <!-- 100 -->
      <defs>
       <path d="M 12.40625 8.296875 
L 28.515625 8.296875 
L 28.515625 63.921875 
L 10.984375 60.40625 
L 10.984375 69.390625 
L 28.421875 72.90625 
L 38.28125 72.90625 
L 38.28125 8.296875 
L 54.390625 8.296875 
L 54.390625 0 
L 12.40625 0 
z
" id="DejaVuSans-49"/>
      </defs>
      <g transform="translate(212.620983 266.598437)scale(0.1 -0.1)">
       <use xlink:href="#DejaVuSans-49"/>
       <use x="63.623047" xlink:href="#DejaVuSans-48"/>
       <use x="127.246094" xlink:href="#DejaVuSans-48"/>
      </g>
     </g>
    </g>
    <g id="xtick_6">
     <g id="line2d_11">
      <path clip-path="url(#pe99a9e395b)" d="M 260.40137 252 
L 260.40137 34.56 
" style="fill:none;stroke:#b0b0b0;stroke-linecap:square;stroke-width:0.8;"/>
     </g>
     <g id="line2d_12">
      <g>
       <use style="stroke:#000000;stroke-width:0.8;" x="260.40137" xlink:href="#md609974551" y="252"/>
      </g>
     </g>
     <g id="text_6">
      <!-- 125 -->
      <g transform="translate(250.85762 266.598437)scale(0.1 -0.1)">
       <use xlink:href="#DejaVuSans-49"/>
       <use x="63.623047" xlink:href="#DejaVuSans-50"/>
       <use x="127.246094" xlink:href="#DejaVuSans-53"/>
      </g>
     </g>
    </g>
    <g id="xtick_7">
     <g id="line2d_13">
      <path clip-path="url(#pe99a9e395b)" d="M 298.638008 252 
L 298.638008 34.56 
" style="fill:none;stroke:#b0b0b0;stroke-linecap:square;stroke-width:0.8;"/>
     </g>
     <g id="line2d_14">
      <g>
       <use style="stroke:#000000;stroke-width:0.8;" x="298.638008" xlink:href="#md609974551" y="252"/>
      </g>
     </g>
     <g id="text_7">
      <!-- 150 -->
      <g transform="translate(289.094258 266.598437)scale(0.1 -0.1)">
       <use xlink:href="#DejaVuSans-49"/>
       <use x="63.623047" xlink:href="#DejaVuSans-53"/>
       <use x="127.246094" xlink:href="#DejaVuSans-48"/>
      </g>
     </g>
    </g>
    <g id="xtick_8">
     <g id="line2d_15">
      <path clip-path="url(#pe99a9e395b)" d="M 336.874646 252 
L 336.874646 34.56 
" style="fill:none;stroke:#b0b0b0;stroke-linecap:square;stroke-width:0.8;"/>
     </g>
     <g id="line2d_16">
      <g>
       <use style="stroke:#000000;stroke-width:0.8;" x="336.874646" xlink:href="#md609974551" y="252"/>
      </g>
     </g>
     <g id="text_8">
      <!-- 175 -->
      <g transform="translate(327.330896 266.598437)scale(0.1 -0.1)">
       <use xlink:href="#DejaVuSans-49"/>
       <use x="63.623047" xlink:href="#DejaVuSans-55"/>
       <use x="127.246094" xlink:href="#DejaVuSans-53"/>
      </g>
     </g>
    </g>
    <g id="xtick_9">
     <g id="line2d_17">
      <path clip-path="url(#pe99a9e395b)" d="M 375.111284 252 
L 375.111284 34.56 
" style="fill:none;stroke:#b0b0b0;stroke-linecap:square;stroke-width:0.8;"/>
     </g>
     <g id="line2d_18">
      <g>
       <use style="stroke:#000000;stroke-width:0.8;" x="375.111284" xlink:href="#md609974551" y="252"/>
      </g>
     </g>
     <g id="text_9">
      <!-- 200 -->
      <g transform="translate(365.567534 266.598437)scale(0.1 -0.1)">
       <use xlink:href="#DejaVuSans-50"/>
       <use x="63.623047" xlink:href="#DejaVuSans-48"/>
       <use x="127.246094" xlink:href="#DejaVuSans-48"/>
      </g>
     </g>
    </g>
    <g id="text_10">
     <!-- Generations -->
     <defs>
      <path d="M 59.515625 10.40625 
L 59.515625 29.984375 
L 43.40625 29.984375 
L 43.40625 38.09375 
L 69.28125 38.09375 
L 69.28125 6.78125 
Q 63.578125 2.734375 56.6875 0.65625 
Q 49.8125 -1.421875 42 -1.421875 
Q 24.90625 -1.421875 15.25 8.5625 
Q 5.609375 18.5625 5.609375 36.375 
Q 5.609375 54.25 15.25 64.234375 
Q 24.90625 74.21875 42 74.21875 
Q 49.125 74.21875 55.546875 72.453125 
Q 61.96875 70.703125 67.390625 67.28125 
L 67.390625 56.78125 
Q 61.921875 61.421875 55.765625 63.765625 
Q 49.609375 66.109375 42.828125 66.109375 
Q 29.4375 66.109375 22.71875 58.640625 
Q 16.015625 51.171875 16.015625 36.375 
Q 16.015625 21.625 22.71875 14.15625 
Q 29.4375 6.6875 42.828125 6.6875 
Q 48.046875 6.6875 52.140625 7.59375 
Q 56.25 8.5 59.515625 10.40625 
z
" id="DejaVuSans-71"/>
      <path d="M 56.203125 29.59375 
L 56.203125 25.203125 
L 14.890625 25.203125 
Q 15.484375 15.921875 20.484375 11.0625 
Q 25.484375 6.203125 34.421875 6.203125 
Q 39.59375 6.203125 44.453125 7.46875 
Q 49.3125 8.734375 54.109375 11.28125 
L 54.109375 2.78125 
Q 49.265625 0.734375 44.1875 -0.34375 
Q 39.109375 -1.421875 33.890625 -1.421875 
Q 20.796875 -1.421875 13.15625 6.1875 
Q 5.515625 13.8125 5.515625 26.8125 
Q 5.515625 40.234375 12.765625 48.109375 
Q 20.015625 56 32.328125 56 
Q 43.359375 56 49.78125 48.890625 
Q 56.203125 41.796875 56.203125 29.59375 
z
M 47.21875 32.234375 
Q 47.125 39.59375 43.09375 43.984375 
Q 39.0625 48.390625 32.421875 48.390625 
Q 24.90625 48.390625 20.390625 44.140625 
Q 15.875 39.890625 15.1875 32.171875 
z
" id="DejaVuSans-101"/>
      <path d="M 54.890625 33.015625 
L 54.890625 0 
L 45.90625 0 
L 45.90625 32.71875 
Q 45.90625 40.484375 42.875 44.328125 
Q 39.84375 48.1875 33.796875 48.1875 
Q 26.515625 48.1875 22.3125 43.546875 
Q 18.109375 38.921875 18.109375 30.90625 
L 18.109375 0 
L 9.078125 0 
L 9.078125 54.6875 
L 18.109375 54.6875 
L 18.109375 46.1875 
Q 21.34375 51.125 25.703125 53.5625 
Q 30.078125 56 35.796875 56 
Q 45.21875 56 50.046875 50.171875 
Q 54.890625 44.34375 54.890625 33.015625 
z
" id="DejaVuSans-110"/>
      <path d="M 41.109375 46.296875 
Q 39.59375 47.171875 37.8125 47.578125 
Q 36.03125 48 33.890625 48 
Q 26.265625 48 22.1875 43.046875 
Q 18.109375 38.09375 18.109375 28.8125 
L 18.109375 0 
L 9.078125 0 
L 9.078125 54.6875 
L 18.109375 54.6875 
L 18.109375 46.1875 
Q 20.953125 51.171875 25.484375 53.578125 
Q 30.03125 56 36.53125 56 
Q 37.453125 56 38.578125 55.875 
Q 39.703125 55.765625 41.0625 55.515625 
z
" id="DejaVuSans-114"/>
      <path d="M 34.28125 27.484375 
Q 23.390625 27.484375 19.1875 25 
Q 14.984375 22.515625 14.984375 16.5 
Q 14.984375 11.71875 18.140625 8.90625 
Q 21.296875 6.109375 26.703125 6.109375 
Q 34.1875 6.109375 38.703125 11.40625 
Q 43.21875 16.703125 43.21875 25.484375 
L 43.21875 27.484375 
z
M 52.203125 31.203125 
L 52.203125 0 
L 43.21875 0 
L 43.21875 8.296875 
Q 40.140625 3.328125 35.546875 0.953125 
Q 30.953125 -1.421875 24.3125 -1.421875 
Q 15.921875 -1.421875 10.953125 3.296875 
Q 6 8.015625 6 15.921875 
Q 6 25.140625 12.171875 29.828125 
Q 18.359375 34.515625 30.609375 34.515625 
L 43.21875 34.515625 
L 43.21875 35.40625 
Q 43.21875 41.609375 39.140625 45 
Q 35.0625 48.390625 27.6875 48.390625 
Q 23 48.390625 18.546875 47.265625 
Q 14.109375 46.140625 10.015625 43.890625 
L 10.015625 52.203125 
Q 14.9375 54.109375 19.578125 55.046875 
Q 24.21875 56 28.609375 56 
Q 40.484375 56 46.34375 49.84375 
Q 52.203125 43.703125 52.203125 31.203125 
z
" id="DejaVuSans-97"/>
      <path d="M 18.3125 70.21875 
L 18.3125 54.6875 
L 36.8125 54.6875 
L 36.8125 47.703125 
L 18.3125 47.703125 
L 18.3125 18.015625 
Q 18.3125 11.328125 20.140625 9.421875 
Q 21.96875 7.515625 27.59375 7.515625 
L 36.8125 7.515625 
L 36.8125 0 
L 27.59375 0 
Q 17.1875 0 13.234375 3.875 
Q 9.28125 7.765625 9.28125 18.015625 
L 9.28125 47.703125 
L 2.6875 47.703125 
L 2.6875 54.6875 
L 9.28125 54.6875 
L 9.28125 70.21875 
z
" id="DejaVuSans-116"/>
      <path d="M 9.421875 54.6875 
L 18.40625 54.6875 
L 18.40625 0 
L 9.421875 0 
z
M 9.421875 75.984375 
L 18.40625 75.984375 
L 18.40625 64.59375 
L 9.421875 64.59375 
z
" id="DejaVuSans-105"/>
      <path d="M 30.609375 48.390625 
Q 23.390625 48.390625 19.1875 42.75 
Q 14.984375 37.109375 14.984375 27.296875 
Q 14.984375 17.484375 19.15625 11.84375 
Q 23.34375 6.203125 30.609375 6.203125 
Q 37.796875 6.203125 41.984375 11.859375 
Q 46.1875 17.53125 46.1875 27.296875 
Q 46.1875 37.015625 41.984375 42.703125 
Q 37.796875 48.390625 30.609375 48.390625 
z
M 30.609375 56 
Q 42.328125 56 49.015625 48.375 
Q 55.71875 40.765625 55.71875 27.296875 
Q 55.71875 13.875 49.015625 6.21875 
Q 42.328125 -1.421875 30.609375 -1.421875 
Q 18.84375 -1.421875 12.171875 6.21875 
Q 5.515625 13.875 5.515625 27.296875 
Q 5.515625 40.765625 12.171875 48.375 
Q 18.84375 56 30.609375 56 
z
" id="DejaVuSans-111"/>
      <path d="M 44.28125 53.078125 
L 44.28125 44.578125 
Q 40.484375 46.53125 36.375 47.5 
Q 32.28125 48.484375 27.875 48.484375 
Q 21.1875 48.484375 17.84375 46.4375 
Q 14.5 44.390625 14.5 40.28125 
Q 14.5 37.15625 16.890625 35.375 
Q 19.28125 33.59375 26.515625 31.984375 
L 29.59375 31.296875 
Q 39.15625 29.25 43.1875 25.515625 
Q 47.21875 21.78125 47.21875 15.09375 
Q 47.21875 7.46875 41.1875 3.015625 
Q 35.15625 -1.421875 24.609375 -1.421875 
Q 20.21875 -1.421875 15.453125 -0.5625 
Q 10.6875 0.296875 5.421875 2 
L 5.421875 11.28125 
Q 10.40625 8.6875 15.234375 7.390625 
Q 20.0625 6.109375 24.8125 6.109375 
Q 31.15625 6.109375 34.5625 8.28125 
Q 37.984375 10.453125 37.984375 14.40625 
Q 37.984375 18.0625 35.515625 20.015625 
Q 33.0625 21.96875 24.703125 23.78125 
L 21.578125 24.515625 
Q 13.234375 26.265625 9.515625 29.90625 
Q 5.8125 33.546875 5.8125 39.890625 
Q 5.8125 47.609375 11.28125 51.796875 
Q 16.75 56 26.8125 56 
Q 31.78125 56 36.171875 55.265625 
Q 40.578125 54.546875 44.28125 53.078125 
z
" id="DejaVuSans-115"/>
     </defs>
     <g transform="translate(190.902344 280.276563)scale(0.1 -0.1)">
      <use xlink:href="#DejaVuSans-71"/>
      <use x="77.490234" xlink:href="#DejaVuSans-101"/>
      <use x="139.013672" xlink:href="#DejaVuSans-110"/>
      <use x="202.392578" xlink:href="#DejaVuSans-101"/>
      <use x="263.916016" xlink:href="#DejaVuSans-114"/>
      <use x="305.029297" xlink:href="#DejaVuSans-97"/>
      <use x="366.308594" xlink:href="#DejaVuSans-116"/>
      <use x="405.517578" xlink:href="#DejaVuSans-105"/>
      <use x="433.300781" xlink:href="#DejaVuSans-111"/>
      <use x="494.482422" xlink:href="#DejaVuSans-110"/>
      <use x="557.861328" xlink:href="#DejaVuSans-115"/>
     </g>
    </g>
   </g>
   <g id="matplotlib.axis_2">
    <g id="ytick_1">
     <g id="line2d_19">
      <path clip-path="url(#pe99a9e395b)" d="M 54 231.064069 
L 388.8 231.064069 
" style="fill:none;stroke:#b0b0b0;stroke-linecap:square;stroke-width:0.8;"/>
     </g>
     <g id="line2d_20">
      <defs>
       <path d="M 0 0 
L -3.5 0 
" id="me28931405e" style="stroke:#000000;stroke-width:0.8;"/>
      </defs>
      <g>
       <use style="stroke:#000000;stroke-width:0.8;" x="54" xlink:href="#me28931405e" y="231.064069"/>
      </g>
     </g>
     <g id="text_11">
      <!-- 2.0 -->
      <defs>
       <path d="M 10.6875 12.40625 
L 21 12.40625 
L 21 0 
L 10.6875 0 
z
" id="DejaVuSans-46"/>
      </defs>
      <g transform="translate(31.096875 234.863287)scale(0.1 -0.1)">
       <use xlink:href="#DejaVuSans-50"/>
       <use x="63.623047" xlink:href="#DejaVuSans-46"/>
       <use x="95.410156" xlink:href="#DejaVuSans-48"/>
      </g>
     </g>
    </g>
    <g id="ytick_2">
     <g id="line2d_21">
      <path clip-path="url(#pe99a9e395b)" d="M 54 184.408961 
L 388.8 184.408961 
" style="fill:none;stroke:#b0b0b0;stroke-linecap:square;stroke-width:0.8;"/>
     </g>
     <g id="line2d_22">
      <g>
       <use style="stroke:#000000;stroke-width:0.8;" x="54" xlink:href="#me28931405e" y="184.408961"/>
      </g>
     </g>
     <g id="text_12">
      <!-- 2.5 -->
      <g transform="translate(31.096875 188.208179)scale(0.1 -0.1)">
       <use xlink:href="#DejaVuSans-50"/>
       <use x="63.623047" xlink:href="#DejaVuSans-46"/>
       <use x="95.410156" xlink:href="#DejaVuSans-53"/>
      </g>
     </g>
    </g>
    <g id="ytick_3">
     <g id="line2d_23">
      <path clip-path="url(#pe99a9e395b)" d="M 54 137.753853 
L 388.8 137.753853 
" style="fill:none;stroke:#b0b0b0;stroke-linecap:square;stroke-width:0.8;"/>
     </g>
     <g id="line2d_24">
      <g>
       <use style="stroke:#000000;stroke-width:0.8;" x="54" xlink:href="#me28931405e" y="137.753853"/>
      </g>
     </g>
     <g id="text_13">
      <!-- 3.0 -->
      <defs>
       <path d="M 40.578125 39.3125 
Q 47.65625 37.796875 51.625 33 
Q 55.609375 28.21875 55.609375 21.1875 
Q 55.609375 10.40625 48.1875 4.484375 
Q 40.765625 -1.421875 27.09375 -1.421875 
Q 22.515625 -1.421875 17.65625 -0.515625 
Q 12.796875 0.390625 7.625 2.203125 
L 7.625 11.71875 
Q 11.71875 9.328125 16.59375 8.109375 
Q 21.484375 6.890625 26.8125 6.890625 
Q 36.078125 6.890625 40.9375 10.546875 
Q 45.796875 14.203125 45.796875 21.1875 
Q 45.796875 27.640625 41.28125 31.265625 
Q 36.765625 34.90625 28.71875 34.90625 
L 20.21875 34.90625 
L 20.21875 43.015625 
L 29.109375 43.015625 
Q 36.375 43.015625 40.234375 45.921875 
Q 44.09375 48.828125 44.09375 54.296875 
Q 44.09375 59.90625 40.109375 62.90625 
Q 36.140625 65.921875 28.71875 65.921875 
Q 24.65625 65.921875 20.015625 65.03125 
Q 15.375 64.15625 9.8125 62.3125 
L 9.8125 71.09375 
Q 15.4375 72.65625 20.34375 73.4375 
Q 25.25 74.21875 29.59375 74.21875 
Q 40.828125 74.21875 47.359375 69.109375 
Q 53.90625 64.015625 53.90625 55.328125 
Q 53.90625 49.265625 50.4375 45.09375 
Q 46.96875 40.921875 40.578125 39.3125 
z
" id="DejaVuSans-51"/>
      </defs>
      <g transform="translate(31.096875 141.553071)scale(0.1 -0.1)">
       <use xlink:href="#DejaVuSans-51"/>
       <use x="63.623047" xlink:href="#DejaVuSans-46"/>
       <use x="95.410156" xlink:href="#DejaVuSans-48"/>
      </g>
     </g>
    </g>
    <g id="ytick_4">
     <g id="line2d_25">
      <path clip-path="url(#pe99a9e395b)" d="M 54 91.098744 
L 388.8 91.098744 
" style="fill:none;stroke:#b0b0b0;stroke-linecap:square;stroke-width:0.8;"/>
     </g>
     <g id="line2d_26">
      <g>
       <use style="stroke:#000000;stroke-width:0.8;" x="54" xlink:href="#me28931405e" y="91.098744"/>
      </g>
     </g>
     <g id="text_14">
      <!-- 3.5 -->
      <g transform="translate(31.096875 94.897963)scale(0.1 -0.1)">
       <use xlink:href="#DejaVuSans-51"/>
       <use x="63.623047" xlink:href="#DejaVuSans-46"/>
       <use x="95.410156" xlink:href="#DejaVuSans-53"/>
      </g>
     </g>
    </g>
    <g id="ytick_5">
     <g id="line2d_27">
      <path clip-path="url(#pe99a9e395b)" d="M 54 44.443636 
L 388.8 44.443636 
" style="fill:none;stroke:#b0b0b0;stroke-linecap:square;stroke-width:0.8;"/>
     </g>
     <g id="line2d_28">
      <g>
       <use style="stroke:#000000;stroke-width:0.8;" x="54" xlink:href="#me28931405e" y="44.443636"/>
      </g>
     </g>
     <g id="text_15">
      <!-- 4.0 -->
      <defs>
       <path d="M 37.796875 64.3125 
L 12.890625 25.390625 
L 37.796875 25.390625 
z
M 35.203125 72.90625 
L 47.609375 72.90625 
L 47.609375 25.390625 
L 58.015625 25.390625 
L 58.015625 17.1875 
L 47.609375 17.1875 
L 47.609375 0 
L 37.796875 0 
L 37.796875 17.1875 
L 4.890625 17.1875 
L 4.890625 26.703125 
z
" id="DejaVuSans-52"/>
      </defs>
      <g transform="translate(31.096875 48.242855)scale(0.1 -0.1)">
       <use xlink:href="#DejaVuSans-52"/>
       <use x="63.623047" xlink:href="#DejaVuSans-46"/>
       <use x="95.410156" xlink:href="#DejaVuSans-48"/>
      </g>
     </g>
    </g>
    <g id="text_16">
     <!-- Fitness -->
     <defs>
      <path d="M 9.8125 72.90625 
L 51.703125 72.90625 
L 51.703125 64.59375 
L 19.671875 64.59375 
L 19.671875 43.109375 
L 48.578125 43.109375 
L 48.578125 34.8125 
L 19.671875 34.8125 
L 19.671875 0 
L 9.8125 0 
z
" id="DejaVuSans-70"/>
     </defs>
     <g transform="translate(25.017187 160.954219)rotate(-90)scale(0.1 -0.1)">
      <use xlink:href="#DejaVuSans-70"/>
      <use x="57.410156" xlink:href="#DejaVuSans-105"/>
      <use x="85.193359" xlink:href="#DejaVuSans-116"/>
      <use x="124.402344" xlink:href="#DejaVuSans-110"/>
      <use x="187.78125" xlink:href="#DejaVuSans-101"/>
      <use x="249.304688" xlink:href="#DejaVuSans-115"/>
      <use x="301.404297" xlink:href="#DejaVuSans-115"/>
     </g>
    </g>
   </g>
   <g id="line2d_29">
    <path clip-path="url(#pe99a9e395b)" d="M 69.218182 207.225512 
L 70.747647 195.057549 
L 72.277113 185.906835 
L 73.806578 181.484431 
L 75.336044 174.111447 
L 76.865509 176.827379 
L 78.394975 171.907057 
L 79.92444 173.02247 
L 81.453906 166.994609 
L 82.983371 162.765556 
L 84.512837 168.945754 
L 86.042302 170.705286 
L 87.571768 172.038055 
L 89.101233 172.624247 
L 90.630699 166.549635 
L 92.160164 171.43665 
L 93.68963 173.880503 
L 95.219095 170.777841 
L 96.748561 175.904834 
L 98.278026 178.185663 
L 99.807492 178.16075 
L 101.336958 179.864864 
L 102.866423 179.619769 
L 104.395889 180.864748 
L 105.925354 173.501117 
L 107.45482 172.958395 
L 108.984285 182.031409 
L 110.513751 187.403963 
L 112.043216 182.828416 
L 113.572682 181.785048 
L 115.102147 186.075508 
L 116.631613 177.207304 
L 118.161078 180.684762 
L 119.690544 178.323851 
L 121.220009 177.328502 
L 122.749475 181.734316 
L 124.27894 170.789391 
L 125.808406 176.684133 
L 127.337871 173.081114 
L 128.867337 170.526184 
L 130.396802 164.509389 
L 131.926268 170.920906 
L 133.455733 173.334917 
L 134.985199 169.940926 
L 136.514664 170.953729 
L 139.573595 169.044584 
L 141.103061 167.22597 
L 142.632526 163.701639 
L 144.161992 169.561876 
L 145.691457 161.704481 
L 147.220923 175.882896 
L 148.750388 167.847345 
L 150.279854 177.872561 
L 151.809319 177.413731 
L 153.338785 172.606457 
L 154.86825 165.142632 
L 156.397716 163.181348 
L 157.927181 165.171615 
L 159.456647 172.617807 
L 160.986112 162.644505 
L 162.515578 161.007995 
L 164.045043 165.215025 
L 165.574509 160.753786 
L 167.103974 170.046259 
L 168.63344 175.754271 
L 170.162905 164.841941 
L 171.692371 163.496166 
L 174.751302 157.779797 
L 176.280767 159.71847 
L 177.810233 152.986559 
L 179.339698 152.474756 
L 180.869164 153.833449 
L 182.39863 149.6808 
L 183.928095 143.366584 
L 185.457561 148.546437 
L 186.987026 149.105354 
L 188.516492 151.297514 
L 190.045957 146.957123 
L 191.575423 154.048029 
L 193.104888 146.520041 
L 194.634354 143.480583 
L 196.163819 144.306989 
L 197.693285 148.646214 
L 199.22275 149.172825 
L 200.752216 154.090237 
L 202.281681 158.320401 
L 203.811147 160.432465 
L 205.340612 154.009597 
L 206.870078 159.969576 
L 208.399543 160.291246 
L 209.929009 154.789318 
L 211.458474 156.43572 
L 212.98794 165.579094 
L 214.517405 163.781234 
L 216.046871 154.980633 
L 217.576336 154.109647 
L 219.105802 152.165768 
L 220.635267 153.4647 
L 222.164733 147.663353 
L 223.694198 150.314285 
L 225.223664 153.242274 
L 226.753129 154.474997 
L 228.282595 147.79549 
L 229.81206 150.98362 
L 231.341526 158.457289 
L 232.870991 158.226848 
L 234.400457 153.236314 
L 235.929922 146.246873 
L 237.459388 151.369866 
L 238.988853 147.54042 
L 240.518319 155.623356 
L 242.047784 149.61505 
L 243.57725 158.665684 
L 246.636181 145.537309 
L 248.165646 147.563535 
L 249.695112 148.557653 
L 251.224577 143.836161 
L 252.754043 149.103991 
L 254.283508 142.584608 
L 255.812974 144.133079 
L 257.342439 145.123436 
L 258.871905 149.50962 
L 260.40137 142.241193 
L 261.930836 147.164659 
L 263.460302 161.146128 
L 264.989767 159.85443 
L 266.519233 165.341445 
L 268.048698 156.063957 
L 269.578164 149.538345 
L 271.107629 152.256635 
L 272.637095 148.75743 
L 274.16656 145.643842 
L 275.696026 143.593866 
L 277.225491 147.170048 
L 278.754957 154.110158 
L 280.284422 142.298031 
L 281.813888 151.029184 
L 283.343353 141.764849 
L 284.872819 148.491257 
L 286.402284 156.605488 
L 287.93175 159.480292 
L 289.461215 153.920023 
L 290.990681 146.660593 
L 292.520146 153.113078 
L 294.049612 155.651855 
L 295.579077 154.424778 
L 297.108543 149.64982 
L 298.638008 157.25053 
L 300.167474 149.660662 
L 301.696939 152.3182 
L 303.226405 163.816912 
L 304.75587 147.903513 
L 306.285336 161.22639 
L 307.814801 158.440294 
L 309.344267 164.876964 
L 310.873732 157.233176 
L 312.403198 156.142034 
L 313.932663 150.594818 
L 315.462129 151.828814 
L 316.991594 164.827805 
L 318.52106 165.820081 
L 320.050525 162.10218 
L 321.579991 159.308882 
L 323.109456 154.375739 
L 324.638922 159.195888 
L 326.168387 150.689895 
L 327.697853 156.519508 
L 329.227318 158.128973 
L 330.756784 157.833084 
L 332.286249 155.332959 
L 333.815715 149.838398 
L 335.34518 147.56499 
L 336.874646 146.785945 
L 338.404111 145.274155 
L 339.933577 153.080925 
L 341.463042 152.828976 
L 342.992508 150.974087 
L 344.521974 154.467976 
L 346.051439 147.996075 
L 347.580905 154.473428 
L 349.11037 155.164913 
L 350.639836 153.621276 
L 352.169301 143.973289 
L 353.698767 148.943596 
L 355.228232 147.392296 
L 356.757698 141.903651 
L 358.287163 146.544818 
L 359.816629 140.225685 
L 361.346094 143.414264 
L 362.87556 152.598031 
L 364.405025 147.137234 
L 365.934491 148.725435 
L 367.463956 139.685756 
L 368.993422 142.218004 
L 370.522887 142.825374 
L 372.052353 150.932496 
L 373.581818 150.883864 
L 373.581818 150.883864 
" style="fill:none;stroke:#0000ff;stroke-linecap:square;stroke-width:1.5;"/>
   </g>
   <g id="line2d_30">
    <path clip-path="url(#pe99a9e395b)" d="M 69.218182 242.116364 
L 70.747647 232.792457 
L 72.277113 225.208989 
L 73.806578 221.983926 
L 75.336044 216.234747 
L 76.865509 221.729449 
L 78.394975 214.410107 
L 79.92444 216.332605 
L 81.453906 209.837672 
L 82.983371 202.16769 
L 84.512837 214.773974 
L 86.042302 218.44134 
L 87.571768 219.274189 
L 89.101233 221.235226 
L 90.630699 211.027885 
L 92.160164 218.305153 
L 93.68963 218.821156 
L 95.219095 218.561279 
L 96.748561 223.917743 
L 98.278026 224.886443 
L 99.807492 224.534913 
L 101.336958 227.781535 
L 104.395889 232.669382 
L 105.925354 217.438513 
L 107.45482 216.292183 
L 108.984285 227.221003 
L 110.513751 234.289134 
L 112.043216 228.982012 
L 113.572682 229.906717 
L 115.102147 234.444968 
L 116.631613 222.18011 
L 118.161078 228.597086 
L 119.690544 226.290431 
L 121.220009 226.002147 
L 122.749475 232.418459 
L 124.27894 219.38537 
L 125.808406 231.881189 
L 127.337871 221.785882 
L 128.867337 221.701857 
L 130.396802 213.70799 
L 131.926268 219.218223 
L 133.455733 223.716327 
L 134.985199 221.43308 
L 136.514664 220.422152 
L 138.04413 223.515666 
L 139.573595 222.037209 
L 141.103061 222.385715 
L 142.632526 218.65443 
L 144.161992 227.7865 
L 145.691457 217.045606 
L 147.220923 234.164073 
L 148.750388 222.151712 
L 150.279854 232.84926 
L 151.809319 235.165076 
L 153.338785 230.801372 
L 154.86825 227.035347 
L 156.397716 222.565485 
L 157.927181 226.148585 
L 159.456647 227.806006 
L 160.986112 222.828001 
L 162.515578 222.2043 
L 164.045043 228.005636 
L 165.574509 223.4336 
L 167.103974 230.688487 
L 168.63344 235.764106 
L 170.162905 228.072851 
L 171.692371 224.415759 
L 173.221836 226.833869 
L 174.751302 223.366207 
L 176.280767 224.271535 
L 177.810233 215.119684 
L 179.339698 216.454218 
L 180.869164 218.741375 
L 182.39863 217.046371 
L 183.928095 207.92455 
L 185.457561 217.767123 
L 186.987026 217.289274 
L 188.516492 216.351358 
L 190.045957 208.172264 
L 191.575423 221.738984 
L 193.104888 210.086698 
L 194.634354 208.470285 
L 196.163819 211.349608 
L 197.693285 211.021868 
L 199.22275 217.025602 
L 200.752216 221.963449 
L 202.281681 225.386106 
L 203.811147 224.886084 
L 205.340612 216.037595 
L 206.870078 225.866777 
L 208.399543 220.196361 
L 209.929009 212.865625 
L 211.458474 215.299513 
L 212.98794 232.154598 
L 214.517405 228.25842 
L 216.046871 216.324697 
L 217.576336 215.587332 
L 219.105802 213.25885 
L 220.635267 211.549418 
L 222.164733 198.785172 
L 223.694198 204.907647 
L 225.223664 211.571433 
L 226.753129 209.810973 
L 228.282595 204.258087 
L 229.81206 207.874779 
L 231.341526 222.400283 
L 232.870991 216.787335 
L 234.400457 216.632172 
L 235.929922 210.468201 
L 237.459388 214.983139 
L 238.988853 210.834846 
L 240.518319 223.154617 
L 242.047784 213.765305 
L 243.57725 224.831735 
L 245.106715 223.372153 
L 246.636181 210.156911 
L 248.165646 211.112003 
L 249.695112 216.710997 
L 251.224577 210.241791 
L 252.754043 214.076456 
L 254.283508 205.508422 
L 255.812974 205.614788 
L 257.342439 212.109081 
L 258.871905 210.14247 
L 260.40137 200.774408 
L 261.930836 206.935544 
L 263.460302 225.829256 
L 264.989767 228.891619 
L 266.519233 234.692078 
L 268.048698 222.401356 
L 269.578164 220.785691 
L 271.107629 221.274777 
L 272.637095 210.636548 
L 274.16656 207.867086 
L 275.696026 206.713611 
L 277.225491 209.234955 
L 278.754957 217.507071 
L 280.284422 203.782581 
L 281.813888 218.440961 
L 283.343353 204.083375 
L 284.872819 206.985593 
L 286.402284 219.736892 
L 287.93175 223.828554 
L 289.461215 218.234085 
L 290.990681 210.552896 
L 292.520146 215.97116 
L 294.049612 218.502638 
L 295.579077 220.420519 
L 297.108543 211.153747 
L 298.638008 218.060238 
L 300.167474 210.875453 
L 301.696939 209.331927 
L 303.226405 222.68613 
L 304.75587 203.319714 
L 306.285336 221.011571 
L 307.814801 217.614854 
L 309.344267 223.528894 
L 310.873732 210.898284 
L 312.403198 218.159818 
L 313.932663 207.954854 
L 315.462129 210.512361 
L 316.991594 218.631379 
L 318.52106 219.333293 
L 320.050525 216.585299 
L 321.579991 212.312357 
L 323.109456 208.884312 
L 324.638922 214.297466 
L 326.168387 202.784826 
L 327.697853 213.212805 
L 329.227318 212.04567 
L 330.756784 216.335411 
L 332.286249 211.350036 
L 333.815715 204.701787 
L 335.34518 201.049363 
L 336.874646 203.0926 
L 338.404111 202.11726 
L 339.933577 209.892542 
L 341.463042 208.11159 
L 342.992508 207.934562 
L 344.521974 210.856905 
L 346.051439 197.464121 
L 347.580905 214.490952 
L 349.11037 211.080213 
L 350.639836 215.073626 
L 352.169301 201.656999 
L 353.698767 208.899807 
L 355.228232 208.831404 
L 356.757698 200.194179 
L 358.287163 202.987712 
L 359.816629 195.807923 
L 362.87556 211.621592 
L 364.405025 203.064598 
L 365.934491 207.463217 
L 367.463956 201.542942 
L 368.993422 206.244859 
L 370.522887 202.833365 
L 372.052353 206.644633 
L 373.581818 210.792259 
L 373.581818 210.792259 
" style="fill:none;stroke:#008000;stroke-dasharray:9.6,2.4,1.5,2.4;stroke-dashoffset:0;stroke-width:1.5;"/>
   </g>
   <g id="line2d_31">
    <path clip-path="url(#pe99a9e395b)" d="M 69.218182 172.33466 
L 70.747647 157.32264 
L 72.277113 146.60468 
L 73.806578 140.984937 
L 75.336044 131.988147 
L 76.865509 131.925308 
L 78.394975 129.404006 
L 79.92444 129.712334 
L 81.453906 124.151546 
L 82.983371 123.363421 
L 86.042302 122.969232 
L 87.571768 124.801922 
L 89.101233 124.013267 
L 90.630699 122.071386 
L 92.160164 124.568147 
L 93.68963 128.93985 
L 95.219095 122.994402 
L 96.748561 127.891924 
L 98.278026 131.484884 
L 99.807492 131.786587 
L 101.336958 131.948194 
L 102.866423 128.95311 
L 104.395889 129.060115 
L 105.925354 129.563721 
L 107.45482 129.624606 
L 108.984285 136.841816 
L 110.513751 140.518792 
L 112.043216 136.67482 
L 113.572682 133.663379 
L 115.102147 137.706048 
L 116.631613 132.234498 
L 118.161078 132.772438 
L 119.690544 130.357272 
L 121.220009 128.654857 
L 122.749475 131.050172 
L 124.27894 122.193412 
L 125.808406 121.487077 
L 127.337871 124.376345 
L 128.867337 119.35051 
L 130.396802 115.310788 
L 131.926268 122.623589 
L 133.455733 122.953507 
L 134.985199 118.448773 
L 136.514664 121.485307 
L 138.04413 116.377636 
L 139.573595 116.05196 
L 141.103061 112.066225 
L 142.632526 108.748849 
L 144.161992 111.337252 
L 145.691457 106.363356 
L 147.220923 117.60172 
L 148.750388 113.542978 
L 150.279854 122.895861 
L 151.809319 119.662387 
L 153.338785 114.411542 
L 154.86825 103.249918 
L 156.397716 103.797211 
L 157.927181 104.194645 
L 159.456647 117.429608 
L 160.986112 102.46101 
L 162.515578 99.81169 
L 164.045043 102.424413 
L 165.574509 98.073973 
L 167.103974 109.404031 
L 168.63344 115.744435 
L 170.162905 101.611031 
L 171.692371 102.576574 
L 173.221836 94.477039 
L 174.751302 92.193387 
L 176.280767 95.165405 
L 177.810233 90.853435 
L 179.339698 88.495295 
L 180.869164 88.925523 
L 182.39863 82.315229 
L 183.928095 78.808617 
L 185.457561 79.325751 
L 186.987026 80.921434 
L 188.516492 86.243669 
L 190.045957 85.741981 
L 191.575423 86.357073 
L 193.104888 82.953384 
L 194.634354 78.490882 
L 196.163819 77.264369 
L 197.693285 86.270559 
L 199.22275 81.320047 
L 203.811147 95.978846 
L 205.340612 91.981598 
L 206.870078 94.072375 
L 208.399543 100.386131 
L 209.929009 96.71301 
L 211.458474 97.571928 
L 212.98794 99.00359 
L 214.517405 99.304048 
L 216.046871 93.636569 
L 217.576336 92.631961 
L 219.105802 91.072686 
L 220.635267 95.379982 
L 222.164733 96.541535 
L 225.223664 94.913116 
L 226.753129 99.139021 
L 228.282595 91.332892 
L 229.81206 94.09246 
L 231.341526 94.514295 
L 232.870991 99.666361 
L 234.400457 89.840456 
L 235.929922 82.025545 
L 237.459388 87.756593 
L 238.988853 84.245994 
L 240.518319 88.092095 
L 242.047784 85.464795 
L 243.57725 92.499633 
L 245.106715 80.503012 
L 246.636181 80.917708 
L 248.165646 84.015067 
L 249.695112 80.404309 
L 251.224577 77.430531 
L 252.754043 84.131526 
L 254.283508 79.660794 
L 255.812974 82.65137 
L 257.342439 78.13779 
L 258.871905 88.87677 
L 260.40137 83.707977 
L 261.930836 87.393774 
L 263.460302 96.463 
L 264.989767 90.81724 
L 266.519233 95.990812 
L 268.048698 89.726557 
L 269.578164 78.291 
L 271.107629 83.238493 
L 272.637095 86.878312 
L 274.16656 83.420598 
L 275.696026 80.47412 
L 277.225491 85.105141 
L 278.754957 90.713245 
L 280.284422 80.813481 
L 281.813888 83.617408 
L 283.343353 79.446324 
L 284.872819 89.99692 
L 286.402284 93.474084 
L 287.93175 95.13203 
L 289.461215 89.60596 
L 290.990681 82.76829 
L 292.520146 90.254995 
L 294.049612 92.801071 
L 295.579077 88.429038 
L 297.108543 88.145892 
L 298.638008 96.440822 
L 300.167474 88.445871 
L 301.696939 95.304473 
L 303.226405 104.947694 
L 304.75587 92.487312 
L 306.285336 101.441209 
L 307.814801 99.265734 
L 309.344267 106.225033 
L 310.873732 103.568067 
L 312.403198 94.124249 
L 313.932663 93.234783 
L 315.462129 93.145267 
L 316.991594 111.02423 
L 318.52106 112.30687 
L 320.050525 107.619061 
L 321.579991 106.305407 
L 323.109456 99.867167 
L 324.638922 104.09431 
L 326.168387 98.594965 
L 327.697853 99.826211 
L 329.227318 104.212276 
L 330.756784 99.330757 
L 332.286249 99.315882 
L 333.815715 94.975009 
L 335.34518 94.080616 
L 336.874646 90.47929 
L 338.404111 88.43105 
L 339.933577 96.269308 
L 341.463042 97.546363 
L 342.992508 94.013611 
L 344.521974 98.079048 
L 346.051439 98.52803 
L 347.580905 94.455905 
L 349.11037 99.249614 
L 350.639836 92.168925 
L 352.169301 86.289579 
L 353.698767 88.987384 
L 355.228232 85.953188 
L 356.757698 83.613123 
L 358.287163 90.101924 
L 359.816629 84.643446 
L 361.346094 83.325716 
L 362.87556 93.574471 
L 364.405025 91.20987 
L 365.934491 89.987654 
L 367.463956 77.828571 
L 368.993422 78.191149 
L 370.522887 82.817382 
L 372.052353 95.220359 
L 373.581818 90.975469 
L 373.581818 90.975469 
" style="fill:none;stroke:#008000;stroke-dasharray:9.6,2.4,1.5,2.4;stroke-dashoffset:0;stroke-width:1.5;"/>
   </g>
   <g id="line2d_32">
    <path clip-path="url(#pe99a9e395b)" d="M 69.218182 137.781417 
L 93.68963 137.753625 
L 96.748561 137.753153 
L 98.278026 137.597422 
L 99.807492 120.553399 
L 101.336958 94.924963 
L 113.572682 94.924963 
L 115.102147 58.737286 
L 118.161078 58.737286 
L 119.690544 44.95586 
L 121.220009 44.630997 
L 122.749475 44.497384 
L 373.581818 44.443636 
L 373.581818 44.443636 
" style="fill:none;stroke:#ff0000;stroke-linecap:square;stroke-width:1.5;"/>
   </g>
   <g id="patch_3">
    <path d="M 54 252 
L 54 34.56 
" style="fill:none;stroke:#000000;stroke-linecap:square;stroke-linejoin:miter;stroke-width:0.8;"/>
   </g>
   <g id="patch_4">
    <path d="M 388.8 252 
L 388.8 34.56 
" style="fill:none;stroke:#000000;stroke-linecap:square;stroke-linejoin:miter;stroke-width:0.8;"/>
   </g>
   <g id="patch_5">
    <path d="M 54 252 
L 388.8 252 
" style="fill:none;stroke:#000000;stroke-linecap:square;stroke-linejoin:miter;stroke-width:0.8;"/>
   </g>
   <g id="patch_6">
    <path d="M 54 34.56 
L 388.8 34.56 
" style="fill:none;stroke:#000000;stroke-linecap:square;stroke-linejoin:miter;stroke-width:0.8;"/>
   </g>
   <g id="text_17">
    <!-- Population's average and best fitness -->
    <defs>
     <path d="M 19.671875 64.796875 
L 19.671875 37.40625 
L 32.078125 37.40625 
Q 38.96875 37.40625 42.71875 40.96875 
Q 46.484375 44.53125 46.484375 51.125 
Q 46.484375 57.671875 42.71875 61.234375 
Q 38.96875 64.796875 32.078125 64.796875 
z
M 9.8125 72.90625 
L 32.078125 72.90625 
Q 44.34375 72.90625 50.609375 67.359375 
Q 56.890625 61.8125 56.890625 51.125 
Q 56.890625 40.328125 50.609375 34.8125 
Q 44.34375 29.296875 32.078125 29.296875 
L 19.671875 29.296875 
L 19.671875 0 
L 9.8125 0 
z
" id="DejaVuSans-80"/>
     <path d="M 18.109375 8.203125 
L 18.109375 -20.796875 
L 9.078125 -20.796875 
L 9.078125 54.6875 
L 18.109375 54.6875 
L 18.109375 46.390625 
Q 20.953125 51.265625 25.265625 53.625 
Q 29.59375 56 35.59375 56 
Q 45.5625 56 51.78125 48.09375 
Q 58.015625 40.1875 58.015625 27.296875 
Q 58.015625 14.40625 51.78125 6.484375 
Q 45.5625 -1.421875 35.59375 -1.421875 
Q 29.59375 -1.421875 25.265625 0.953125 
Q 20.953125 3.328125 18.109375 8.203125 
z
M 48.6875 27.296875 
Q 48.6875 37.203125 44.609375 42.84375 
Q 40.53125 48.484375 33.40625 48.484375 
Q 26.265625 48.484375 22.1875 42.84375 
Q 18.109375 37.203125 18.109375 27.296875 
Q 18.109375 17.390625 22.1875 11.75 
Q 26.265625 6.109375 33.40625 6.109375 
Q 40.53125 6.109375 44.609375 11.75 
Q 48.6875 17.390625 48.6875 27.296875 
z
" id="DejaVuSans-112"/>
     <path d="M 8.5 21.578125 
L 8.5 54.6875 
L 17.484375 54.6875 
L 17.484375 21.921875 
Q 17.484375 14.15625 20.5 10.265625 
Q 23.53125 6.390625 29.59375 6.390625 
Q 36.859375 6.390625 41.078125 11.03125 
Q 45.3125 15.671875 45.3125 23.6875 
L 45.3125 54.6875 
L 54.296875 54.6875 
L 54.296875 0 
L 45.3125 0 
L 45.3125 8.40625 
Q 42.046875 3.421875 37.71875 1 
Q 33.40625 -1.421875 27.6875 -1.421875 
Q 18.265625 -1.421875 13.375 4.4375 
Q 8.5 10.296875 8.5 21.578125 
z
M 31.109375 56 
z
" id="DejaVuSans-117"/>
     <path d="M 9.421875 75.984375 
L 18.40625 75.984375 
L 18.40625 0 
L 9.421875 0 
z
" id="DejaVuSans-108"/>
     <path d="M 17.921875 72.90625 
L 17.921875 45.796875 
L 9.625 45.796875 
L 9.625 72.90625 
z
" id="DejaVuSans-39"/>
     <path id="DejaVuSans-32"/>
     <path d="M 2.984375 54.6875 
L 12.5 54.6875 
L 29.59375 8.796875 
L 46.6875 54.6875 
L 56.203125 54.6875 
L 35.6875 0 
L 23.484375 0 
z
" id="DejaVuSans-118"/>
     <path d="M 45.40625 27.984375 
Q 45.40625 37.75 41.375 43.109375 
Q 37.359375 48.484375 30.078125 48.484375 
Q 22.859375 48.484375 18.828125 43.109375 
Q 14.796875 37.75 14.796875 27.984375 
Q 14.796875 18.265625 18.828125 12.890625 
Q 22.859375 7.515625 30.078125 7.515625 
Q 37.359375 7.515625 41.375 12.890625 
Q 45.40625 18.265625 45.40625 27.984375 
z
M 54.390625 6.78125 
Q 54.390625 -7.171875 48.1875 -13.984375 
Q 42 -20.796875 29.203125 -20.796875 
Q 24.46875 -20.796875 20.265625 -20.09375 
Q 16.0625 -19.390625 12.109375 -17.921875 
L 12.109375 -9.1875 
Q 16.0625 -11.328125 19.921875 -12.34375 
Q 23.78125 -13.375 27.78125 -13.375 
Q 36.625 -13.375 41.015625 -8.765625 
Q 45.40625 -4.15625 45.40625 5.171875 
L 45.40625 9.625 
Q 42.625 4.78125 38.28125 2.390625 
Q 33.9375 0 27.875 0 
Q 17.828125 0 11.671875 7.65625 
Q 5.515625 15.328125 5.515625 27.984375 
Q 5.515625 40.671875 11.671875 48.328125 
Q 17.828125 56 27.875 56 
Q 33.9375 56 38.28125 53.609375 
Q 42.625 51.21875 45.40625 46.390625 
L 45.40625 54.6875 
L 54.390625 54.6875 
z
" id="DejaVuSans-103"/>
     <path d="M 45.40625 46.390625 
L 45.40625 75.984375 
L 54.390625 75.984375 
L 54.390625 0 
L 45.40625 0 
L 45.40625 8.203125 
Q 42.578125 3.328125 38.25 0.953125 
Q 33.9375 -1.421875 27.875 -1.421875 
Q 17.96875 -1.421875 11.734375 6.484375 
Q 5.515625 14.40625 5.515625 27.296875 
Q 5.515625 40.1875 11.734375 48.09375 
Q 17.96875 56 27.875 56 
Q 33.9375 56 38.25 53.625 
Q 42.578125 51.265625 45.40625 46.390625 
z
M 14.796875 27.296875 
Q 14.796875 17.390625 18.875 11.75 
Q 22.953125 6.109375 30.078125 6.109375 
Q 37.203125 6.109375 41.296875 11.75 
Q 45.40625 17.390625 45.40625 27.296875 
Q 45.40625 37.203125 41.296875 42.84375 
Q 37.203125 48.484375 30.078125 48.484375 
Q 22.953125 48.484375 18.875 42.84375 
Q 14.796875 37.203125 14.796875 27.296875 
z
" id="DejaVuSans-100"/>
     <path d="M 48.6875 27.296875 
Q 48.6875 37.203125 44.609375 42.84375 
Q 40.53125 48.484375 33.40625 48.484375 
Q 26.265625 48.484375 22.1875 42.84375 
Q 18.109375 37.203125 18.109375 27.296875 
Q 18.109375 17.390625 22.1875 11.75 
Q 26.265625 6.109375 33.40625 6.109375 
Q 40.53125 6.109375 44.609375 11.75 
Q 48.6875 17.390625 48.6875 27.296875 
z
M 18.109375 46.390625 
Q 20.953125 51.265625 25.265625 53.625 
Q 29.59375 56 35.59375 56 
Q 45.5625 56 51.78125 48.09375 
Q 58.015625 40.1875 58.015625 27.296875 
Q 58.015625 14.40625 51.78125 6.484375 
Q 45.5625 -1.421875 35.59375 -1.421875 
Q 29.59375 -1.421875 25.265625 0.953125 
Q 20.953125 3.328125 18.109375 8.203125 
L 18.109375 0 
L 9.078125 0 
L 9.078125 75.984375 
L 18.109375 75.984375 
z
" id="DejaVuSans-98"/>
     <path d="M 37.109375 75.984375 
L 37.109375 68.5 
L 28.515625 68.5 
Q 23.6875 68.5 21.796875 66.546875 
Q 19.921875 64.59375 19.921875 59.515625 
L 19.921875 54.6875 
L 34.71875 54.6875 
L 34.71875 47.703125 
L 19.921875 47.703125 
L 19.921875 0 
L 10.890625 0 
L 10.890625 47.703125 
L 2.296875 47.703125 
L 2.296875 54.6875 
L 10.890625 54.6875 
L 10.890625 58.5 
Q 10.890625 67.625 15.140625 71.796875 
Q 19.390625 75.984375 28.609375 75.984375 
z
" id="DejaVuSans-102"/>
    </defs>
    <g transform="translate(108.555 28.56)scale(0.12 -0.12)">
     <use xlink:href="#DejaVuSans-80"/>
     <use x="60.255859" xlink:href="#DejaVuSans-111"/>
     <use x="121.4375" xlink:href="#DejaVuSans-112"/>
     <use x="184.914062" xlink:href="#DejaVuSans-117"/>
     <use x="248.292969" xlink:href="#DejaVuSans-108"/>
     <use x="276.076172" xlink:href="#DejaVuSans-97"/>
     <use x="337.355469" xlink:href="#DejaVuSans-116"/>
     <use x="376.564453" xlink:href="#DejaVuSans-105"/>
     <use x="404.347656" xlink:href="#DejaVuSans-111"/>
     <use x="465.529297" xlink:href="#DejaVuSans-110"/>
     <use x="528.908203" xlink:href="#DejaVuSans-39"/>
     <use x="556.398438" xlink:href="#DejaVuSans-115"/>
     <use x="608.498047" xlink:href="#DejaVuSans-32"/>
     <use x="640.285156" xlink:href="#DejaVuSans-97"/>
     <use x="701.564453" xlink:href="#DejaVuSans-118"/>
     <use x="760.744141" xlink:href="#DejaVuSans-101"/>
     <use x="822.267578" xlink:href="#DejaVuSans-114"/>
     <use x="863.380859" xlink:href="#DejaVuSans-97"/>
     <use x="924.660156" xlink:href="#DejaVuSans-103"/>
     <use x="988.136719" xlink:href="#DejaVuSans-101"/>
     <use x="1049.660156" xlink:href="#DejaVuSans-32"/>
     <use x="1081.447266" xlink:href="#DejaVuSans-97"/>
     <use x="1142.726562" xlink:href="#DejaVuSans-110"/>
     <use x="1206.105469" xlink:href="#DejaVuSans-100"/>
     <use x="1269.582031" xlink:href="#DejaVuSans-32"/>
     <use x="1301.369141" xlink:href="#DejaVuSans-98"/>
     <use x="1364.845703" xlink:href="#DejaVuSans-101"/>
     <use x="1426.369141" xlink:href="#DejaVuSans-115"/>
     <use x="1478.46875" xlink:href="#DejaVuSans-116"/>
     <use x="1517.677734" xlink:href="#DejaVuSans-32"/>
     <use x="1549.464844" xlink:href="#DejaVuSans-102"/>
     <use x="1584.669922" xlink:href="#DejaVuSans-105"/>
     <use x="1612.453125" xlink:href="#DejaVuSans-116"/>
     <use x="1651.662109" xlink:href="#DejaVuSans-110"/>
     <use x="1715.041016" xlink:href="#DejaVuSans-101"/>
     <use x="1776.564453" xlink:href="#DejaVuSans-115"/>
     <use x="1828.664062" xlink:href="#DejaVuSans-115"/>
    </g>
   </g>
   <g id="legend_1">
    <g id="patch_7">
     <path d="M 61 101.2725 
L 133.940625 101.2725 
Q 135.940625 101.2725 135.940625 99.2725 
L 135.940625 41.56 
Q 135.940625 39.56 133.940625 39.56 
L 61 39.56 
Q 59 39.56 59 41.56 
L 59 99.2725 
Q 59 101.2725 61 101.2725 
z
" style="fill:#ffffff;opacity:0.8;stroke:#cccccc;stroke-linejoin:miter;"/>
    </g>
    <g id="line2d_33">
     <path d="M 63 47.658437 
L 83 47.658437 
" style="fill:none;stroke:#0000ff;stroke-linecap:square;stroke-width:1.5;"/>
    </g>
    <g id="line2d_34"/>
    <g id="text_18">
     <!-- average -->
     <g transform="translate(91 51.158437)scale(0.1 -0.1)">
      <use xlink:href="#DejaVuSans-97"/>
      <use x="61.279297" xlink:href="#DejaVuSans-118"/>
      <use x="120.458984" xlink:href="#DejaVuSans-101"/>
      <use x="181.982422" xlink:href="#DejaVuSans-114"/>
      <use x="223.095703" xlink:href="#DejaVuSans-97"/>
      <use x="284.375" xlink:href="#DejaVuSans-103"/>
      <use x="347.851562" xlink:href="#DejaVuSans-101"/>
     </g>
    </g>
    <g id="line2d_35">
     <path d="M 63 62.336562 
L 83 62.336562 
" style="fill:none;stroke:#008000;stroke-dasharray:9.6,2.4,1.5,2.4;stroke-dashoffset:0;stroke-width:1.5;"/>
    </g>
    <g id="line2d_36"/>
    <g id="text_19">
     <!-- -1 sd -->
     <defs>
      <path d="M 4.890625 31.390625 
L 31.203125 31.390625 
L 31.203125 23.390625 
L 4.890625 23.390625 
z
" id="DejaVuSans-45"/>
     </defs>
     <g transform="translate(91 65.836562)scale(0.1 -0.1)">
      <use xlink:href="#DejaVuSans-45"/>
      <use x="36.083984" xlink:href="#DejaVuSans-49"/>
      <use x="99.707031" xlink:href="#DejaVuSans-32"/>
      <use x="131.494141" xlink:href="#DejaVuSans-115"/>
      <use x="183.59375" xlink:href="#DejaVuSans-100"/>
     </g>
    </g>
    <g id="line2d_37">
     <path d="M 63 77.014687 
L 83 77.014687 
" style="fill:none;stroke:#008000;stroke-dasharray:9.6,2.4,1.5,2.4;stroke-dashoffset:0;stroke-width:1.5;"/>
    </g>
    <g id="line2d_38"/>
    <g id="text_20">
     <!-- +1 sd -->
     <defs>
      <path d="M 46 62.703125 
L 46 35.5 
L 73.1875 35.5 
L 73.1875 27.203125 
L 46 27.203125 
L 46 0 
L 37.796875 0 
L 37.796875 27.203125 
L 10.59375 27.203125 
L 10.59375 35.5 
L 37.796875 35.5 
L 37.796875 62.703125 
z
" id="DejaVuSans-43"/>
     </defs>
     <g transform="translate(91 80.514687)scale(0.1 -0.1)">
      <use xlink:href="#DejaVuSans-43"/>
      <use x="83.789062" xlink:href="#DejaVuSans-49"/>
      <use x="147.412109" xlink:href="#DejaVuSans-32"/>
      <use x="179.199219" xlink:href="#DejaVuSans-115"/>
      <use x="231.298828" xlink:href="#DejaVuSans-100"/>
     </g>
    </g>
    <g id="line2d_39">
     <path d="M 63 91.692813 
L 83 91.692813 
" style="fill:none;stroke:#ff0000;stroke-linecap:square;stroke-width:1.5;"/>
    </g>
    <g id="line2d_40"/>
    <g id="text_21">
     <!-- best -->
     <g transform="translate(91 95.192813)scale(0.1 -0.1)">
      <use xlink:href="#DejaVuSans-98"/>
      <use x="63.476562" xlink:href="#DejaVuSans-101"/>
      <use x="125" xlink:href="#DejaVuSans-115"/>
      <use x="177.099609" xlink:href="#DejaVuSans-116"/>
     </g>
    </g>
   </g>
  </g>
 </g>
 <defs>
  <clipPath id="pe99a9e395b">
   <rect height="217.44" width="334.8" x="54" y="34.56"/>
  </clipPath>
 </defs>
</svg>
