<?xml version="1.0" encoding="UTF-8" standalone="no"?>
<!DOCTYPE svg PUBLIC "-//W3C//DTD SVG 1.1//EN"
 "http://www.w3.org/Graphics/SVG/1.1/DTD/svg11.dtd">
<!-- Generated by graphviz version 2.42.3 (20191010.1750)
 -->
<!-- Title: %3 Pages: 1 -->
<svg width="72pt" height="90pt"
 viewBox="0.00 0.00 72.50 89.99" xmlns="http://www.w3.org/2000/svg" xmlns:xlink="http://www.w3.org/1999/xlink">
<g id="graph0" class="graph" transform="scale(1 1) rotate(0) translate(4 85.99)">
<title>%3</title>
<polygon fill="white" stroke="transparent" points="-4,4 -4,-85.99 68.5,-85.99 68.5,4 -4,4"/>
<!-- &#45;1 -->
<g id="node1" class="node">
<title>&#45;1</title>
<polygon fill="lightgray" stroke="black" points="23.75,-81.99 -0.25,-81.99 -0.25,-64.99 23.75,-64.99 23.75,-81.99"/>
<text text-anchor="middle" x="11.75" y="-70.79" font-family="Times,serif" font-size="9.00">&#45;1</text>
</g>
<!-- 0 -->
<g id="node3" class="node">
<title>0</title>
<ellipse fill="lightblue" stroke="black" cx="31.75" cy="-14.5" rx="14.49" ry="14.49"/>
<text text-anchor="middle" x="31.75" y="-11.8" font-family="Times,serif" font-size="9.00">0</text>
</g>
<!-- &#45;1&#45;&gt;0 -->
<g id="edge1" class="edge">
<title>&#45;1&#45;&gt;0</title>
<path fill="none" stroke="red" stroke-width="0.43" d="M14.53,-64.57C16.93,-57.74 20.51,-47.53 23.78,-38.2"/>
<polygon fill="red" stroke="red" stroke-width="0.43" points="27.14,-39.2 27.15,-28.61 20.53,-36.88 27.14,-39.2"/>
</g>
<!-- &#45;2 -->
<g id="node2" class="node">
<title>&#45;2</title>
<polygon fill="lightgray" stroke="black" points="64.75,-81.99 40.75,-81.99 40.75,-64.99 64.75,-64.99 64.75,-81.99"/>
<text text-anchor="middle" x="52.75" y="-70.79" font-family="Times,serif" font-size="9.00">&#45;2</text>
</g>
<!-- &#45;2&#45;&gt;0 -->
<g id="edge2" class="edge">
<title>&#45;2&#45;&gt;0</title>
<path fill="none" stroke="green" stroke-width="0.46" d="M49.83,-64.57C47.31,-57.74 43.55,-47.53 40.11,-38.2"/>
<polygon fill="green" stroke="green" stroke-width="0.46" points="43.32,-36.78 36.58,-28.61 36.75,-39.2 43.32,-36.78"/>
</g>
</g>
</svg>
