<?xml version="1.0" encoding="UTF-8" standalone="no"?>
<!DOCTYPE svg PUBLIC "-//W3C//DTD SVG 1.1//EN"
 "http://www.w3.org/Graphics/SVG/1.1/DTD/svg11.dtd">
<!-- Generated by graphviz version 2.42.3 (20191010.1750)
 -->
<!-- Title: %3 Pages: 1 -->
<svg width="81pt" height="212pt"
 viewBox="0.00 0.00 80.85 211.57" xmlns="http://www.w3.org/2000/svg" xmlns:xlink="http://www.w3.org/1999/xlink">
<g id="graph0" class="graph" transform="scale(1 1) rotate(0) translate(4 207.57)">
<title>%3</title>
<polygon fill="white" stroke="transparent" points="-4,4 -4,-207.57 76.85,-207.57 76.85,4 -4,4"/>
<!-- A -->
<g id="node1" class="node">
<title>A</title>
<polygon fill="lightgray" stroke="black" points="25.93,-203.57 2.92,-203.57 2.92,-186.57 25.93,-186.57 25.93,-203.57"/>
<text text-anchor="middle" x="14.42" y="-192.37" font-family="Times,serif" font-size="9.00">A</text>
</g>
<!-- A XOR B -->
<g id="node3" class="node">
<title>A XOR B</title>
<ellipse fill="lightblue" stroke="black" cx="36.42" cy="-36.42" rx="36.35" ry="36.35"/>
<text text-anchor="middle" x="36.42" y="-33.72" font-family="Times,serif" font-size="9.00">A XOR B</text>
</g>
<!-- A&#45;&gt;A XOR B -->
<g id="edge5" class="edge">
<title>A&#45;&gt;A XOR B</title>
<path fill="none" stroke="green" stroke-width="1.68" d="M12.24,-186.47C8.26,-171.48 0.73,-137.11 6.42,-108.85 8.46,-98.76 11.95,-88.33 15.86,-78.65"/>
<polygon fill="green" stroke="green" stroke-width="1.68" points="19.16,-79.84 19.86,-69.27 12.72,-77.09 19.16,-79.84"/>
</g>
<!-- 283 -->
<g id="node4" class="node">
<title>283</title>
<ellipse fill="white" stroke="black" cx="36.42" cy="-129.71" rx="20.72" ry="20.72"/>
<text text-anchor="middle" x="36.42" y="-127.01" font-family="Times,serif" font-size="9.00">283</text>
</g>
<!-- A&#45;&gt;283 -->
<g id="edge4" class="edge">
<title>A&#45;&gt;283</title>
<path fill="none" stroke="red" stroke-width="1.11" d="M17.12,-186.3C19.48,-179.51 23.05,-169.21 26.49,-159.32"/>
<polygon fill="red" stroke="red" stroke-width="1.11" points="29.85,-160.3 29.83,-149.71 23.24,-158.01 29.85,-160.3"/>
</g>
<!-- B -->
<g id="node2" class="node">
<title>B</title>
<polygon fill="lightgray" stroke="black" points="69.43,-203.57 47.42,-203.57 47.42,-186.57 69.43,-186.57 69.43,-203.57"/>
<text text-anchor="middle" x="58.42" y="-192.37" font-family="Times,serif" font-size="9.00">B</text>
</g>
<!-- B&#45;&gt;A XOR B -->
<g id="edge1" class="edge">
<title>B&#45;&gt;A XOR B</title>
<path fill="none" stroke="red" stroke-width="1.77" d="M60.61,-186.47C64.59,-171.48 72.12,-137.11 66.42,-108.85 64.39,-98.76 60.9,-88.33 56.99,-78.65"/>
<polygon fill="red" stroke="red" stroke-width="1.77" points="60.13,-77.09 52.99,-69.27 53.69,-79.84 60.13,-77.09"/>
</g>
<!-- B&#45;&gt;283 -->
<g id="edge2" class="edge">
<title>B&#45;&gt;283</title>
<path fill="none" stroke="green" stroke-width="0.58" d="M55.73,-186.3C53.37,-179.51 49.79,-169.21 46.36,-159.32"/>
<polygon fill="green" stroke="green" stroke-width="0.58" points="49.61,-158.01 43.02,-149.71 43,-160.3 49.61,-158.01"/>
</g>
<!-- 283&#45;&gt;A XOR B -->
<g id="edge3" class="edge">
<title>283&#45;&gt;A XOR B</title>
<path fill="none" stroke="green" stroke-width="3.68" d="M36.42,-108.45C36.42,-100.97 36.42,-92.17 36.42,-83.35"/>
<polygon fill="green" stroke="green" stroke-width="3.68" points="39.92,-83.06 36.42,-73.06 32.92,-83.06 39.92,-83.06"/>
</g>
</g>
</svg>
