<?xml version="1.0" encoding="UTF-8" standalone="no"?>
<!DOCTYPE svg PUBLIC "-//W3C//DTD SVG 1.1//EN"
 "http://www.w3.org/Graphics/SVG/1.1/DTD/svg11.dtd">
<!-- Generated by graphviz version 2.42.3 (20191010.1750)
 -->
<!-- Title: %3 Pages: 1 -->
<svg width="81pt" height="218pt"
 viewBox="0.00 0.00 80.85 217.93" xmlns="http://www.w3.org/2000/svg" xmlns:xlink="http://www.w3.org/1999/xlink">
<g id="graph0" class="graph" transform="scale(1 1) rotate(0) translate(4 213.93)">
<title>%3</title>
<polygon fill="white" stroke="transparent" points="-4,4 -4,-213.93 76.85,-213.93 76.85,4 -4,4"/>
<!-- A -->
<g id="node1" class="node">
<title>A</title>
<polygon fill="lightgray" stroke="black" points="24.93,-209.93 1.92,-209.93 1.92,-192.93 24.93,-192.93 24.93,-209.93"/>
<text text-anchor="middle" x="13.42" y="-198.73" font-family="Times,serif" font-size="9.00">A</text>
</g>
<!-- A XOR B -->
<g id="node3" class="node">
<title>A XOR B</title>
<ellipse fill="lightblue" stroke="black" cx="36.42" cy="-36.42" rx="36.35" ry="36.35"/>
<text text-anchor="middle" x="36.42" y="-33.72" font-family="Times,serif" font-size="9.00">A XOR B</text>
</g>
<!-- A&#45;&gt;A XOR B -->
<g id="edge1" class="edge">
<title>A&#45;&gt;A XOR B</title>
<path fill="none" stroke="green" stroke-width="1.4" d="M10.92,-192.74C6.13,-176.89 -3.31,-139.47 3.42,-108.85 5.74,-98.33 9.75,-87.52 14.2,-77.6"/>
<polygon fill="green" stroke="green" stroke-width="1.4" points="17.45,-78.93 18.56,-68.39 11.12,-75.93 17.45,-78.93"/>
</g>
<!-- 1434 -->
<g id="node4" class="node">
<title>1434</title>
<ellipse fill="white" stroke="black" cx="36.42" cy="-132.89" rx="24.08" ry="24.08"/>
<text text-anchor="middle" x="36.42" y="-130.19" font-family="Times,serif" font-size="9.00">1434</text>
</g>
<!-- A&#45;&gt;1434 -->
<g id="edge4" class="edge">
<title>A&#45;&gt;1434</title>
<path fill="none" stroke="red" stroke-width="0.94" d="M16.06,-192.8C18.41,-186.02 21.99,-175.64 25.51,-165.47"/>
<polygon fill="red" stroke="red" stroke-width="0.94" points="28.85,-166.51 28.81,-155.91 22.24,-164.22 28.85,-166.51"/>
</g>
<!-- B -->
<g id="node2" class="node">
<title>B</title>
<polygon fill="lightgray" stroke="black" points="70.43,-209.93 48.42,-209.93 48.42,-192.93 70.43,-192.93 70.43,-209.93"/>
<text text-anchor="middle" x="59.42" y="-198.73" font-family="Times,serif" font-size="9.00">B</text>
</g>
<!-- B&#45;&gt;A XOR B -->
<g id="edge5" class="edge">
<title>B&#45;&gt;A XOR B</title>
<path fill="none" stroke="red" stroke-width="0.42" d="M61.92,-192.74C66.72,-176.89 76.16,-139.47 69.42,-108.85 67.11,-98.33 63.1,-87.52 58.65,-77.6"/>
<polygon fill="red" stroke="red" stroke-width="0.42" points="61.73,-75.93 54.28,-68.39 55.4,-78.93 61.73,-75.93"/>
</g>
<!-- B&#45;&gt;1434 -->
<g id="edge2" class="edge">
<title>B&#45;&gt;1434</title>
<path fill="none" stroke="green" stroke-width="0.55" d="M56.79,-192.8C54.44,-186.02 50.86,-175.64 47.34,-165.47"/>
<polygon fill="green" stroke="green" stroke-width="0.55" points="50.61,-164.22 44.04,-155.91 44,-166.51 50.61,-164.22"/>
</g>
<!-- 1434&#45;&gt;A XOR B -->
<g id="edge3" class="edge">
<title>1434&#45;&gt;A XOR B</title>
<path fill="none" stroke="green" stroke-width="2.45" d="M36.42,-108.54C36.42,-100.84 36.42,-92 36.42,-83.22"/>
<polygon fill="green" stroke="green" stroke-width="2.45" points="39.92,-83.02 36.42,-73.02 32.92,-83.02 39.92,-83.02"/>
</g>
</g>
</svg>
