<?xml version="1.0" encoding="utf-8" standalone="no"?>
<!DOCTYPE svg PUBLIC "-//W3C//DTD SVG 1.1//EN"
  "http://www.w3.org/Graphics/SVG/1.1/DTD/svg11.dtd">
<!-- Created with matplotlib (https://matplotlib.org/) -->
<svg height="345.6pt" version="1.1" viewBox="0 0 460.8 345.6" width="460.8pt" xmlns="http://www.w3.org/2000/svg" xmlns:xlink="http://www.w3.org/1999/xlink">
 <defs>
  <style type="text/css">
*{stroke-linecap:butt;stroke-linejoin:round;}
  </style>
 </defs>
 <g id="figure_1">
  <g id="patch_1">
   <path d="M 0 345.6 
L 460.8 345.6 
L 460.8 0 
L 0 0 
z
" style="fill:#ffffff;"/>
  </g>
  <g id="axes_1">
   <g id="patch_2">
    <path d="M 57.6 307.584 
L 414.72 307.584 
L 414.72 41.472 
L 57.6 41.472 
z
" style="fill:#ffffff;"/>
   </g>
   <g id="matplotlib.axis_1">
    <g id="xtick_1">
     <g id="line2d_1">
      <path clip-path="url(#p1dfc23953f)" d="M 73.832727 307.584 
L 73.832727 41.472 
" style="fill:none;stroke:#b0b0b0;stroke-linecap:square;stroke-width:0.8;"/>
     </g>
     <g id="line2d_2">
      <defs>
       <path d="M 0 0 
L 0 3.5 
" id="m589a436983" style="stroke:#000000;stroke-width:0.8;"/>
      </defs>
      <g>
       <use style="stroke:#000000;stroke-width:0.8;" x="73.832727" xlink:href="#m589a436983" y="307.584"/>
      </g>
     </g>
     <g id="text_1">
      <!-- 0 -->
      <defs>
       <path d="M 31.78125 66.40625 
Q 24.171875 66.40625 20.328125 58.90625 
Q 16.5 51.421875 16.5 36.375 
Q 16.5 21.390625 20.328125 13.890625 
Q 24.171875 6.390625 31.78125 6.390625 
Q 39.453125 6.390625 43.28125 13.890625 
Q 47.125 21.390625 47.125 36.375 
Q 47.125 51.421875 43.28125 58.90625 
Q 39.453125 66.40625 31.78125 66.40625 
z
M 31.78125 74.21875 
Q 44.046875 74.21875 50.515625 64.515625 
Q 56.984375 54.828125 56.984375 36.375 
Q 56.984375 17.96875 50.515625 8.265625 
Q 44.046875 -1.421875 31.78125 -1.421875 
Q 19.53125 -1.421875 13.0625 8.265625 
Q 6.59375 17.96875 6.59375 36.375 
Q 6.59375 54.828125 13.0625 64.515625 
Q 19.53125 74.21875 31.78125 74.21875 
z
" id="DejaVuSans-48"/>
      </defs>
      <g transform="translate(70.651477 322.182437)scale(0.1 -0.1)">
       <use xlink:href="#DejaVuSans-48"/>
      </g>
     </g>
    </g>
    <g id="xtick_2">
     <g id="line2d_3">
      <path clip-path="url(#p1dfc23953f)" d="M 138.893758 307.584 
L 138.893758 41.472 
" style="fill:none;stroke:#b0b0b0;stroke-linecap:square;stroke-width:0.8;"/>
     </g>
     <g id="line2d_4">
      <g>
       <use style="stroke:#000000;stroke-width:0.8;" x="138.893758" xlink:href="#m589a436983" y="307.584"/>
      </g>
     </g>
     <g id="text_2">
      <!-- 100 -->
      <defs>
       <path d="M 12.40625 8.296875 
L 28.515625 8.296875 
L 28.515625 63.921875 
L 10.984375 60.40625 
L 10.984375 69.390625 
L 28.421875 72.90625 
L 38.28125 72.90625 
L 38.28125 8.296875 
L 54.390625 8.296875 
L 54.390625 0 
L 12.40625 0 
z
" id="DejaVuSans-49"/>
      </defs>
      <g transform="translate(129.350008 322.182437)scale(0.1 -0.1)">
       <use xlink:href="#DejaVuSans-49"/>
       <use x="63.623047" xlink:href="#DejaVuSans-48"/>
       <use x="127.246094" xlink:href="#DejaVuSans-48"/>
      </g>
     </g>
    </g>
    <g id="xtick_3">
     <g id="line2d_5">
      <path clip-path="url(#p1dfc23953f)" d="M 203.95479 307.584 
L 203.95479 41.472 
" style="fill:none;stroke:#b0b0b0;stroke-linecap:square;stroke-width:0.8;"/>
     </g>
     <g id="line2d_6">
      <g>
       <use style="stroke:#000000;stroke-width:0.8;" x="203.95479" xlink:href="#m589a436983" y="307.584"/>
      </g>
     </g>
     <g id="text_3">
      <!-- 200 -->
      <defs>
       <path d="M 19.1875 8.296875 
L 53.609375 8.296875 
L 53.609375 0 
L 7.328125 0 
L 7.328125 8.296875 
Q 12.9375 14.109375 22.625 23.890625 
Q 32.328125 33.6875 34.8125 36.53125 
Q 39.546875 41.84375 41.421875 45.53125 
Q 43.3125 49.21875 43.3125 52.78125 
Q 43.3125 58.59375 39.234375 62.25 
Q 35.15625 65.921875 28.609375 65.921875 
Q 23.96875 65.921875 18.8125 64.3125 
Q 13.671875 62.703125 7.8125 59.421875 
L 7.8125 69.390625 
Q 13.765625 71.78125 18.9375 73 
Q 24.125 74.21875 28.421875 74.21875 
Q 39.75 74.21875 46.484375 68.546875 
Q 53.21875 62.890625 53.21875 53.421875 
Q 53.21875 48.921875 51.53125 44.890625 
Q 49.859375 40.875 45.40625 35.40625 
Q 44.1875 33.984375 37.640625 27.21875 
Q 31.109375 20.453125 19.1875 8.296875 
z
" id="DejaVuSans-50"/>
      </defs>
      <g transform="translate(194.41104 322.182437)scale(0.1 -0.1)">
       <use xlink:href="#DejaVuSans-50"/>
       <use x="63.623047" xlink:href="#DejaVuSans-48"/>
       <use x="127.246094" xlink:href="#DejaVuSans-48"/>
      </g>
     </g>
    </g>
    <g id="xtick_4">
     <g id="line2d_7">
      <path clip-path="url(#p1dfc23953f)" d="M 269.015821 307.584 
L 269.015821 41.472 
" style="fill:none;stroke:#b0b0b0;stroke-linecap:square;stroke-width:0.8;"/>
     </g>
     <g id="line2d_8">
      <g>
       <use style="stroke:#000000;stroke-width:0.8;" x="269.015821" xlink:href="#m589a436983" y="307.584"/>
      </g>
     </g>
     <g id="text_4">
      <!-- 300 -->
      <defs>
       <path d="M 40.578125 39.3125 
Q 47.65625 37.796875 51.625 33 
Q 55.609375 28.21875 55.609375 21.1875 
Q 55.609375 10.40625 48.1875 4.484375 
Q 40.765625 -1.421875 27.09375 -1.421875 
Q 22.515625 -1.421875 17.65625 -0.515625 
Q 12.796875 0.390625 7.625 2.203125 
L 7.625 11.71875 
Q 11.71875 9.328125 16.59375 8.109375 
Q 21.484375 6.890625 26.8125 6.890625 
Q 36.078125 6.890625 40.9375 10.546875 
Q 45.796875 14.203125 45.796875 21.1875 
Q 45.796875 27.640625 41.28125 31.265625 
Q 36.765625 34.90625 28.71875 34.90625 
L 20.21875 34.90625 
L 20.21875 43.015625 
L 29.109375 43.015625 
Q 36.375 43.015625 40.234375 45.921875 
Q 44.09375 48.828125 44.09375 54.296875 
Q 44.09375 59.90625 40.109375 62.90625 
Q 36.140625 65.921875 28.71875 65.921875 
Q 24.65625 65.921875 20.015625 65.03125 
Q 15.375 64.15625 9.8125 62.3125 
L 9.8125 71.09375 
Q 15.4375 72.65625 20.34375 73.4375 
Q 25.25 74.21875 29.59375 74.21875 
Q 40.828125 74.21875 47.359375 69.109375 
Q 53.90625 64.015625 53.90625 55.328125 
Q 53.90625 49.265625 50.4375 45.09375 
Q 46.96875 40.921875 40.578125 39.3125 
z
" id="DejaVuSans-51"/>
      </defs>
      <g transform="translate(259.472071 322.182437)scale(0.1 -0.1)">
       <use xlink:href="#DejaVuSans-51"/>
       <use x="63.623047" xlink:href="#DejaVuSans-48"/>
       <use x="127.246094" xlink:href="#DejaVuSans-48"/>
      </g>
     </g>
    </g>
    <g id="xtick_5">
     <g id="line2d_9">
      <path clip-path="url(#p1dfc23953f)" d="M 334.076852 307.584 
L 334.076852 41.472 
" style="fill:none;stroke:#b0b0b0;stroke-linecap:square;stroke-width:0.8;"/>
     </g>
     <g id="line2d_10">
      <g>
       <use style="stroke:#000000;stroke-width:0.8;" x="334.076852" xlink:href="#m589a436983" y="307.584"/>
      </g>
     </g>
     <g id="text_5">
      <!-- 400 -->
      <defs>
       <path d="M 37.796875 64.3125 
L 12.890625 25.390625 
L 37.796875 25.390625 
z
M 35.203125 72.90625 
L 47.609375 72.90625 
L 47.609375 25.390625 
L 58.015625 25.390625 
L 58.015625 17.1875 
L 47.609375 17.1875 
L 47.609375 0 
L 37.796875 0 
L 37.796875 17.1875 
L 4.890625 17.1875 
L 4.890625 26.703125 
z
" id="DejaVuSans-52"/>
      </defs>
      <g transform="translate(324.533102 322.182437)scale(0.1 -0.1)">
       <use xlink:href="#DejaVuSans-52"/>
       <use x="63.623047" xlink:href="#DejaVuSans-48"/>
       <use x="127.246094" xlink:href="#DejaVuSans-48"/>
      </g>
     </g>
    </g>
    <g id="xtick_6">
     <g id="line2d_11">
      <path clip-path="url(#p1dfc23953f)" d="M 399.137883 307.584 
L 399.137883 41.472 
" style="fill:none;stroke:#b0b0b0;stroke-linecap:square;stroke-width:0.8;"/>
     </g>
     <g id="line2d_12">
      <g>
       <use style="stroke:#000000;stroke-width:0.8;" x="399.137883" xlink:href="#m589a436983" y="307.584"/>
      </g>
     </g>
     <g id="text_6">
      <!-- 500 -->
      <defs>
       <path d="M 10.796875 72.90625 
L 49.515625 72.90625 
L 49.515625 64.59375 
L 19.828125 64.59375 
L 19.828125 46.734375 
Q 21.96875 47.46875 24.109375 47.828125 
Q 26.265625 48.1875 28.421875 48.1875 
Q 40.625 48.1875 47.75 41.5 
Q 54.890625 34.8125 54.890625 23.390625 
Q 54.890625 11.625 47.5625 5.09375 
Q 40.234375 -1.421875 26.90625 -1.421875 
Q 22.3125 -1.421875 17.546875 -0.640625 
Q 12.796875 0.140625 7.71875 1.703125 
L 7.71875 11.625 
Q 12.109375 9.234375 16.796875 8.0625 
Q 21.484375 6.890625 26.703125 6.890625 
Q 35.15625 6.890625 40.078125 11.328125 
Q 45.015625 15.765625 45.015625 23.390625 
Q 45.015625 31 40.078125 35.4375 
Q 35.15625 39.890625 26.703125 39.890625 
Q 22.75 39.890625 18.8125 39.015625 
Q 14.890625 38.140625 10.796875 36.28125 
z
" id="DejaVuSans-53"/>
      </defs>
      <g transform="translate(389.594133 322.182437)scale(0.1 -0.1)">
       <use xlink:href="#DejaVuSans-53"/>
       <use x="63.623047" xlink:href="#DejaVuSans-48"/>
       <use x="127.246094" xlink:href="#DejaVuSans-48"/>
      </g>
     </g>
    </g>
    <g id="text_7">
     <!-- Generations -->
     <defs>
      <path d="M 59.515625 10.40625 
L 59.515625 29.984375 
L 43.40625 29.984375 
L 43.40625 38.09375 
L 69.28125 38.09375 
L 69.28125 6.78125 
Q 63.578125 2.734375 56.6875 0.65625 
Q 49.8125 -1.421875 42 -1.421875 
Q 24.90625 -1.421875 15.25 8.5625 
Q 5.609375 18.5625 5.609375 36.375 
Q 5.609375 54.25 15.25 64.234375 
Q 24.90625 74.21875 42 74.21875 
Q 49.125 74.21875 55.546875 72.453125 
Q 61.96875 70.703125 67.390625 67.28125 
L 67.390625 56.78125 
Q 61.921875 61.421875 55.765625 63.765625 
Q 49.609375 66.109375 42.828125 66.109375 
Q 29.4375 66.109375 22.71875 58.640625 
Q 16.015625 51.171875 16.015625 36.375 
Q 16.015625 21.625 22.71875 14.15625 
Q 29.4375 6.6875 42.828125 6.6875 
Q 48.046875 6.6875 52.140625 7.59375 
Q 56.25 8.5 59.515625 10.40625 
z
" id="DejaVuSans-71"/>
      <path d="M 56.203125 29.59375 
L 56.203125 25.203125 
L 14.890625 25.203125 
Q 15.484375 15.921875 20.484375 11.0625 
Q 25.484375 6.203125 34.421875 6.203125 
Q 39.59375 6.203125 44.453125 7.46875 
Q 49.3125 8.734375 54.109375 11.28125 
L 54.109375 2.78125 
Q 49.265625 0.734375 44.1875 -0.34375 
Q 39.109375 -1.421875 33.890625 -1.421875 
Q 20.796875 -1.421875 13.15625 6.1875 
Q 5.515625 13.8125 5.515625 26.8125 
Q 5.515625 40.234375 12.765625 48.109375 
Q 20.015625 56 32.328125 56 
Q 43.359375 56 49.78125 48.890625 
Q 56.203125 41.796875 56.203125 29.59375 
z
M 47.21875 32.234375 
Q 47.125 39.59375 43.09375 43.984375 
Q 39.0625 48.390625 32.421875 48.390625 
Q 24.90625 48.390625 20.390625 44.140625 
Q 15.875 39.890625 15.1875 32.171875 
z
" id="DejaVuSans-101"/>
      <path d="M 54.890625 33.015625 
L 54.890625 0 
L 45.90625 0 
L 45.90625 32.71875 
Q 45.90625 40.484375 42.875 44.328125 
Q 39.84375 48.1875 33.796875 48.1875 
Q 26.515625 48.1875 22.3125 43.546875 
Q 18.109375 38.921875 18.109375 30.90625 
L 18.109375 0 
L 9.078125 0 
L 9.078125 54.6875 
L 18.109375 54.6875 
L 18.109375 46.1875 
Q 21.34375 51.125 25.703125 53.5625 
Q 30.078125 56 35.796875 56 
Q 45.21875 56 50.046875 50.171875 
Q 54.890625 44.34375 54.890625 33.015625 
z
" id="DejaVuSans-110"/>
      <path d="M 41.109375 46.296875 
Q 39.59375 47.171875 37.8125 47.578125 
Q 36.03125 48 33.890625 48 
Q 26.265625 48 22.1875 43.046875 
Q 18.109375 38.09375 18.109375 28.8125 
L 18.109375 0 
L 9.078125 0 
L 9.078125 54.6875 
L 18.109375 54.6875 
L 18.109375 46.1875 
Q 20.953125 51.171875 25.484375 53.578125 
Q 30.03125 56 36.53125 56 
Q 37.453125 56 38.578125 55.875 
Q 39.703125 55.765625 41.0625 55.515625 
z
" id="DejaVuSans-114"/>
      <path d="M 34.28125 27.484375 
Q 23.390625 27.484375 19.1875 25 
Q 14.984375 22.515625 14.984375 16.5 
Q 14.984375 11.71875 18.140625 8.90625 
Q 21.296875 6.109375 26.703125 6.109375 
Q 34.1875 6.109375 38.703125 11.40625 
Q 43.21875 16.703125 43.21875 25.484375 
L 43.21875 27.484375 
z
M 52.203125 31.203125 
L 52.203125 0 
L 43.21875 0 
L 43.21875 8.296875 
Q 40.140625 3.328125 35.546875 0.953125 
Q 30.953125 -1.421875 24.3125 -1.421875 
Q 15.921875 -1.421875 10.953125 3.296875 
Q 6 8.015625 6 15.921875 
Q 6 25.140625 12.171875 29.828125 
Q 18.359375 34.515625 30.609375 34.515625 
L 43.21875 34.515625 
L 43.21875 35.40625 
Q 43.21875 41.609375 39.140625 45 
Q 35.0625 48.390625 27.6875 48.390625 
Q 23 48.390625 18.546875 47.265625 
Q 14.109375 46.140625 10.015625 43.890625 
L 10.015625 52.203125 
Q 14.9375 54.109375 19.578125 55.046875 
Q 24.21875 56 28.609375 56 
Q 40.484375 56 46.34375 49.84375 
Q 52.203125 43.703125 52.203125 31.203125 
z
" id="DejaVuSans-97"/>
      <path d="M 18.3125 70.21875 
L 18.3125 54.6875 
L 36.8125 54.6875 
L 36.8125 47.703125 
L 18.3125 47.703125 
L 18.3125 18.015625 
Q 18.3125 11.328125 20.140625 9.421875 
Q 21.96875 7.515625 27.59375 7.515625 
L 36.8125 7.515625 
L 36.8125 0 
L 27.59375 0 
Q 17.1875 0 13.234375 3.875 
Q 9.28125 7.765625 9.28125 18.015625 
L 9.28125 47.703125 
L 2.6875 47.703125 
L 2.6875 54.6875 
L 9.28125 54.6875 
L 9.28125 70.21875 
z
" id="DejaVuSans-116"/>
      <path d="M 9.421875 54.6875 
L 18.40625 54.6875 
L 18.40625 0 
L 9.421875 0 
z
M 9.421875 75.984375 
L 18.40625 75.984375 
L 18.40625 64.59375 
L 9.421875 64.59375 
z
" id="DejaVuSans-105"/>
      <path d="M 30.609375 48.390625 
Q 23.390625 48.390625 19.1875 42.75 
Q 14.984375 37.109375 14.984375 27.296875 
Q 14.984375 17.484375 19.15625 11.84375 
Q 23.34375 6.203125 30.609375 6.203125 
Q 37.796875 6.203125 41.984375 11.859375 
Q 46.1875 17.53125 46.1875 27.296875 
Q 46.1875 37.015625 41.984375 42.703125 
Q 37.796875 48.390625 30.609375 48.390625 
z
M 30.609375 56 
Q 42.328125 56 49.015625 48.375 
Q 55.71875 40.765625 55.71875 27.296875 
Q 55.71875 13.875 49.015625 6.21875 
Q 42.328125 -1.421875 30.609375 -1.421875 
Q 18.84375 -1.421875 12.171875 6.21875 
Q 5.515625 13.875 5.515625 27.296875 
Q 5.515625 40.765625 12.171875 48.375 
Q 18.84375 56 30.609375 56 
z
" id="DejaVuSans-111"/>
      <path d="M 44.28125 53.078125 
L 44.28125 44.578125 
Q 40.484375 46.53125 36.375 47.5 
Q 32.28125 48.484375 27.875 48.484375 
Q 21.1875 48.484375 17.84375 46.4375 
Q 14.5 44.390625 14.5 40.28125 
Q 14.5 37.15625 16.890625 35.375 
Q 19.28125 33.59375 26.515625 31.984375 
L 29.59375 31.296875 
Q 39.15625 29.25 43.1875 25.515625 
Q 47.21875 21.78125 47.21875 15.09375 
Q 47.21875 7.46875 41.1875 3.015625 
Q 35.15625 -1.421875 24.609375 -1.421875 
Q 20.21875 -1.421875 15.453125 -0.5625 
Q 10.6875 0.296875 5.421875 2 
L 5.421875 11.28125 
Q 10.40625 8.6875 15.234375 7.390625 
Q 20.0625 6.109375 24.8125 6.109375 
Q 31.15625 6.109375 34.5625 8.28125 
Q 37.984375 10.453125 37.984375 14.40625 
Q 37.984375 18.0625 35.515625 20.015625 
Q 33.0625 21.96875 24.703125 23.78125 
L 21.578125 24.515625 
Q 13.234375 26.265625 9.515625 29.90625 
Q 5.8125 33.546875 5.8125 39.890625 
Q 5.8125 47.609375 11.28125 51.796875 
Q 16.75 56 26.8125 56 
Q 31.78125 56 36.171875 55.265625 
Q 40.578125 54.546875 44.28125 53.078125 
z
" id="DejaVuSans-115"/>
     </defs>
     <g transform="translate(205.662344 335.860562)scale(0.1 -0.1)">
      <use xlink:href="#DejaVuSans-71"/>
      <use x="77.490234" xlink:href="#DejaVuSans-101"/>
      <use x="139.013672" xlink:href="#DejaVuSans-110"/>
      <use x="202.392578" xlink:href="#DejaVuSans-101"/>
      <use x="263.916016" xlink:href="#DejaVuSans-114"/>
      <use x="305.029297" xlink:href="#DejaVuSans-97"/>
      <use x="366.308594" xlink:href="#DejaVuSans-116"/>
      <use x="405.517578" xlink:href="#DejaVuSans-105"/>
      <use x="433.300781" xlink:href="#DejaVuSans-111"/>
      <use x="494.482422" xlink:href="#DejaVuSans-110"/>
      <use x="557.861328" xlink:href="#DejaVuSans-115"/>
     </g>
    </g>
   </g>
   <g id="matplotlib.axis_2">
    <g id="ytick_1">
     <g id="line2d_13">
      <path clip-path="url(#p1dfc23953f)" d="M 57.6 258.314394 
L 414.72 258.314394 
" style="fill:none;stroke:#b0b0b0;stroke-linecap:square;stroke-width:0.8;"/>
     </g>
     <g id="line2d_14">
      <defs>
       <path d="M 0 0 
L -3.5 0 
" id="mf406a057b3" style="stroke:#000000;stroke-width:0.8;"/>
      </defs>
      <g>
       <use style="stroke:#000000;stroke-width:0.8;" x="57.6" xlink:href="#mf406a057b3" y="258.314394"/>
      </g>
     </g>
     <g id="text_8">
      <!-- −0.6 -->
      <defs>
       <path d="M 10.59375 35.5 
L 73.1875 35.5 
L 73.1875 27.203125 
L 10.59375 27.203125 
z
" id="DejaVuSans-8722"/>
       <path d="M 10.6875 12.40625 
L 21 12.40625 
L 21 0 
L 10.6875 0 
z
" id="DejaVuSans-46"/>
       <path d="M 33.015625 40.375 
Q 26.375 40.375 22.484375 35.828125 
Q 18.609375 31.296875 18.609375 23.390625 
Q 18.609375 15.53125 22.484375 10.953125 
Q 26.375 6.390625 33.015625 6.390625 
Q 39.65625 6.390625 43.53125 10.953125 
Q 47.40625 15.53125 47.40625 23.390625 
Q 47.40625 31.296875 43.53125 35.828125 
Q 39.65625 40.375 33.015625 40.375 
z
M 52.59375 71.296875 
L 52.59375 62.3125 
Q 48.875 64.0625 45.09375 64.984375 
Q 41.3125 65.921875 37.59375 65.921875 
Q 27.828125 65.921875 22.671875 59.328125 
Q 17.53125 52.734375 16.796875 39.40625 
Q 19.671875 43.65625 24.015625 45.921875 
Q 28.375 48.1875 33.59375 48.1875 
Q 44.578125 48.1875 50.953125 41.515625 
Q 57.328125 34.859375 57.328125 23.390625 
Q 57.328125 12.15625 50.6875 5.359375 
Q 44.046875 -1.421875 33.015625 -1.421875 
Q 20.359375 -1.421875 13.671875 8.265625 
Q 6.984375 17.96875 6.984375 36.375 
Q 6.984375 53.65625 15.1875 63.9375 
Q 23.390625 74.21875 37.203125 74.21875 
Q 40.921875 74.21875 44.703125 73.484375 
Q 48.484375 72.75 52.59375 71.296875 
z
" id="DejaVuSans-54"/>
      </defs>
      <g transform="translate(26.317187 262.113613)scale(0.1 -0.1)">
       <use xlink:href="#DejaVuSans-8722"/>
       <use x="83.789062" xlink:href="#DejaVuSans-48"/>
       <use x="147.412109" xlink:href="#DejaVuSans-46"/>
       <use x="179.199219" xlink:href="#DejaVuSans-54"/>
      </g>
     </g>
    </g>
    <g id="ytick_2">
     <g id="line2d_15">
      <path clip-path="url(#p1dfc23953f)" d="M 57.6 202.864154 
L 414.72 202.864154 
" style="fill:none;stroke:#b0b0b0;stroke-linecap:square;stroke-width:0.8;"/>
     </g>
     <g id="line2d_16">
      <g>
       <use style="stroke:#000000;stroke-width:0.8;" x="57.6" xlink:href="#mf406a057b3" y="202.864154"/>
      </g>
     </g>
     <g id="text_9">
      <!-- −0.4 -->
      <g transform="translate(26.317187 206.663372)scale(0.1 -0.1)">
       <use xlink:href="#DejaVuSans-8722"/>
       <use x="83.789062" xlink:href="#DejaVuSans-48"/>
       <use x="147.412109" xlink:href="#DejaVuSans-46"/>
       <use x="179.199219" xlink:href="#DejaVuSans-52"/>
      </g>
     </g>
    </g>
    <g id="ytick_3">
     <g id="line2d_17">
      <path clip-path="url(#p1dfc23953f)" d="M 57.6 147.413913 
L 414.72 147.413913 
" style="fill:none;stroke:#b0b0b0;stroke-linecap:square;stroke-width:0.8;"/>
     </g>
     <g id="line2d_18">
      <g>
       <use style="stroke:#000000;stroke-width:0.8;" x="57.6" xlink:href="#mf406a057b3" y="147.413913"/>
      </g>
     </g>
     <g id="text_10">
      <!-- −0.2 -->
      <g transform="translate(26.317187 151.213132)scale(0.1 -0.1)">
       <use xlink:href="#DejaVuSans-8722"/>
       <use x="83.789062" xlink:href="#DejaVuSans-48"/>
       <use x="147.412109" xlink:href="#DejaVuSans-46"/>
       <use x="179.199219" xlink:href="#DejaVuSans-50"/>
      </g>
     </g>
    </g>
    <g id="ytick_4">
     <g id="line2d_19">
      <path clip-path="url(#p1dfc23953f)" d="M 57.6 91.963673 
L 414.72 91.963673 
" style="fill:none;stroke:#b0b0b0;stroke-linecap:square;stroke-width:0.8;"/>
     </g>
     <g id="line2d_20">
      <g>
       <use style="stroke:#000000;stroke-width:0.8;" x="57.6" xlink:href="#mf406a057b3" y="91.963673"/>
      </g>
     </g>
     <g id="text_11">
      <!-- 0.0 -->
      <g transform="translate(34.696875 95.762892)scale(0.1 -0.1)">
       <use xlink:href="#DejaVuSans-48"/>
       <use x="63.623047" xlink:href="#DejaVuSans-46"/>
       <use x="95.410156" xlink:href="#DejaVuSans-48"/>
      </g>
     </g>
    </g>
    <g id="text_12">
     <!-- Fitness -->
     <defs>
      <path d="M 9.8125 72.90625 
L 51.703125 72.90625 
L 51.703125 64.59375 
L 19.671875 64.59375 
L 19.671875 43.109375 
L 48.578125 43.109375 
L 48.578125 34.8125 
L 19.671875 34.8125 
L 19.671875 0 
L 9.8125 0 
z
" id="DejaVuSans-70"/>
     </defs>
     <g transform="translate(20.2375 192.202219)rotate(-90)scale(0.1 -0.1)">
      <use xlink:href="#DejaVuSans-70"/>
      <use x="57.410156" xlink:href="#DejaVuSans-105"/>
      <use x="85.193359" xlink:href="#DejaVuSans-116"/>
      <use x="124.402344" xlink:href="#DejaVuSans-110"/>
      <use x="187.78125" xlink:href="#DejaVuSans-101"/>
      <use x="249.304688" xlink:href="#DejaVuSans-115"/>
      <use x="301.404297" xlink:href="#DejaVuSans-115"/>
     </g>
    </g>
   </g>
   <g id="line2d_21">
    <path clip-path="url(#p1dfc23953f)" d="M 73.832727 120.449595 
L 74.483338 127.645961 
L 75.133948 132.258961 
L 75.784558 134.374675 
L 76.435169 135.265108 
L 77.085779 139.413119 
L 77.736389 138.76285 
L 78.386999 141.429996 
L 79.68822 132.098725 
L 80.33883 137.947943 
L 80.989441 146.390634 
L 81.640051 142.211475 
L 82.290661 136.460696 
L 82.941272 140.187133 
L 83.591882 135.839318 
L 84.893103 141.338983 
L 85.543713 133.383237 
L 86.194323 143.541396 
L 86.844934 144.456323 
L 87.495544 141.147788 
L 88.146154 141.147535 
L 88.796764 133.995303 
L 89.447375 140.610656 
L 90.097985 136.503751 
L 90.748595 147.86133 
L 91.399206 146.548487 
L 92.700426 146.568188 
L 93.351037 144.917831 
L 94.001647 151.555914 
L 94.652257 139.486779 
L 95.302868 154.204189 
L 95.953478 152.414161 
L 96.604088 147.703288 
L 97.254698 148.756381 
L 97.905309 138.433522 
L 98.555919 140.831917 
L 99.206529 141.241396 
L 99.85714 151.409907 
L 100.50775 156.43396 
L 101.15836 152.693148 
L 101.808971 144.461773 
L 102.459581 149.708124 
L 103.110191 146.743549 
L 103.760802 135.776608 
L 104.411412 141.647833 
L 105.062022 136.137992 
L 105.712633 143.074289 
L 106.363243 137.42934 
L 107.013853 149.111831 
L 107.664463 152.427419 
L 108.315074 153.69526 
L 108.965684 142.492584 
L 109.616294 157.758661 
L 110.266905 140.707334 
L 111.568125 153.090532 
L 112.218736 135.661939 
L 112.869346 150.469946 
L 113.519956 139.250375 
L 114.170567 145.37849 
L 114.821177 153.156779 
L 116.122398 161.488496 
L 116.773008 153.48376 
L 117.423618 150.850878 
L 118.074228 149.176975 
L 118.724839 149.381144 
L 119.375449 162.471125 
L 120.026059 161.350087 
L 120.67667 146.42357 
L 121.32728 161.021788 
L 121.97789 146.415167 
L 122.628501 156.373214 
L 123.279111 152.353311 
L 123.929721 152.026058 
L 124.580332 161.202925 
L 125.230942 145.845721 
L 125.881552 148.021754 
L 126.532163 146.947551 
L 127.182773 149.174585 
L 127.833383 146.709885 
L 128.483993 149.545797 
L 129.134604 142.294207 
L 130.435824 146.723022 
L 131.086435 146.609092 
L 131.737045 150.449952 
L 132.387655 141.566167 
L 133.038266 143.085248 
L 133.688876 147.81549 
L 134.339486 139.564992 
L 134.990097 143.111338 
L 135.640707 150.889068 
L 136.291317 139.820923 
L 136.941927 155.778475 
L 137.592538 152.8731 
L 138.243148 140.284697 
L 138.893758 146.845734 
L 139.544369 148.226204 
L 140.194979 136.784089 
L 140.845589 147.146496 
L 141.4962 138.546481 
L 142.14681 151.805536 
L 142.79742 157.165742 
L 143.448031 149.239913 
L 144.098641 147.987488 
L 144.749251 150.468747 
L 145.399862 146.078037 
L 146.050472 134.499834 
L 146.701082 147.705824 
L 147.351692 141.301063 
L 148.002303 144.901312 
L 148.652913 146.25566 
L 149.303523 145.103143 
L 149.954134 144.575085 
L 150.604744 156.179886 
L 151.255354 138.947523 
L 151.905965 153.256716 
L 152.556575 144.649928 
L 153.207185 145.007405 
L 153.857796 158.403786 
L 154.508406 156.289608 
L 155.159016 141.439347 
L 155.809627 145.626522 
L 156.460237 145.937325 
L 157.110847 148.656086 
L 157.761457 152.41037 
L 158.412068 149.813997 
L 159.062678 148.891632 
L 159.713288 139.689213 
L 160.363899 151.461878 
L 161.014509 151.579225 
L 161.665119 159.19607 
L 162.31573 149.783556 
L 162.96634 146.307852 
L 163.61695 145.921202 
L 164.267561 152.634857 
L 164.918171 151.693589 
L 165.568781 151.548183 
L 166.219392 150.428325 
L 166.870002 143.878127 
L 168.171222 155.214911 
L 168.821833 149.644546 
L 169.472443 145.60017 
L 170.773664 152.216567 
L 171.424274 145.517893 
L 172.074884 155.258054 
L 172.725495 148.948702 
L 173.376105 158.028774 
L 174.026715 158.922992 
L 174.677326 148.647374 
L 175.327936 151.198946 
L 175.978546 149.826165 
L 176.629156 143.549055 
L 177.279767 152.439853 
L 177.930377 137.433746 
L 178.580987 143.33112 
L 179.231598 141.152991 
L 179.882208 152.316613 
L 180.532818 155.529112 
L 181.183429 146.023346 
L 181.834039 148.521797 
L 182.484649 153.488919 
L 183.13526 154.162732 
L 184.43648 160.928878 
L 185.087091 166.13134 
L 185.737701 157.941609 
L 186.388311 148.085953 
L 187.038921 160.47317 
L 188.340142 174.316398 
L 188.990752 161.197167 
L 189.641363 170.200653 
L 190.942583 147.388937 
L 191.593194 172.867421 
L 192.243804 168.233625 
L 192.894414 155.151411 
L 193.545025 157.582514 
L 194.195635 148.805281 
L 195.496856 173.784553 
L 196.147466 175.67349 
L 197.448686 160.462584 
L 198.099297 177.093316 
L 198.749907 170.446516 
L 199.400517 174.793501 
L 200.051128 174.32903 
L 200.701738 173.489615 
L 201.352348 165.452029 
L 202.002959 169.95986 
L 202.653569 155.515661 
L 203.304179 161.730606 
L 203.95479 156.809745 
L 204.6054 164.284965 
L 205.25601 144.676337 
L 205.906621 160.054092 
L 206.557231 152.96582 
L 207.207841 155.642302 
L 207.858451 162.423251 
L 208.509062 161.734422 
L 209.159672 169.382714 
L 209.810282 165.567514 
L 210.460893 156.371075 
L 211.111503 157.919339 
L 211.762113 163.55 
L 212.412724 151.190816 
L 213.063334 171.940328 
L 213.713944 164.163499 
L 214.364555 164.435413 
L 215.015165 166.906013 
L 215.665775 160.632564 
L 216.316385 175.554858 
L 216.966996 166.294991 
L 217.617606 144.079611 
L 218.268216 162.394056 
L 218.918827 166.663421 
L 219.569437 167.418428 
L 220.220047 154.886038 
L 220.870658 169.597008 
L 221.521268 144.311631 
L 222.171878 166.778193 
L 222.822489 151.860513 
L 223.473099 150.592111 
L 224.123709 145.700327 
L 224.77432 156.100468 
L 225.42493 159.400166 
L 226.07554 149.856701 
L 226.72615 154.321689 
L 227.376761 142.124573 
L 228.027371 156.167683 
L 228.677981 155.640309 
L 229.328592 149.982492 
L 229.979202 150.155532 
L 230.629812 141.736423 
L 231.280423 158.447519 
L 231.931033 151.836491 
L 232.581643 156.688117 
L 233.232254 156.692138 
L 233.882864 162.910448 
L 234.533474 150.358027 
L 235.184085 154.591783 
L 235.834695 135.242848 
L 236.485305 144.75101 
L 237.135915 144.587047 
L 237.786526 143.066161 
L 238.437136 143.416259 
L 239.087746 141.732736 
L 239.738357 139.020629 
L 240.388967 142.528865 
L 241.039577 137.210219 
L 241.690188 138.679286 
L 242.340798 145.12954 
L 242.991408 133.625529 
L 243.642019 135.805552 
L 244.292629 134.608055 
L 244.943239 140.34229 
L 245.59385 133.329239 
L 246.24446 147.606425 
L 246.89507 143.800915 
L 247.54568 143.085198 
L 248.196291 144.108491 
L 248.846901 149.405793 
L 249.497511 137.503531 
L 250.148122 131.573501 
L 250.798732 137.011867 
L 251.449342 138.297413 
L 252.099953 127.700577 
L 252.750563 130.530179 
L 253.401173 150.45249 
L 254.051784 137.955496 
L 254.702394 144.370985 
L 255.353004 140.314838 
L 256.003615 134.843914 
L 256.654225 147.793278 
L 257.304835 138.413274 
L 257.955445 147.24214 
L 258.606056 152.228637 
L 259.256666 138.625742 
L 259.907276 138.909987 
L 260.557887 148.041518 
L 261.208497 155.123713 
L 261.859107 137.175052 
L 262.509718 140.256963 
L 263.160328 145.265064 
L 263.810938 141.810526 
L 264.461549 146.188127 
L 265.112159 141.398678 
L 265.762769 147.918599 
L 266.413379 143.725526 
L 267.06399 144.928446 
L 267.7146 146.569193 
L 268.36521 146.909499 
L 269.015821 143.622285 
L 269.666431 143.711844 
L 270.317041 154.349653 
L 270.967652 149.044759 
L 271.618262 146.853967 
L 272.268872 141.190201 
L 272.919483 132.4182 
L 273.570093 137.990823 
L 274.220703 139.496332 
L 274.871314 137.611644 
L 275.521924 146.823287 
L 276.172534 143.837806 
L 276.823144 149.148008 
L 277.473755 147.645809 
L 278.124365 142.132291 
L 278.774975 144.152201 
L 279.425586 144.991363 
L 280.076196 153.027017 
L 281.377417 141.195235 
L 282.028027 165.630422 
L 282.678637 149.844544 
L 283.329248 145.069461 
L 283.979858 155.563628 
L 284.630468 147.727045 
L 285.281079 155.429324 
L 285.931689 137.131185 
L 286.582299 142.414903 
L 287.232909 145.984665 
L 287.88352 142.086321 
L 288.53413 163.201326 
L 289.835351 136.867868 
L 290.485961 144.269884 
L 291.136571 156.781051 
L 291.787182 137.619429 
L 292.437792 154.203236 
L 293.088402 149.460618 
L 293.739013 148.82101 
L 294.389623 144.019369 
L 295.040233 142.82601 
L 295.690844 147.590593 
L 296.341454 144.726758 
L 297.642674 150.209579 
L 298.293285 143.83798 
L 298.943895 154.457953 
L 299.594505 142.487913 
L 300.245116 147.004181 
L 300.895726 154.279274 
L 301.546336 145.437827 
L 302.196947 144.881234 
L 302.847557 139.96701 
L 303.498167 150.143755 
L 304.148778 148.348713 
L 304.799388 150.939325 
L 305.449998 155.336261 
L 306.100608 151.361044 
L 306.751219 142.320347 
L 307.401829 143.654165 
L 308.70305 137.149949 
L 309.35366 138.870046 
L 310.00427 149.028011 
L 310.654881 144.589271 
L 311.305491 142.854545 
L 311.956101 142.743634 
L 312.606712 149.89288 
L 313.257322 144.980365 
L 313.907932 145.839604 
L 314.558543 140.860261 
L 315.209153 143.620205 
L 315.859763 144.990034 
L 316.510373 143.110811 
L 317.160984 144.804033 
L 317.811594 136.091497 
L 318.462204 135.948855 
L 319.112815 136.258998 
L 319.763425 150.705553 
L 320.414035 140.764795 
L 321.064646 143.450715 
L 321.715256 148.251442 
L 322.365866 145.786356 
L 323.016477 142.84396 
L 323.667087 141.218069 
L 324.317697 147.007624 
L 324.968308 139.755568 
L 325.618918 141.524124 
L 326.269528 137.498308 
L 326.920138 144.217684 
L 327.570749 135.841315 
L 328.221359 143.750223 
L 328.871969 141.445779 
L 329.52258 143.487383 
L 330.17319 138.060019 
L 330.8238 140.32194 
L 331.474411 137.050574 
L 332.125021 141.661057 
L 332.775631 149.86601 
L 333.426242 133.391301 
L 334.076852 134.216722 
L 334.727462 140.463423 
L 335.378073 142.279142 
L 336.028683 143.528064 
L 336.679293 135.982465 
L 337.329903 130.058975 
L 337.980514 132.579848 
L 338.631124 131.59732 
L 339.281734 137.509186 
L 339.932345 147.061006 
L 340.582955 134.851193 
L 341.233565 141.224659 
L 341.884176 139.338918 
L 342.534786 147.106606 
L 343.185396 138.153585 
L 343.836007 148.173279 
L 344.486617 142.282766 
L 345.137227 146.855231 
L 345.787837 159.862582 
L 346.438448 147.701904 
L 347.089058 150.391495 
L 347.739668 145.552729 
L 348.390279 154.899672 
L 349.040889 150.439397 
L 349.691499 153.079695 
L 350.34211 142.685362 
L 350.99272 143.625794 
L 351.64333 148.687822 
L 352.293941 143.430891 
L 352.944551 149.747638 
L 353.595161 139.149484 
L 354.245772 142.067721 
L 354.896382 149.460985 
L 355.546992 147.749383 
L 356.197602 139.247193 
L 356.848213 143.665649 
L 357.498823 153.640426 
L 358.149433 139.537859 
L 358.800044 139.507567 
L 359.450654 161.952818 
L 360.101264 152.442608 
L 360.751875 160.561683 
L 361.402485 146.819533 
L 362.053095 138.054532 
L 362.703706 155.603128 
L 363.354316 147.502515 
L 364.004926 163.516659 
L 364.655537 152.838432 
L 365.306147 145.967903 
L 365.956757 148.652467 
L 366.607367 140.210635 
L 367.257978 149.035377 
L 367.908588 150.454664 
L 368.559198 138.757814 
L 369.209809 150.355285 
L 369.860419 148.277807 
L 370.511029 150.139831 
L 371.16164 160.700267 
L 371.81225 157.337595 
L 372.46286 155.580787 
L 373.113471 163.131423 
L 373.764081 148.744702 
L 374.414691 148.805703 
L 375.065302 147.919831 
L 376.366522 158.579045 
L 377.017132 155.125991 
L 377.667743 160.601415 
L 378.318353 164.905882 
L 378.968963 168.109947 
L 379.619574 162.109549 
L 380.270184 161.396488 
L 380.920794 153.556567 
L 381.571405 155.999891 
L 382.222015 153.677855 
L 382.872625 146.540531 
L 383.523236 158.54548 
L 384.173846 155.902892 
L 384.824456 156.048439 
L 385.475066 148.404703 
L 386.125677 145.883259 
L 386.776287 154.851864 
L 387.426897 144.760942 
L 388.077508 149.452254 
L 388.728118 146.908704 
L 389.378728 142.677166 
L 390.029339 149.331307 
L 390.679949 139.957156 
L 391.330559 142.486999 
L 391.98117 143.62269 
L 392.63178 140.498502 
L 393.28239 153.992313 
L 393.933001 137.827969 
L 395.234221 147.05271 
L 395.884831 129.233118 
L 396.535442 148.158845 
L 397.186052 142.60213 
L 397.836662 143.791531 
L 398.487273 142.488595 
L 398.487273 142.488595 
" style="fill:none;stroke:#0000ff;stroke-linecap:square;stroke-width:1.5;"/>
   </g>
   <g id="line2d_22">
    <path clip-path="url(#p1dfc23953f)" d="M 73.832727 120.449595 
L 74.483338 163.435357 
L 75.133948 180.859678 
L 75.784558 181.264008 
L 76.435169 185.738254 
L 77.085779 197.984745 
L 77.736389 202.815891 
L 78.386999 217.827695 
L 79.68822 188.802305 
L 80.33883 202.287483 
L 80.989441 224.333307 
L 81.640051 211.58156 
L 82.290661 201.792904 
L 82.941272 206.894574 
L 83.591882 202.495041 
L 84.242492 206.574038 
L 84.893103 214.341345 
L 85.543713 188.146216 
L 86.194323 216.170722 
L 86.844934 215.370882 
L 87.495544 211.909276 
L 88.146154 218.412903 
L 88.796764 189.831597 
L 89.447375 213.316306 
L 90.097985 202.449498 
L 90.748595 235.711577 
L 91.399206 223.495878 
L 92.049816 223.120996 
L 92.700426 224.19128 
L 93.351037 220.178536 
L 94.001647 239.992834 
L 94.652257 203.920467 
L 95.302868 238.181272 
L 95.953478 235.774014 
L 96.604088 217.178993 
L 97.254698 222.63524 
L 97.905309 193.387119 
L 98.555919 207.350171 
L 99.206529 203.298712 
L 99.85714 234.176174 
L 100.50775 250.671838 
L 101.15836 241.16728 
L 101.808971 227.721338 
L 102.459581 237.086269 
L 103.110191 232.254507 
L 103.760802 203.415862 
L 104.411412 213.721221 
L 105.062022 198.16834 
L 105.712633 221.335629 
L 106.363243 210.060234 
L 107.013853 235.514137 
L 107.664463 250.503212 
L 108.315074 248.023398 
L 108.965684 212.693008 
L 109.616294 255.747822 
L 110.266905 213.441968 
L 111.568125 244.08251 
L 112.218736 195.915932 
L 112.869346 233.474545 
L 113.519956 205.913715 
L 114.170567 224.268546 
L 114.821177 247.736479 
L 115.471787 259.346233 
L 116.122398 258.313424 
L 116.773008 233.878772 
L 117.423618 235.946492 
L 118.074228 232.962762 
L 118.724839 228.448964 
L 119.375449 257.490072 
L 120.026059 258.38655 
L 120.67667 232.491767 
L 121.32728 260.56999 
L 121.97789 222.241793 
L 122.628501 243.165983 
L 123.279111 236.884416 
L 123.929721 224.430149 
L 124.580332 253.265853 
L 125.230942 220.621953 
L 125.881552 221.150115 
L 126.532163 222.806326 
L 127.182773 223.205139 
L 127.833383 220.047789 
L 128.483993 225.154492 
L 129.134604 214.362842 
L 129.785214 212.236606 
L 130.435824 219.739866 
L 131.086435 222.265557 
L 131.737045 228.213602 
L 132.387655 206.248376 
L 133.038266 214.28386 
L 133.688876 228.373556 
L 134.339486 196.295163 
L 134.990097 220.330299 
L 135.640707 237.311345 
L 136.291317 212.235672 
L 136.941927 252.179418 
L 137.592538 243.264234 
L 138.243148 215.863191 
L 138.893758 231.169636 
L 139.544369 230.554014 
L 140.194979 195.782803 
L 140.845589 223.203462 
L 141.4962 201.460455 
L 142.14681 239.143831 
L 142.79742 252.844686 
L 143.448031 232.706855 
L 144.098641 226.756716 
L 144.749251 232.895269 
L 145.399862 228.151489 
L 146.050472 197.915163 
L 146.701082 234.44669 
L 147.351692 213.319462 
L 148.002303 232.526689 
L 148.652913 222.835806 
L 149.303523 221.352897 
L 149.954134 227.708438 
L 150.604744 252.388804 
L 151.255354 203.26769 
L 151.905965 242.493224 
L 152.556575 217.076345 
L 153.207185 215.899068 
L 153.857796 257.264449 
L 154.508406 247.974348 
L 155.159016 205.9688 
L 155.809627 224.803152 
L 156.460237 213.628742 
L 157.110847 221.795265 
L 157.761457 241.827854 
L 158.412068 229.778093 
L 159.062678 230.153984 
L 159.713288 204.934446 
L 160.363899 231.006571 
L 161.014509 233.397877 
L 161.665119 256.776942 
L 162.96634 215.935672 
L 163.61695 212.526334 
L 164.267561 240.737826 
L 164.918171 231.502267 
L 165.568781 237.19763 
L 166.219392 227.840775 
L 166.870002 210.817908 
L 167.520612 229.556588 
L 168.171222 237.374749 
L 168.821833 219.407401 
L 169.472443 219.868847 
L 170.123053 221.6207 
L 170.773664 243.155897 
L 171.424274 225.225717 
L 172.074884 239.815683 
L 172.725495 224.41822 
L 173.376105 251.465014 
L 174.026715 251.069206 
L 174.677326 221.957281 
L 175.327936 231.523909 
L 175.978546 226.161623 
L 176.629156 215.329224 
L 177.279767 229.520697 
L 177.930377 193.668695 
L 178.580987 218.197299 
L 179.231598 205.475862 
L 179.882208 242.43828 
L 180.532818 247.238123 
L 181.183429 227.005302 
L 181.834039 223.102433 
L 182.484649 244.069783 
L 183.13526 248.510268 
L 183.78587 254.044029 
L 184.43648 257.996046 
L 185.087091 264.462127 
L 185.737701 249.279359 
L 186.388311 223.435121 
L 187.038921 254.758511 
L 187.689532 276.679788 
L 188.340142 282.518441 
L 188.990752 253.218491 
L 189.641363 274.20353 
L 190.291973 253.138491 
L 190.942583 223.173239 
L 191.593194 283.939957 
L 192.243804 273.407062 
L 192.894414 240.599795 
L 193.545025 243.532836 
L 194.195635 228.936965 
L 194.846245 260.459633 
L 195.496856 275.378347 
L 196.147466 282.253844 
L 196.798076 270.831037 
L 197.448686 251.261577 
L 198.099297 281.115028 
L 198.749907 272.994752 
L 199.400517 280.153124 
L 200.051128 281.157287 
L 200.701738 277.232934 
L 201.352348 265.078366 
L 202.002959 273.611049 
L 202.653569 247.872 
L 203.304179 253.814088 
L 203.95479 245.267929 
L 204.6054 257.90033 
L 205.25601 214.479449 
L 205.906621 253.867028 
L 206.557231 240.906601 
L 207.207841 243.275458 
L 207.858451 263.330058 
L 208.509062 259.24827 
L 209.159672 279.594634 
L 209.810282 265.855232 
L 210.460893 245.163294 
L 211.111503 251.266843 
L 211.762113 259.448587 
L 212.412724 232.943004 
L 213.063334 281.745214 
L 213.713944 264.57809 
L 214.364555 268.589687 
L 215.015165 275.039851 
L 215.665775 259.728472 
L 216.316385 295.488 
L 216.966996 272.618481 
L 217.617606 208.428058 
L 218.268216 246.589978 
L 218.918827 265.416073 
L 219.569437 261.734173 
L 220.220047 246.993908 
L 220.870658 278.744231 
L 221.521268 215.292819 
L 222.171878 272.35756 
L 222.822489 238.804828 
L 223.473099 243.675206 
L 224.123709 222.522897 
L 224.77432 256.417324 
L 225.42493 257.920552 
L 226.07554 239.555267 
L 226.72615 248.368918 
L 227.376761 215.034074 
L 228.027371 250.733192 
L 228.677981 250.795226 
L 229.328592 237.866548 
L 229.979202 235.436865 
L 230.629812 215.640059 
L 231.280423 257.719679 
L 231.931033 239.511738 
L 232.581643 249.448703 
L 233.232254 247.371624 
L 233.882864 264.2679 
L 234.533474 235.09391 
L 235.184085 247.935866 
L 235.834695 202.437219 
L 236.485305 231.980321 
L 237.135915 228.369856 
L 237.786526 221.92874 
L 238.437136 222.500822 
L 239.087746 220.677803 
L 239.738357 207.783121 
L 240.388967 218.144582 
L 241.039577 204.909007 
L 241.690188 211.449061 
L 242.340798 235.202255 
L 242.991408 197.304507 
L 243.642019 202.037342 
L 244.292629 200.962912 
L 244.943239 215.99227 
L 245.59385 184.948883 
L 246.24446 231.718887 
L 246.89507 225.595527 
L 247.54568 216.056451 
L 248.196291 226.310224 
L 248.846901 239.809273 
L 249.497511 203.517603 
L 250.148122 182.875569 
L 250.798732 198.622187 
L 251.449342 201.527206 
L 252.099953 173.080262 
L 252.750563 180.644022 
L 253.401173 235.700196 
L 254.051784 208.347958 
L 254.702394 225.406219 
L 255.353004 215.818553 
L 256.003615 195.100332 
L 256.654225 229.015753 
L 257.304835 209.155102 
L 257.955445 231.45401 
L 258.606056 248.834578 
L 259.256666 202.475046 
L 259.907276 211.839843 
L 261.208497 251.123225 
L 261.859107 201.945612 
L 262.509718 206.746784 
L 263.160328 218.813021 
L 263.810938 213.454097 
L 264.461549 230.193212 
L 265.112159 214.347582 
L 265.762769 234.237062 
L 266.413379 224.743803 
L 267.06399 229.031115 
L 267.7146 235.668484 
L 268.36521 239.273486 
L 269.015821 223.697011 
L 269.666431 225.988814 
L 270.317041 250.668609 
L 270.967652 236.799879 
L 271.618262 233.149268 
L 272.268872 216.90377 
L 272.919483 182.605516 
L 273.570093 201.125282 
L 274.220703 206.719751 
L 274.871314 203.33637 
L 275.521924 232.100704 
L 276.172534 222.621928 
L 276.823144 236.42252 
L 277.473755 234.197352 
L 278.124365 211.990854 
L 278.774975 223.03729 
L 279.425586 223.111764 
L 280.076196 239.753453 
L 280.726806 231.763091 
L 281.377417 205.276328 
L 282.028027 266.741822 
L 282.678637 237.162363 
L 283.329248 227.215134 
L 283.979858 255.840477 
L 284.630468 234.054451 
L 285.281079 242.820742 
L 285.931689 195.552897 
L 286.582299 217.891003 
L 287.232909 231.651913 
L 287.88352 217.339866 
L 288.53413 270.603892 
L 289.18474 233.718594 
L 289.835351 205.742579 
L 291.136571 254.118643 
L 291.787182 205.554536 
L 292.437792 252.253213 
L 293.088402 240.407027 
L 294.389623 222.623612 
L 295.040233 218.974643 
L 295.690844 231.450717 
L 296.341454 228.969437 
L 296.992064 232.839041 
L 297.642674 243.355162 
L 298.293285 224.681864 
L 298.943895 237.41335 
L 299.594505 219.234546 
L 300.245116 229.768632 
L 300.895726 246.207866 
L 301.546336 225.926716 
L 302.196947 230.754038 
L 302.847557 199.856502 
L 303.498167 231.359443 
L 304.148778 235.858662 
L 304.799388 237.706912 
L 305.449998 257.104521 
L 306.100608 243.719684 
L 306.751219 208.029428 
L 307.401829 221.597251 
L 308.052439 209.43237 
L 308.70305 205.533117 
L 309.35366 207.798683 
L 310.00427 236.212586 
L 310.654881 220.093407 
L 311.305491 211.595936 
L 311.956101 211.458999 
L 312.606712 230.737062 
L 313.257322 219.428542 
L 314.558543 211.3176 
L 315.209153 219.172736 
L 315.859763 225.098957 
L 316.510373 224.362876 
L 317.160984 225.553949 
L 317.811594 196.474239 
L 318.462204 200.569091 
L 319.112815 196.625194 
L 319.763425 240.105095 
L 320.414035 214.684262 
L 321.064646 219.278611 
L 321.715256 237.049216 
L 322.365866 225.897104 
L 323.016477 218.190324 
L 323.667087 216.558411 
L 324.317697 230.470436 
L 324.968308 214.63144 
L 325.618918 220.663679 
L 326.269528 205.001078 
L 326.920138 219.851699 
L 327.570749 194.986264 
L 328.221359 219.099108 
L 328.871969 214.402663 
L 329.52258 217.696636 
L 330.17319 207.977597 
L 330.8238 205.983034 
L 331.474411 201.963688 
L 332.125021 209.226072 
L 332.775631 229.357509 
L 333.426242 196.617844 
L 334.076852 182.653453 
L 334.727462 209.646787 
L 335.378073 217.680775 
L 336.028683 220.968346 
L 336.679293 187.078622 
L 337.329903 179.965793 
L 337.980514 184.707783 
L 338.631124 172.138941 
L 339.932345 221.848971 
L 340.582955 193.770529 
L 341.233565 202.08179 
L 341.884176 202.338888 
L 342.534786 224.743489 
L 343.185396 192.973652 
L 343.836007 230.746403 
L 344.486617 218.534438 
L 345.137227 229.644595 
L 345.787837 261.173133 
L 346.438448 228.314752 
L 347.089058 237.297937 
L 347.739668 219.384694 
L 348.390279 249.221369 
L 349.040889 238.070617 
L 349.691499 248.879733 
L 350.34211 210.154806 
L 350.99272 220.258215 
L 351.64333 232.258149 
L 352.293941 211.552422 
L 352.944551 234.114921 
L 353.595161 207.805693 
L 354.896382 233.519825 
L 355.546992 230.592006 
L 356.197602 207.246243 
L 356.848213 217.334072 
L 357.498823 238.323971 
L 358.149433 209.5493 
L 358.800044 210.174354 
L 359.450654 268.594305 
L 360.101264 246.123697 
L 360.751875 257.344483 
L 361.402485 221.125355 
L 362.053095 197.572831 
L 362.703706 245.542936 
L 363.354316 227.030853 
L 364.004926 258.322362 
L 364.655537 236.23244 
L 365.306147 220.927483 
L 365.956757 226.45056 
L 366.607367 208.777838 
L 367.257978 220.384289 
L 367.908588 234.608141 
L 368.559198 200.628387 
L 369.209809 233.308369 
L 369.860419 219.42283 
L 371.16164 255.129645 
L 371.81225 250.248886 
L 372.46286 253.601592 
L 373.113471 265.355488 
L 373.764081 234.804878 
L 374.414691 225.410901 
L 375.065302 224.943059 
L 376.366522 255.573239 
L 377.017132 250.017265 
L 378.318353 269.158546 
L 378.968963 279.973499 
L 379.619574 261.346025 
L 380.270184 261.487359 
L 380.920794 249.007417 
L 381.571405 246.51605 
L 382.222015 246.528799 
L 382.872625 229.192684 
L 383.523236 257.479678 
L 384.173846 249.456286 
L 384.824456 253.678605 
L 385.475066 230.942787 
L 386.125677 223.259032 
L 386.776287 253.088329 
L 387.426897 217.566039 
L 388.077508 232.826357 
L 389.378728 216.808152 
L 390.029339 229.497058 
L 390.679949 210.186469 
L 391.330559 224.772274 
L 391.98117 223.981365 
L 392.63178 207.815176 
L 393.28239 249.797655 
L 393.933001 206.196832 
L 394.583611 217.129215 
L 395.234221 225.028093 
L 395.884831 173.430749 
L 396.535442 222.845218 
L 397.186052 215.160707 
L 397.836662 219.978221 
L 398.487273 211.650114 
L 398.487273 211.650114 
" style="fill:none;stroke:#008000;stroke-dasharray:9.6,2.4,1.5,2.4;stroke-dashoffset:0;stroke-width:1.5;"/>
   </g>
   <g id="line2d_23">
    <path clip-path="url(#p1dfc23953f)" d="M 73.832727 120.449595 
L 74.483338 91.856566 
L 75.133948 83.658244 
L 75.784558 87.485342 
L 76.435169 84.791961 
L 77.085779 80.841493 
L 77.736389 74.709809 
L 78.386999 65.032297 
L 79.03761 70.918851 
L 79.68822 75.395145 
L 80.33883 73.608403 
L 80.989441 68.447961 
L 81.640051 72.84139 
L 82.290661 71.128488 
L 82.941272 73.479691 
L 83.591882 69.183595 
L 84.242492 70.264519 
L 84.893103 68.336622 
L 85.543713 78.620257 
L 86.194323 70.912071 
L 86.844934 73.541765 
L 87.495544 70.386301 
L 88.146154 63.882166 
L 88.796764 78.159008 
L 89.447375 67.905006 
L 90.097985 70.558003 
L 90.748595 60.011084 
L 91.399206 69.601097 
L 92.049816 70.087067 
L 92.700426 68.945096 
L 93.351037 69.657126 
L 94.001647 63.118993 
L 94.652257 75.05309 
L 95.302868 70.227106 
L 95.953478 69.054307 
L 96.604088 78.227584 
L 97.254698 74.877521 
L 97.905309 83.479925 
L 98.555919 74.313664 
L 99.206529 79.18408 
L 99.85714 68.643641 
L 100.50775 62.196083 
L 101.15836 64.219017 
L 101.808971 61.202209 
L 102.459581 62.329978 
L 103.110191 61.23259 
L 103.760802 68.137354 
L 104.411412 69.574444 
L 105.062022 74.107643 
L 105.712633 64.81295 
L 106.363243 64.798445 
L 107.013853 62.709525 
L 107.664463 54.351627 
L 108.315074 59.367122 
L 108.965684 72.292161 
L 109.616294 59.769501 
L 110.266905 67.9727 
L 111.568125 62.098555 
L 112.218736 75.407946 
L 112.869346 67.465347 
L 113.519956 72.587035 
L 114.170567 66.488435 
L 114.821177 58.57708 
L 115.471787 55.754864 
L 116.773008 73.088747 
L 117.423618 65.755264 
L 118.074228 65.391189 
L 118.724839 70.313325 
L 120.026059 64.313624 
L 120.67667 60.355373 
L 121.32728 61.473585 
L 121.97789 70.588541 
L 122.628501 69.580446 
L 123.279111 67.822206 
L 123.929721 79.621967 
L 124.580332 69.139998 
L 125.230942 71.069489 
L 125.881552 74.893394 
L 126.532163 71.088776 
L 127.182773 75.144031 
L 127.833383 73.371981 
L 128.483993 73.937103 
L 129.134604 70.225572 
L 129.785214 76.814566 
L 131.086435 70.952628 
L 131.737045 72.686302 
L 132.387655 76.883958 
L 133.688876 67.257424 
L 134.339486 82.834822 
L 134.990097 65.892376 
L 135.640707 64.46679 
L 136.291317 67.406175 
L 136.941927 59.377532 
L 137.592538 62.481966 
L 138.243148 64.706204 
L 138.893758 62.521832 
L 139.544369 65.898394 
L 140.194979 77.785375 
L 140.845589 71.089531 
L 141.4962 75.632507 
L 142.14681 64.467241 
L 142.79742 61.486798 
L 143.448031 65.772971 
L 144.098641 69.21826 
L 144.749251 68.042225 
L 145.399862 64.004585 
L 146.050472 71.084505 
L 146.701082 60.964958 
L 147.351692 69.282664 
L 148.002303 57.275936 
L 148.652913 69.675514 
L 149.303523 68.853388 
L 149.954134 61.441731 
L 150.604744 59.970968 
L 151.255354 74.627356 
L 151.905965 64.020209 
L 152.556575 72.22351 
L 153.207185 74.115742 
L 153.857796 59.543123 
L 154.508406 64.604869 
L 155.159016 76.909893 
L 155.809627 66.449892 
L 156.460237 78.245907 
L 157.110847 75.516907 
L 157.761457 62.992887 
L 158.412068 69.849901 
L 159.062678 67.629279 
L 159.713288 74.44398 
L 161.014509 69.760573 
L 161.665119 61.615199 
L 162.31573 64.539143 
L 162.96634 76.680032 
L 163.61695 79.316071 
L 164.267561 64.531888 
L 164.918171 71.884911 
L 165.568781 65.898736 
L 166.219392 73.015874 
L 166.870002 76.938346 
L 167.520612 70.515675 
L 168.171222 73.055073 
L 168.821833 79.88169 
L 169.472443 71.331494 
L 170.123053 76.084855 
L 170.773664 61.277238 
L 172.074884 70.700425 
L 172.725495 73.479184 
L 173.376105 64.592533 
L 174.026715 66.776777 
L 174.677326 75.337467 
L 175.327936 70.873983 
L 175.978546 73.490706 
L 176.629156 71.768886 
L 177.279767 75.35901 
L 177.930377 81.198798 
L 178.580987 68.46494 
L 179.231598 76.83012 
L 179.882208 62.194947 
L 180.532818 63.820102 
L 181.183429 65.04139 
L 181.834039 73.941161 
L 182.484649 62.908055 
L 183.13526 59.815195 
L 183.78587 61.192188 
L 184.43648 63.86171 
L 185.087091 67.800552 
L 185.737701 66.60386 
L 186.388311 72.736784 
L 187.689532 59.1791 
L 188.340142 66.114355 
L 188.990752 69.175842 
L 189.641363 66.197776 
L 190.291973 65.173544 
L 190.942583 71.604636 
L 191.593194 61.794885 
L 192.243804 63.060188 
L 192.894414 69.703026 
L 193.545025 71.632191 
L 194.195635 68.673597 
L 194.846245 63.844087 
L 195.496856 72.190759 
L 196.147466 69.093136 
L 196.798076 64.570831 
L 197.448686 69.663591 
L 198.099297 73.071604 
L 198.749907 67.89828 
L 199.400517 69.433877 
L 200.051128 67.500773 
L 200.701738 69.746297 
L 201.352348 65.825692 
L 202.002959 66.30867 
L 202.653569 63.159322 
L 203.304179 69.647123 
L 203.95479 68.351562 
L 204.6054 70.669599 
L 205.25601 74.873225 
L 205.906621 66.241155 
L 206.557231 65.025039 
L 207.207841 68.009146 
L 207.858451 61.516445 
L 208.509062 64.220573 
L 209.159672 59.170794 
L 209.810282 65.279797 
L 210.460893 67.578857 
L 211.111503 64.571835 
L 211.762113 67.651413 
L 212.412724 69.438627 
L 213.063334 62.135442 
L 213.713944 63.748909 
L 214.364555 60.281138 
L 215.015165 58.772174 
L 215.665775 61.536655 
L 216.316385 55.621716 
L 216.966996 59.971501 
L 217.617606 79.731164 
L 218.268216 78.198134 
L 218.918827 67.910768 
L 219.569437 73.102682 
L 220.220047 62.778167 
L 220.870658 60.449785 
L 221.521268 73.330444 
L 222.171878 61.198827 
L 222.822489 64.916198 
L 223.473099 57.509016 
L 224.123709 68.877757 
L 224.77432 55.783613 
L 225.42493 60.87978 
L 226.07554 60.158136 
L 226.72615 60.274459 
L 227.376761 69.215073 
L 228.027371 61.602175 
L 228.677981 60.485393 
L 229.328592 62.098436 
L 230.629812 67.832787 
L 231.280423 59.175358 
L 231.931033 64.161245 
L 232.581643 63.927531 
L 233.232254 66.012652 
L 233.882864 61.552996 
L 234.533474 65.622144 
L 235.184085 61.2477 
L 235.834695 68.048476 
L 236.485305 57.5217 
L 237.786526 64.203582 
L 238.437136 64.331696 
L 239.087746 62.787669 
L 239.738357 70.258137 
L 240.388967 66.913148 
L 241.039577 69.511432 
L 241.690188 65.909511 
L 242.340798 55.056825 
L 242.991408 69.946551 
L 243.642019 69.573762 
L 244.292629 68.253199 
L 244.943239 64.692311 
L 245.59385 81.709595 
L 246.24446 63.493962 
L 246.89507 62.006303 
L 247.54568 70.113945 
L 248.196291 61.906759 
L 248.846901 59.002313 
L 249.497511 71.489458 
L 250.148122 80.271432 
L 250.798732 75.401547 
L 251.449342 75.067621 
L 252.099953 82.320893 
L 252.750563 80.416335 
L 253.401173 65.204785 
L 254.051784 67.563034 
L 254.702394 63.335751 
L 255.353004 64.811122 
L 256.003615 74.587496 
L 256.654225 66.570803 
L 257.304835 67.671446 
L 257.955445 63.030269 
L 258.606056 55.622695 
L 259.256666 74.776437 
L 259.907276 65.980131 
L 260.557887 64.521413 
L 261.208497 59.1242 
L 261.859107 72.404492 
L 262.509718 73.767142 
L 263.160328 71.717108 
L 263.810938 70.166955 
L 264.461549 62.183043 
L 265.112159 68.449774 
L 265.762769 61.600137 
L 266.413379 62.70725 
L 267.06399 60.825777 
L 268.36521 54.545512 
L 269.015821 63.547559 
L 269.666431 61.434873 
L 270.317041 58.030697 
L 270.967652 61.289639 
L 271.618262 60.558667 
L 272.268872 65.476632 
L 272.919483 82.230885 
L 273.570093 74.856363 
L 274.220703 72.272912 
L 274.871314 71.886918 
L 275.521924 61.545869 
L 276.172534 65.053685 
L 276.823144 61.873497 
L 277.473755 61.094266 
L 278.124365 72.273727 
L 278.774975 65.267112 
L 279.425586 66.870962 
L 280.076196 66.300581 
L 280.726806 62.274903 
L 281.377417 77.114142 
L 282.028027 64.519022 
L 282.678637 62.526724 
L 283.329248 62.923788 
L 283.979858 55.286779 
L 285.281079 68.037906 
L 285.931689 78.709472 
L 286.582299 66.938803 
L 287.232909 60.317417 
L 287.88352 66.832776 
L 288.53413 55.79876 
L 289.18474 66.014598 
L 289.835351 67.993157 
L 290.485961 59.512686 
L 291.136571 59.443459 
L 291.787182 69.684322 
L 292.437792 56.153258 
L 293.088402 58.51421 
L 293.739013 66.728218 
L 294.389623 65.415125 
L 295.040233 66.677377 
L 296.341454 60.484078 
L 296.992064 62.51574 
L 297.642674 57.063997 
L 298.293285 62.994097 
L 298.943895 71.502556 
L 299.594505 65.74128 
L 300.245116 64.23973 
L 300.895726 62.350681 
L 301.546336 64.948938 
L 302.196947 59.00843 
L 302.847557 80.077518 
L 303.498167 68.928066 
L 304.148778 60.838765 
L 304.799388 64.171738 
L 305.449998 53.568 
L 306.100608 59.002403 
L 306.751219 76.611266 
L 307.401829 65.711079 
L 308.052439 71.103013 
L 308.70305 68.766781 
L 309.35366 69.941409 
L 310.00427 61.843437 
L 310.654881 69.085136 
L 311.305491 74.113154 
L 311.956101 74.02827 
L 312.606712 69.048697 
L 313.257322 70.532187 
L 313.907932 76.23726 
L 314.558543 70.402923 
L 315.209153 68.067673 
L 316.510373 61.858747 
L 317.160984 64.054118 
L 317.811594 75.708755 
L 318.462204 71.328619 
L 319.112815 75.892803 
L 319.763425 61.30601 
L 320.414035 66.845328 
L 321.064646 67.622819 
L 321.715256 59.453668 
L 322.365866 65.675608 
L 323.016477 67.497596 
L 323.667087 65.877727 
L 324.317697 63.544812 
L 324.968308 64.879697 
L 325.618918 62.38457 
L 326.269528 69.995539 
L 326.920138 68.58367 
L 327.570749 76.696366 
L 328.221359 68.401338 
L 328.871969 68.488894 
L 329.52258 69.27813 
L 330.17319 68.142441 
L 330.8238 74.660847 
L 331.474411 72.13746 
L 332.125021 74.096042 
L 332.775631 70.374511 
L 333.426242 70.164757 
L 334.076852 85.779991 
L 334.727462 71.280058 
L 335.378073 66.87751 
L 336.028683 66.087783 
L 336.679293 84.886307 
L 337.329903 80.152157 
L 337.980514 80.451913 
L 338.631124 91.055699 
L 339.281734 77.485382 
L 339.932345 72.273041 
L 340.582955 75.931858 
L 341.233565 80.367527 
L 341.884176 76.338948 
L 342.534786 69.469723 
L 343.185396 83.333518 
L 343.836007 65.600155 
L 344.486617 66.031094 
L 345.137227 64.065866 
L 345.787837 58.552031 
L 346.438448 67.089057 
L 347.089058 63.485054 
L 347.739668 71.720764 
L 348.390279 60.577975 
L 349.040889 62.808177 
L 349.691499 57.279657 
L 350.34211 75.215918 
L 350.99272 66.993373 
L 351.64333 65.117495 
L 352.293941 75.30936 
L 352.944551 65.380355 
L 353.595161 70.493275 
L 354.245772 63.909483 
L 354.896382 65.402146 
L 355.546992 64.906761 
L 356.197602 71.248143 
L 357.498823 68.956881 
L 358.149433 69.526417 
L 358.800044 68.84078 
L 359.450654 55.311332 
L 360.101264 58.76152 
L 360.751875 63.778883 
L 361.402485 72.513712 
L 362.053095 78.536232 
L 362.703706 65.66332 
L 363.354316 67.974177 
L 364.655537 69.444425 
L 365.306147 71.008322 
L 365.956757 70.854373 
L 366.607367 71.643433 
L 367.257978 77.686466 
L 367.908588 66.301188 
L 368.559198 76.88724 
L 369.209809 67.402201 
L 369.860419 77.132783 
L 370.511029 62.651991 
L 371.16164 66.270889 
L 371.81225 64.426304 
L 372.46286 57.559983 
L 373.113471 60.907357 
L 373.764081 62.684526 
L 374.414691 72.200505 
L 375.065302 70.896604 
L 375.715912 65.157904 
L 376.366522 61.584851 
L 377.017132 60.234717 
L 377.667743 61.812575 
L 378.318353 60.653219 
L 378.968963 56.246394 
L 379.619574 62.873073 
L 380.270184 61.305617 
L 380.920794 58.105717 
L 381.571405 65.483732 
L 382.222015 60.826911 
L 382.872625 63.888378 
L 383.523236 59.611282 
L 384.173846 62.349499 
L 384.824456 58.418274 
L 385.475066 65.866619 
L 386.125677 68.507486 
L 386.776287 56.615399 
L 387.426897 71.955845 
L 388.077508 66.07815 
L 388.728118 68.609623 
L 389.378728 68.546181 
L 390.679949 69.727844 
L 391.330559 60.201724 
L 391.98117 63.264014 
L 392.63178 73.181828 
L 393.28239 58.186972 
L 393.933001 69.459106 
L 394.583611 67.300377 
L 395.234221 69.077328 
L 395.884831 85.035488 
L 396.535442 73.472473 
L 397.186052 70.043553 
L 397.836662 67.604841 
L 398.487273 73.327075 
L 398.487273 73.327075 
" style="fill:none;stroke:#008000;stroke-dasharray:9.6,2.4,1.5,2.4;stroke-dashoffset:0;stroke-width:1.5;"/>
   </g>
   <g id="line2d_24">
    <path clip-path="url(#p1dfc23953f)" d="M 73.832727 120.449595 
L 75.784558 110.13884 
L 76.435169 110.13884 
L 77.085779 108.275438 
L 77.736389 107.41764 
L 78.386999 103.325757 
L 79.03761 100.523682 
L 83.591882 100.457209 
L 84.242492 98.679613 
L 84.893103 97.911049 
L 90.097985 97.911049 
L 90.748595 97.486901 
L 100.50775 97.431733 
L 101.808971 97.32695 
L 116.773008 97.270854 
L 117.423618 96.931446 
L 170.773664 96.836896 
L 171.424274 96.57021 
L 398.487273 96.467516 
L 398.487273 96.467516 
" style="fill:none;stroke:#ff0000;stroke-linecap:square;stroke-width:1.5;"/>
   </g>
   <g id="patch_3">
    <path d="M 57.6 307.584 
L 57.6 41.472 
" style="fill:none;stroke:#000000;stroke-linecap:square;stroke-linejoin:miter;stroke-width:0.8;"/>
   </g>
   <g id="patch_4">
    <path d="M 414.72 307.584 
L 414.72 41.472 
" style="fill:none;stroke:#000000;stroke-linecap:square;stroke-linejoin:miter;stroke-width:0.8;"/>
   </g>
   <g id="patch_5">
    <path d="M 57.6 307.584 
L 414.72 307.584 
" style="fill:none;stroke:#000000;stroke-linecap:square;stroke-linejoin:miter;stroke-width:0.8;"/>
   </g>
   <g id="patch_6">
    <path d="M 57.6 41.472 
L 414.72 41.472 
" style="fill:none;stroke:#000000;stroke-linecap:square;stroke-linejoin:miter;stroke-width:0.8;"/>
   </g>
   <g id="text_13">
    <!-- Population's average and best fitness -->
    <defs>
     <path d="M 19.671875 64.796875 
L 19.671875 37.40625 
L 32.078125 37.40625 
Q 38.96875 37.40625 42.71875 40.96875 
Q 46.484375 44.53125 46.484375 51.125 
Q 46.484375 57.671875 42.71875 61.234375 
Q 38.96875 64.796875 32.078125 64.796875 
z
M 9.8125 72.90625 
L 32.078125 72.90625 
Q 44.34375 72.90625 50.609375 67.359375 
Q 56.890625 61.8125 56.890625 51.125 
Q 56.890625 40.328125 50.609375 34.8125 
Q 44.34375 29.296875 32.078125 29.296875 
L 19.671875 29.296875 
L 19.671875 0 
L 9.8125 0 
z
" id="DejaVuSans-80"/>
     <path d="M 18.109375 8.203125 
L 18.109375 -20.796875 
L 9.078125 -20.796875 
L 9.078125 54.6875 
L 18.109375 54.6875 
L 18.109375 46.390625 
Q 20.953125 51.265625 25.265625 53.625 
Q 29.59375 56 35.59375 56 
Q 45.5625 56 51.78125 48.09375 
Q 58.015625 40.1875 58.015625 27.296875 
Q 58.015625 14.40625 51.78125 6.484375 
Q 45.5625 -1.421875 35.59375 -1.421875 
Q 29.59375 -1.421875 25.265625 0.953125 
Q 20.953125 3.328125 18.109375 8.203125 
z
M 48.6875 27.296875 
Q 48.6875 37.203125 44.609375 42.84375 
Q 40.53125 48.484375 33.40625 48.484375 
Q 26.265625 48.484375 22.1875 42.84375 
Q 18.109375 37.203125 18.109375 27.296875 
Q 18.109375 17.390625 22.1875 11.75 
Q 26.265625 6.109375 33.40625 6.109375 
Q 40.53125 6.109375 44.609375 11.75 
Q 48.6875 17.390625 48.6875 27.296875 
z
" id="DejaVuSans-112"/>
     <path d="M 8.5 21.578125 
L 8.5 54.6875 
L 17.484375 54.6875 
L 17.484375 21.921875 
Q 17.484375 14.15625 20.5 10.265625 
Q 23.53125 6.390625 29.59375 6.390625 
Q 36.859375 6.390625 41.078125 11.03125 
Q 45.3125 15.671875 45.3125 23.6875 
L 45.3125 54.6875 
L 54.296875 54.6875 
L 54.296875 0 
L 45.3125 0 
L 45.3125 8.40625 
Q 42.046875 3.421875 37.71875 1 
Q 33.40625 -1.421875 27.6875 -1.421875 
Q 18.265625 -1.421875 13.375 4.4375 
Q 8.5 10.296875 8.5 21.578125 
z
M 31.109375 56 
z
" id="DejaVuSans-117"/>
     <path d="M 9.421875 75.984375 
L 18.40625 75.984375 
L 18.40625 0 
L 9.421875 0 
z
" id="DejaVuSans-108"/>
     <path d="M 17.921875 72.90625 
L 17.921875 45.796875 
L 9.625 45.796875 
L 9.625 72.90625 
z
" id="DejaVuSans-39"/>
     <path id="DejaVuSans-32"/>
     <path d="M 2.984375 54.6875 
L 12.5 54.6875 
L 29.59375 8.796875 
L 46.6875 54.6875 
L 56.203125 54.6875 
L 35.6875 0 
L 23.484375 0 
z
" id="DejaVuSans-118"/>
     <path d="M 45.40625 27.984375 
Q 45.40625 37.75 41.375 43.109375 
Q 37.359375 48.484375 30.078125 48.484375 
Q 22.859375 48.484375 18.828125 43.109375 
Q 14.796875 37.75 14.796875 27.984375 
Q 14.796875 18.265625 18.828125 12.890625 
Q 22.859375 7.515625 30.078125 7.515625 
Q 37.359375 7.515625 41.375 12.890625 
Q 45.40625 18.265625 45.40625 27.984375 
z
M 54.390625 6.78125 
Q 54.390625 -7.171875 48.1875 -13.984375 
Q 42 -20.796875 29.203125 -20.796875 
Q 24.46875 -20.796875 20.265625 -20.09375 
Q 16.0625 -19.390625 12.109375 -17.921875 
L 12.109375 -9.1875 
Q 16.0625 -11.328125 19.921875 -12.34375 
Q 23.78125 -13.375 27.78125 -13.375 
Q 36.625 -13.375 41.015625 -8.765625 
Q 45.40625 -4.15625 45.40625 5.171875 
L 45.40625 9.625 
Q 42.625 4.78125 38.28125 2.390625 
Q 33.9375 0 27.875 0 
Q 17.828125 0 11.671875 7.65625 
Q 5.515625 15.328125 5.515625 27.984375 
Q 5.515625 40.671875 11.671875 48.328125 
Q 17.828125 56 27.875 56 
Q 33.9375 56 38.28125 53.609375 
Q 42.625 51.21875 45.40625 46.390625 
L 45.40625 54.6875 
L 54.390625 54.6875 
z
" id="DejaVuSans-103"/>
     <path d="M 45.40625 46.390625 
L 45.40625 75.984375 
L 54.390625 75.984375 
L 54.390625 0 
L 45.40625 0 
L 45.40625 8.203125 
Q 42.578125 3.328125 38.25 0.953125 
Q 33.9375 -1.421875 27.875 -1.421875 
Q 17.96875 -1.421875 11.734375 6.484375 
Q 5.515625 14.40625 5.515625 27.296875 
Q 5.515625 40.1875 11.734375 48.09375 
Q 17.96875 56 27.875 56 
Q 33.9375 56 38.25 53.625 
Q 42.578125 51.265625 45.40625 46.390625 
z
M 14.796875 27.296875 
Q 14.796875 17.390625 18.875 11.75 
Q 22.953125 6.109375 30.078125 6.109375 
Q 37.203125 6.109375 41.296875 11.75 
Q 45.40625 17.390625 45.40625 27.296875 
Q 45.40625 37.203125 41.296875 42.84375 
Q 37.203125 48.484375 30.078125 48.484375 
Q 22.953125 48.484375 18.875 42.84375 
Q 14.796875 37.203125 14.796875 27.296875 
z
" id="DejaVuSans-100"/>
     <path d="M 48.6875 27.296875 
Q 48.6875 37.203125 44.609375 42.84375 
Q 40.53125 48.484375 33.40625 48.484375 
Q 26.265625 48.484375 22.1875 42.84375 
Q 18.109375 37.203125 18.109375 27.296875 
Q 18.109375 17.390625 22.1875 11.75 
Q 26.265625 6.109375 33.40625 6.109375 
Q 40.53125 6.109375 44.609375 11.75 
Q 48.6875 17.390625 48.6875 27.296875 
z
M 18.109375 46.390625 
Q 20.953125 51.265625 25.265625 53.625 
Q 29.59375 56 35.59375 56 
Q 45.5625 56 51.78125 48.09375 
Q 58.015625 40.1875 58.015625 27.296875 
Q 58.015625 14.40625 51.78125 6.484375 
Q 45.5625 -1.421875 35.59375 -1.421875 
Q 29.59375 -1.421875 25.265625 0.953125 
Q 20.953125 3.328125 18.109375 8.203125 
L 18.109375 0 
L 9.078125 0 
L 9.078125 75.984375 
L 18.109375 75.984375 
z
" id="DejaVuSans-98"/>
     <path d="M 37.109375 75.984375 
L 37.109375 68.5 
L 28.515625 68.5 
Q 23.6875 68.5 21.796875 66.546875 
Q 19.921875 64.59375 19.921875 59.515625 
L 19.921875 54.6875 
L 34.71875 54.6875 
L 34.71875 47.703125 
L 19.921875 47.703125 
L 19.921875 0 
L 10.890625 0 
L 10.890625 47.703125 
L 2.296875 47.703125 
L 2.296875 54.6875 
L 10.890625 54.6875 
L 10.890625 58.5 
Q 10.890625 67.625 15.140625 71.796875 
Q 19.390625 75.984375 28.609375 75.984375 
z
" id="DejaVuSans-102"/>
    </defs>
    <g transform="translate(123.315 35.472)scale(0.12 -0.12)">
     <use xlink:href="#DejaVuSans-80"/>
     <use x="60.255859" xlink:href="#DejaVuSans-111"/>
     <use x="121.4375" xlink:href="#DejaVuSans-112"/>
     <use x="184.914062" xlink:href="#DejaVuSans-117"/>
     <use x="248.292969" xlink:href="#DejaVuSans-108"/>
     <use x="276.076172" xlink:href="#DejaVuSans-97"/>
     <use x="337.355469" xlink:href="#DejaVuSans-116"/>
     <use x="376.564453" xlink:href="#DejaVuSans-105"/>
     <use x="404.347656" xlink:href="#DejaVuSans-111"/>
     <use x="465.529297" xlink:href="#DejaVuSans-110"/>
     <use x="528.908203" xlink:href="#DejaVuSans-39"/>
     <use x="556.398438" xlink:href="#DejaVuSans-115"/>
     <use x="608.498047" xlink:href="#DejaVuSans-32"/>
     <use x="640.285156" xlink:href="#DejaVuSans-97"/>
     <use x="701.564453" xlink:href="#DejaVuSans-118"/>
     <use x="760.744141" xlink:href="#DejaVuSans-101"/>
     <use x="822.267578" xlink:href="#DejaVuSans-114"/>
     <use x="863.380859" xlink:href="#DejaVuSans-97"/>
     <use x="924.660156" xlink:href="#DejaVuSans-103"/>
     <use x="988.136719" xlink:href="#DejaVuSans-101"/>
     <use x="1049.660156" xlink:href="#DejaVuSans-32"/>
     <use x="1081.447266" xlink:href="#DejaVuSans-97"/>
     <use x="1142.726562" xlink:href="#DejaVuSans-110"/>
     <use x="1206.105469" xlink:href="#DejaVuSans-100"/>
     <use x="1269.582031" xlink:href="#DejaVuSans-32"/>
     <use x="1301.369141" xlink:href="#DejaVuSans-98"/>
     <use x="1364.845703" xlink:href="#DejaVuSans-101"/>
     <use x="1426.369141" xlink:href="#DejaVuSans-115"/>
     <use x="1478.46875" xlink:href="#DejaVuSans-116"/>
     <use x="1517.677734" xlink:href="#DejaVuSans-32"/>
     <use x="1549.464844" xlink:href="#DejaVuSans-102"/>
     <use x="1584.669922" xlink:href="#DejaVuSans-105"/>
     <use x="1612.453125" xlink:href="#DejaVuSans-116"/>
     <use x="1651.662109" xlink:href="#DejaVuSans-110"/>
     <use x="1715.041016" xlink:href="#DejaVuSans-101"/>
     <use x="1776.564453" xlink:href="#DejaVuSans-115"/>
     <use x="1828.664062" xlink:href="#DejaVuSans-115"/>
    </g>
   </g>
   <g id="legend_1">
    <g id="patch_7">
     <path d="M 64.6 302.584 
L 137.540625 302.584 
Q 139.540625 302.584 139.540625 300.584 
L 139.540625 242.8715 
Q 139.540625 240.8715 137.540625 240.8715 
L 64.6 240.8715 
Q 62.6 240.8715 62.6 242.8715 
L 62.6 300.584 
Q 62.6 302.584 64.6 302.584 
z
" style="fill:#ffffff;opacity:0.8;stroke:#cccccc;stroke-linejoin:miter;"/>
    </g>
    <g id="line2d_25">
     <path d="M 66.6 248.969937 
L 86.6 248.969937 
" style="fill:none;stroke:#0000ff;stroke-linecap:square;stroke-width:1.5;"/>
    </g>
    <g id="line2d_26"/>
    <g id="text_14">
     <!-- average -->
     <g transform="translate(94.6 252.469937)scale(0.1 -0.1)">
      <use xlink:href="#DejaVuSans-97"/>
      <use x="61.279297" xlink:href="#DejaVuSans-118"/>
      <use x="120.458984" xlink:href="#DejaVuSans-101"/>
      <use x="181.982422" xlink:href="#DejaVuSans-114"/>
      <use x="223.095703" xlink:href="#DejaVuSans-97"/>
      <use x="284.375" xlink:href="#DejaVuSans-103"/>
      <use x="347.851562" xlink:href="#DejaVuSans-101"/>
     </g>
    </g>
    <g id="line2d_27">
     <path d="M 66.6 263.648062 
L 86.6 263.648062 
" style="fill:none;stroke:#008000;stroke-dasharray:9.6,2.4,1.5,2.4;stroke-dashoffset:0;stroke-width:1.5;"/>
    </g>
    <g id="line2d_28"/>
    <g id="text_15">
     <!-- -1 sd -->
     <defs>
      <path d="M 4.890625 31.390625 
L 31.203125 31.390625 
L 31.203125 23.390625 
L 4.890625 23.390625 
z
" id="DejaVuSans-45"/>
     </defs>
     <g transform="translate(94.6 267.148062)scale(0.1 -0.1)">
      <use xlink:href="#DejaVuSans-45"/>
      <use x="36.083984" xlink:href="#DejaVuSans-49"/>
      <use x="99.707031" xlink:href="#DejaVuSans-32"/>
      <use x="131.494141" xlink:href="#DejaVuSans-115"/>
      <use x="183.59375" xlink:href="#DejaVuSans-100"/>
     </g>
    </g>
    <g id="line2d_29">
     <path d="M 66.6 278.326187 
L 86.6 278.326187 
" style="fill:none;stroke:#008000;stroke-dasharray:9.6,2.4,1.5,2.4;stroke-dashoffset:0;stroke-width:1.5;"/>
    </g>
    <g id="line2d_30"/>
    <g id="text_16">
     <!-- +1 sd -->
     <defs>
      <path d="M 46 62.703125 
L 46 35.5 
L 73.1875 35.5 
L 73.1875 27.203125 
L 46 27.203125 
L 46 0 
L 37.796875 0 
L 37.796875 27.203125 
L 10.59375 27.203125 
L 10.59375 35.5 
L 37.796875 35.5 
L 37.796875 62.703125 
z
" id="DejaVuSans-43"/>
     </defs>
     <g transform="translate(94.6 281.826187)scale(0.1 -0.1)">
      <use xlink:href="#DejaVuSans-43"/>
      <use x="83.789062" xlink:href="#DejaVuSans-49"/>
      <use x="147.412109" xlink:href="#DejaVuSans-32"/>
      <use x="179.199219" xlink:href="#DejaVuSans-115"/>
      <use x="231.298828" xlink:href="#DejaVuSans-100"/>
     </g>
    </g>
    <g id="line2d_31">
     <path d="M 66.6 293.004312 
L 86.6 293.004312 
" style="fill:none;stroke:#ff0000;stroke-linecap:square;stroke-width:1.5;"/>
    </g>
    <g id="line2d_32"/>
    <g id="text_17">
     <!-- best -->
     <g transform="translate(94.6 296.504312)scale(0.1 -0.1)">
      <use xlink:href="#DejaVuSans-98"/>
      <use x="63.476562" xlink:href="#DejaVuSans-101"/>
      <use x="125" xlink:href="#DejaVuSans-115"/>
      <use x="177.099609" xlink:href="#DejaVuSans-116"/>
     </g>
    </g>
   </g>
  </g>
 </g>
 <defs>
  <clipPath id="p1dfc23953f">
   <rect height="266.112" width="357.12" x="57.6" y="41.472"/>
  </clipPath>
 </defs>
</svg>
