<?xml version="1.0" encoding="utf-8" standalone="no"?>
<!DOCTYPE svg PUBLIC "-//W3C//DTD SVG 1.1//EN"
  "http://www.w3.org/Graphics/SVG/1.1/DTD/svg11.dtd">
<!-- Created with matplotlib (https://matplotlib.org/) -->
<svg height="345.6pt" version="1.1" viewBox="0 0 460.8 345.6" width="460.8pt" xmlns="http://www.w3.org/2000/svg" xmlns:xlink="http://www.w3.org/1999/xlink">
 <defs>
  <style type="text/css">
*{stroke-linecap:butt;stroke-linejoin:round;}
  </style>
 </defs>
 <g id="figure_1">
  <g id="patch_1">
   <path d="M 0 345.6 
L 460.8 345.6 
L 460.8 0 
L 0 0 
z
" style="fill:#ffffff;"/>
  </g>
  <g id="axes_1">
   <g id="patch_2">
    <path d="M 57.6 307.584 
L 414.72 307.584 
L 414.72 41.472 
L 57.6 41.472 
z
" style="fill:#ffffff;"/>
   </g>
   <g id="matplotlib.axis_1">
    <g id="xtick_1">
     <g id="line2d_1">
      <path clip-path="url(#p28f5319f11)" d="M 73.832727 307.584 
L 73.832727 41.472 
" style="fill:none;stroke:#b0b0b0;stroke-linecap:square;stroke-width:0.8;"/>
     </g>
     <g id="line2d_2">
      <defs>
       <path d="M 0 0 
L 0 3.5 
" id="m5dc90cf59d" style="stroke:#000000;stroke-width:0.8;"/>
      </defs>
      <g>
       <use style="stroke:#000000;stroke-width:0.8;" x="73.832727" xlink:href="#m5dc90cf59d" y="307.584"/>
      </g>
     </g>
     <g id="text_1">
      <!-- 0 -->
      <defs>
       <path d="M 31.78125 66.40625 
Q 24.171875 66.40625 20.328125 58.90625 
Q 16.5 51.421875 16.5 36.375 
Q 16.5 21.390625 20.328125 13.890625 
Q 24.171875 6.390625 31.78125 6.390625 
Q 39.453125 6.390625 43.28125 13.890625 
Q 47.125 21.390625 47.125 36.375 
Q 47.125 51.421875 43.28125 58.90625 
Q 39.453125 66.40625 31.78125 66.40625 
z
M 31.78125 74.21875 
Q 44.046875 74.21875 50.515625 64.515625 
Q 56.984375 54.828125 56.984375 36.375 
Q 56.984375 17.96875 50.515625 8.265625 
Q 44.046875 -1.421875 31.78125 -1.421875 
Q 19.53125 -1.421875 13.0625 8.265625 
Q 6.59375 17.96875 6.59375 36.375 
Q 6.59375 54.828125 13.0625 64.515625 
Q 19.53125 74.21875 31.78125 74.21875 
z
" id="DejaVuSans-48"/>
      </defs>
      <g transform="translate(70.651477 322.182437)scale(0.1 -0.1)">
       <use xlink:href="#DejaVuSans-48"/>
      </g>
     </g>
    </g>
    <g id="xtick_2">
     <g id="line2d_3">
      <path clip-path="url(#p28f5319f11)" d="M 138.893758 307.584 
L 138.893758 41.472 
" style="fill:none;stroke:#b0b0b0;stroke-linecap:square;stroke-width:0.8;"/>
     </g>
     <g id="line2d_4">
      <g>
       <use style="stroke:#000000;stroke-width:0.8;" x="138.893758" xlink:href="#m5dc90cf59d" y="307.584"/>
      </g>
     </g>
     <g id="text_2">
      <!-- 100 -->
      <defs>
       <path d="M 12.40625 8.296875 
L 28.515625 8.296875 
L 28.515625 63.921875 
L 10.984375 60.40625 
L 10.984375 69.390625 
L 28.421875 72.90625 
L 38.28125 72.90625 
L 38.28125 8.296875 
L 54.390625 8.296875 
L 54.390625 0 
L 12.40625 0 
z
" id="DejaVuSans-49"/>
      </defs>
      <g transform="translate(129.350008 322.182437)scale(0.1 -0.1)">
       <use xlink:href="#DejaVuSans-49"/>
       <use x="63.623047" xlink:href="#DejaVuSans-48"/>
       <use x="127.246094" xlink:href="#DejaVuSans-48"/>
      </g>
     </g>
    </g>
    <g id="xtick_3">
     <g id="line2d_5">
      <path clip-path="url(#p28f5319f11)" d="M 203.95479 307.584 
L 203.95479 41.472 
" style="fill:none;stroke:#b0b0b0;stroke-linecap:square;stroke-width:0.8;"/>
     </g>
     <g id="line2d_6">
      <g>
       <use style="stroke:#000000;stroke-width:0.8;" x="203.95479" xlink:href="#m5dc90cf59d" y="307.584"/>
      </g>
     </g>
     <g id="text_3">
      <!-- 200 -->
      <defs>
       <path d="M 19.1875 8.296875 
L 53.609375 8.296875 
L 53.609375 0 
L 7.328125 0 
L 7.328125 8.296875 
Q 12.9375 14.109375 22.625 23.890625 
Q 32.328125 33.6875 34.8125 36.53125 
Q 39.546875 41.84375 41.421875 45.53125 
Q 43.3125 49.21875 43.3125 52.78125 
Q 43.3125 58.59375 39.234375 62.25 
Q 35.15625 65.921875 28.609375 65.921875 
Q 23.96875 65.921875 18.8125 64.3125 
Q 13.671875 62.703125 7.8125 59.421875 
L 7.8125 69.390625 
Q 13.765625 71.78125 18.9375 73 
Q 24.125 74.21875 28.421875 74.21875 
Q 39.75 74.21875 46.484375 68.546875 
Q 53.21875 62.890625 53.21875 53.421875 
Q 53.21875 48.921875 51.53125 44.890625 
Q 49.859375 40.875 45.40625 35.40625 
Q 44.1875 33.984375 37.640625 27.21875 
Q 31.109375 20.453125 19.1875 8.296875 
z
" id="DejaVuSans-50"/>
      </defs>
      <g transform="translate(194.41104 322.182437)scale(0.1 -0.1)">
       <use xlink:href="#DejaVuSans-50"/>
       <use x="63.623047" xlink:href="#DejaVuSans-48"/>
       <use x="127.246094" xlink:href="#DejaVuSans-48"/>
      </g>
     </g>
    </g>
    <g id="xtick_4">
     <g id="line2d_7">
      <path clip-path="url(#p28f5319f11)" d="M 269.015821 307.584 
L 269.015821 41.472 
" style="fill:none;stroke:#b0b0b0;stroke-linecap:square;stroke-width:0.8;"/>
     </g>
     <g id="line2d_8">
      <g>
       <use style="stroke:#000000;stroke-width:0.8;" x="269.015821" xlink:href="#m5dc90cf59d" y="307.584"/>
      </g>
     </g>
     <g id="text_4">
      <!-- 300 -->
      <defs>
       <path d="M 40.578125 39.3125 
Q 47.65625 37.796875 51.625 33 
Q 55.609375 28.21875 55.609375 21.1875 
Q 55.609375 10.40625 48.1875 4.484375 
Q 40.765625 -1.421875 27.09375 -1.421875 
Q 22.515625 -1.421875 17.65625 -0.515625 
Q 12.796875 0.390625 7.625 2.203125 
L 7.625 11.71875 
Q 11.71875 9.328125 16.59375 8.109375 
Q 21.484375 6.890625 26.8125 6.890625 
Q 36.078125 6.890625 40.9375 10.546875 
Q 45.796875 14.203125 45.796875 21.1875 
Q 45.796875 27.640625 41.28125 31.265625 
Q 36.765625 34.90625 28.71875 34.90625 
L 20.21875 34.90625 
L 20.21875 43.015625 
L 29.109375 43.015625 
Q 36.375 43.015625 40.234375 45.921875 
Q 44.09375 48.828125 44.09375 54.296875 
Q 44.09375 59.90625 40.109375 62.90625 
Q 36.140625 65.921875 28.71875 65.921875 
Q 24.65625 65.921875 20.015625 65.03125 
Q 15.375 64.15625 9.8125 62.3125 
L 9.8125 71.09375 
Q 15.4375 72.65625 20.34375 73.4375 
Q 25.25 74.21875 29.59375 74.21875 
Q 40.828125 74.21875 47.359375 69.109375 
Q 53.90625 64.015625 53.90625 55.328125 
Q 53.90625 49.265625 50.4375 45.09375 
Q 46.96875 40.921875 40.578125 39.3125 
z
" id="DejaVuSans-51"/>
      </defs>
      <g transform="translate(259.472071 322.182437)scale(0.1 -0.1)">
       <use xlink:href="#DejaVuSans-51"/>
       <use x="63.623047" xlink:href="#DejaVuSans-48"/>
       <use x="127.246094" xlink:href="#DejaVuSans-48"/>
      </g>
     </g>
    </g>
    <g id="xtick_5">
     <g id="line2d_9">
      <path clip-path="url(#p28f5319f11)" d="M 334.076852 307.584 
L 334.076852 41.472 
" style="fill:none;stroke:#b0b0b0;stroke-linecap:square;stroke-width:0.8;"/>
     </g>
     <g id="line2d_10">
      <g>
       <use style="stroke:#000000;stroke-width:0.8;" x="334.076852" xlink:href="#m5dc90cf59d" y="307.584"/>
      </g>
     </g>
     <g id="text_5">
      <!-- 400 -->
      <defs>
       <path d="M 37.796875 64.3125 
L 12.890625 25.390625 
L 37.796875 25.390625 
z
M 35.203125 72.90625 
L 47.609375 72.90625 
L 47.609375 25.390625 
L 58.015625 25.390625 
L 58.015625 17.1875 
L 47.609375 17.1875 
L 47.609375 0 
L 37.796875 0 
L 37.796875 17.1875 
L 4.890625 17.1875 
L 4.890625 26.703125 
z
" id="DejaVuSans-52"/>
      </defs>
      <g transform="translate(324.533102 322.182437)scale(0.1 -0.1)">
       <use xlink:href="#DejaVuSans-52"/>
       <use x="63.623047" xlink:href="#DejaVuSans-48"/>
       <use x="127.246094" xlink:href="#DejaVuSans-48"/>
      </g>
     </g>
    </g>
    <g id="xtick_6">
     <g id="line2d_11">
      <path clip-path="url(#p28f5319f11)" d="M 399.137883 307.584 
L 399.137883 41.472 
" style="fill:none;stroke:#b0b0b0;stroke-linecap:square;stroke-width:0.8;"/>
     </g>
     <g id="line2d_12">
      <g>
       <use style="stroke:#000000;stroke-width:0.8;" x="399.137883" xlink:href="#m5dc90cf59d" y="307.584"/>
      </g>
     </g>
     <g id="text_6">
      <!-- 500 -->
      <defs>
       <path d="M 10.796875 72.90625 
L 49.515625 72.90625 
L 49.515625 64.59375 
L 19.828125 64.59375 
L 19.828125 46.734375 
Q 21.96875 47.46875 24.109375 47.828125 
Q 26.265625 48.1875 28.421875 48.1875 
Q 40.625 48.1875 47.75 41.5 
Q 54.890625 34.8125 54.890625 23.390625 
Q 54.890625 11.625 47.5625 5.09375 
Q 40.234375 -1.421875 26.90625 -1.421875 
Q 22.3125 -1.421875 17.546875 -0.640625 
Q 12.796875 0.140625 7.71875 1.703125 
L 7.71875 11.625 
Q 12.109375 9.234375 16.796875 8.0625 
Q 21.484375 6.890625 26.703125 6.890625 
Q 35.15625 6.890625 40.078125 11.328125 
Q 45.015625 15.765625 45.015625 23.390625 
Q 45.015625 31 40.078125 35.4375 
Q 35.15625 39.890625 26.703125 39.890625 
Q 22.75 39.890625 18.8125 39.015625 
Q 14.890625 38.140625 10.796875 36.28125 
z
" id="DejaVuSans-53"/>
      </defs>
      <g transform="translate(389.594133 322.182437)scale(0.1 -0.1)">
       <use xlink:href="#DejaVuSans-53"/>
       <use x="63.623047" xlink:href="#DejaVuSans-48"/>
       <use x="127.246094" xlink:href="#DejaVuSans-48"/>
      </g>
     </g>
    </g>
    <g id="text_7">
     <!-- Generations -->
     <defs>
      <path d="M 59.515625 10.40625 
L 59.515625 29.984375 
L 43.40625 29.984375 
L 43.40625 38.09375 
L 69.28125 38.09375 
L 69.28125 6.78125 
Q 63.578125 2.734375 56.6875 0.65625 
Q 49.8125 -1.421875 42 -1.421875 
Q 24.90625 -1.421875 15.25 8.5625 
Q 5.609375 18.5625 5.609375 36.375 
Q 5.609375 54.25 15.25 64.234375 
Q 24.90625 74.21875 42 74.21875 
Q 49.125 74.21875 55.546875 72.453125 
Q 61.96875 70.703125 67.390625 67.28125 
L 67.390625 56.78125 
Q 61.921875 61.421875 55.765625 63.765625 
Q 49.609375 66.109375 42.828125 66.109375 
Q 29.4375 66.109375 22.71875 58.640625 
Q 16.015625 51.171875 16.015625 36.375 
Q 16.015625 21.625 22.71875 14.15625 
Q 29.4375 6.6875 42.828125 6.6875 
Q 48.046875 6.6875 52.140625 7.59375 
Q 56.25 8.5 59.515625 10.40625 
z
" id="DejaVuSans-71"/>
      <path d="M 56.203125 29.59375 
L 56.203125 25.203125 
L 14.890625 25.203125 
Q 15.484375 15.921875 20.484375 11.0625 
Q 25.484375 6.203125 34.421875 6.203125 
Q 39.59375 6.203125 44.453125 7.46875 
Q 49.3125 8.734375 54.109375 11.28125 
L 54.109375 2.78125 
Q 49.265625 0.734375 44.1875 -0.34375 
Q 39.109375 -1.421875 33.890625 -1.421875 
Q 20.796875 -1.421875 13.15625 6.1875 
Q 5.515625 13.8125 5.515625 26.8125 
Q 5.515625 40.234375 12.765625 48.109375 
Q 20.015625 56 32.328125 56 
Q 43.359375 56 49.78125 48.890625 
Q 56.203125 41.796875 56.203125 29.59375 
z
M 47.21875 32.234375 
Q 47.125 39.59375 43.09375 43.984375 
Q 39.0625 48.390625 32.421875 48.390625 
Q 24.90625 48.390625 20.390625 44.140625 
Q 15.875 39.890625 15.1875 32.171875 
z
" id="DejaVuSans-101"/>
      <path d="M 54.890625 33.015625 
L 54.890625 0 
L 45.90625 0 
L 45.90625 32.71875 
Q 45.90625 40.484375 42.875 44.328125 
Q 39.84375 48.1875 33.796875 48.1875 
Q 26.515625 48.1875 22.3125 43.546875 
Q 18.109375 38.921875 18.109375 30.90625 
L 18.109375 0 
L 9.078125 0 
L 9.078125 54.6875 
L 18.109375 54.6875 
L 18.109375 46.1875 
Q 21.34375 51.125 25.703125 53.5625 
Q 30.078125 56 35.796875 56 
Q 45.21875 56 50.046875 50.171875 
Q 54.890625 44.34375 54.890625 33.015625 
z
" id="DejaVuSans-110"/>
      <path d="M 41.109375 46.296875 
Q 39.59375 47.171875 37.8125 47.578125 
Q 36.03125 48 33.890625 48 
Q 26.265625 48 22.1875 43.046875 
Q 18.109375 38.09375 18.109375 28.8125 
L 18.109375 0 
L 9.078125 0 
L 9.078125 54.6875 
L 18.109375 54.6875 
L 18.109375 46.1875 
Q 20.953125 51.171875 25.484375 53.578125 
Q 30.03125 56 36.53125 56 
Q 37.453125 56 38.578125 55.875 
Q 39.703125 55.765625 41.0625 55.515625 
z
" id="DejaVuSans-114"/>
      <path d="M 34.28125 27.484375 
Q 23.390625 27.484375 19.1875 25 
Q 14.984375 22.515625 14.984375 16.5 
Q 14.984375 11.71875 18.140625 8.90625 
Q 21.296875 6.109375 26.703125 6.109375 
Q 34.1875 6.109375 38.703125 11.40625 
Q 43.21875 16.703125 43.21875 25.484375 
L 43.21875 27.484375 
z
M 52.203125 31.203125 
L 52.203125 0 
L 43.21875 0 
L 43.21875 8.296875 
Q 40.140625 3.328125 35.546875 0.953125 
Q 30.953125 -1.421875 24.3125 -1.421875 
Q 15.921875 -1.421875 10.953125 3.296875 
Q 6 8.015625 6 15.921875 
Q 6 25.140625 12.171875 29.828125 
Q 18.359375 34.515625 30.609375 34.515625 
L 43.21875 34.515625 
L 43.21875 35.40625 
Q 43.21875 41.609375 39.140625 45 
Q 35.0625 48.390625 27.6875 48.390625 
Q 23 48.390625 18.546875 47.265625 
Q 14.109375 46.140625 10.015625 43.890625 
L 10.015625 52.203125 
Q 14.9375 54.109375 19.578125 55.046875 
Q 24.21875 56 28.609375 56 
Q 40.484375 56 46.34375 49.84375 
Q 52.203125 43.703125 52.203125 31.203125 
z
" id="DejaVuSans-97"/>
      <path d="M 18.3125 70.21875 
L 18.3125 54.6875 
L 36.8125 54.6875 
L 36.8125 47.703125 
L 18.3125 47.703125 
L 18.3125 18.015625 
Q 18.3125 11.328125 20.140625 9.421875 
Q 21.96875 7.515625 27.59375 7.515625 
L 36.8125 7.515625 
L 36.8125 0 
L 27.59375 0 
Q 17.1875 0 13.234375 3.875 
Q 9.28125 7.765625 9.28125 18.015625 
L 9.28125 47.703125 
L 2.6875 47.703125 
L 2.6875 54.6875 
L 9.28125 54.6875 
L 9.28125 70.21875 
z
" id="DejaVuSans-116"/>
      <path d="M 9.421875 54.6875 
L 18.40625 54.6875 
L 18.40625 0 
L 9.421875 0 
z
M 9.421875 75.984375 
L 18.40625 75.984375 
L 18.40625 64.59375 
L 9.421875 64.59375 
z
" id="DejaVuSans-105"/>
      <path d="M 30.609375 48.390625 
Q 23.390625 48.390625 19.1875 42.75 
Q 14.984375 37.109375 14.984375 27.296875 
Q 14.984375 17.484375 19.15625 11.84375 
Q 23.34375 6.203125 30.609375 6.203125 
Q 37.796875 6.203125 41.984375 11.859375 
Q 46.1875 17.53125 46.1875 27.296875 
Q 46.1875 37.015625 41.984375 42.703125 
Q 37.796875 48.390625 30.609375 48.390625 
z
M 30.609375 56 
Q 42.328125 56 49.015625 48.375 
Q 55.71875 40.765625 55.71875 27.296875 
Q 55.71875 13.875 49.015625 6.21875 
Q 42.328125 -1.421875 30.609375 -1.421875 
Q 18.84375 -1.421875 12.171875 6.21875 
Q 5.515625 13.875 5.515625 27.296875 
Q 5.515625 40.765625 12.171875 48.375 
Q 18.84375 56 30.609375 56 
z
" id="DejaVuSans-111"/>
      <path d="M 44.28125 53.078125 
L 44.28125 44.578125 
Q 40.484375 46.53125 36.375 47.5 
Q 32.28125 48.484375 27.875 48.484375 
Q 21.1875 48.484375 17.84375 46.4375 
Q 14.5 44.390625 14.5 40.28125 
Q 14.5 37.15625 16.890625 35.375 
Q 19.28125 33.59375 26.515625 31.984375 
L 29.59375 31.296875 
Q 39.15625 29.25 43.1875 25.515625 
Q 47.21875 21.78125 47.21875 15.09375 
Q 47.21875 7.46875 41.1875 3.015625 
Q 35.15625 -1.421875 24.609375 -1.421875 
Q 20.21875 -1.421875 15.453125 -0.5625 
Q 10.6875 0.296875 5.421875 2 
L 5.421875 11.28125 
Q 10.40625 8.6875 15.234375 7.390625 
Q 20.0625 6.109375 24.8125 6.109375 
Q 31.15625 6.109375 34.5625 8.28125 
Q 37.984375 10.453125 37.984375 14.40625 
Q 37.984375 18.0625 35.515625 20.015625 
Q 33.0625 21.96875 24.703125 23.78125 
L 21.578125 24.515625 
Q 13.234375 26.265625 9.515625 29.90625 
Q 5.8125 33.546875 5.8125 39.890625 
Q 5.8125 47.609375 11.28125 51.796875 
Q 16.75 56 26.8125 56 
Q 31.78125 56 36.171875 55.265625 
Q 40.578125 54.546875 44.28125 53.078125 
z
" id="DejaVuSans-115"/>
     </defs>
     <g transform="translate(205.662344 335.860562)scale(0.1 -0.1)">
      <use xlink:href="#DejaVuSans-71"/>
      <use x="77.490234" xlink:href="#DejaVuSans-101"/>
      <use x="139.013672" xlink:href="#DejaVuSans-110"/>
      <use x="202.392578" xlink:href="#DejaVuSans-101"/>
      <use x="263.916016" xlink:href="#DejaVuSans-114"/>
      <use x="305.029297" xlink:href="#DejaVuSans-97"/>
      <use x="366.308594" xlink:href="#DejaVuSans-116"/>
      <use x="405.517578" xlink:href="#DejaVuSans-105"/>
      <use x="433.300781" xlink:href="#DejaVuSans-111"/>
      <use x="494.482422" xlink:href="#DejaVuSans-110"/>
      <use x="557.861328" xlink:href="#DejaVuSans-115"/>
     </g>
    </g>
   </g>
   <g id="matplotlib.axis_2">
    <g id="ytick_1">
     <g id="line2d_13">
      <path clip-path="url(#p28f5319f11)" d="M 57.6 287.84322 
L 414.72 287.84322 
" style="fill:none;stroke:#b0b0b0;stroke-linecap:square;stroke-width:0.8;"/>
     </g>
     <g id="line2d_14">
      <defs>
       <path d="M 0 0 
L -3.5 0 
" id="m708cd7bbba" style="stroke:#000000;stroke-width:0.8;"/>
      </defs>
      <g>
       <use style="stroke:#000000;stroke-width:0.8;" x="57.6" xlink:href="#m708cd7bbba" y="287.84322"/>
      </g>
     </g>
     <g id="text_8">
      <!-- −0.8 -->
      <defs>
       <path d="M 10.59375 35.5 
L 73.1875 35.5 
L 73.1875 27.203125 
L 10.59375 27.203125 
z
" id="DejaVuSans-8722"/>
       <path d="M 10.6875 12.40625 
L 21 12.40625 
L 21 0 
L 10.6875 0 
z
" id="DejaVuSans-46"/>
       <path d="M 31.78125 34.625 
Q 24.75 34.625 20.71875 30.859375 
Q 16.703125 27.09375 16.703125 20.515625 
Q 16.703125 13.921875 20.71875 10.15625 
Q 24.75 6.390625 31.78125 6.390625 
Q 38.8125 6.390625 42.859375 10.171875 
Q 46.921875 13.96875 46.921875 20.515625 
Q 46.921875 27.09375 42.890625 30.859375 
Q 38.875 34.625 31.78125 34.625 
z
M 21.921875 38.8125 
Q 15.578125 40.375 12.03125 44.71875 
Q 8.5 49.078125 8.5 55.328125 
Q 8.5 64.0625 14.71875 69.140625 
Q 20.953125 74.21875 31.78125 74.21875 
Q 42.671875 74.21875 48.875 69.140625 
Q 55.078125 64.0625 55.078125 55.328125 
Q 55.078125 49.078125 51.53125 44.71875 
Q 48 40.375 41.703125 38.8125 
Q 48.828125 37.15625 52.796875 32.3125 
Q 56.78125 27.484375 56.78125 20.515625 
Q 56.78125 9.90625 50.3125 4.234375 
Q 43.84375 -1.421875 31.78125 -1.421875 
Q 19.734375 -1.421875 13.25 4.234375 
Q 6.78125 9.90625 6.78125 20.515625 
Q 6.78125 27.484375 10.78125 32.3125 
Q 14.796875 37.15625 21.921875 38.8125 
z
M 18.3125 54.390625 
Q 18.3125 48.734375 21.84375 45.5625 
Q 25.390625 42.390625 31.78125 42.390625 
Q 38.140625 42.390625 41.71875 45.5625 
Q 45.3125 48.734375 45.3125 54.390625 
Q 45.3125 60.0625 41.71875 63.234375 
Q 38.140625 66.40625 31.78125 66.40625 
Q 25.390625 66.40625 21.84375 63.234375 
Q 18.3125 60.0625 18.3125 54.390625 
z
" id="DejaVuSans-56"/>
      </defs>
      <g transform="translate(26.317187 291.642438)scale(0.1 -0.1)">
       <use xlink:href="#DejaVuSans-8722"/>
       <use x="83.789062" xlink:href="#DejaVuSans-48"/>
       <use x="147.412109" xlink:href="#DejaVuSans-46"/>
       <use x="179.199219" xlink:href="#DejaVuSans-56"/>
      </g>
     </g>
    </g>
    <g id="ytick_2">
     <g id="line2d_15">
      <path clip-path="url(#p28f5319f11)" d="M 57.6 237.827921 
L 414.72 237.827921 
" style="fill:none;stroke:#b0b0b0;stroke-linecap:square;stroke-width:0.8;"/>
     </g>
     <g id="line2d_16">
      <g>
       <use style="stroke:#000000;stroke-width:0.8;" x="57.6" xlink:href="#m708cd7bbba" y="237.827921"/>
      </g>
     </g>
     <g id="text_9">
      <!-- −0.6 -->
      <defs>
       <path d="M 33.015625 40.375 
Q 26.375 40.375 22.484375 35.828125 
Q 18.609375 31.296875 18.609375 23.390625 
Q 18.609375 15.53125 22.484375 10.953125 
Q 26.375 6.390625 33.015625 6.390625 
Q 39.65625 6.390625 43.53125 10.953125 
Q 47.40625 15.53125 47.40625 23.390625 
Q 47.40625 31.296875 43.53125 35.828125 
Q 39.65625 40.375 33.015625 40.375 
z
M 52.59375 71.296875 
L 52.59375 62.3125 
Q 48.875 64.0625 45.09375 64.984375 
Q 41.3125 65.921875 37.59375 65.921875 
Q 27.828125 65.921875 22.671875 59.328125 
Q 17.53125 52.734375 16.796875 39.40625 
Q 19.671875 43.65625 24.015625 45.921875 
Q 28.375 48.1875 33.59375 48.1875 
Q 44.578125 48.1875 50.953125 41.515625 
Q 57.328125 34.859375 57.328125 23.390625 
Q 57.328125 12.15625 50.6875 5.359375 
Q 44.046875 -1.421875 33.015625 -1.421875 
Q 20.359375 -1.421875 13.671875 8.265625 
Q 6.984375 17.96875 6.984375 36.375 
Q 6.984375 53.65625 15.1875 63.9375 
Q 23.390625 74.21875 37.203125 74.21875 
Q 40.921875 74.21875 44.703125 73.484375 
Q 48.484375 72.75 52.59375 71.296875 
z
" id="DejaVuSans-54"/>
      </defs>
      <g transform="translate(26.317187 241.62714)scale(0.1 -0.1)">
       <use xlink:href="#DejaVuSans-8722"/>
       <use x="83.789062" xlink:href="#DejaVuSans-48"/>
       <use x="147.412109" xlink:href="#DejaVuSans-46"/>
       <use x="179.199219" xlink:href="#DejaVuSans-54"/>
      </g>
     </g>
    </g>
    <g id="ytick_3">
     <g id="line2d_17">
      <path clip-path="url(#p28f5319f11)" d="M 57.6 187.812622 
L 414.72 187.812622 
" style="fill:none;stroke:#b0b0b0;stroke-linecap:square;stroke-width:0.8;"/>
     </g>
     <g id="line2d_18">
      <g>
       <use style="stroke:#000000;stroke-width:0.8;" x="57.6" xlink:href="#m708cd7bbba" y="187.812622"/>
      </g>
     </g>
     <g id="text_10">
      <!-- −0.4 -->
      <g transform="translate(26.317187 191.611841)scale(0.1 -0.1)">
       <use xlink:href="#DejaVuSans-8722"/>
       <use x="83.789062" xlink:href="#DejaVuSans-48"/>
       <use x="147.412109" xlink:href="#DejaVuSans-46"/>
       <use x="179.199219" xlink:href="#DejaVuSans-52"/>
      </g>
     </g>
    </g>
    <g id="ytick_4">
     <g id="line2d_19">
      <path clip-path="url(#p28f5319f11)" d="M 57.6 137.797324 
L 414.72 137.797324 
" style="fill:none;stroke:#b0b0b0;stroke-linecap:square;stroke-width:0.8;"/>
     </g>
     <g id="line2d_20">
      <g>
       <use style="stroke:#000000;stroke-width:0.8;" x="57.6" xlink:href="#m708cd7bbba" y="137.797324"/>
      </g>
     </g>
     <g id="text_11">
      <!-- −0.2 -->
      <g transform="translate(26.317187 141.596542)scale(0.1 -0.1)">
       <use xlink:href="#DejaVuSans-8722"/>
       <use x="83.789062" xlink:href="#DejaVuSans-48"/>
       <use x="147.412109" xlink:href="#DejaVuSans-46"/>
       <use x="179.199219" xlink:href="#DejaVuSans-50"/>
      </g>
     </g>
    </g>
    <g id="ytick_5">
     <g id="line2d_21">
      <path clip-path="url(#p28f5319f11)" d="M 57.6 87.782025 
L 414.72 87.782025 
" style="fill:none;stroke:#b0b0b0;stroke-linecap:square;stroke-width:0.8;"/>
     </g>
     <g id="line2d_22">
      <g>
       <use style="stroke:#000000;stroke-width:0.8;" x="57.6" xlink:href="#m708cd7bbba" y="87.782025"/>
      </g>
     </g>
     <g id="text_12">
      <!-- 0.0 -->
      <g transform="translate(34.696875 91.581244)scale(0.1 -0.1)">
       <use xlink:href="#DejaVuSans-48"/>
       <use x="63.623047" xlink:href="#DejaVuSans-46"/>
       <use x="95.410156" xlink:href="#DejaVuSans-48"/>
      </g>
     </g>
    </g>
    <g id="text_13">
     <!-- Fitness -->
     <defs>
      <path d="M 9.8125 72.90625 
L 51.703125 72.90625 
L 51.703125 64.59375 
L 19.671875 64.59375 
L 19.671875 43.109375 
L 48.578125 43.109375 
L 48.578125 34.8125 
L 19.671875 34.8125 
L 19.671875 0 
L 9.8125 0 
z
" id="DejaVuSans-70"/>
     </defs>
     <g transform="translate(20.2375 192.202219)rotate(-90)scale(0.1 -0.1)">
      <use xlink:href="#DejaVuSans-70"/>
      <use x="57.410156" xlink:href="#DejaVuSans-105"/>
      <use x="85.193359" xlink:href="#DejaVuSans-116"/>
      <use x="124.402344" xlink:href="#DejaVuSans-110"/>
      <use x="187.78125" xlink:href="#DejaVuSans-101"/>
      <use x="249.304688" xlink:href="#DejaVuSans-115"/>
      <use x="301.404297" xlink:href="#DejaVuSans-115"/>
     </g>
    </g>
   </g>
   <g id="line2d_23">
    <path clip-path="url(#p28f5319f11)" d="M 73.832727 155.382586 
L 74.483338 142.796931 
L 75.133948 147.341313 
L 75.784558 148.835846 
L 76.435169 154.273165 
L 77.085779 158.653967 
L 77.736389 182.285677 
L 78.386999 154.970169 
L 79.68822 137.07916 
L 80.33883 149.586725 
L 80.989441 137.858956 
L 81.640051 158.190085 
L 82.290661 156.878791 
L 82.941272 146.062146 
L 83.591882 160.796374 
L 84.242492 138.617983 
L 84.893103 146.151907 
L 85.543713 146.20325 
L 86.194323 166.304871 
L 86.844934 159.923063 
L 87.495544 139.620736 
L 88.146154 166.821768 
L 88.796764 152.306053 
L 89.447375 159.835008 
L 90.097985 129.520014 
L 90.748595 157.366664 
L 91.399206 151.788899 
L 92.049816 160.091576 
L 92.700426 172.238789 
L 93.351037 167.206312 
L 94.001647 164.568721 
L 94.652257 155.671853 
L 95.302868 165.873818 
L 95.953478 147.12797 
L 96.604088 169.778293 
L 97.254698 154.086124 
L 97.905309 163.515328 
L 98.555919 163.650729 
L 99.206529 156.418062 
L 99.85714 164.424689 
L 100.50775 157.09212 
L 101.15836 147.007663 
L 101.808971 156.420119 
L 102.459581 168.590217 
L 103.110191 163.688827 
L 103.760802 166.519925 
L 104.411412 163.621518 
L 105.062022 172.309703 
L 105.712633 166.190659 
L 106.363243 132.595213 
L 107.013853 166.288269 
L 107.664463 167.628536 
L 108.315074 140.29559 
L 108.965684 162.753844 
L 109.616294 176.470873 
L 110.266905 162.254646 
L 110.917515 157.91553 
L 111.568125 140.639451 
L 112.218736 152.261988 
L 112.869346 159.864593 
L 113.519956 140.349385 
L 114.170567 160.191269 
L 114.821177 146.876081 
L 115.471787 142.55383 
L 116.122398 140.317153 
L 116.773008 150.382842 
L 117.423618 145.696933 
L 118.074228 144.009829 
L 118.724839 143.627575 
L 119.375449 135.432315 
L 120.026059 144.060066 
L 120.67667 150.041625 
L 121.32728 141.992477 
L 121.97789 147.288678 
L 122.628501 153.743798 
L 123.279111 166.868524 
L 123.929721 150.248499 
L 124.580332 147.856428 
L 125.230942 134.612287 
L 125.881552 155.328021 
L 126.532163 158.523715 
L 127.182773 159.716619 
L 127.833383 164.221183 
L 128.483993 167.722664 
L 129.134604 152.870909 
L 129.785214 161.209549 
L 130.435824 154.553275 
L 131.086435 153.522317 
L 131.737045 166.838905 
L 132.387655 165.507534 
L 133.038266 164.478944 
L 133.688876 165.575362 
L 134.339486 156.603655 
L 134.990097 155.973875 
L 135.640707 164.790569 
L 136.291317 157.422266 
L 136.941927 168.235213 
L 137.592538 157.939631 
L 138.243148 167.090608 
L 138.893758 162.608231 
L 139.544369 150.810174 
L 140.194979 158.802799 
L 140.845589 163.273851 
L 141.4962 153.127223 
L 142.14681 152.518119 
L 142.79742 135.176015 
L 143.448031 153.245492 
L 144.098641 156.752202 
L 144.749251 146.471705 
L 145.399862 146.398408 
L 146.050472 145.347673 
L 146.701082 153.155544 
L 147.351692 151.905026 
L 148.002303 153.326227 
L 148.652913 154.140652 
L 149.303523 158.92573 
L 149.954134 138.977706 
L 150.604744 152.573163 
L 151.255354 151.601659 
L 152.556575 142.2184 
L 153.207185 148.634569 
L 153.857796 147.557593 
L 154.508406 163.283924 
L 155.159016 142.051774 
L 155.809627 146.271141 
L 156.460237 151.73835 
L 157.761457 138.285945 
L 158.412068 153.047248 
L 159.062678 149.344194 
L 159.713288 140.797621 
L 160.363899 136.858915 
L 161.014509 158.976033 
L 161.665119 138.263757 
L 162.31573 154.042294 
L 162.96634 157.173301 
L 164.267561 145.806984 
L 164.918171 150.510093 
L 165.568781 149.180028 
L 166.219392 144.698462 
L 166.870002 152.695522 
L 167.520612 147.592346 
L 168.821833 134.822857 
L 169.472443 159.725931 
L 170.123053 144.073762 
L 170.773664 142.230477 
L 171.424274 141.883545 
L 172.074884 152.320667 
L 172.725495 148.280943 
L 173.376105 147.256208 
L 174.026715 142.806335 
L 174.677326 159.144469 
L 175.327936 140.321756 
L 175.978546 142.767524 
L 176.629156 158.075066 
L 177.279767 155.156067 
L 177.930377 151.226959 
L 178.580987 153.723838 
L 179.231598 153.80814 
L 179.882208 155.551587 
L 180.532818 147.551126 
L 181.183429 146.405003 
L 181.834039 139.919169 
L 182.484649 164.967509 
L 183.13526 156.016518 
L 183.78587 134.431748 
L 184.43648 141.625978 
L 185.087091 160.498163 
L 185.737701 164.178589 
L 186.388311 148.396786 
L 187.038921 151.537101 
L 187.689532 153.154123 
L 188.340142 146.191721 
L 188.990752 155.750839 
L 189.641363 160.356253 
L 190.291973 160.003872 
L 190.942583 145.443882 
L 191.593194 161.464176 
L 192.243804 148.99144 
L 192.894414 147.762929 
L 193.545025 142.282536 
L 194.195635 148.134294 
L 194.846245 137.673763 
L 195.496856 147.260708 
L 196.147466 131.019271 
L 196.798076 149.290403 
L 197.448686 153.507015 
L 198.099297 147.242989 
L 198.749907 159.885527 
L 199.400517 143.373118 
L 200.051128 148.820431 
L 200.701738 139.320724 
L 201.352348 142.8571 
L 202.002959 142.655444 
L 202.653569 137.515081 
L 203.304179 148.686982 
L 204.6054 145.155473 
L 205.25601 140.367827 
L 205.906621 144.886131 
L 206.557231 146.006188 
L 207.207841 139.344912 
L 207.858451 159.999428 
L 208.509062 138.655881 
L 209.159672 160.958477 
L 209.810282 152.746304 
L 210.460893 140.277955 
L 211.111503 151.467387 
L 211.762113 155.063009 
L 212.412724 149.796454 
L 213.063334 147.800451 
L 213.713944 147.571429 
L 214.364555 142.614196 
L 215.015165 138.891397 
L 215.665775 140.330201 
L 216.316385 144.606801 
L 216.966996 144.259656 
L 217.617606 143.018984 
L 218.268216 150.992165 
L 218.918827 134.12379 
L 219.569437 137.295888 
L 220.220047 132.453703 
L 220.870658 143.682134 
L 221.521268 145.006181 
L 222.171878 142.802905 
L 222.822489 144.372254 
L 223.473099 144.577271 
L 224.123709 155.665699 
L 224.77432 135.897282 
L 225.42493 146.857432 
L 226.07554 136.581172 
L 226.72615 148.365994 
L 227.376761 143.917855 
L 228.027371 149.946268 
L 228.677981 138.668061 
L 229.328592 142.925931 
L 229.979202 139.791252 
L 230.629812 142.423637 
L 231.280423 141.640753 
L 231.931033 148.797604 
L 232.581643 144.549052 
L 233.232254 146.639516 
L 233.882864 138.414908 
L 235.184085 165.049679 
L 235.834695 140.653097 
L 236.485305 137.666144 
L 237.135915 147.666111 
L 237.786526 142.396048 
L 238.437136 142.116375 
L 239.087746 141.299078 
L 239.738357 144.486665 
L 240.388967 135.566138 
L 241.039577 134.779939 
L 241.690188 149.448635 
L 242.340798 128.449177 
L 242.991408 155.778551 
L 243.642019 157.458906 
L 244.292629 130.414156 
L 244.943239 156.010557 
L 245.59385 146.078346 
L 246.24446 148.371398 
L 246.89507 131.836639 
L 247.54568 149.09564 
L 248.196291 154.882826 
L 248.846901 134.368008 
L 249.497511 157.867946 
L 250.148122 142.110837 
L 250.798732 153.483118 
L 251.449342 141.727731 
L 252.099953 127.897544 
L 252.750563 137.025403 
L 253.401173 142.062561 
L 254.051784 146.195839 
L 254.702394 156.859545 
L 255.353004 143.519066 
L 256.003615 144.970636 
L 256.654225 150.586865 
L 257.304835 153.208139 
L 257.955445 145.134462 
L 258.606056 149.855659 
L 259.256666 130.661959 
L 259.907276 143.81103 
L 260.557887 147.752867 
L 261.208497 156.605634 
L 261.859107 155.234287 
L 262.509718 148.358669 
L 263.160328 144.438296 
L 263.810938 145.194279 
L 264.461549 143.908805 
L 265.112159 156.193437 
L 265.762769 134.065855 
L 266.413379 153.77147 
L 267.06399 148.544916 
L 267.7146 136.006849 
L 268.36521 147.646369 
L 269.015821 141.055023 
L 269.666431 143.178626 
L 270.317041 164.021544 
L 270.967652 157.997574 
L 271.618262 136.509704 
L 272.268872 152.602774 
L 272.919483 138.144658 
L 273.570093 150.110213 
L 274.220703 148.139742 
L 274.871314 141.612542 
L 275.521924 144.231133 
L 276.172534 144.918818 
L 276.823144 143.755073 
L 277.473755 160.369142 
L 278.124365 148.046169 
L 278.774975 148.668366 
L 279.425586 149.448337 
L 280.076196 140.227538 
L 280.726806 165.45306 
L 281.377417 152.007405 
L 282.028027 143.654471 
L 282.678637 141.207475 
L 283.329248 143.732787 
L 283.979858 136.89552 
L 284.630468 141.860486 
L 285.281079 143.540162 
L 285.931689 132.698983 
L 286.582299 134.503604 
L 287.232909 133.792312 
L 287.88352 147.122716 
L 288.53413 154.304506 
L 289.18474 141.695257 
L 289.835351 139.751956 
L 290.485961 136.88747 
L 291.136571 143.653482 
L 291.787182 158.22125 
L 292.437792 138.377636 
L 293.088402 156.325025 
L 293.739013 140.376833 
L 294.389623 131.78761 
L 295.040233 163.133781 
L 295.690844 138.490196 
L 296.341454 139.351536 
L 296.992064 144.467369 
L 297.642674 134.258504 
L 298.293285 148.06088 
L 298.943895 139.552003 
L 299.594505 138.424027 
L 300.245116 141.216969 
L 300.895726 135.556735 
L 301.546336 139.649348 
L 302.196947 135.829443 
L 302.847557 143.414683 
L 303.498167 130.786543 
L 304.148778 162.339993 
L 304.799388 143.476902 
L 305.449998 129.401492 
L 306.100608 140.664169 
L 306.751219 136.956745 
L 307.401829 147.586649 
L 308.052439 149.945899 
L 308.70305 143.918786 
L 309.35366 141.898123 
L 310.00427 137.454582 
L 310.654881 159.130766 
L 311.305491 148.680458 
L 311.956101 146.333908 
L 313.257322 152.484315 
L 313.907932 152.106841 
L 314.558543 142.316557 
L 315.209153 144.502531 
L 315.859763 150.286815 
L 316.510373 137.86006 
L 317.160984 138.623653 
L 317.811594 136.575497 
L 318.462204 143.217141 
L 319.112815 142.800586 
L 319.763425 140.394828 
L 320.414035 146.199268 
L 321.064646 139.480977 
L 321.715256 134.33308 
L 322.365866 138.422435 
L 323.016477 160.784925 
L 323.667087 141.562651 
L 324.317697 153.855115 
L 324.968308 141.187529 
L 325.618918 155.815552 
L 326.269528 154.53505 
L 326.920138 145.424317 
L 327.570749 144.174838 
L 328.221359 139.80449 
L 328.871969 137.024327 
L 329.52258 137.466002 
L 330.17319 141.588246 
L 330.8238 142.19962 
L 331.474411 141.270354 
L 332.775631 135.339909 
L 333.426242 150.132752 
L 334.076852 142.15864 
L 334.727462 140.630695 
L 335.378073 134.461046 
L 336.028683 134.870301 
L 336.679293 137.723795 
L 337.329903 138.8837 
L 337.980514 145.957313 
L 338.631124 145.89509 
L 339.281734 143.809779 
L 339.932345 144.391572 
L 340.582955 142.054155 
L 341.233565 139.271503 
L 341.884176 160.857748 
L 342.534786 137.795835 
L 343.185396 144.690812 
L 343.836007 149.729195 
L 344.486617 143.050093 
L 345.137227 160.196623 
L 345.787837 136.115295 
L 346.438448 152.792787 
L 347.089058 146.630401 
L 347.739668 148.396122 
L 348.390279 142.990484 
L 349.040889 136.398934 
L 349.691499 147.133252 
L 350.34211 135.928573 
L 350.99272 140.727903 
L 351.64333 153.318868 
L 352.293941 152.197166 
L 352.944551 148.476556 
L 353.595161 138.163677 
L 354.245772 143.00358 
L 354.896382 140.742353 
L 355.546992 146.64581 
L 356.197602 133.991008 
L 356.848213 139.035628 
L 357.498823 155.528383 
L 358.149433 143.370825 
L 358.800044 153.619025 
L 359.450654 148.58541 
L 360.101264 136.342621 
L 360.751875 141.608419 
L 361.402485 133.158051 
L 362.053095 144.619944 
L 362.703706 152.957961 
L 363.354316 139.397353 
L 364.004926 148.538658 
L 364.655537 145.012763 
L 365.306147 131.71092 
L 365.956757 140.064145 
L 366.607367 157.363095 
L 367.257978 145.165243 
L 367.908588 143.066318 
L 368.559198 137.379238 
L 369.209809 159.024749 
L 369.860419 141.946347 
L 370.511029 133.476427 
L 371.16164 146.571582 
L 371.81225 148.186613 
L 372.46286 152.641907 
L 373.113471 146.542528 
L 373.764081 136.468792 
L 374.414691 141.740041 
L 375.065302 159.706878 
L 375.715912 144.18321 
L 376.366522 152.745552 
L 377.017132 140.466101 
L 377.667743 147.064844 
L 378.318353 140.926914 
L 379.619574 152.570328 
L 380.270184 136.527107 
L 380.920794 140.384677 
L 381.571405 159.274305 
L 382.222015 149.813241 
L 382.872625 152.515515 
L 383.523236 156.980823 
L 384.173846 137.817828 
L 384.824456 141.246536 
L 385.475066 138.509513 
L 386.125677 153.815028 
L 386.776287 141.64039 
L 387.426897 155.676184 
L 388.077508 140.577223 
L 388.728118 152.639059 
L 389.378728 171.915266 
L 390.029339 128.405695 
L 391.330559 158.950361 
L 391.98117 150.182022 
L 392.63178 146.285511 
L 393.28239 157.378728 
L 393.933001 155.949468 
L 394.583611 146.777746 
L 395.234221 144.904177 
L 395.884831 138.651948 
L 397.186052 151.480388 
L 397.836662 140.537974 
L 398.487273 146.687314 
L 398.487273 146.687314 
" style="fill:none;stroke:#0000ff;stroke-linecap:square;stroke-width:1.5;"/>
   </g>
   <g id="line2d_24">
    <path clip-path="url(#p28f5319f11)" d="M 73.832727 207.660349 
L 74.483338 210.387681 
L 75.133948 211.176792 
L 75.784558 221.726225 
L 76.435169 248.969396 
L 77.085779 242.438488 
L 77.736389 281.451213 
L 78.386999 223.420612 
L 79.03761 205.10167 
L 79.68822 206.502819 
L 80.33883 226.767617 
L 80.989441 185.742904 
L 81.640051 239.435344 
L 82.290661 243.910969 
L 82.941272 218.346409 
L 83.591882 234.575259 
L 84.242492 213.548101 
L 84.893103 216.328058 
L 85.543713 220.158707 
L 86.194323 256.030707 
L 86.844934 241.796579 
L 87.495544 199.214486 
L 88.146154 267.426038 
L 88.796764 228.143359 
L 89.447375 260.887667 
L 90.097985 188.749513 
L 90.748595 255.801816 
L 91.399206 231.565253 
L 92.049816 237.981239 
L 92.700426 266.818823 
L 93.351037 258.965131 
L 94.001647 260.331605 
L 94.652257 238.771892 
L 95.302868 252.552298 
L 95.953478 222.659249 
L 96.604088 264.630572 
L 97.254698 225.4983 
L 97.905309 257.377106 
L 98.555919 254.123281 
L 99.206529 230.281614 
L 99.85714 253.894677 
L 100.50775 240.575982 
L 101.15836 218.613737 
L 101.808971 240.138822 
L 102.459581 270.012114 
L 103.760802 239.209397 
L 105.062022 275.242281 
L 105.712633 268.477719 
L 106.363243 194.347333 
L 107.013853 260.661354 
L 107.664463 279.060255 
L 108.315074 194.836367 
L 108.965684 266.019225 
L 109.616294 295.488 
L 110.266905 255.816938 
L 110.917515 256.176812 
L 111.568125 210.06166 
L 112.218736 242.681045 
L 112.869346 257.493214 
L 113.519956 212.987615 
L 114.170567 240.585524 
L 114.821177 222.775288 
L 115.471787 220.999742 
L 116.122398 200.990398 
L 116.773008 232.404785 
L 117.423618 221.169592 
L 118.074228 216.153085 
L 118.724839 208.804906 
L 119.375449 198.585064 
L 120.026059 211.651718 
L 120.67667 229.156718 
L 121.32728 212.16952 
L 121.97789 210.668174 
L 123.279111 264.958999 
L 123.929721 240.262039 
L 124.580332 222.824547 
L 125.230942 194.108514 
L 125.881552 241.564169 
L 126.532163 228.856286 
L 127.182773 248.364305 
L 127.833383 259.683092 
L 128.483993 260.720852 
L 129.134604 235.073896 
L 129.785214 245.633069 
L 130.435824 228.743126 
L 131.086435 238.15434 
L 131.737045 267.666175 
L 132.387655 263.783424 
L 133.038266 261.301816 
L 133.688876 257.517553 
L 134.990097 238.567958 
L 135.640707 260.691481 
L 136.291317 243.27329 
L 136.941927 257.739726 
L 137.592538 248.251003 
L 138.893758 267.39812 
L 139.544369 220.933354 
L 140.194979 246.848039 
L 140.845589 256.076896 
L 141.4962 238.78672 
L 142.14681 242.592798 
L 142.79742 199.100599 
L 143.448031 242.01138 
L 144.098641 239.68881 
L 144.749251 225.633279 
L 145.399862 224.427075 
L 146.050472 211.766905 
L 146.701082 237.90242 
L 147.351692 248.035596 
L 148.002303 236.12305 
L 148.652913 243.329691 
L 149.303523 239.083261 
L 149.954134 206.278236 
L 150.604744 231.834115 
L 151.255354 238.60576 
L 151.905965 222.972375 
L 152.556575 212.014701 
L 153.207185 228.098378 
L 153.857796 213.210095 
L 154.508406 253.342992 
L 155.159016 215.983309 
L 155.809627 225.608014 
L 156.460237 231.332607 
L 157.110847 224.452979 
L 157.761457 190.334074 
L 158.412068 236.571989 
L 159.062678 231.673218 
L 159.713288 209.243685 
L 160.363899 204.95021 
L 161.014509 259.864492 
L 161.665119 200.27254 
L 162.31573 238.545487 
L 162.96634 252.339691 
L 163.61695 229.651071 
L 164.267561 218.777637 
L 164.918171 227.05441 
L 165.568781 220.208469 
L 166.219392 215.473546 
L 166.870002 237.135414 
L 167.520612 228.479969 
L 168.171222 204.371367 
L 168.821833 192.251903 
L 169.472443 240.513932 
L 170.123053 221.178637 
L 170.773664 216.454735 
L 171.424274 208.319528 
L 172.074884 234.542805 
L 172.725495 216.998346 
L 173.376105 229.401408 
L 174.026715 215.031858 
L 174.677326 254.67254 
L 175.327936 197.23093 
L 175.978546 221.331638 
L 176.629156 239.418636 
L 177.279767 240.385284 
L 177.930377 223.394827 
L 178.580987 238.253187 
L 179.231598 229.192324 
L 179.882208 245.739704 
L 180.532818 229.924242 
L 181.183429 224.258503 
L 181.834039 217.137361 
L 182.484649 266.783124 
L 183.13526 241.019791 
L 183.78587 192.268558 
L 184.43648 203.329557 
L 185.087091 256.072766 
L 185.737701 253.139468 
L 186.388311 227.464298 
L 187.038921 217.680464 
L 187.689532 247.739298 
L 188.340142 231.208951 
L 188.990752 249.467404 
L 189.641363 254.662773 
L 190.291973 243.982203 
L 190.942583 217.945569 
L 191.593194 258.013399 
L 192.243804 229.318529 
L 192.894414 231.770287 
L 193.545025 214.020355 
L 194.195635 228.591712 
L 194.846245 204.584703 
L 195.496856 212.715487 
L 196.147466 186.469591 
L 196.798076 228.852553 
L 197.448686 239.180249 
L 198.099297 223.629406 
L 198.749907 259.451304 
L 199.400517 212.722512 
L 200.051128 223.059753 
L 200.701738 207.60063 
L 201.352348 208.974763 
L 202.002959 225.162542 
L 202.653569 199.162724 
L 203.304179 230.035047 
L 203.95479 220.31419 
L 204.6054 223.784696 
L 205.25601 214.203587 
L 205.906621 211.059491 
L 206.557231 217.153744 
L 207.207841 198.582306 
L 207.858451 245.3998 
L 208.509062 202.405732 
L 209.159672 251.370537 
L 209.810282 234.94392 
L 210.460893 211.609195 
L 211.111503 234.125183 
L 211.762113 237.576712 
L 212.412724 223.570985 
L 213.063334 218.371445 
L 213.713944 231.861573 
L 214.364555 214.391564 
L 215.015165 208.69649 
L 215.665775 201.224343 
L 216.316385 224.376462 
L 216.966996 208.504231 
L 217.617606 221.931135 
L 218.268216 237.972475 
L 218.918827 207.437075 
L 219.569437 204.139024 
L 220.220047 190.668866 
L 220.870658 219.480789 
L 221.521268 218.263516 
L 222.171878 216.450819 
L 222.822489 227.349819 
L 223.473099 220.853477 
L 224.123709 240.149691 
L 224.77432 203.565203 
L 225.42493 226.311105 
L 226.07554 201.836712 
L 226.72615 229.144022 
L 227.376761 217.530602 
L 228.027371 229.947895 
L 228.677981 209.980868 
L 229.328592 208.429681 
L 229.979202 203.759851 
L 230.629812 212.930524 
L 231.280423 211.862648 
L 231.931033 242.903071 
L 232.581643 221.591486 
L 233.232254 235.660334 
L 233.882864 197.610085 
L 235.184085 266.404811 
L 235.834695 202.768061 
L 236.485305 206.870836 
L 237.135915 228.416379 
L 237.786526 218.196786 
L 238.437136 203.625617 
L 239.087746 195.298656 
L 239.738357 214.722034 
L 240.388967 201.467084 
L 241.039577 203.032498 
L 241.690188 230.969071 
L 242.340798 182.30432 
L 242.991408 233.035947 
L 243.642019 249.483341 
L 244.292629 178.140516 
L 244.943239 248.169292 
L 245.59385 226.301615 
L 246.24446 233.531675 
L 246.89507 188.01214 
L 247.54568 240.054194 
L 248.196291 245.407811 
L 248.846901 188.714326 
L 249.497511 251.368373 
L 250.148122 214.364962 
L 250.798732 235.580875 
L 252.099953 175.857762 
L 252.750563 204.988834 
L 254.051784 227.598692 
L 254.702394 247.002016 
L 255.353004 208.662155 
L 256.003615 213.716748 
L 256.654225 237.232239 
L 257.304835 244.569894 
L 257.955445 215.085494 
L 258.606056 225.937425 
L 259.256666 187.876497 
L 259.907276 217.543372 
L 260.557887 219.536256 
L 261.208497 243.310215 
L 261.859107 241.660644 
L 262.509718 232.125743 
L 263.160328 213.972692 
L 263.810938 228.133491 
L 264.461549 224.06058 
L 265.112159 240.557666 
L 265.762769 192.730786 
L 266.413379 243.182948 
L 267.06399 225.657022 
L 267.7146 213.063989 
L 268.36521 230.094716 
L 269.015821 203.096369 
L 269.666431 227.427727 
L 270.317041 262.208935 
L 270.967652 254.05683 
L 271.618262 212.064407 
L 272.268872 242.348827 
L 272.919483 205.993301 
L 273.570093 237.356153 
L 274.220703 213.953035 
L 274.871314 211.262768 
L 275.521924 216.105281 
L 276.172534 225.190183 
L 276.823144 221.813075 
L 277.473755 249.93907 
L 278.124365 227.960122 
L 278.774975 223.924713 
L 279.425586 222.954847 
L 280.076196 214.551219 
L 280.726806 267.202568 
L 281.377417 240.591028 
L 282.028027 219.182014 
L 282.678637 209.109757 
L 283.329248 225.346521 
L 283.979858 202.978347 
L 284.630468 214.720473 
L 285.281079 211.911983 
L 285.931689 196.5323 
L 286.582299 196.137895 
L 287.232909 190.944158 
L 287.88352 228.906902 
L 288.53413 239.921487 
L 289.18474 209.554468 
L 289.835351 211.190114 
L 290.485961 205.51145 
L 291.136571 218.665408 
L 291.787182 250.804738 
L 292.437792 209.454559 
L 293.088402 243.715691 
L 293.739013 204.014261 
L 294.389623 190.796609 
L 295.040233 263.837905 
L 295.690844 204.971812 
L 296.341454 213.734604 
L 296.992064 231.018467 
L 297.642674 188.688534 
L 298.293285 222.148533 
L 298.943895 218.50913 
L 299.594505 202.3008 
L 300.245116 223.025864 
L 300.895726 204.281753 
L 301.546336 212.869896 
L 302.196947 206.874587 
L 302.847557 220.323945 
L 303.498167 188.608584 
L 304.148778 260.519968 
L 304.799388 213.706212 
L 305.449998 184.322552 
L 306.100608 199.890077 
L 306.751219 200.414549 
L 307.401829 220.987119 
L 308.052439 227.057971 
L 308.70305 212.983163 
L 309.35366 207.774049 
L 310.00427 205.178281 
L 310.654881 250.830635 
L 311.305491 240.188084 
L 311.956101 218.614612 
L 312.606712 236.989966 
L 313.257322 239.956356 
L 313.907932 239.945204 
L 314.558543 217.337923 
L 315.209153 213.300924 
L 315.859763 235.612154 
L 316.510373 206.229323 
L 317.160984 197.580576 
L 317.811594 205.792667 
L 318.462204 230.019495 
L 319.112815 217.041115 
L 319.763425 211.702876 
L 320.414035 228.111203 
L 321.064646 196.910695 
L 321.715256 193.812115 
L 322.365866 205.090767 
L 323.016477 255.767145 
L 323.667087 218.192084 
L 324.317697 236.374473 
L 324.968308 216.892716 
L 325.618918 246.255272 
L 326.269528 234.052099 
L 326.920138 234.240791 
L 327.570749 212.209604 
L 328.221359 200.994825 
L 328.871969 210.502505 
L 329.52258 205.379246 
L 330.17319 201.209867 
L 330.8238 218.019912 
L 331.474411 199.988729 
L 332.125021 189.937037 
L 332.775631 194.357226 
L 333.426242 230.17033 
L 334.076852 221.471491 
L 334.727462 227.693389 
L 335.378073 200.167467 
L 336.028683 196.122052 
L 336.679293 205.19201 
L 337.329903 205.079661 
L 337.980514 227.234552 
L 338.631124 216.961672 
L 339.281734 218.003249 
L 339.932345 217.51201 
L 340.582955 221.236988 
L 341.233565 212.659603 
L 341.884176 263.823071 
L 342.534786 206.02906 
L 343.185396 219.563962 
L 343.836007 220.801804 
L 344.486617 212.311579 
L 345.137227 240.6187 
L 345.787837 202.250663 
L 346.438448 239.213627 
L 347.089058 222.044119 
L 347.739668 225.505846 
L 348.390279 212.875611 
L 349.040889 209.795784 
L 349.691499 221.814699 
L 350.34211 209.654927 
L 350.99272 213.321729 
L 351.64333 246.040703 
L 352.293941 235.119519 
L 352.944551 227.381184 
L 353.595161 202.736957 
L 354.245772 215.845574 
L 355.546992 224.837844 
L 356.197602 193.378124 
L 356.848213 200.420496 
L 357.498823 231.872497 
L 358.149433 218.20761 
L 358.800044 247.075382 
L 359.450654 235.708862 
L 360.101264 197.956751 
L 360.751875 219.745607 
L 361.402485 192.707455 
L 362.053095 228.034917 
L 362.703706 238.999411 
L 363.354316 217.058548 
L 364.004926 227.35042 
L 364.655537 219.42818 
L 365.306147 186.337795 
L 365.956757 210.421556 
L 366.607367 252.659366 
L 367.257978 230.203148 
L 367.908588 214.650164 
L 368.559198 187.63743 
L 369.209809 257.001345 
L 369.860419 219.291545 
L 370.511029 212.286967 
L 371.16164 236.807738 
L 371.81225 228.996489 
L 372.46286 231.460101 
L 373.113471 219.982298 
L 373.764081 201.74254 
L 374.414691 204.223201 
L 375.065302 250.239682 
L 375.715912 228.125497 
L 376.366522 237.233546 
L 377.017132 215.577288 
L 377.667743 227.978483 
L 378.318353 218.750561 
L 378.968963 224.264131 
L 379.619574 243.271496 
L 380.270184 199.927336 
L 381.571405 233.28494 
L 382.222015 234.240836 
L 382.872625 233.660118 
L 383.523236 239.057889 
L 384.173846 209.123829 
L 384.824456 212.011463 
L 385.475066 208.579646 
L 386.125677 237.953647 
L 386.776287 206.089932 
L 387.426897 241.698301 
L 388.077508 206.39748 
L 388.728118 239.586979 
L 389.378728 280.163714 
L 390.029339 176.816094 
L 391.330559 251.637585 
L 391.98117 223.458509 
L 392.63178 220.430485 
L 393.28239 246.064138 
L 393.933001 241.991582 
L 394.583611 220.275072 
L 395.234221 215.85335 
L 395.884831 197.81531 
L 397.186052 235.621046 
L 397.836662 199.313148 
L 398.487273 216.76038 
L 398.487273 216.76038 
" style="fill:none;stroke:#008000;stroke-dasharray:9.6,2.4,1.5,2.4;stroke-dashoffset:0;stroke-width:1.5;"/>
   </g>
   <g id="line2d_25">
    <path clip-path="url(#p28f5319f11)" d="M 73.832727 103.104824 
L 74.483338 75.206182 
L 75.133948 83.505834 
L 75.784558 75.945467 
L 76.435169 59.576934 
L 77.085779 74.869446 
L 77.736389 83.120142 
L 78.386999 86.519727 
L 79.03761 86.543571 
L 79.68822 67.655502 
L 80.33883 72.405833 
L 80.989441 89.975008 
L 81.640051 76.944826 
L 82.290661 69.846614 
L 82.941272 73.777883 
L 83.591882 87.017489 
L 84.242492 63.687865 
L 84.893103 75.975757 
L 85.543713 72.247792 
L 86.194323 76.579036 
L 86.844934 78.049548 
L 87.495544 80.026985 
L 88.146154 66.217499 
L 88.796764 76.468747 
L 89.447375 58.782349 
L 90.097985 70.290514 
L 90.748595 58.931511 
L 91.399206 72.012545 
L 92.049816 82.201912 
L 92.700426 77.658755 
L 93.351037 75.447493 
L 94.001647 68.805837 
L 94.652257 72.571815 
L 95.302868 79.195338 
L 95.953478 71.59669 
L 96.604088 74.926014 
L 97.254698 82.673947 
L 97.905309 69.653551 
L 98.555919 73.178177 
L 99.206529 82.55451 
L 99.85714 74.954702 
L 100.50775 73.608257 
L 101.15836 75.401589 
L 101.808971 72.701417 
L 102.459581 67.168321 
L 103.110191 73.056639 
L 103.760802 93.830453 
L 104.411412 69.678361 
L 105.062022 69.377125 
L 105.712633 63.903598 
L 106.363243 70.843093 
L 107.013853 71.915183 
L 107.664463 56.196818 
L 108.315074 85.754813 
L 108.965684 59.488463 
L 109.616294 57.453746 
L 110.266905 68.692355 
L 110.917515 59.654247 
L 111.568125 71.217242 
L 112.218736 61.842932 
L 112.869346 62.235973 
L 113.519956 67.711155 
L 114.170567 79.797015 
L 114.821177 70.976874 
L 115.471787 64.107918 
L 116.122398 79.643908 
L 116.773008 68.3609 
L 118.074228 71.866573 
L 118.724839 78.450244 
L 119.375449 72.279566 
L 120.026059 76.468415 
L 120.67667 70.926531 
L 121.32728 71.815434 
L 121.97789 83.909182 
L 122.628501 68.466211 
L 123.279111 68.778049 
L 123.929721 60.23496 
L 124.580332 72.888308 
L 125.230942 75.116061 
L 125.881552 69.091872 
L 126.532163 88.191143 
L 127.182773 71.068932 
L 127.833383 68.759274 
L 128.483993 74.724477 
L 129.134604 70.667922 
L 129.785214 76.786029 
L 130.435824 80.363425 
L 131.086435 68.890294 
L 131.737045 66.011635 
L 132.387655 67.231643 
L 133.038266 67.656071 
L 133.688876 73.63317 
L 134.339486 65.870426 
L 134.990097 73.379792 
L 135.640707 68.889658 
L 136.291317 71.571242 
L 136.941927 78.7307 
L 137.592538 67.62826 
L 138.243148 75.504941 
L 138.893758 57.818343 
L 139.544369 80.686994 
L 140.194979 70.757559 
L 140.845589 70.470806 
L 141.4962 67.467726 
L 142.14681 62.44344 
L 142.79742 71.251431 
L 143.448031 64.479603 
L 144.098641 73.815594 
L 144.749251 67.310131 
L 145.399862 68.369741 
L 146.050472 78.928441 
L 146.701082 68.408668 
L 147.351692 55.774456 
L 148.002303 70.529405 
L 148.652913 64.951613 
L 149.303523 78.768199 
L 149.954134 71.677175 
L 150.604744 73.31221 
L 151.255354 64.597558 
L 151.905965 71.011057 
L 152.556575 72.422099 
L 153.207185 69.17076 
L 153.857796 81.90509 
L 154.508406 73.224855 
L 155.159016 68.12024 
L 155.809627 66.934269 
L 156.460237 72.144093 
L 157.110847 65.78261 
L 157.761457 86.237815 
L 158.412068 69.522506 
L 159.062678 67.015169 
L 159.713288 72.351557 
L 160.363899 68.767619 
L 161.014509 58.087575 
L 161.665119 76.254974 
L 162.96634 62.006912 
L 163.61695 72.838135 
L 164.267561 72.836332 
L 164.918171 73.965776 
L 165.568781 78.151587 
L 166.219392 73.923377 
L 166.870002 68.255631 
L 167.520612 66.704723 
L 168.171222 78.615037 
L 168.821833 77.393812 
L 169.472443 78.937929 
L 170.123053 66.968888 
L 170.773664 68.00622 
L 171.424274 75.447562 
L 172.074884 70.098529 
L 172.725495 79.563539 
L 173.376105 65.111007 
L 174.026715 70.580811 
L 174.677326 63.616398 
L 175.327936 83.412582 
L 175.978546 64.203409 
L 176.629156 76.731496 
L 177.279767 69.926851 
L 177.930377 79.059091 
L 178.580987 69.194489 
L 179.231598 78.423955 
L 179.882208 65.363471 
L 180.532818 65.17801 
L 181.183429 68.551503 
L 181.834039 62.700977 
L 182.484649 63.151893 
L 183.13526 71.013245 
L 183.78587 76.594938 
L 184.43648 79.9224 
L 185.087091 64.923561 
L 185.737701 75.21771 
L 186.388311 69.329275 
L 187.038921 85.393738 
L 187.689532 58.568949 
L 188.340142 61.17449 
L 188.990752 62.034274 
L 189.641363 66.049733 
L 190.291973 76.025541 
L 190.942583 72.942194 
L 191.593194 64.914954 
L 192.243804 68.664351 
L 192.894414 63.755572 
L 193.545025 70.544717 
L 194.195635 67.676875 
L 194.846245 70.762824 
L 195.496856 81.805929 
L 196.798076 69.728253 
L 197.448686 67.83378 
L 198.099297 70.856572 
L 198.749907 60.31975 
L 199.400517 74.023724 
L 200.051128 74.581109 
L 200.701738 71.040819 
L 201.352348 76.739437 
L 202.002959 60.148345 
L 202.653569 75.867438 
L 203.304179 67.338918 
L 203.95479 73.692359 
L 204.6054 66.526251 
L 205.25601 66.532068 
L 205.906621 78.712772 
L 206.557231 74.858632 
L 207.207841 80.107517 
L 207.858451 74.599056 
L 208.509062 74.90603 
L 209.159672 70.546418 
L 209.810282 70.548688 
L 210.460893 68.946715 
L 211.111503 68.80959 
L 212.412724 76.021923 
L 213.063334 77.229457 
L 213.713944 63.281284 
L 214.364555 70.836828 
L 215.015165 69.086304 
L 215.665775 79.43606 
L 216.316385 64.837141 
L 216.966996 80.01508 
L 217.617606 64.106833 
L 218.268216 64.011855 
L 218.918827 60.810504 
L 219.569437 70.452752 
L 220.220047 74.238539 
L 220.870658 67.883479 
L 221.521268 71.748847 
L 222.171878 69.15499 
L 222.822489 61.394688 
L 223.473099 68.301066 
L 224.123709 71.181708 
L 224.77432 68.229361 
L 225.42493 67.403759 
L 226.07554 71.325632 
L 226.72615 67.587965 
L 227.376761 70.305108 
L 228.027371 69.94464 
L 228.677981 67.355254 
L 229.328592 77.422181 
L 229.979202 75.822652 
L 230.629812 71.916751 
L 231.280423 71.418859 
L 231.931033 54.692137 
L 232.581643 67.506618 
L 233.232254 57.618699 
L 233.882864 79.219732 
L 234.533474 72.074008 
L 235.184085 63.694547 
L 235.834695 78.538133 
L 236.485305 68.461452 
L 237.135915 66.915844 
L 237.786526 66.59531 
L 238.437136 80.607133 
L 239.087746 87.2995 
L 239.738357 74.251297 
L 240.388967 69.665193 
L 241.039577 66.527381 
L 241.690188 67.928198 
L 242.340798 74.594034 
L 242.991408 78.521156 
L 243.642019 65.434471 
L 244.292629 82.687795 
L 244.943239 63.851823 
L 245.59385 65.855077 
L 246.24446 63.211121 
L 246.89507 75.661139 
L 247.54568 58.137085 
L 248.196291 64.357841 
L 248.846901 80.02169 
L 249.497511 64.367518 
L 250.148122 69.856711 
L 250.798732 71.38536 
L 252.099953 79.937327 
L 252.750563 69.061972 
L 253.401173 67.821484 
L 254.051784 64.792985 
L 254.702394 66.717073 
L 255.353004 78.375976 
L 256.003615 76.224523 
L 256.654225 63.941491 
L 257.304835 61.846383 
L 257.955445 75.183429 
L 258.606056 73.773894 
L 259.256666 73.44742 
L 259.907276 70.078687 
L 260.557887 75.969478 
L 261.208497 69.901052 
L 261.859107 68.807931 
L 262.509718 64.591595 
L 263.160328 74.903899 
L 263.810938 62.255068 
L 264.461549 63.75703 
L 265.112159 71.829208 
L 265.762769 75.400923 
L 266.413379 64.359991 
L 267.06399 71.432809 
L 267.7146 58.949708 
L 268.36521 65.198023 
L 269.015821 79.013676 
L 269.666431 58.929525 
L 270.317041 65.834152 
L 270.967652 61.938318 
L 271.618262 60.955002 
L 272.268872 62.856721 
L 272.919483 70.296015 
L 273.570093 62.864274 
L 274.220703 82.326448 
L 274.871314 71.962315 
L 275.521924 72.356985 
L 276.172534 64.647453 
L 276.823144 65.697071 
L 277.473755 70.799213 
L 278.124365 68.132216 
L 278.774975 73.412019 
L 279.425586 75.941827 
L 280.076196 65.903858 
L 280.726806 63.703551 
L 281.377417 63.423781 
L 282.678637 73.305192 
L 283.329248 62.119052 
L 283.979858 70.812693 
L 284.630468 69.0005 
L 285.281079 75.168341 
L 285.931689 68.865666 
L 287.232909 76.640465 
L 287.88352 65.338529 
L 288.53413 68.687525 
L 289.18474 73.836047 
L 289.835351 68.313798 
L 290.485961 68.263489 
L 291.136571 68.641557 
L 291.787182 65.637761 
L 293.088402 68.934358 
L 293.739013 76.739405 
L 294.389623 72.778611 
L 295.040233 62.429657 
L 295.690844 72.008579 
L 296.992064 57.916272 
L 297.642674 79.828474 
L 298.293285 73.973227 
L 298.943895 60.594877 
L 299.594505 74.547255 
L 300.245116 59.408074 
L 300.895726 66.831717 
L 301.546336 66.4288 
L 302.196947 64.784299 
L 302.847557 66.505421 
L 303.498167 72.964501 
L 304.148778 64.160019 
L 304.799388 73.247592 
L 305.449998 74.480432 
L 306.100608 81.438262 
L 306.751219 73.498941 
L 307.401829 74.18618 
L 308.052439 72.833827 
L 308.70305 74.85441 
L 309.35366 76.022197 
L 310.00427 69.730883 
L 310.654881 67.430897 
L 311.305491 57.172833 
L 311.956101 74.053204 
L 312.606712 61.548812 
L 313.257322 65.012273 
L 313.907932 64.268478 
L 314.558543 67.295191 
L 315.209153 75.704137 
L 315.859763 64.961476 
L 316.510373 69.490798 
L 317.160984 79.66673 
L 318.462204 56.414787 
L 319.112815 68.560057 
L 319.763425 69.08678 
L 320.414035 64.287333 
L 321.064646 82.051258 
L 321.715256 74.854046 
L 322.365866 71.754104 
L 323.016477 65.802705 
L 323.667087 64.933217 
L 324.317697 71.335757 
L 324.968308 65.482342 
L 325.618918 65.375832 
L 326.269528 75.018002 
L 326.920138 56.607843 
L 327.570749 76.140071 
L 328.221359 78.614154 
L 328.871969 63.546149 
L 329.52258 69.552758 
L 330.17319 81.966625 
L 330.8238 66.379328 
L 331.474411 82.551979 
L 332.125021 86.818823 
L 332.775631 76.322592 
L 334.076852 62.84579 
L 334.727462 53.568 
L 335.378073 68.754624 
L 336.028683 73.618549 
L 336.679293 70.25558 
L 337.329903 72.687738 
L 337.980514 64.680074 
L 338.631124 74.828508 
L 339.281734 69.616308 
L 339.932345 71.271133 
L 340.582955 62.871321 
L 341.233565 65.883403 
L 341.884176 57.892425 
L 342.534786 69.56261 
L 343.185396 69.817661 
L 343.836007 78.656585 
L 344.486617 73.788607 
L 345.137227 79.774547 
L 345.787837 69.979927 
L 346.438448 66.371947 
L 347.089058 71.216683 
L 347.739668 71.286398 
L 348.390279 73.105357 
L 349.040889 63.002083 
L 349.691499 72.451805 
L 350.34211 62.20222 
L 350.99272 68.134077 
L 351.64333 60.597033 
L 352.293941 69.274813 
L 352.944551 69.571929 
L 353.595161 73.590397 
L 354.245772 70.161587 
L 354.896382 60.772706 
L 355.546992 68.453777 
L 356.197602 74.603892 
L 356.848213 77.65076 
L 357.498823 79.184269 
L 358.149433 68.53404 
L 358.800044 60.162668 
L 359.450654 61.461958 
L 360.101264 74.72849 
L 360.751875 63.471231 
L 361.402485 73.608646 
L 362.053095 61.20497 
L 362.703706 66.91651 
L 363.354316 61.736158 
L 364.004926 69.726895 
L 364.655537 70.597345 
L 365.306147 77.084046 
L 366.607367 62.066823 
L 367.257978 60.127339 
L 367.908588 71.482472 
L 368.559198 87.121045 
L 369.209809 61.048153 
L 369.860419 64.601148 
L 370.511029 54.665887 
L 371.16164 56.335427 
L 371.81225 67.376738 
L 372.46286 73.823713 
L 373.113471 73.102757 
L 373.764081 71.195043 
L 374.414691 79.256881 
L 375.715912 60.240923 
L 376.366522 68.257558 
L 377.017132 65.354914 
L 377.667743 66.151206 
L 378.318353 63.103267 
L 378.968963 68.519455 
L 379.619574 61.86916 
L 380.270184 73.126879 
L 380.920794 62.613644 
L 381.571405 85.26367 
L 382.222015 65.385647 
L 382.872625 71.370913 
L 383.523236 74.903756 
L 384.173846 66.511827 
L 384.824456 70.48161 
L 385.475066 68.43938 
L 386.125677 69.67641 
L 386.776287 77.190848 
L 387.426897 69.654066 
L 388.077508 74.756966 
L 388.728118 65.691139 
L 389.378728 63.666818 
L 390.029339 79.995296 
L 390.679949 71.263509 
L 391.330559 66.263137 
L 391.98117 76.905535 
L 392.63178 72.140537 
L 393.28239 68.693318 
L 393.933001 69.907355 
L 394.583611 73.28042 
L 395.234221 73.955004 
L 395.884831 79.488585 
L 396.535442 74.701607 
L 397.186052 67.33973 
L 397.836662 81.762799 
L 398.487273 76.614249 
L 398.487273 76.614249 
" style="fill:none;stroke:#008000;stroke-dasharray:9.6,2.4,1.5,2.4;stroke-dashoffset:0;stroke-width:1.5;"/>
   </g>
   <g id="line2d_26">
    <path clip-path="url(#p28f5319f11)" d="M 73.832727 96.684448 
L 74.483338 95.913353 
L 75.784558 92.685856 
L 101.808971 92.685856 
L 102.459581 92.563159 
L 124.580332 92.512018 
L 125.881552 92.44827 
L 170.773664 92.360448 
L 172.725495 92.323159 
L 193.545025 92.240947 
L 194.195635 92.046814 
L 398.487273 91.939091 
L 398.487273 91.939091 
" style="fill:none;stroke:#ff0000;stroke-linecap:square;stroke-width:1.5;"/>
   </g>
   <g id="patch_3">
    <path d="M 57.6 307.584 
L 57.6 41.472 
" style="fill:none;stroke:#000000;stroke-linecap:square;stroke-linejoin:miter;stroke-width:0.8;"/>
   </g>
   <g id="patch_4">
    <path d="M 414.72 307.584 
L 414.72 41.472 
" style="fill:none;stroke:#000000;stroke-linecap:square;stroke-linejoin:miter;stroke-width:0.8;"/>
   </g>
   <g id="patch_5">
    <path d="M 57.6 307.584 
L 414.72 307.584 
" style="fill:none;stroke:#000000;stroke-linecap:square;stroke-linejoin:miter;stroke-width:0.8;"/>
   </g>
   <g id="patch_6">
    <path d="M 57.6 41.472 
L 414.72 41.472 
" style="fill:none;stroke:#000000;stroke-linecap:square;stroke-linejoin:miter;stroke-width:0.8;"/>
   </g>
   <g id="text_14">
    <!-- Population's average and best fitness -->
    <defs>
     <path d="M 19.671875 64.796875 
L 19.671875 37.40625 
L 32.078125 37.40625 
Q 38.96875 37.40625 42.71875 40.96875 
Q 46.484375 44.53125 46.484375 51.125 
Q 46.484375 57.671875 42.71875 61.234375 
Q 38.96875 64.796875 32.078125 64.796875 
z
M 9.8125 72.90625 
L 32.078125 72.90625 
Q 44.34375 72.90625 50.609375 67.359375 
Q 56.890625 61.8125 56.890625 51.125 
Q 56.890625 40.328125 50.609375 34.8125 
Q 44.34375 29.296875 32.078125 29.296875 
L 19.671875 29.296875 
L 19.671875 0 
L 9.8125 0 
z
" id="DejaVuSans-80"/>
     <path d="M 18.109375 8.203125 
L 18.109375 -20.796875 
L 9.078125 -20.796875 
L 9.078125 54.6875 
L 18.109375 54.6875 
L 18.109375 46.390625 
Q 20.953125 51.265625 25.265625 53.625 
Q 29.59375 56 35.59375 56 
Q 45.5625 56 51.78125 48.09375 
Q 58.015625 40.1875 58.015625 27.296875 
Q 58.015625 14.40625 51.78125 6.484375 
Q 45.5625 -1.421875 35.59375 -1.421875 
Q 29.59375 -1.421875 25.265625 0.953125 
Q 20.953125 3.328125 18.109375 8.203125 
z
M 48.6875 27.296875 
Q 48.6875 37.203125 44.609375 42.84375 
Q 40.53125 48.484375 33.40625 48.484375 
Q 26.265625 48.484375 22.1875 42.84375 
Q 18.109375 37.203125 18.109375 27.296875 
Q 18.109375 17.390625 22.1875 11.75 
Q 26.265625 6.109375 33.40625 6.109375 
Q 40.53125 6.109375 44.609375 11.75 
Q 48.6875 17.390625 48.6875 27.296875 
z
" id="DejaVuSans-112"/>
     <path d="M 8.5 21.578125 
L 8.5 54.6875 
L 17.484375 54.6875 
L 17.484375 21.921875 
Q 17.484375 14.15625 20.5 10.265625 
Q 23.53125 6.390625 29.59375 6.390625 
Q 36.859375 6.390625 41.078125 11.03125 
Q 45.3125 15.671875 45.3125 23.6875 
L 45.3125 54.6875 
L 54.296875 54.6875 
L 54.296875 0 
L 45.3125 0 
L 45.3125 8.40625 
Q 42.046875 3.421875 37.71875 1 
Q 33.40625 -1.421875 27.6875 -1.421875 
Q 18.265625 -1.421875 13.375 4.4375 
Q 8.5 10.296875 8.5 21.578125 
z
M 31.109375 56 
z
" id="DejaVuSans-117"/>
     <path d="M 9.421875 75.984375 
L 18.40625 75.984375 
L 18.40625 0 
L 9.421875 0 
z
" id="DejaVuSans-108"/>
     <path d="M 17.921875 72.90625 
L 17.921875 45.796875 
L 9.625 45.796875 
L 9.625 72.90625 
z
" id="DejaVuSans-39"/>
     <path id="DejaVuSans-32"/>
     <path d="M 2.984375 54.6875 
L 12.5 54.6875 
L 29.59375 8.796875 
L 46.6875 54.6875 
L 56.203125 54.6875 
L 35.6875 0 
L 23.484375 0 
z
" id="DejaVuSans-118"/>
     <path d="M 45.40625 27.984375 
Q 45.40625 37.75 41.375 43.109375 
Q 37.359375 48.484375 30.078125 48.484375 
Q 22.859375 48.484375 18.828125 43.109375 
Q 14.796875 37.75 14.796875 27.984375 
Q 14.796875 18.265625 18.828125 12.890625 
Q 22.859375 7.515625 30.078125 7.515625 
Q 37.359375 7.515625 41.375 12.890625 
Q 45.40625 18.265625 45.40625 27.984375 
z
M 54.390625 6.78125 
Q 54.390625 -7.171875 48.1875 -13.984375 
Q 42 -20.796875 29.203125 -20.796875 
Q 24.46875 -20.796875 20.265625 -20.09375 
Q 16.0625 -19.390625 12.109375 -17.921875 
L 12.109375 -9.1875 
Q 16.0625 -11.328125 19.921875 -12.34375 
Q 23.78125 -13.375 27.78125 -13.375 
Q 36.625 -13.375 41.015625 -8.765625 
Q 45.40625 -4.15625 45.40625 5.171875 
L 45.40625 9.625 
Q 42.625 4.78125 38.28125 2.390625 
Q 33.9375 0 27.875 0 
Q 17.828125 0 11.671875 7.65625 
Q 5.515625 15.328125 5.515625 27.984375 
Q 5.515625 40.671875 11.671875 48.328125 
Q 17.828125 56 27.875 56 
Q 33.9375 56 38.28125 53.609375 
Q 42.625 51.21875 45.40625 46.390625 
L 45.40625 54.6875 
L 54.390625 54.6875 
z
" id="DejaVuSans-103"/>
     <path d="M 45.40625 46.390625 
L 45.40625 75.984375 
L 54.390625 75.984375 
L 54.390625 0 
L 45.40625 0 
L 45.40625 8.203125 
Q 42.578125 3.328125 38.25 0.953125 
Q 33.9375 -1.421875 27.875 -1.421875 
Q 17.96875 -1.421875 11.734375 6.484375 
Q 5.515625 14.40625 5.515625 27.296875 
Q 5.515625 40.1875 11.734375 48.09375 
Q 17.96875 56 27.875 56 
Q 33.9375 56 38.25 53.625 
Q 42.578125 51.265625 45.40625 46.390625 
z
M 14.796875 27.296875 
Q 14.796875 17.390625 18.875 11.75 
Q 22.953125 6.109375 30.078125 6.109375 
Q 37.203125 6.109375 41.296875 11.75 
Q 45.40625 17.390625 45.40625 27.296875 
Q 45.40625 37.203125 41.296875 42.84375 
Q 37.203125 48.484375 30.078125 48.484375 
Q 22.953125 48.484375 18.875 42.84375 
Q 14.796875 37.203125 14.796875 27.296875 
z
" id="DejaVuSans-100"/>
     <path d="M 48.6875 27.296875 
Q 48.6875 37.203125 44.609375 42.84375 
Q 40.53125 48.484375 33.40625 48.484375 
Q 26.265625 48.484375 22.1875 42.84375 
Q 18.109375 37.203125 18.109375 27.296875 
Q 18.109375 17.390625 22.1875 11.75 
Q 26.265625 6.109375 33.40625 6.109375 
Q 40.53125 6.109375 44.609375 11.75 
Q 48.6875 17.390625 48.6875 27.296875 
z
M 18.109375 46.390625 
Q 20.953125 51.265625 25.265625 53.625 
Q 29.59375 56 35.59375 56 
Q 45.5625 56 51.78125 48.09375 
Q 58.015625 40.1875 58.015625 27.296875 
Q 58.015625 14.40625 51.78125 6.484375 
Q 45.5625 -1.421875 35.59375 -1.421875 
Q 29.59375 -1.421875 25.265625 0.953125 
Q 20.953125 3.328125 18.109375 8.203125 
L 18.109375 0 
L 9.078125 0 
L 9.078125 75.984375 
L 18.109375 75.984375 
z
" id="DejaVuSans-98"/>
     <path d="M 37.109375 75.984375 
L 37.109375 68.5 
L 28.515625 68.5 
Q 23.6875 68.5 21.796875 66.546875 
Q 19.921875 64.59375 19.921875 59.515625 
L 19.921875 54.6875 
L 34.71875 54.6875 
L 34.71875 47.703125 
L 19.921875 47.703125 
L 19.921875 0 
L 10.890625 0 
L 10.890625 47.703125 
L 2.296875 47.703125 
L 2.296875 54.6875 
L 10.890625 54.6875 
L 10.890625 58.5 
Q 10.890625 67.625 15.140625 71.796875 
Q 19.390625 75.984375 28.609375 75.984375 
z
" id="DejaVuSans-102"/>
    </defs>
    <g transform="translate(123.315 35.472)scale(0.12 -0.12)">
     <use xlink:href="#DejaVuSans-80"/>
     <use x="60.255859" xlink:href="#DejaVuSans-111"/>
     <use x="121.4375" xlink:href="#DejaVuSans-112"/>
     <use x="184.914062" xlink:href="#DejaVuSans-117"/>
     <use x="248.292969" xlink:href="#DejaVuSans-108"/>
     <use x="276.076172" xlink:href="#DejaVuSans-97"/>
     <use x="337.355469" xlink:href="#DejaVuSans-116"/>
     <use x="376.564453" xlink:href="#DejaVuSans-105"/>
     <use x="404.347656" xlink:href="#DejaVuSans-111"/>
     <use x="465.529297" xlink:href="#DejaVuSans-110"/>
     <use x="528.908203" xlink:href="#DejaVuSans-39"/>
     <use x="556.398438" xlink:href="#DejaVuSans-115"/>
     <use x="608.498047" xlink:href="#DejaVuSans-32"/>
     <use x="640.285156" xlink:href="#DejaVuSans-97"/>
     <use x="701.564453" xlink:href="#DejaVuSans-118"/>
     <use x="760.744141" xlink:href="#DejaVuSans-101"/>
     <use x="822.267578" xlink:href="#DejaVuSans-114"/>
     <use x="863.380859" xlink:href="#DejaVuSans-97"/>
     <use x="924.660156" xlink:href="#DejaVuSans-103"/>
     <use x="988.136719" xlink:href="#DejaVuSans-101"/>
     <use x="1049.660156" xlink:href="#DejaVuSans-32"/>
     <use x="1081.447266" xlink:href="#DejaVuSans-97"/>
     <use x="1142.726562" xlink:href="#DejaVuSans-110"/>
     <use x="1206.105469" xlink:href="#DejaVuSans-100"/>
     <use x="1269.582031" xlink:href="#DejaVuSans-32"/>
     <use x="1301.369141" xlink:href="#DejaVuSans-98"/>
     <use x="1364.845703" xlink:href="#DejaVuSans-101"/>
     <use x="1426.369141" xlink:href="#DejaVuSans-115"/>
     <use x="1478.46875" xlink:href="#DejaVuSans-116"/>
     <use x="1517.677734" xlink:href="#DejaVuSans-32"/>
     <use x="1549.464844" xlink:href="#DejaVuSans-102"/>
     <use x="1584.669922" xlink:href="#DejaVuSans-105"/>
     <use x="1612.453125" xlink:href="#DejaVuSans-116"/>
     <use x="1651.662109" xlink:href="#DejaVuSans-110"/>
     <use x="1715.041016" xlink:href="#DejaVuSans-101"/>
     <use x="1776.564453" xlink:href="#DejaVuSans-115"/>
     <use x="1828.664062" xlink:href="#DejaVuSans-115"/>
    </g>
   </g>
   <g id="legend_1">
    <g id="patch_7">
     <path d="M 334.779375 302.584 
L 407.72 302.584 
Q 409.72 302.584 409.72 300.584 
L 409.72 242.8715 
Q 409.72 240.8715 407.72 240.8715 
L 334.779375 240.8715 
Q 332.779375 240.8715 332.779375 242.8715 
L 332.779375 300.584 
Q 332.779375 302.584 334.779375 302.584 
z
" style="fill:#ffffff;opacity:0.8;stroke:#cccccc;stroke-linejoin:miter;"/>
    </g>
    <g id="line2d_27">
     <path d="M 336.779375 248.969937 
L 356.779375 248.969937 
" style="fill:none;stroke:#0000ff;stroke-linecap:square;stroke-width:1.5;"/>
    </g>
    <g id="line2d_28"/>
    <g id="text_15">
     <!-- average -->
     <g transform="translate(364.779375 252.469937)scale(0.1 -0.1)">
      <use xlink:href="#DejaVuSans-97"/>
      <use x="61.279297" xlink:href="#DejaVuSans-118"/>
      <use x="120.458984" xlink:href="#DejaVuSans-101"/>
      <use x="181.982422" xlink:href="#DejaVuSans-114"/>
      <use x="223.095703" xlink:href="#DejaVuSans-97"/>
      <use x="284.375" xlink:href="#DejaVuSans-103"/>
      <use x="347.851562" xlink:href="#DejaVuSans-101"/>
     </g>
    </g>
    <g id="line2d_29">
     <path d="M 336.779375 263.648062 
L 356.779375 263.648062 
" style="fill:none;stroke:#008000;stroke-dasharray:9.6,2.4,1.5,2.4;stroke-dashoffset:0;stroke-width:1.5;"/>
    </g>
    <g id="line2d_30"/>
    <g id="text_16">
     <!-- -1 sd -->
     <defs>
      <path d="M 4.890625 31.390625 
L 31.203125 31.390625 
L 31.203125 23.390625 
L 4.890625 23.390625 
z
" id="DejaVuSans-45"/>
     </defs>
     <g transform="translate(364.779375 267.148062)scale(0.1 -0.1)">
      <use xlink:href="#DejaVuSans-45"/>
      <use x="36.083984" xlink:href="#DejaVuSans-49"/>
      <use x="99.707031" xlink:href="#DejaVuSans-32"/>
      <use x="131.494141" xlink:href="#DejaVuSans-115"/>
      <use x="183.59375" xlink:href="#DejaVuSans-100"/>
     </g>
    </g>
    <g id="line2d_31">
     <path d="M 336.779375 278.326187 
L 356.779375 278.326187 
" style="fill:none;stroke:#008000;stroke-dasharray:9.6,2.4,1.5,2.4;stroke-dashoffset:0;stroke-width:1.5;"/>
    </g>
    <g id="line2d_32"/>
    <g id="text_17">
     <!-- +1 sd -->
     <defs>
      <path d="M 46 62.703125 
L 46 35.5 
L 73.1875 35.5 
L 73.1875 27.203125 
L 46 27.203125 
L 46 0 
L 37.796875 0 
L 37.796875 27.203125 
L 10.59375 27.203125 
L 10.59375 35.5 
L 37.796875 35.5 
L 37.796875 62.703125 
z
" id="DejaVuSans-43"/>
     </defs>
     <g transform="translate(364.779375 281.826187)scale(0.1 -0.1)">
      <use xlink:href="#DejaVuSans-43"/>
      <use x="83.789062" xlink:href="#DejaVuSans-49"/>
      <use x="147.412109" xlink:href="#DejaVuSans-32"/>
      <use x="179.199219" xlink:href="#DejaVuSans-115"/>
      <use x="231.298828" xlink:href="#DejaVuSans-100"/>
     </g>
    </g>
    <g id="line2d_33">
     <path d="M 336.779375 293.004312 
L 356.779375 293.004312 
" style="fill:none;stroke:#ff0000;stroke-linecap:square;stroke-width:1.5;"/>
    </g>
    <g id="line2d_34"/>
    <g id="text_18">
     <!-- best -->
     <g transform="translate(364.779375 296.504312)scale(0.1 -0.1)">
      <use xlink:href="#DejaVuSans-98"/>
      <use x="63.476562" xlink:href="#DejaVuSans-101"/>
      <use x="125" xlink:href="#DejaVuSans-115"/>
      <use x="177.099609" xlink:href="#DejaVuSans-116"/>
     </g>
    </g>
   </g>
  </g>
 </g>
 <defs>
  <clipPath id="p28f5319f11">
   <rect height="266.112" width="357.12" x="57.6" y="41.472"/>
  </clipPath>
 </defs>
</svg>
