<?xml version="1.0" encoding="utf-8" standalone="no"?>
<!DOCTYPE svg PUBLIC "-//W3C//DTD SVG 1.1//EN"
  "http://www.w3.org/Graphics/SVG/1.1/DTD/svg11.dtd">
<!-- Created with matplotlib (https://matplotlib.org/) -->
<svg height="345.6pt" version="1.1" viewBox="0 0 460.8 345.6" width="460.8pt" xmlns="http://www.w3.org/2000/svg" xmlns:xlink="http://www.w3.org/1999/xlink">
 <defs>
  <style type="text/css">
*{stroke-linecap:butt;stroke-linejoin:round;}
  </style>
 </defs>
 <g id="figure_1">
  <g id="patch_1">
   <path d="M 0 345.6 
L 460.8 345.6 
L 460.8 0 
L 0 0 
z
" style="fill:#ffffff;"/>
  </g>
  <g id="axes_1">
   <g id="patch_2">
    <path d="M 57.6 307.584 
L 414.72 307.584 
L 414.72 41.472 
L 57.6 41.472 
z
" style="fill:#ffffff;"/>
   </g>
   <g id="matplotlib.axis_1">
    <g id="xtick_1">
     <g id="line2d_1">
      <path clip-path="url(#p1f2cf2dd52)" d="M 73.832727 307.584 
L 73.832727 41.472 
" style="fill:none;stroke:#b0b0b0;stroke-linecap:square;stroke-width:0.8;"/>
     </g>
     <g id="line2d_2">
      <defs>
       <path d="M 0 0 
L 0 3.5 
" id="mbae07068a7" style="stroke:#000000;stroke-width:0.8;"/>
      </defs>
      <g>
       <use style="stroke:#000000;stroke-width:0.8;" x="73.832727" xlink:href="#mbae07068a7" y="307.584"/>
      </g>
     </g>
     <g id="text_1">
      <!-- 0 -->
      <defs>
       <path d="M 31.78125 66.40625 
Q 24.171875 66.40625 20.328125 58.90625 
Q 16.5 51.421875 16.5 36.375 
Q 16.5 21.390625 20.328125 13.890625 
Q 24.171875 6.390625 31.78125 6.390625 
Q 39.453125 6.390625 43.28125 13.890625 
Q 47.125 21.390625 47.125 36.375 
Q 47.125 51.421875 43.28125 58.90625 
Q 39.453125 66.40625 31.78125 66.40625 
z
M 31.78125 74.21875 
Q 44.046875 74.21875 50.515625 64.515625 
Q 56.984375 54.828125 56.984375 36.375 
Q 56.984375 17.96875 50.515625 8.265625 
Q 44.046875 -1.421875 31.78125 -1.421875 
Q 19.53125 -1.421875 13.0625 8.265625 
Q 6.59375 17.96875 6.59375 36.375 
Q 6.59375 54.828125 13.0625 64.515625 
Q 19.53125 74.21875 31.78125 74.21875 
z
" id="DejaVuSans-48"/>
      </defs>
      <g transform="translate(70.651477 322.182437)scale(0.1 -0.1)">
       <use xlink:href="#DejaVuSans-48"/>
      </g>
     </g>
    </g>
    <g id="xtick_2">
     <g id="line2d_3">
      <path clip-path="url(#p1f2cf2dd52)" d="M 138.893758 307.584 
L 138.893758 41.472 
" style="fill:none;stroke:#b0b0b0;stroke-linecap:square;stroke-width:0.8;"/>
     </g>
     <g id="line2d_4">
      <g>
       <use style="stroke:#000000;stroke-width:0.8;" x="138.893758" xlink:href="#mbae07068a7" y="307.584"/>
      </g>
     </g>
     <g id="text_2">
      <!-- 100 -->
      <defs>
       <path d="M 12.40625 8.296875 
L 28.515625 8.296875 
L 28.515625 63.921875 
L 10.984375 60.40625 
L 10.984375 69.390625 
L 28.421875 72.90625 
L 38.28125 72.90625 
L 38.28125 8.296875 
L 54.390625 8.296875 
L 54.390625 0 
L 12.40625 0 
z
" id="DejaVuSans-49"/>
      </defs>
      <g transform="translate(129.350008 322.182437)scale(0.1 -0.1)">
       <use xlink:href="#DejaVuSans-49"/>
       <use x="63.623047" xlink:href="#DejaVuSans-48"/>
       <use x="127.246094" xlink:href="#DejaVuSans-48"/>
      </g>
     </g>
    </g>
    <g id="xtick_3">
     <g id="line2d_5">
      <path clip-path="url(#p1f2cf2dd52)" d="M 203.95479 307.584 
L 203.95479 41.472 
" style="fill:none;stroke:#b0b0b0;stroke-linecap:square;stroke-width:0.8;"/>
     </g>
     <g id="line2d_6">
      <g>
       <use style="stroke:#000000;stroke-width:0.8;" x="203.95479" xlink:href="#mbae07068a7" y="307.584"/>
      </g>
     </g>
     <g id="text_3">
      <!-- 200 -->
      <defs>
       <path d="M 19.1875 8.296875 
L 53.609375 8.296875 
L 53.609375 0 
L 7.328125 0 
L 7.328125 8.296875 
Q 12.9375 14.109375 22.625 23.890625 
Q 32.328125 33.6875 34.8125 36.53125 
Q 39.546875 41.84375 41.421875 45.53125 
Q 43.3125 49.21875 43.3125 52.78125 
Q 43.3125 58.59375 39.234375 62.25 
Q 35.15625 65.921875 28.609375 65.921875 
Q 23.96875 65.921875 18.8125 64.3125 
Q 13.671875 62.703125 7.8125 59.421875 
L 7.8125 69.390625 
Q 13.765625 71.78125 18.9375 73 
Q 24.125 74.21875 28.421875 74.21875 
Q 39.75 74.21875 46.484375 68.546875 
Q 53.21875 62.890625 53.21875 53.421875 
Q 53.21875 48.921875 51.53125 44.890625 
Q 49.859375 40.875 45.40625 35.40625 
Q 44.1875 33.984375 37.640625 27.21875 
Q 31.109375 20.453125 19.1875 8.296875 
z
" id="DejaVuSans-50"/>
      </defs>
      <g transform="translate(194.41104 322.182437)scale(0.1 -0.1)">
       <use xlink:href="#DejaVuSans-50"/>
       <use x="63.623047" xlink:href="#DejaVuSans-48"/>
       <use x="127.246094" xlink:href="#DejaVuSans-48"/>
      </g>
     </g>
    </g>
    <g id="xtick_4">
     <g id="line2d_7">
      <path clip-path="url(#p1f2cf2dd52)" d="M 269.015821 307.584 
L 269.015821 41.472 
" style="fill:none;stroke:#b0b0b0;stroke-linecap:square;stroke-width:0.8;"/>
     </g>
     <g id="line2d_8">
      <g>
       <use style="stroke:#000000;stroke-width:0.8;" x="269.015821" xlink:href="#mbae07068a7" y="307.584"/>
      </g>
     </g>
     <g id="text_4">
      <!-- 300 -->
      <defs>
       <path d="M 40.578125 39.3125 
Q 47.65625 37.796875 51.625 33 
Q 55.609375 28.21875 55.609375 21.1875 
Q 55.609375 10.40625 48.1875 4.484375 
Q 40.765625 -1.421875 27.09375 -1.421875 
Q 22.515625 -1.421875 17.65625 -0.515625 
Q 12.796875 0.390625 7.625 2.203125 
L 7.625 11.71875 
Q 11.71875 9.328125 16.59375 8.109375 
Q 21.484375 6.890625 26.8125 6.890625 
Q 36.078125 6.890625 40.9375 10.546875 
Q 45.796875 14.203125 45.796875 21.1875 
Q 45.796875 27.640625 41.28125 31.265625 
Q 36.765625 34.90625 28.71875 34.90625 
L 20.21875 34.90625 
L 20.21875 43.015625 
L 29.109375 43.015625 
Q 36.375 43.015625 40.234375 45.921875 
Q 44.09375 48.828125 44.09375 54.296875 
Q 44.09375 59.90625 40.109375 62.90625 
Q 36.140625 65.921875 28.71875 65.921875 
Q 24.65625 65.921875 20.015625 65.03125 
Q 15.375 64.15625 9.8125 62.3125 
L 9.8125 71.09375 
Q 15.4375 72.65625 20.34375 73.4375 
Q 25.25 74.21875 29.59375 74.21875 
Q 40.828125 74.21875 47.359375 69.109375 
Q 53.90625 64.015625 53.90625 55.328125 
Q 53.90625 49.265625 50.4375 45.09375 
Q 46.96875 40.921875 40.578125 39.3125 
z
" id="DejaVuSans-51"/>
      </defs>
      <g transform="translate(259.472071 322.182437)scale(0.1 -0.1)">
       <use xlink:href="#DejaVuSans-51"/>
       <use x="63.623047" xlink:href="#DejaVuSans-48"/>
       <use x="127.246094" xlink:href="#DejaVuSans-48"/>
      </g>
     </g>
    </g>
    <g id="xtick_5">
     <g id="line2d_9">
      <path clip-path="url(#p1f2cf2dd52)" d="M 334.076852 307.584 
L 334.076852 41.472 
" style="fill:none;stroke:#b0b0b0;stroke-linecap:square;stroke-width:0.8;"/>
     </g>
     <g id="line2d_10">
      <g>
       <use style="stroke:#000000;stroke-width:0.8;" x="334.076852" xlink:href="#mbae07068a7" y="307.584"/>
      </g>
     </g>
     <g id="text_5">
      <!-- 400 -->
      <defs>
       <path d="M 37.796875 64.3125 
L 12.890625 25.390625 
L 37.796875 25.390625 
z
M 35.203125 72.90625 
L 47.609375 72.90625 
L 47.609375 25.390625 
L 58.015625 25.390625 
L 58.015625 17.1875 
L 47.609375 17.1875 
L 47.609375 0 
L 37.796875 0 
L 37.796875 17.1875 
L 4.890625 17.1875 
L 4.890625 26.703125 
z
" id="DejaVuSans-52"/>
      </defs>
      <g transform="translate(324.533102 322.182437)scale(0.1 -0.1)">
       <use xlink:href="#DejaVuSans-52"/>
       <use x="63.623047" xlink:href="#DejaVuSans-48"/>
       <use x="127.246094" xlink:href="#DejaVuSans-48"/>
      </g>
     </g>
    </g>
    <g id="xtick_6">
     <g id="line2d_11">
      <path clip-path="url(#p1f2cf2dd52)" d="M 399.137883 307.584 
L 399.137883 41.472 
" style="fill:none;stroke:#b0b0b0;stroke-linecap:square;stroke-width:0.8;"/>
     </g>
     <g id="line2d_12">
      <g>
       <use style="stroke:#000000;stroke-width:0.8;" x="399.137883" xlink:href="#mbae07068a7" y="307.584"/>
      </g>
     </g>
     <g id="text_6">
      <!-- 500 -->
      <defs>
       <path d="M 10.796875 72.90625 
L 49.515625 72.90625 
L 49.515625 64.59375 
L 19.828125 64.59375 
L 19.828125 46.734375 
Q 21.96875 47.46875 24.109375 47.828125 
Q 26.265625 48.1875 28.421875 48.1875 
Q 40.625 48.1875 47.75 41.5 
Q 54.890625 34.8125 54.890625 23.390625 
Q 54.890625 11.625 47.5625 5.09375 
Q 40.234375 -1.421875 26.90625 -1.421875 
Q 22.3125 -1.421875 17.546875 -0.640625 
Q 12.796875 0.140625 7.71875 1.703125 
L 7.71875 11.625 
Q 12.109375 9.234375 16.796875 8.0625 
Q 21.484375 6.890625 26.703125 6.890625 
Q 35.15625 6.890625 40.078125 11.328125 
Q 45.015625 15.765625 45.015625 23.390625 
Q 45.015625 31 40.078125 35.4375 
Q 35.15625 39.890625 26.703125 39.890625 
Q 22.75 39.890625 18.8125 39.015625 
Q 14.890625 38.140625 10.796875 36.28125 
z
" id="DejaVuSans-53"/>
      </defs>
      <g transform="translate(389.594133 322.182437)scale(0.1 -0.1)">
       <use xlink:href="#DejaVuSans-53"/>
       <use x="63.623047" xlink:href="#DejaVuSans-48"/>
       <use x="127.246094" xlink:href="#DejaVuSans-48"/>
      </g>
     </g>
    </g>
    <g id="text_7">
     <!-- Generations -->
     <defs>
      <path d="M 59.515625 10.40625 
L 59.515625 29.984375 
L 43.40625 29.984375 
L 43.40625 38.09375 
L 69.28125 38.09375 
L 69.28125 6.78125 
Q 63.578125 2.734375 56.6875 0.65625 
Q 49.8125 -1.421875 42 -1.421875 
Q 24.90625 -1.421875 15.25 8.5625 
Q 5.609375 18.5625 5.609375 36.375 
Q 5.609375 54.25 15.25 64.234375 
Q 24.90625 74.21875 42 74.21875 
Q 49.125 74.21875 55.546875 72.453125 
Q 61.96875 70.703125 67.390625 67.28125 
L 67.390625 56.78125 
Q 61.921875 61.421875 55.765625 63.765625 
Q 49.609375 66.109375 42.828125 66.109375 
Q 29.4375 66.109375 22.71875 58.640625 
Q 16.015625 51.171875 16.015625 36.375 
Q 16.015625 21.625 22.71875 14.15625 
Q 29.4375 6.6875 42.828125 6.6875 
Q 48.046875 6.6875 52.140625 7.59375 
Q 56.25 8.5 59.515625 10.40625 
z
" id="DejaVuSans-71"/>
      <path d="M 56.203125 29.59375 
L 56.203125 25.203125 
L 14.890625 25.203125 
Q 15.484375 15.921875 20.484375 11.0625 
Q 25.484375 6.203125 34.421875 6.203125 
Q 39.59375 6.203125 44.453125 7.46875 
Q 49.3125 8.734375 54.109375 11.28125 
L 54.109375 2.78125 
Q 49.265625 0.734375 44.1875 -0.34375 
Q 39.109375 -1.421875 33.890625 -1.421875 
Q 20.796875 -1.421875 13.15625 6.1875 
Q 5.515625 13.8125 5.515625 26.8125 
Q 5.515625 40.234375 12.765625 48.109375 
Q 20.015625 56 32.328125 56 
Q 43.359375 56 49.78125 48.890625 
Q 56.203125 41.796875 56.203125 29.59375 
z
M 47.21875 32.234375 
Q 47.125 39.59375 43.09375 43.984375 
Q 39.0625 48.390625 32.421875 48.390625 
Q 24.90625 48.390625 20.390625 44.140625 
Q 15.875 39.890625 15.1875 32.171875 
z
" id="DejaVuSans-101"/>
      <path d="M 54.890625 33.015625 
L 54.890625 0 
L 45.90625 0 
L 45.90625 32.71875 
Q 45.90625 40.484375 42.875 44.328125 
Q 39.84375 48.1875 33.796875 48.1875 
Q 26.515625 48.1875 22.3125 43.546875 
Q 18.109375 38.921875 18.109375 30.90625 
L 18.109375 0 
L 9.078125 0 
L 9.078125 54.6875 
L 18.109375 54.6875 
L 18.109375 46.1875 
Q 21.34375 51.125 25.703125 53.5625 
Q 30.078125 56 35.796875 56 
Q 45.21875 56 50.046875 50.171875 
Q 54.890625 44.34375 54.890625 33.015625 
z
" id="DejaVuSans-110"/>
      <path d="M 41.109375 46.296875 
Q 39.59375 47.171875 37.8125 47.578125 
Q 36.03125 48 33.890625 48 
Q 26.265625 48 22.1875 43.046875 
Q 18.109375 38.09375 18.109375 28.8125 
L 18.109375 0 
L 9.078125 0 
L 9.078125 54.6875 
L 18.109375 54.6875 
L 18.109375 46.1875 
Q 20.953125 51.171875 25.484375 53.578125 
Q 30.03125 56 36.53125 56 
Q 37.453125 56 38.578125 55.875 
Q 39.703125 55.765625 41.0625 55.515625 
z
" id="DejaVuSans-114"/>
      <path d="M 34.28125 27.484375 
Q 23.390625 27.484375 19.1875 25 
Q 14.984375 22.515625 14.984375 16.5 
Q 14.984375 11.71875 18.140625 8.90625 
Q 21.296875 6.109375 26.703125 6.109375 
Q 34.1875 6.109375 38.703125 11.40625 
Q 43.21875 16.703125 43.21875 25.484375 
L 43.21875 27.484375 
z
M 52.203125 31.203125 
L 52.203125 0 
L 43.21875 0 
L 43.21875 8.296875 
Q 40.140625 3.328125 35.546875 0.953125 
Q 30.953125 -1.421875 24.3125 -1.421875 
Q 15.921875 -1.421875 10.953125 3.296875 
Q 6 8.015625 6 15.921875 
Q 6 25.140625 12.171875 29.828125 
Q 18.359375 34.515625 30.609375 34.515625 
L 43.21875 34.515625 
L 43.21875 35.40625 
Q 43.21875 41.609375 39.140625 45 
Q 35.0625 48.390625 27.6875 48.390625 
Q 23 48.390625 18.546875 47.265625 
Q 14.109375 46.140625 10.015625 43.890625 
L 10.015625 52.203125 
Q 14.9375 54.109375 19.578125 55.046875 
Q 24.21875 56 28.609375 56 
Q 40.484375 56 46.34375 49.84375 
Q 52.203125 43.703125 52.203125 31.203125 
z
" id="DejaVuSans-97"/>
      <path d="M 18.3125 70.21875 
L 18.3125 54.6875 
L 36.8125 54.6875 
L 36.8125 47.703125 
L 18.3125 47.703125 
L 18.3125 18.015625 
Q 18.3125 11.328125 20.140625 9.421875 
Q 21.96875 7.515625 27.59375 7.515625 
L 36.8125 7.515625 
L 36.8125 0 
L 27.59375 0 
Q 17.1875 0 13.234375 3.875 
Q 9.28125 7.765625 9.28125 18.015625 
L 9.28125 47.703125 
L 2.6875 47.703125 
L 2.6875 54.6875 
L 9.28125 54.6875 
L 9.28125 70.21875 
z
" id="DejaVuSans-116"/>
      <path d="M 9.421875 54.6875 
L 18.40625 54.6875 
L 18.40625 0 
L 9.421875 0 
z
M 9.421875 75.984375 
L 18.40625 75.984375 
L 18.40625 64.59375 
L 9.421875 64.59375 
z
" id="DejaVuSans-105"/>
      <path d="M 30.609375 48.390625 
Q 23.390625 48.390625 19.1875 42.75 
Q 14.984375 37.109375 14.984375 27.296875 
Q 14.984375 17.484375 19.15625 11.84375 
Q 23.34375 6.203125 30.609375 6.203125 
Q 37.796875 6.203125 41.984375 11.859375 
Q 46.1875 17.53125 46.1875 27.296875 
Q 46.1875 37.015625 41.984375 42.703125 
Q 37.796875 48.390625 30.609375 48.390625 
z
M 30.609375 56 
Q 42.328125 56 49.015625 48.375 
Q 55.71875 40.765625 55.71875 27.296875 
Q 55.71875 13.875 49.015625 6.21875 
Q 42.328125 -1.421875 30.609375 -1.421875 
Q 18.84375 -1.421875 12.171875 6.21875 
Q 5.515625 13.875 5.515625 27.296875 
Q 5.515625 40.765625 12.171875 48.375 
Q 18.84375 56 30.609375 56 
z
" id="DejaVuSans-111"/>
      <path d="M 44.28125 53.078125 
L 44.28125 44.578125 
Q 40.484375 46.53125 36.375 47.5 
Q 32.28125 48.484375 27.875 48.484375 
Q 21.1875 48.484375 17.84375 46.4375 
Q 14.5 44.390625 14.5 40.28125 
Q 14.5 37.15625 16.890625 35.375 
Q 19.28125 33.59375 26.515625 31.984375 
L 29.59375 31.296875 
Q 39.15625 29.25 43.1875 25.515625 
Q 47.21875 21.78125 47.21875 15.09375 
Q 47.21875 7.46875 41.1875 3.015625 
Q 35.15625 -1.421875 24.609375 -1.421875 
Q 20.21875 -1.421875 15.453125 -0.5625 
Q 10.6875 0.296875 5.421875 2 
L 5.421875 11.28125 
Q 10.40625 8.6875 15.234375 7.390625 
Q 20.0625 6.109375 24.8125 6.109375 
Q 31.15625 6.109375 34.5625 8.28125 
Q 37.984375 10.453125 37.984375 14.40625 
Q 37.984375 18.0625 35.515625 20.015625 
Q 33.0625 21.96875 24.703125 23.78125 
L 21.578125 24.515625 
Q 13.234375 26.265625 9.515625 29.90625 
Q 5.8125 33.546875 5.8125 39.890625 
Q 5.8125 47.609375 11.28125 51.796875 
Q 16.75 56 26.8125 56 
Q 31.78125 56 36.171875 55.265625 
Q 40.578125 54.546875 44.28125 53.078125 
z
" id="DejaVuSans-115"/>
     </defs>
     <g transform="translate(205.662344 335.860562)scale(0.1 -0.1)">
      <use xlink:href="#DejaVuSans-71"/>
      <use x="77.490234" xlink:href="#DejaVuSans-101"/>
      <use x="139.013672" xlink:href="#DejaVuSans-110"/>
      <use x="202.392578" xlink:href="#DejaVuSans-101"/>
      <use x="263.916016" xlink:href="#DejaVuSans-114"/>
      <use x="305.029297" xlink:href="#DejaVuSans-97"/>
      <use x="366.308594" xlink:href="#DejaVuSans-116"/>
      <use x="405.517578" xlink:href="#DejaVuSans-105"/>
      <use x="433.300781" xlink:href="#DejaVuSans-111"/>
      <use x="494.482422" xlink:href="#DejaVuSans-110"/>
      <use x="557.861328" xlink:href="#DejaVuSans-115"/>
     </g>
    </g>
   </g>
   <g id="matplotlib.axis_2">
    <g id="ytick_1">
     <g id="line2d_13">
      <path clip-path="url(#p1f2cf2dd52)" d="M 57.6 286.629908 
L 414.72 286.629908 
" style="fill:none;stroke:#b0b0b0;stroke-linecap:square;stroke-width:0.8;"/>
     </g>
     <g id="line2d_14">
      <defs>
       <path d="M 0 0 
L -3.5 0 
" id="me85c953bf9" style="stroke:#000000;stroke-width:0.8;"/>
      </defs>
      <g>
       <use style="stroke:#000000;stroke-width:0.8;" x="57.6" xlink:href="#me85c953bf9" y="286.629908"/>
      </g>
     </g>
     <g id="text_8">
      <!-- −0.8 -->
      <defs>
       <path d="M 10.59375 35.5 
L 73.1875 35.5 
L 73.1875 27.203125 
L 10.59375 27.203125 
z
" id="DejaVuSans-8722"/>
       <path d="M 10.6875 12.40625 
L 21 12.40625 
L 21 0 
L 10.6875 0 
z
" id="DejaVuSans-46"/>
       <path d="M 31.78125 34.625 
Q 24.75 34.625 20.71875 30.859375 
Q 16.703125 27.09375 16.703125 20.515625 
Q 16.703125 13.921875 20.71875 10.15625 
Q 24.75 6.390625 31.78125 6.390625 
Q 38.8125 6.390625 42.859375 10.171875 
Q 46.921875 13.96875 46.921875 20.515625 
Q 46.921875 27.09375 42.890625 30.859375 
Q 38.875 34.625 31.78125 34.625 
z
M 21.921875 38.8125 
Q 15.578125 40.375 12.03125 44.71875 
Q 8.5 49.078125 8.5 55.328125 
Q 8.5 64.0625 14.71875 69.140625 
Q 20.953125 74.21875 31.78125 74.21875 
Q 42.671875 74.21875 48.875 69.140625 
Q 55.078125 64.0625 55.078125 55.328125 
Q 55.078125 49.078125 51.53125 44.71875 
Q 48 40.375 41.703125 38.8125 
Q 48.828125 37.15625 52.796875 32.3125 
Q 56.78125 27.484375 56.78125 20.515625 
Q 56.78125 9.90625 50.3125 4.234375 
Q 43.84375 -1.421875 31.78125 -1.421875 
Q 19.734375 -1.421875 13.25 4.234375 
Q 6.78125 9.90625 6.78125 20.515625 
Q 6.78125 27.484375 10.78125 32.3125 
Q 14.796875 37.15625 21.921875 38.8125 
z
M 18.3125 54.390625 
Q 18.3125 48.734375 21.84375 45.5625 
Q 25.390625 42.390625 31.78125 42.390625 
Q 38.140625 42.390625 41.71875 45.5625 
Q 45.3125 48.734375 45.3125 54.390625 
Q 45.3125 60.0625 41.71875 63.234375 
Q 38.140625 66.40625 31.78125 66.40625 
Q 25.390625 66.40625 21.84375 63.234375 
Q 18.3125 60.0625 18.3125 54.390625 
z
" id="DejaVuSans-56"/>
      </defs>
      <g transform="translate(26.317187 290.429127)scale(0.1 -0.1)">
       <use xlink:href="#DejaVuSans-8722"/>
       <use x="83.789062" xlink:href="#DejaVuSans-48"/>
       <use x="147.412109" xlink:href="#DejaVuSans-46"/>
       <use x="179.199219" xlink:href="#DejaVuSans-56"/>
      </g>
     </g>
    </g>
    <g id="ytick_2">
     <g id="line2d_15">
      <path clip-path="url(#p1f2cf2dd52)" d="M 57.6 237.076269 
L 414.72 237.076269 
" style="fill:none;stroke:#b0b0b0;stroke-linecap:square;stroke-width:0.8;"/>
     </g>
     <g id="line2d_16">
      <g>
       <use style="stroke:#000000;stroke-width:0.8;" x="57.6" xlink:href="#me85c953bf9" y="237.076269"/>
      </g>
     </g>
     <g id="text_9">
      <!-- −0.6 -->
      <defs>
       <path d="M 33.015625 40.375 
Q 26.375 40.375 22.484375 35.828125 
Q 18.609375 31.296875 18.609375 23.390625 
Q 18.609375 15.53125 22.484375 10.953125 
Q 26.375 6.390625 33.015625 6.390625 
Q 39.65625 6.390625 43.53125 10.953125 
Q 47.40625 15.53125 47.40625 23.390625 
Q 47.40625 31.296875 43.53125 35.828125 
Q 39.65625 40.375 33.015625 40.375 
z
M 52.59375 71.296875 
L 52.59375 62.3125 
Q 48.875 64.0625 45.09375 64.984375 
Q 41.3125 65.921875 37.59375 65.921875 
Q 27.828125 65.921875 22.671875 59.328125 
Q 17.53125 52.734375 16.796875 39.40625 
Q 19.671875 43.65625 24.015625 45.921875 
Q 28.375 48.1875 33.59375 48.1875 
Q 44.578125 48.1875 50.953125 41.515625 
Q 57.328125 34.859375 57.328125 23.390625 
Q 57.328125 12.15625 50.6875 5.359375 
Q 44.046875 -1.421875 33.015625 -1.421875 
Q 20.359375 -1.421875 13.671875 8.265625 
Q 6.984375 17.96875 6.984375 36.375 
Q 6.984375 53.65625 15.1875 63.9375 
Q 23.390625 74.21875 37.203125 74.21875 
Q 40.921875 74.21875 44.703125 73.484375 
Q 48.484375 72.75 52.59375 71.296875 
z
" id="DejaVuSans-54"/>
      </defs>
      <g transform="translate(26.317187 240.875488)scale(0.1 -0.1)">
       <use xlink:href="#DejaVuSans-8722"/>
       <use x="83.789062" xlink:href="#DejaVuSans-48"/>
       <use x="147.412109" xlink:href="#DejaVuSans-46"/>
       <use x="179.199219" xlink:href="#DejaVuSans-54"/>
      </g>
     </g>
    </g>
    <g id="ytick_3">
     <g id="line2d_17">
      <path clip-path="url(#p1f2cf2dd52)" d="M 57.6 187.52263 
L 414.72 187.52263 
" style="fill:none;stroke:#b0b0b0;stroke-linecap:square;stroke-width:0.8;"/>
     </g>
     <g id="line2d_18">
      <g>
       <use style="stroke:#000000;stroke-width:0.8;" x="57.6" xlink:href="#me85c953bf9" y="187.52263"/>
      </g>
     </g>
     <g id="text_10">
      <!-- −0.4 -->
      <g transform="translate(26.317187 191.321849)scale(0.1 -0.1)">
       <use xlink:href="#DejaVuSans-8722"/>
       <use x="83.789062" xlink:href="#DejaVuSans-48"/>
       <use x="147.412109" xlink:href="#DejaVuSans-46"/>
       <use x="179.199219" xlink:href="#DejaVuSans-52"/>
      </g>
     </g>
    </g>
    <g id="ytick_4">
     <g id="line2d_19">
      <path clip-path="url(#p1f2cf2dd52)" d="M 57.6 137.968991 
L 414.72 137.968991 
" style="fill:none;stroke:#b0b0b0;stroke-linecap:square;stroke-width:0.8;"/>
     </g>
     <g id="line2d_20">
      <g>
       <use style="stroke:#000000;stroke-width:0.8;" x="57.6" xlink:href="#me85c953bf9" y="137.968991"/>
      </g>
     </g>
     <g id="text_11">
      <!-- −0.2 -->
      <g transform="translate(26.317187 141.76821)scale(0.1 -0.1)">
       <use xlink:href="#DejaVuSans-8722"/>
       <use x="83.789062" xlink:href="#DejaVuSans-48"/>
       <use x="147.412109" xlink:href="#DejaVuSans-46"/>
       <use x="179.199219" xlink:href="#DejaVuSans-50"/>
      </g>
     </g>
    </g>
    <g id="ytick_5">
     <g id="line2d_21">
      <path clip-path="url(#p1f2cf2dd52)" d="M 57.6 88.415352 
L 414.72 88.415352 
" style="fill:none;stroke:#b0b0b0;stroke-linecap:square;stroke-width:0.8;"/>
     </g>
     <g id="line2d_22">
      <g>
       <use style="stroke:#000000;stroke-width:0.8;" x="57.6" xlink:href="#me85c953bf9" y="88.415352"/>
      </g>
     </g>
     <g id="text_12">
      <!-- 0.0 -->
      <g transform="translate(34.696875 92.214571)scale(0.1 -0.1)">
       <use xlink:href="#DejaVuSans-48"/>
       <use x="63.623047" xlink:href="#DejaVuSans-46"/>
       <use x="95.410156" xlink:href="#DejaVuSans-48"/>
      </g>
     </g>
    </g>
    <g id="text_13">
     <!-- Fitness -->
     <defs>
      <path d="M 9.8125 72.90625 
L 51.703125 72.90625 
L 51.703125 64.59375 
L 19.671875 64.59375 
L 19.671875 43.109375 
L 48.578125 43.109375 
L 48.578125 34.8125 
L 19.671875 34.8125 
L 19.671875 0 
L 9.8125 0 
z
" id="DejaVuSans-70"/>
     </defs>
     <g transform="translate(20.2375 192.202219)rotate(-90)scale(0.1 -0.1)">
      <use xlink:href="#DejaVuSans-70"/>
      <use x="57.410156" xlink:href="#DejaVuSans-105"/>
      <use x="85.193359" xlink:href="#DejaVuSans-116"/>
      <use x="124.402344" xlink:href="#DejaVuSans-110"/>
      <use x="187.78125" xlink:href="#DejaVuSans-101"/>
      <use x="249.304688" xlink:href="#DejaVuSans-115"/>
      <use x="301.404297" xlink:href="#DejaVuSans-115"/>
     </g>
    </g>
   </g>
   <g id="line2d_23">
    <path clip-path="url(#p1f2cf2dd52)" d="M 73.832727 178.100683 
L 74.483338 151.992035 
L 75.133948 154.429986 
L 75.784558 149.11179 
L 76.435169 145.929342 
L 77.085779 162.55503 
L 77.736389 150.600958 
L 78.386999 161.961333 
L 79.03761 151.318529 
L 79.68822 150.819006 
L 80.33883 151.389096 
L 80.989441 145.565352 
L 81.640051 154.633555 
L 82.290661 151.257586 
L 82.941272 156.64294 
L 83.591882 167.702903 
L 84.242492 162.8197 
L 84.893103 156.486582 
L 85.543713 145.991385 
L 86.194323 146.689091 
L 86.844934 150.290782 
L 87.495544 146.853061 
L 88.146154 147.486063 
L 88.796764 162.946261 
L 89.447375 148.717996 
L 90.097985 157.413285 
L 90.748595 143.9811 
L 91.399206 147.539528 
L 92.049816 151.991534 
L 92.700426 163.815459 
L 93.351037 170.720507 
L 94.001647 166.913457 
L 94.652257 162.395462 
L 95.302868 153.010965 
L 95.953478 151.761111 
L 96.604088 157.642263 
L 97.254698 155.718592 
L 97.905309 148.070832 
L 98.555919 144.484001 
L 99.206529 156.436158 
L 99.85714 158.186248 
L 100.50775 157.610683 
L 101.15836 157.522712 
L 101.808971 158.685046 
L 102.459581 157.270798 
L 103.110191 156.606449 
L 103.760802 148.131953 
L 104.411412 146.377283 
L 105.062022 137.634138 
L 106.363243 151.622704 
L 107.013853 146.794925 
L 107.664463 150.705743 
L 108.315074 152.577562 
L 108.965684 147.2648 
L 109.616294 140.257053 
L 110.266905 146.132754 
L 110.917515 155.348115 
L 111.568125 144.97833 
L 112.218736 140.148984 
L 112.869346 155.091987 
L 113.519956 139.130521 
L 114.170567 146.846747 
L 114.821177 145.720695 
L 115.471787 142.566281 
L 116.122398 136.383636 
L 116.773008 132.818567 
L 117.423618 138.104347 
L 118.074228 141.285876 
L 118.724839 137.597669 
L 119.375449 143.061729 
L 120.026059 136.769938 
L 120.67667 139.511661 
L 121.32728 143.766312 
L 121.97789 142.300119 
L 122.628501 147.45808 
L 123.279111 148.412176 
L 123.929721 138.730221 
L 124.580332 136.683222 
L 125.230942 151.773466 
L 125.881552 130.999384 
L 126.532163 140.010178 
L 127.182773 140.910683 
L 127.833383 140.473144 
L 128.483993 141.921961 
L 129.134604 144.807339 
L 129.785214 149.590067 
L 130.435824 156.927641 
L 131.086435 147.683546 
L 131.737045 153.351298 
L 132.387655 147.545015 
L 133.038266 156.761762 
L 133.688876 153.510841 
L 134.339486 147.740643 
L 134.990097 143.183223 
L 135.640707 150.107078 
L 136.291317 142.883167 
L 136.941927 146.765529 
L 137.592538 145.099701 
L 138.243148 136.426472 
L 138.893758 137.048024 
L 139.544369 148.195971 
L 140.194979 141.331227 
L 140.845589 143.292939 
L 142.14681 148.419887 
L 142.79742 141.224311 
L 143.448031 146.262039 
L 144.098641 140.663361 
L 144.749251 144.668784 
L 145.399862 135.012115 
L 146.050472 148.621479 
L 146.701082 139.348772 
L 147.351692 149.283546 
L 148.002303 163.467363 
L 148.652913 142.491087 
L 149.303523 148.121815 
L 149.954134 148.907322 
L 150.604744 162.696958 
L 151.255354 153.630295 
L 151.905965 141.442846 
L 152.556575 163.913651 
L 153.207185 148.30561 
L 153.857796 152.306276 
L 154.508406 162.57825 
L 155.159016 150.544015 
L 155.809627 161.962651 
L 156.460237 153.00519 
L 157.110847 153.466072 
L 157.761457 152.483478 
L 158.412068 148.52335 
L 159.062678 153.431864 
L 159.713288 149.279092 
L 160.363899 149.881027 
L 161.014509 147.903802 
L 161.665119 147.1766 
L 162.31573 157.710462 
L 162.96634 141.855275 
L 163.61695 157.046982 
L 164.267561 140.920515 
L 164.918171 152.602125 
L 165.568781 140.862801 
L 166.219392 150.208671 
L 166.870002 145.824974 
L 167.520612 148.074155 
L 168.171222 149.10353 
L 168.821833 149.688384 
L 169.472443 148.911498 
L 170.123053 156.624388 
L 170.773664 137.661936 
L 171.424274 153.494683 
L 172.074884 150.971464 
L 172.725495 136.683912 
L 173.376105 151.707975 
L 174.026715 152.458743 
L 174.677326 150.808705 
L 175.327936 147.330519 
L 175.978546 155.533256 
L 176.629156 148.043619 
L 177.279767 138.322541 
L 177.930377 142.265603 
L 178.580987 153.479646 
L 179.231598 141.272488 
L 179.882208 146.440667 
L 180.532818 140.576846 
L 181.183429 150.442249 
L 181.834039 147.349767 
L 182.484649 140.37121 
L 183.13526 140.991367 
L 183.78587 136.985004 
L 184.43648 138.905817 
L 185.087091 151.103489 
L 185.737701 144.577565 
L 186.388311 146.236466 
L 187.038921 161.580919 
L 187.689532 135.632825 
L 188.340142 141.458122 
L 188.990752 136.68762 
L 190.291973 131.344727 
L 190.942583 148.098971 
L 191.593194 151.583098 
L 192.243804 147.398389 
L 192.894414 151.873221 
L 193.545025 136.162662 
L 194.195635 142.360793 
L 194.846245 139.654482 
L 195.496856 130.382277 
L 196.147466 131.691371 
L 196.798076 137.96257 
L 197.448686 128.733292 
L 198.099297 137.419234 
L 198.749907 135.38751 
L 199.400517 136.844478 
L 200.051128 140.844384 
L 200.701738 137.76731 
L 201.352348 129.4197 
L 202.002959 128.045074 
L 202.653569 125.930204 
L 203.304179 139.513272 
L 203.95479 136.99558 
L 204.6054 140.393439 
L 205.25601 132.386788 
L 205.906621 132.554974 
L 206.557231 132.586477 
L 207.207841 137.223045 
L 207.858451 136.500943 
L 208.509062 141.486655 
L 209.159672 136.037827 
L 209.810282 158.259701 
L 210.460893 134.435747 
L 211.762113 153.665546 
L 212.412724 145.541572 
L 213.063334 145.464975 
L 213.713944 149.852843 
L 214.364555 152.236133 
L 215.015165 161.185379 
L 215.665775 161.685702 
L 216.316385 148.721597 
L 216.966996 162.876406 
L 217.617606 149.050154 
L 218.268216 157.949524 
L 218.918827 150.926462 
L 219.569437 164.71716 
L 220.220047 152.451728 
L 220.870658 165.195548 
L 221.521268 143.98441 
L 222.171878 148.352406 
L 222.822489 150.667683 
L 223.473099 149.328066 
L 224.123709 162.213005 
L 224.77432 152.778384 
L 225.42493 152.686228 
L 226.07554 157.431954 
L 226.72615 168.487308 
L 227.376761 161.388543 
L 228.027371 152.249077 
L 228.677981 159.358862 
L 229.328592 146.730761 
L 229.979202 148.702791 
L 230.629812 156.348145 
L 231.280423 155.360333 
L 231.931033 150.326322 
L 232.581643 158.10702 
L 233.232254 142.547689 
L 233.882864 152.09987 
L 234.533474 146.76774 
L 235.184085 159.216173 
L 235.834695 144.997848 
L 236.485305 153.564733 
L 237.135915 147.161713 
L 237.786526 147.762853 
L 238.437136 147.79349 
L 239.087746 132.561478 
L 239.738357 145.90024 
L 240.388967 155.537711 
L 241.039577 149.540263 
L 241.690188 138.765124 
L 242.340798 143.127744 
L 242.991408 141.040638 
L 243.642019 146.747471 
L 244.292629 155.317466 
L 244.943239 145.211211 
L 245.59385 153.860943 
L 246.24446 138.41709 
L 246.89507 142.407921 
L 247.54568 142.276096 
L 248.196291 145.383785 
L 248.846901 149.332017 
L 249.497511 135.763188 
L 250.148122 142.259124 
L 250.798732 139.792066 
L 251.449342 147.145433 
L 252.099953 146.435586 
L 252.750563 154.283877 
L 253.401173 153.093514 
L 254.051784 138.660028 
L 254.702394 136.487675 
L 255.353004 152.237593 
L 256.003615 156.749409 
L 256.654225 142.350421 
L 257.304835 147.337862 
L 257.955445 160.011027 
L 258.606056 154.362913 
L 259.256666 161.60801 
L 259.907276 141.699137 
L 260.557887 156.416067 
L 261.208497 145.733094 
L 261.859107 149.107517 
L 262.509718 147.787659 
L 263.160328 155.672811 
L 263.810938 143.546496 
L 264.461549 144.941562 
L 265.112159 147.803382 
L 265.762769 154.744197 
L 266.413379 138.731936 
L 267.7146 151.017018 
L 268.36521 137.858452 
L 269.015821 135.614152 
L 269.666431 148.104382 
L 270.317041 139.014882 
L 270.967652 140.069958 
L 271.618262 148.156632 
L 272.268872 143.14492 
L 272.919483 136.793469 
L 273.570093 157.568437 
L 274.220703 151.000867 
L 274.871314 147.864543 
L 275.521924 146.466468 
L 276.172534 150.838768 
L 276.823144 144.790644 
L 277.473755 153.678207 
L 278.124365 154.026524 
L 278.774975 135.125371 
L 279.425586 143.65752 
L 280.076196 161.791249 
L 280.726806 150.436944 
L 281.377417 158.162253 
L 282.028027 150.876156 
L 282.678637 153.057809 
L 283.329248 162.620985 
L 283.979858 174.912735 
L 284.630468 156.327021 
L 285.281079 158.426963 
L 285.931689 162.486943 
L 286.582299 150.230824 
L 287.232909 172.847738 
L 287.88352 162.252728 
L 289.18474 164.7084 
L 289.835351 165.884066 
L 290.485961 165.376819 
L 291.136571 166.829262 
L 291.787182 164.877086 
L 292.437792 165.141835 
L 293.088402 163.785396 
L 293.739013 181.272249 
L 294.389623 166.788027 
L 295.040233 164.810286 
L 295.690844 159.946793 
L 296.341454 143.576611 
L 296.992064 171.353676 
L 297.642674 147.876153 
L 298.293285 154.781182 
L 298.943895 147.391897 
L 299.594505 152.443948 
L 300.245116 150.088421 
L 300.895726 145.566047 
L 301.546336 145.842066 
L 302.196947 134.932153 
L 302.847557 148.353626 
L 303.498167 132.054132 
L 304.148778 131.429164 
L 304.799388 140.019692 
L 305.449998 145.034361 
L 306.100608 145.444961 
L 306.751219 139.170462 
L 307.401829 143.303402 
L 308.052439 136.626717 
L 308.70305 134.602278 
L 309.35366 141.576238 
L 310.00427 139.221127 
L 310.654881 130.894626 
L 311.305491 130.3758 
L 311.956101 144.09048 
L 312.606712 136.452664 
L 313.257322 140.37279 
L 313.907932 133.450382 
L 315.209153 138.659652 
L 315.859763 139.255164 
L 316.510373 142.694686 
L 317.160984 136.896506 
L 317.811594 138.346921 
L 318.462204 141.060223 
L 319.112815 147.269137 
L 319.763425 139.898106 
L 320.414035 137.138997 
L 321.064646 138.489541 
L 321.715256 142.878661 
L 322.365866 150.609879 
L 323.016477 146.434116 
L 323.667087 145.268209 
L 324.317697 140.314225 
L 324.968308 141.712377 
L 325.618918 138.129567 
L 326.269528 144.613484 
L 326.920138 141.303395 
L 327.570749 141.610259 
L 328.221359 140.078324 
L 328.871969 144.255962 
L 329.52258 137.510614 
L 330.17319 145.801927 
L 330.8238 141.97357 
L 331.474411 143.205435 
L 332.125021 138.911492 
L 332.775631 135.676382 
L 333.426242 144.737152 
L 334.076852 139.3082 
L 334.727462 141.835238 
L 335.378073 137.273293 
L 336.028683 139.332432 
L 336.679293 135.159249 
L 337.329903 138.94693 
L 337.980514 138.678648 
L 338.631124 142.673953 
L 339.281734 152.268922 
L 339.932345 148.945246 
L 340.582955 151.28583 
L 341.233565 145.4354 
L 341.884176 162.194639 
L 342.534786 144.809303 
L 343.185396 143.204914 
L 343.836007 147.16839 
L 344.486617 136.744003 
L 345.137227 145.568308 
L 345.787837 152.730846 
L 346.438448 140.465051 
L 347.089058 142.160493 
L 347.739668 140.277981 
L 348.390279 142.219404 
L 349.040889 141.253566 
L 349.691499 137.44647 
L 350.34211 143.049148 
L 350.99272 136.232157 
L 351.64333 133.999283 
L 352.293941 135.708768 
L 352.944551 141.493534 
L 353.595161 146.097742 
L 354.245772 142.832138 
L 354.896382 140.992466 
L 355.546992 145.191966 
L 356.197602 151.991888 
L 356.848213 146.779507 
L 357.498823 153.497251 
L 358.149433 157.550448 
L 358.800044 152.417211 
L 359.450654 132.852979 
L 360.101264 147.068561 
L 360.751875 146.105443 
L 361.402485 147.369017 
L 362.053095 153.909132 
L 362.703706 148.152195 
L 363.354316 149.574139 
L 364.004926 153.672275 
L 364.655537 144.911065 
L 365.306147 158.904093 
L 365.956757 136.773167 
L 366.607367 146.269499 
L 367.257978 145.382515 
L 367.908588 146.657921 
L 368.559198 153.815136 
L 369.209809 156.276125 
L 369.860419 152.519 
L 370.511029 143.347304 
L 371.81225 149.272524 
L 372.46286 157.22331 
L 373.113471 149.210384 
L 373.764081 149.069472 
L 374.414691 154.161187 
L 375.065302 154.014678 
L 375.715912 161.045473 
L 376.366522 159.228219 
L 377.017132 160.485051 
L 377.667743 150.395509 
L 378.968963 152.955126 
L 379.619574 149.300715 
L 380.270184 144.834591 
L 380.920794 149.453733 
L 381.571405 151.754674 
L 382.222015 142.168172 
L 382.872625 150.905684 
L 383.523236 141.863361 
L 385.475066 148.719182 
L 386.125677 143.788391 
L 386.776287 141.833804 
L 387.426897 132.289954 
L 388.077508 137.939465 
L 388.728118 146.237921 
L 389.378728 145.889124 
L 390.029339 143.044001 
L 390.679949 141.644491 
L 391.330559 140.622752 
L 391.98117 148.531829 
L 392.63178 150.254079 
L 393.28239 143.603456 
L 393.933001 143.41482 
L 394.583611 142.528204 
L 395.234221 146.570725 
L 395.884831 135.641622 
L 396.535442 152.383471 
L 397.186052 142.230279 
L 397.836662 149.152242 
L 398.487273 148.069581 
L 398.487273 148.069581 
" style="fill:none;stroke:#0000ff;stroke-linecap:square;stroke-width:1.5;"/>
   </g>
   <g id="line2d_24">
    <path clip-path="url(#p1f2cf2dd52)" d="M 73.832727 233.803965 
L 74.483338 222.923917 
L 75.133948 236.302604 
L 75.784558 213.299416 
L 76.435169 213.835371 
L 77.085779 251.496673 
L 77.736389 236.226347 
L 78.386999 258.035673 
L 79.03761 246.90512 
L 79.68822 225.168492 
L 80.33883 241.03606 
L 80.989441 223.983851 
L 81.640051 244.206839 
L 82.290661 235.048576 
L 82.941272 244.089523 
L 83.591882 267.618237 
L 84.242492 262.233253 
L 84.893103 249.594506 
L 85.543713 218.142613 
L 86.194323 229.31071 
L 86.844934 228.36204 
L 87.495544 227.907472 
L 88.146154 228.015178 
L 88.796764 259.836757 
L 89.447375 227.32298 
L 90.097985 250.251139 
L 90.748595 220.336359 
L 91.399206 220.078288 
L 92.700426 261.878978 
L 93.351037 274.442517 
L 94.001647 272.283966 
L 94.652257 261.370972 
L 95.302868 238.434165 
L 95.953478 237.263927 
L 96.604088 245.573254 
L 97.254698 240.59115 
L 97.905309 226.36827 
L 98.555919 214.59309 
L 99.206529 241.965632 
L 99.85714 255.321697 
L 100.50775 248.797366 
L 101.15836 246.398214 
L 101.808971 249.677362 
L 102.459581 248.366041 
L 103.110191 247.562203 
L 103.760802 235.767631 
L 104.411412 230.204385 
L 105.062022 203.637618 
L 105.712633 227.333316 
L 106.363243 240.493699 
L 107.013853 220.695386 
L 107.664463 235.964673 
L 108.315074 231.384904 
L 108.965684 222.940179 
L 109.616294 208.755882 
L 110.266905 219.537512 
L 110.917515 244.680213 
L 111.568125 224.308966 
L 112.218736 210.579777 
L 112.869346 241.611862 
L 113.519956 212.037474 
L 114.170567 227.471088 
L 114.821177 228.955897 
L 115.471787 214.736833 
L 116.122398 196.342815 
L 116.773008 191.276151 
L 117.423618 207.732818 
L 118.074228 206.019196 
L 118.724839 203.437057 
L 119.375449 219.339613 
L 120.026059 206.450261 
L 121.32728 233.186156 
L 121.97789 224.622203 
L 122.628501 224.266276 
L 123.279111 233.89904 
L 124.580332 207.331297 
L 125.230942 244.766409 
L 125.881552 194.379746 
L 126.532163 216.676574 
L 127.182773 217.329297 
L 128.483993 224.801413 
L 129.134604 224.523564 
L 129.785214 234.258663 
L 130.435824 255.421005 
L 131.086435 236.162214 
L 131.737045 245.904088 
L 132.387655 237.249975 
L 133.038266 252.474802 
L 133.688876 251.765239 
L 134.990097 224.993346 
L 135.640707 237.430794 
L 136.291317 223.948465 
L 136.941927 234.574055 
L 137.592538 224.623173 
L 138.243148 212.216289 
L 138.893758 204.489204 
L 139.544369 239.064237 
L 140.194979 227.019238 
L 140.845589 227.56853 
L 141.4962 230.8409 
L 142.14681 242.774512 
L 142.79742 223.113076 
L 143.448031 238.956078 
L 144.098641 218.226616 
L 144.749251 230.080183 
L 145.399862 206.151708 
L 146.050472 234.880209 
L 146.701082 207.243356 
L 148.002303 266.27281 
L 148.652913 218.071216 
L 149.303523 230.675266 
L 149.954134 236.495681 
L 150.604744 264.470875 
L 151.255354 248.489692 
L 151.905965 214.606211 
L 152.556575 262.521931 
L 153.207185 224.353546 
L 153.857796 243.324066 
L 154.508406 255.673974 
L 155.159016 235.243122 
L 155.809627 258.510712 
L 156.460237 237.919832 
L 157.110847 242.121478 
L 157.761457 236.455028 
L 158.412068 226.841179 
L 159.062678 242.566764 
L 159.713288 228.092794 
L 160.363899 229.572 
L 161.014509 228.748487 
L 161.665119 234.411099 
L 162.31573 253.62024 
L 162.96634 214.796526 
L 163.61695 243.69502 
L 164.267561 208.187744 
L 164.918171 237.173169 
L 165.568781 211.243867 
L 166.219392 238.146291 
L 166.870002 222.696099 
L 167.520612 233.695801 
L 168.171222 230.785933 
L 168.821833 236.308425 
L 169.472443 236.943224 
L 170.123053 251.004837 
L 170.773664 212.353787 
L 171.424274 240.752006 
L 172.074884 236.210667 
L 172.725495 204.624107 
L 173.376105 244.206971 
L 174.026715 246.733156 
L 174.677326 243.470453 
L 175.327936 235.920012 
L 175.978546 249.043013 
L 176.629156 233.281071 
L 177.279767 206.722928 
L 177.930377 220.967832 
L 178.580987 246.029527 
L 179.231598 218.747072 
L 179.882208 232.456438 
L 180.532818 211.755187 
L 181.183429 242.921248 
L 181.834039 233.365763 
L 182.484649 218.263372 
L 183.13526 215.950421 
L 183.78587 210.472205 
L 184.43648 208.180899 
L 185.087091 232.075785 
L 185.737701 220.664705 
L 186.388311 229.193286 
L 187.038921 250.442508 
L 187.689532 205.310713 
L 188.340142 206.967569 
L 189.641363 194.150236 
L 190.291973 193.178091 
L 190.942583 228.763009 
L 191.593194 230.438126 
L 192.243804 225.508035 
L 192.894414 235.419092 
L 193.545025 192.703651 
L 194.195635 217.634215 
L 194.846245 213.524661 
L 195.496856 187.282412 
L 196.147466 189.982458 
L 196.798076 207.381622 
L 197.448686 187.971695 
L 198.099297 207.287418 
L 198.749907 205.649716 
L 199.400517 204.487581 
L 200.051128 214.242245 
L 200.701738 215.925519 
L 201.352348 186.15916 
L 202.002959 181.701638 
L 202.653569 174.860867 
L 203.304179 206.545856 
L 204.6054 220.326569 
L 205.25601 198.571917 
L 205.906621 194.511239 
L 206.557231 195.37438 
L 207.207841 204.599061 
L 207.858451 207.315982 
L 208.509062 218.895904 
L 209.159672 201.920471 
L 209.810282 252.585653 
L 210.460893 194.737848 
L 211.111503 216.273941 
L 211.762113 244.543851 
L 212.412724 219.024315 
L 213.063334 221.710795 
L 213.713944 229.437572 
L 214.364555 226.620814 
L 215.015165 258.243228 
L 215.665775 254.432901 
L 216.316385 225.074188 
L 216.966996 259.076991 
L 217.617606 236.682218 
L 218.268216 247.674993 
L 218.918827 227.400945 
L 219.569437 262.302756 
L 220.220047 237.632789 
L 220.870658 249.548539 
L 221.521268 215.664181 
L 222.171878 228.603276 
L 222.822489 239.105144 
L 223.473099 227.542248 
L 224.123709 262.670475 
L 224.77432 235.794882 
L 225.42493 238.529476 
L 226.07554 244.571879 
L 226.72615 273.171794 
L 228.027371 235.830859 
L 228.677981 247.737733 
L 229.328592 224.770165 
L 229.979202 217.282251 
L 230.629812 246.195021 
L 231.280423 235.726193 
L 231.931033 228.443638 
L 232.581643 239.432171 
L 233.232254 211.068235 
L 233.882864 230.008706 
L 234.533474 230.292116 
L 235.184085 248.024394 
L 235.834695 223.659066 
L 236.485305 239.693134 
L 237.135915 224.540206 
L 237.786526 215.022594 
L 238.437136 212.903637 
L 239.087746 192.824525 
L 240.388967 243.316071 
L 241.690188 207.38868 
L 242.340798 212.081058 
L 242.991408 208.546627 
L 243.642019 218.526299 
L 244.292629 232.551416 
L 244.943239 211.905064 
L 245.59385 231.602532 
L 246.24446 212.748191 
L 246.89507 212.698322 
L 247.54568 201.89 
L 248.196291 220.521147 
L 248.846901 230.693845 
L 249.497511 195.504427 
L 250.148122 210.794947 
L 250.798732 206.036022 
L 251.449342 220.801628 
L 252.099953 219.366398 
L 252.750563 235.051394 
L 253.401173 240.631246 
L 254.051784 197.749437 
L 254.702394 191.898168 
L 255.353004 233.449776 
L 256.003615 244.416654 
L 256.654225 210.553318 
L 257.304835 220.746002 
L 257.955445 248.423259 
L 258.606056 242.455274 
L 259.256666 252.343794 
L 259.907276 213.315628 
L 260.557887 246.004846 
L 261.208497 220.380559 
L 261.859107 238.284524 
L 262.509718 234.33819 
L 263.160328 253.485964 
L 263.810938 222.486409 
L 264.461549 225.527726 
L 265.112159 229.652671 
L 265.762769 249.705649 
L 266.413379 211.909164 
L 267.06399 222.344004 
L 267.7146 235.555404 
L 268.36521 202.7656 
L 269.015821 204.243494 
L 269.666431 228.940015 
L 270.317041 205.751826 
L 270.967652 203.446231 
L 271.618262 227.105314 
L 272.268872 224.877803 
L 272.919483 204.289688 
L 273.570093 242.094305 
L 274.220703 238.150938 
L 274.871314 225.869765 
L 275.521924 219.056322 
L 276.172534 230.416438 
L 276.823144 217.233578 
L 277.473755 241.262538 
L 278.124365 239.359049 
L 278.774975 197.689753 
L 279.425586 212.443055 
L 280.076196 246.1543 
L 280.726806 233.021312 
L 281.377417 250.813089 
L 282.028027 235.000148 
L 282.678637 247.063731 
L 283.329248 256.391991 
L 283.979858 284.699534 
L 284.630468 251.762385 
L 285.281079 253.161381 
L 285.931689 267.370711 
L 286.582299 225.201161 
L 287.232909 279.306556 
L 287.88352 263.305567 
L 288.53413 264.120712 
L 289.18474 268.92868 
L 289.835351 265.237194 
L 290.485961 264.867335 
L 291.136571 266.598261 
L 291.787182 272.953042 
L 292.437792 273.098334 
L 293.088402 259.942419 
L 293.739013 295.488 
L 294.389623 269.930439 
L 295.040233 265.529781 
L 295.690844 252.493323 
L 296.341454 221.222641 
L 296.992064 281.92795 
L 297.642674 228.52626 
L 298.293285 249.550001 
L 298.943895 237.415047 
L 299.594505 242.566352 
L 300.245116 236.027744 
L 300.895726 226.055695 
L 301.546336 233.406649 
L 302.196947 200.099756 
L 302.847557 236.729653 
L 303.498167 194.741661 
L 304.148778 197.748819 
L 305.449998 230.769003 
L 306.100608 230.20533 
L 306.751219 214.042167 
L 307.401829 219.232546 
L 308.70305 193.863388 
L 309.35366 221.219417 
L 310.00427 215.725303 
L 310.654881 190.677256 
L 311.305491 188.271841 
L 311.956101 229.696165 
L 312.606712 202.815629 
L 313.257322 206.481026 
L 313.907932 198.845395 
L 314.558543 205.989426 
L 315.209153 204.420427 
L 315.859763 205.157823 
L 316.510373 217.152674 
L 317.160984 203.204585 
L 317.811594 207.376376 
L 318.462204 218.462215 
L 319.112815 223.647702 
L 319.763425 206.474772 
L 320.414035 201.74962 
L 321.064646 208.016574 
L 321.715256 218.474272 
L 322.365866 236.779128 
L 323.016477 217.97927 
L 323.667087 226.252657 
L 324.317697 217.339173 
L 324.968308 213.055582 
L 325.618918 204.977717 
L 326.269528 231.427319 
L 326.920138 214.955687 
L 327.570749 213.511953 
L 328.221359 212.440677 
L 328.871969 221.942199 
L 329.52258 208.977018 
L 330.17319 230.287435 
L 330.8238 212.826201 
L 331.474411 222.494025 
L 332.125021 204.454174 
L 332.775631 202.247775 
L 333.426242 217.021352 
L 334.076852 211.803514 
L 334.727462 214.864944 
L 335.378073 208.350611 
L 336.028683 208.010077 
L 336.679293 197.134893 
L 337.329903 200.731217 
L 337.980514 200.533176 
L 339.281734 238.67191 
L 339.932345 234.050826 
L 340.582955 239.677578 
L 341.233565 232.017427 
L 341.884176 260.592879 
L 342.534786 223.927984 
L 343.185396 225.304689 
L 343.836007 230.970953 
L 344.486617 211.270391 
L 345.137227 221.224421 
L 345.787837 239.61053 
L 346.438448 210.685651 
L 347.089058 222.032505 
L 347.739668 206.834544 
L 349.040889 218.954991 
L 349.691499 203.48335 
L 350.34211 224.707873 
L 351.64333 189.211693 
L 352.293941 204.595343 
L 352.944551 222.992127 
L 353.595161 225.470599 
L 354.245772 217.772573 
L 354.896382 215.475508 
L 355.546992 227.405771 
L 356.197602 230.963436 
L 356.848213 231.504623 
L 357.498823 245.012898 
L 358.149433 253.286331 
L 358.800044 239.465862 
L 359.450654 192.877286 
L 360.101264 217.106587 
L 360.751875 222.928696 
L 361.402485 226.500801 
L 362.053095 245.980008 
L 362.703706 230.538768 
L 363.354316 229.914046 
L 364.004926 243.946313 
L 364.655537 222.547041 
L 365.306147 252.177567 
L 365.956757 206.826213 
L 366.607367 221.399983 
L 367.257978 225.051108 
L 367.908588 226.200197 
L 368.559198 241.644017 
L 369.209809 245.509951 
L 369.860419 236.441087 
L 370.511029 209.671319 
L 371.16164 228.561253 
L 371.81225 226.528785 
L 372.46286 246.12742 
L 373.113471 229.212526 
L 373.764081 233.368512 
L 374.414691 244.574581 
L 375.065302 241.597864 
L 375.715912 256.646723 
L 376.366522 254.517257 
L 377.017132 253.552779 
L 377.667743 234.390312 
L 378.318353 240.917802 
L 378.968963 239.229261 
L 379.619574 238.017824 
L 380.270184 223.390066 
L 380.920794 233.622266 
L 381.571405 238.72083 
L 382.222015 218.492464 
L 382.872625 238.415911 
L 383.523236 223.665075 
L 384.173846 228.883782 
L 384.824456 227.159469 
L 385.475066 226.514652 
L 386.125677 213.914094 
L 386.776287 221.741216 
L 387.426897 194.041771 
L 388.077508 203.995018 
L 388.728118 224.480039 
L 389.378728 233.963739 
L 390.679949 215.776592 
L 391.330559 210.807906 
L 391.98117 235.599886 
L 392.63178 240.841396 
L 393.28239 215.031474 
L 393.933001 221.114169 
L 394.583611 218.19826 
L 395.234221 226.995853 
L 395.884831 202.097176 
L 396.535442 238.196553 
L 397.186052 221.578354 
L 397.836662 232.053999 
L 398.487273 233.248448 
L 398.487273 233.248448 
" style="fill:none;stroke:#008000;stroke-dasharray:9.6,2.4,1.5,2.4;stroke-dashoffset:0;stroke-width:1.5;"/>
   </g>
   <g id="line2d_25">
    <path clip-path="url(#p1f2cf2dd52)" d="M 73.832727 122.397401 
L 74.483338 81.060153 
L 75.133948 72.557368 
L 75.784558 84.924165 
L 76.435169 78.023314 
L 77.085779 73.613386 
L 77.736389 64.975568 
L 78.386999 65.886993 
L 79.03761 55.731938 
L 79.68822 76.46952 
L 80.33883 61.742133 
L 80.989441 67.146852 
L 81.640051 65.060271 
L 82.290661 67.466596 
L 82.941272 69.196358 
L 83.591882 67.78757 
L 84.242492 63.406148 
L 84.893103 63.378658 
L 85.543713 73.840157 
L 86.194323 64.067472 
L 86.844934 72.219523 
L 87.495544 65.79865 
L 88.146154 66.956948 
L 88.796764 66.055764 
L 89.447375 70.113012 
L 90.097985 64.575432 
L 90.748595 67.625842 
L 91.399206 75.000768 
L 92.049816 62.434526 
L 92.700426 65.751939 
L 93.351037 66.998498 
L 94.001647 61.542948 
L 94.652257 63.419952 
L 95.302868 67.587764 
L 95.953478 66.258295 
L 96.604088 69.711273 
L 97.254698 70.846033 
L 97.905309 69.773394 
L 98.555919 74.374912 
L 99.206529 70.906683 
L 99.85714 61.0508 
L 100.50775 66.424001 
L 101.15836 68.64721 
L 101.808971 67.692729 
L 102.459581 66.175556 
L 103.110191 65.650696 
L 103.760802 60.496274 
L 104.411412 62.55018 
L 105.062022 71.630659 
L 105.712633 61.235025 
L 106.363243 62.751709 
L 107.013853 72.894464 
L 107.664463 65.446813 
L 108.315074 73.77022 
L 108.965684 71.589421 
L 109.616294 71.758224 
L 110.266905 72.727996 
L 110.917515 66.016017 
L 111.568125 65.647693 
L 112.218736 69.718191 
L 112.869346 68.572112 
L 113.519956 66.223569 
L 114.170567 66.222405 
L 114.821177 62.485493 
L 115.471787 70.395728 
L 116.122398 76.424456 
L 116.773008 74.360982 
L 117.423618 68.475875 
L 118.074228 76.552556 
L 119.375449 66.783845 
L 120.026059 67.089614 
L 120.67667 58.720664 
L 121.32728 54.346467 
L 121.97789 59.978035 
L 122.628501 70.649884 
L 123.929721 56.458136 
L 124.580332 66.035147 
L 125.230942 58.780523 
L 125.881552 67.619021 
L 126.532163 63.343782 
L 127.182773 64.492069 
L 127.833383 60.086904 
L 128.483993 59.04251 
L 129.134604 65.091113 
L 129.785214 64.92147 
L 130.435824 58.434277 
L 131.086435 59.204879 
L 131.737045 60.798508 
L 132.387655 57.840054 
L 133.038266 61.048722 
L 133.688876 55.256442 
L 134.339486 57.056106 
L 134.990097 61.3731 
L 135.640707 62.783361 
L 136.291317 61.817869 
L 136.941927 58.957003 
L 137.592538 65.576229 
L 138.243148 60.636654 
L 138.893758 69.606844 
L 139.544369 57.327704 
L 140.194979 55.643217 
L 140.845589 59.017347 
L 141.4962 60.885698 
L 142.14681 54.065263 
L 142.79742 59.335546 
L 143.448031 53.568 
L 144.098641 63.100105 
L 144.749251 59.257386 
L 145.399862 63.872523 
L 146.050472 62.362749 
L 146.701082 71.454187 
L 147.351692 62.536734 
L 148.002303 60.661917 
L 148.652913 66.910958 
L 149.303523 65.568365 
L 149.954134 61.318963 
L 150.604744 60.923042 
L 151.255354 58.770897 
L 151.905965 68.279481 
L 152.556575 65.305371 
L 153.207185 72.257674 
L 153.857796 61.288486 
L 154.508406 69.482526 
L 155.159016 65.844908 
L 155.809627 65.41459 
L 156.460237 68.090548 
L 157.110847 64.810666 
L 157.761457 68.511928 
L 158.412068 70.205521 
L 159.062678 64.296964 
L 159.713288 70.46539 
L 160.363899 70.190054 
L 161.014509 67.059118 
L 161.665119 59.9421 
L 162.31573 61.800684 
L 162.96634 68.914023 
L 163.61695 70.398944 
L 164.267561 73.653286 
L 164.918171 68.03108 
L 165.568781 70.481734 
L 166.219392 62.271052 
L 166.870002 68.95385 
L 167.520612 62.452509 
L 168.171222 67.421128 
L 168.821833 63.068343 
L 169.472443 60.879771 
L 170.123053 62.243939 
L 170.773664 62.970085 
L 171.424274 66.237361 
L 172.074884 65.73226 
L 172.725495 68.743716 
L 173.376105 59.208978 
L 174.026715 58.18433 
L 174.677326 58.146957 
L 175.327936 58.741026 
L 175.978546 62.023499 
L 176.629156 62.806167 
L 177.279767 69.922154 
L 177.930377 63.563374 
L 178.580987 60.929765 
L 179.231598 63.797904 
L 179.882208 60.424895 
L 180.532818 69.398504 
L 181.183429 57.963249 
L 181.834039 61.33377 
L 182.484649 62.479047 
L 183.13526 66.032314 
L 183.78587 63.497803 
L 184.43648 69.630735 
L 185.087091 70.131192 
L 185.737701 68.490425 
L 186.388311 63.279646 
L 187.038921 72.71933 
L 187.689532 65.954936 
L 188.340142 75.948675 
L 188.990752 73.412543 
L 189.641363 73.640263 
L 190.291973 69.511362 
L 190.942583 67.434933 
L 191.593194 72.72807 
L 192.243804 69.288744 
L 192.894414 68.32735 
L 193.545025 79.621674 
L 194.195635 67.087371 
L 194.846245 65.784303 
L 195.496856 73.482142 
L 196.147466 73.400283 
L 196.798076 68.543517 
L 197.448686 69.494888 
L 198.099297 67.551049 
L 198.749907 65.125305 
L 199.400517 69.201376 
L 200.051128 67.446524 
L 200.701738 59.609101 
L 201.352348 72.68024 
L 202.002959 74.38851 
L 202.653569 76.999541 
L 203.304179 72.480687 
L 203.95479 59.975405 
L 204.6054 60.460309 
L 205.25601 66.201658 
L 205.906621 70.598709 
L 206.557231 69.798573 
L 207.207841 69.847029 
L 207.858451 65.685904 
L 208.509062 64.077406 
L 209.159672 70.155182 
L 209.810282 63.933749 
L 210.460893 74.133647 
L 211.111503 70.82532 
L 211.762113 62.787242 
L 212.412724 72.058829 
L 213.063334 69.219155 
L 213.713944 70.268114 
L 214.364555 77.851452 
L 215.015165 64.127529 
L 215.665775 68.938502 
L 216.316385 72.369005 
L 217.617606 61.418091 
L 218.918827 74.451979 
L 219.569437 67.131565 
L 220.220047 67.270668 
L 220.870658 80.842557 
L 221.521268 72.304639 
L 222.171878 68.101535 
L 222.822489 62.230222 
L 223.473099 71.113885 
L 224.123709 61.755535 
L 224.77432 69.761885 
L 225.42493 66.842979 
L 226.07554 70.292028 
L 226.72615 63.802822 
L 227.376761 68.99018 
L 228.027371 68.667295 
L 228.677981 70.979991 
L 229.328592 68.691357 
L 229.979202 80.123331 
L 230.629812 66.501269 
L 231.280423 74.994473 
L 231.931033 72.209005 
L 232.581643 76.78187 
L 233.232254 74.027144 
L 233.882864 74.191034 
L 234.533474 63.243364 
L 235.184085 70.407952 
L 235.834695 66.33663 
L 236.485305 67.436333 
L 237.135915 69.78322 
L 237.786526 80.503112 
L 238.437136 82.683342 
L 239.087746 72.298431 
L 239.738357 75.190585 
L 240.388967 67.759351 
L 241.039577 72.428402 
L 241.690188 70.141569 
L 242.340798 74.174429 
L 242.991408 73.53465 
L 243.642019 74.968643 
L 244.292629 78.083517 
L 244.943239 78.517358 
L 245.59385 76.119354 
L 246.24446 64.085989 
L 246.89507 72.11752 
L 247.54568 82.662193 
L 248.196291 70.246422 
L 248.846901 67.970189 
L 249.497511 76.02195 
L 250.148122 73.7233 
L 250.798732 73.548111 
L 252.099953 73.504774 
L 252.750563 73.51636 
L 253.401173 65.555781 
L 254.051784 79.57062 
L 254.702394 81.077183 
L 255.353004 71.025409 
L 256.003615 69.082163 
L 256.654225 74.147523 
L 257.304835 73.929723 
L 257.955445 71.598795 
L 258.606056 66.270553 
L 259.256666 70.872226 
L 259.907276 70.082646 
L 260.557887 66.827288 
L 261.208497 71.085629 
L 261.859107 59.93051 
L 262.509718 61.237129 
L 263.160328 57.859658 
L 263.810938 64.606583 
L 264.461549 64.355399 
L 265.112159 65.954092 
L 265.762769 59.782744 
L 266.413379 65.554708 
L 267.06399 67.930681 
L 267.7146 66.478632 
L 268.36521 72.951304 
L 269.015821 66.984809 
L 269.666431 67.268748 
L 270.967652 76.693686 
L 272.268872 61.412036 
L 272.919483 69.297249 
L 273.570093 73.042568 
L 274.220703 63.850797 
L 274.871314 69.85932 
L 275.521924 73.876615 
L 276.172534 71.261097 
L 276.823144 72.347709 
L 277.473755 66.093876 
L 278.124365 68.693998 
L 278.774975 72.560988 
L 280.076196 77.428199 
L 280.726806 67.852577 
L 281.377417 65.511417 
L 282.028027 66.752164 
L 282.678637 59.051887 
L 283.329248 68.849978 
L 284.630468 60.891657 
L 285.281079 63.692546 
L 285.931689 57.603175 
L 286.582299 75.260486 
L 287.232909 66.388919 
L 287.88352 61.199888 
L 288.53413 63.092076 
L 289.18474 60.48812 
L 289.835351 66.530938 
L 290.485961 65.886304 
L 291.136571 67.060263 
L 291.787182 56.80113 
L 292.437792 57.185336 
L 293.088402 67.628373 
L 293.739013 67.056499 
L 294.389623 63.645616 
L 295.040233 64.090792 
L 295.690844 67.400263 
L 296.341454 65.93058 
L 296.992064 60.779401 
L 297.642674 67.226045 
L 298.293285 60.012364 
L 298.943895 57.368748 
L 299.594505 62.321543 
L 300.245116 64.149099 
L 300.895726 65.076398 
L 301.546336 58.277484 
L 302.196947 69.764551 
L 302.847557 59.977598 
L 303.498167 69.366603 
L 304.148778 65.109508 
L 304.799388 66.211825 
L 305.449998 59.29972 
L 306.100608 60.684593 
L 307.401829 67.374258 
L 308.052439 66.641953 
L 308.70305 75.341169 
L 309.35366 61.93306 
L 310.00427 62.71695 
L 310.654881 71.111997 
L 311.305491 72.479759 
L 311.956101 58.484796 
L 312.606712 70.0897 
L 313.257322 74.264554 
L 313.907932 68.05537 
L 314.558543 65.926089 
L 315.209153 72.898878 
L 315.859763 73.352505 
L 316.510373 68.236698 
L 317.160984 70.588426 
L 317.811594 69.317466 
L 318.462204 63.658231 
L 319.112815 70.890572 
L 319.763425 73.32144 
L 320.414035 72.528375 
L 321.064646 68.962509 
L 321.715256 67.283051 
L 322.365866 64.440631 
L 323.016477 74.888962 
L 323.667087 64.28376 
L 324.317697 63.289276 
L 324.968308 70.369173 
L 325.618918 71.281418 
L 326.269528 57.799648 
L 326.920138 67.651104 
L 327.570749 69.708566 
L 328.221359 67.71597 
L 328.871969 66.569725 
L 329.52258 66.044209 
L 330.17319 61.316418 
L 330.8238 71.12094 
L 331.474411 63.916845 
L 332.125021 73.36881 
L 332.775631 69.104989 
L 333.426242 72.452952 
L 334.076852 66.812887 
L 334.727462 68.805533 
L 335.378073 66.195974 
L 336.028683 70.654787 
L 336.679293 73.183605 
L 337.329903 77.162643 
L 337.980514 76.82412 
L 338.631124 66.559971 
L 339.281734 65.865935 
L 339.932345 63.839667 
L 340.582955 62.894082 
L 341.233565 58.853373 
L 341.884176 63.796399 
L 342.534786 65.690621 
L 343.185396 61.105139 
L 343.836007 63.365827 
L 344.486617 62.217616 
L 345.137227 69.912195 
L 345.787837 65.851162 
L 346.438448 70.24445 
L 347.089058 62.288481 
L 347.739668 73.721419 
L 348.390279 71.894118 
L 349.040889 63.55214 
L 349.691499 71.40959 
L 350.34211 61.390422 
L 350.99272 65.567334 
L 351.64333 78.786873 
L 352.293941 66.822193 
L 352.944551 59.994942 
L 353.595161 66.724884 
L 354.245772 67.891704 
L 354.896382 66.509424 
L 355.546992 62.978161 
L 356.197602 73.020341 
L 356.848213 62.054391 
L 358.149433 61.814565 
L 358.800044 65.36856 
L 359.450654 72.828672 
L 360.101264 77.030536 
L 360.751875 69.28219 
L 361.402485 68.237234 
L 362.053095 61.838255 
L 363.354316 69.234232 
L 364.004926 63.398237 
L 364.655537 67.275088 
L 365.306147 65.630619 
L 365.956757 66.720121 
L 366.607367 71.139015 
L 367.257978 65.713922 
L 367.908588 67.115645 
L 368.559198 65.986255 
L 369.209809 67.042299 
L 369.860419 68.596913 
L 370.511029 77.02329 
L 371.16164 63.687953 
L 371.81225 72.016263 
L 372.46286 68.319201 
L 373.113471 69.208243 
L 373.764081 64.770433 
L 374.414691 63.747793 
L 375.065302 66.431492 
L 375.715912 65.444224 
L 376.366522 63.939182 
L 377.017132 67.417322 
L 377.667743 66.400706 
L 378.318353 62.437526 
L 378.968963 66.68099 
L 379.619574 60.583606 
L 380.270184 66.279117 
L 380.920794 65.2852 
L 381.571405 64.788518 
L 382.222015 65.84388 
L 382.872625 63.395457 
L 383.523236 60.061646 
L 384.173846 59.569318 
L 384.824456 66.614945 
L 385.475066 70.923712 
L 386.125677 73.662689 
L 386.776287 61.926391 
L 387.426897 70.538136 
L 388.077508 71.883911 
L 388.728118 67.995804 
L 389.378728 57.814509 
L 390.029339 61.925374 
L 390.679949 67.51239 
L 391.330559 70.437597 
L 391.98117 61.463772 
L 392.63178 59.666762 
L 393.28239 72.175438 
L 393.933001 65.715472 
L 394.583611 66.858148 
L 395.234221 66.145597 
L 395.884831 69.186069 
L 396.535442 66.570388 
L 397.186052 62.882204 
L 397.836662 66.250485 
L 398.487273 62.890714 
L 398.487273 62.890714 
" style="fill:none;stroke:#008000;stroke-dasharray:9.6,2.4,1.5,2.4;stroke-dashoffset:0;stroke-width:1.5;"/>
   </g>
   <g id="line2d_26">
    <path clip-path="url(#p1f2cf2dd52)" d="M 73.832727 97.432004 
L 74.483338 97.098077 
L 75.133948 97.038682 
L 75.784558 94.76842 
L 82.290661 94.732073 
L 82.941272 93.863128 
L 86.844934 93.863128 
L 87.495544 93.64073 
L 89.447375 93.396583 
L 130.435824 93.292748 
L 131.086435 93.1231 
L 146.701082 93.1231 
L 147.351692 92.985114 
L 205.25601 92.898543 
L 206.557231 92.804836 
L 366.607367 92.72702 
L 367.257978 92.608827 
L 398.487273 92.608827 
L 398.487273 92.608827 
" style="fill:none;stroke:#ff0000;stroke-linecap:square;stroke-width:1.5;"/>
   </g>
   <g id="patch_3">
    <path d="M 57.6 307.584 
L 57.6 41.472 
" style="fill:none;stroke:#000000;stroke-linecap:square;stroke-linejoin:miter;stroke-width:0.8;"/>
   </g>
   <g id="patch_4">
    <path d="M 414.72 307.584 
L 414.72 41.472 
" style="fill:none;stroke:#000000;stroke-linecap:square;stroke-linejoin:miter;stroke-width:0.8;"/>
   </g>
   <g id="patch_5">
    <path d="M 57.6 307.584 
L 414.72 307.584 
" style="fill:none;stroke:#000000;stroke-linecap:square;stroke-linejoin:miter;stroke-width:0.8;"/>
   </g>
   <g id="patch_6">
    <path d="M 57.6 41.472 
L 414.72 41.472 
" style="fill:none;stroke:#000000;stroke-linecap:square;stroke-linejoin:miter;stroke-width:0.8;"/>
   </g>
   <g id="text_14">
    <!-- Population's average and best fitness -->
    <defs>
     <path d="M 19.671875 64.796875 
L 19.671875 37.40625 
L 32.078125 37.40625 
Q 38.96875 37.40625 42.71875 40.96875 
Q 46.484375 44.53125 46.484375 51.125 
Q 46.484375 57.671875 42.71875 61.234375 
Q 38.96875 64.796875 32.078125 64.796875 
z
M 9.8125 72.90625 
L 32.078125 72.90625 
Q 44.34375 72.90625 50.609375 67.359375 
Q 56.890625 61.8125 56.890625 51.125 
Q 56.890625 40.328125 50.609375 34.8125 
Q 44.34375 29.296875 32.078125 29.296875 
L 19.671875 29.296875 
L 19.671875 0 
L 9.8125 0 
z
" id="DejaVuSans-80"/>
     <path d="M 18.109375 8.203125 
L 18.109375 -20.796875 
L 9.078125 -20.796875 
L 9.078125 54.6875 
L 18.109375 54.6875 
L 18.109375 46.390625 
Q 20.953125 51.265625 25.265625 53.625 
Q 29.59375 56 35.59375 56 
Q 45.5625 56 51.78125 48.09375 
Q 58.015625 40.1875 58.015625 27.296875 
Q 58.015625 14.40625 51.78125 6.484375 
Q 45.5625 -1.421875 35.59375 -1.421875 
Q 29.59375 -1.421875 25.265625 0.953125 
Q 20.953125 3.328125 18.109375 8.203125 
z
M 48.6875 27.296875 
Q 48.6875 37.203125 44.609375 42.84375 
Q 40.53125 48.484375 33.40625 48.484375 
Q 26.265625 48.484375 22.1875 42.84375 
Q 18.109375 37.203125 18.109375 27.296875 
Q 18.109375 17.390625 22.1875 11.75 
Q 26.265625 6.109375 33.40625 6.109375 
Q 40.53125 6.109375 44.609375 11.75 
Q 48.6875 17.390625 48.6875 27.296875 
z
" id="DejaVuSans-112"/>
     <path d="M 8.5 21.578125 
L 8.5 54.6875 
L 17.484375 54.6875 
L 17.484375 21.921875 
Q 17.484375 14.15625 20.5 10.265625 
Q 23.53125 6.390625 29.59375 6.390625 
Q 36.859375 6.390625 41.078125 11.03125 
Q 45.3125 15.671875 45.3125 23.6875 
L 45.3125 54.6875 
L 54.296875 54.6875 
L 54.296875 0 
L 45.3125 0 
L 45.3125 8.40625 
Q 42.046875 3.421875 37.71875 1 
Q 33.40625 -1.421875 27.6875 -1.421875 
Q 18.265625 -1.421875 13.375 4.4375 
Q 8.5 10.296875 8.5 21.578125 
z
M 31.109375 56 
z
" id="DejaVuSans-117"/>
     <path d="M 9.421875 75.984375 
L 18.40625 75.984375 
L 18.40625 0 
L 9.421875 0 
z
" id="DejaVuSans-108"/>
     <path d="M 17.921875 72.90625 
L 17.921875 45.796875 
L 9.625 45.796875 
L 9.625 72.90625 
z
" id="DejaVuSans-39"/>
     <path id="DejaVuSans-32"/>
     <path d="M 2.984375 54.6875 
L 12.5 54.6875 
L 29.59375 8.796875 
L 46.6875 54.6875 
L 56.203125 54.6875 
L 35.6875 0 
L 23.484375 0 
z
" id="DejaVuSans-118"/>
     <path d="M 45.40625 27.984375 
Q 45.40625 37.75 41.375 43.109375 
Q 37.359375 48.484375 30.078125 48.484375 
Q 22.859375 48.484375 18.828125 43.109375 
Q 14.796875 37.75 14.796875 27.984375 
Q 14.796875 18.265625 18.828125 12.890625 
Q 22.859375 7.515625 30.078125 7.515625 
Q 37.359375 7.515625 41.375 12.890625 
Q 45.40625 18.265625 45.40625 27.984375 
z
M 54.390625 6.78125 
Q 54.390625 -7.171875 48.1875 -13.984375 
Q 42 -20.796875 29.203125 -20.796875 
Q 24.46875 -20.796875 20.265625 -20.09375 
Q 16.0625 -19.390625 12.109375 -17.921875 
L 12.109375 -9.1875 
Q 16.0625 -11.328125 19.921875 -12.34375 
Q 23.78125 -13.375 27.78125 -13.375 
Q 36.625 -13.375 41.015625 -8.765625 
Q 45.40625 -4.15625 45.40625 5.171875 
L 45.40625 9.625 
Q 42.625 4.78125 38.28125 2.390625 
Q 33.9375 0 27.875 0 
Q 17.828125 0 11.671875 7.65625 
Q 5.515625 15.328125 5.515625 27.984375 
Q 5.515625 40.671875 11.671875 48.328125 
Q 17.828125 56 27.875 56 
Q 33.9375 56 38.28125 53.609375 
Q 42.625 51.21875 45.40625 46.390625 
L 45.40625 54.6875 
L 54.390625 54.6875 
z
" id="DejaVuSans-103"/>
     <path d="M 45.40625 46.390625 
L 45.40625 75.984375 
L 54.390625 75.984375 
L 54.390625 0 
L 45.40625 0 
L 45.40625 8.203125 
Q 42.578125 3.328125 38.25 0.953125 
Q 33.9375 -1.421875 27.875 -1.421875 
Q 17.96875 -1.421875 11.734375 6.484375 
Q 5.515625 14.40625 5.515625 27.296875 
Q 5.515625 40.1875 11.734375 48.09375 
Q 17.96875 56 27.875 56 
Q 33.9375 56 38.25 53.625 
Q 42.578125 51.265625 45.40625 46.390625 
z
M 14.796875 27.296875 
Q 14.796875 17.390625 18.875 11.75 
Q 22.953125 6.109375 30.078125 6.109375 
Q 37.203125 6.109375 41.296875 11.75 
Q 45.40625 17.390625 45.40625 27.296875 
Q 45.40625 37.203125 41.296875 42.84375 
Q 37.203125 48.484375 30.078125 48.484375 
Q 22.953125 48.484375 18.875 42.84375 
Q 14.796875 37.203125 14.796875 27.296875 
z
" id="DejaVuSans-100"/>
     <path d="M 48.6875 27.296875 
Q 48.6875 37.203125 44.609375 42.84375 
Q 40.53125 48.484375 33.40625 48.484375 
Q 26.265625 48.484375 22.1875 42.84375 
Q 18.109375 37.203125 18.109375 27.296875 
Q 18.109375 17.390625 22.1875 11.75 
Q 26.265625 6.109375 33.40625 6.109375 
Q 40.53125 6.109375 44.609375 11.75 
Q 48.6875 17.390625 48.6875 27.296875 
z
M 18.109375 46.390625 
Q 20.953125 51.265625 25.265625 53.625 
Q 29.59375 56 35.59375 56 
Q 45.5625 56 51.78125 48.09375 
Q 58.015625 40.1875 58.015625 27.296875 
Q 58.015625 14.40625 51.78125 6.484375 
Q 45.5625 -1.421875 35.59375 -1.421875 
Q 29.59375 -1.421875 25.265625 0.953125 
Q 20.953125 3.328125 18.109375 8.203125 
L 18.109375 0 
L 9.078125 0 
L 9.078125 75.984375 
L 18.109375 75.984375 
z
" id="DejaVuSans-98"/>
     <path d="M 37.109375 75.984375 
L 37.109375 68.5 
L 28.515625 68.5 
Q 23.6875 68.5 21.796875 66.546875 
Q 19.921875 64.59375 19.921875 59.515625 
L 19.921875 54.6875 
L 34.71875 54.6875 
L 34.71875 47.703125 
L 19.921875 47.703125 
L 19.921875 0 
L 10.890625 0 
L 10.890625 47.703125 
L 2.296875 47.703125 
L 2.296875 54.6875 
L 10.890625 54.6875 
L 10.890625 58.5 
Q 10.890625 67.625 15.140625 71.796875 
Q 19.390625 75.984375 28.609375 75.984375 
z
" id="DejaVuSans-102"/>
    </defs>
    <g transform="translate(123.315 35.472)scale(0.12 -0.12)">
     <use xlink:href="#DejaVuSans-80"/>
     <use x="60.255859" xlink:href="#DejaVuSans-111"/>
     <use x="121.4375" xlink:href="#DejaVuSans-112"/>
     <use x="184.914062" xlink:href="#DejaVuSans-117"/>
     <use x="248.292969" xlink:href="#DejaVuSans-108"/>
     <use x="276.076172" xlink:href="#DejaVuSans-97"/>
     <use x="337.355469" xlink:href="#DejaVuSans-116"/>
     <use x="376.564453" xlink:href="#DejaVuSans-105"/>
     <use x="404.347656" xlink:href="#DejaVuSans-111"/>
     <use x="465.529297" xlink:href="#DejaVuSans-110"/>
     <use x="528.908203" xlink:href="#DejaVuSans-39"/>
     <use x="556.398438" xlink:href="#DejaVuSans-115"/>
     <use x="608.498047" xlink:href="#DejaVuSans-32"/>
     <use x="640.285156" xlink:href="#DejaVuSans-97"/>
     <use x="701.564453" xlink:href="#DejaVuSans-118"/>
     <use x="760.744141" xlink:href="#DejaVuSans-101"/>
     <use x="822.267578" xlink:href="#DejaVuSans-114"/>
     <use x="863.380859" xlink:href="#DejaVuSans-97"/>
     <use x="924.660156" xlink:href="#DejaVuSans-103"/>
     <use x="988.136719" xlink:href="#DejaVuSans-101"/>
     <use x="1049.660156" xlink:href="#DejaVuSans-32"/>
     <use x="1081.447266" xlink:href="#DejaVuSans-97"/>
     <use x="1142.726562" xlink:href="#DejaVuSans-110"/>
     <use x="1206.105469" xlink:href="#DejaVuSans-100"/>
     <use x="1269.582031" xlink:href="#DejaVuSans-32"/>
     <use x="1301.369141" xlink:href="#DejaVuSans-98"/>
     <use x="1364.845703" xlink:href="#DejaVuSans-101"/>
     <use x="1426.369141" xlink:href="#DejaVuSans-115"/>
     <use x="1478.46875" xlink:href="#DejaVuSans-116"/>
     <use x="1517.677734" xlink:href="#DejaVuSans-32"/>
     <use x="1549.464844" xlink:href="#DejaVuSans-102"/>
     <use x="1584.669922" xlink:href="#DejaVuSans-105"/>
     <use x="1612.453125" xlink:href="#DejaVuSans-116"/>
     <use x="1651.662109" xlink:href="#DejaVuSans-110"/>
     <use x="1715.041016" xlink:href="#DejaVuSans-101"/>
     <use x="1776.564453" xlink:href="#DejaVuSans-115"/>
     <use x="1828.664062" xlink:href="#DejaVuSans-115"/>
    </g>
   </g>
   <g id="legend_1">
    <g id="patch_7">
     <path d="M 334.779375 302.584 
L 407.72 302.584 
Q 409.72 302.584 409.72 300.584 
L 409.72 242.8715 
Q 409.72 240.8715 407.72 240.8715 
L 334.779375 240.8715 
Q 332.779375 240.8715 332.779375 242.8715 
L 332.779375 300.584 
Q 332.779375 302.584 334.779375 302.584 
z
" style="fill:#ffffff;opacity:0.8;stroke:#cccccc;stroke-linejoin:miter;"/>
    </g>
    <g id="line2d_27">
     <path d="M 336.779375 248.969937 
L 356.779375 248.969937 
" style="fill:none;stroke:#0000ff;stroke-linecap:square;stroke-width:1.5;"/>
    </g>
    <g id="line2d_28"/>
    <g id="text_15">
     <!-- average -->
     <g transform="translate(364.779375 252.469937)scale(0.1 -0.1)">
      <use xlink:href="#DejaVuSans-97"/>
      <use x="61.279297" xlink:href="#DejaVuSans-118"/>
      <use x="120.458984" xlink:href="#DejaVuSans-101"/>
      <use x="181.982422" xlink:href="#DejaVuSans-114"/>
      <use x="223.095703" xlink:href="#DejaVuSans-97"/>
      <use x="284.375" xlink:href="#DejaVuSans-103"/>
      <use x="347.851562" xlink:href="#DejaVuSans-101"/>
     </g>
    </g>
    <g id="line2d_29">
     <path d="M 336.779375 263.648062 
L 356.779375 263.648062 
" style="fill:none;stroke:#008000;stroke-dasharray:9.6,2.4,1.5,2.4;stroke-dashoffset:0;stroke-width:1.5;"/>
    </g>
    <g id="line2d_30"/>
    <g id="text_16">
     <!-- -1 sd -->
     <defs>
      <path d="M 4.890625 31.390625 
L 31.203125 31.390625 
L 31.203125 23.390625 
L 4.890625 23.390625 
z
" id="DejaVuSans-45"/>
     </defs>
     <g transform="translate(364.779375 267.148062)scale(0.1 -0.1)">
      <use xlink:href="#DejaVuSans-45"/>
      <use x="36.083984" xlink:href="#DejaVuSans-49"/>
      <use x="99.707031" xlink:href="#DejaVuSans-32"/>
      <use x="131.494141" xlink:href="#DejaVuSans-115"/>
      <use x="183.59375" xlink:href="#DejaVuSans-100"/>
     </g>
    </g>
    <g id="line2d_31">
     <path d="M 336.779375 278.326187 
L 356.779375 278.326187 
" style="fill:none;stroke:#008000;stroke-dasharray:9.6,2.4,1.5,2.4;stroke-dashoffset:0;stroke-width:1.5;"/>
    </g>
    <g id="line2d_32"/>
    <g id="text_17">
     <!-- +1 sd -->
     <defs>
      <path d="M 46 62.703125 
L 46 35.5 
L 73.1875 35.5 
L 73.1875 27.203125 
L 46 27.203125 
L 46 0 
L 37.796875 0 
L 37.796875 27.203125 
L 10.59375 27.203125 
L 10.59375 35.5 
L 37.796875 35.5 
L 37.796875 62.703125 
z
" id="DejaVuSans-43"/>
     </defs>
     <g transform="translate(364.779375 281.826187)scale(0.1 -0.1)">
      <use xlink:href="#DejaVuSans-43"/>
      <use x="83.789062" xlink:href="#DejaVuSans-49"/>
      <use x="147.412109" xlink:href="#DejaVuSans-32"/>
      <use x="179.199219" xlink:href="#DejaVuSans-115"/>
      <use x="231.298828" xlink:href="#DejaVuSans-100"/>
     </g>
    </g>
    <g id="line2d_33">
     <path d="M 336.779375 293.004312 
L 356.779375 293.004312 
" style="fill:none;stroke:#ff0000;stroke-linecap:square;stroke-width:1.5;"/>
    </g>
    <g id="line2d_34"/>
    <g id="text_18">
     <!-- best -->
     <g transform="translate(364.779375 296.504312)scale(0.1 -0.1)">
      <use xlink:href="#DejaVuSans-98"/>
      <use x="63.476562" xlink:href="#DejaVuSans-101"/>
      <use x="125" xlink:href="#DejaVuSans-115"/>
      <use x="177.099609" xlink:href="#DejaVuSans-116"/>
     </g>
    </g>
   </g>
  </g>
 </g>
 <defs>
  <clipPath id="p1f2cf2dd52">
   <rect height="266.112" width="357.12" x="57.6" y="41.472"/>
  </clipPath>
 </defs>
</svg>
