<?xml version="1.0" encoding="utf-8" standalone="no"?>
<!DOCTYPE svg PUBLIC "-//W3C//DTD SVG 1.1//EN"
  "http://www.w3.org/Graphics/SVG/1.1/DTD/svg11.dtd">
<!-- Created with matplotlib (https://matplotlib.org/) -->
<svg height="345.6pt" version="1.1" viewBox="0 0 460.8 345.6" width="460.8pt" xmlns="http://www.w3.org/2000/svg" xmlns:xlink="http://www.w3.org/1999/xlink">
 <defs>
  <style type="text/css">
*{stroke-linecap:butt;stroke-linejoin:round;}
  </style>
 </defs>
 <g id="figure_1">
  <g id="patch_1">
   <path d="M 0 345.6 
L 460.8 345.6 
L 460.8 0 
L 0 0 
z
" style="fill:#ffffff;"/>
  </g>
  <g id="axes_1">
   <g id="patch_2">
    <path d="M 57.6 307.584 
L 414.72 307.584 
L 414.72 41.472 
L 57.6 41.472 
z
" style="fill:#ffffff;"/>
   </g>
   <g id="matplotlib.axis_1">
    <g id="xtick_1">
     <g id="line2d_1">
      <path clip-path="url(#p80e628f186)" d="M 73.832727 307.584 
L 73.832727 41.472 
" style="fill:none;stroke:#b0b0b0;stroke-linecap:square;stroke-width:0.8;"/>
     </g>
     <g id="line2d_2">
      <defs>
       <path d="M 0 0 
L 0 3.5 
" id="m282b87f4b1" style="stroke:#000000;stroke-width:0.8;"/>
      </defs>
      <g>
       <use style="stroke:#000000;stroke-width:0.8;" x="73.832727" xlink:href="#m282b87f4b1" y="307.584"/>
      </g>
     </g>
     <g id="text_1">
      <!-- 0 -->
      <defs>
       <path d="M 31.78125 66.40625 
Q 24.171875 66.40625 20.328125 58.90625 
Q 16.5 51.421875 16.5 36.375 
Q 16.5 21.390625 20.328125 13.890625 
Q 24.171875 6.390625 31.78125 6.390625 
Q 39.453125 6.390625 43.28125 13.890625 
Q 47.125 21.390625 47.125 36.375 
Q 47.125 51.421875 43.28125 58.90625 
Q 39.453125 66.40625 31.78125 66.40625 
z
M 31.78125 74.21875 
Q 44.046875 74.21875 50.515625 64.515625 
Q 56.984375 54.828125 56.984375 36.375 
Q 56.984375 17.96875 50.515625 8.265625 
Q 44.046875 -1.421875 31.78125 -1.421875 
Q 19.53125 -1.421875 13.0625 8.265625 
Q 6.59375 17.96875 6.59375 36.375 
Q 6.59375 54.828125 13.0625 64.515625 
Q 19.53125 74.21875 31.78125 74.21875 
z
" id="DejaVuSans-48"/>
      </defs>
      <g transform="translate(70.651477 322.182437)scale(0.1 -0.1)">
       <use xlink:href="#DejaVuSans-48"/>
      </g>
     </g>
    </g>
    <g id="xtick_2">
     <g id="line2d_3">
      <path clip-path="url(#p80e628f186)" d="M 138.893758 307.584 
L 138.893758 41.472 
" style="fill:none;stroke:#b0b0b0;stroke-linecap:square;stroke-width:0.8;"/>
     </g>
     <g id="line2d_4">
      <g>
       <use style="stroke:#000000;stroke-width:0.8;" x="138.893758" xlink:href="#m282b87f4b1" y="307.584"/>
      </g>
     </g>
     <g id="text_2">
      <!-- 100 -->
      <defs>
       <path d="M 12.40625 8.296875 
L 28.515625 8.296875 
L 28.515625 63.921875 
L 10.984375 60.40625 
L 10.984375 69.390625 
L 28.421875 72.90625 
L 38.28125 72.90625 
L 38.28125 8.296875 
L 54.390625 8.296875 
L 54.390625 0 
L 12.40625 0 
z
" id="DejaVuSans-49"/>
      </defs>
      <g transform="translate(129.350008 322.182437)scale(0.1 -0.1)">
       <use xlink:href="#DejaVuSans-49"/>
       <use x="63.623047" xlink:href="#DejaVuSans-48"/>
       <use x="127.246094" xlink:href="#DejaVuSans-48"/>
      </g>
     </g>
    </g>
    <g id="xtick_3">
     <g id="line2d_5">
      <path clip-path="url(#p80e628f186)" d="M 203.95479 307.584 
L 203.95479 41.472 
" style="fill:none;stroke:#b0b0b0;stroke-linecap:square;stroke-width:0.8;"/>
     </g>
     <g id="line2d_6">
      <g>
       <use style="stroke:#000000;stroke-width:0.8;" x="203.95479" xlink:href="#m282b87f4b1" y="307.584"/>
      </g>
     </g>
     <g id="text_3">
      <!-- 200 -->
      <defs>
       <path d="M 19.1875 8.296875 
L 53.609375 8.296875 
L 53.609375 0 
L 7.328125 0 
L 7.328125 8.296875 
Q 12.9375 14.109375 22.625 23.890625 
Q 32.328125 33.6875 34.8125 36.53125 
Q 39.546875 41.84375 41.421875 45.53125 
Q 43.3125 49.21875 43.3125 52.78125 
Q 43.3125 58.59375 39.234375 62.25 
Q 35.15625 65.921875 28.609375 65.921875 
Q 23.96875 65.921875 18.8125 64.3125 
Q 13.671875 62.703125 7.8125 59.421875 
L 7.8125 69.390625 
Q 13.765625 71.78125 18.9375 73 
Q 24.125 74.21875 28.421875 74.21875 
Q 39.75 74.21875 46.484375 68.546875 
Q 53.21875 62.890625 53.21875 53.421875 
Q 53.21875 48.921875 51.53125 44.890625 
Q 49.859375 40.875 45.40625 35.40625 
Q 44.1875 33.984375 37.640625 27.21875 
Q 31.109375 20.453125 19.1875 8.296875 
z
" id="DejaVuSans-50"/>
      </defs>
      <g transform="translate(194.41104 322.182437)scale(0.1 -0.1)">
       <use xlink:href="#DejaVuSans-50"/>
       <use x="63.623047" xlink:href="#DejaVuSans-48"/>
       <use x="127.246094" xlink:href="#DejaVuSans-48"/>
      </g>
     </g>
    </g>
    <g id="xtick_4">
     <g id="line2d_7">
      <path clip-path="url(#p80e628f186)" d="M 269.015821 307.584 
L 269.015821 41.472 
" style="fill:none;stroke:#b0b0b0;stroke-linecap:square;stroke-width:0.8;"/>
     </g>
     <g id="line2d_8">
      <g>
       <use style="stroke:#000000;stroke-width:0.8;" x="269.015821" xlink:href="#m282b87f4b1" y="307.584"/>
      </g>
     </g>
     <g id="text_4">
      <!-- 300 -->
      <defs>
       <path d="M 40.578125 39.3125 
Q 47.65625 37.796875 51.625 33 
Q 55.609375 28.21875 55.609375 21.1875 
Q 55.609375 10.40625 48.1875 4.484375 
Q 40.765625 -1.421875 27.09375 -1.421875 
Q 22.515625 -1.421875 17.65625 -0.515625 
Q 12.796875 0.390625 7.625 2.203125 
L 7.625 11.71875 
Q 11.71875 9.328125 16.59375 8.109375 
Q 21.484375 6.890625 26.8125 6.890625 
Q 36.078125 6.890625 40.9375 10.546875 
Q 45.796875 14.203125 45.796875 21.1875 
Q 45.796875 27.640625 41.28125 31.265625 
Q 36.765625 34.90625 28.71875 34.90625 
L 20.21875 34.90625 
L 20.21875 43.015625 
L 29.109375 43.015625 
Q 36.375 43.015625 40.234375 45.921875 
Q 44.09375 48.828125 44.09375 54.296875 
Q 44.09375 59.90625 40.109375 62.90625 
Q 36.140625 65.921875 28.71875 65.921875 
Q 24.65625 65.921875 20.015625 65.03125 
Q 15.375 64.15625 9.8125 62.3125 
L 9.8125 71.09375 
Q 15.4375 72.65625 20.34375 73.4375 
Q 25.25 74.21875 29.59375 74.21875 
Q 40.828125 74.21875 47.359375 69.109375 
Q 53.90625 64.015625 53.90625 55.328125 
Q 53.90625 49.265625 50.4375 45.09375 
Q 46.96875 40.921875 40.578125 39.3125 
z
" id="DejaVuSans-51"/>
      </defs>
      <g transform="translate(259.472071 322.182437)scale(0.1 -0.1)">
       <use xlink:href="#DejaVuSans-51"/>
       <use x="63.623047" xlink:href="#DejaVuSans-48"/>
       <use x="127.246094" xlink:href="#DejaVuSans-48"/>
      </g>
     </g>
    </g>
    <g id="xtick_5">
     <g id="line2d_9">
      <path clip-path="url(#p80e628f186)" d="M 334.076852 307.584 
L 334.076852 41.472 
" style="fill:none;stroke:#b0b0b0;stroke-linecap:square;stroke-width:0.8;"/>
     </g>
     <g id="line2d_10">
      <g>
       <use style="stroke:#000000;stroke-width:0.8;" x="334.076852" xlink:href="#m282b87f4b1" y="307.584"/>
      </g>
     </g>
     <g id="text_5">
      <!-- 400 -->
      <defs>
       <path d="M 37.796875 64.3125 
L 12.890625 25.390625 
L 37.796875 25.390625 
z
M 35.203125 72.90625 
L 47.609375 72.90625 
L 47.609375 25.390625 
L 58.015625 25.390625 
L 58.015625 17.1875 
L 47.609375 17.1875 
L 47.609375 0 
L 37.796875 0 
L 37.796875 17.1875 
L 4.890625 17.1875 
L 4.890625 26.703125 
z
" id="DejaVuSans-52"/>
      </defs>
      <g transform="translate(324.533102 322.182437)scale(0.1 -0.1)">
       <use xlink:href="#DejaVuSans-52"/>
       <use x="63.623047" xlink:href="#DejaVuSans-48"/>
       <use x="127.246094" xlink:href="#DejaVuSans-48"/>
      </g>
     </g>
    </g>
    <g id="xtick_6">
     <g id="line2d_11">
      <path clip-path="url(#p80e628f186)" d="M 399.137883 307.584 
L 399.137883 41.472 
" style="fill:none;stroke:#b0b0b0;stroke-linecap:square;stroke-width:0.8;"/>
     </g>
     <g id="line2d_12">
      <g>
       <use style="stroke:#000000;stroke-width:0.8;" x="399.137883" xlink:href="#m282b87f4b1" y="307.584"/>
      </g>
     </g>
     <g id="text_6">
      <!-- 500 -->
      <defs>
       <path d="M 10.796875 72.90625 
L 49.515625 72.90625 
L 49.515625 64.59375 
L 19.828125 64.59375 
L 19.828125 46.734375 
Q 21.96875 47.46875 24.109375 47.828125 
Q 26.265625 48.1875 28.421875 48.1875 
Q 40.625 48.1875 47.75 41.5 
Q 54.890625 34.8125 54.890625 23.390625 
Q 54.890625 11.625 47.5625 5.09375 
Q 40.234375 -1.421875 26.90625 -1.421875 
Q 22.3125 -1.421875 17.546875 -0.640625 
Q 12.796875 0.140625 7.71875 1.703125 
L 7.71875 11.625 
Q 12.109375 9.234375 16.796875 8.0625 
Q 21.484375 6.890625 26.703125 6.890625 
Q 35.15625 6.890625 40.078125 11.328125 
Q 45.015625 15.765625 45.015625 23.390625 
Q 45.015625 31 40.078125 35.4375 
Q 35.15625 39.890625 26.703125 39.890625 
Q 22.75 39.890625 18.8125 39.015625 
Q 14.890625 38.140625 10.796875 36.28125 
z
" id="DejaVuSans-53"/>
      </defs>
      <g transform="translate(389.594133 322.182437)scale(0.1 -0.1)">
       <use xlink:href="#DejaVuSans-53"/>
       <use x="63.623047" xlink:href="#DejaVuSans-48"/>
       <use x="127.246094" xlink:href="#DejaVuSans-48"/>
      </g>
     </g>
    </g>
    <g id="text_7">
     <!-- Generations -->
     <defs>
      <path d="M 59.515625 10.40625 
L 59.515625 29.984375 
L 43.40625 29.984375 
L 43.40625 38.09375 
L 69.28125 38.09375 
L 69.28125 6.78125 
Q 63.578125 2.734375 56.6875 0.65625 
Q 49.8125 -1.421875 42 -1.421875 
Q 24.90625 -1.421875 15.25 8.5625 
Q 5.609375 18.5625 5.609375 36.375 
Q 5.609375 54.25 15.25 64.234375 
Q 24.90625 74.21875 42 74.21875 
Q 49.125 74.21875 55.546875 72.453125 
Q 61.96875 70.703125 67.390625 67.28125 
L 67.390625 56.78125 
Q 61.921875 61.421875 55.765625 63.765625 
Q 49.609375 66.109375 42.828125 66.109375 
Q 29.4375 66.109375 22.71875 58.640625 
Q 16.015625 51.171875 16.015625 36.375 
Q 16.015625 21.625 22.71875 14.15625 
Q 29.4375 6.6875 42.828125 6.6875 
Q 48.046875 6.6875 52.140625 7.59375 
Q 56.25 8.5 59.515625 10.40625 
z
" id="DejaVuSans-71"/>
      <path d="M 56.203125 29.59375 
L 56.203125 25.203125 
L 14.890625 25.203125 
Q 15.484375 15.921875 20.484375 11.0625 
Q 25.484375 6.203125 34.421875 6.203125 
Q 39.59375 6.203125 44.453125 7.46875 
Q 49.3125 8.734375 54.109375 11.28125 
L 54.109375 2.78125 
Q 49.265625 0.734375 44.1875 -0.34375 
Q 39.109375 -1.421875 33.890625 -1.421875 
Q 20.796875 -1.421875 13.15625 6.1875 
Q 5.515625 13.8125 5.515625 26.8125 
Q 5.515625 40.234375 12.765625 48.109375 
Q 20.015625 56 32.328125 56 
Q 43.359375 56 49.78125 48.890625 
Q 56.203125 41.796875 56.203125 29.59375 
z
M 47.21875 32.234375 
Q 47.125 39.59375 43.09375 43.984375 
Q 39.0625 48.390625 32.421875 48.390625 
Q 24.90625 48.390625 20.390625 44.140625 
Q 15.875 39.890625 15.1875 32.171875 
z
" id="DejaVuSans-101"/>
      <path d="M 54.890625 33.015625 
L 54.890625 0 
L 45.90625 0 
L 45.90625 32.71875 
Q 45.90625 40.484375 42.875 44.328125 
Q 39.84375 48.1875 33.796875 48.1875 
Q 26.515625 48.1875 22.3125 43.546875 
Q 18.109375 38.921875 18.109375 30.90625 
L 18.109375 0 
L 9.078125 0 
L 9.078125 54.6875 
L 18.109375 54.6875 
L 18.109375 46.1875 
Q 21.34375 51.125 25.703125 53.5625 
Q 30.078125 56 35.796875 56 
Q 45.21875 56 50.046875 50.171875 
Q 54.890625 44.34375 54.890625 33.015625 
z
" id="DejaVuSans-110"/>
      <path d="M 41.109375 46.296875 
Q 39.59375 47.171875 37.8125 47.578125 
Q 36.03125 48 33.890625 48 
Q 26.265625 48 22.1875 43.046875 
Q 18.109375 38.09375 18.109375 28.8125 
L 18.109375 0 
L 9.078125 0 
L 9.078125 54.6875 
L 18.109375 54.6875 
L 18.109375 46.1875 
Q 20.953125 51.171875 25.484375 53.578125 
Q 30.03125 56 36.53125 56 
Q 37.453125 56 38.578125 55.875 
Q 39.703125 55.765625 41.0625 55.515625 
z
" id="DejaVuSans-114"/>
      <path d="M 34.28125 27.484375 
Q 23.390625 27.484375 19.1875 25 
Q 14.984375 22.515625 14.984375 16.5 
Q 14.984375 11.71875 18.140625 8.90625 
Q 21.296875 6.109375 26.703125 6.109375 
Q 34.1875 6.109375 38.703125 11.40625 
Q 43.21875 16.703125 43.21875 25.484375 
L 43.21875 27.484375 
z
M 52.203125 31.203125 
L 52.203125 0 
L 43.21875 0 
L 43.21875 8.296875 
Q 40.140625 3.328125 35.546875 0.953125 
Q 30.953125 -1.421875 24.3125 -1.421875 
Q 15.921875 -1.421875 10.953125 3.296875 
Q 6 8.015625 6 15.921875 
Q 6 25.140625 12.171875 29.828125 
Q 18.359375 34.515625 30.609375 34.515625 
L 43.21875 34.515625 
L 43.21875 35.40625 
Q 43.21875 41.609375 39.140625 45 
Q 35.0625 48.390625 27.6875 48.390625 
Q 23 48.390625 18.546875 47.265625 
Q 14.109375 46.140625 10.015625 43.890625 
L 10.015625 52.203125 
Q 14.9375 54.109375 19.578125 55.046875 
Q 24.21875 56 28.609375 56 
Q 40.484375 56 46.34375 49.84375 
Q 52.203125 43.703125 52.203125 31.203125 
z
" id="DejaVuSans-97"/>
      <path d="M 18.3125 70.21875 
L 18.3125 54.6875 
L 36.8125 54.6875 
L 36.8125 47.703125 
L 18.3125 47.703125 
L 18.3125 18.015625 
Q 18.3125 11.328125 20.140625 9.421875 
Q 21.96875 7.515625 27.59375 7.515625 
L 36.8125 7.515625 
L 36.8125 0 
L 27.59375 0 
Q 17.1875 0 13.234375 3.875 
Q 9.28125 7.765625 9.28125 18.015625 
L 9.28125 47.703125 
L 2.6875 47.703125 
L 2.6875 54.6875 
L 9.28125 54.6875 
L 9.28125 70.21875 
z
" id="DejaVuSans-116"/>
      <path d="M 9.421875 54.6875 
L 18.40625 54.6875 
L 18.40625 0 
L 9.421875 0 
z
M 9.421875 75.984375 
L 18.40625 75.984375 
L 18.40625 64.59375 
L 9.421875 64.59375 
z
" id="DejaVuSans-105"/>
      <path d="M 30.609375 48.390625 
Q 23.390625 48.390625 19.1875 42.75 
Q 14.984375 37.109375 14.984375 27.296875 
Q 14.984375 17.484375 19.15625 11.84375 
Q 23.34375 6.203125 30.609375 6.203125 
Q 37.796875 6.203125 41.984375 11.859375 
Q 46.1875 17.53125 46.1875 27.296875 
Q 46.1875 37.015625 41.984375 42.703125 
Q 37.796875 48.390625 30.609375 48.390625 
z
M 30.609375 56 
Q 42.328125 56 49.015625 48.375 
Q 55.71875 40.765625 55.71875 27.296875 
Q 55.71875 13.875 49.015625 6.21875 
Q 42.328125 -1.421875 30.609375 -1.421875 
Q 18.84375 -1.421875 12.171875 6.21875 
Q 5.515625 13.875 5.515625 27.296875 
Q 5.515625 40.765625 12.171875 48.375 
Q 18.84375 56 30.609375 56 
z
" id="DejaVuSans-111"/>
      <path d="M 44.28125 53.078125 
L 44.28125 44.578125 
Q 40.484375 46.53125 36.375 47.5 
Q 32.28125 48.484375 27.875 48.484375 
Q 21.1875 48.484375 17.84375 46.4375 
Q 14.5 44.390625 14.5 40.28125 
Q 14.5 37.15625 16.890625 35.375 
Q 19.28125 33.59375 26.515625 31.984375 
L 29.59375 31.296875 
Q 39.15625 29.25 43.1875 25.515625 
Q 47.21875 21.78125 47.21875 15.09375 
Q 47.21875 7.46875 41.1875 3.015625 
Q 35.15625 -1.421875 24.609375 -1.421875 
Q 20.21875 -1.421875 15.453125 -0.5625 
Q 10.6875 0.296875 5.421875 2 
L 5.421875 11.28125 
Q 10.40625 8.6875 15.234375 7.390625 
Q 20.0625 6.109375 24.8125 6.109375 
Q 31.15625 6.109375 34.5625 8.28125 
Q 37.984375 10.453125 37.984375 14.40625 
Q 37.984375 18.0625 35.515625 20.015625 
Q 33.0625 21.96875 24.703125 23.78125 
L 21.578125 24.515625 
Q 13.234375 26.265625 9.515625 29.90625 
Q 5.8125 33.546875 5.8125 39.890625 
Q 5.8125 47.609375 11.28125 51.796875 
Q 16.75 56 26.8125 56 
Q 31.78125 56 36.171875 55.265625 
Q 40.578125 54.546875 44.28125 53.078125 
z
" id="DejaVuSans-115"/>
     </defs>
     <g transform="translate(205.662344 335.860562)scale(0.1 -0.1)">
      <use xlink:href="#DejaVuSans-71"/>
      <use x="77.490234" xlink:href="#DejaVuSans-101"/>
      <use x="139.013672" xlink:href="#DejaVuSans-110"/>
      <use x="202.392578" xlink:href="#DejaVuSans-101"/>
      <use x="263.916016" xlink:href="#DejaVuSans-114"/>
      <use x="305.029297" xlink:href="#DejaVuSans-97"/>
      <use x="366.308594" xlink:href="#DejaVuSans-116"/>
      <use x="405.517578" xlink:href="#DejaVuSans-105"/>
      <use x="433.300781" xlink:href="#DejaVuSans-111"/>
      <use x="494.482422" xlink:href="#DejaVuSans-110"/>
      <use x="557.861328" xlink:href="#DejaVuSans-115"/>
     </g>
    </g>
   </g>
   <g id="matplotlib.axis_2">
    <g id="ytick_1">
     <g id="line2d_13">
      <path clip-path="url(#p80e628f186)" d="M 57.6 296.087947 
L 414.72 296.087947 
" style="fill:none;stroke:#b0b0b0;stroke-linecap:square;stroke-width:0.8;"/>
     </g>
     <g id="line2d_14">
      <defs>
       <path d="M 0 0 
L -3.5 0 
" id="m6fdce66a66" style="stroke:#000000;stroke-width:0.8;"/>
      </defs>
      <g>
       <use style="stroke:#000000;stroke-width:0.8;" x="57.6" xlink:href="#m6fdce66a66" y="296.087947"/>
      </g>
     </g>
     <g id="text_8">
      <!-- −0.8 -->
      <defs>
       <path d="M 10.59375 35.5 
L 73.1875 35.5 
L 73.1875 27.203125 
L 10.59375 27.203125 
z
" id="DejaVuSans-8722"/>
       <path d="M 10.6875 12.40625 
L 21 12.40625 
L 21 0 
L 10.6875 0 
z
" id="DejaVuSans-46"/>
       <path d="M 31.78125 34.625 
Q 24.75 34.625 20.71875 30.859375 
Q 16.703125 27.09375 16.703125 20.515625 
Q 16.703125 13.921875 20.71875 10.15625 
Q 24.75 6.390625 31.78125 6.390625 
Q 38.8125 6.390625 42.859375 10.171875 
Q 46.921875 13.96875 46.921875 20.515625 
Q 46.921875 27.09375 42.890625 30.859375 
Q 38.875 34.625 31.78125 34.625 
z
M 21.921875 38.8125 
Q 15.578125 40.375 12.03125 44.71875 
Q 8.5 49.078125 8.5 55.328125 
Q 8.5 64.0625 14.71875 69.140625 
Q 20.953125 74.21875 31.78125 74.21875 
Q 42.671875 74.21875 48.875 69.140625 
Q 55.078125 64.0625 55.078125 55.328125 
Q 55.078125 49.078125 51.53125 44.71875 
Q 48 40.375 41.703125 38.8125 
Q 48.828125 37.15625 52.796875 32.3125 
Q 56.78125 27.484375 56.78125 20.515625 
Q 56.78125 9.90625 50.3125 4.234375 
Q 43.84375 -1.421875 31.78125 -1.421875 
Q 19.734375 -1.421875 13.25 4.234375 
Q 6.78125 9.90625 6.78125 20.515625 
Q 6.78125 27.484375 10.78125 32.3125 
Q 14.796875 37.15625 21.921875 38.8125 
z
M 18.3125 54.390625 
Q 18.3125 48.734375 21.84375 45.5625 
Q 25.390625 42.390625 31.78125 42.390625 
Q 38.140625 42.390625 41.71875 45.5625 
Q 45.3125 48.734375 45.3125 54.390625 
Q 45.3125 60.0625 41.71875 63.234375 
Q 38.140625 66.40625 31.78125 66.40625 
Q 25.390625 66.40625 21.84375 63.234375 
Q 18.3125 60.0625 18.3125 54.390625 
z
" id="DejaVuSans-56"/>
      </defs>
      <g transform="translate(26.317187 299.887166)scale(0.1 -0.1)">
       <use xlink:href="#DejaVuSans-8722"/>
       <use x="83.789062" xlink:href="#DejaVuSans-48"/>
       <use x="147.412109" xlink:href="#DejaVuSans-46"/>
       <use x="179.199219" xlink:href="#DejaVuSans-56"/>
      </g>
     </g>
    </g>
    <g id="ytick_2">
     <g id="line2d_15">
      <path clip-path="url(#p80e628f186)" d="M 57.6 244.665767 
L 414.72 244.665767 
" style="fill:none;stroke:#b0b0b0;stroke-linecap:square;stroke-width:0.8;"/>
     </g>
     <g id="line2d_16">
      <g>
       <use style="stroke:#000000;stroke-width:0.8;" x="57.6" xlink:href="#m6fdce66a66" y="244.665767"/>
      </g>
     </g>
     <g id="text_9">
      <!-- −0.6 -->
      <defs>
       <path d="M 33.015625 40.375 
Q 26.375 40.375 22.484375 35.828125 
Q 18.609375 31.296875 18.609375 23.390625 
Q 18.609375 15.53125 22.484375 10.953125 
Q 26.375 6.390625 33.015625 6.390625 
Q 39.65625 6.390625 43.53125 10.953125 
Q 47.40625 15.53125 47.40625 23.390625 
Q 47.40625 31.296875 43.53125 35.828125 
Q 39.65625 40.375 33.015625 40.375 
z
M 52.59375 71.296875 
L 52.59375 62.3125 
Q 48.875 64.0625 45.09375 64.984375 
Q 41.3125 65.921875 37.59375 65.921875 
Q 27.828125 65.921875 22.671875 59.328125 
Q 17.53125 52.734375 16.796875 39.40625 
Q 19.671875 43.65625 24.015625 45.921875 
Q 28.375 48.1875 33.59375 48.1875 
Q 44.578125 48.1875 50.953125 41.515625 
Q 57.328125 34.859375 57.328125 23.390625 
Q 57.328125 12.15625 50.6875 5.359375 
Q 44.046875 -1.421875 33.015625 -1.421875 
Q 20.359375 -1.421875 13.671875 8.265625 
Q 6.984375 17.96875 6.984375 36.375 
Q 6.984375 53.65625 15.1875 63.9375 
Q 23.390625 74.21875 37.203125 74.21875 
Q 40.921875 74.21875 44.703125 73.484375 
Q 48.484375 72.75 52.59375 71.296875 
z
" id="DejaVuSans-54"/>
      </defs>
      <g transform="translate(26.317187 248.464986)scale(0.1 -0.1)">
       <use xlink:href="#DejaVuSans-8722"/>
       <use x="83.789062" xlink:href="#DejaVuSans-48"/>
       <use x="147.412109" xlink:href="#DejaVuSans-46"/>
       <use x="179.199219" xlink:href="#DejaVuSans-54"/>
      </g>
     </g>
    </g>
    <g id="ytick_3">
     <g id="line2d_17">
      <path clip-path="url(#p80e628f186)" d="M 57.6 193.243587 
L 414.72 193.243587 
" style="fill:none;stroke:#b0b0b0;stroke-linecap:square;stroke-width:0.8;"/>
     </g>
     <g id="line2d_18">
      <g>
       <use style="stroke:#000000;stroke-width:0.8;" x="57.6" xlink:href="#m6fdce66a66" y="193.243587"/>
      </g>
     </g>
     <g id="text_10">
      <!-- −0.4 -->
      <g transform="translate(26.317187 197.042806)scale(0.1 -0.1)">
       <use xlink:href="#DejaVuSans-8722"/>
       <use x="83.789062" xlink:href="#DejaVuSans-48"/>
       <use x="147.412109" xlink:href="#DejaVuSans-46"/>
       <use x="179.199219" xlink:href="#DejaVuSans-52"/>
      </g>
     </g>
    </g>
    <g id="ytick_4">
     <g id="line2d_19">
      <path clip-path="url(#p80e628f186)" d="M 57.6 141.821407 
L 414.72 141.821407 
" style="fill:none;stroke:#b0b0b0;stroke-linecap:square;stroke-width:0.8;"/>
     </g>
     <g id="line2d_20">
      <g>
       <use style="stroke:#000000;stroke-width:0.8;" x="57.6" xlink:href="#m6fdce66a66" y="141.821407"/>
      </g>
     </g>
     <g id="text_11">
      <!-- −0.2 -->
      <g transform="translate(26.317187 145.620626)scale(0.1 -0.1)">
       <use xlink:href="#DejaVuSans-8722"/>
       <use x="83.789062" xlink:href="#DejaVuSans-48"/>
       <use x="147.412109" xlink:href="#DejaVuSans-46"/>
       <use x="179.199219" xlink:href="#DejaVuSans-50"/>
      </g>
     </g>
    </g>
    <g id="ytick_5">
     <g id="line2d_21">
      <path clip-path="url(#p80e628f186)" d="M 57.6 90.399227 
L 414.72 90.399227 
" style="fill:none;stroke:#b0b0b0;stroke-linecap:square;stroke-width:0.8;"/>
     </g>
     <g id="line2d_22">
      <g>
       <use style="stroke:#000000;stroke-width:0.8;" x="57.6" xlink:href="#m6fdce66a66" y="90.399227"/>
      </g>
     </g>
     <g id="text_12">
      <!-- 0.0 -->
      <g transform="translate(34.696875 94.198446)scale(0.1 -0.1)">
       <use xlink:href="#DejaVuSans-48"/>
       <use x="63.623047" xlink:href="#DejaVuSans-46"/>
       <use x="95.410156" xlink:href="#DejaVuSans-48"/>
      </g>
     </g>
    </g>
    <g id="text_13">
     <!-- Fitness -->
     <defs>
      <path d="M 9.8125 72.90625 
L 51.703125 72.90625 
L 51.703125 64.59375 
L 19.671875 64.59375 
L 19.671875 43.109375 
L 48.578125 43.109375 
L 48.578125 34.8125 
L 19.671875 34.8125 
L 19.671875 0 
L 9.8125 0 
z
" id="DejaVuSans-70"/>
     </defs>
     <g transform="translate(20.2375 192.202219)rotate(-90)scale(0.1 -0.1)">
      <use xlink:href="#DejaVuSans-70"/>
      <use x="57.410156" xlink:href="#DejaVuSans-105"/>
      <use x="85.193359" xlink:href="#DejaVuSans-116"/>
      <use x="124.402344" xlink:href="#DejaVuSans-110"/>
      <use x="187.78125" xlink:href="#DejaVuSans-101"/>
      <use x="249.304688" xlink:href="#DejaVuSans-115"/>
      <use x="301.404297" xlink:href="#DejaVuSans-115"/>
     </g>
    </g>
   </g>
   <g id="line2d_23">
    <path clip-path="url(#p80e628f186)" d="M 73.832727 179.316218 
L 75.133948 154.843597 
L 75.784558 159.747941 
L 76.435169 149.710337 
L 77.085779 173.194923 
L 77.736389 160.440042 
L 79.03761 143.167332 
L 79.68822 144.398599 
L 80.33883 147.924843 
L 80.989441 154.580334 
L 81.640051 153.826325 
L 82.290661 160.904407 
L 82.941272 142.683461 
L 83.591882 147.044769 
L 84.242492 160.506016 
L 84.893103 148.022727 
L 85.543713 155.710833 
L 86.194323 147.393738 
L 86.844934 145.275129 
L 87.495544 170.797112 
L 88.796764 146.649455 
L 89.447375 140.341132 
L 90.097985 151.132656 
L 90.748595 143.937838 
L 91.399206 146.637837 
L 92.049816 145.85299 
L 92.700426 148.553878 
L 93.351037 145.684184 
L 94.001647 141.188195 
L 94.652257 149.211038 
L 95.302868 155.660037 
L 95.953478 157.567984 
L 96.604088 142.462322 
L 97.905309 153.696838 
L 98.555919 144.456771 
L 99.206529 145.102256 
L 99.85714 150.9646 
L 100.50775 148.334524 
L 101.15836 158.678842 
L 101.808971 145.906868 
L 102.459581 156.48326 
L 103.110191 148.847926 
L 103.760802 150.305825 
L 104.411412 149.534408 
L 105.062022 150.146207 
L 105.712633 164.553754 
L 106.363243 159.383511 
L 107.013853 147.97824 
L 107.664463 141.177514 
L 108.315074 144.440021 
L 108.965684 152.307389 
L 109.616294 150.540941 
L 110.266905 147.364917 
L 110.917515 164.501258 
L 111.568125 145.61845 
L 112.218736 142.514712 
L 112.869346 153.212979 
L 113.519956 155.858449 
L 114.170567 151.001182 
L 114.821177 148.375604 
L 115.471787 155.76409 
L 116.122398 148.479118 
L 116.773008 151.382939 
L 117.423618 155.200326 
L 118.074228 152.982965 
L 118.724839 148.663187 
L 119.375449 155.006102 
L 120.026059 146.852849 
L 120.67667 146.584358 
L 121.32728 140.447309 
L 121.97789 143.292679 
L 122.628501 160.546939 
L 123.279111 149.234749 
L 123.929721 148.271652 
L 124.580332 158.790562 
L 125.230942 139.708654 
L 125.881552 148.87902 
L 126.532163 155.493143 
L 127.182773 152.830798 
L 127.833383 152.965135 
L 128.483993 149.445346 
L 129.134604 142.407371 
L 129.785214 142.243172 
L 130.435824 145.895785 
L 131.086435 157.484769 
L 131.737045 141.564184 
L 132.387655 136.810451 
L 133.038266 151.221052 
L 133.688876 143.219476 
L 134.339486 138.046924 
L 135.640707 154.015838 
L 136.291317 148.145315 
L 136.941927 149.42666 
L 137.592538 151.455248 
L 138.243148 149.242159 
L 138.893758 148.81006 
L 139.544369 143.08013 
L 140.194979 154.25421 
L 140.845589 147.106381 
L 141.4962 146.263448 
L 142.14681 144.3878 
L 142.79742 151.984285 
L 143.448031 153.527331 
L 144.098641 149.777752 
L 144.749251 149.207991 
L 145.399862 134.624201 
L 146.050472 147.215252 
L 146.701082 151.300253 
L 147.351692 134.933968 
L 148.002303 142.907255 
L 148.652913 140.994054 
L 149.303523 147.86845 
L 149.954134 143.463376 
L 150.604744 147.937753 
L 151.255354 134.01426 
L 151.905965 145.460525 
L 152.556575 147.458882 
L 153.207185 155.583734 
L 153.857796 151.530056 
L 155.159016 141.369814 
L 155.809627 143.335483 
L 156.460237 142.87988 
L 157.110847 146.961726 
L 157.761457 143.699615 
L 158.412068 143.053491 
L 159.062678 143.204722 
L 159.713288 147.426903 
L 160.363899 142.46981 
L 161.014509 148.297589 
L 161.665119 144.634249 
L 162.31573 153.166325 
L 162.96634 142.841871 
L 163.61695 139.634535 
L 164.267561 147.127234 
L 164.918171 146.041092 
L 165.568781 143.72848 
L 166.219392 147.135675 
L 166.870002 136.322812 
L 167.520612 145.66166 
L 168.171222 147.54079 
L 168.821833 144.96373 
L 169.472443 142.879018 
L 170.123053 143.867786 
L 170.773664 157.027685 
L 171.424274 143.089621 
L 172.725495 146.630556 
L 173.376105 129.958888 
L 174.026715 143.751799 
L 174.677326 142.644783 
L 175.327936 150.035477 
L 175.978546 139.98112 
L 176.629156 143.866666 
L 177.279767 146.072787 
L 177.930377 140.188722 
L 178.580987 153.651541 
L 179.231598 135.483918 
L 179.882208 145.138413 
L 180.532818 141.450213 
L 181.183429 140.979873 
L 181.834039 135.053692 
L 182.484649 149.726825 
L 183.13526 134.250377 
L 183.78587 147.961405 
L 184.43648 145.312516 
L 185.087091 146.436308 
L 185.737701 143.308216 
L 186.388311 156.883499 
L 187.038921 147.187289 
L 187.689532 139.293773 
L 188.340142 142.061589 
L 188.990752 149.355203 
L 189.641363 149.032169 
L 190.291973 144.538098 
L 190.942583 141.407411 
L 191.593194 147.20595 
L 192.243804 144.147186 
L 192.894414 144.623264 
L 193.545025 149.522904 
L 194.195635 136.778615 
L 194.846245 141.347362 
L 195.496856 137.901264 
L 196.147466 147.894323 
L 196.798076 142.444438 
L 197.448686 149.047706 
L 198.099297 141.142538 
L 198.749907 149.330643 
L 199.400517 137.178098 
L 200.051128 145.288312 
L 200.701738 142.599423 
L 201.352348 146.690989 
L 202.002959 135.478869 
L 202.653569 138.837252 
L 203.304179 143.289171 
L 203.95479 146.838865 
L 204.6054 140.505013 
L 205.25601 145.663855 
L 205.906621 141.19408 
L 206.557231 138.462104 
L 207.207841 143.454309 
L 207.858451 138.201012 
L 208.509062 141.947196 
L 209.159672 155.932303 
L 209.810282 149.498547 
L 210.460893 141.825946 
L 211.111503 150.164773 
L 211.762113 146.19483 
L 212.412724 134.527321 
L 213.063334 146.648245 
L 213.713944 141.730269 
L 214.364555 146.613111 
L 215.015165 150.492429 
L 215.665775 146.053555 
L 216.316385 132.161891 
L 216.966996 141.558884 
L 217.617606 139.275822 
L 218.268216 146.763391 
L 218.918827 149.239766 
L 219.569437 148.962518 
L 220.220047 146.61771 
L 220.870658 135.755224 
L 221.521268 131.891177 
L 222.171878 137.179453 
L 222.822489 141.094165 
L 223.473099 137.622603 
L 224.123709 136.455741 
L 224.77432 144.341974 
L 225.42493 134.191877 
L 226.07554 141.460176 
L 226.72615 136.421125 
L 227.376761 136.351869 
L 228.027371 140.046703 
L 229.328592 135.44421 
L 229.979202 147.594171 
L 230.629812 136.922993 
L 231.280423 135.385713 
L 231.931033 141.283545 
L 232.581643 144.048852 
L 233.232254 137.90507 
L 233.882864 137.563897 
L 234.533474 140.422434 
L 235.184085 145.285766 
L 235.834695 145.982029 
L 236.485305 148.793481 
L 237.135915 151.008768 
L 237.786526 147.504644 
L 238.437136 137.271185 
L 239.087746 143.425937 
L 239.738357 142.966048 
L 240.388967 143.254234 
L 241.039577 148.638067 
L 241.690188 149.346236 
L 242.340798 149.703613 
L 242.991408 144.670757 
L 243.642019 136.28729 
L 244.292629 145.631918 
L 244.943239 150.193717 
L 245.59385 146.427877 
L 246.24446 140.859377 
L 246.89507 152.884928 
L 248.196291 145.711332 
L 248.846901 146.705782 
L 249.497511 153.562722 
L 250.148122 142.849023 
L 250.798732 153.452838 
L 251.449342 144.143397 
L 252.099953 146.765039 
L 252.750563 161.046681 
L 253.401173 147.310059 
L 254.051784 145.31383 
L 254.702394 164.001631 
L 255.353004 154.1155 
L 256.003615 160.999245 
L 256.654225 164.380618 
L 257.304835 147.302169 
L 257.955445 162.929053 
L 258.606056 155.691157 
L 259.256666 156.757189 
L 259.907276 142.795904 
L 260.557887 153.66582 
L 261.208497 137.624233 
L 261.859107 143.480276 
L 262.509718 151.912725 
L 263.160328 151.474306 
L 263.810938 166.444363 
L 264.461549 148.883989 
L 265.112159 141.062349 
L 265.762769 154.405724 
L 266.413379 152.883692 
L 267.06399 145.675284 
L 267.7146 144.113293 
L 268.36521 155.932854 
L 269.015821 171.57188 
L 269.666431 148.753154 
L 270.317041 138.49282 
L 271.618262 153.089739 
L 272.268872 151.959097 
L 272.919483 150.216697 
L 273.570093 155.093669 
L 274.220703 158.092739 
L 274.871314 165.074681 
L 275.521924 149.599027 
L 276.172534 157.727037 
L 276.823144 144.64788 
L 277.473755 157.579032 
L 278.124365 146.424568 
L 278.774975 164.292147 
L 279.425586 153.290232 
L 280.076196 145.371297 
L 280.726806 157.223297 
L 281.377417 156.183276 
L 282.678637 145.469658 
L 283.329248 153.362578 
L 283.979858 148.115026 
L 284.630468 144.448287 
L 285.281079 146.644172 
L 285.931689 148.120112 
L 286.582299 127.805016 
L 287.232909 136.23778 
L 287.88352 151.260164 
L 288.53413 140.432088 
L 289.18474 145.729938 
L 289.835351 154.213755 
L 290.485961 138.321429 
L 291.136571 150.675925 
L 291.787182 148.437059 
L 292.437792 144.760864 
L 293.088402 143.041703 
L 293.739013 139.921767 
L 294.389623 148.526318 
L 295.040233 139.697054 
L 295.690844 141.359537 
L 296.341454 137.192649 
L 296.992064 148.107823 
L 297.642674 143.749068 
L 298.293285 140.786848 
L 298.943895 143.315323 
L 299.594505 139.773374 
L 300.245116 146.917859 
L 300.895726 144.240616 
L 301.546336 139.386343 
L 302.196947 145.89641 
L 302.847557 146.037438 
L 303.498167 149.424815 
L 304.148778 148.16858 
L 304.799388 145.605591 
L 305.449998 144.318469 
L 306.100608 149.078634 
L 306.751219 154.93822 
L 307.401829 150.397395 
L 308.052439 143.195941 
L 308.70305 148.398279 
L 309.35366 139.865998 
L 310.00427 140.914254 
L 310.654881 135.009464 
L 311.305491 130.760324 
L 311.956101 143.29148 
L 312.606712 141.603291 
L 313.257322 138.076624 
L 313.907932 146.436808 
L 314.558543 141.520202 
L 315.209153 143.073863 
L 315.859763 142.481432 
L 316.510373 147.194671 
L 317.160984 143.203512 
L 318.462204 124.916332 
L 319.112815 150.300269 
L 319.763425 135.370799 
L 320.414035 140.676627 
L 321.064646 134.662478 
L 321.715256 138.068701 
L 322.365866 142.425163 
L 323.016477 145.287636 
L 323.667087 160.075539 
L 324.317697 155.806364 
L 324.968308 147.713412 
L 325.618918 155.194368 
L 326.269528 154.826981 
L 326.920138 157.715612 
L 327.570749 156.974586 
L 328.221359 158.944042 
L 328.871969 142.677353 
L 329.52258 146.335126 
L 330.17319 148.836359 
L 330.8238 159.716481 
L 331.474411 153.567535 
L 332.125021 143.157445 
L 332.775631 164.112372 
L 333.426242 149.670421 
L 334.076852 148.777333 
L 334.727462 167.893056 
L 335.378073 163.119355 
L 336.028683 176.394531 
L 336.679293 159.136049 
L 337.329903 174.837058 
L 337.980514 148.943312 
L 338.631124 160.15578 
L 339.281734 160.56641 
L 339.932345 174.828364 
L 340.582955 157.14225 
L 341.233565 157.563789 
L 341.884176 156.771873 
L 342.534786 148.036693 
L 343.185396 157.752385 
L 343.836007 153.934938 
L 344.486617 148.508295 
L 345.137227 152.011825 
L 345.787837 143.053536 
L 346.438448 151.972342 
L 347.089058 153.813754 
L 347.739668 145.314489 
L 348.390279 145.14348 
L 349.040889 153.50362 
L 349.691499 150.525105 
L 350.34211 151.325463 
L 350.99272 154.377624 
L 351.64333 148.805681 
L 352.293941 150.020005 
L 352.944551 140.671936 
L 353.595161 144.023847 
L 354.245772 151.315051 
L 354.896382 141.904631 
L 355.546992 159.152013 
L 356.197602 143.726073 
L 357.498823 154.784022 
L 358.149433 151.925746 
L 358.800044 157.793475 
L 359.450654 154.162643 
L 360.101264 154.720294 
L 360.751875 148.876864 
L 361.402485 163.786993 
L 362.053095 163.044725 
L 362.703706 151.473796 
L 363.354316 164.439864 
L 364.655537 148.694898 
L 365.306147 166.514452 
L 365.956757 166.22987 
L 366.607367 155.145109 
L 367.257978 163.211399 
L 367.908588 155.147763 
L 368.559198 162.639945 
L 369.209809 156.267443 
L 369.860419 159.136485 
L 370.511029 161.220736 
L 371.16164 154.235776 
L 371.81225 156.7902 
L 372.46286 156.107865 
L 373.113471 151.684869 
L 373.764081 164.455029 
L 374.414691 141.303237 
L 375.065302 153.570969 
L 375.715912 159.914908 
L 376.366522 160.059105 
L 377.017132 146.605995 
L 377.667743 146.698622 
L 378.318353 155.575009 
L 378.968963 142.768538 
L 379.619574 147.367968 
L 380.270184 142.608712 
L 380.920794 159.199819 
L 381.571405 151.527104 
L 382.222015 150.887442 
L 382.872625 145.478594 
L 383.523236 147.220917 
L 384.173846 147.251718 
L 384.824456 153.270861 
L 385.475066 151.647374 
L 386.125677 144.650916 
L 386.776287 154.102787 
L 387.426897 148.269058 
L 388.077508 151.26094 
L 388.728118 144.539584 
L 389.378728 149.167393 
L 390.029339 149.941959 
L 390.679949 154.423421 
L 391.330559 139.256978 
L 391.98117 150.796777 
L 392.63178 152.724084 
L 393.28239 153.453247 
L 393.933001 151.763314 
L 394.583611 137.520382 
L 395.234221 156.626715 
L 395.884831 147.527653 
L 396.535442 132.169193 
L 397.186052 140.738211 
L 397.836662 144.387389 
L 398.487273 153.268307 
L 398.487273 153.268307 
" style="fill:none;stroke:#0000ff;stroke-linecap:square;stroke-width:1.5;"/>
   </g>
   <g id="line2d_24">
    <path clip-path="url(#p80e628f186)" d="M 73.832727 234.336765 
L 74.483338 258.615369 
L 75.133948 239.533973 
L 75.784558 255.024022 
L 76.435169 224.990643 
L 77.085779 270.408225 
L 77.736389 237.195412 
L 78.386999 232.259294 
L 79.03761 209.088716 
L 79.68822 216.092946 
L 80.33883 218.46167 
L 81.640051 237.008828 
L 82.290661 256.418777 
L 82.941272 209.535278 
L 83.591882 221.120977 
L 84.242492 246.37601 
L 84.893103 230.058678 
L 85.543713 230.006236 
L 86.194323 224.992543 
L 86.844934 228.05652 
L 87.495544 270.975243 
L 88.796764 220.977907 
L 89.447375 211.031643 
L 90.097985 236.87349 
L 90.748595 224.504627 
L 91.399206 224.748323 
L 92.049816 222.881237 
L 92.700426 237.184215 
L 93.351037 222.268809 
L 94.001647 210.455382 
L 94.652257 227.909051 
L 95.302868 238.852742 
L 95.953478 245.828635 
L 96.604088 214.35908 
L 97.254698 228.610829 
L 97.905309 237.204228 
L 98.555919 213.101761 
L 99.206529 208.297239 
L 99.85714 229.921569 
L 100.50775 222.707177 
L 101.15836 240.55339 
L 101.808971 223.726262 
L 102.459581 243.454837 
L 103.110191 227.170245 
L 103.760802 229.465656 
L 104.411412 231.125797 
L 105.062022 229.631542 
L 105.712633 248.983497 
L 106.363243 250.469368 
L 107.013853 221.245218 
L 107.664463 212.697388 
L 108.315074 221.289311 
L 108.965684 238.199478 
L 109.616294 231.649574 
L 110.266905 226.814811 
L 110.917515 261.395969 
L 111.568125 220.993909 
L 112.218736 211.245141 
L 112.869346 239.076377 
L 113.519956 243.113286 
L 114.170567 230.71842 
L 114.821177 223.700552 
L 115.471787 247.799744 
L 116.122398 229.203298 
L 116.773008 231.382548 
L 117.423618 236.309843 
L 118.074228 232.283625 
L 118.724839 223.654503 
L 119.375449 237.812846 
L 120.026059 221.437296 
L 120.67667 224.325116 
L 121.32728 209.37454 
L 121.97789 209.728014 
L 122.628501 255.791637 
L 123.279111 230.333248 
L 123.929721 220.227437 
L 124.580332 249.474221 
L 125.230942 203.64008 
L 125.881552 231.640815 
L 126.532163 246.60144 
L 127.182773 235.466282 
L 127.833383 234.648308 
L 128.483993 230.436323 
L 129.134604 212.546748 
L 129.785214 216.661785 
L 130.435824 219.3475 
L 131.086435 245.168068 
L 131.737045 216.158288 
L 132.387655 202.088847 
L 133.038266 234.358614 
L 133.688876 210.477888 
L 134.339486 199.164123 
L 135.640707 241.177604 
L 136.291317 230.600143 
L 136.941927 227.555267 
L 137.592538 233.919902 
L 138.243148 229.415761 
L 138.893758 237.270734 
L 139.544369 217.679511 
L 140.194979 243.673012 
L 140.845589 227.191863 
L 141.4962 225.209572 
L 142.14681 214.827758 
L 142.79742 232.526286 
L 143.448031 233.17354 
L 144.098641 227.329142 
L 144.749251 233.42287 
L 145.399862 197.979038 
L 146.050472 217.110396 
L 146.701082 226.521112 
L 147.351692 198.745202 
L 148.002303 213.429611 
L 148.652913 205.853793 
L 149.303523 225.073245 
L 149.954134 220.092699 
L 150.604744 225.698203 
L 151.255354 194.425961 
L 151.905965 215.25577 
L 152.556575 216.665448 
L 153.207185 238.660393 
L 153.857796 239.62113 
L 154.508406 211.00103 
L 155.159016 211.852878 
L 155.809627 213.762128 
L 156.460237 214.307331 
L 157.110847 228.665485 
L 157.761457 221.412204 
L 158.412068 212.825841 
L 159.062678 215.351841 
L 159.713288 228.811941 
L 160.363899 222.886953 
L 161.014509 222.075829 
L 161.665119 220.800912 
L 162.31573 236.854607 
L 162.96634 213.723221 
L 163.61695 207.006386 
L 164.267561 232.273447 
L 165.568781 211.175928 
L 166.219392 223.861031 
L 166.870002 196.907653 
L 167.520612 223.795785 
L 168.171222 231.469554 
L 168.821833 224.624077 
L 169.472443 214.562037 
L 170.123053 217.465298 
L 170.773664 245.050794 
L 171.424274 206.809561 
L 172.074884 212.955934 
L 172.725495 224.159431 
L 173.376105 181.850851 
L 174.026715 207.720951 
L 174.677326 217.949273 
L 175.327936 232.679973 
L 175.978546 211.848641 
L 176.629156 218.742551 
L 177.279767 227.120846 
L 177.930377 202.211222 
L 178.580987 240.014984 
L 179.231598 187.915585 
L 179.882208 215.554792 
L 180.532818 208.136904 
L 181.183429 214.289708 
L 181.834039 199.984279 
L 182.484649 232.819257 
L 183.13526 198.618427 
L 183.78587 227.359314 
L 184.43648 223.865147 
L 185.087091 223.80742 
L 185.737701 223.290286 
L 186.388311 248.261852 
L 187.038921 224.996914 
L 187.689532 212.095713 
L 188.340142 215.186616 
L 188.990752 231.761262 
L 189.641363 233.289536 
L 190.942583 217.758709 
L 191.593194 224.232157 
L 192.243804 226.192021 
L 192.894414 220.90904 
L 193.545025 230.097585 
L 194.195635 196.293299 
L 194.846245 215.809355 
L 195.496856 210.938312 
L 196.147466 231.044705 
L 196.798076 212.019423 
L 197.448686 231.04385 
L 198.099297 218.220534 
L 198.749907 236.96508 
L 199.400517 204.917557 
L 200.051128 220.479494 
L 200.701738 218.492475 
L 201.352348 225.88221 
L 202.002959 197.887177 
L 202.653569 203.990907 
L 203.304179 216.561452 
L 203.95479 226.5793 
L 204.6054 214.600248 
L 205.25601 229.944513 
L 206.557231 202.616502 
L 207.207841 221.013207 
L 207.858451 203.447416 
L 208.509062 216.798552 
L 209.159672 244.291175 
L 210.460893 211.336536 
L 211.111503 236.743443 
L 211.762113 218.538727 
L 212.412724 190.705694 
L 213.063334 220.119999 
L 213.713944 213.167355 
L 214.364555 225.408891 
L 215.015165 233.975803 
L 215.665775 230.24207 
L 216.316385 188.940357 
L 216.966996 206.54638 
L 217.617606 202.646472 
L 218.268216 223.35959 
L 218.918827 225.790105 
L 219.569437 230.423759 
L 220.870658 199.586505 
L 221.521268 189.062574 
L 222.822489 209.232787 
L 223.473099 199.283195 
L 224.123709 197.183609 
L 224.77432 217.102819 
L 225.42493 192.586654 
L 226.07554 213.764972 
L 226.72615 196.354614 
L 227.376761 198.884376 
L 228.027371 204.082597 
L 228.677981 200.132977 
L 229.328592 188.517722 
L 229.979202 228.117003 
L 230.629812 190.229946 
L 231.280423 188.224851 
L 231.931033 216.775824 
L 232.581643 227.80471 
L 233.232254 200.385623 
L 233.882864 200.270299 
L 234.533474 205.792863 
L 235.184085 219.012457 
L 235.834695 220.217803 
L 236.485305 225.741303 
L 237.135915 236.025947 
L 237.786526 227.622415 
L 238.437136 209.635581 
L 239.087746 221.727832 
L 239.738357 211.968427 
L 240.388967 223.992469 
L 241.039577 228.09183 
L 241.690188 238.064271 
L 242.340798 235.496077 
L 242.991408 224.777651 
L 243.642019 198.518838 
L 244.292629 220.876735 
L 244.943239 238.174286 
L 245.59385 231.642838 
L 246.24446 222.584136 
L 246.89507 245.418864 
L 247.54568 235.684392 
L 248.196291 229.617898 
L 248.846901 234.279756 
L 249.497511 245.671696 
L 250.148122 219.174297 
L 250.798732 245.869461 
L 251.449342 220.942335 
L 252.099953 228.335158 
L 252.750563 257.454602 
L 253.401173 230.010707 
L 254.051784 223.008772 
L 254.702394 262.819267 
L 255.353004 243.388398 
L 256.003615 254.157662 
L 256.654225 267.071616 
L 257.304835 228.27743 
L 257.955445 267.914034 
L 258.606056 252.584884 
L 259.256666 247.191374 
L 259.907276 219.750314 
L 260.557887 248.063967 
L 261.208497 205.575928 
L 261.859107 226.867778 
L 262.509718 239.351138 
L 263.160328 233.311585 
L 263.810938 279.320727 
L 264.461549 240.845321 
L 265.112159 213.878419 
L 265.762769 244.85793 
L 266.413379 244.383519 
L 267.06399 219.476966 
L 267.7146 226.1058 
L 269.015821 284.989907 
L 270.317041 207.889235 
L 270.967652 228.249434 
L 271.618262 240.186109 
L 272.268872 235.536306 
L 272.919483 234.956499 
L 273.570093 252.586368 
L 274.220703 259.795403 
L 274.871314 270.035875 
L 275.521924 237.54536 
L 276.172534 256.960232 
L 276.823144 224.781491 
L 277.473755 250.146837 
L 278.124365 234.550183 
L 278.774975 266.920404 
L 279.425586 242.243481 
L 280.076196 228.460441 
L 280.726806 259.917894 
L 281.377417 252.973099 
L 282.028027 241.827279 
L 282.678637 226.475395 
L 283.329248 236.644984 
L 283.979858 225.568493 
L 284.630468 217.542192 
L 285.281079 233.618914 
L 285.931689 228.800042 
L 286.582299 174.795452 
L 287.232909 201.069168 
L 287.88352 232.720663 
L 288.53413 209.360286 
L 289.18474 229.429632 
L 289.835351 244.780049 
L 290.485961 202.089975 
L 291.136571 234.910637 
L 291.787182 233.393108 
L 292.437792 224.086677 
L 293.088402 222.948437 
L 293.739013 215.37567 
L 294.389623 230.129884 
L 295.040233 215.97217 
L 295.690844 218.79257 
L 296.341454 204.638723 
L 296.992064 231.919504 
L 297.642674 219.721579 
L 298.293285 216.752017 
L 298.943895 218.181987 
L 299.594505 210.055223 
L 300.245116 229.658555 
L 300.895726 215.51388 
L 301.546336 210.4568 
L 302.196947 227.151504 
L 302.847557 220.846058 
L 303.498167 234.103454 
L 304.148778 229.125767 
L 304.799388 221.577761 
L 305.449998 222.623332 
L 306.100608 232.944812 
L 306.751219 247.288549 
L 308.052439 224.870052 
L 308.70305 236.487058 
L 309.35366 207.268721 
L 310.00427 208.748535 
L 310.654881 196.323342 
L 311.305491 192.503318 
L 311.956101 217.744694 
L 312.606712 219.901371 
L 313.257322 210.959236 
L 313.907932 232.494945 
L 314.558543 219.695146 
L 315.209153 217.702011 
L 315.859763 219.424298 
L 316.510373 227.753135 
L 317.160984 223.470379 
L 318.462204 178.941668 
L 319.112815 242.731535 
L 319.763425 210.849452 
L 320.414035 223.650054 
L 321.064646 208.555817 
L 322.365866 227.392364 
L 323.016477 228.358086 
L 323.667087 265.721563 
L 324.317697 254.69315 
L 324.968308 241.224737 
L 325.618918 252.581769 
L 326.269528 243.816082 
L 326.920138 258.606892 
L 327.570749 258.708609 
L 328.221359 254.675465 
L 328.871969 217.284579 
L 329.52258 231.859941 
L 330.17319 230.207723 
L 330.8238 258.017981 
L 331.474411 250.376724 
L 332.125021 219.089623 
L 332.775631 265.983354 
L 333.426242 232.206347 
L 334.076852 232.212281 
L 334.727462 277.388193 
L 335.378073 263.122233 
L 336.028683 288.253808 
L 336.679293 257.28568 
L 337.329903 276.088852 
L 337.980514 225.250239 
L 338.631124 252.148571 
L 339.281734 260.129691 
L 339.932345 295.488 
L 340.582955 254.808285 
L 341.233565 246.430612 
L 341.884176 250.302536 
L 342.534786 237.18614 
L 343.185396 259.991881 
L 343.836007 246.5798 
L 344.486617 236.52351 
L 345.137227 245.220293 
L 345.787837 219.957248 
L 346.438448 245.829127 
L 347.089058 249.856279 
L 347.739668 225.13531 
L 348.390279 230.773999 
L 349.040889 249.790079 
L 349.691499 233.641299 
L 350.34211 236.275635 
L 350.99272 249.997983 
L 351.64333 238.794235 
L 352.293941 231.164436 
L 352.944551 216.58658 
L 353.595161 221.076566 
L 354.245772 235.478888 
L 354.896382 219.429758 
L 355.546992 257.488512 
L 356.197602 221.405797 
L 356.848213 228.699833 
L 357.498823 241.509415 
L 358.149433 241.181028 
L 358.800044 248.297336 
L 359.450654 243.411187 
L 360.101264 246.768899 
L 360.751875 235.98562 
L 361.402485 268.618317 
L 362.053095 260.016712 
L 362.703706 239.438852 
L 363.354316 265.277418 
L 364.004926 251.30272 
L 364.655537 222.880944 
L 365.306147 268.972889 
L 365.956757 265.09758 
L 366.607367 245.076508 
L 367.257978 256.735025 
L 367.908588 244.684912 
L 368.559198 254.051923 
L 369.860419 238.661039 
L 370.511029 253.276454 
L 371.16164 232.254694 
L 371.81225 242.068431 
L 372.46286 242.133456 
L 373.113471 232.377037 
L 373.764081 265.650171 
L 374.414691 209.196899 
L 375.065302 233.890806 
L 375.715912 252.47911 
L 376.366522 251.453095 
L 377.017132 216.59142 
L 378.318353 239.039675 
L 378.968963 217.452118 
L 379.619574 231.075939 
L 380.270184 212.931449 
L 380.920794 251.748789 
L 381.571405 232.326885 
L 382.222015 237.145021 
L 382.872625 220.616636 
L 383.523236 221.907817 
L 384.173846 224.40685 
L 384.824456 238.319481 
L 385.475066 223.883996 
L 386.125677 212.391482 
L 386.776287 232.590471 
L 387.426897 220.48312 
L 388.077508 233.37958 
L 388.728118 216.288935 
L 389.378728 219.241634 
L 390.029339 226.118292 
L 390.679949 240.692453 
L 391.330559 207.189563 
L 391.98117 231.672931 
L 392.63178 239.167696 
L 393.28239 235.908976 
L 393.933001 233.499669 
L 394.583611 203.560932 
L 395.234221 242.94717 
L 395.884831 223.959174 
L 396.535442 195.380355 
L 397.186052 215.890516 
L 397.836662 211.935447 
L 398.487273 247.873491 
L 398.487273 247.873491 
" style="fill:none;stroke:#008000;stroke-dasharray:9.6,2.4,1.5,2.4;stroke-dashoffset:0;stroke-width:1.5;"/>
   </g>
   <g id="line2d_25">
    <path clip-path="url(#p80e628f186)" d="M 73.832727 124.29567 
L 74.483338 75.764538 
L 75.784558 64.47186 
L 76.435169 74.430032 
L 77.085779 75.981621 
L 77.736389 83.684671 
L 78.386999 70.456066 
L 79.03761 77.245949 
L 79.68822 72.704252 
L 80.33883 77.388016 
L 80.989441 80.835222 
L 81.640051 70.643822 
L 82.290661 65.390038 
L 82.941272 75.831643 
L 83.591882 72.968562 
L 84.242492 74.636022 
L 84.893103 65.986776 
L 85.543713 81.41543 
L 86.194323 69.794932 
L 86.844934 62.493737 
L 87.495544 70.618981 
L 88.146154 68.491319 
L 88.796764 72.321002 
L 89.447375 69.65062 
L 90.097985 65.391822 
L 90.748595 63.371049 
L 91.399206 68.527351 
L 92.049816 68.824743 
L 92.700426 59.923542 
L 93.351037 69.099558 
L 94.001647 71.921007 
L 94.652257 70.513025 
L 95.302868 72.467333 
L 95.953478 69.307332 
L 96.604088 70.565564 
L 97.254698 67.446112 
L 97.905309 70.189448 
L 99.206529 81.907274 
L 99.85714 72.007632 
L 100.50775 73.961871 
L 101.15836 76.804294 
L 101.808971 68.087473 
L 102.459581 69.511683 
L 103.110191 70.525606 
L 103.760802 71.145995 
L 104.411412 67.943019 
L 105.062022 70.660872 
L 105.712633 80.124012 
L 106.363243 68.297654 
L 107.013853 74.711262 
L 107.664463 69.65764 
L 108.315074 67.590732 
L 108.965684 66.415301 
L 109.616294 69.432307 
L 110.266905 67.915023 
L 110.917515 67.606546 
L 111.568125 70.24299 
L 112.218736 73.784283 
L 112.869346 67.349581 
L 113.519956 68.603613 
L 114.170567 71.283944 
L 114.821177 73.050655 
L 115.471787 63.728436 
L 116.773008 71.38333 
L 117.423618 74.09081 
L 118.074228 73.682306 
L 118.724839 73.671871 
L 119.375449 72.199358 
L 120.026059 72.268403 
L 120.67667 68.8436 
L 121.32728 71.520078 
L 121.97789 76.857343 
L 122.628501 65.302241 
L 123.279111 68.13625 
L 123.929721 76.315866 
L 124.580332 68.106904 
L 125.230942 75.777228 
L 125.881552 66.117224 
L 126.532163 64.384846 
L 127.182773 70.195314 
L 127.833383 71.281961 
L 128.483993 68.454368 
L 129.134604 72.267995 
L 129.785214 67.82456 
L 130.435824 72.444071 
L 131.737045 66.970079 
L 132.387655 71.532055 
L 133.038266 68.083491 
L 133.688876 75.961063 
L 134.339486 76.929725 
L 134.990097 71.104537 
L 135.640707 66.854072 
L 136.291317 65.690487 
L 136.941927 71.298053 
L 137.592538 68.990594 
L 138.243148 69.068556 
L 138.893758 60.349387 
L 139.544369 68.480749 
L 140.194979 64.835408 
L 140.845589 67.020898 
L 141.4962 67.317324 
L 142.14681 73.947843 
L 142.79742 71.442285 
L 143.448031 73.881123 
L 144.098641 72.226361 
L 144.749251 64.993112 
L 146.050472 77.320108 
L 146.701082 76.079393 
L 147.351692 71.122734 
L 148.002303 72.384899 
L 148.652913 76.134316 
L 149.303523 70.663656 
L 149.954134 66.834053 
L 151.255354 73.60256 
L 151.905965 75.66528 
L 152.556575 78.252317 
L 153.207185 72.507075 
L 153.857796 63.438982 
L 154.508406 81.87277 
L 155.159016 70.886751 
L 155.809627 72.908839 
L 156.460237 71.452429 
L 157.110847 65.257966 
L 157.761457 65.987027 
L 158.412068 73.28114 
L 159.062678 71.057603 
L 159.713288 66.041865 
L 160.363899 62.052666 
L 161.014509 74.519349 
L 161.665119 68.467585 
L 162.31573 69.478043 
L 162.96634 71.960521 
L 163.61695 72.262685 
L 164.267561 61.981021 
L 164.918171 70.556662 
L 165.568781 76.281032 
L 166.219392 70.41032 
L 166.870002 75.737971 
L 167.520612 67.527535 
L 168.171222 63.612025 
L 168.821833 65.303384 
L 169.472443 71.195999 
L 170.123053 70.270274 
L 170.773664 69.004576 
L 171.424274 79.369681 
L 172.074884 76.688597 
L 172.725495 69.101681 
L 173.376105 78.066926 
L 174.026715 79.782646 
L 174.677326 67.340292 
L 175.327936 67.390981 
L 176.629156 68.99078 
L 177.279767 65.024727 
L 177.930377 78.166222 
L 178.580987 67.288098 
L 179.231598 83.052252 
L 179.882208 74.722033 
L 180.532818 74.763522 
L 181.183429 67.670037 
L 181.834039 70.123106 
L 182.484649 66.634393 
L 183.13526 69.882327 
L 183.78587 68.563497 
L 184.43648 66.759886 
L 185.087091 69.065197 
L 185.737701 63.326145 
L 186.388311 65.505146 
L 187.038921 69.377664 
L 187.689532 66.491832 
L 188.340142 68.936561 
L 189.641363 64.774801 
L 190.291973 63.576561 
L 190.942583 65.056112 
L 191.593194 70.179743 
L 192.243804 62.102351 
L 192.894414 68.337487 
L 193.545025 68.948222 
L 194.195635 77.263931 
L 194.846245 66.885369 
L 195.496856 64.864216 
L 196.147466 64.743941 
L 196.798076 72.869453 
L 197.448686 67.051561 
L 198.099297 64.064542 
L 198.749907 61.696206 
L 199.400517 69.438638 
L 200.051128 70.09713 
L 200.701738 66.706372 
L 201.352348 67.499768 
L 202.002959 73.070562 
L 202.653569 73.683597 
L 203.304179 70.016889 
L 203.95479 67.098431 
L 204.6054 66.409777 
L 205.25601 61.383197 
L 205.906621 65.248785 
L 206.557231 74.307706 
L 207.207841 65.895412 
L 207.858451 72.954608 
L 208.509062 67.095839 
L 209.159672 67.573432 
L 209.810282 71.856436 
L 210.460893 72.315356 
L 211.111503 63.586102 
L 211.762113 73.850932 
L 212.412724 78.348947 
L 213.063334 73.17649 
L 214.364555 67.81733 
L 215.015165 67.009054 
L 215.665775 61.865041 
L 216.316385 75.383426 
L 216.966996 76.571389 
L 217.617606 75.905172 
L 218.268216 70.167191 
L 218.918827 72.689427 
L 219.569437 67.501277 
L 220.220047 78.46685 
L 220.870658 71.923943 
L 221.521268 74.719781 
L 222.171878 75.13315 
L 222.822489 72.955544 
L 223.473099 75.96201 
L 224.123709 75.727874 
L 224.77432 71.581129 
L 225.42493 75.7971 
L 226.07554 69.155379 
L 226.72615 76.487635 
L 227.376761 73.819362 
L 228.027371 76.010809 
L 228.677981 75.708905 
L 229.328592 82.370699 
L 229.979202 67.07134 
L 230.629812 83.616041 
L 231.280423 82.546575 
L 231.931033 65.791265 
L 232.581643 60.292994 
L 233.232254 75.424518 
L 233.882864 74.857495 
L 234.533474 75.052005 
L 235.184085 71.559075 
L 236.485305 71.84566 
L 237.135915 65.991589 
L 237.786526 67.386874 
L 238.437136 64.906789 
L 239.087746 65.124042 
L 239.738357 73.963669 
L 240.388967 62.515999 
L 241.039577 69.184305 
L 241.690188 60.6282 
L 242.340798 63.911148 
L 242.991408 64.563864 
L 243.642019 74.055741 
L 244.292629 70.387102 
L 244.943239 62.213149 
L 245.59385 61.212917 
L 246.24446 59.134617 
L 246.89507 60.350991 
L 247.54568 63.042206 
L 248.196291 61.804766 
L 248.846901 59.131808 
L 249.497511 61.453747 
L 250.148122 66.523748 
L 250.798732 61.036216 
L 251.449342 67.344459 
L 252.099953 65.194919 
L 252.750563 64.638759 
L 253.401173 64.609411 
L 254.051784 67.618887 
L 254.702394 65.183995 
L 255.353004 64.842603 
L 256.003615 67.840828 
L 256.654225 61.68962 
L 257.304835 66.326907 
L 257.955445 57.944073 
L 258.606056 58.797431 
L 259.256666 66.323003 
L 259.907276 65.841493 
L 260.557887 59.267674 
L 261.208497 69.672538 
L 261.859107 60.092774 
L 262.509718 64.474312 
L 263.160328 69.637026 
L 263.810938 53.568 
L 264.461549 56.922658 
L 265.112159 68.246279 
L 265.762769 63.953519 
L 266.413379 61.383864 
L 267.06399 71.873601 
L 267.7146 62.120786 
L 268.36521 58.484153 
L 269.015821 58.153852 
L 269.666431 53.863185 
L 270.317041 69.096405 
L 270.967652 63.749822 
L 272.268872 68.381888 
L 272.919483 65.476895 
L 273.570093 57.600971 
L 274.220703 56.390076 
L 274.871314 60.113487 
L 275.521924 61.652694 
L 276.172534 58.493841 
L 276.823144 64.514269 
L 277.473755 65.011227 
L 278.124365 58.298952 
L 278.774975 61.66389 
L 279.425586 64.336983 
L 280.076196 62.282153 
L 280.726806 54.528701 
L 281.377417 59.393452 
L 282.028027 58.893066 
L 283.329248 70.080172 
L 284.630468 71.354381 
L 285.281079 59.66943 
L 285.931689 67.440182 
L 286.582299 80.814581 
L 287.232909 71.406393 
L 287.88352 69.799664 
L 288.53413 71.50389 
L 289.18474 62.030245 
L 289.835351 63.647462 
L 290.485961 74.552882 
L 291.136571 66.441213 
L 291.787182 63.481009 
L 292.437792 65.435051 
L 293.088402 63.134969 
L 293.739013 64.467863 
L 294.389623 66.922752 
L 295.040233 63.421939 
L 295.690844 63.926504 
L 296.341454 69.746575 
L 296.992064 64.296142 
L 297.642674 67.776557 
L 298.293285 64.82168 
L 298.943895 68.448659 
L 299.594505 69.491526 
L 300.245116 64.177163 
L 300.895726 72.967351 
L 301.546336 68.315885 
L 302.196947 64.641316 
L 302.847557 71.228817 
L 303.498167 64.746176 
L 304.799388 69.633421 
L 305.449998 66.013606 
L 306.100608 65.212456 
L 306.751219 62.587892 
L 307.401829 64.934372 
L 308.052439 61.52183 
L 308.70305 60.309501 
L 309.35366 72.463275 
L 310.654881 73.695587 
L 311.305491 69.017331 
L 311.956101 68.838265 
L 312.606712 63.305212 
L 313.257322 65.194012 
L 313.907932 60.37867 
L 314.558543 63.345259 
L 315.209153 68.445714 
L 315.859763 65.538566 
L 316.510373 66.636208 
L 317.160984 62.936644 
L 317.811594 67.827783 
L 318.462204 70.890996 
L 319.112815 57.869004 
L 319.763425 59.892146 
L 320.414035 57.703201 
L 321.064646 60.769139 
L 321.715256 58.400656 
L 322.365866 57.457963 
L 323.016477 62.217186 
L 323.667087 54.429515 
L 324.317697 56.919579 
L 324.968308 54.202087 
L 325.618918 57.806968 
L 326.269528 65.83788 
L 326.920138 56.824333 
L 327.570749 55.240564 
L 328.221359 63.21262 
L 328.871969 68.070127 
L 329.52258 60.810311 
L 330.17319 67.464996 
L 330.8238 61.414982 
L 331.474411 56.758345 
L 332.125021 67.225267 
L 332.775631 62.24139 
L 333.426242 67.134495 
L 334.076852 65.342386 
L 334.727462 58.397919 
L 335.378073 63.116478 
L 336.028683 64.535253 
L 336.679293 60.986419 
L 337.329903 73.585264 
L 337.980514 72.636386 
L 338.631124 68.162989 
L 339.932345 54.168729 
L 340.582955 59.476215 
L 341.233565 68.696966 
L 341.884176 63.241209 
L 342.534786 58.887245 
L 343.185396 55.512889 
L 343.836007 61.290077 
L 344.486617 60.493079 
L 345.137227 58.803357 
L 345.787837 66.149823 
L 346.438448 58.115557 
L 347.089058 57.771229 
L 347.739668 65.493669 
L 348.390279 59.512961 
L 349.040889 57.217161 
L 349.691499 67.408911 
L 350.34211 66.375291 
L 350.99272 58.757266 
L 351.64333 58.817126 
L 352.293941 68.875574 
L 352.944551 64.757292 
L 353.595161 66.971129 
L 354.245772 67.151214 
L 354.896382 64.379505 
L 355.546992 60.815514 
L 356.197602 66.046348 
L 356.848213 69.296959 
L 357.498823 68.058628 
L 358.149433 62.670464 
L 358.800044 67.289614 
L 360.101264 62.671688 
L 360.751875 61.768108 
L 361.402485 58.95567 
L 362.053095 66.072738 
L 362.703706 63.50874 
L 363.354316 63.60231 
L 364.004926 62.654134 
L 364.655537 74.508852 
L 365.306147 64.056016 
L 365.956757 67.36216 
L 366.607367 65.21371 
L 367.257978 69.687772 
L 367.908588 65.610614 
L 368.559198 71.227967 
L 369.209809 66.89224 
L 369.860419 79.611931 
L 370.511029 69.165018 
L 371.16164 76.216858 
L 371.81225 71.511968 
L 372.46286 70.082274 
L 373.113471 70.992701 
L 373.764081 63.259887 
L 374.414691 73.409576 
L 375.065302 73.251133 
L 375.715912 67.350706 
L 376.366522 68.665114 
L 377.017132 76.62057 
L 377.667743 64.94876 
L 378.318353 72.110344 
L 379.619574 63.659997 
L 380.270184 72.285976 
L 380.920794 66.650849 
L 381.571405 70.727324 
L 382.222015 64.629864 
L 382.872625 70.340552 
L 383.523236 72.534017 
L 384.173846 70.096586 
L 384.824456 68.222241 
L 385.475066 79.410752 
L 386.125677 76.91035 
L 386.776287 75.615104 
L 387.426897 76.054997 
L 388.077508 69.142299 
L 388.728118 72.790233 
L 389.378728 79.093152 
L 390.679949 68.15439 
L 391.330559 71.324393 
L 391.98117 69.920623 
L 392.63178 66.280472 
L 393.28239 70.997518 
L 393.933001 70.026959 
L 394.583611 71.479833 
L 395.234221 70.306261 
L 395.884831 71.096131 
L 396.535442 68.958032 
L 397.186052 65.585905 
L 397.836662 76.83933 
L 398.487273 58.663124 
L 398.487273 58.663124 
" style="fill:none;stroke:#008000;stroke-dasharray:9.6,2.4,1.5,2.4;stroke-dashoffset:0;stroke-width:1.5;"/>
   </g>
   <g id="line2d_26">
    <path clip-path="url(#p80e628f186)" d="M 73.832727 107.848007 
L 74.483338 100.246749 
L 75.133948 98.106591 
L 77.085779 98.106591 
L 77.736389 97.342416 
L 79.68822 97.342416 
L 80.33883 95.720679 
L 93.351037 95.720679 
L 94.001647 95.579225 
L 115.471787 95.562063 
L 116.122398 94.464512 
L 365.956757 94.380793 
L 367.257978 94.269056 
L 398.487273 94.269056 
L 398.487273 94.269056 
" style="fill:none;stroke:#ff0000;stroke-linecap:square;stroke-width:1.5;"/>
   </g>
   <g id="patch_3">
    <path d="M 57.6 307.584 
L 57.6 41.472 
" style="fill:none;stroke:#000000;stroke-linecap:square;stroke-linejoin:miter;stroke-width:0.8;"/>
   </g>
   <g id="patch_4">
    <path d="M 414.72 307.584 
L 414.72 41.472 
" style="fill:none;stroke:#000000;stroke-linecap:square;stroke-linejoin:miter;stroke-width:0.8;"/>
   </g>
   <g id="patch_5">
    <path d="M 57.6 307.584 
L 414.72 307.584 
" style="fill:none;stroke:#000000;stroke-linecap:square;stroke-linejoin:miter;stroke-width:0.8;"/>
   </g>
   <g id="patch_6">
    <path d="M 57.6 41.472 
L 414.72 41.472 
" style="fill:none;stroke:#000000;stroke-linecap:square;stroke-linejoin:miter;stroke-width:0.8;"/>
   </g>
   <g id="text_14">
    <!-- Population's average and best fitness -->
    <defs>
     <path d="M 19.671875 64.796875 
L 19.671875 37.40625 
L 32.078125 37.40625 
Q 38.96875 37.40625 42.71875 40.96875 
Q 46.484375 44.53125 46.484375 51.125 
Q 46.484375 57.671875 42.71875 61.234375 
Q 38.96875 64.796875 32.078125 64.796875 
z
M 9.8125 72.90625 
L 32.078125 72.90625 
Q 44.34375 72.90625 50.609375 67.359375 
Q 56.890625 61.8125 56.890625 51.125 
Q 56.890625 40.328125 50.609375 34.8125 
Q 44.34375 29.296875 32.078125 29.296875 
L 19.671875 29.296875 
L 19.671875 0 
L 9.8125 0 
z
" id="DejaVuSans-80"/>
     <path d="M 18.109375 8.203125 
L 18.109375 -20.796875 
L 9.078125 -20.796875 
L 9.078125 54.6875 
L 18.109375 54.6875 
L 18.109375 46.390625 
Q 20.953125 51.265625 25.265625 53.625 
Q 29.59375 56 35.59375 56 
Q 45.5625 56 51.78125 48.09375 
Q 58.015625 40.1875 58.015625 27.296875 
Q 58.015625 14.40625 51.78125 6.484375 
Q 45.5625 -1.421875 35.59375 -1.421875 
Q 29.59375 -1.421875 25.265625 0.953125 
Q 20.953125 3.328125 18.109375 8.203125 
z
M 48.6875 27.296875 
Q 48.6875 37.203125 44.609375 42.84375 
Q 40.53125 48.484375 33.40625 48.484375 
Q 26.265625 48.484375 22.1875 42.84375 
Q 18.109375 37.203125 18.109375 27.296875 
Q 18.109375 17.390625 22.1875 11.75 
Q 26.265625 6.109375 33.40625 6.109375 
Q 40.53125 6.109375 44.609375 11.75 
Q 48.6875 17.390625 48.6875 27.296875 
z
" id="DejaVuSans-112"/>
     <path d="M 8.5 21.578125 
L 8.5 54.6875 
L 17.484375 54.6875 
L 17.484375 21.921875 
Q 17.484375 14.15625 20.5 10.265625 
Q 23.53125 6.390625 29.59375 6.390625 
Q 36.859375 6.390625 41.078125 11.03125 
Q 45.3125 15.671875 45.3125 23.6875 
L 45.3125 54.6875 
L 54.296875 54.6875 
L 54.296875 0 
L 45.3125 0 
L 45.3125 8.40625 
Q 42.046875 3.421875 37.71875 1 
Q 33.40625 -1.421875 27.6875 -1.421875 
Q 18.265625 -1.421875 13.375 4.4375 
Q 8.5 10.296875 8.5 21.578125 
z
M 31.109375 56 
z
" id="DejaVuSans-117"/>
     <path d="M 9.421875 75.984375 
L 18.40625 75.984375 
L 18.40625 0 
L 9.421875 0 
z
" id="DejaVuSans-108"/>
     <path d="M 17.921875 72.90625 
L 17.921875 45.796875 
L 9.625 45.796875 
L 9.625 72.90625 
z
" id="DejaVuSans-39"/>
     <path id="DejaVuSans-32"/>
     <path d="M 2.984375 54.6875 
L 12.5 54.6875 
L 29.59375 8.796875 
L 46.6875 54.6875 
L 56.203125 54.6875 
L 35.6875 0 
L 23.484375 0 
z
" id="DejaVuSans-118"/>
     <path d="M 45.40625 27.984375 
Q 45.40625 37.75 41.375 43.109375 
Q 37.359375 48.484375 30.078125 48.484375 
Q 22.859375 48.484375 18.828125 43.109375 
Q 14.796875 37.75 14.796875 27.984375 
Q 14.796875 18.265625 18.828125 12.890625 
Q 22.859375 7.515625 30.078125 7.515625 
Q 37.359375 7.515625 41.375 12.890625 
Q 45.40625 18.265625 45.40625 27.984375 
z
M 54.390625 6.78125 
Q 54.390625 -7.171875 48.1875 -13.984375 
Q 42 -20.796875 29.203125 -20.796875 
Q 24.46875 -20.796875 20.265625 -20.09375 
Q 16.0625 -19.390625 12.109375 -17.921875 
L 12.109375 -9.1875 
Q 16.0625 -11.328125 19.921875 -12.34375 
Q 23.78125 -13.375 27.78125 -13.375 
Q 36.625 -13.375 41.015625 -8.765625 
Q 45.40625 -4.15625 45.40625 5.171875 
L 45.40625 9.625 
Q 42.625 4.78125 38.28125 2.390625 
Q 33.9375 0 27.875 0 
Q 17.828125 0 11.671875 7.65625 
Q 5.515625 15.328125 5.515625 27.984375 
Q 5.515625 40.671875 11.671875 48.328125 
Q 17.828125 56 27.875 56 
Q 33.9375 56 38.28125 53.609375 
Q 42.625 51.21875 45.40625 46.390625 
L 45.40625 54.6875 
L 54.390625 54.6875 
z
" id="DejaVuSans-103"/>
     <path d="M 45.40625 46.390625 
L 45.40625 75.984375 
L 54.390625 75.984375 
L 54.390625 0 
L 45.40625 0 
L 45.40625 8.203125 
Q 42.578125 3.328125 38.25 0.953125 
Q 33.9375 -1.421875 27.875 -1.421875 
Q 17.96875 -1.421875 11.734375 6.484375 
Q 5.515625 14.40625 5.515625 27.296875 
Q 5.515625 40.1875 11.734375 48.09375 
Q 17.96875 56 27.875 56 
Q 33.9375 56 38.25 53.625 
Q 42.578125 51.265625 45.40625 46.390625 
z
M 14.796875 27.296875 
Q 14.796875 17.390625 18.875 11.75 
Q 22.953125 6.109375 30.078125 6.109375 
Q 37.203125 6.109375 41.296875 11.75 
Q 45.40625 17.390625 45.40625 27.296875 
Q 45.40625 37.203125 41.296875 42.84375 
Q 37.203125 48.484375 30.078125 48.484375 
Q 22.953125 48.484375 18.875 42.84375 
Q 14.796875 37.203125 14.796875 27.296875 
z
" id="DejaVuSans-100"/>
     <path d="M 48.6875 27.296875 
Q 48.6875 37.203125 44.609375 42.84375 
Q 40.53125 48.484375 33.40625 48.484375 
Q 26.265625 48.484375 22.1875 42.84375 
Q 18.109375 37.203125 18.109375 27.296875 
Q 18.109375 17.390625 22.1875 11.75 
Q 26.265625 6.109375 33.40625 6.109375 
Q 40.53125 6.109375 44.609375 11.75 
Q 48.6875 17.390625 48.6875 27.296875 
z
M 18.109375 46.390625 
Q 20.953125 51.265625 25.265625 53.625 
Q 29.59375 56 35.59375 56 
Q 45.5625 56 51.78125 48.09375 
Q 58.015625 40.1875 58.015625 27.296875 
Q 58.015625 14.40625 51.78125 6.484375 
Q 45.5625 -1.421875 35.59375 -1.421875 
Q 29.59375 -1.421875 25.265625 0.953125 
Q 20.953125 3.328125 18.109375 8.203125 
L 18.109375 0 
L 9.078125 0 
L 9.078125 75.984375 
L 18.109375 75.984375 
z
" id="DejaVuSans-98"/>
     <path d="M 37.109375 75.984375 
L 37.109375 68.5 
L 28.515625 68.5 
Q 23.6875 68.5 21.796875 66.546875 
Q 19.921875 64.59375 19.921875 59.515625 
L 19.921875 54.6875 
L 34.71875 54.6875 
L 34.71875 47.703125 
L 19.921875 47.703125 
L 19.921875 0 
L 10.890625 0 
L 10.890625 47.703125 
L 2.296875 47.703125 
L 2.296875 54.6875 
L 10.890625 54.6875 
L 10.890625 58.5 
Q 10.890625 67.625 15.140625 71.796875 
Q 19.390625 75.984375 28.609375 75.984375 
z
" id="DejaVuSans-102"/>
    </defs>
    <g transform="translate(123.315 35.472)scale(0.12 -0.12)">
     <use xlink:href="#DejaVuSans-80"/>
     <use x="60.255859" xlink:href="#DejaVuSans-111"/>
     <use x="121.4375" xlink:href="#DejaVuSans-112"/>
     <use x="184.914062" xlink:href="#DejaVuSans-117"/>
     <use x="248.292969" xlink:href="#DejaVuSans-108"/>
     <use x="276.076172" xlink:href="#DejaVuSans-97"/>
     <use x="337.355469" xlink:href="#DejaVuSans-116"/>
     <use x="376.564453" xlink:href="#DejaVuSans-105"/>
     <use x="404.347656" xlink:href="#DejaVuSans-111"/>
     <use x="465.529297" xlink:href="#DejaVuSans-110"/>
     <use x="528.908203" xlink:href="#DejaVuSans-39"/>
     <use x="556.398438" xlink:href="#DejaVuSans-115"/>
     <use x="608.498047" xlink:href="#DejaVuSans-32"/>
     <use x="640.285156" xlink:href="#DejaVuSans-97"/>
     <use x="701.564453" xlink:href="#DejaVuSans-118"/>
     <use x="760.744141" xlink:href="#DejaVuSans-101"/>
     <use x="822.267578" xlink:href="#DejaVuSans-114"/>
     <use x="863.380859" xlink:href="#DejaVuSans-97"/>
     <use x="924.660156" xlink:href="#DejaVuSans-103"/>
     <use x="988.136719" xlink:href="#DejaVuSans-101"/>
     <use x="1049.660156" xlink:href="#DejaVuSans-32"/>
     <use x="1081.447266" xlink:href="#DejaVuSans-97"/>
     <use x="1142.726562" xlink:href="#DejaVuSans-110"/>
     <use x="1206.105469" xlink:href="#DejaVuSans-100"/>
     <use x="1269.582031" xlink:href="#DejaVuSans-32"/>
     <use x="1301.369141" xlink:href="#DejaVuSans-98"/>
     <use x="1364.845703" xlink:href="#DejaVuSans-101"/>
     <use x="1426.369141" xlink:href="#DejaVuSans-115"/>
     <use x="1478.46875" xlink:href="#DejaVuSans-116"/>
     <use x="1517.677734" xlink:href="#DejaVuSans-32"/>
     <use x="1549.464844" xlink:href="#DejaVuSans-102"/>
     <use x="1584.669922" xlink:href="#DejaVuSans-105"/>
     <use x="1612.453125" xlink:href="#DejaVuSans-116"/>
     <use x="1651.662109" xlink:href="#DejaVuSans-110"/>
     <use x="1715.041016" xlink:href="#DejaVuSans-101"/>
     <use x="1776.564453" xlink:href="#DejaVuSans-115"/>
     <use x="1828.664062" xlink:href="#DejaVuSans-115"/>
    </g>
   </g>
   <g id="legend_1">
    <g id="patch_7">
     <path d="M 64.6 302.584 
L 137.540625 302.584 
Q 139.540625 302.584 139.540625 300.584 
L 139.540625 242.8715 
Q 139.540625 240.8715 137.540625 240.8715 
L 64.6 240.8715 
Q 62.6 240.8715 62.6 242.8715 
L 62.6 300.584 
Q 62.6 302.584 64.6 302.584 
z
" style="fill:#ffffff;opacity:0.8;stroke:#cccccc;stroke-linejoin:miter;"/>
    </g>
    <g id="line2d_27">
     <path d="M 66.6 248.969937 
L 86.6 248.969937 
" style="fill:none;stroke:#0000ff;stroke-linecap:square;stroke-width:1.5;"/>
    </g>
    <g id="line2d_28"/>
    <g id="text_15">
     <!-- average -->
     <g transform="translate(94.6 252.469937)scale(0.1 -0.1)">
      <use xlink:href="#DejaVuSans-97"/>
      <use x="61.279297" xlink:href="#DejaVuSans-118"/>
      <use x="120.458984" xlink:href="#DejaVuSans-101"/>
      <use x="181.982422" xlink:href="#DejaVuSans-114"/>
      <use x="223.095703" xlink:href="#DejaVuSans-97"/>
      <use x="284.375" xlink:href="#DejaVuSans-103"/>
      <use x="347.851562" xlink:href="#DejaVuSans-101"/>
     </g>
    </g>
    <g id="line2d_29">
     <path d="M 66.6 263.648062 
L 86.6 263.648062 
" style="fill:none;stroke:#008000;stroke-dasharray:9.6,2.4,1.5,2.4;stroke-dashoffset:0;stroke-width:1.5;"/>
    </g>
    <g id="line2d_30"/>
    <g id="text_16">
     <!-- -1 sd -->
     <defs>
      <path d="M 4.890625 31.390625 
L 31.203125 31.390625 
L 31.203125 23.390625 
L 4.890625 23.390625 
z
" id="DejaVuSans-45"/>
     </defs>
     <g transform="translate(94.6 267.148062)scale(0.1 -0.1)">
      <use xlink:href="#DejaVuSans-45"/>
      <use x="36.083984" xlink:href="#DejaVuSans-49"/>
      <use x="99.707031" xlink:href="#DejaVuSans-32"/>
      <use x="131.494141" xlink:href="#DejaVuSans-115"/>
      <use x="183.59375" xlink:href="#DejaVuSans-100"/>
     </g>
    </g>
    <g id="line2d_31">
     <path d="M 66.6 278.326187 
L 86.6 278.326187 
" style="fill:none;stroke:#008000;stroke-dasharray:9.6,2.4,1.5,2.4;stroke-dashoffset:0;stroke-width:1.5;"/>
    </g>
    <g id="line2d_32"/>
    <g id="text_17">
     <!-- +1 sd -->
     <defs>
      <path d="M 46 62.703125 
L 46 35.5 
L 73.1875 35.5 
L 73.1875 27.203125 
L 46 27.203125 
L 46 0 
L 37.796875 0 
L 37.796875 27.203125 
L 10.59375 27.203125 
L 10.59375 35.5 
L 37.796875 35.5 
L 37.796875 62.703125 
z
" id="DejaVuSans-43"/>
     </defs>
     <g transform="translate(94.6 281.826187)scale(0.1 -0.1)">
      <use xlink:href="#DejaVuSans-43"/>
      <use x="83.789062" xlink:href="#DejaVuSans-49"/>
      <use x="147.412109" xlink:href="#DejaVuSans-32"/>
      <use x="179.199219" xlink:href="#DejaVuSans-115"/>
      <use x="231.298828" xlink:href="#DejaVuSans-100"/>
     </g>
    </g>
    <g id="line2d_33">
     <path d="M 66.6 293.004312 
L 86.6 293.004312 
" style="fill:none;stroke:#ff0000;stroke-linecap:square;stroke-width:1.5;"/>
    </g>
    <g id="line2d_34"/>
    <g id="text_18">
     <!-- best -->
     <g transform="translate(94.6 296.504312)scale(0.1 -0.1)">
      <use xlink:href="#DejaVuSans-98"/>
      <use x="63.476562" xlink:href="#DejaVuSans-101"/>
      <use x="125" xlink:href="#DejaVuSans-115"/>
      <use x="177.099609" xlink:href="#DejaVuSans-116"/>
     </g>
    </g>
   </g>
  </g>
 </g>
 <defs>
  <clipPath id="p80e628f186">
   <rect height="266.112" width="357.12" x="57.6" y="41.472"/>
  </clipPath>
 </defs>
</svg>
