<?xml version="1.0" encoding="utf-8" standalone="no"?>
<!DOCTYPE svg PUBLIC "-//W3C//DTD SVG 1.1//EN"
  "http://www.w3.org/Graphics/SVG/1.1/DTD/svg11.dtd">
<!-- Created with matplotlib (https://matplotlib.org/) -->
<svg height="345.6pt" version="1.1" viewBox="0 0 460.8 345.6" width="460.8pt" xmlns="http://www.w3.org/2000/svg" xmlns:xlink="http://www.w3.org/1999/xlink">
 <defs>
  <style type="text/css">
*{stroke-linecap:butt;stroke-linejoin:round;}
  </style>
 </defs>
 <g id="figure_1">
  <g id="patch_1">
   <path d="M 0 345.6 
L 460.8 345.6 
L 460.8 0 
L 0 0 
z
" style="fill:#ffffff;"/>
  </g>
  <g id="axes_1">
   <g id="patch_2">
    <path d="M 57.6 307.584 
L 414.72 307.584 
L 414.72 41.472 
L 57.6 41.472 
z
" style="fill:#ffffff;"/>
   </g>
   <g id="matplotlib.axis_1">
    <g id="xtick_1">
     <g id="line2d_1">
      <path clip-path="url(#p318777282c)" d="M 73.832727 307.584 
L 73.832727 41.472 
" style="fill:none;stroke:#b0b0b0;stroke-linecap:square;stroke-width:0.8;"/>
     </g>
     <g id="line2d_2">
      <defs>
       <path d="M 0 0 
L 0 3.5 
" id="m8ce460d362" style="stroke:#000000;stroke-width:0.8;"/>
      </defs>
      <g>
       <use style="stroke:#000000;stroke-width:0.8;" x="73.832727" xlink:href="#m8ce460d362" y="307.584"/>
      </g>
     </g>
     <g id="text_1">
      <!-- 0 -->
      <defs>
       <path d="M 31.78125 66.40625 
Q 24.171875 66.40625 20.328125 58.90625 
Q 16.5 51.421875 16.5 36.375 
Q 16.5 21.390625 20.328125 13.890625 
Q 24.171875 6.390625 31.78125 6.390625 
Q 39.453125 6.390625 43.28125 13.890625 
Q 47.125 21.390625 47.125 36.375 
Q 47.125 51.421875 43.28125 58.90625 
Q 39.453125 66.40625 31.78125 66.40625 
z
M 31.78125 74.21875 
Q 44.046875 74.21875 50.515625 64.515625 
Q 56.984375 54.828125 56.984375 36.375 
Q 56.984375 17.96875 50.515625 8.265625 
Q 44.046875 -1.421875 31.78125 -1.421875 
Q 19.53125 -1.421875 13.0625 8.265625 
Q 6.59375 17.96875 6.59375 36.375 
Q 6.59375 54.828125 13.0625 64.515625 
Q 19.53125 74.21875 31.78125 74.21875 
z
" id="DejaVuSans-48"/>
      </defs>
      <g transform="translate(70.651477 322.182437)scale(0.1 -0.1)">
       <use xlink:href="#DejaVuSans-48"/>
      </g>
     </g>
    </g>
    <g id="xtick_2">
     <g id="line2d_3">
      <path clip-path="url(#p318777282c)" d="M 138.893758 307.584 
L 138.893758 41.472 
" style="fill:none;stroke:#b0b0b0;stroke-linecap:square;stroke-width:0.8;"/>
     </g>
     <g id="line2d_4">
      <g>
       <use style="stroke:#000000;stroke-width:0.8;" x="138.893758" xlink:href="#m8ce460d362" y="307.584"/>
      </g>
     </g>
     <g id="text_2">
      <!-- 100 -->
      <defs>
       <path d="M 12.40625 8.296875 
L 28.515625 8.296875 
L 28.515625 63.921875 
L 10.984375 60.40625 
L 10.984375 69.390625 
L 28.421875 72.90625 
L 38.28125 72.90625 
L 38.28125 8.296875 
L 54.390625 8.296875 
L 54.390625 0 
L 12.40625 0 
z
" id="DejaVuSans-49"/>
      </defs>
      <g transform="translate(129.350008 322.182437)scale(0.1 -0.1)">
       <use xlink:href="#DejaVuSans-49"/>
       <use x="63.623047" xlink:href="#DejaVuSans-48"/>
       <use x="127.246094" xlink:href="#DejaVuSans-48"/>
      </g>
     </g>
    </g>
    <g id="xtick_3">
     <g id="line2d_5">
      <path clip-path="url(#p318777282c)" d="M 203.95479 307.584 
L 203.95479 41.472 
" style="fill:none;stroke:#b0b0b0;stroke-linecap:square;stroke-width:0.8;"/>
     </g>
     <g id="line2d_6">
      <g>
       <use style="stroke:#000000;stroke-width:0.8;" x="203.95479" xlink:href="#m8ce460d362" y="307.584"/>
      </g>
     </g>
     <g id="text_3">
      <!-- 200 -->
      <defs>
       <path d="M 19.1875 8.296875 
L 53.609375 8.296875 
L 53.609375 0 
L 7.328125 0 
L 7.328125 8.296875 
Q 12.9375 14.109375 22.625 23.890625 
Q 32.328125 33.6875 34.8125 36.53125 
Q 39.546875 41.84375 41.421875 45.53125 
Q 43.3125 49.21875 43.3125 52.78125 
Q 43.3125 58.59375 39.234375 62.25 
Q 35.15625 65.921875 28.609375 65.921875 
Q 23.96875 65.921875 18.8125 64.3125 
Q 13.671875 62.703125 7.8125 59.421875 
L 7.8125 69.390625 
Q 13.765625 71.78125 18.9375 73 
Q 24.125 74.21875 28.421875 74.21875 
Q 39.75 74.21875 46.484375 68.546875 
Q 53.21875 62.890625 53.21875 53.421875 
Q 53.21875 48.921875 51.53125 44.890625 
Q 49.859375 40.875 45.40625 35.40625 
Q 44.1875 33.984375 37.640625 27.21875 
Q 31.109375 20.453125 19.1875 8.296875 
z
" id="DejaVuSans-50"/>
      </defs>
      <g transform="translate(194.41104 322.182437)scale(0.1 -0.1)">
       <use xlink:href="#DejaVuSans-50"/>
       <use x="63.623047" xlink:href="#DejaVuSans-48"/>
       <use x="127.246094" xlink:href="#DejaVuSans-48"/>
      </g>
     </g>
    </g>
    <g id="xtick_4">
     <g id="line2d_7">
      <path clip-path="url(#p318777282c)" d="M 269.015821 307.584 
L 269.015821 41.472 
" style="fill:none;stroke:#b0b0b0;stroke-linecap:square;stroke-width:0.8;"/>
     </g>
     <g id="line2d_8">
      <g>
       <use style="stroke:#000000;stroke-width:0.8;" x="269.015821" xlink:href="#m8ce460d362" y="307.584"/>
      </g>
     </g>
     <g id="text_4">
      <!-- 300 -->
      <defs>
       <path d="M 40.578125 39.3125 
Q 47.65625 37.796875 51.625 33 
Q 55.609375 28.21875 55.609375 21.1875 
Q 55.609375 10.40625 48.1875 4.484375 
Q 40.765625 -1.421875 27.09375 -1.421875 
Q 22.515625 -1.421875 17.65625 -0.515625 
Q 12.796875 0.390625 7.625 2.203125 
L 7.625 11.71875 
Q 11.71875 9.328125 16.59375 8.109375 
Q 21.484375 6.890625 26.8125 6.890625 
Q 36.078125 6.890625 40.9375 10.546875 
Q 45.796875 14.203125 45.796875 21.1875 
Q 45.796875 27.640625 41.28125 31.265625 
Q 36.765625 34.90625 28.71875 34.90625 
L 20.21875 34.90625 
L 20.21875 43.015625 
L 29.109375 43.015625 
Q 36.375 43.015625 40.234375 45.921875 
Q 44.09375 48.828125 44.09375 54.296875 
Q 44.09375 59.90625 40.109375 62.90625 
Q 36.140625 65.921875 28.71875 65.921875 
Q 24.65625 65.921875 20.015625 65.03125 
Q 15.375 64.15625 9.8125 62.3125 
L 9.8125 71.09375 
Q 15.4375 72.65625 20.34375 73.4375 
Q 25.25 74.21875 29.59375 74.21875 
Q 40.828125 74.21875 47.359375 69.109375 
Q 53.90625 64.015625 53.90625 55.328125 
Q 53.90625 49.265625 50.4375 45.09375 
Q 46.96875 40.921875 40.578125 39.3125 
z
" id="DejaVuSans-51"/>
      </defs>
      <g transform="translate(259.472071 322.182437)scale(0.1 -0.1)">
       <use xlink:href="#DejaVuSans-51"/>
       <use x="63.623047" xlink:href="#DejaVuSans-48"/>
       <use x="127.246094" xlink:href="#DejaVuSans-48"/>
      </g>
     </g>
    </g>
    <g id="xtick_5">
     <g id="line2d_9">
      <path clip-path="url(#p318777282c)" d="M 334.076852 307.584 
L 334.076852 41.472 
" style="fill:none;stroke:#b0b0b0;stroke-linecap:square;stroke-width:0.8;"/>
     </g>
     <g id="line2d_10">
      <g>
       <use style="stroke:#000000;stroke-width:0.8;" x="334.076852" xlink:href="#m8ce460d362" y="307.584"/>
      </g>
     </g>
     <g id="text_5">
      <!-- 400 -->
      <defs>
       <path d="M 37.796875 64.3125 
L 12.890625 25.390625 
L 37.796875 25.390625 
z
M 35.203125 72.90625 
L 47.609375 72.90625 
L 47.609375 25.390625 
L 58.015625 25.390625 
L 58.015625 17.1875 
L 47.609375 17.1875 
L 47.609375 0 
L 37.796875 0 
L 37.796875 17.1875 
L 4.890625 17.1875 
L 4.890625 26.703125 
z
" id="DejaVuSans-52"/>
      </defs>
      <g transform="translate(324.533102 322.182437)scale(0.1 -0.1)">
       <use xlink:href="#DejaVuSans-52"/>
       <use x="63.623047" xlink:href="#DejaVuSans-48"/>
       <use x="127.246094" xlink:href="#DejaVuSans-48"/>
      </g>
     </g>
    </g>
    <g id="xtick_6">
     <g id="line2d_11">
      <path clip-path="url(#p318777282c)" d="M 399.137883 307.584 
L 399.137883 41.472 
" style="fill:none;stroke:#b0b0b0;stroke-linecap:square;stroke-width:0.8;"/>
     </g>
     <g id="line2d_12">
      <g>
       <use style="stroke:#000000;stroke-width:0.8;" x="399.137883" xlink:href="#m8ce460d362" y="307.584"/>
      </g>
     </g>
     <g id="text_6">
      <!-- 500 -->
      <defs>
       <path d="M 10.796875 72.90625 
L 49.515625 72.90625 
L 49.515625 64.59375 
L 19.828125 64.59375 
L 19.828125 46.734375 
Q 21.96875 47.46875 24.109375 47.828125 
Q 26.265625 48.1875 28.421875 48.1875 
Q 40.625 48.1875 47.75 41.5 
Q 54.890625 34.8125 54.890625 23.390625 
Q 54.890625 11.625 47.5625 5.09375 
Q 40.234375 -1.421875 26.90625 -1.421875 
Q 22.3125 -1.421875 17.546875 -0.640625 
Q 12.796875 0.140625 7.71875 1.703125 
L 7.71875 11.625 
Q 12.109375 9.234375 16.796875 8.0625 
Q 21.484375 6.890625 26.703125 6.890625 
Q 35.15625 6.890625 40.078125 11.328125 
Q 45.015625 15.765625 45.015625 23.390625 
Q 45.015625 31 40.078125 35.4375 
Q 35.15625 39.890625 26.703125 39.890625 
Q 22.75 39.890625 18.8125 39.015625 
Q 14.890625 38.140625 10.796875 36.28125 
z
" id="DejaVuSans-53"/>
      </defs>
      <g transform="translate(389.594133 322.182437)scale(0.1 -0.1)">
       <use xlink:href="#DejaVuSans-53"/>
       <use x="63.623047" xlink:href="#DejaVuSans-48"/>
       <use x="127.246094" xlink:href="#DejaVuSans-48"/>
      </g>
     </g>
    </g>
    <g id="text_7">
     <!-- Generations -->
     <defs>
      <path d="M 59.515625 10.40625 
L 59.515625 29.984375 
L 43.40625 29.984375 
L 43.40625 38.09375 
L 69.28125 38.09375 
L 69.28125 6.78125 
Q 63.578125 2.734375 56.6875 0.65625 
Q 49.8125 -1.421875 42 -1.421875 
Q 24.90625 -1.421875 15.25 8.5625 
Q 5.609375 18.5625 5.609375 36.375 
Q 5.609375 54.25 15.25 64.234375 
Q 24.90625 74.21875 42 74.21875 
Q 49.125 74.21875 55.546875 72.453125 
Q 61.96875 70.703125 67.390625 67.28125 
L 67.390625 56.78125 
Q 61.921875 61.421875 55.765625 63.765625 
Q 49.609375 66.109375 42.828125 66.109375 
Q 29.4375 66.109375 22.71875 58.640625 
Q 16.015625 51.171875 16.015625 36.375 
Q 16.015625 21.625 22.71875 14.15625 
Q 29.4375 6.6875 42.828125 6.6875 
Q 48.046875 6.6875 52.140625 7.59375 
Q 56.25 8.5 59.515625 10.40625 
z
" id="DejaVuSans-71"/>
      <path d="M 56.203125 29.59375 
L 56.203125 25.203125 
L 14.890625 25.203125 
Q 15.484375 15.921875 20.484375 11.0625 
Q 25.484375 6.203125 34.421875 6.203125 
Q 39.59375 6.203125 44.453125 7.46875 
Q 49.3125 8.734375 54.109375 11.28125 
L 54.109375 2.78125 
Q 49.265625 0.734375 44.1875 -0.34375 
Q 39.109375 -1.421875 33.890625 -1.421875 
Q 20.796875 -1.421875 13.15625 6.1875 
Q 5.515625 13.8125 5.515625 26.8125 
Q 5.515625 40.234375 12.765625 48.109375 
Q 20.015625 56 32.328125 56 
Q 43.359375 56 49.78125 48.890625 
Q 56.203125 41.796875 56.203125 29.59375 
z
M 47.21875 32.234375 
Q 47.125 39.59375 43.09375 43.984375 
Q 39.0625 48.390625 32.421875 48.390625 
Q 24.90625 48.390625 20.390625 44.140625 
Q 15.875 39.890625 15.1875 32.171875 
z
" id="DejaVuSans-101"/>
      <path d="M 54.890625 33.015625 
L 54.890625 0 
L 45.90625 0 
L 45.90625 32.71875 
Q 45.90625 40.484375 42.875 44.328125 
Q 39.84375 48.1875 33.796875 48.1875 
Q 26.515625 48.1875 22.3125 43.546875 
Q 18.109375 38.921875 18.109375 30.90625 
L 18.109375 0 
L 9.078125 0 
L 9.078125 54.6875 
L 18.109375 54.6875 
L 18.109375 46.1875 
Q 21.34375 51.125 25.703125 53.5625 
Q 30.078125 56 35.796875 56 
Q 45.21875 56 50.046875 50.171875 
Q 54.890625 44.34375 54.890625 33.015625 
z
" id="DejaVuSans-110"/>
      <path d="M 41.109375 46.296875 
Q 39.59375 47.171875 37.8125 47.578125 
Q 36.03125 48 33.890625 48 
Q 26.265625 48 22.1875 43.046875 
Q 18.109375 38.09375 18.109375 28.8125 
L 18.109375 0 
L 9.078125 0 
L 9.078125 54.6875 
L 18.109375 54.6875 
L 18.109375 46.1875 
Q 20.953125 51.171875 25.484375 53.578125 
Q 30.03125 56 36.53125 56 
Q 37.453125 56 38.578125 55.875 
Q 39.703125 55.765625 41.0625 55.515625 
z
" id="DejaVuSans-114"/>
      <path d="M 34.28125 27.484375 
Q 23.390625 27.484375 19.1875 25 
Q 14.984375 22.515625 14.984375 16.5 
Q 14.984375 11.71875 18.140625 8.90625 
Q 21.296875 6.109375 26.703125 6.109375 
Q 34.1875 6.109375 38.703125 11.40625 
Q 43.21875 16.703125 43.21875 25.484375 
L 43.21875 27.484375 
z
M 52.203125 31.203125 
L 52.203125 0 
L 43.21875 0 
L 43.21875 8.296875 
Q 40.140625 3.328125 35.546875 0.953125 
Q 30.953125 -1.421875 24.3125 -1.421875 
Q 15.921875 -1.421875 10.953125 3.296875 
Q 6 8.015625 6 15.921875 
Q 6 25.140625 12.171875 29.828125 
Q 18.359375 34.515625 30.609375 34.515625 
L 43.21875 34.515625 
L 43.21875 35.40625 
Q 43.21875 41.609375 39.140625 45 
Q 35.0625 48.390625 27.6875 48.390625 
Q 23 48.390625 18.546875 47.265625 
Q 14.109375 46.140625 10.015625 43.890625 
L 10.015625 52.203125 
Q 14.9375 54.109375 19.578125 55.046875 
Q 24.21875 56 28.609375 56 
Q 40.484375 56 46.34375 49.84375 
Q 52.203125 43.703125 52.203125 31.203125 
z
" id="DejaVuSans-97"/>
      <path d="M 18.3125 70.21875 
L 18.3125 54.6875 
L 36.8125 54.6875 
L 36.8125 47.703125 
L 18.3125 47.703125 
L 18.3125 18.015625 
Q 18.3125 11.328125 20.140625 9.421875 
Q 21.96875 7.515625 27.59375 7.515625 
L 36.8125 7.515625 
L 36.8125 0 
L 27.59375 0 
Q 17.1875 0 13.234375 3.875 
Q 9.28125 7.765625 9.28125 18.015625 
L 9.28125 47.703125 
L 2.6875 47.703125 
L 2.6875 54.6875 
L 9.28125 54.6875 
L 9.28125 70.21875 
z
" id="DejaVuSans-116"/>
      <path d="M 9.421875 54.6875 
L 18.40625 54.6875 
L 18.40625 0 
L 9.421875 0 
z
M 9.421875 75.984375 
L 18.40625 75.984375 
L 18.40625 64.59375 
L 9.421875 64.59375 
z
" id="DejaVuSans-105"/>
      <path d="M 30.609375 48.390625 
Q 23.390625 48.390625 19.1875 42.75 
Q 14.984375 37.109375 14.984375 27.296875 
Q 14.984375 17.484375 19.15625 11.84375 
Q 23.34375 6.203125 30.609375 6.203125 
Q 37.796875 6.203125 41.984375 11.859375 
Q 46.1875 17.53125 46.1875 27.296875 
Q 46.1875 37.015625 41.984375 42.703125 
Q 37.796875 48.390625 30.609375 48.390625 
z
M 30.609375 56 
Q 42.328125 56 49.015625 48.375 
Q 55.71875 40.765625 55.71875 27.296875 
Q 55.71875 13.875 49.015625 6.21875 
Q 42.328125 -1.421875 30.609375 -1.421875 
Q 18.84375 -1.421875 12.171875 6.21875 
Q 5.515625 13.875 5.515625 27.296875 
Q 5.515625 40.765625 12.171875 48.375 
Q 18.84375 56 30.609375 56 
z
" id="DejaVuSans-111"/>
      <path d="M 44.28125 53.078125 
L 44.28125 44.578125 
Q 40.484375 46.53125 36.375 47.5 
Q 32.28125 48.484375 27.875 48.484375 
Q 21.1875 48.484375 17.84375 46.4375 
Q 14.5 44.390625 14.5 40.28125 
Q 14.5 37.15625 16.890625 35.375 
Q 19.28125 33.59375 26.515625 31.984375 
L 29.59375 31.296875 
Q 39.15625 29.25 43.1875 25.515625 
Q 47.21875 21.78125 47.21875 15.09375 
Q 47.21875 7.46875 41.1875 3.015625 
Q 35.15625 -1.421875 24.609375 -1.421875 
Q 20.21875 -1.421875 15.453125 -0.5625 
Q 10.6875 0.296875 5.421875 2 
L 5.421875 11.28125 
Q 10.40625 8.6875 15.234375 7.390625 
Q 20.0625 6.109375 24.8125 6.109375 
Q 31.15625 6.109375 34.5625 8.28125 
Q 37.984375 10.453125 37.984375 14.40625 
Q 37.984375 18.0625 35.515625 20.015625 
Q 33.0625 21.96875 24.703125 23.78125 
L 21.578125 24.515625 
Q 13.234375 26.265625 9.515625 29.90625 
Q 5.8125 33.546875 5.8125 39.890625 
Q 5.8125 47.609375 11.28125 51.796875 
Q 16.75 56 26.8125 56 
Q 31.78125 56 36.171875 55.265625 
Q 40.578125 54.546875 44.28125 53.078125 
z
" id="DejaVuSans-115"/>
     </defs>
     <g transform="translate(205.662344 335.860562)scale(0.1 -0.1)">
      <use xlink:href="#DejaVuSans-71"/>
      <use x="77.490234" xlink:href="#DejaVuSans-101"/>
      <use x="139.013672" xlink:href="#DejaVuSans-110"/>
      <use x="202.392578" xlink:href="#DejaVuSans-101"/>
      <use x="263.916016" xlink:href="#DejaVuSans-114"/>
      <use x="305.029297" xlink:href="#DejaVuSans-97"/>
      <use x="366.308594" xlink:href="#DejaVuSans-116"/>
      <use x="405.517578" xlink:href="#DejaVuSans-105"/>
      <use x="433.300781" xlink:href="#DejaVuSans-111"/>
      <use x="494.482422" xlink:href="#DejaVuSans-110"/>
      <use x="557.861328" xlink:href="#DejaVuSans-115"/>
     </g>
    </g>
   </g>
   <g id="matplotlib.axis_2">
    <g id="ytick_1">
     <g id="line2d_13">
      <path clip-path="url(#p318777282c)" d="M 57.6 290.369898 
L 414.72 290.369898 
" style="fill:none;stroke:#b0b0b0;stroke-linecap:square;stroke-width:0.8;"/>
     </g>
     <g id="line2d_14">
      <defs>
       <path d="M 0 0 
L -3.5 0 
" id="ma3a762ba42" style="stroke:#000000;stroke-width:0.8;"/>
      </defs>
      <g>
       <use style="stroke:#000000;stroke-width:0.8;" x="57.6" xlink:href="#ma3a762ba42" y="290.369898"/>
      </g>
     </g>
     <g id="text_8">
      <!-- −0.8 -->
      <defs>
       <path d="M 10.59375 35.5 
L 73.1875 35.5 
L 73.1875 27.203125 
L 10.59375 27.203125 
z
" id="DejaVuSans-8722"/>
       <path d="M 10.6875 12.40625 
L 21 12.40625 
L 21 0 
L 10.6875 0 
z
" id="DejaVuSans-46"/>
       <path d="M 31.78125 34.625 
Q 24.75 34.625 20.71875 30.859375 
Q 16.703125 27.09375 16.703125 20.515625 
Q 16.703125 13.921875 20.71875 10.15625 
Q 24.75 6.390625 31.78125 6.390625 
Q 38.8125 6.390625 42.859375 10.171875 
Q 46.921875 13.96875 46.921875 20.515625 
Q 46.921875 27.09375 42.890625 30.859375 
Q 38.875 34.625 31.78125 34.625 
z
M 21.921875 38.8125 
Q 15.578125 40.375 12.03125 44.71875 
Q 8.5 49.078125 8.5 55.328125 
Q 8.5 64.0625 14.71875 69.140625 
Q 20.953125 74.21875 31.78125 74.21875 
Q 42.671875 74.21875 48.875 69.140625 
Q 55.078125 64.0625 55.078125 55.328125 
Q 55.078125 49.078125 51.53125 44.71875 
Q 48 40.375 41.703125 38.8125 
Q 48.828125 37.15625 52.796875 32.3125 
Q 56.78125 27.484375 56.78125 20.515625 
Q 56.78125 9.90625 50.3125 4.234375 
Q 43.84375 -1.421875 31.78125 -1.421875 
Q 19.734375 -1.421875 13.25 4.234375 
Q 6.78125 9.90625 6.78125 20.515625 
Q 6.78125 27.484375 10.78125 32.3125 
Q 14.796875 37.15625 21.921875 38.8125 
z
M 18.3125 54.390625 
Q 18.3125 48.734375 21.84375 45.5625 
Q 25.390625 42.390625 31.78125 42.390625 
Q 38.140625 42.390625 41.71875 45.5625 
Q 45.3125 48.734375 45.3125 54.390625 
Q 45.3125 60.0625 41.71875 63.234375 
Q 38.140625 66.40625 31.78125 66.40625 
Q 25.390625 66.40625 21.84375 63.234375 
Q 18.3125 60.0625 18.3125 54.390625 
z
" id="DejaVuSans-56"/>
      </defs>
      <g transform="translate(26.317187 294.169116)scale(0.1 -0.1)">
       <use xlink:href="#DejaVuSans-8722"/>
       <use x="83.789062" xlink:href="#DejaVuSans-48"/>
       <use x="147.412109" xlink:href="#DejaVuSans-46"/>
       <use x="179.199219" xlink:href="#DejaVuSans-56"/>
      </g>
     </g>
    </g>
    <g id="ytick_2">
     <g id="line2d_15">
      <path clip-path="url(#p318777282c)" d="M 57.6 239.877373 
L 414.72 239.877373 
" style="fill:none;stroke:#b0b0b0;stroke-linecap:square;stroke-width:0.8;"/>
     </g>
     <g id="line2d_16">
      <g>
       <use style="stroke:#000000;stroke-width:0.8;" x="57.6" xlink:href="#ma3a762ba42" y="239.877373"/>
      </g>
     </g>
     <g id="text_9">
      <!-- −0.6 -->
      <defs>
       <path d="M 33.015625 40.375 
Q 26.375 40.375 22.484375 35.828125 
Q 18.609375 31.296875 18.609375 23.390625 
Q 18.609375 15.53125 22.484375 10.953125 
Q 26.375 6.390625 33.015625 6.390625 
Q 39.65625 6.390625 43.53125 10.953125 
Q 47.40625 15.53125 47.40625 23.390625 
Q 47.40625 31.296875 43.53125 35.828125 
Q 39.65625 40.375 33.015625 40.375 
z
M 52.59375 71.296875 
L 52.59375 62.3125 
Q 48.875 64.0625 45.09375 64.984375 
Q 41.3125 65.921875 37.59375 65.921875 
Q 27.828125 65.921875 22.671875 59.328125 
Q 17.53125 52.734375 16.796875 39.40625 
Q 19.671875 43.65625 24.015625 45.921875 
Q 28.375 48.1875 33.59375 48.1875 
Q 44.578125 48.1875 50.953125 41.515625 
Q 57.328125 34.859375 57.328125 23.390625 
Q 57.328125 12.15625 50.6875 5.359375 
Q 44.046875 -1.421875 33.015625 -1.421875 
Q 20.359375 -1.421875 13.671875 8.265625 
Q 6.984375 17.96875 6.984375 36.375 
Q 6.984375 53.65625 15.1875 63.9375 
Q 23.390625 74.21875 37.203125 74.21875 
Q 40.921875 74.21875 44.703125 73.484375 
Q 48.484375 72.75 52.59375 71.296875 
z
" id="DejaVuSans-54"/>
      </defs>
      <g transform="translate(26.317187 243.676591)scale(0.1 -0.1)">
       <use xlink:href="#DejaVuSans-8722"/>
       <use x="83.789062" xlink:href="#DejaVuSans-48"/>
       <use x="147.412109" xlink:href="#DejaVuSans-46"/>
       <use x="179.199219" xlink:href="#DejaVuSans-54"/>
      </g>
     </g>
    </g>
    <g id="ytick_3">
     <g id="line2d_17">
      <path clip-path="url(#p318777282c)" d="M 57.6 189.384848 
L 414.72 189.384848 
" style="fill:none;stroke:#b0b0b0;stroke-linecap:square;stroke-width:0.8;"/>
     </g>
     <g id="line2d_18">
      <g>
       <use style="stroke:#000000;stroke-width:0.8;" x="57.6" xlink:href="#ma3a762ba42" y="189.384848"/>
      </g>
     </g>
     <g id="text_10">
      <!-- −0.4 -->
      <g transform="translate(26.317187 193.184066)scale(0.1 -0.1)">
       <use xlink:href="#DejaVuSans-8722"/>
       <use x="83.789062" xlink:href="#DejaVuSans-48"/>
       <use x="147.412109" xlink:href="#DejaVuSans-46"/>
       <use x="179.199219" xlink:href="#DejaVuSans-52"/>
      </g>
     </g>
    </g>
    <g id="ytick_4">
     <g id="line2d_19">
      <path clip-path="url(#p318777282c)" d="M 57.6 138.892323 
L 414.72 138.892323 
" style="fill:none;stroke:#b0b0b0;stroke-linecap:square;stroke-width:0.8;"/>
     </g>
     <g id="line2d_20">
      <g>
       <use style="stroke:#000000;stroke-width:0.8;" x="57.6" xlink:href="#ma3a762ba42" y="138.892323"/>
      </g>
     </g>
     <g id="text_11">
      <!-- −0.2 -->
      <g transform="translate(26.317187 142.691541)scale(0.1 -0.1)">
       <use xlink:href="#DejaVuSans-8722"/>
       <use x="83.789062" xlink:href="#DejaVuSans-48"/>
       <use x="147.412109" xlink:href="#DejaVuSans-46"/>
       <use x="179.199219" xlink:href="#DejaVuSans-50"/>
      </g>
     </g>
    </g>
    <g id="ytick_5">
     <g id="line2d_21">
      <path clip-path="url(#p318777282c)" d="M 57.6 88.399798 
L 414.72 88.399798 
" style="fill:none;stroke:#b0b0b0;stroke-linecap:square;stroke-width:0.8;"/>
     </g>
     <g id="line2d_22">
      <g>
       <use style="stroke:#000000;stroke-width:0.8;" x="57.6" xlink:href="#ma3a762ba42" y="88.399798"/>
      </g>
     </g>
     <g id="text_12">
      <!-- 0.0 -->
      <g transform="translate(34.696875 92.199016)scale(0.1 -0.1)">
       <use xlink:href="#DejaVuSans-48"/>
       <use x="63.623047" xlink:href="#DejaVuSans-46"/>
       <use x="95.410156" xlink:href="#DejaVuSans-48"/>
      </g>
     </g>
    </g>
    <g id="text_13">
     <!-- Fitness -->
     <defs>
      <path d="M 9.8125 72.90625 
L 51.703125 72.90625 
L 51.703125 64.59375 
L 19.671875 64.59375 
L 19.671875 43.109375 
L 48.578125 43.109375 
L 48.578125 34.8125 
L 19.671875 34.8125 
L 19.671875 0 
L 9.8125 0 
z
" id="DejaVuSans-70"/>
     </defs>
     <g transform="translate(20.2375 192.202219)rotate(-90)scale(0.1 -0.1)">
      <use xlink:href="#DejaVuSans-70"/>
      <use x="57.410156" xlink:href="#DejaVuSans-105"/>
      <use x="85.193359" xlink:href="#DejaVuSans-116"/>
      <use x="124.402344" xlink:href="#DejaVuSans-110"/>
      <use x="187.78125" xlink:href="#DejaVuSans-101"/>
      <use x="249.304688" xlink:href="#DejaVuSans-115"/>
      <use x="301.404297" xlink:href="#DejaVuSans-115"/>
     </g>
    </g>
   </g>
   <g id="line2d_23">
    <path clip-path="url(#p318777282c)" d="M 73.832727 171.555546 
L 74.483338 157.259402 
L 75.133948 158.517614 
L 75.784558 168.996744 
L 76.435169 166.091443 
L 77.085779 154.711724 
L 77.736389 168.700889 
L 78.386999 148.060016 
L 79.03761 153.528554 
L 79.68822 153.619622 
L 80.33883 151.662196 
L 80.989441 146.759833 
L 81.640051 149.206108 
L 82.290661 174.672509 
L 82.941272 156.309137 
L 83.591882 154.953894 
L 84.242492 165.066298 
L 84.893103 152.877752 
L 85.543713 163.682027 
L 86.194323 147.197314 
L 86.844934 159.31367 
L 87.495544 149.299437 
L 88.146154 151.112963 
L 88.796764 152.306679 
L 89.447375 154.367932 
L 90.097985 153.323066 
L 90.748595 155.536155 
L 91.399206 145.670546 
L 92.049816 157.145113 
L 92.700426 150.081865 
L 93.351037 146.164138 
L 94.001647 151.296776 
L 94.652257 152.399517 
L 95.302868 147.175445 
L 96.604088 153.816565 
L 97.254698 145.208213 
L 97.905309 149.76646 
L 98.555919 148.819749 
L 99.206529 157.509774 
L 99.85714 149.473868 
L 100.50775 161.079414 
L 101.15836 157.390563 
L 101.808971 155.883487 
L 103.110191 164.295832 
L 103.760802 146.382256 
L 104.411412 151.853753 
L 105.062022 149.080873 
L 105.712633 153.438777 
L 106.363243 142.216076 
L 107.013853 148.641411 
L 107.664463 143.501818 
L 108.315074 150.539583 
L 108.965684 146.001239 
L 109.616294 149.659632 
L 110.266905 150.949117 
L 110.917515 145.312363 
L 111.568125 144.546284 
L 112.218736 156.565819 
L 112.869346 141.708505 
L 113.519956 146.178217 
L 114.170567 142.839855 
L 114.821177 161.301474 
L 115.471787 138.902051 
L 116.122398 147.791868 
L 116.773008 141.231086 
L 117.423618 143.439625 
L 118.074228 146.145658 
L 118.724839 155.501864 
L 119.375449 151.214158 
L 120.026059 150.794633 
L 120.67667 144.807738 
L 121.32728 144.865257 
L 122.628501 159.133615 
L 123.279111 147.607493 
L 123.929721 165.522159 
L 124.580332 156.545096 
L 125.230942 168.965745 
L 125.881552 155.687766 
L 126.532163 164.962882 
L 127.182773 142.505253 
L 127.833383 156.822997 
L 128.483993 154.9298 
L 129.134604 151.734576 
L 129.785214 149.603364 
L 130.435824 152.286324 
L 131.086435 154.243622 
L 131.737045 153.05096 
L 132.387655 156.62548 
L 133.038266 153.572923 
L 133.688876 146.798153 
L 134.339486 151.507819 
L 134.990097 151.195535 
L 135.640707 158.221478 
L 136.291317 150.270959 
L 136.941927 152.228542 
L 137.592538 151.936986 
L 138.243148 148.568156 
L 138.893758 158.612706 
L 139.544369 153.150088 
L 140.194979 172.428141 
L 140.845589 158.060463 
L 141.4962 152.214584 
L 142.14681 150.635927 
L 142.79742 152.776555 
L 143.448031 147.679727 
L 144.098641 153.827289 
L 144.749251 154.497268 
L 145.399862 158.971937 
L 146.050472 150.758386 
L 146.701082 156.241958 
L 147.351692 156.158567 
L 148.002303 149.847443 
L 148.652913 155.337038 
L 149.303523 154.65724 
L 149.954134 149.131855 
L 150.604744 141.082901 
L 151.255354 149.931666 
L 151.905965 147.621164 
L 153.207185 164.161113 
L 153.857796 154.087188 
L 154.508406 154.673795 
L 155.159016 150.695177 
L 155.809627 156.276327 
L 156.460237 157.352482 
L 157.110847 146.070281 
L 157.761457 143.138988 
L 158.412068 155.374351 
L 159.062678 153.325126 
L 159.713288 150.185755 
L 160.363899 145.542175 
L 161.014509 153.069084 
L 161.665119 140.71157 
L 162.31573 145.161271 
L 162.96634 142.006176 
L 163.61695 139.530546 
L 164.267561 137.676416 
L 164.918171 137.414309 
L 165.568781 144.453438 
L 166.219392 135.483488 
L 166.870002 150.526848 
L 167.520612 140.106265 
L 168.171222 144.312164 
L 168.821833 139.414996 
L 169.472443 139.070999 
L 170.123053 132.371862 
L 170.773664 139.117314 
L 171.424274 135.613741 
L 172.074884 146.541869 
L 173.376105 138.791386 
L 174.026715 138.340044 
L 174.677326 145.67521 
L 175.327936 145.517894 
L 175.978546 142.277832 
L 176.629156 142.20069 
L 177.279767 142.006528 
L 177.930377 138.533555 
L 178.580987 139.734192 
L 179.231598 142.708833 
L 179.882208 138.419406 
L 180.532818 148.197171 
L 181.183429 142.755324 
L 181.834039 144.599756 
L 182.484649 145.624917 
L 183.13526 142.709344 
L 183.78587 143.820657 
L 184.43648 142.753791 
L 185.087091 150.102414 
L 185.737701 137.660289 
L 186.388311 130.30187 
L 187.038921 138.57414 
L 187.689532 143.082639 
L 188.340142 151.877645 
L 188.990752 140.097702 
L 189.641363 140.012783 
L 190.291973 141.162966 
L 190.942583 140.895766 
L 191.593194 143.612837 
L 192.243804 151.807984 
L 192.894414 145.704151 
L 193.545025 141.649764 
L 194.195635 142.450652 
L 194.846245 148.92296 
L 195.496856 148.998495 
L 196.147466 141.603007 
L 196.798076 146.727206 
L 197.448686 137.508532 
L 198.099297 146.095489 
L 198.749907 152.672429 
L 199.400517 147.096443 
L 200.051128 158.824167 
L 200.701738 147.941103 
L 201.352348 160.718689 
L 202.002959 152.593884 
L 202.653569 147.890697 
L 203.304179 151.05313 
L 203.95479 139.595797 
L 204.6054 161.85168 
L 205.25601 150.255704 
L 205.906621 157.842491 
L 206.557231 151.941008 
L 207.207841 153.861158 
L 207.858451 154.051871 
L 208.509062 150.83747 
L 209.159672 166.492629 
L 209.810282 150.673772 
L 210.460893 150.002176 
L 211.111503 155.009081 
L 211.762113 151.842914 
L 212.412724 156.330994 
L 213.063334 162.491478 
L 213.713944 157.859279 
L 214.364555 149.557782 
L 215.015165 150.628654 
L 215.665775 146.553045 
L 216.316385 148.777948 
L 216.966996 160.74259 
L 218.268216 147.181674 
L 218.918827 149.162327 
L 219.569437 148.597015 
L 220.220047 153.501062 
L 220.870658 150.72741 
L 221.521268 155.454404 
L 222.171878 154.370217 
L 222.822489 148.092012 
L 223.473099 148.67561 
L 224.123709 163.417969 
L 224.77432 157.788284 
L 225.42493 160.43085 
L 226.07554 161.601398 
L 226.72615 150.157716 
L 227.376761 150.644411 
L 228.027371 156.125669 
L 228.677981 163.708641 
L 229.979202 147.640166 
L 230.629812 162.948913 
L 231.931033 155.985252 
L 232.581643 150.671451 
L 233.232254 154.528544 
L 233.882864 155.637806 
L 234.533474 147.027608 
L 235.184085 155.746826 
L 235.834695 157.202009 
L 236.485305 146.56116 
L 237.135915 146.411639 
L 237.786526 155.957573 
L 238.437136 144.488847 
L 239.087746 148.754644 
L 239.738357 142.213486 
L 241.039577 157.440387 
L 241.690188 145.896796 
L 242.991408 151.03499 
L 243.642019 152.533046 
L 244.292629 134.381127 
L 244.943239 148.469866 
L 245.59385 150.342984 
L 246.24446 148.944464 
L 246.89507 146.362421 
L 247.54568 139.985727 
L 248.196291 149.373038 
L 248.846901 145.346485 
L 249.497511 143.406691 
L 250.148122 150.279909 
L 250.798732 141.730821 
L 251.449342 142.388346 
L 252.099953 148.88259 
L 252.750563 148.110516 
L 253.401173 155.332447 
L 254.051784 141.35559 
L 254.702394 144.32087 
L 255.353004 153.573967 
L 256.003615 147.102866 
L 256.654225 161.763676 
L 257.304835 150.748268 
L 257.955445 152.40302 
L 258.606056 150.422963 
L 259.256666 171.143435 
L 259.907276 147.660806 
L 260.557887 152.73018 
L 261.208497 150.348424 
L 262.509718 160.636395 
L 263.160328 156.727189 
L 263.810938 147.055626 
L 264.461549 153.149784 
L 265.112159 152.45369 
L 265.762769 152.749046 
L 266.413379 152.206099 
L 267.06399 141.781806 
L 267.7146 154.299147 
L 268.36521 151.858708 
L 269.015821 157.808469 
L 269.666431 150.884241 
L 270.317041 137.890004 
L 270.967652 154.509547 
L 271.618262 152.993011 
L 272.268872 168.401461 
L 272.919483 150.504808 
L 273.570093 155.90278 
L 274.220703 156.791522 
L 274.871314 154.186078 
L 275.521924 162.449959 
L 276.172534 151.862601 
L 276.823144 151.045657 
L 277.473755 160.365021 
L 278.124365 153.203485 
L 278.774975 155.205626 
L 279.425586 164.744344 
L 280.076196 149.4656 
L 280.726806 167.532708 
L 281.377417 151.513959 
L 282.028027 153.586258 
L 282.678637 156.868113 
L 283.329248 158.388408 
L 283.979858 157.602156 
L 284.630468 153.389723 
L 285.281079 168.107357 
L 285.931689 162.867853 
L 286.582299 152.636222 
L 287.232909 180.978908 
L 287.88352 163.82747 
L 288.53413 158.100625 
L 289.18474 165.021697 
L 289.835351 166.890054 
L 290.485961 158.337533 
L 291.136571 152.741624 
L 291.787182 150.427768 
L 292.437792 148.743488 
L 293.088402 156.519573 
L 293.739013 144.345003 
L 294.389623 146.37678 
L 295.040233 150.633354 
L 295.690844 157.332563 
L 296.341454 149.169948 
L 296.992064 152.276981 
L 297.642674 152.232929 
L 298.293285 145.418038 
L 298.943895 147.20566 
L 299.594505 153.595525 
L 300.245116 155.380718 
L 300.895726 149.216734 
L 301.546336 148.149422 
L 302.196947 163.114916 
L 302.847557 142.923933 
L 303.498167 169.558355 
L 304.148778 165.66513 
L 304.799388 159.22185 
L 305.449998 160.268592 
L 306.100608 157.597426 
L 306.751219 166.199614 
L 307.401829 160.197546 
L 308.052439 160.493574 
L 308.70305 156.417051 
L 309.35366 163.346439 
L 310.00427 154.060137 
L 310.654881 151.236119 
L 311.305491 154.88692 
L 312.606712 166.10707 
L 313.257322 153.241128 
L 313.907932 166.207507 
L 314.558543 175.062756 
L 315.209153 161.012299 
L 315.859763 167.200713 
L 316.510373 158.217947 
L 317.811594 173.896862 
L 318.462204 148.861198 
L 319.112815 155.759222 
L 319.763425 154.638386 
L 320.414035 161.167493 
L 321.064646 169.519153 
L 321.715256 152.233105 
L 322.365866 152.359267 
L 323.016477 169.958887 
L 323.667087 168.008858 
L 324.317697 154.283476 
L 324.968308 161.453139 
L 325.618918 151.471215 
L 326.269528 153.816894 
L 326.920138 161.534395 
L 327.570749 158.236024 
L 328.221359 159.506383 
L 328.871969 168.507348 
L 329.52258 157.781626 
L 330.17319 155.737173 
L 330.8238 155.650666 
L 331.474411 159.751838 
L 332.125021 170.320586 
L 332.775631 161.825844 
L 333.426242 159.350149 
L 334.076852 169.244601 
L 334.727462 151.985741 
L 335.378073 163.040868 
L 336.028683 162.537878 
L 336.679293 151.228321 
L 337.329903 148.400982 
L 337.980514 147.628549 
L 338.631124 157.722346 
L 339.281734 148.872052 
L 339.932345 158.972773 
L 340.582955 160.503237 
L 341.233565 161.24521 
L 341.884176 167.655586 
L 343.185396 147.743832 
L 343.836007 155.581186 
L 344.486617 159.160009 
L 345.137227 155.155733 
L 345.787837 160.118367 
L 346.438448 144.491125 
L 347.089058 140.142407 
L 347.739668 148.848695 
L 348.390279 131.675449 
L 349.040889 133.097299 
L 349.691499 152.407991 
L 350.34211 137.902815 
L 350.99272 143.457995 
L 351.64333 157.56481 
L 352.293941 150.591582 
L 352.944551 142.38738 
L 353.595161 138.235986 
L 354.896382 142.39036 
L 355.546992 142.032758 
L 356.197602 140.881578 
L 356.848213 140.896456 
L 357.498823 133.198337 
L 358.149433 141.848096 
L 358.800044 143.6474 
L 359.450654 141.977162 
L 360.101264 143.962187 
L 360.751875 154.504325 
L 361.402485 141.631626 
L 362.053095 146.076825 
L 362.703706 147.649393 
L 363.354316 138.465952 
L 364.004926 138.152443 
L 364.655537 145.027974 
L 365.306147 138.209241 
L 365.956757 145.534656 
L 366.607367 137.1169 
L 367.257978 146.562022 
L 367.908588 135.711355 
L 368.559198 140.872209 
L 369.209809 147.791327 
L 369.860419 134.520804 
L 370.511029 144.421103 
L 371.16164 140.132601 
L 371.81225 144.387507 
L 372.46286 134.250796 
L 373.113471 147.673932 
L 373.764081 145.21865 
L 374.414691 147.281701 
L 375.065302 136.306809 
L 375.715912 134.237918 
L 376.366522 142.60788 
L 377.017132 146.808366 
L 377.667743 146.491275 
L 378.318353 148.176607 
L 378.968963 143.02378 
L 379.619574 140.592783 
L 380.270184 136.057568 
L 380.920794 140.435006 
L 381.571405 130.52437 
L 382.222015 145.78146 
L 382.872625 142.632876 
L 383.523236 148.533839 
L 384.173846 143.712505 
L 384.824456 143.077762 
L 385.475066 137.857673 
L 386.125677 147.394455 
L 386.776287 143.83519 
L 387.426897 150.144488 
L 388.077508 152.575226 
L 388.728118 137.735968 
L 389.378728 138.07557 
L 390.029339 143.496921 
L 390.679949 144.288041 
L 391.330559 146.70198 
L 391.98117 157.03201 
L 392.63178 149.657588 
L 393.28239 153.782525 
L 393.933001 147.334417 
L 394.583611 153.962063 
L 395.234221 147.433907 
L 395.884831 157.04726 
L 396.535442 141.845394 
L 397.186052 147.930683 
L 397.836662 145.912643 
L 398.487273 147.652653 
L 398.487273 147.652653 
" style="fill:none;stroke:#0000ff;stroke-linecap:square;stroke-width:1.5;"/>
   </g>
   <g id="line2d_24">
    <path clip-path="url(#p318777282c)" d="M 73.832727 228.213318 
L 74.483338 242.626355 
L 75.133948 244.842825 
L 75.784558 262.755585 
L 76.435169 256.798248 
L 77.085779 238.997874 
L 77.736389 271.378681 
L 78.386999 221.071383 
L 79.03761 240.888442 
L 79.68822 241.355731 
L 80.33883 233.807033 
L 80.989441 222.965445 
L 81.640051 229.895955 
L 82.290661 279.804211 
L 82.941272 245.446231 
L 83.591882 247.969863 
L 84.242492 262.258091 
L 84.893103 237.56299 
L 85.543713 260.97618 
L 86.194323 222.692388 
L 86.844934 247.574731 
L 87.495544 228.730144 
L 88.146154 230.975256 
L 88.796764 240.754718 
L 89.447375 237.831407 
L 90.097985 246.937801 
L 90.748595 243.463044 
L 91.399206 227.648841 
L 92.049816 253.167673 
L 92.700426 233.749174 
L 93.351037 226.471283 
L 94.001647 238.475675 
L 94.652257 240.047007 
L 95.302868 226.658798 
L 95.953478 236.371778 
L 96.604088 235.828585 
L 97.254698 228.691828 
L 97.905309 235.346089 
L 98.555919 230.020458 
L 99.206529 249.695803 
L 99.85714 228.238733 
L 100.50775 255.427733 
L 101.808971 241.228863 
L 102.459581 256.646689 
L 103.110191 266.877596 
L 103.760802 225.465115 
L 104.411412 230.901466 
L 105.062022 237.761187 
L 105.712633 240.467607 
L 106.363243 210.376246 
L 107.013853 225.919362 
L 107.664463 215.737675 
L 108.315074 230.050413 
L 108.965684 225.648677 
L 109.616294 233.913794 
L 110.266905 238.483679 
L 110.917515 225.26347 
L 111.568125 214.579282 
L 112.218736 243.307433 
L 112.869346 211.02476 
L 113.519956 223.998128 
L 114.170567 207.873574 
L 114.821177 261.172474 
L 115.471787 211.033645 
L 116.122398 224.496259 
L 116.773008 205.799619 
L 117.423618 216.889607 
L 118.074228 220.728218 
L 118.724839 249.057339 
L 119.375449 234.257948 
L 120.026059 235.957879 
L 121.32728 224.497236 
L 121.97789 242.852821 
L 122.628501 249.879822 
L 123.279111 224.33364 
L 123.929721 265.48639 
L 124.580332 240.873543 
L 125.230942 273.225215 
L 125.881552 237.221093 
L 126.532163 264.073456 
L 127.182773 221.227794 
L 127.833383 240.668528 
L 128.483993 240.706148 
L 129.785214 224.070256 
L 130.435824 234.335915 
L 131.086435 240.572546 
L 131.737045 240.352257 
L 132.387655 245.45264 
L 133.038266 236.123893 
L 133.688876 218.200781 
L 134.339486 221.043128 
L 134.990097 224.598559 
L 135.640707 250.479668 
L 136.291317 226.716342 
L 136.941927 235.513224 
L 137.592538 235.559866 
L 138.243148 225.220718 
L 138.893758 253.388088 
L 139.544369 224.274803 
L 140.194979 273.580186 
L 140.845589 250.49156 
L 141.4962 236.330525 
L 142.14681 239.704947 
L 142.79742 239.6152 
L 143.448031 224.885519 
L 144.098641 244.274877 
L 144.749251 245.185927 
L 145.399862 250.444202 
L 146.050472 228.416722 
L 146.701082 243.766159 
L 147.351692 233.36231 
L 148.002303 229.876422 
L 148.652913 237.656074 
L 149.303523 237.246758 
L 149.954134 219.399405 
L 150.604744 210.764518 
L 151.255354 227.195427 
L 151.905965 229.202456 
L 152.556575 242.527427 
L 153.207185 253.190674 
L 153.857796 236.130314 
L 154.508406 237.260127 
L 155.159016 237.791424 
L 155.809627 237.788122 
L 156.460237 239.854511 
L 157.110847 220.90636 
L 157.761457 215.845686 
L 158.412068 242.228884 
L 159.062678 235.161281 
L 159.713288 235.902883 
L 160.363899 222.151583 
L 161.014509 244.49504 
L 161.665119 207.043199 
L 162.31573 220.7886 
L 162.96634 214.45776 
L 163.61695 200.984488 
L 164.267561 199.810557 
L 165.568781 216.130564 
L 166.219392 198.596453 
L 166.870002 229.803763 
L 167.520612 215.046737 
L 168.171222 219.445092 
L 168.821833 207.189371 
L 169.472443 198.032688 
L 170.123053 185.739695 
L 170.773664 206.46741 
L 171.424274 199.159526 
L 172.074884 226.420376 
L 172.725495 214.924683 
L 173.376105 198.968811 
L 174.026715 205.501105 
L 174.677326 214.631926 
L 175.327936 221.89579 
L 175.978546 215.518991 
L 176.629156 217.517881 
L 177.279767 205.023216 
L 177.930377 201.516809 
L 178.580987 203.983966 
L 179.231598 213.98641 
L 179.882208 197.160538 
L 180.532818 216.722587 
L 181.183429 208.356587 
L 181.834039 220.693911 
L 182.484649 229.494419 
L 183.13526 218.187745 
L 183.78587 216.862208 
L 184.43648 220.471751 
L 185.087091 239.253369 
L 185.737701 202.274096 
L 186.388311 190.448777 
L 187.038921 208.554035 
L 187.689532 211.913519 
L 188.340142 240.40361 
L 188.990752 209.634136 
L 189.641363 216.099909 
L 190.291973 212.496527 
L 190.942583 217.893739 
L 191.593194 231.883866 
L 192.243804 236.372614 
L 192.894414 228.817423 
L 193.545025 219.200521 
L 194.195635 218.886754 
L 194.846245 243.628848 
L 195.496856 235.041178 
L 196.147466 223.765792 
L 196.798076 234.753745 
L 197.448686 220.514738 
L 198.099297 229.69432 
L 198.749907 246.320446 
L 199.400517 233.630841 
L 200.051128 262.674569 
L 200.701738 239.322558 
L 201.352348 267.869378 
L 202.002959 249.555752 
L 202.653569 235.419038 
L 203.304179 243.731685 
L 203.95479 218.20714 
L 204.6054 267.8755 
L 205.25601 240.119015 
L 205.906621 252.465348 
L 206.557231 246.54317 
L 207.207841 244.664556 
L 207.858451 249.315776 
L 208.509062 241.044256 
L 209.159672 272.716185 
L 209.810282 241.777828 
L 210.460893 237.080253 
L 211.111503 245.736061 
L 211.762113 240.467399 
L 212.412724 257.112065 
L 213.063334 262.056361 
L 213.713944 258.358644 
L 214.364555 234.399598 
L 215.015165 226.178074 
L 215.665775 220.876026 
L 216.316385 237.231372 
L 216.966996 264.90901 
L 217.617606 238.464277 
L 218.268216 231.62054 
L 218.918827 231.11888 
L 219.569437 233.629326 
L 220.220047 241.623935 
L 220.870658 236.85502 
L 221.521268 244.485211 
L 222.171878 247.890021 
L 222.822489 231.020677 
L 223.473099 230.725097 
L 224.123709 264.353594 
L 224.77432 246.943627 
L 225.42493 260.431704 
L 226.07554 252.230872 
L 226.72615 237.120814 
L 227.376761 236.056499 
L 228.027371 243.900362 
L 228.677981 262.708354 
L 229.979202 230.092248 
L 230.629812 266.701897 
L 231.280423 253.107629 
L 231.931033 247.034651 
L 232.581643 232.94675 
L 233.232254 246.68671 
L 233.882864 249.815045 
L 234.533474 226.74943 
L 235.184085 254.607057 
L 235.834695 255.861426 
L 236.485305 229.559092 
L 237.135915 226.67093 
L 237.786526 255.061285 
L 238.437136 219.609485 
L 239.087746 238.715571 
L 239.738357 218.707981 
L 240.388967 237.720408 
L 241.039577 250.970493 
L 241.690188 228.621885 
L 242.340798 234.732222 
L 242.991408 237.594492 
L 243.642019 243.939155 
L 244.292629 203.210224 
L 244.943239 239.06099 
L 245.59385 243.438171 
L 246.24446 238.42077 
L 246.89507 229.286275 
L 247.54568 209.683782 
L 248.196291 237.057203 
L 248.846901 222.785411 
L 249.497511 219.230196 
L 250.148122 236.821035 
L 250.798732 216.750526 
L 251.449342 217.557184 
L 252.099953 237.591261 
L 252.750563 240.275785 
L 253.401173 253.406716 
L 254.051784 220.943946 
L 254.702394 218.513913 
L 255.353004 249.465771 
L 256.003615 235.533604 
L 256.654225 252.376276 
L 257.304835 237.962376 
L 257.955445 238.304946 
L 258.606056 231.939313 
L 259.256666 281.119906 
L 259.907276 228.076251 
L 260.557887 239.823716 
L 261.208497 241.686455 
L 261.859107 245.723984 
L 262.509718 253.569824 
L 263.160328 245.125364 
L 263.810938 224.973183 
L 264.461549 238.651935 
L 265.112159 244.82815 
L 265.762769 237.079177 
L 266.413379 236.043637 
L 267.06399 217.319892 
L 267.7146 253.937465 
L 268.36521 246.821898 
L 269.015821 251.133545 
L 269.666431 237.141706 
L 270.317041 198.995103 
L 270.967652 242.44521 
L 271.618262 240.627506 
L 272.268872 270.312689 
L 272.919483 237.67441 
L 273.570093 247.944135 
L 274.220703 252.236198 
L 274.871314 248.116536 
L 275.521924 263.445062 
L 276.172534 235.003599 
L 276.823144 231.826622 
L 277.473755 252.69955 
L 278.124365 238.292166 
L 278.774975 242.857322 
L 279.425586 258.252002 
L 280.076196 231.68612 
L 280.726806 273.712887 
L 281.377417 238.379453 
L 282.028027 240.125813 
L 282.678637 248.743659 
L 283.329248 243.221731 
L 283.979858 248.121808 
L 284.630468 240.84214 
L 285.281079 271.29201 
L 285.931689 259.857296 
L 286.582299 241.348839 
L 287.232909 295.488 
L 287.88352 265.777207 
L 288.53413 252.297931 
L 289.18474 259.075894 
L 289.835351 269.643017 
L 290.485961 248.456617 
L 291.136571 234.41028 
L 291.787182 232.772071 
L 292.437792 231.629137 
L 293.088402 243.806035 
L 293.739013 220.374211 
L 294.389623 228.774177 
L 295.040233 234.897465 
L 295.690844 247.41649 
L 296.341454 233.110707 
L 296.992064 238.945556 
L 297.642674 232.3658 
L 298.293285 222.326244 
L 298.943895 228.106776 
L 299.594505 246.051389 
L 300.245116 255.018078 
L 300.895726 229.852487 
L 301.546336 226.364483 
L 302.196947 260.765361 
L 302.847557 215.291935 
L 303.498167 272.457652 
L 304.799388 249.243777 
L 305.449998 257.156317 
L 306.100608 251.589378 
L 306.751219 271.476303 
L 307.401829 262.89263 
L 308.052439 252.207194 
L 308.70305 253.010167 
L 309.35366 257.1563 
L 310.00427 242.410566 
L 310.654881 238.902368 
L 311.305491 242.363942 
L 312.606712 265.900198 
L 313.257322 244.46156 
L 313.907932 271.793829 
L 314.558543 290.298814 
L 315.209153 258.143865 
L 315.859763 267.508394 
L 316.510373 248.960143 
L 317.811594 282.780061 
L 318.462204 233.880052 
L 319.112815 243.405838 
L 319.763425 240.605451 
L 321.064646 278.003004 
L 321.715256 236.10706 
L 322.365866 238.332142 
L 323.016477 274.950461 
L 323.667087 279.223492 
L 324.317697 246.866274 
L 324.968308 258.715265 
L 325.618918 241.693082 
L 326.269528 244.322336 
L 326.920138 267.699741 
L 327.570749 254.746829 
L 328.221359 256.951439 
L 328.871969 277.467419 
L 329.52258 254.125163 
L 330.17319 250.856059 
L 330.8238 251.081139 
L 331.474411 254.164643 
L 332.125021 280.518925 
L 333.426242 257.852379 
L 334.076852 279.656401 
L 334.727462 243.221258 
L 335.378073 261.085072 
L 336.028683 265.483599 
L 336.679293 242.007593 
L 337.329903 235.458223 
L 337.980514 225.397443 
L 338.631124 256.292037 
L 339.281734 235.335524 
L 339.932345 259.740768 
L 340.582955 252.502115 
L 341.233565 254.82942 
L 341.884176 272.177616 
L 342.534786 257.296062 
L 343.185396 236.848601 
L 343.836007 243.245273 
L 344.486617 252.425471 
L 345.137227 246.499574 
L 345.787837 262.728732 
L 346.438448 224.546896 
L 347.089058 220.958763 
L 347.739668 239.060702 
L 348.390279 193.930961 
L 349.040889 188.327722 
L 349.691499 240.925374 
L 350.34211 207.637211 
L 350.99272 225.774271 
L 351.64333 249.429414 
L 352.293941 241.089586 
L 352.944551 230.940324 
L 353.595161 218.082581 
L 354.245772 220.104161 
L 354.896382 223.984299 
L 355.546992 218.415765 
L 356.197602 221.623031 
L 356.848213 211.482427 
L 357.498823 205.274416 
L 358.149433 214.93645 
L 358.800044 218.682157 
L 359.450654 215.681091 
L 360.101264 216.648868 
L 360.751875 245.466466 
L 361.402485 210.182944 
L 362.053095 224.077272 
L 362.703706 230.942231 
L 363.354316 211.289736 
L 364.004926 207.921308 
L 364.655537 227.351529 
L 365.306147 206.217766 
L 365.956757 220.608728 
L 366.607367 210.171378 
L 367.257978 236.442483 
L 367.908588 198.801045 
L 369.209809 231.551199 
L 369.860419 202.729469 
L 370.511029 227.945912 
L 371.16164 210.400453 
L 371.81225 225.724227 
L 372.46286 197.83571 
L 373.113471 235.475037 
L 373.764081 217.09602 
L 374.414691 231.053129 
L 375.065302 210.318754 
L 375.715912 196.385135 
L 376.366522 220.724865 
L 377.017132 225.850187 
L 377.667743 229.185468 
L 378.318353 230.572452 
L 378.968963 225.284786 
L 380.270184 207.814833 
L 380.920794 210.277918 
L 381.571405 181.35804 
L 382.222015 232.901554 
L 382.872625 223.919269 
L 383.523236 231.896627 
L 384.173846 216.978179 
L 384.824456 220.420626 
L 385.475066 210.102533 
L 386.125677 233.972434 
L 386.776287 226.833199 
L 387.426897 237.616183 
L 388.077508 240.357166 
L 388.728118 209.27638 
L 389.378728 206.700261 
L 390.029339 227.008489 
L 390.679949 227.408774 
L 391.330559 232.90378 
L 391.98117 253.550111 
L 392.63178 239.021315 
L 393.28239 247.812621 
L 393.933001 230.059891 
L 394.583611 252.725823 
L 395.234221 233.879371 
L 395.884831 257.562886 
L 396.535442 212.055004 
L 397.186052 234.310723 
L 397.836662 231.996012 
L 398.487273 231.992507 
L 398.487273 231.992507 
" style="fill:none;stroke:#008000;stroke-dasharray:9.6,2.4,1.5,2.4;stroke-dashoffset:0;stroke-width:1.5;"/>
   </g>
   <g id="line2d_25">
    <path clip-path="url(#p318777282c)" d="M 73.832727 114.897773 
L 74.483338 71.892449 
L 75.133948 72.192403 
L 75.784558 75.237904 
L 76.435169 75.384638 
L 77.736389 66.023097 
L 78.386999 75.048648 
L 79.03761 66.168667 
L 79.68822 65.883513 
L 80.33883 69.517359 
L 80.989441 70.554221 
L 81.640051 68.51626 
L 82.290661 69.540807 
L 82.941272 67.172043 
L 83.591882 61.937924 
L 84.242492 67.874505 
L 84.893103 68.192514 
L 85.543713 66.387874 
L 86.194323 71.702239 
L 86.844934 71.052609 
L 87.495544 69.868729 
L 88.146154 71.25067 
L 88.796764 63.85864 
L 89.447375 70.904456 
L 90.097985 59.70833 
L 90.748595 67.609267 
L 91.399206 63.69225 
L 92.049816 61.122552 
L 92.700426 66.414555 
L 93.351037 65.856993 
L 94.001647 64.117876 
L 94.652257 64.752027 
L 95.302868 67.692093 
L 95.953478 64.298365 
L 96.604088 71.804545 
L 97.254698 61.724598 
L 97.905309 64.186832 
L 98.555919 67.619039 
L 99.206529 65.323746 
L 99.85714 70.709002 
L 100.50775 66.731095 
L 101.15836 66.560327 
L 101.808971 70.538111 
L 102.459581 64.273286 
L 103.110191 61.714069 
L 104.411412 72.806039 
L 105.062022 60.400558 
L 105.712633 66.409947 
L 106.363243 74.055906 
L 107.013853 71.363461 
L 107.664463 71.265961 
L 108.315074 71.028753 
L 108.965684 66.353801 
L 109.616294 65.40547 
L 110.266905 63.414555 
L 110.917515 65.361256 
L 111.568125 74.513287 
L 112.218736 69.824206 
L 112.869346 72.392251 
L 113.519956 68.358306 
L 114.170567 77.806135 
L 114.821177 61.430474 
L 115.471787 66.770457 
L 116.122398 71.087477 
L 116.773008 76.662554 
L 117.423618 69.989644 
L 118.074228 71.563097 
L 118.724839 61.94639 
L 119.375449 68.170367 
L 120.026059 65.631386 
L 120.67667 59.132522 
L 121.32728 65.233279 
L 121.97789 62.056857 
L 122.628501 68.387409 
L 123.279111 70.881346 
L 123.929721 65.557929 
L 124.580332 72.21665 
L 125.230942 64.706274 
L 125.881552 74.15444 
L 126.532163 65.852308 
L 127.182773 63.782712 
L 127.833383 72.977466 
L 128.483993 69.153452 
L 129.134604 70.686618 
L 129.785214 75.136473 
L 130.435824 70.236733 
L 131.737045 65.749662 
L 132.387655 67.798319 
L 133.038266 71.021952 
L 133.688876 75.395525 
L 134.339486 81.97251 
L 134.990097 77.79251 
L 135.640707 65.963288 
L 136.291317 73.825575 
L 136.941927 68.94386 
L 137.592538 68.314105 
L 138.243148 71.915594 
L 138.893758 63.837325 
L 139.544369 82.025373 
L 140.194979 71.276096 
L 140.845589 65.629365 
L 141.4962 68.098643 
L 142.14681 61.566907 
L 143.448031 70.473935 
L 144.098641 63.379701 
L 144.749251 63.808609 
L 145.399862 67.499671 
L 146.050472 73.100051 
L 146.701082 68.717757 
L 147.351692 78.954824 
L 148.002303 69.818465 
L 148.652913 73.018001 
L 149.303523 72.067721 
L 149.954134 78.864305 
L 150.604744 71.401283 
L 151.255354 72.667905 
L 151.905965 66.039872 
L 152.556575 68.591776 
L 153.207185 75.131552 
L 153.857796 72.044062 
L 154.508406 72.087463 
L 155.159016 63.59893 
L 155.809627 74.764531 
L 156.460237 74.850454 
L 157.110847 71.234201 
L 157.761457 70.432289 
L 158.412068 68.519818 
L 159.062678 71.488972 
L 159.713288 64.468627 
L 160.363899 68.932767 
L 161.014509 61.643127 
L 161.665119 74.37994 
L 162.31573 69.533943 
L 162.96634 69.554591 
L 163.61695 78.076603 
L 164.267561 75.542276 
L 164.918171 66.632183 
L 165.568781 72.776312 
L 166.219392 72.370524 
L 166.870002 71.249933 
L 167.520612 65.165794 
L 168.171222 69.179235 
L 168.821833 71.640622 
L 169.472443 80.10931 
L 170.123053 79.004029 
L 170.773664 71.767217 
L 171.424274 72.067955 
L 172.074884 66.663363 
L 172.725495 69.719098 
L 173.376105 78.61396 
L 174.026715 71.178983 
L 174.677326 76.718493 
L 175.327936 69.139997 
L 175.978546 69.036674 
L 176.629156 66.883499 
L 177.279767 78.989839 
L 177.930377 75.550301 
L 178.580987 75.484418 
L 179.231598 71.431255 
L 179.882208 79.678274 
L 180.532818 79.671755 
L 181.183429 77.154061 
L 181.834039 68.5056 
L 182.484649 61.755415 
L 183.13526 67.230944 
L 183.78587 70.779106 
L 184.43648 65.035832 
L 185.087091 60.951458 
L 185.737701 73.046481 
L 186.388311 70.154963 
L 187.038921 68.594245 
L 187.689532 74.25176 
L 188.340142 63.351679 
L 188.990752 70.561267 
L 189.641363 63.925658 
L 190.291973 69.829406 
L 190.942583 63.897793 
L 191.593194 55.341808 
L 192.243804 67.243354 
L 192.894414 62.590878 
L 193.545025 64.099007 
L 194.195635 66.014551 
L 194.846245 54.217072 
L 195.496856 62.955813 
L 196.147466 59.440221 
L 196.798076 58.700667 
L 197.448686 54.502327 
L 198.099297 62.496658 
L 198.749907 59.024412 
L 199.400517 60.562046 
L 200.051128 54.973765 
L 200.701738 56.559648 
L 201.352348 53.568 
L 202.002959 55.632017 
L 202.653569 60.362355 
L 203.304179 58.374576 
L 203.95479 60.984454 
L 204.6054 55.82786 
L 205.25601 60.392393 
L 205.906621 63.219634 
L 206.557231 57.338847 
L 207.207841 63.05776 
L 207.858451 58.787967 
L 208.509062 60.630685 
L 209.159672 60.269073 
L 209.810282 59.569717 
L 210.460893 62.924099 
L 211.111503 64.282101 
L 211.762113 63.218428 
L 212.412724 55.549924 
L 213.063334 62.926596 
L 213.713944 57.359913 
L 214.364555 64.715967 
L 215.015165 75.079235 
L 215.665775 72.230064 
L 216.316385 60.324523 
L 216.966996 56.576169 
L 217.617606 69.456452 
L 218.268216 62.742808 
L 218.918827 67.205774 
L 219.569437 63.564705 
L 220.220047 65.378189 
L 220.870658 64.599801 
L 221.521268 66.423598 
L 222.171878 60.850412 
L 222.822489 65.163347 
L 223.473099 66.626122 
L 224.123709 62.482345 
L 224.77432 68.63294 
L 225.42493 60.429997 
L 226.07554 70.971924 
L 226.72615 63.194617 
L 227.376761 65.232323 
L 228.027371 68.350976 
L 228.677981 64.708929 
L 229.328592 64.677899 
L 229.979202 65.188084 
L 230.629812 59.195928 
L 231.280423 65.278851 
L 231.931033 64.935852 
L 232.581643 68.396153 
L 233.232254 62.370378 
L 233.882864 61.460568 
L 234.533474 67.305786 
L 235.184085 56.886594 
L 235.834695 58.542593 
L 236.485305 63.563227 
L 237.135915 66.152348 
L 237.786526 56.853861 
L 238.437136 69.368208 
L 239.087746 58.793716 
L 239.738357 65.718991 
L 240.388967 61.832823 
L 241.039577 63.910281 
L 241.690188 63.171707 
L 242.340798 62.207112 
L 242.991408 64.475488 
L 243.642019 61.126936 
L 244.292629 65.552031 
L 244.943239 57.878742 
L 245.59385 57.247796 
L 246.24446 59.468158 
L 246.89507 63.438568 
L 247.54568 70.287672 
L 248.196291 61.688872 
L 248.846901 67.907558 
L 249.497511 67.583186 
L 250.148122 63.738783 
L 250.798732 66.711115 
L 251.449342 67.219509 
L 252.099953 60.173919 
L 252.750563 55.945247 
L 253.401173 57.258177 
L 254.051784 61.767233 
L 254.702394 70.127828 
L 255.353004 57.682164 
L 256.003615 58.672127 
L 256.654225 71.151075 
L 257.304835 63.534161 
L 257.955445 66.501093 
L 258.606056 68.906613 
L 259.256666 61.166964 
L 259.907276 67.245361 
L 260.557887 65.636644 
L 261.208497 59.010393 
L 261.859107 64.807945 
L 262.509718 67.702967 
L 263.160328 68.329015 
L 263.810938 69.138068 
L 264.461549 67.647633 
L 265.112159 60.079231 
L 265.762769 68.418915 
L 266.413379 68.368562 
L 267.06399 66.243721 
L 267.7146 54.660828 
L 268.36521 56.895519 
L 269.015821 64.483393 
L 269.666431 64.626776 
L 270.317041 76.784904 
L 270.967652 66.573885 
L 271.618262 65.358516 
L 272.268872 66.490234 
L 272.919483 63.335205 
L 273.570093 63.861425 
L 274.220703 61.346845 
L 274.871314 60.25562 
L 275.521924 61.454857 
L 276.172534 68.721603 
L 276.823144 70.264693 
L 277.473755 68.030492 
L 278.124365 68.114803 
L 278.774975 67.55393 
L 279.425586 71.236685 
L 280.076196 67.245081 
L 280.726806 61.352529 
L 281.377417 64.648465 
L 282.028027 67.046704 
L 282.678637 64.992568 
L 283.329248 73.555085 
L 283.979858 67.082505 
L 285.281079 64.922704 
L 285.931689 65.878409 
L 286.582299 63.923605 
L 287.232909 66.469815 
L 287.88352 61.877733 
L 288.53413 63.903318 
L 289.18474 70.9675 
L 289.835351 64.13709 
L 290.485961 68.21845 
L 291.136571 71.072969 
L 291.787182 68.083465 
L 292.437792 65.857839 
L 293.088402 69.233111 
L 293.739013 68.315795 
L 294.389623 63.979383 
L 295.040233 66.369243 
L 295.690844 67.248635 
L 296.341454 65.229189 
L 296.992064 65.608406 
L 297.642674 72.100058 
L 298.293285 68.509831 
L 298.943895 66.304544 
L 300.245116 55.743358 
L 300.895726 68.58098 
L 301.546336 69.934361 
L 302.196947 65.464471 
L 302.847557 70.555931 
L 303.498167 66.659057 
L 304.148778 69.780754 
L 304.799388 69.199923 
L 305.449998 63.380868 
L 306.100608 63.605474 
L 306.751219 60.922925 
L 307.401829 57.502462 
L 308.052439 68.779953 
L 308.70305 59.823935 
L 309.35366 69.536578 
L 310.00427 65.709709 
L 310.654881 63.56987 
L 311.305491 67.409899 
L 311.956101 66.495667 
L 312.606712 66.313941 
L 313.257322 62.020695 
L 313.907932 60.621185 
L 314.558543 59.826698 
L 315.209153 63.880733 
L 315.859763 66.893032 
L 316.510373 67.47575 
L 317.160984 65.505821 
L 317.811594 65.013664 
L 318.462204 63.842345 
L 319.112815 68.112606 
L 319.763425 68.671321 
L 320.414035 61.61403 
L 321.064646 61.035302 
L 321.715256 68.35915 
L 322.365866 66.386392 
L 323.016477 64.967314 
L 323.667087 56.794225 
L 324.317697 61.700678 
L 324.968308 64.191013 
L 325.618918 61.249347 
L 326.269528 63.311452 
L 326.920138 55.369049 
L 327.570749 61.725219 
L 328.221359 62.061327 
L 328.871969 59.547277 
L 329.52258 61.438089 
L 330.17319 60.618287 
L 330.8238 60.220193 
L 331.474411 65.339033 
L 332.775631 54.734419 
L 333.426242 60.847919 
L 334.076852 58.8328 
L 334.727462 60.750225 
L 335.378073 64.996664 
L 336.028683 59.592158 
L 337.329903 61.343742 
L 337.980514 69.859655 
L 338.631124 59.152654 
L 339.281734 62.408581 
L 339.932345 58.204779 
L 340.582955 68.504359 
L 341.233565 67.661001 
L 341.884176 63.133557 
L 342.534786 56.767138 
L 343.185396 58.639063 
L 343.836007 67.9171 
L 345.137227 63.811893 
L 345.787837 57.508002 
L 346.438448 64.435354 
L 347.089058 59.326052 
L 347.739668 58.636688 
L 348.390279 69.419938 
L 349.040889 77.866876 
L 349.691499 63.890608 
L 350.34211 68.168418 
L 350.99272 61.14172 
L 351.64333 65.700206 
L 352.944551 53.834437 
L 353.595161 58.389391 
L 354.245772 60.837142 
L 354.896382 60.79642 
L 355.546992 65.649751 
L 356.197602 60.140125 
L 356.848213 70.310484 
L 357.498823 61.122257 
L 358.149433 68.759742 
L 358.800044 68.612642 
L 359.450654 68.273233 
L 360.101264 71.275505 
L 360.751875 63.542184 
L 361.402485 73.080309 
L 362.053095 68.076377 
L 362.703706 64.356555 
L 363.354316 65.642169 
L 364.004926 68.383577 
L 364.655537 62.704419 
L 365.306147 70.200717 
L 365.956757 70.460585 
L 367.257978 56.681562 
L 367.908588 72.621666 
L 368.559198 66.321857 
L 369.209809 64.031455 
L 369.860419 66.312139 
L 370.511029 60.896294 
L 371.16164 69.864748 
L 371.81225 63.050787 
L 372.46286 70.665883 
L 373.113471 59.872828 
L 373.764081 73.341281 
L 374.414691 63.510272 
L 375.065302 62.294863 
L 375.715912 72.090702 
L 376.366522 64.490896 
L 377.017132 67.766545 
L 377.667743 63.797082 
L 378.318353 65.780762 
L 378.968963 60.762775 
L 379.619574 64.267439 
L 380.270184 64.300302 
L 380.920794 70.592094 
L 381.571405 79.6907 
L 382.222015 58.661366 
L 382.872625 61.346483 
L 383.523236 65.17105 
L 384.173846 70.446831 
L 384.824456 65.734898 
L 385.475066 65.612814 
L 386.125677 60.816476 
L 386.776287 60.837182 
L 388.728118 66.195556 
L 389.378728 69.450879 
L 390.029339 59.985354 
L 390.679949 61.167308 
L 391.330559 60.50018 
L 391.98117 60.513909 
L 392.63178 60.29386 
L 393.28239 59.752428 
L 393.933001 64.608943 
L 394.583611 55.198304 
L 395.234221 60.988443 
L 395.884831 56.531634 
L 396.535442 71.635784 
L 397.186052 61.550644 
L 397.836662 59.829274 
L 398.487273 63.3128 
L 398.487273 63.3128 
" style="fill:none;stroke:#008000;stroke-dasharray:9.6,2.4,1.5,2.4;stroke-dashoffset:0;stroke-width:1.5;"/>
   </g>
   <g id="line2d_26">
    <path clip-path="url(#p318777282c)" d="M 73.832727 93.763707 
L 105.712633 93.763707 
L 106.363243 93.407489 
L 114.821177 93.407489 
L 115.471787 93.13881 
L 156.460237 93.13881 
L 157.110847 93.025981 
L 212.412724 92.958376 
L 213.063334 92.799035 
L 282.028027 92.752487 
L 283.329248 92.641172 
L 388.728118 92.538783 
L 391.98117 92.514309 
L 398.487273 92.514309 
L 398.487273 92.514309 
" style="fill:none;stroke:#ff0000;stroke-linecap:square;stroke-width:1.5;"/>
   </g>
   <g id="patch_3">
    <path d="M 57.6 307.584 
L 57.6 41.472 
" style="fill:none;stroke:#000000;stroke-linecap:square;stroke-linejoin:miter;stroke-width:0.8;"/>
   </g>
   <g id="patch_4">
    <path d="M 414.72 307.584 
L 414.72 41.472 
" style="fill:none;stroke:#000000;stroke-linecap:square;stroke-linejoin:miter;stroke-width:0.8;"/>
   </g>
   <g id="patch_5">
    <path d="M 57.6 307.584 
L 414.72 307.584 
" style="fill:none;stroke:#000000;stroke-linecap:square;stroke-linejoin:miter;stroke-width:0.8;"/>
   </g>
   <g id="patch_6">
    <path d="M 57.6 41.472 
L 414.72 41.472 
" style="fill:none;stroke:#000000;stroke-linecap:square;stroke-linejoin:miter;stroke-width:0.8;"/>
   </g>
   <g id="text_14">
    <!-- Population's average and best fitness -->
    <defs>
     <path d="M 19.671875 64.796875 
L 19.671875 37.40625 
L 32.078125 37.40625 
Q 38.96875 37.40625 42.71875 40.96875 
Q 46.484375 44.53125 46.484375 51.125 
Q 46.484375 57.671875 42.71875 61.234375 
Q 38.96875 64.796875 32.078125 64.796875 
z
M 9.8125 72.90625 
L 32.078125 72.90625 
Q 44.34375 72.90625 50.609375 67.359375 
Q 56.890625 61.8125 56.890625 51.125 
Q 56.890625 40.328125 50.609375 34.8125 
Q 44.34375 29.296875 32.078125 29.296875 
L 19.671875 29.296875 
L 19.671875 0 
L 9.8125 0 
z
" id="DejaVuSans-80"/>
     <path d="M 18.109375 8.203125 
L 18.109375 -20.796875 
L 9.078125 -20.796875 
L 9.078125 54.6875 
L 18.109375 54.6875 
L 18.109375 46.390625 
Q 20.953125 51.265625 25.265625 53.625 
Q 29.59375 56 35.59375 56 
Q 45.5625 56 51.78125 48.09375 
Q 58.015625 40.1875 58.015625 27.296875 
Q 58.015625 14.40625 51.78125 6.484375 
Q 45.5625 -1.421875 35.59375 -1.421875 
Q 29.59375 -1.421875 25.265625 0.953125 
Q 20.953125 3.328125 18.109375 8.203125 
z
M 48.6875 27.296875 
Q 48.6875 37.203125 44.609375 42.84375 
Q 40.53125 48.484375 33.40625 48.484375 
Q 26.265625 48.484375 22.1875 42.84375 
Q 18.109375 37.203125 18.109375 27.296875 
Q 18.109375 17.390625 22.1875 11.75 
Q 26.265625 6.109375 33.40625 6.109375 
Q 40.53125 6.109375 44.609375 11.75 
Q 48.6875 17.390625 48.6875 27.296875 
z
" id="DejaVuSans-112"/>
     <path d="M 8.5 21.578125 
L 8.5 54.6875 
L 17.484375 54.6875 
L 17.484375 21.921875 
Q 17.484375 14.15625 20.5 10.265625 
Q 23.53125 6.390625 29.59375 6.390625 
Q 36.859375 6.390625 41.078125 11.03125 
Q 45.3125 15.671875 45.3125 23.6875 
L 45.3125 54.6875 
L 54.296875 54.6875 
L 54.296875 0 
L 45.3125 0 
L 45.3125 8.40625 
Q 42.046875 3.421875 37.71875 1 
Q 33.40625 -1.421875 27.6875 -1.421875 
Q 18.265625 -1.421875 13.375 4.4375 
Q 8.5 10.296875 8.5 21.578125 
z
M 31.109375 56 
z
" id="DejaVuSans-117"/>
     <path d="M 9.421875 75.984375 
L 18.40625 75.984375 
L 18.40625 0 
L 9.421875 0 
z
" id="DejaVuSans-108"/>
     <path d="M 17.921875 72.90625 
L 17.921875 45.796875 
L 9.625 45.796875 
L 9.625 72.90625 
z
" id="DejaVuSans-39"/>
     <path id="DejaVuSans-32"/>
     <path d="M 2.984375 54.6875 
L 12.5 54.6875 
L 29.59375 8.796875 
L 46.6875 54.6875 
L 56.203125 54.6875 
L 35.6875 0 
L 23.484375 0 
z
" id="DejaVuSans-118"/>
     <path d="M 45.40625 27.984375 
Q 45.40625 37.75 41.375 43.109375 
Q 37.359375 48.484375 30.078125 48.484375 
Q 22.859375 48.484375 18.828125 43.109375 
Q 14.796875 37.75 14.796875 27.984375 
Q 14.796875 18.265625 18.828125 12.890625 
Q 22.859375 7.515625 30.078125 7.515625 
Q 37.359375 7.515625 41.375 12.890625 
Q 45.40625 18.265625 45.40625 27.984375 
z
M 54.390625 6.78125 
Q 54.390625 -7.171875 48.1875 -13.984375 
Q 42 -20.796875 29.203125 -20.796875 
Q 24.46875 -20.796875 20.265625 -20.09375 
Q 16.0625 -19.390625 12.109375 -17.921875 
L 12.109375 -9.1875 
Q 16.0625 -11.328125 19.921875 -12.34375 
Q 23.78125 -13.375 27.78125 -13.375 
Q 36.625 -13.375 41.015625 -8.765625 
Q 45.40625 -4.15625 45.40625 5.171875 
L 45.40625 9.625 
Q 42.625 4.78125 38.28125 2.390625 
Q 33.9375 0 27.875 0 
Q 17.828125 0 11.671875 7.65625 
Q 5.515625 15.328125 5.515625 27.984375 
Q 5.515625 40.671875 11.671875 48.328125 
Q 17.828125 56 27.875 56 
Q 33.9375 56 38.28125 53.609375 
Q 42.625 51.21875 45.40625 46.390625 
L 45.40625 54.6875 
L 54.390625 54.6875 
z
" id="DejaVuSans-103"/>
     <path d="M 45.40625 46.390625 
L 45.40625 75.984375 
L 54.390625 75.984375 
L 54.390625 0 
L 45.40625 0 
L 45.40625 8.203125 
Q 42.578125 3.328125 38.25 0.953125 
Q 33.9375 -1.421875 27.875 -1.421875 
Q 17.96875 -1.421875 11.734375 6.484375 
Q 5.515625 14.40625 5.515625 27.296875 
Q 5.515625 40.1875 11.734375 48.09375 
Q 17.96875 56 27.875 56 
Q 33.9375 56 38.25 53.625 
Q 42.578125 51.265625 45.40625 46.390625 
z
M 14.796875 27.296875 
Q 14.796875 17.390625 18.875 11.75 
Q 22.953125 6.109375 30.078125 6.109375 
Q 37.203125 6.109375 41.296875 11.75 
Q 45.40625 17.390625 45.40625 27.296875 
Q 45.40625 37.203125 41.296875 42.84375 
Q 37.203125 48.484375 30.078125 48.484375 
Q 22.953125 48.484375 18.875 42.84375 
Q 14.796875 37.203125 14.796875 27.296875 
z
" id="DejaVuSans-100"/>
     <path d="M 48.6875 27.296875 
Q 48.6875 37.203125 44.609375 42.84375 
Q 40.53125 48.484375 33.40625 48.484375 
Q 26.265625 48.484375 22.1875 42.84375 
Q 18.109375 37.203125 18.109375 27.296875 
Q 18.109375 17.390625 22.1875 11.75 
Q 26.265625 6.109375 33.40625 6.109375 
Q 40.53125 6.109375 44.609375 11.75 
Q 48.6875 17.390625 48.6875 27.296875 
z
M 18.109375 46.390625 
Q 20.953125 51.265625 25.265625 53.625 
Q 29.59375 56 35.59375 56 
Q 45.5625 56 51.78125 48.09375 
Q 58.015625 40.1875 58.015625 27.296875 
Q 58.015625 14.40625 51.78125 6.484375 
Q 45.5625 -1.421875 35.59375 -1.421875 
Q 29.59375 -1.421875 25.265625 0.953125 
Q 20.953125 3.328125 18.109375 8.203125 
L 18.109375 0 
L 9.078125 0 
L 9.078125 75.984375 
L 18.109375 75.984375 
z
" id="DejaVuSans-98"/>
     <path d="M 37.109375 75.984375 
L 37.109375 68.5 
L 28.515625 68.5 
Q 23.6875 68.5 21.796875 66.546875 
Q 19.921875 64.59375 19.921875 59.515625 
L 19.921875 54.6875 
L 34.71875 54.6875 
L 34.71875 47.703125 
L 19.921875 47.703125 
L 19.921875 0 
L 10.890625 0 
L 10.890625 47.703125 
L 2.296875 47.703125 
L 2.296875 54.6875 
L 10.890625 54.6875 
L 10.890625 58.5 
Q 10.890625 67.625 15.140625 71.796875 
Q 19.390625 75.984375 28.609375 75.984375 
z
" id="DejaVuSans-102"/>
    </defs>
    <g transform="translate(123.315 35.472)scale(0.12 -0.12)">
     <use xlink:href="#DejaVuSans-80"/>
     <use x="60.255859" xlink:href="#DejaVuSans-111"/>
     <use x="121.4375" xlink:href="#DejaVuSans-112"/>
     <use x="184.914062" xlink:href="#DejaVuSans-117"/>
     <use x="248.292969" xlink:href="#DejaVuSans-108"/>
     <use x="276.076172" xlink:href="#DejaVuSans-97"/>
     <use x="337.355469" xlink:href="#DejaVuSans-116"/>
     <use x="376.564453" xlink:href="#DejaVuSans-105"/>
     <use x="404.347656" xlink:href="#DejaVuSans-111"/>
     <use x="465.529297" xlink:href="#DejaVuSans-110"/>
     <use x="528.908203" xlink:href="#DejaVuSans-39"/>
     <use x="556.398438" xlink:href="#DejaVuSans-115"/>
     <use x="608.498047" xlink:href="#DejaVuSans-32"/>
     <use x="640.285156" xlink:href="#DejaVuSans-97"/>
     <use x="701.564453" xlink:href="#DejaVuSans-118"/>
     <use x="760.744141" xlink:href="#DejaVuSans-101"/>
     <use x="822.267578" xlink:href="#DejaVuSans-114"/>
     <use x="863.380859" xlink:href="#DejaVuSans-97"/>
     <use x="924.660156" xlink:href="#DejaVuSans-103"/>
     <use x="988.136719" xlink:href="#DejaVuSans-101"/>
     <use x="1049.660156" xlink:href="#DejaVuSans-32"/>
     <use x="1081.447266" xlink:href="#DejaVuSans-97"/>
     <use x="1142.726562" xlink:href="#DejaVuSans-110"/>
     <use x="1206.105469" xlink:href="#DejaVuSans-100"/>
     <use x="1269.582031" xlink:href="#DejaVuSans-32"/>
     <use x="1301.369141" xlink:href="#DejaVuSans-98"/>
     <use x="1364.845703" xlink:href="#DejaVuSans-101"/>
     <use x="1426.369141" xlink:href="#DejaVuSans-115"/>
     <use x="1478.46875" xlink:href="#DejaVuSans-116"/>
     <use x="1517.677734" xlink:href="#DejaVuSans-32"/>
     <use x="1549.464844" xlink:href="#DejaVuSans-102"/>
     <use x="1584.669922" xlink:href="#DejaVuSans-105"/>
     <use x="1612.453125" xlink:href="#DejaVuSans-116"/>
     <use x="1651.662109" xlink:href="#DejaVuSans-110"/>
     <use x="1715.041016" xlink:href="#DejaVuSans-101"/>
     <use x="1776.564453" xlink:href="#DejaVuSans-115"/>
     <use x="1828.664062" xlink:href="#DejaVuSans-115"/>
    </g>
   </g>
   <g id="legend_1">
    <g id="patch_7">
     <path d="M 334.779375 302.584 
L 407.72 302.584 
Q 409.72 302.584 409.72 300.584 
L 409.72 242.8715 
Q 409.72 240.8715 407.72 240.8715 
L 334.779375 240.8715 
Q 332.779375 240.8715 332.779375 242.8715 
L 332.779375 300.584 
Q 332.779375 302.584 334.779375 302.584 
z
" style="fill:#ffffff;opacity:0.8;stroke:#cccccc;stroke-linejoin:miter;"/>
    </g>
    <g id="line2d_27">
     <path d="M 336.779375 248.969937 
L 356.779375 248.969937 
" style="fill:none;stroke:#0000ff;stroke-linecap:square;stroke-width:1.5;"/>
    </g>
    <g id="line2d_28"/>
    <g id="text_15">
     <!-- average -->
     <g transform="translate(364.779375 252.469937)scale(0.1 -0.1)">
      <use xlink:href="#DejaVuSans-97"/>
      <use x="61.279297" xlink:href="#DejaVuSans-118"/>
      <use x="120.458984" xlink:href="#DejaVuSans-101"/>
      <use x="181.982422" xlink:href="#DejaVuSans-114"/>
      <use x="223.095703" xlink:href="#DejaVuSans-97"/>
      <use x="284.375" xlink:href="#DejaVuSans-103"/>
      <use x="347.851562" xlink:href="#DejaVuSans-101"/>
     </g>
    </g>
    <g id="line2d_29">
     <path d="M 336.779375 263.648062 
L 356.779375 263.648062 
" style="fill:none;stroke:#008000;stroke-dasharray:9.6,2.4,1.5,2.4;stroke-dashoffset:0;stroke-width:1.5;"/>
    </g>
    <g id="line2d_30"/>
    <g id="text_16">
     <!-- -1 sd -->
     <defs>
      <path d="M 4.890625 31.390625 
L 31.203125 31.390625 
L 31.203125 23.390625 
L 4.890625 23.390625 
z
" id="DejaVuSans-45"/>
     </defs>
     <g transform="translate(364.779375 267.148062)scale(0.1 -0.1)">
      <use xlink:href="#DejaVuSans-45"/>
      <use x="36.083984" xlink:href="#DejaVuSans-49"/>
      <use x="99.707031" xlink:href="#DejaVuSans-32"/>
      <use x="131.494141" xlink:href="#DejaVuSans-115"/>
      <use x="183.59375" xlink:href="#DejaVuSans-100"/>
     </g>
    </g>
    <g id="line2d_31">
     <path d="M 336.779375 278.326187 
L 356.779375 278.326187 
" style="fill:none;stroke:#008000;stroke-dasharray:9.6,2.4,1.5,2.4;stroke-dashoffset:0;stroke-width:1.5;"/>
    </g>
    <g id="line2d_32"/>
    <g id="text_17">
     <!-- +1 sd -->
     <defs>
      <path d="M 46 62.703125 
L 46 35.5 
L 73.1875 35.5 
L 73.1875 27.203125 
L 46 27.203125 
L 46 0 
L 37.796875 0 
L 37.796875 27.203125 
L 10.59375 27.203125 
L 10.59375 35.5 
L 37.796875 35.5 
L 37.796875 62.703125 
z
" id="DejaVuSans-43"/>
     </defs>
     <g transform="translate(364.779375 281.826187)scale(0.1 -0.1)">
      <use xlink:href="#DejaVuSans-43"/>
      <use x="83.789062" xlink:href="#DejaVuSans-49"/>
      <use x="147.412109" xlink:href="#DejaVuSans-32"/>
      <use x="179.199219" xlink:href="#DejaVuSans-115"/>
      <use x="231.298828" xlink:href="#DejaVuSans-100"/>
     </g>
    </g>
    <g id="line2d_33">
     <path d="M 336.779375 293.004312 
L 356.779375 293.004312 
" style="fill:none;stroke:#ff0000;stroke-linecap:square;stroke-width:1.5;"/>
    </g>
    <g id="line2d_34"/>
    <g id="text_18">
     <!-- best -->
     <g transform="translate(364.779375 296.504312)scale(0.1 -0.1)">
      <use xlink:href="#DejaVuSans-98"/>
      <use x="63.476562" xlink:href="#DejaVuSans-101"/>
      <use x="125" xlink:href="#DejaVuSans-115"/>
      <use x="177.099609" xlink:href="#DejaVuSans-116"/>
     </g>
    </g>
   </g>
  </g>
 </g>
 <defs>
  <clipPath id="p318777282c">
   <rect height="266.112" width="357.12" x="57.6" y="41.472"/>
  </clipPath>
 </defs>
</svg>
