<?xml version="1.0" encoding="UTF-8" standalone="no"?>
<!DOCTYPE svg PUBLIC "-//W3C//DTD SVG 1.1//EN"
 "http://www.w3.org/Graphics/SVG/1.1/DTD/svg11.dtd">
<!-- Generated by graphviz version 2.38.0 (20140413.2041)
 -->
<!-- Title: %3 Pages: 1 -->
<svg width="316pt" height="204pt"
 viewBox="0.00 0.00 316.25 204.07" xmlns="http://www.w3.org/2000/svg" xmlns:xlink="http://www.w3.org/1999/xlink">
<g id="graph0" class="graph" transform="scale(1 1) rotate(0) translate(4 200.066)">
<title>%3</title>
<polygon fill="white" stroke="none" points="-4,4 -4,-200.066 312.249,-200.066 312.249,4 -4,4"/>
<!-- t&#45;7 -->
<g id="node1" class="node"><title>t&#45;7</title>
<polygon fill="lightgray" stroke="black" points="38.2487,-196.066 11.2487,-196.066 11.2487,-178.066 38.2487,-178.066 38.2487,-196.066"/>
<text text-anchor="middle" x="24.7487" y="-184.866" font-family="Times New Roman,serif" font-size="9.00">t&#45;7</text>
</g>
<!-- 1557 -->
<g id="node10" class="node"><title>1557</title>
<ellipse fill="white" stroke="black" cx="24.7487" cy="-24.7487" rx="25" ry="25"/>
<text text-anchor="middle" x="24.7487" y="-22.5487" font-family="Times New Roman,serif" font-size="9.00">1557</text>
</g>
<!-- t&#45;7&#45;&gt;1557 -->
<g id="edge5" class="edge"><title>t&#45;7&#45;&gt;1557</title>
<path fill="none" stroke="red" stroke-width="0.195643" stroke-dasharray="1,5" d="M23.0737,-178.002C21.34,-169.213 18.7484,-154.712 17.7487,-142.066 15.7675,-117.003 16.2835,-110.596 17.7487,-85.4975 18.242,-77.0473 19.1246,-67.9591 20.1005,-59.4837"/>
<polygon fill="red" stroke="red" stroke-width="0.195643" points="23.5775,-59.8847 21.3173,-49.5337 16.6292,-59.0349 23.5775,-59.8847"/>
</g>
<!-- 1782 -->
<g id="node11" class="node"><title>1782</title>
<ellipse fill="white" stroke="black" cx="51.7487" cy="-113.782" rx="25" ry="25"/>
<text text-anchor="middle" x="51.7487" y="-111.582" font-family="Times New Roman,serif" font-size="9.00">1782</text>
</g>
<!-- t&#45;7&#45;&gt;1782 -->
<g id="edge7" class="edge"><title>t&#45;7&#45;&gt;1782</title>
<path fill="none" stroke="red" stroke-width="0.175632" d="M27.846,-177.889C30.7678,-170.175 35.3392,-158.105 39.7051,-146.579"/>
<polygon fill="red" stroke="red" stroke-width="0.175632" points="43.0143,-147.723 43.2833,-137.132 36.4681,-145.244 43.0143,-147.723"/>
</g>
<!-- t&#45;6 -->
<g id="node2" class="node"><title>t&#45;6</title>
<polygon fill="lightgray" stroke="black" points="83.2487,-196.066 56.2487,-196.066 56.2487,-178.066 83.2487,-178.066 83.2487,-196.066"/>
<text text-anchor="middle" x="69.7487" y="-184.866" font-family="Times New Roman,serif" font-size="9.00">t&#45;6</text>
</g>
<!-- t&#45;5 -->
<g id="node3" class="node"><title>t&#45;5</title>
<polygon fill="lightgray" stroke="black" points="128.249,-196.066 101.249,-196.066 101.249,-178.066 128.249,-178.066 128.249,-196.066"/>
<text text-anchor="middle" x="114.749" y="-184.866" font-family="Times New Roman,serif" font-size="9.00">t&#45;5</text>
</g>
<!-- t&#45;4 -->
<g id="node4" class="node"><title>t&#45;4</title>
<polygon fill="lightgray" stroke="black" points="263.249,-196.066 236.249,-196.066 236.249,-178.066 263.249,-178.066 263.249,-196.066"/>
<text text-anchor="middle" x="249.749" y="-184.866" font-family="Times New Roman,serif" font-size="9.00">t&#45;4</text>
</g>
<!-- Target -->
<g id="node8" class="node"><title>Target</title>
<ellipse fill="lightblue" stroke="black" cx="182.749" cy="-113.782" rx="28.0702" ry="28.0702"/>
<text text-anchor="middle" x="182.749" y="-111.582" font-family="Times New Roman,serif" font-size="9.00">Target</text>
</g>
<!-- t&#45;4&#45;&gt;Target -->
<g id="edge3" class="edge"><title>t&#45;4&#45;&gt;Target</title>
<path fill="none" stroke="green" stroke-width="0.384171" stroke-dasharray="1,5" d="M242.063,-177.889C233.979,-169.288 220.806,-155.273 208.926,-142.633"/>
<polygon fill="green" stroke="green" stroke-width="0.384171" points="211.151,-139.89 201.752,-135 206.051,-144.684 211.151,-139.89"/>
</g>
<!-- 876 -->
<g id="node9" class="node"><title>876</title>
<ellipse fill="white" stroke="black" cx="249.749" cy="-113.782" rx="21.4286" ry="21.4286"/>
<text text-anchor="middle" x="249.749" y="-111.582" font-family="Times New Roman,serif" font-size="9.00">876</text>
</g>
<!-- t&#45;4&#45;&gt;876 -->
<g id="edge6" class="edge"><title>t&#45;4&#45;&gt;876</title>
<path fill="none" stroke="green" stroke-width="0.419342" d="M249.749,-177.889C249.749,-169.856 249.749,-157.1 249.749,-145.153"/>
<polygon fill="green" stroke="green" stroke-width="0.419342" points="253.249,-145 249.749,-135 246.249,-145 253.249,-145"/>
</g>
<!-- t&#45;3 -->
<g id="node5" class="node"><title>t&#45;3</title>
<polygon fill="lightgray" stroke="black" points="173.249,-196.066 146.249,-196.066 146.249,-178.066 173.249,-178.066 173.249,-196.066"/>
<text text-anchor="middle" x="159.749" y="-184.866" font-family="Times New Roman,serif" font-size="9.00">t&#45;3</text>
</g>
<!-- t&#45;3&#45;&gt;Target -->
<g id="edge4" class="edge"><title>t&#45;3&#45;&gt;Target</title>
<path fill="none" stroke="red" stroke-width="0.334233" d="M162.387,-177.889C164.587,-171.071 167.884,-160.852 171.188,-150.612"/>
<polygon fill="red" stroke="red" stroke-width="0.334233" points="174.582,-151.49 174.322,-140.899 167.92,-149.341 174.582,-151.49"/>
</g>
<!-- t&#45;2 -->
<g id="node6" class="node"><title>t&#45;2</title>
<polygon fill="lightgray" stroke="black" points="308.249,-196.066 281.249,-196.066 281.249,-178.066 308.249,-178.066 308.249,-196.066"/>
<text text-anchor="middle" x="294.749" y="-184.866" font-family="Times New Roman,serif" font-size="9.00">t&#45;2</text>
</g>
<!-- t&#45;1 -->
<g id="node7" class="node"><title>t&#45;1</title>
<polygon fill="lightgray" stroke="black" points="218.249,-196.066 191.249,-196.066 191.249,-178.066 218.249,-178.066 218.249,-196.066"/>
<text text-anchor="middle" x="204.749" y="-184.866" font-family="Times New Roman,serif" font-size="9.00">t&#45;1</text>
</g>
<!-- t&#45;1&#45;&gt;Target -->
<g id="edge1" class="edge"><title>t&#45;1&#45;&gt;Target</title>
<path fill="none" stroke="green" stroke-width="0.331558" d="M202.225,-177.889C200.121,-171.071 196.967,-160.852 193.807,-150.612"/>
<polygon fill="green" stroke="green" stroke-width="0.331558" points="197.102,-149.422 190.809,-140.899 190.414,-151.486 197.102,-149.422"/>
</g>
<!-- t&#45;1&#45;&gt;876 -->
<g id="edge2" class="edge"><title>t&#45;1&#45;&gt;876</title>
<path fill="none" stroke="green" stroke-width="0.643772" d="M209.911,-177.889C215.613,-168.856 225.085,-153.851 233.362,-140.739"/>
<polygon fill="green" stroke="green" stroke-width="0.643772" points="236.463,-142.385 238.841,-132.06 230.543,-138.648 236.463,-142.385"/>
</g>
<!-- 1782&#45;&gt;1557 -->
<g id="edge8" class="edge"><title>1782&#45;&gt;1557</title>
<path fill="none" stroke="red" stroke-width="0.201112" d="M44.6548,-89.9148C41.6711,-80.2969 38.1438,-68.927 34.8936,-58.45"/>
<polygon fill="red" stroke="red" stroke-width="0.201112" points="38.1949,-57.279 31.889,-48.7651 31.5092,-59.3531 38.1949,-57.279"/>
</g>
</g>
</svg>
