<?xml version="1.0" encoding="UTF-8" standalone="no"?>
<!DOCTYPE svg PUBLIC "-//W3C//DTD SVG 1.1//EN"
 "http://www.w3.org/Graphics/SVG/1.1/DTD/svg11.dtd">
<!-- Generated by graphviz version 2.38.0 (20140413.2041)
 -->
<!-- Title: %3 Pages: 1 -->
<svg width="409pt" height="321pt"
 viewBox="0.00 0.00 409.23 320.68" xmlns="http://www.w3.org/2000/svg" xmlns:xlink="http://www.w3.org/1999/xlink">
<g id="graph0" class="graph" transform="scale(1 1) rotate(0) translate(4 316.676)">
<title>%3</title>
<polygon fill="white" stroke="none" points="-4,4 -4,-316.676 405.225,-316.676 405.225,4 -4,4"/>
<!-- &#45;7 -->
<g id="node1" class="node"><title>&#45;7</title>
<polygon fill="lightgray" stroke="black" points="75.1127,-312.676 51.1127,-312.676 51.1127,-294.676 75.1127,-294.676 75.1127,-312.676"/>
<text text-anchor="middle" x="63.1127" y="-301.476" font-family="Times New Roman,serif" font-size="9.00">&#45;7</text>
</g>
<!-- &#45;6 -->
<g id="node2" class="node"><title>&#45;6</title>
<polygon fill="lightgray" stroke="black" points="117.113,-312.676 93.1127,-312.676 93.1127,-294.676 117.113,-294.676 117.113,-312.676"/>
<text text-anchor="middle" x="105.113" y="-301.476" font-family="Times New Roman,serif" font-size="9.00">&#45;6</text>
</g>
<!-- &#45;5 -->
<g id="node3" class="node"><title>&#45;5</title>
<polygon fill="lightgray" stroke="black" points="191.113,-138.338 167.113,-138.338 167.113,-120.338 191.113,-120.338 191.113,-138.338"/>
<text text-anchor="middle" x="179.113" y="-127.138" font-family="Times New Roman,serif" font-size="9.00">&#45;5</text>
</g>
<!-- 39681 -->
<g id="node9" class="node"><title>39681</title>
<ellipse fill="white" stroke="black" cx="109.113" cy="-31.1127" rx="27.6545" ry="27.6545"/>
<text text-anchor="middle" x="109.113" y="-28.9127" font-family="Times New Roman,serif" font-size="9.00">39681</text>
</g>
<!-- &#45;5&#45;&gt;39681 -->
<g id="edge14" class="edge"><title>&#45;5&#45;&gt;39681</title>
<path fill="none" stroke="green" stroke-width="0.167987" d="M173.145,-120.134C163.887,-107.408 145.605,-82.2765 130.937,-62.1138"/>
<polygon fill="green" stroke="green" stroke-width="0.167987" points="133.622,-59.8552 124.909,-53.8275 127.962,-63.9732 133.622,-59.8552"/>
</g>
<!-- 119733 -->
<g id="node13" class="node"><title>119733</title>
<ellipse fill="white" stroke="black" cx="311.113" cy="-31.1127" rx="31.2258" ry="31.2258"/>
<text text-anchor="middle" x="311.113" y="-28.9127" font-family="Times New Roman,serif" font-size="9.00">119733</text>
</g>
<!-- &#45;5&#45;&gt;119733 -->
<g id="edge9" class="edge"><title>&#45;5&#45;&gt;119733</title>
<path fill="none" stroke="red" stroke-width="0.170721" d="M186.923,-120.266C193.2,-113.96 202.38,-105.138 211.113,-98.2254 231.773,-81.8707 256.458,-65.522 276.132,-53.1737"/>
<polygon fill="red" stroke="red" stroke-width="0.170721" points="278.14,-56.0467 284.787,-47.796 274.445,-50.101 278.14,-56.0467"/>
</g>
<!-- &#45;4 -->
<g id="node4" class="node"><title>&#45;4</title>
<polygon fill="lightgray" stroke="black" points="218.113,-236.563 194.113,-236.563 194.113,-218.563 218.113,-218.563 218.113,-236.563"/>
<text text-anchor="middle" x="206.113" y="-225.363" font-family="Times New Roman,serif" font-size="9.00">&#45;4</text>
</g>
<!-- Target -->
<g id="node8" class="node"><title>Target</title>
<ellipse fill="lightblue" stroke="black" cx="248.113" cy="-129.338" rx="28.0702" ry="28.0702"/>
<text text-anchor="middle" x="248.113" y="-127.138" font-family="Times New Roman,serif" font-size="9.00">Target</text>
</g>
<!-- &#45;4&#45;&gt;Target -->
<g id="edge3" class="edge"><title>&#45;4&#45;&gt;Target</title>
<path fill="none" stroke="red" stroke-width="0.271763" stroke-dasharray="1,5" d="M209.694,-218.359C214.819,-206.617 224.554,-184.314 232.941,-165.097"/>
<polygon fill="red" stroke="red" stroke-width="0.271763" points="236.256,-166.252 237.049,-155.687 229.84,-163.452 236.256,-166.252"/>
</g>
<!-- &#45;3 -->
<g id="node5" class="node"><title>&#45;3</title>
<polygon fill="lightgray" stroke="black" points="382.113,-236.563 358.113,-236.563 358.113,-218.563 382.113,-218.563 382.113,-236.563"/>
<text text-anchor="middle" x="370.113" y="-225.363" font-family="Times New Roman,serif" font-size="9.00">&#45;3</text>
</g>
<!-- &#45;3&#45;&gt;Target -->
<g id="edge4" class="edge"><title>&#45;3&#45;&gt;Target</title>
<path fill="none" stroke="green" stroke-width="0.190213" stroke-dasharray="1,5" d="M365.667,-218.516C361.841,-212.06 355.88,-203.022 349.113,-196.451 343.313,-190.819 307.812,-167.958 280.521,-150.683"/>
<polygon fill="green" stroke="green" stroke-width="0.190213" points="282.321,-147.68 271.997,-145.3 278.583,-153.599 282.321,-147.68"/>
</g>
<!-- 167854 -->
<g id="node11" class="node"><title>167854</title>
<ellipse fill="white" stroke="black" cx="370.113" cy="-129.338" rx="31.2258" ry="31.2258"/>
<text text-anchor="middle" x="370.113" y="-127.138" font-family="Times New Roman,serif" font-size="9.00">167854</text>
</g>
<!-- &#45;3&#45;&gt;167854 -->
<g id="edge7" class="edge"><title>&#45;3&#45;&gt;167854</title>
<path fill="none" stroke="red" stroke-width="0.586943" stroke-dasharray="1,5" d="M370.113,-218.359C370.113,-207.797 370.113,-188.69 370.113,-170.97"/>
<polygon fill="red" stroke="red" stroke-width="0.586943" points="373.613,-170.772 370.113,-160.772 366.613,-170.772 373.613,-170.772"/>
</g>
<!-- &#45;3&#45;&gt;119733 -->
<g id="edge6" class="edge"><title>&#45;3&#45;&gt;119733</title>
<path fill="none" stroke="red" stroke-width="0.680637" d="M364.681,-218.505C354.794,-203.698 334.475,-172.568 330.113,-160.451 319.887,-132.046 315.161,-98.2044 312.978,-72.4055"/>
<polygon fill="red" stroke="red" stroke-width="0.680637" points="316.454,-71.9446 312.213,-62.2353 309.473,-72.4697 316.454,-71.9446"/>
</g>
<!-- &#45;2 -->
<g id="node6" class="node"><title>&#45;2</title>
<polygon fill="lightgray" stroke="black" points="260.113,-236.563 236.113,-236.563 236.113,-218.563 260.113,-218.563 260.113,-236.563"/>
<text text-anchor="middle" x="248.113" y="-225.363" font-family="Times New Roman,serif" font-size="9.00">&#45;2</text>
</g>
<!-- &#45;2&#45;&gt;Target -->
<g id="edge1" class="edge"><title>&#45;2&#45;&gt;Target</title>
<path fill="none" stroke="red" stroke-width="0.24747" d="M248.113,-218.359C248.113,-207.162 248.113,-186.359 248.113,-167.788"/>
<polygon fill="red" stroke="red" stroke-width="0.24747" points="251.613,-167.776 248.113,-157.776 244.613,-167.776 251.613,-167.776"/>
</g>
<!-- &#45;1 -->
<g id="node7" class="node"><title>&#45;1</title>
<polygon fill="lightgray" stroke="black" points="159.113,-312.676 135.113,-312.676 135.113,-294.676 159.113,-294.676 159.113,-312.676"/>
<text text-anchor="middle" x="147.113" y="-301.476" font-family="Times New Roman,serif" font-size="9.00">&#45;1</text>
</g>
<!-- &#45;1&#45;&gt;Target -->
<g id="edge2" class="edge"><title>&#45;1&#45;&gt;Target</title>
<path fill="none" stroke="green" stroke-width="0.30224" d="M148.821,-294.438C152.926,-275.875 164.557,-229.797 185.113,-196.451 194.394,-181.394 207.551,-166.905 219.442,-155.348"/>
<polygon fill="green" stroke="green" stroke-width="0.30224" points="222.147,-157.608 227.02,-148.2 217.344,-152.515 222.147,-157.608"/>
</g>
<!-- &#45;1&#45;&gt;39681 -->
<g id="edge5" class="edge"><title>&#45;1&#45;&gt;39681</title>
<path fill="none" stroke="red" stroke-width="0.311862" stroke-dasharray="1,5" d="M145.975,-294.579C141.285,-261.18 123.264,-132.872 114.275,-68.8652"/>
<polygon fill="red" stroke="red" stroke-width="0.311862" points="117.718,-68.2167 112.861,-58.8007 110.786,-69.1903 117.718,-68.2167"/>
</g>
<!-- 189749 -->
<g id="node12" class="node"><title>189749</title>
<ellipse fill="white" stroke="black" cx="69.1127" cy="-227.563" rx="31.2258" ry="31.2258"/>
<text text-anchor="middle" x="69.1127" y="-225.363" font-family="Times New Roman,serif" font-size="9.00">189749</text>
</g>
<!-- &#45;1&#45;&gt;189749 -->
<g id="edge10" class="edge"><title>&#45;1&#45;&gt;189749</title>
<path fill="none" stroke="green" stroke-width="0.215693" stroke-dasharray="1,5" d="M138.467,-294.462C128.963,-285.431 113.163,-270.419 99.0431,-257.002"/>
<polygon fill="green" stroke="green" stroke-width="0.215693" points="101.082,-254.112 91.4219,-249.761 96.2605,-259.186 101.082,-254.112"/>
</g>
<!-- 374074 -->
<g id="node14" class="node"><title>374074</title>
<ellipse fill="white" stroke="black" cx="309.113" cy="-227.563" rx="31.2258" ry="31.2258"/>
<text text-anchor="middle" x="309.113" y="-225.363" font-family="Times New Roman,serif" font-size="9.00">374074</text>
</g>
<!-- &#45;1&#45;&gt;374074 -->
<g id="edge12" class="edge"><title>&#45;1&#45;&gt;374074</title>
<path fill="none" stroke="green" stroke-width="0.399853" d="M159.398,-299.563C181.991,-293.557 231.284,-279.132 269.113,-258.676 271.779,-257.234 274.462,-255.626 277.106,-253.924"/>
<polygon fill="green" stroke="green" stroke-width="0.399853" points="279.096,-256.804 285.357,-248.257 275.133,-251.034 279.096,-256.804"/>
</g>
<!-- 443683 -->
<g id="node10" class="node"><title>443683</title>
<ellipse fill="white" stroke="black" cx="31.1127" cy="-129.338" rx="31.2258" ry="31.2258"/>
<text text-anchor="middle" x="31.1127" y="-127.138" font-family="Times New Roman,serif" font-size="9.00">443683</text>
</g>
<!-- 443683&#45;&gt;39681 -->
<g id="edge16" class="edge"><title>443683&#45;&gt;39681</title>
<path fill="none" stroke="red" stroke-width="0.322791" stroke-dasharray="1,5" d="M50.3936,-104.552C61.1038,-91.3393 74.5065,-74.805 85.802,-60.8702"/>
<polygon fill="red" stroke="red" stroke-width="0.322791" points="88.5947,-62.9831 92.1728,-53.0107 83.1568,-58.5751 88.5947,-62.9831"/>
</g>
<!-- 167854&#45;&gt;119733 -->
<g id="edge8" class="edge"><title>167854&#45;&gt;119733</title>
<path fill="none" stroke="red" stroke-width="0.493765" stroke-dasharray="1,5" d="M354.146,-102.298C347.456,-91.3872 339.581,-78.5426 332.408,-66.8446"/>
<polygon fill="red" stroke="red" stroke-width="0.493765" points="335.303,-64.8691 327.092,-58.1735 329.335,-68.5281 335.303,-64.8691"/>
</g>
<!-- 189749&#45;&gt;39681 -->
<g id="edge11" class="edge"><title>189749&#45;&gt;39681</title>
<path fill="none" stroke="green" stroke-width="0.31935" d="M75.1878,-197.031C82.2997,-162.458 94.075,-105.215 101.713,-68.0836"/>
<polygon fill="green" stroke="green" stroke-width="0.31935" points="105.164,-68.6797 103.751,-58.1795 98.3074,-67.2692 105.164,-68.6797"/>
</g>
<!-- 189749&#45;&gt;443683 -->
<g id="edge15" class="edge"><title>189749&#45;&gt;443683</title>
<path fill="none" stroke="green" stroke-width="0.434327" stroke-dasharray="1,5" d="M58.0194,-198.472C54.2675,-188.972 50.015,-178.203 46.0166,-168.079"/>
<polygon fill="green" stroke="green" stroke-width="0.434327" points="49.214,-166.646 42.2856,-158.631 42.7033,-169.217 49.214,-166.646"/>
</g>
<!-- 374074&#45;&gt;Target -->
<g id="edge13" class="edge"><title>374074&#45;&gt;Target</title>
<path fill="none" stroke="green" stroke-width="0.204711" d="M292.766,-200.777C285.269,-188.95 276.306,-174.812 268.384,-162.315"/>
<polygon fill="green" stroke="green" stroke-width="0.204711" points="271.146,-160.135 262.835,-153.563 265.233,-163.882 271.146,-160.135"/>
</g>
</g>
</svg>
