<?xml version="1.0" encoding="UTF-8" standalone="no"?>
<!DOCTYPE svg PUBLIC "-//W3C//DTD SVG 1.1//EN"
 "http://www.w3.org/Graphics/SVG/1.1/DTD/svg11.dtd">
<!-- Generated by graphviz version 2.38.0 (20140413.2041)
 -->
<!-- Title: %3 Pages: 1 -->
<svg width="305pt" height="119pt"
 viewBox="0.00 0.00 305.00 118.57" xmlns="http://www.w3.org/2000/svg" xmlns:xlink="http://www.w3.org/1999/xlink">
<g id="graph0" class="graph" transform="scale(1 1) rotate(0) translate(4 114.569)">
<title>%3</title>
<polygon fill="white" stroke="none" points="-4,4 -4,-114.569 301,-114.569 301,4 -4,4"/>
<!-- t&#45;7 -->
<g id="node1" class="node"><title>t&#45;7</title>
<polygon fill="lightgray" stroke="black" points="27,-110.569 0,-110.569 0,-92.5685 27,-92.5685 27,-110.569"/>
<text text-anchor="middle" x="13.5" y="-99.3685" font-family="Times New Roman,serif" font-size="9.00">t&#45;7</text>
</g>
<!-- Target -->
<g id="node8" class="node"><title>Target</title>
<ellipse fill="lightblue" stroke="black" cx="125.5" cy="-28.2843" rx="28.0702" ry="28.0702"/>
<text text-anchor="middle" x="125.5" y="-26.0843" font-family="Times New Roman,serif" font-size="9.00">Target</text>
</g>
<!-- t&#45;7&#45;&gt;Target -->
<g id="edge1" class="edge"><title>t&#45;7&#45;&gt;Target</title>
<path fill="none" stroke="green" stroke-width="0.156664" stroke-dasharray="1,5" d="M26.3478,-92.3913C42.5799,-82.0602 71.0852,-63.9175 93.3783,-49.7286"/>
<polygon fill="green" stroke="green" stroke-width="0.156664" points="95.3276,-52.6368 101.885,-44.3147 91.569,-46.7315 95.3276,-52.6368"/>
</g>
<!-- t&#45;6 -->
<g id="node2" class="node"><title>t&#45;6</title>
<polygon fill="lightgray" stroke="black" points="297,-110.569 270,-110.569 270,-92.5685 297,-92.5685 297,-110.569"/>
<text text-anchor="middle" x="283.5" y="-99.3685" font-family="Times New Roman,serif" font-size="9.00">t&#45;6</text>
</g>
<!-- t&#45;5 -->
<g id="node3" class="node"><title>t&#45;5</title>
<polygon fill="lightgray" stroke="black" points="72,-110.569 45,-110.569 45,-92.5685 72,-92.5685 72,-110.569"/>
<text text-anchor="middle" x="58.5" y="-99.3685" font-family="Times New Roman,serif" font-size="9.00">t&#45;5</text>
</g>
<!-- t&#45;5&#45;&gt;Target -->
<g id="edge2" class="edge"><title>t&#45;5&#45;&gt;Target</title>
<path fill="none" stroke="red" stroke-width="1.06372" stroke-dasharray="1,5" d="M66.1858,-92.3913C74.2697,-83.7904 87.4424,-69.7754 99.3231,-57.135"/>
<polygon fill="red" stroke="red" stroke-width="1.06372" points="102.198,-59.1867 106.496,-49.503 97.0974,-54.3926 102.198,-59.1867"/>
</g>
<!-- t&#45;4 -->
<g id="node4" class="node"><title>t&#45;4</title>
<polygon fill="lightgray" stroke="black" points="117,-110.569 90,-110.569 90,-92.5685 117,-92.5685 117,-110.569"/>
<text text-anchor="middle" x="103.5" y="-99.3685" font-family="Times New Roman,serif" font-size="9.00">t&#45;4</text>
</g>
<!-- t&#45;4&#45;&gt;Target -->
<g id="edge3" class="edge"><title>t&#45;4&#45;&gt;Target</title>
<path fill="none" stroke="red" stroke-width="0.168042" d="M106.024,-92.3913C108.128,-85.5738 111.282,-75.3546 114.442,-65.1147"/>
<polygon fill="red" stroke="red" stroke-width="0.168042" points="117.835,-65.9885 117.44,-55.401 111.146,-63.9241 117.835,-65.9885"/>
</g>
<!-- t&#45;3 -->
<g id="node5" class="node"><title>t&#45;3</title>
<polygon fill="lightgray" stroke="black" points="162,-110.569 135,-110.569 135,-92.5685 162,-92.5685 162,-110.569"/>
<text text-anchor="middle" x="148.5" y="-99.3685" font-family="Times New Roman,serif" font-size="9.00">t&#45;3</text>
</g>
<!-- t&#45;3&#45;&gt;Target -->
<g id="edge4" class="edge"><title>t&#45;3&#45;&gt;Target</title>
<path fill="none" stroke="green" stroke-width="0.359236" stroke-dasharray="1,5" d="M145.862,-92.3913C143.662,-85.5738 140.365,-75.3546 137.061,-65.1147"/>
<polygon fill="green" stroke="green" stroke-width="0.359236" points="140.328,-63.8432 133.927,-55.401 133.666,-65.9927 140.328,-63.8432"/>
</g>
<!-- t&#45;2 -->
<g id="node6" class="node"><title>t&#45;2</title>
<polygon fill="lightgray" stroke="black" points="207,-110.569 180,-110.569 180,-92.5685 207,-92.5685 207,-110.569"/>
<text text-anchor="middle" x="193.5" y="-99.3685" font-family="Times New Roman,serif" font-size="9.00">t&#45;2</text>
</g>
<!-- t&#45;2&#45;&gt;Target -->
<g id="edge5" class="edge"><title>t&#45;2&#45;&gt;Target</title>
<path fill="none" stroke="red" stroke-width="0.259115" d="M185.7,-92.3913C177.417,-83.7093 163.873,-69.5105 151.727,-56.7777"/>
<polygon fill="red" stroke="red" stroke-width="0.259115" points="154.222,-54.3229 144.787,-49.503 149.157,-59.1546 154.222,-54.3229"/>
</g>
<!-- t&#45;1 -->
<g id="node7" class="node"><title>t&#45;1</title>
<polygon fill="lightgray" stroke="black" points="252,-110.569 225,-110.569 225,-92.5685 252,-92.5685 252,-110.569"/>
<text text-anchor="middle" x="238.5" y="-99.3685" font-family="Times New Roman,serif" font-size="9.00">t&#45;1</text>
</g>
<!-- t&#45;1&#45;&gt;Target -->
<g id="edge6" class="edge"><title>t&#45;1&#45;&gt;Target</title>
<path fill="none" stroke="green" stroke-width="0.371054" d="M225.537,-92.3913C209.16,-82.0602 180.401,-63.9175 157.908,-49.7286"/>
<polygon fill="green" stroke="green" stroke-width="0.371054" points="159.651,-46.69 149.326,-44.3147 155.917,-52.6104 159.651,-46.69"/>
</g>
</g>
</svg>
