<?xml version="1.0" encoding="UTF-8" standalone="no"?>
<!DOCTYPE svg PUBLIC "-//W3C//DTD SVG 1.1//EN"
 "http://www.w3.org/Graphics/SVG/1.1/DTD/svg11.dtd">
<!-- Generated by graphviz version 2.38.0 (20140413.2041)
 -->
<!-- Title: %3 Pages: 1 -->
<svg width="756pt" height="503pt"
 viewBox="0.00 0.00 756.00 503.37" xmlns="http://www.w3.org/2000/svg" xmlns:xlink="http://www.w3.org/1999/xlink">
<g id="graph0" class="graph" transform="scale(1 1) rotate(0) translate(4 499.37)">
<title>%3</title>
<polygon fill="white" stroke="none" points="-4,4 -4,-499.37 752,-499.37 752,4 -4,4"/>
<!-- t&#45;7 -->
<g id="node1" class="node"><title>t&#45;7</title>
<polygon fill="lightgray" stroke="black" points="270,-391.295 243,-391.295 243,-373.295 270,-373.295 270,-391.295"/>
<text text-anchor="middle" x="256.5" y="-380.095" font-family="Times New Roman,serif" font-size="9.00">t&#45;7</text>
</g>
<!-- Target -->
<g id="node13" class="node"><title>Target</title>
<ellipse fill="lightblue" stroke="black" cx="214.5" cy="-290.434" rx="28.0702" ry="28.0702"/>
<text text-anchor="middle" x="214.5" y="-288.234" font-family="Times New Roman,serif" font-size="9.00">Target</text>
</g>
<!-- t&#45;7&#45;&gt;Target -->
<g id="edge1" class="edge"><title>t&#45;7&#45;&gt;Target</title>
<path fill="none" stroke="red" stroke-width="0.658327" stroke-dasharray="1,5" d="M252.624,-373.002C247.586,-362.224 238.481,-342.743 230.432,-325.521"/>
<polygon fill="red" stroke="red" stroke-width="0.658327" points="233.507,-323.834 226.102,-316.256 227.165,-326.798 233.507,-323.834"/>
</g>
<!-- t&#45;6 -->
<g id="node2" class="node"><title>t&#45;6</title>
<polygon fill="lightgray" stroke="black" points="568,-479.621 541,-479.621 541,-461.621 568,-461.621 568,-479.621"/>
<text text-anchor="middle" x="554.5" y="-468.421" font-family="Times New Roman,serif" font-size="9.00">t&#45;6</text>
</g>
<!-- t&#45;5 -->
<g id="node3" class="node"><title>t&#45;5</title>
<polygon fill="lightgray" stroke="black" points="613,-479.621 586,-479.621 586,-461.621 613,-461.621 613,-479.621"/>
<text text-anchor="middle" x="599.5" y="-468.421" font-family="Times New Roman,serif" font-size="9.00">t&#45;5</text>
</g>
<!-- t&#45;4 -->
<g id="node4" class="node"><title>t&#45;4</title>
<polygon fill="lightgray" stroke="black" points="277,-479.621 250,-479.621 250,-461.621 277,-461.621 277,-479.621"/>
<text text-anchor="middle" x="263.5" y="-468.421" font-family="Times New Roman,serif" font-size="9.00">t&#45;4</text>
</g>
<!-- t&#45;4&#45;&gt;Target -->
<g id="edge2" class="edge"><title>t&#45;4&#45;&gt;Target</title>
<path fill="none" stroke="red" stroke-width="0.529311" stroke-dasharray="1,5" d="M258.38,-461.459C251.601,-450.263 239.775,-429.313 233.5,-409.872 224.975,-383.459 220.177,-352.446 217.535,-328.782"/>
<polygon fill="red" stroke="red" stroke-width="0.529311" points="221.013,-328.384 216.499,-318.798 214.05,-329.106 221.013,-328.384"/>
</g>
<!-- 6639 -->
<g id="node16" class="node"><title>6639</title>
<ellipse fill="white" stroke="black" cx="312.5" cy="-382.295" rx="25" ry="25"/>
<text text-anchor="middle" x="312.5" y="-380.095" font-family="Times New Roman,serif" font-size="9.00">6639</text>
</g>
<!-- t&#45;4&#45;&gt;6639 -->
<g id="edge8" class="edge"><title>t&#45;4&#45;&gt;6639</title>
<path fill="none" stroke="red" stroke-width="0.478333" d="M268.198,-461.344C274.423,-450.377 285.742,-430.435 295.381,-413.455"/>
<polygon fill="red" stroke="red" stroke-width="0.478333" points="298.627,-414.827 300.519,-404.402 292.539,-411.371 298.627,-414.827"/>
</g>
<!-- t&#45;3 -->
<g id="node5" class="node"><title>t&#45;3</title>
<polygon fill="lightgray" stroke="black" points="382,-391.295 355,-391.295 355,-373.295 382,-373.295 382,-391.295"/>
<text text-anchor="middle" x="368.5" y="-380.095" font-family="Times New Roman,serif" font-size="9.00">t&#45;3</text>
</g>
<!-- t&#45;3&#45;&gt;Target -->
<g id="edge3" class="edge"><title>t&#45;3&#45;&gt;Target</title>
<path fill="none" stroke="green" stroke-width="0.19333" stroke-dasharray="1,5" d="M363.113,-373.05C359.068,-367.345 353.108,-359.88 346.5,-354.718 317.299,-331.905 278.54,-314.549 250.584,-303.835"/>
<polygon fill="green" stroke="green" stroke-width="0.19333" points="251.772,-300.542 241.18,-300.324 249.324,-307.1 251.772,-300.542"/>
</g>
<!-- t&#45;2 -->
<g id="node6" class="node"><title>t&#45;2</title>
<polygon fill="lightgray" stroke="black" points="658,-479.621 631,-479.621 631,-461.621 658,-461.621 658,-479.621"/>
<text text-anchor="middle" x="644.5" y="-468.421" font-family="Times New Roman,serif" font-size="9.00">t&#45;2</text>
</g>
<!-- t&#45;1 -->
<g id="node7" class="node"><title>t&#45;1</title>
<polygon fill="lightgray" stroke="black" points="27,-391.295 0,-391.295 0,-373.295 27,-373.295 27,-391.295"/>
<text text-anchor="middle" x="13.5" y="-380.095" font-family="Times New Roman,serif" font-size="9.00">t&#45;1</text>
</g>
<!-- t&#45;1&#45;&gt;Target -->
<g id="edge6" class="edge"><title>t&#45;1&#45;&gt;Target</title>
<path fill="none" stroke="green" stroke-width="0.192975" stroke-dasharray="1,5" d="M20.6249,-372.915C25.8989,-367.147 33.5253,-359.662 41.5,-354.718 84.6058,-327.991 140.696,-310.092 177.141,-300.34"/>
<polygon fill="green" stroke="green" stroke-width="0.192975" points="178.078,-303.713 186.872,-297.805 176.313,-296.939 178.078,-303.713"/>
</g>
<!-- 3933 -->
<g id="node21" class="node"><title>3933</title>
<ellipse fill="white" stroke="black" cx="412.5" cy="-24.7487" rx="25" ry="25"/>
<text text-anchor="middle" x="412.5" y="-22.5487" font-family="Times New Roman,serif" font-size="9.00">3933</text>
</g>
<!-- t&#45;1&#45;&gt;3933 -->
<g id="edge14" class="edge"><title>t&#45;1&#45;&gt;3933</title>
<path fill="none" stroke="red" stroke-width="0.632724" stroke-dasharray="1,5" d="M22.5833,-373.201C71.8159,-329.33 307.362,-119.437 386.5,-48.917"/>
<polygon fill="red" stroke="red" stroke-width="0.632724" points="388.949,-51.4228 394.087,-42.1568 384.292,-46.1966 388.949,-51.4228"/>
</g>
<!-- &#45;8 -->
<g id="node8" class="node"><title>&#45;8</title>
<polygon fill="lightgray" stroke="black" points="700.5,-479.621 676.5,-479.621 676.5,-461.621 700.5,-461.621 700.5,-479.621"/>
<text text-anchor="middle" x="688.5" y="-468.421" font-family="Times New Roman,serif" font-size="9.00">&#45;8</text>
</g>
<!-- &#45;9 -->
<g id="node9" class="node"><title>&#45;9</title>
<polygon fill="lightgray" stroke="black" points="424.5,-391.295 400.5,-391.295 400.5,-373.295 424.5,-373.295 424.5,-391.295"/>
<text text-anchor="middle" x="412.5" y="-380.095" font-family="Times New Roman,serif" font-size="9.00">&#45;9</text>
</g>
<!-- &#45;9&#45;&gt;Target -->
<g id="edge4" class="edge"><title>&#45;9&#45;&gt;Target</title>
<path fill="none" stroke="red" stroke-width="0.206907" d="M407.751,-373.075C404.002,-367.233 398.283,-359.588 391.5,-354.718 348.976,-324.184 290.243,-307.067 252.314,-298.542"/>
<polygon fill="red" stroke="red" stroke-width="0.206907" points="252.711,-295.048 242.198,-296.362 251.236,-301.89 252.711,-295.048"/>
</g>
<!-- 7140 -->
<g id="node14" class="node"><title>7140</title>
<ellipse fill="white" stroke="black" cx="449.5" cy="-110.246" rx="25" ry="25"/>
<text text-anchor="middle" x="449.5" y="-108.046" font-family="Times New Roman,serif" font-size="9.00">7140</text>
</g>
<!-- &#45;9&#45;&gt;7140 -->
<g id="edge12" class="edge"><title>&#45;9&#45;&gt;7140</title>
<path fill="none" stroke="red" stroke-width="0.235882" stroke-dasharray="1,5" d="M412.739,-373.199C413.683,-345.039 417.85,-248.847 432.5,-170.995 434.177,-162.082 436.587,-152.578 439.067,-143.832"/>
<polygon fill="red" stroke="red" stroke-width="0.235882" points="442.496,-144.576 441.971,-133.995 435.783,-142.594 442.496,-144.576"/>
</g>
<!-- 8596 -->
<g id="node19" class="node"><title>8596</title>
<ellipse fill="white" stroke="black" cx="470.5" cy="-290.434" rx="25" ry="25"/>
<text text-anchor="middle" x="470.5" y="-288.234" font-family="Times New Roman,serif" font-size="9.00">8596</text>
</g>
<!-- &#45;9&#45;&gt;8596 -->
<g id="edge15" class="edge"><title>&#45;9&#45;&gt;8596</title>
<path fill="none" stroke="red" stroke-width="0.146285" d="M417.853,-373.002C425.516,-361.128 439.998,-338.692 451.836,-320.351"/>
<polygon fill="red" stroke="red" stroke-width="0.146285" points="454.911,-322.04 457.393,-311.74 449.03,-318.244 454.911,-322.04"/>
</g>
<!-- &#45;9&#45;&gt;3933 -->
<g id="edge7" class="edge"><title>&#45;9&#45;&gt;3933</title>
<path fill="none" stroke="green" stroke-width="0.277124" d="M412.329,-373.195C412.087,-361.267 411.656,-338.275 411.5,-318.718 410.751,-225.022 411.598,-114.465 412.132,-59.8331"/>
<polygon fill="green" stroke="green" stroke-width="0.277124" points="415.633,-59.7085 412.234,-49.6739 408.633,-59.6382 415.633,-59.7085"/>
</g>
<!-- &#45;10 -->
<g id="node10" class="node"><title>&#45;10</title>
<polygon fill="lightgray" stroke="black" points="748,-479.621 719,-479.621 719,-461.621 748,-461.621 748,-479.621"/>
<text text-anchor="middle" x="733.5" y="-468.421" font-family="Times New Roman,serif" font-size="9.00">&#45;10</text>
</g>
<!-- &#45;11 -->
<g id="node11" class="node"><title>&#45;11</title>
<polygon fill="lightgray" stroke="black" points="122,-479.621 93,-479.621 93,-461.621 122,-461.621 122,-479.621"/>
<text text-anchor="middle" x="107.5" y="-468.421" font-family="Times New Roman,serif" font-size="9.00">&#45;11</text>
</g>
<!-- &#45;11&#45;&gt;Target -->
<g id="edge10" class="edge"><title>&#45;11&#45;&gt;Target</title>
<path fill="none" stroke="red" stroke-width="0.307585" stroke-dasharray="1,5" d="M100.905,-461.437C85.7904,-441.627 51.6532,-390.118 74.5,-354.718 96.8491,-320.089 143.222,-304.208 176.477,-297.058"/>
<polygon fill="red" stroke="red" stroke-width="0.307585" points="177.204,-300.482 186.335,-295.109 175.846,-293.615 177.204,-300.482"/>
</g>
<!-- 39858 -->
<g id="node18" class="node"><title>39858</title>
<ellipse fill="white" stroke="black" cx="158.5" cy="-382.295" rx="27.6545" ry="27.6545"/>
<text text-anchor="middle" x="158.5" y="-380.095" font-family="Times New Roman,serif" font-size="9.00">39858</text>
</g>
<!-- &#45;11&#45;&gt;39858 -->
<g id="edge20" class="edge"><title>&#45;11&#45;&gt;39858</title>
<path fill="none" stroke="green" stroke-width="0.355807" d="M112.39,-461.344C118.617,-450.804 129.74,-431.976 139.502,-415.453"/>
<polygon fill="green" stroke="green" stroke-width="0.355807" points="142.672,-416.968 144.745,-406.578 136.645,-413.407 142.672,-416.968"/>
</g>
<!-- &#45;12 -->
<g id="node12" class="node"><title>&#45;12</title>
<polygon fill="lightgray" stroke="black" points="113,-391.295 84,-391.295 84,-373.295 113,-373.295 113,-391.295"/>
<text text-anchor="middle" x="98.5" y="-380.095" font-family="Times New Roman,serif" font-size="9.00">&#45;12</text>
</g>
<!-- &#45;12&#45;&gt;Target -->
<g id="edge5" class="edge"><title>&#45;12&#45;&gt;Target</title>
<path fill="none" stroke="green" stroke-width="0.404236" d="M104.838,-372.888C109.198,-367.392 115.302,-360.236 121.5,-354.718 140.051,-338.2 163.125,-322.475 181.648,-310.831"/>
<polygon fill="green" stroke="green" stroke-width="0.404236" points="183.672,-313.695 190.336,-305.458 179.99,-307.741 183.672,-313.695"/>
</g>
<!-- 7140&#45;&gt;3933 -->
<g id="edge13" class="edge"><title>7140&#45;&gt;3933</title>
<path fill="none" stroke="red" stroke-width="0.105962" d="M439.779,-87.3082C435.657,-78.0078 430.779,-66.9997 426.296,-56.8825"/>
<polygon fill="red" stroke="red" stroke-width="0.105962" points="429.408,-55.2648 422.156,-47.5402 423.008,-58.1008 429.408,-55.2648"/>
</g>
<!-- 17324 -->
<g id="node15" class="node"><title>17324</title>
<ellipse fill="white" stroke="black" cx="469.5" cy="-198.572" rx="27.6545" ry="27.6545"/>
<text text-anchor="middle" x="469.5" y="-196.372" font-family="Times New Roman,serif" font-size="9.00">17324</text>
</g>
<!-- 17324&#45;&gt;7140 -->
<g id="edge18" class="edge"><title>17324&#45;&gt;7140</title>
<path fill="none" stroke="red" stroke-width="0.142569" d="M463.391,-171.202C461.442,-162.792 459.26,-153.373 457.213,-144.538"/>
<polygon fill="red" stroke="red" stroke-width="0.142569" points="460.561,-143.481 454.894,-134.529 453.742,-145.061 460.561,-143.481"/>
</g>
<!-- 6639&#45;&gt;Target -->
<g id="edge9" class="edge"><title>6639&#45;&gt;Target</title>
<path fill="none" stroke="red" stroke-width="0.181227" stroke-dasharray="1,5" d="M294.525,-364.813C280.089,-351.576 259.55,-332.742 242.894,-317.47"/>
<polygon fill="red" stroke="red" stroke-width="0.181227" points="244.81,-314.478 235.074,-310.299 240.079,-319.637 244.81,-314.478"/>
</g>
<!-- 47441 -->
<g id="node17" class="node"><title>47441</title>
<ellipse fill="white" stroke="black" cx="470.5" cy="-382.295" rx="27.6545" ry="27.6545"/>
<text text-anchor="middle" x="470.5" y="-380.095" font-family="Times New Roman,serif" font-size="9.00">47441</text>
</g>
<!-- 47441&#45;&gt;8596 -->
<g id="edge24" class="edge"><title>47441&#45;&gt;8596</title>
<path fill="none" stroke="green" stroke-width="0.17486" d="M470.5,-354.334C470.5,-345.222 470.5,-334.93 470.5,-325.35"/>
<polygon fill="green" stroke="green" stroke-width="0.17486" points="474,-325.323 470.5,-315.323 467,-325.323 474,-325.323"/>
</g>
<!-- 39858&#45;&gt;Target -->
<g id="edge21" class="edge"><title>39858&#45;&gt;Target</title>
<path fill="none" stroke="red" stroke-width="0.307585" d="M172.921,-358.153C179.532,-347.545 187.476,-334.798 194.641,-323.301"/>
<polygon fill="red" stroke="red" stroke-width="0.307585" points="197.614,-325.147 199.933,-314.809 191.673,-321.445 197.614,-325.147"/>
</g>
<!-- 8596&#45;&gt;7140 -->
<g id="edge16" class="edge"><title>8596&#45;&gt;7140</title>
<path fill="none" stroke="green" stroke-width="0.126724" stroke-dasharray="1,5" d="M485.024,-270.078C493.08,-258.106 502.298,-242.035 506.5,-226.149 512.769,-202.451 515.614,-193.751 506.5,-170.995 500.437,-155.856 488.508,-142.375 477.124,-132.066"/>
<polygon fill="green" stroke="green" stroke-width="0.126724" points="479.279,-129.304 469.408,-125.455 474.724,-134.619 479.279,-129.304"/>
</g>
<!-- 8596&#45;&gt;17324 -->
<g id="edge17" class="edge"><title>8596&#45;&gt;17324</title>
<path fill="none" stroke="red" stroke-width="0.322374" stroke-dasharray="1,5" d="M470.232,-265.352C470.133,-256.495 470.019,-246.248 469.911,-236.518"/>
<polygon fill="red" stroke="red" stroke-width="0.322374" points="473.408,-236.213 469.797,-226.252 466.408,-236.291 473.408,-236.213"/>
</g>
<!-- 7031 -->
<g id="node20" class="node"><title>7031</title>
<ellipse fill="white" stroke="black" cx="498.5" cy="-470.621" rx="25" ry="25"/>
<text text-anchor="middle" x="498.5" y="-468.421" font-family="Times New Roman,serif" font-size="9.00">7031</text>
</g>
<!-- 7031&#45;&gt;6639 -->
<g id="edge11" class="edge"><title>7031&#45;&gt;6639</title>
<path fill="none" stroke="red" stroke-width="0.174944" stroke-dasharray="1,5" d="M474.891,-462.69C444.164,-453.152 389.34,-434.344 346.5,-409.872 343.999,-408.444 341.483,-406.845 339.013,-405.16"/>
<polygon fill="red" stroke="red" stroke-width="0.174944" points="341.016,-402.288 330.876,-399.215 336.886,-407.941 341.016,-402.288"/>
</g>
<!-- 7031&#45;&gt;47441 -->
<g id="edge23" class="edge"><title>7031&#45;&gt;47441</title>
<path fill="none" stroke="green" stroke-width="0.255058" d="M491.143,-446.94C488.329,-438.264 485.049,-428.151 481.943,-418.574"/>
<polygon fill="green" stroke="green" stroke-width="0.255058" points="485.21,-417.303 478.796,-408.871 478.552,-419.463 485.21,-417.303"/>
</g>
<!-- 7031&#45;&gt;8596 -->
<g id="edge19" class="edge"><title>7031&#45;&gt;8596</title>
<path fill="none" stroke="green" stroke-width="0.161183" stroke-dasharray="1,5" d="M504.879,-446.301C510.262,-422.778 515.871,-385.619 507.5,-354.718 504.094,-342.146 497.498,-329.511 490.807,-318.874"/>
<polygon fill="green" stroke="green" stroke-width="0.161183" points="493.671,-316.859 485.232,-310.453 487.834,-320.724 493.671,-316.859"/>
</g>
<!-- 7031&#45;&gt;3933 -->
<g id="edge22" class="edge"><title>7031&#45;&gt;3933</title>
<path fill="none" stroke="red" stroke-width="0.130047" stroke-dasharray="1,5" d="M511.382,-449.407C530.589,-417.273 564.5,-351.969 564.5,-291.434 564.5,-291.434 564.5,-291.434 564.5,-197.572 564.5,-124.914 487.309,-68.5543 442.944,-42.1617"/>
<polygon fill="red" stroke="red" stroke-width="0.130047" points="444.685,-39.1253 434.278,-37.1381 441.174,-45.1813 444.685,-39.1253"/>
</g>
</g>
</svg>
