<?xml version="1.0" encoding="UTF-8" standalone="no"?>
<!DOCTYPE svg PUBLIC "-//W3C//DTD SVG 1.1//EN"
 "http://www.w3.org/Graphics/SVG/1.1/DTD/svg11.dtd">
<!-- Generated by graphviz version 2.38.0 (20140413.2041)
 -->
<!-- Title: %3 Pages: 1 -->
<svg width="346pt" height="184pt"
 viewBox="0.00 0.00 346.00 184.27" xmlns="http://www.w3.org/2000/svg" xmlns:xlink="http://www.w3.org/1999/xlink">
<g id="graph0" class="graph" transform="scale(1 1) rotate(0) translate(4 180.267)">
<title>%3</title>
<polygon fill="white" stroke="none" points="-4,4 -4,-180.267 342,-180.267 342,4 -4,4"/>
<!-- t&#45;7 -->
<g id="node1" class="node"><title>t&#45;7</title>
<polygon fill="lightgray" stroke="black" points="27,-116.418 0,-116.418 0,-98.4178 27,-98.4178 27,-116.418"/>
<text text-anchor="middle" x="13.5" y="-105.218" font-family="Times New Roman,serif" font-size="9.00">t&#45;7</text>
</g>
<!-- Target -->
<g id="node8" class="node"><title>Target</title>
<ellipse fill="lightblue" stroke="black" cx="166.5" cy="-28.2843" rx="28.0702" ry="28.0702"/>
<text text-anchor="middle" x="166.5" y="-26.0843" font-family="Times New Roman,serif" font-size="9.00">Target</text>
</g>
<!-- t&#45;7&#45;&gt;Target -->
<g id="edge1" class="edge"><title>t&#45;7&#45;&gt;Target</title>
<path fill="none" stroke="red" stroke-width="0.602398" stroke-dasharray="1,5" d="M25.9191,-98.2618C29.009,-96.3269 32.3417,-94.3183 35.5,-92.5685 67.3769,-74.9078 104.934,-57.0524 131.642,-44.8315"/>
<polygon fill="red" stroke="red" stroke-width="0.602398" points="133.306,-47.9199 140.961,-40.5948 130.409,-41.5475 133.306,-47.9199"/>
</g>
<!-- t&#45;6 -->
<g id="node2" class="node"><title>t&#45;6</title>
<polygon fill="lightgray" stroke="black" points="72,-116.418 45,-116.418 45,-98.4178 72,-98.4178 72,-116.418"/>
<text text-anchor="middle" x="58.5" y="-105.218" font-family="Times New Roman,serif" font-size="9.00">t&#45;6</text>
</g>
<!-- t&#45;6&#45;&gt;Target -->
<g id="edge2" class="edge"><title>t&#45;6&#45;&gt;Target</title>
<path fill="none" stroke="red" stroke-width="0.11426" d="M70.0579,-98.1631C85.5265,-87.1155 113.547,-67.1031 135.414,-51.486"/>
<polygon fill="red" stroke="red" stroke-width="0.11426" points="137.649,-54.1905 143.753,-45.5304 133.581,-48.4942 137.649,-54.1905"/>
</g>
<!-- t&#45;5 -->
<g id="node3" class="node"><title>t&#45;5</title>
<polygon fill="lightgray" stroke="black" points="135,-176.267 108,-176.267 108,-158.267 135,-158.267 135,-176.267"/>
<text text-anchor="middle" x="121.5" y="-165.067" font-family="Times New Roman,serif" font-size="9.00">t&#45;5</text>
</g>
<!-- t&#45;5&#45;&gt;Target -->
<g id="edge3" class="edge"><title>t&#45;5&#45;&gt;Target</title>
<path fill="none" stroke="green" stroke-width="0.464604" stroke-dasharray="1,5" d="M119.552,-158.266C116.565,-144.452 111.944,-115.415 119.5,-92.5685 123.806,-79.5478 131.943,-67.0238 140.252,-56.6028"/>
<polygon fill="green" stroke="green" stroke-width="0.464604" points="143.119,-58.6311 146.882,-48.7269 137.764,-54.123 143.119,-58.6311"/>
</g>
<!-- 9 -->
<g id="node9" class="node"><title>9</title>
<ellipse fill="white" stroke="black" cx="143.5" cy="-107.418" rx="14.7" ry="14.7"/>
<text text-anchor="middle" x="143.5" y="-105.218" font-family="Times New Roman,serif" font-size="9.00">9</text>
</g>
<!-- t&#45;5&#45;&gt;9 -->
<g id="edge9" class="edge"><title>t&#45;5&#45;&gt;9</title>
<path fill="none" stroke="red" stroke-width="0.161333" d="M124.559,-158.223C127.223,-151.219 131.217,-140.716 134.852,-131.158"/>
<polygon fill="red" stroke="red" stroke-width="0.161333" points="138.156,-132.317 138.439,-121.726 131.613,-129.829 138.156,-132.317"/>
</g>
<!-- t&#45;4 -->
<g id="node4" class="node"><title>t&#45;4</title>
<polygon fill="lightgray" stroke="black" points="203,-116.418 176,-116.418 176,-98.4178 203,-98.4178 203,-116.418"/>
<text text-anchor="middle" x="189.5" y="-105.218" font-family="Times New Roman,serif" font-size="9.00">t&#45;4</text>
</g>
<!-- t&#45;4&#45;&gt;Target -->
<g id="edge4" class="edge"><title>t&#45;4&#45;&gt;Target</title>
<path fill="none" stroke="red" stroke-width="0.23218" d="M187.039,-98.1631C184.661,-90.19 180.891,-77.5474 177.227,-65.2577"/>
<polygon fill="red" stroke="red" stroke-width="0.23218" points="180.551,-64.156 174.339,-55.5731 173.842,-66.1563 180.551,-64.156"/>
</g>
<!-- t&#45;3 -->
<g id="node5" class="node"><title>t&#45;3</title>
<polygon fill="lightgray" stroke="black" points="248,-116.418 221,-116.418 221,-98.4178 248,-98.4178 248,-116.418"/>
<text text-anchor="middle" x="234.5" y="-105.218" font-family="Times New Roman,serif" font-size="9.00">t&#45;3</text>
</g>
<!-- t&#45;3&#45;&gt;Target -->
<g id="edge5" class="edge"><title>t&#45;3&#45;&gt;Target</title>
<path fill="none" stroke="red" stroke-width="0.164862" d="M227.223,-98.1631C218.782,-88.588 204.403,-72.2788 191.757,-57.9336"/>
<polygon fill="red" stroke="red" stroke-width="0.164862" points="194.196,-55.408 184.958,-50.2213 188.945,-60.0371 194.196,-55.408"/>
</g>
<!-- t&#45;2 -->
<g id="node6" class="node"><title>t&#45;2</title>
<polygon fill="lightgray" stroke="black" points="293,-116.418 266,-116.418 266,-98.4178 293,-98.4178 293,-116.418"/>
<text text-anchor="middle" x="279.5" y="-105.218" font-family="Times New Roman,serif" font-size="9.00">t&#45;2</text>
</g>
<!-- t&#45;2&#45;&gt;Target -->
<g id="edge6" class="edge"><title>t&#45;2&#45;&gt;Target</title>
<path fill="none" stroke="red" stroke-width="0.212577" d="M267.407,-98.1631C250.949,-86.9287 220.909,-66.424 197.871,-50.6979"/>
<polygon fill="red" stroke="red" stroke-width="0.212577" points="199.659,-47.6811 189.427,-44.934 195.713,-53.4626 199.659,-47.6811"/>
</g>
<!-- t&#45;1 -->
<g id="node7" class="node"><title>t&#45;1</title>
<polygon fill="lightgray" stroke="black" points="338,-116.418 311,-116.418 311,-98.4178 338,-98.4178 338,-116.418"/>
<text text-anchor="middle" x="324.5" y="-105.218" font-family="Times New Roman,serif" font-size="9.00">t&#45;1</text>
</g>
<!-- t&#45;1&#45;&gt;Target -->
<g id="edge7" class="edge"><title>t&#45;1&#45;&gt;Target</title>
<path fill="none" stroke="green" stroke-width="0.366609" d="M312.099,-98.2292C309.008,-96.2954 305.671,-94.2954 302.5,-92.5685 269.05,-74.3522 229.431,-56.2945 201.61,-44.1599"/>
<polygon fill="green" stroke="green" stroke-width="0.366609" points="202.858,-40.8863 192.29,-40.1242 200.076,-47.3099 202.858,-40.8863"/>
</g>
<!-- Target&#45;&gt;Target -->
<g id="edge8" class="edge"><title>Target&#45;&gt;Target</title>
<path fill="none" stroke="red" stroke-width="1.07032" stroke-dasharray="1,5" d="M191.261,-42.6201C202.748,-44.184 212.784,-39.4054 212.784,-28.2843 212.784,-20.6385 208.041,-15.9906 201.343,-14.3405"/>
<polygon fill="red" stroke="red" stroke-width="1.07032" points="201.39,-10.8397 191.261,-13.9485 201.118,-17.8345 201.39,-10.8397"/>
</g>
<!-- 9&#45;&gt;Target -->
<g id="edge10" class="edge"><title>9&#45;&gt;Target</title>
<path fill="none" stroke="green" stroke-width="0.962363" d="M147.506,-92.9822C149.804,-85.2776 152.808,-75.203 155.747,-65.3474"/>
<polygon fill="green" stroke="green" stroke-width="0.962363" points="159.131,-66.2439 158.635,-55.6607 152.423,-64.2436 159.131,-66.2439"/>
</g>
</g>
</svg>
