<?xml version="1.0" encoding="UTF-8" standalone="no"?>
<!DOCTYPE svg PUBLIC "-//W3C//DTD SVG 1.1//EN"
 "http://www.w3.org/Graphics/SVG/1.1/DTD/svg11.dtd">
<!-- Generated by graphviz version 2.38.0 (20140413.2041)
 -->
<!-- Title: %3 Pages: 1 -->
<svg width="493pt" height="885pt"
 viewBox="0.00 0.00 492.93 884.96" xmlns="http://www.w3.org/2000/svg" xmlns:xlink="http://www.w3.org/1999/xlink">
<g id="graph0" class="graph" transform="scale(1 1) rotate(0) translate(4 880.958)">
<title>%3</title>
<polygon fill="white" stroke="none" points="-4,4 -4,-880.958 488.925,-880.958 488.925,4 -4,4"/>
<!-- t&#45;7 -->
<g id="node1" class="node"><title>t&#45;7</title>
<polygon fill="lightgray" stroke="black" points="203.925,-858.38 176.925,-858.38 176.925,-840.38 203.925,-840.38 203.925,-858.38"/>
<text text-anchor="middle" x="190.425" y="-847.18" font-family="Times New Roman,serif" font-size="9.00">t&#45;7</text>
</g>
<!-- t&#45;6 -->
<g id="node2" class="node"><title>t&#45;6</title>
<polygon fill="lightgray" stroke="black" points="248.925,-858.38 221.925,-858.38 221.925,-840.38 248.925,-840.38 248.925,-858.38"/>
<text text-anchor="middle" x="235.425" y="-847.18" font-family="Times New Roman,serif" font-size="9.00">t&#45;6</text>
</g>
<!-- t&#45;5 -->
<g id="node3" class="node"><title>t&#45;5</title>
<polygon fill="lightgray" stroke="black" points="98.925,-676.072 71.925,-676.072 71.925,-658.072 98.925,-658.072 98.925,-676.072"/>
<text text-anchor="middle" x="85.425" y="-664.872" font-family="Times New Roman,serif" font-size="9.00">t&#45;5</text>
</g>
<!-- 23855 -->
<g id="node14" class="node"><title>23855</title>
<ellipse fill="white" stroke="black" cx="247.425" cy="-484.056" rx="27.6545" ry="27.6545"/>
<text text-anchor="middle" x="247.425" y="-481.856" font-family="Times New Roman,serif" font-size="9.00">23855</text>
</g>
<!-- t&#45;5&#45;&gt;23855 -->
<g id="edge11" class="edge"><title>t&#45;5&#45;&gt;23855</title>
<path fill="none" stroke="green" stroke-width="0.497851" stroke-dasharray="1,5" d="M86.7206,-657.941C90.3821,-637.305 102.548,-582.146 132.425,-548.34 153.741,-524.221 186.545,-507.451 211.67,-497.264"/>
<polygon fill="green" stroke="green" stroke-width="0.497851" points="213.17,-500.436 221.225,-493.553 210.636,-493.911 213.17,-500.436"/>
</g>
<!-- 35186 -->
<g id="node16" class="node"><title>35186</title>
<ellipse fill="white" stroke="black" cx="169.425" cy="-575.917" rx="27.6545" ry="27.6545"/>
<text text-anchor="middle" x="169.425" y="-573.717" font-family="Times New Roman,serif" font-size="9.00">35186</text>
</g>
<!-- t&#45;5&#45;&gt;35186 -->
<g id="edge21" class="edge"><title>t&#45;5&#45;&gt;35186</title>
<path fill="none" stroke="green" stroke-width="0.488529" d="M93.177,-657.844C104.549,-645.774 126.287,-622.703 143.651,-604.272"/>
<polygon fill="green" stroke="green" stroke-width="0.488529" points="146.473,-606.382 150.783,-596.704 141.378,-601.582 146.473,-606.382"/>
</g>
<!-- 13369 -->
<g id="node21" class="node"><title>13369</title>
<ellipse fill="white" stroke="black" cx="251.425" cy="-118.731" rx="27.6545" ry="27.6545"/>
<text text-anchor="middle" x="251.425" y="-116.531" font-family="Times New Roman,serif" font-size="9.00">13369</text>
</g>
<!-- t&#45;5&#45;&gt;13369 -->
<g id="edge4" class="edge"><title>t&#45;5&#45;&gt;13369</title>
<path fill="none" stroke="red" stroke-width="0.32787" stroke-dasharray="1,5" d="M73.0547,-657.993C57.9589,-647.412 32.9079,-627.371 20.425,-603.495 -4.27511,-556.249 1.42504,-538.368 1.42504,-485.056 1.42504,-485.056 1.42504,-485.056 1.42504,-300.04 1.42504,-182.931 120.76,-215.25 215.425,-146.309 217.458,-144.828 219.553,-143.297 221.661,-141.752"/>
<polygon fill="red" stroke="red" stroke-width="0.32787" points="223.773,-144.543 229.757,-135.799 219.627,-138.903 223.773,-144.543"/>
</g>
<!-- 18751 -->
<g id="node23" class="node"><title>18751</title>
<ellipse fill="white" stroke="black" cx="57.425" cy="-575.917" rx="27.6545" ry="27.6545"/>
<text text-anchor="middle" x="57.425" y="-573.717" font-family="Times New Roman,serif" font-size="9.00">18751</text>
</g>
<!-- t&#45;5&#45;&gt;18751 -->
<g id="edge8" class="edge"><title>t&#45;5&#45;&gt;18751</title>
<path fill="none" stroke="green" stroke-width="0.221848" stroke-dasharray="1,5" d="M82.8411,-657.844C79.5591,-647.394 73.6871,-628.697 68.4136,-611.906"/>
<polygon fill="green" stroke="green" stroke-width="0.221848" points="71.7375,-610.808 65.4019,-602.316 65.0591,-612.906 71.7375,-610.808"/>
</g>
<!-- t&#45;4 -->
<g id="node4" class="node"><title>t&#45;4</title>
<polygon fill="lightgray" stroke="black" points="484.925,-584.917 457.925,-584.917 457.925,-566.917 484.925,-566.917 484.925,-584.917"/>
<text text-anchor="middle" x="471.425" y="-573.717" font-family="Times New Roman,serif" font-size="9.00">t&#45;4</text>
</g>
<!-- Target -->
<g id="node8" class="node"><title>Target</title>
<ellipse fill="lightblue" stroke="black" cx="420.425" cy="-484.056" rx="28.0702" ry="28.0702"/>
<text text-anchor="middle" x="420.425" y="-481.856" font-family="Times New Roman,serif" font-size="9.00">Target</text>
</g>
<!-- t&#45;4&#45;&gt;Target -->
<g id="edge1" class="edge"><title>t&#45;4&#45;&gt;Target</title>
<path fill="none" stroke="red" stroke-width="0.224049" d="M466.718,-566.624C460.461,-555.599 449.034,-535.465 439.099,-517.96"/>
<polygon fill="red" stroke="red" stroke-width="0.224049" points="442.055,-516.077 434.075,-509.108 435.967,-519.532 442.055,-516.077"/>
</g>
<!-- 22072 -->
<g id="node20" class="node"><title>22072</title>
<ellipse fill="white" stroke="black" cx="365.425" cy="-27.5772" rx="27.6545" ry="27.6545"/>
<text text-anchor="middle" x="365.425" y="-25.3772" font-family="Times New Roman,serif" font-size="9.00">22072</text>
</g>
<!-- t&#45;4&#45;&gt;22072 -->
<g id="edge10" class="edge"><title>t&#45;4&#45;&gt;22072</title>
<path fill="none" stroke="green" stroke-width="0.369378" d="M471.817,-566.588C472.996,-540.819 476.425,-460.104 476.425,-393.194 476.425,-393.194 476.425,-393.194 476.425,-208.886 476.425,-145.587 426.204,-85.8635 393.323,-53.5444"/>
<polygon fill="green" stroke="green" stroke-width="0.369378" points="395.423,-50.7093 385.784,-46.3122 390.577,-55.7607 395.423,-50.7093"/>
</g>
<!-- t&#45;3 -->
<g id="node5" class="node"><title>t&#45;3</title>
<polygon fill="lightgray" stroke="black" points="125.925,-127.731 98.925,-127.731 98.925,-109.731 125.925,-109.731 125.925,-127.731"/>
<text text-anchor="middle" x="112.425" y="-116.531" font-family="Times New Roman,serif" font-size="9.00">t&#45;3</text>
</g>
<!-- 17062 -->
<g id="node11" class="node"><title>17062</title>
<ellipse fill="white" stroke="black" cx="182.425" cy="-27.5772" rx="27.6545" ry="27.6545"/>
<text text-anchor="middle" x="182.425" y="-25.3772" font-family="Times New Roman,serif" font-size="9.00">17062</text>
</g>
<!-- t&#45;3&#45;&gt;17062 -->
<g id="edge6" class="edge"><title>t&#45;3&#45;&gt;17062</title>
<path fill="none" stroke="red" stroke-width="0.671868" d="M118.885,-109.504C128.042,-97.8407 145.265,-75.9052 159.472,-57.8111"/>
<polygon fill="red" stroke="red" stroke-width="0.671868" points="162.325,-59.8454 165.747,-49.8186 156.819,-55.5225 162.325,-59.8454"/>
</g>
<!-- 20217 -->
<g id="node18" class="node"><title>20217</title>
<ellipse fill="white" stroke="black" cx="109.425" cy="-27.5772" rx="27.6545" ry="27.6545"/>
<text text-anchor="middle" x="109.425" y="-25.3772" font-family="Times New Roman,serif" font-size="9.00">20217</text>
</g>
<!-- t&#45;3&#45;&gt;20217 -->
<g id="edge23" class="edge"><title>t&#45;3&#45;&gt;20217</title>
<path fill="none" stroke="red" stroke-width="0.217664" d="M112.148,-109.504C111.81,-99.4612 111.216,-81.8026 110.669,-65.5381"/>
<polygon fill="red" stroke="red" stroke-width="0.217664" points="114.153,-65.0219 110.319,-55.1453 107.157,-65.2574 114.153,-65.0219"/>
</g>
<!-- t&#45;2 -->
<g id="node6" class="node"><title>t&#45;2</title>
<polygon fill="lightgray" stroke="black" points="436.925,-584.917 409.925,-584.917 409.925,-566.917 436.925,-566.917 436.925,-584.917"/>
<text text-anchor="middle" x="423.425" y="-573.717" font-family="Times New Roman,serif" font-size="9.00">t&#45;2</text>
</g>
<!-- t&#45;2&#45;&gt;Target -->
<g id="edge2" class="edge"><title>t&#45;2&#45;&gt;Target</title>
<path fill="none" stroke="red" stroke-width="0.252912" d="M423.148,-566.624C422.815,-556.645 422.233,-539.203 421.692,-523.003"/>
<polygon fill="red" stroke="red" stroke-width="0.252912" points="425.177,-522.506 421.346,-512.628 418.181,-522.739 425.177,-522.506"/>
</g>
<!-- t&#45;1 -->
<g id="node7" class="node"><title>t&#45;1</title>
<polygon fill="lightgray" stroke="black" points="391.925,-584.917 364.925,-584.917 364.925,-566.917 391.925,-566.917 391.925,-584.917"/>
<text text-anchor="middle" x="378.425" y="-573.717" font-family="Times New Roman,serif" font-size="9.00">t&#45;1</text>
</g>
<!-- t&#45;1&#45;&gt;Target -->
<g id="edge3" class="edge"><title>t&#45;1&#45;&gt;Target</title>
<path fill="none" stroke="green" stroke-width="0.374523" d="M382.301,-566.624C387.339,-555.846 396.444,-536.365 404.493,-519.144"/>
<polygon fill="green" stroke="green" stroke-width="0.374523" points="407.76,-520.42 408.823,-509.879 401.418,-517.456 407.76,-520.42"/>
</g>
<!-- t&#45;1&#45;&gt;23855 -->
<g id="edge16" class="edge"><title>t&#45;1&#45;&gt;23855</title>
<path fill="none" stroke="green" stroke-width="0.205217" stroke-dasharray="1,5" d="M370.5,-566.534C365.104,-561.047 357.653,-553.894 350.425,-548.34 328.245,-531.298 301.242,-514.848 280.45,-502.993"/>
<polygon fill="green" stroke="green" stroke-width="0.205217" points="282.094,-499.902 271.663,-498.045 278.659,-506.001 282.094,-499.902"/>
</g>
<!-- t&#45;1&#45;&gt;13369 -->
<g id="edge5" class="edge"><title>t&#45;1&#45;&gt;13369</title>
<path fill="none" stroke="red" stroke-width="0.228042" stroke-dasharray="1,5" d="M377.326,-566.603C374.026,-540.878 364.425,-460.277 364.425,-393.194 364.425,-393.194 364.425,-393.194 364.425,-300.04 364.425,-236.426 313.299,-176.811 279.826,-144.597"/>
<polygon fill="red" stroke="red" stroke-width="0.228042" points="281.837,-141.684 272.151,-137.39 277.045,-146.787 281.837,-141.684"/>
</g>
<!-- 24804 -->
<g id="node9" class="node"><title>24804</title>
<ellipse fill="white" stroke="black" cx="270.425" cy="-301.04" rx="27.6545" ry="27.6545"/>
<text text-anchor="middle" x="270.425" y="-298.84" font-family="Times New Roman,serif" font-size="9.00">24804</text>
</g>
<!-- 24376 -->
<g id="node15" class="node"><title>24376</title>
<ellipse fill="white" stroke="black" cx="251.425" cy="-209.886" rx="27.6545" ry="27.6545"/>
<text text-anchor="middle" x="251.425" y="-207.686" font-family="Times New Roman,serif" font-size="9.00">24376</text>
</g>
<!-- 24804&#45;&gt;24376 -->
<g id="edge18" class="edge"><title>24804&#45;&gt;24376</title>
<path fill="none" stroke="red" stroke-width="0.562907" d="M264.827,-273.773C263.03,-265.339 261.007,-255.846 259.088,-246.842"/>
<polygon fill="red" stroke="red" stroke-width="0.562907" points="262.49,-246.016 256.983,-236.965 255.644,-247.475 262.49,-246.016"/>
</g>
<!-- 26501 -->
<g id="node10" class="node"><title>26501</title>
<ellipse fill="white" stroke="black" cx="242.425" cy="-575.917" rx="27.6545" ry="27.6545"/>
<text text-anchor="middle" x="242.425" y="-573.717" font-family="Times New Roman,serif" font-size="9.00">26501</text>
</g>
<!-- 26501&#45;&gt;23855 -->
<g id="edge19" class="edge"><title>26501&#45;&gt;23855</title>
<path fill="none" stroke="red" stroke-width="0.585143" d="M243.925,-547.956C244.384,-539.707 244.897,-530.49 245.386,-521.711"/>
<polygon fill="red" stroke="red" stroke-width="0.585143" points="248.882,-521.868 245.943,-511.689 241.893,-521.479 248.882,-521.868"/>
</g>
<!-- 51046 -->
<g id="node12" class="node"><title>51046</title>
<ellipse fill="white" stroke="black" cx="178.425" cy="-667.072" rx="27.6545" ry="27.6545"/>
<text text-anchor="middle" x="178.425" y="-664.872" font-family="Times New Roman,serif" font-size="9.00">51046</text>
</g>
<!-- 51046&#45;&gt;35186 -->
<g id="edge28" class="edge"><title>51046&#45;&gt;35186</title>
<path fill="none" stroke="green" stroke-width="0.119425" d="M175.725,-639.322C174.915,-631.3 174.012,-622.356 173.148,-613.801"/>
<polygon fill="green" stroke="green" stroke-width="0.119425" points="176.61,-613.246 172.123,-603.648 169.646,-613.949 176.61,-613.246"/>
</g>
<!-- 51436 -->
<g id="node13" class="node"><title>51436</title>
<ellipse fill="white" stroke="black" cx="308.425" cy="-392.194" rx="27.6545" ry="27.6545"/>
<text text-anchor="middle" x="308.425" y="-389.994" font-family="Times New Roman,serif" font-size="9.00">51436</text>
</g>
<!-- 51436&#45;&gt;24804 -->
<g id="edge30" class="edge"><title>51436&#45;&gt;24804</title>
<path fill="none" stroke="red" stroke-width="0.27444" stroke-dasharray="1,5" d="M297.84,-366.36C293.846,-356.989 289.23,-346.16 284.938,-336.09"/>
<polygon fill="red" stroke="red" stroke-width="0.27444" points="288.094,-334.568 280.953,-326.741 281.655,-337.313 288.094,-334.568"/>
</g>
<!-- 23855&#45;&gt;24804 -->
<g id="edge17" class="edge"><title>23855&#45;&gt;24804</title>
<path fill="none" stroke="green" stroke-width="0.398002" stroke-dasharray="1,5" d="M250.819,-456.346C254.771,-425.242 261.322,-373.683 265.753,-338.81"/>
<polygon fill="green" stroke="green" stroke-width="0.398002" points="269.266,-338.926 267.055,-328.564 262.322,-338.043 269.266,-338.926"/>
</g>
<!-- 23855&#45;&gt;51436 -->
<g id="edge29" class="edge"><title>23855&#45;&gt;51436</title>
<path fill="none" stroke="green" stroke-width="0.263239" d="M262.504,-460.843C270.055,-449.718 279.319,-436.072 287.543,-423.957"/>
<polygon fill="green" stroke="green" stroke-width="0.263239" points="290.588,-425.703 293.308,-415.463 284.796,-421.771 290.588,-425.703"/>
</g>
<!-- 23855&#45;&gt;24376 -->
<g id="edge14" class="edge"><title>23855&#45;&gt;24376</title>
<path fill="none" stroke="red" stroke-width="0.158886" stroke-dasharray="1,5" d="M242.211,-456.788C235.085,-416.965 224.186,-339.006 233.425,-273.463 234.709,-264.354 236.996,-254.713 239.517,-245.799"/>
<polygon fill="red" stroke="red" stroke-width="0.158886" points="242.903,-246.694 242.424,-236.11 236.198,-244.683 242.903,-246.694"/>
</g>
<!-- 23855&#45;&gt;13369 -->
<g id="edge12" class="edge"><title>23855&#45;&gt;13369</title>
<path fill="none" stroke="red" stroke-width="0.217443" d="M238.36,-457.603C221.037,-405.15 187.264,-281.613 214.425,-182.309 217.535,-170.937 223.302,-159.533 229.372,-149.634"/>
<polygon fill="red" stroke="red" stroke-width="0.217443" points="232.46,-151.305 234.964,-141.011 226.587,-147.496 232.46,-151.305"/>
</g>
<!-- 24376&#45;&gt;13369 -->
<g id="edge15" class="edge"><title>24376&#45;&gt;13369</title>
<path fill="none" stroke="green" stroke-width="0.269383" stroke-dasharray="1,5" d="M251.425,-182.137C251.425,-174.114 251.425,-165.17 251.425,-156.615"/>
<polygon fill="green" stroke="green" stroke-width="0.269383" points="254.925,-156.462 251.425,-146.462 247.925,-156.462 254.925,-156.462"/>
</g>
<!-- 35186&#45;&gt;23855 -->
<g id="edge22" class="edge"><title>35186&#45;&gt;23855</title>
<path fill="none" stroke="red" stroke-width="0.153012" d="M187.124,-554.526C197.795,-542.233 211.535,-526.404 223.204,-512.961"/>
<polygon fill="red" stroke="red" stroke-width="0.153012" points="225.884,-515.212 229.796,-505.366 220.597,-510.624 225.884,-515.212"/>
</g>
<!-- 18069 -->
<g id="node17" class="node"><title>18069</title>
<ellipse fill="white" stroke="black" cx="178.425" cy="-118.731" rx="27.6545" ry="27.6545"/>
<text text-anchor="middle" x="178.425" y="-116.531" font-family="Times New Roman,serif" font-size="9.00">18069</text>
</g>
<!-- 18069&#45;&gt;17062 -->
<g id="edge7" class="edge"><title>18069&#45;&gt;17062</title>
<path fill="none" stroke="red" stroke-width="0.380298" stroke-dasharray="1,5" d="M179.625,-90.9823C179.985,-82.96 180.386,-74.0155 180.77,-65.4608"/>
<polygon fill="red" stroke="red" stroke-width="0.380298" points="184.274,-65.4544 181.226,-55.3075 177.281,-65.1406 184.274,-65.4544"/>
</g>
<!-- 32823 -->
<g id="node19" class="node"><title>32823</title>
<ellipse fill="white" stroke="black" cx="294.425" cy="-849.38" rx="27.6545" ry="27.6545"/>
<text text-anchor="middle" x="294.425" y="-847.18" font-family="Times New Roman,serif" font-size="9.00">32823</text>
</g>
<!-- 32823&#45;&gt;23855 -->
<g id="edge20" class="edge"><title>32823&#45;&gt;23855</title>
<path fill="none" stroke="green" stroke-width="0.246522" stroke-dasharray="1,5" d="M300.581,-822.478C311.99,-769.209 332.248,-644.32 297.425,-548.34 292.478,-534.704 283.347,-521.742 274.228,-511.14"/>
<polygon fill="green" stroke="green" stroke-width="0.246522" points="276.635,-508.583 267.327,-503.521 271.447,-513.282 276.635,-508.583"/>
</g>
<!-- 43995 -->
<g id="node22" class="node"><title>43995</title>
<ellipse fill="white" stroke="black" cx="265.425" cy="-758.226" rx="27.6545" ry="27.6545"/>
<text text-anchor="middle" x="265.425" y="-756.026" font-family="Times New Roman,serif" font-size="9.00">43995</text>
</g>
<!-- 32823&#45;&gt;43995 -->
<g id="edge24" class="edge"><title>32823&#45;&gt;43995</title>
<path fill="none" stroke="red" stroke-width="0.519243" stroke-dasharray="1,5" d="M286.037,-822.593C283.157,-813.738 279.882,-803.672 276.805,-794.211"/>
<polygon fill="red" stroke="red" stroke-width="0.519243" points="280.116,-793.074 273.694,-784.647 273.459,-795.24 280.116,-793.074"/>
</g>
<!-- 13369&#45;&gt;17062 -->
<g id="edge13" class="edge"><title>13369&#45;&gt;17062</title>
<path fill="none" stroke="green" stroke-width="0.170352" stroke-dasharray="1,5" d="M234.722,-96.1497C225.908,-84.7607 214.959,-70.6139 205.361,-58.212"/>
<polygon fill="green" stroke="green" stroke-width="0.170352" points="207.863,-55.7262 198.974,-49.9602 202.327,-60.0106 207.863,-55.7262"/>
</g>
<!-- 13369&#45;&gt;22072 -->
<g id="edge9" class="edge"><title>13369&#45;&gt;22072</title>
<path fill="none" stroke="green" stroke-width="0.35926" d="M272.868,-100.962C290.701,-87.0153 316.267,-67.0216 336.012,-51.5796"/>
<polygon fill="green" stroke="green" stroke-width="0.35926" points="338.358,-54.1887 344.079,-45.2712 334.045,-48.6746 338.358,-54.1887"/>
</g>
<!-- 43995&#45;&gt;51046 -->
<g id="edge27" class="edge"><title>43995&#45;&gt;51046</title>
<path fill="none" stroke="green" stroke-width="0.32257" d="M246.547,-737.881C234.235,-725.263 217.998,-708.624 204.464,-694.756"/>
<polygon fill="green" stroke="green" stroke-width="0.32257" points="206.755,-692.092 197.266,-687.379 201.745,-696.981 206.755,-692.092"/>
</g>
<!-- 43995&#45;&gt;23855 -->
<g id="edge25" class="edge"><title>43995&#45;&gt;23855</title>
<path fill="none" stroke="red" stroke-width="0.192117" stroke-dasharray="1,5" d="M272.029,-731.413C281.145,-691.549 294.811,-612.863 279.425,-548.34 276.828,-537.45 272.038,-526.311 266.941,-516.474"/>
<polygon fill="red" stroke="red" stroke-width="0.192117" points="269.895,-514.582 262.022,-507.493 263.756,-517.945 269.895,-514.582"/>
</g>
<!-- 43995&#45;&gt;35186 -->
<g id="edge26" class="edge"><title>43995&#45;&gt;35186</title>
<path fill="none" stroke="red" stroke-width="0.505919" stroke-dasharray="1,5" d="M256.517,-731.615C247.577,-707.206 232.68,-669.789 215.425,-639.495 208.908,-628.053 200.669,-616.234 192.971,-605.991"/>
<polygon fill="red" stroke="red" stroke-width="0.505919" points="195.547,-603.6 186.68,-597.801 189.995,-607.864 195.547,-603.6"/>
</g>
</g>
</svg>
