<?xml version="1.0" encoding="UTF-8" standalone="no"?>
<!DOCTYPE svg PUBLIC "-//W3C//DTD SVG 1.1//EN"
 "http://www.w3.org/Graphics/SVG/1.1/DTD/svg11.dtd">
<!-- Generated by graphviz version 2.38.0 (20140413.2041)
 -->
<!-- Title: %3 Pages: 1 -->
<svg width="319pt" height="210pt"
 viewBox="0.00 0.00 319.45 209.72" xmlns="http://www.w3.org/2000/svg" xmlns:xlink="http://www.w3.org/1999/xlink">
<g id="graph0" class="graph" transform="scale(1 1) rotate(0) translate(4 205.723)">
<title>%3</title>
<polygon fill="white" stroke="none" points="-4,4 -4,-205.723 315.45,-205.723 315.45,4 -4,4"/>
<!-- t&#45;7 -->
<g id="node1" class="node"><title>t&#45;7</title>
<polygon fill="lightgray" stroke="black" points="31.4502,-201.723 4.45021,-201.723 4.45021,-183.723 31.4502,-183.723 31.4502,-201.723"/>
<text text-anchor="middle" x="17.9502" y="-190.523" font-family="Times New Roman,serif" font-size="9.00">t&#45;7</text>
</g>
<!-- Target -->
<g id="node8" class="node"><title>Target</title>
<ellipse fill="lightblue" stroke="black" cx="137.95" cy="-28.2843" rx="28.0702" ry="28.0702"/>
<text text-anchor="middle" x="137.95" y="-26.0843" font-family="Times New Roman,serif" font-size="9.00">Target</text>
</g>
<!-- t&#45;7&#45;&gt;Target -->
<g id="edge1" class="edge"><title>t&#45;7&#45;&gt;Target</title>
<path fill="none" stroke="red" stroke-width="0.141067" stroke-dasharray="1,5" d="M14.1044,-183.506C6.28643,-165.483 -9.24409,-121.76 8.95021,-92.5685 28.7477,-60.8049 69.6507,-44.5357 100.119,-36.5096"/>
<polygon fill="red" stroke="red" stroke-width="0.141067" points="101.123,-39.8673 110.006,-34.0932 99.4614,-33.0674 101.123,-39.8673"/>
</g>
<!-- 9292 -->
<g id="node9" class="node"><title>9292</title>
<ellipse fill="white" stroke="black" cx="42.9502" cy="-120.146" rx="25" ry="25"/>
<text text-anchor="middle" x="42.9502" y="-117.946" font-family="Times New Roman,serif" font-size="9.00">9292</text>
</g>
<!-- t&#45;7&#45;&gt;9292 -->
<g id="edge8" class="edge"><title>t&#45;7&#45;&gt;9292</title>
<path fill="none" stroke="red" stroke-width="0.855999" stroke-dasharray="1,5" d="M20.818,-183.627C23.4567,-176.178 27.5483,-164.627 31.4992,-153.473"/>
<polygon fill="red" stroke="red" stroke-width="0.855999" points="34.855,-154.481 34.8949,-143.887 28.2568,-152.144 34.855,-154.481"/>
</g>
<!-- t&#45;6 -->
<g id="node2" class="node"><title>t&#45;6</title>
<polygon fill="lightgray" stroke="black" points="266.45,-201.723 239.45,-201.723 239.45,-183.723 266.45,-183.723 266.45,-201.723"/>
<text text-anchor="middle" x="252.95" y="-190.523" font-family="Times New Roman,serif" font-size="9.00">t&#45;6</text>
</g>
<!-- t&#45;5 -->
<g id="node3" class="node"><title>t&#45;5</title>
<polygon fill="lightgray" stroke="black" points="80.4502,-201.723 53.4502,-201.723 53.4502,-183.723 80.4502,-183.723 80.4502,-201.723"/>
<text text-anchor="middle" x="66.9502" y="-190.523" font-family="Times New Roman,serif" font-size="9.00">t&#45;5</text>
</g>
<!-- t&#45;5&#45;&gt;Target -->
<g id="edge2" class="edge"><title>t&#45;5&#45;&gt;Target</title>
<path fill="none" stroke="red" stroke-width="0.141236" d="M70.5687,-183.444C80.0513,-161.749 106.047,-102.274 122.838,-63.8586"/>
<polygon fill="red" stroke="red" stroke-width="0.141236" points="126.095,-65.1464 126.893,-54.5817 119.681,-62.3429 126.095,-65.1464"/>
</g>
<!-- t&#45;5&#45;&gt;9292 -->
<g id="edge6" class="edge"><title>t&#45;5&#45;&gt;9292</title>
<path fill="none" stroke="green" stroke-width="0.184476" d="M64.1971,-183.627C61.664,-176.178 57.736,-164.627 53.9432,-153.473"/>
<polygon fill="green" stroke="green" stroke-width="0.184476" points="57.2165,-152.227 50.6833,-143.887 50.5892,-154.481 57.2165,-152.227"/>
</g>
<!-- t&#45;4 -->
<g id="node4" class="node"><title>t&#45;4</title>
<polygon fill="lightgray" stroke="black" points="311.45,-201.723 284.45,-201.723 284.45,-183.723 311.45,-183.723 311.45,-201.723"/>
<text text-anchor="middle" x="297.95" y="-190.523" font-family="Times New Roman,serif" font-size="9.00">t&#45;4</text>
</g>
<!-- t&#45;3 -->
<g id="node5" class="node"><title>t&#45;3</title>
<polygon fill="lightgray" stroke="black" points="151.45,-129.146 124.45,-129.146 124.45,-111.146 151.45,-111.146 151.45,-129.146"/>
<text text-anchor="middle" x="137.95" y="-117.946" font-family="Times New Roman,serif" font-size="9.00">t&#45;3</text>
</g>
<!-- t&#45;3&#45;&gt;Target -->
<g id="edge3" class="edge"><title>t&#45;3&#45;&gt;Target</title>
<path fill="none" stroke="red" stroke-width="0.266408" d="M137.95,-110.853C137.95,-100.873 137.95,-83.4317 137.95,-67.2318"/>
<polygon fill="red" stroke="red" stroke-width="0.266408" points="141.45,-66.8563 137.95,-56.8564 134.45,-66.8564 141.45,-66.8563"/>
</g>
<!-- t&#45;2 -->
<g id="node6" class="node"><title>t&#45;2</title>
<polygon fill="lightgray" stroke="black" points="221.45,-201.723 194.45,-201.723 194.45,-183.723 221.45,-183.723 221.45,-201.723"/>
<text text-anchor="middle" x="207.95" y="-190.523" font-family="Times New Roman,serif" font-size="9.00">t&#45;2</text>
</g>
<!-- t&#45;2&#45;&gt;Target -->
<g id="edge4" class="edge"><title>t&#45;2&#45;&gt;Target</title>
<path fill="none" stroke="green" stroke-width="0.322465" stroke-dasharray="1,5" d="M204.383,-183.444C195.034,-161.749 169.404,-102.274 152.849,-63.8586"/>
<polygon fill="green" stroke="green" stroke-width="0.322465" points="156.024,-62.3801 148.852,-54.5817 149.595,-65.1504 156.024,-62.3801"/>
</g>
<!-- 25103 -->
<g id="node10" class="node"><title>25103</title>
<ellipse fill="white" stroke="black" cx="235.95" cy="-120.146" rx="27.6545" ry="27.6545"/>
<text text-anchor="middle" x="235.95" y="-117.946" font-family="Times New Roman,serif" font-size="9.00">25103</text>
</g>
<!-- t&#45;2&#45;&gt;25103 -->
<g id="edge9" class="edge"><title>t&#45;2&#45;&gt;25103</title>
<path fill="none" stroke="green" stroke-width="0.414745" d="M211.162,-183.627C213.934,-176.641 218.136,-166.048 222.298,-155.558"/>
<polygon fill="green" stroke="green" stroke-width="0.414745" points="225.632,-156.646 226.066,-146.06 219.125,-154.064 225.632,-156.646"/>
</g>
<!-- t&#45;1 -->
<g id="node7" class="node"><title>t&#45;1</title>
<polygon fill="lightgray" stroke="black" points="308.45,-129.146 281.45,-129.146 281.45,-111.146 308.45,-111.146 308.45,-129.146"/>
<text text-anchor="middle" x="294.95" y="-117.946" font-family="Times New Roman,serif" font-size="9.00">t&#45;1</text>
</g>
<!-- t&#45;1&#45;&gt;Target -->
<g id="edge5" class="edge"><title>t&#45;1&#45;&gt;Target</title>
<path fill="none" stroke="green" stroke-width="0.340138" d="M289.577,-110.883C285.539,-105.17 279.581,-97.7024 272.95,-92.5685 242.924,-69.3206 202.978,-51.9352 174.342,-41.3277"/>
<polygon fill="green" stroke="green" stroke-width="0.340138" points="175.314,-37.9577 164.719,-37.8599 172.94,-44.5431 175.314,-37.9577"/>
</g>
<!-- 9292&#45;&gt;Target -->
<g id="edge7" class="edge"><title>9292&#45;&gt;Target</title>
<path fill="none" stroke="red" stroke-width="0.293755" d="M60.819,-102.243C74.7684,-89.0486 94.3944,-70.4841 110.358,-55.3841"/>
<polygon fill="red" stroke="red" stroke-width="0.293755" points="113,-57.7029 117.859,-48.2884 108.189,-52.6176 113,-57.7029"/>
</g>
<!-- 25103&#45;&gt;Target -->
<g id="edge10" class="edge"><title>25103&#45;&gt;Target</title>
<path fill="none" stroke="red" stroke-width="0.128028" d="M216.118,-100.961C201.699,-87.7391 181.981,-69.6589 165.957,-54.9655"/>
<polygon fill="red" stroke="red" stroke-width="0.128028" points="168.163,-52.2394 158.427,-48.0606 163.432,-57.3987 168.163,-52.2394"/>
</g>
</g>
</svg>
