<?xml version="1.0" encoding="UTF-8" standalone="no"?>
<!DOCTYPE svg PUBLIC "-//W3C//DTD SVG 1.1//EN"
 "http://www.w3.org/Graphics/SVG/1.1/DTD/svg11.dtd">
<!-- Generated by graphviz version 2.38.0 (20140413.2041)
 -->
<!-- Title: %3 Pages: 1 -->
<svg width="359pt" height="197pt"
 viewBox="0.00 0.00 359.00 196.99" xmlns="http://www.w3.org/2000/svg" xmlns:xlink="http://www.w3.org/1999/xlink">
<g id="graph0" class="graph" transform="scale(1 1) rotate(0) translate(4 192.995)">
<title>%3</title>
<polygon fill="white" stroke="none" points="-4,4 -4,-192.995 355,-192.995 355,4 -4,4"/>
<!-- t&#45;7 -->
<g id="node1" class="node"><title>t&#45;7</title>
<polygon fill="lightgray" stroke="black" points="27,-122.782 0,-122.782 0,-104.782 27,-104.782 27,-122.782"/>
<text text-anchor="middle" x="13.5" y="-111.582" font-family="Times New Roman,serif" font-size="9.00">t&#45;7</text>
</g>
<!-- Target -->
<g id="node8" class="node"><title>Target</title>
<ellipse fill="lightblue" stroke="black" cx="169.5" cy="-28.2843" rx="28.0702" ry="28.0702"/>
<text text-anchor="middle" x="169.5" y="-26.0843" font-family="Times New Roman,serif" font-size="9.00">Target</text>
</g>
<!-- t&#45;7&#45;&gt;Target -->
<g id="edge1" class="edge"><title>t&#45;7&#45;&gt;Target</title>
<path fill="none" stroke="green" stroke-width="0.351936" stroke-dasharray="1,5" d="M21.1573,-104.67C25.1788,-100.701 30.3356,-96.0426 35.5,-92.5685 66.6263,-71.6304 105.766,-54.0138 133.693,-42.7276"/>
<polygon fill="green" stroke="green" stroke-width="0.351936" points="135.069,-45.9471 143.072,-39.0044 132.486,-39.441 135.069,-45.9471"/>
</g>
<!-- t&#45;6 -->
<g id="node2" class="node"><title>t&#45;6</title>
<polygon fill="lightgray" stroke="black" points="72,-122.782 45,-122.782 45,-104.782 72,-104.782 72,-122.782"/>
<text text-anchor="middle" x="58.5" y="-111.582" font-family="Times New Roman,serif" font-size="9.00">t&#45;6</text>
</g>
<!-- t&#45;6&#45;&gt;Target -->
<g id="edge2" class="edge"><title>t&#45;6&#45;&gt;Target</title>
<path fill="none" stroke="green" stroke-width="0.678584" stroke-dasharray="1,5" d="M66.8468,-104.655C70.8684,-100.86 75.8239,-96.3546 80.5,-92.5685 98.8198,-77.7357 120.337,-62.3838 137.625,-50.5156"/>
<polygon fill="green" stroke="green" stroke-width="0.678584" points="139.946,-53.1698 146.241,-44.648 136.005,-47.3841 139.946,-53.1698"/>
</g>
<!-- t&#45;5 -->
<g id="node3" class="node"><title>t&#45;5</title>
<polygon fill="lightgray" stroke="black" points="117,-122.782 90,-122.782 90,-104.782 117,-104.782 117,-122.782"/>
<text text-anchor="middle" x="103.5" y="-111.582" font-family="Times New Roman,serif" font-size="9.00">t&#45;5</text>
</g>
<!-- t&#45;5&#45;&gt;Target -->
<g id="edge3" class="edge"><title>t&#45;5&#45;&gt;Target</title>
<path fill="none" stroke="red" stroke-width="0.191846" d="M109.828,-104.776C118.071,-94.348 132.944,-75.5317 145.779,-59.2942"/>
<polygon fill="red" stroke="red" stroke-width="0.191846" points="148.804,-61.1117 152.259,-51.0962 143.312,-56.7709 148.804,-61.1117"/>
</g>
<!-- t&#45;4 -->
<g id="node4" class="node"><title>t&#45;4</title>
<polygon fill="lightgray" stroke="black" points="183,-188.995 156,-188.995 156,-170.995 183,-170.995 183,-188.995"/>
<text text-anchor="middle" x="169.5" y="-177.795" font-family="Times New Roman,serif" font-size="9.00">t&#45;4</text>
</g>
<!-- t&#45;4&#45;&gt;Target -->
<g id="edge4" class="edge"><title>t&#45;4&#45;&gt;Target</title>
<path fill="none" stroke="red" stroke-width="0.136102" stroke-dasharray="1,5" d="M168.303,-170.909C167.064,-162.1 165.213,-147.583 164.5,-134.995 163.217,-112.345 164.335,-86.9516 165.836,-66.7308"/>
<polygon fill="red" stroke="red" stroke-width="0.136102" points="169.332,-66.9185 166.645,-56.67 162.355,-66.3572 169.332,-66.9185"/>
</g>
<!-- 111 -->
<g id="node9" class="node"><title>111</title>
<ellipse fill="white" stroke="black" cx="194.5" cy="-113.782" rx="21.4286" ry="21.4286"/>
<text text-anchor="middle" x="194.5" y="-111.582" font-family="Times New Roman,serif" font-size="9.00">111</text>
</g>
<!-- t&#45;4&#45;&gt;111 -->
<g id="edge9" class="edge"><title>t&#45;4&#45;&gt;111</title>
<path fill="none" stroke="green" stroke-width="0.325509" d="M172.666,-170.862C175.394,-163.855 179.501,-153.308 183.419,-143.244"/>
<polygon fill="green" stroke="green" stroke-width="0.325509" points="186.7,-144.464 187.066,-133.875 180.177,-141.924 186.7,-144.464"/>
</g>
<!-- t&#45;3 -->
<g id="node5" class="node"><title>t&#45;3</title>
<polygon fill="lightgray" stroke="black" points="261,-122.782 234,-122.782 234,-104.782 261,-104.782 261,-122.782"/>
<text text-anchor="middle" x="247.5" y="-111.582" font-family="Times New Roman,serif" font-size="9.00">t&#45;3</text>
</g>
<!-- t&#45;3&#45;&gt;Target -->
<g id="edge5" class="edge"><title>t&#45;3&#45;&gt;Target</title>
<path fill="none" stroke="red" stroke-width="0.287188" d="M240.021,-104.776C229.837,-93.8735 211.087,-73.8019 195.479,-57.0946"/>
<polygon fill="red" stroke="red" stroke-width="0.287188" points="197.956,-54.6183 188.572,-49.7 192.84,-59.3969 197.956,-54.6183"/>
</g>
<!-- t&#45;2 -->
<g id="node6" class="node"><title>t&#45;2</title>
<polygon fill="lightgray" stroke="black" points="306,-122.782 279,-122.782 279,-104.782 306,-104.782 306,-122.782"/>
<text text-anchor="middle" x="292.5" y="-111.582" font-family="Times New Roman,serif" font-size="9.00">t&#45;2</text>
</g>
<!-- t&#45;2&#45;&gt;Target -->
<g id="edge6" class="edge"><title>t&#45;2&#45;&gt;Target</title>
<path fill="none" stroke="green" stroke-width="0.293121" stroke-dasharray="1,5" d="M283.817,-104.574C279.622,-100.761 274.436,-96.264 269.5,-92.5685 247.963,-76.4457 222.295,-60.2592 202.356,-48.2924"/>
<polygon fill="green" stroke="green" stroke-width="0.293121" points="204.019,-45.2087 193.634,-43.1065 200.441,-51.2256 204.019,-45.2087"/>
</g>
<!-- t&#45;1 -->
<g id="node7" class="node"><title>t&#45;1</title>
<polygon fill="lightgray" stroke="black" points="351,-122.782 324,-122.782 324,-104.782 351,-104.782 351,-122.782"/>
<text text-anchor="middle" x="337.5" y="-111.582" font-family="Times New Roman,serif" font-size="9.00">t&#45;1</text>
</g>
<!-- t&#45;1&#45;&gt;Target -->
<g id="edge7" class="edge"><title>t&#45;1&#45;&gt;Target</title>
<path fill="none" stroke="green" stroke-width="0.302919" d="M329.89,-104.599C325.88,-100.612 320.72,-95.959 315.5,-92.5685 280.739,-69.9902 236.573,-52.1395 205.967,-41.2305"/>
<polygon fill="green" stroke="green" stroke-width="0.302919" points="206.735,-37.7916 196.14,-37.8002 204.428,-44.4005 206.735,-37.7916"/>
</g>
<!-- Target&#45;&gt;Target -->
<g id="edge8" class="edge"><title>Target&#45;&gt;Target</title>
<path fill="none" stroke="red" stroke-width="0.392032" stroke-dasharray="1,5" d="M193.314,-43.569C205.191,-45.6839 215.784,-40.589 215.784,-28.2843 215.784,-19.8248 210.777,-14.7731 203.788,-13.1291"/>
<polygon fill="red" stroke="red" stroke-width="0.392032" points="203.357,-9.62358 193.314,-12.9995 203.27,-16.623 203.357,-9.62358"/>
</g>
<!-- 111&#45;&gt;Target -->
<g id="edge10" class="edge"><title>111&#45;&gt;Target</title>
<path fill="none" stroke="red" stroke-width="0.278167" stroke-dasharray="1,5" d="M188.575,-92.994C186.089,-84.6902 183.118,-74.766 180.269,-65.2505"/>
<polygon fill="red" stroke="red" stroke-width="0.278167" points="183.591,-64.1432 177.369,-55.5673 176.885,-66.1511 183.591,-64.1432"/>
</g>
</g>
</svg>
