<?xml version="1.0" encoding="UTF-8" standalone="no"?>
<!DOCTYPE svg PUBLIC "-//W3C//DTD SVG 1.1//EN"
 "http://www.w3.org/Graphics/SVG/1.1/DTD/svg11.dtd">
<!-- Generated by graphviz version 2.38.0 (20140413.2041)
 -->
<!-- Title: %3 Pages: 1 -->
<svg width="743pt" height="563pt"
 viewBox="0.00 0.00 742.50 563.03" xmlns="http://www.w3.org/2000/svg" xmlns:xlink="http://www.w3.org/1999/xlink">
<g id="graph0" class="graph" transform="scale(1 1) rotate(0) translate(4 559.026)">
<title>%3</title>
<polygon fill="white" stroke="none" points="-4,4 -4,-559.026 738.5,-559.026 738.5,4 -4,4"/>
<!-- t&#45;7 -->
<g id="node1" class="node"><title>t&#45;7</title>
<polygon fill="lightgray" stroke="black" points="134.5,-555.026 107.5,-555.026 107.5,-537.026 134.5,-537.026 134.5,-555.026"/>
<text text-anchor="middle" x="121" y="-543.826" font-family="Times New Roman,serif" font-size="9.00">t&#45;7</text>
</g>
<!-- Target -->
<g id="node8" class="node"><title>Target</title>
<ellipse fill="lightblue" stroke="black" cx="558" cy="-28.2843" rx="28.0702" ry="28.0702"/>
<text text-anchor="middle" x="558" y="-26.0843" font-family="Times New Roman,serif" font-size="9.00">Target</text>
</g>
<!-- t&#45;7&#45;&gt;Target -->
<g id="edge1" class="edge"><title>t&#45;7&#45;&gt;Target</title>
<path fill="none" stroke="red" stroke-width="0.153351" stroke-dasharray="1,5" d="M107.279,-539.509C91.5938,-532.592 66.0242,-519.377 50,-501.026 14.1246,-459.942 0,-443.495 0,-388.952 0,-388.952 0,-388.952 0,-207.472 0,-98.0483 394.312,-46.6767 519.998,-33.0815"/>
<polygon fill="red" stroke="red" stroke-width="0.153351" points="520.372,-36.5615 529.946,-32.024 519.632,-29.6007 520.372,-36.5615"/>
</g>
<!-- 20353 -->
<g id="node9" class="node"><title>20353</title>
<ellipse fill="white" stroke="black" cx="94" cy="-296.798" rx="27.6545" ry="27.6545"/>
<text text-anchor="middle" x="94" y="-294.598" font-family="Times New Roman,serif" font-size="9.00">20353</text>
</g>
<!-- t&#45;7&#45;&gt;20353 -->
<g id="edge27" class="edge"><title>t&#45;7&#45;&gt;20353</title>
<path fill="none" stroke="green" stroke-width="0.38969" d="M120.102,-536.801C116.692,-505.58 104.42,-393.21 97.9914,-334.346"/>
<polygon fill="green" stroke="green" stroke-width="0.38969" points="101.465,-333.912 96.8999,-324.351 94.5063,-334.672 101.465,-333.912"/>
</g>
<!-- 9538 -->
<g id="node10" class="node"><title>9538</title>
<ellipse fill="white" stroke="black" cx="311" cy="-208.472" rx="25" ry="25"/>
<text text-anchor="middle" x="311" y="-206.272" font-family="Times New Roman,serif" font-size="9.00">9538</text>
</g>
<!-- t&#45;7&#45;&gt;9538 -->
<g id="edge11" class="edge"><title>t&#45;7&#45;&gt;9538</title>
<path fill="none" stroke="green" stroke-width="0.424016" stroke-dasharray="1,5" d="M126.648,-536.852C132.469,-528.208 141.574,-514.046 148,-501.026 197.505,-400.724 179.328,-359.032 246,-269.22 256.642,-254.884 271.058,-241.224 283.609,-230.593"/>
<polygon fill="green" stroke="green" stroke-width="0.424016" points="286.037,-233.127 291.529,-224.067 281.585,-227.725 286.037,-233.127"/>
</g>
<!-- 4420 -->
<g id="node12" class="node"><title>4420</title>
<ellipse fill="white" stroke="black" cx="278" cy="-120.146" rx="25" ry="25"/>
<text text-anchor="middle" x="278" y="-117.946" font-family="Times New Roman,serif" font-size="9.00">4420</text>
</g>
<!-- t&#45;7&#45;&gt;4420 -->
<g id="edge8" class="edge"><title>t&#45;7&#45;&gt;4420</title>
<path fill="none" stroke="red" stroke-width="0.814131" stroke-dasharray="1,5" d="M112.738,-536.726C91.7443,-514.709 38,-452.172 38,-388.952 38,-388.952 38,-388.952 38,-295.798 38,-195.278 177.344,-146.541 243.68,-129.035"/>
<polygon fill="red" stroke="red" stroke-width="0.814131" points="244.841,-132.352 253.667,-126.491 243.112,-125.568 244.841,-132.352"/>
</g>
<!-- 9707 -->
<g id="node13" class="node"><title>9707</title>
<ellipse fill="white" stroke="black" cx="295" cy="-476.278" rx="25" ry="25"/>
<text text-anchor="middle" x="295" y="-474.078" font-family="Times New Roman,serif" font-size="9.00">9707</text>
</g>
<!-- t&#45;7&#45;&gt;9707 -->
<g id="edge16" class="edge"><title>t&#45;7&#45;&gt;9707</title>
<path fill="none" stroke="red" stroke-width="0.159103" d="M134.653,-539.71C162.012,-529.058 224.204,-504.843 262.595,-489.895"/>
<polygon fill="red" stroke="red" stroke-width="0.159103" points="264.226,-493.016 272.275,-486.126 261.686,-486.493 264.226,-493.016"/>
</g>
<!-- 9587 -->
<g id="node16" class="node"><title>9587</title>
<ellipse fill="white" stroke="black" cx="244" cy="-208.472" rx="25" ry="25"/>
<text text-anchor="middle" x="244" y="-206.272" font-family="Times New Roman,serif" font-size="9.00">9587</text>
</g>
<!-- t&#45;7&#45;&gt;9587 -->
<g id="edge14" class="edge"><title>t&#45;7&#45;&gt;9587</title>
<path fill="none" stroke="green" stroke-width="0.282144" d="M122.41,-536.872C130.109,-492.461 166.98,-281.284 174,-269.22 183.717,-252.524 199.869,-238.271 214.211,-227.878"/>
<polygon fill="green" stroke="green" stroke-width="0.282144" points="216.597,-230.483 222.833,-221.918 212.617,-224.725 216.597,-230.483"/>
</g>
<!-- t&#45;6 -->
<g id="node2" class="node"><title>t&#45;6</title>
<polygon fill="lightgray" stroke="black" points="515.5,-396.952 488.5,-396.952 488.5,-378.952 515.5,-378.952 515.5,-396.952"/>
<text text-anchor="middle" x="502" y="-385.752" font-family="Times New Roman,serif" font-size="9.00">t&#45;6</text>
</g>
<!-- t&#45;6&#45;&gt;Target -->
<g id="edge2" class="edge"><title>t&#45;6&#45;&gt;Target</title>
<path fill="none" stroke="green" stroke-width="0.105115" d="M507.222,-378.72C521.032,-356.402 558.321,-292.435 571,-233.22 583.326,-175.655 574.211,-107.032 566.272,-65.8725"/>
<polygon fill="green" stroke="green" stroke-width="0.105115" points="569.694,-65.1378 564.292,-56.0234 562.831,-66.517 569.694,-65.1378"/>
</g>
<!-- 17186 -->
<g id="node11" class="node"><title>17186</title>
<ellipse fill="white" stroke="black" cx="502" cy="-120.146" rx="27.6545" ry="27.6545"/>
<text text-anchor="middle" x="502" y="-117.946" font-family="Times New Roman,serif" font-size="9.00">17186</text>
</g>
<!-- t&#45;6&#45;&gt;17186 -->
<g id="edge22" class="edge"><title>t&#45;6&#45;&gt;17186</title>
<path fill="none" stroke="green" stroke-width="0.182017" d="M502,-378.705C502,-345.654 502,-221.523 502,-158.441"/>
<polygon fill="green" stroke="green" stroke-width="0.182017" points="505.5,-158.136 502,-148.136 498.5,-158.136 505.5,-158.136"/>
</g>
<!-- 12593 -->
<g id="node15" class="node"><title>12593</title>
<ellipse fill="white" stroke="black" cx="283" cy="-296.798" rx="27.6545" ry="27.6545"/>
<text text-anchor="middle" x="283" y="-294.598" font-family="Times New Roman,serif" font-size="9.00">12593</text>
</g>
<!-- t&#45;6&#45;&gt;12593 -->
<g id="edge21" class="edge"><title>t&#45;6&#45;&gt;12593</title>
<path fill="none" stroke="green" stroke-width="0.134116" d="M488.301,-381.375C454.59,-367.651 366.787,-331.907 317.626,-311.894"/>
<polygon fill="green" stroke="green" stroke-width="0.134116" points="318.918,-308.641 308.336,-308.112 316.278,-315.124 318.918,-308.641"/>
</g>
<!-- t&#45;5 -->
<g id="node3" class="node"><title>t&#45;5</title>
<polygon fill="lightgray" stroke="black" points="430.5,-555.026 403.5,-555.026 403.5,-537.026 430.5,-537.026 430.5,-555.026"/>
<text text-anchor="middle" x="417" y="-543.826" font-family="Times New Roman,serif" font-size="9.00">t&#45;5</text>
</g>
<!-- t&#45;5&#45;&gt;Target -->
<g id="edge3" class="edge"><title>t&#45;5&#45;&gt;Target</title>
<path fill="none" stroke="red" stroke-width="0.430991" stroke-dasharray="1,5" d="M430.574,-542.275C478.081,-531.777 634,-489.653 634,-388.952 634,-388.952 634,-388.952 634,-207.472 634,-152.209 602.689,-94.4779 580.262,-60.2142"/>
<polygon fill="red" stroke="red" stroke-width="0.430991" points="582.968,-57.965 574.491,-51.6093 577.154,-61.864 582.968,-57.965"/>
</g>
<!-- t&#45;5&#45;&gt;4420 -->
<g id="edge10" class="edge"><title>t&#45;5&#45;&gt;4420</title>
<path fill="none" stroke="green" stroke-width="0.151169" stroke-dasharray="1,5" d="M417,-536.902C417,-513.773 417,-445.583 417,-388.952 417,-388.952 417,-388.952 417,-295.798 417,-225.938 348.072,-167.86 307.293,-139.613"/>
<polygon fill="green" stroke="green" stroke-width="0.151169" points="309.056,-136.58 298.81,-133.884 305.138,-142.381 309.056,-136.58"/>
</g>
<!-- t&#45;5&#45;&gt;9707 -->
<g id="edge18" class="edge"><title>t&#45;5&#45;&gt;9707</title>
<path fill="none" stroke="red" stroke-width="0.242894" d="M403.478,-537.517C384.691,-527.085 350.182,-507.921 325.119,-494.004"/>
<polygon fill="red" stroke="red" stroke-width="0.242894" points="326.801,-490.934 316.36,-489.139 323.403,-497.054 326.801,-490.934"/>
</g>
<!-- t&#45;4 -->
<g id="node4" class="node"><title>t&#45;4</title>
<polygon fill="lightgray" stroke="black" points="689.5,-129.146 662.5,-129.146 662.5,-111.146 689.5,-111.146 689.5,-129.146"/>
<text text-anchor="middle" x="676" y="-117.946" font-family="Times New Roman,serif" font-size="9.00">t&#45;4</text>
</g>
<!-- t&#45;4&#45;&gt;Target -->
<g id="edge4" class="edge"><title>t&#45;4&#45;&gt;Target</title>
<path fill="none" stroke="red" stroke-width="0.229807" d="M667.96,-110.908C662.514,-105.483 655.053,-98.3431 648,-92.5685 629.625,-77.5238 607.871,-62.1658 590.353,-50.3474"/>
<polygon fill="red" stroke="red" stroke-width="0.229807" points="591.878,-47.1568 581.619,-44.5101 587.988,-52.9767 591.878,-47.1568"/>
</g>
<!-- t&#45;3 -->
<g id="node5" class="node"><title>t&#45;3</title>
<polygon fill="lightgray" stroke="black" points="562.5,-217.472 535.5,-217.472 535.5,-199.472 562.5,-199.472 562.5,-217.472"/>
<text text-anchor="middle" x="549" y="-206.272" font-family="Times New Roman,serif" font-size="9.00">t&#45;3</text>
</g>
<!-- t&#45;3&#45;&gt;Target -->
<g id="edge5" class="edge"><title>t&#45;3&#45;&gt;Target</title>
<path fill="none" stroke="red" stroke-width="0.420305" stroke-dasharray="1,5" d="M549.41,-199.352C550.573,-176.332 553.946,-109.547 556.103,-66.8402"/>
<polygon fill="red" stroke="red" stroke-width="0.420305" points="559.601,-66.9694 556.61,-56.8056 552.61,-66.6162 559.601,-66.9694"/>
</g>
<!-- t&#45;3&#45;&gt;17186 -->
<g id="edge30" class="edge"><title>t&#45;3&#45;&gt;17186</title>
<path fill="none" stroke="green" stroke-width="0.205929" d="M544.493,-199.194C538.794,-188.726 528.642,-170.08 519.691,-153.639"/>
<polygon fill="green" stroke="green" stroke-width="0.205929" points="522.733,-151.906 514.877,-144.797 516.585,-155.253 522.733,-151.906"/>
</g>
<!-- t&#45;2 -->
<g id="node6" class="node"><title>t&#45;2</title>
<polygon fill="lightgray" stroke="black" points="734.5,-129.146 707.5,-129.146 707.5,-111.146 734.5,-111.146 734.5,-129.146"/>
<text text-anchor="middle" x="721" y="-117.946" font-family="Times New Roman,serif" font-size="9.00">t&#45;2</text>
</g>
<!-- t&#45;2&#45;&gt;Target -->
<g id="edge6" class="edge"><title>t&#45;2&#45;&gt;Target</title>
<path fill="none" stroke="red" stroke-width="0.204904" d="M715.33,-110.867C711.084,-105.147 704.847,-97.677 698,-92.5685 666.211,-68.8518 624.12,-51.3362 594.418,-40.8192"/>
<polygon fill="red" stroke="red" stroke-width="0.204904" points="595.448,-37.472 584.853,-37.522 593.166,-44.0899 595.448,-37.472"/>
</g>
<!-- t&#45;1 -->
<g id="node7" class="node"><title>t&#45;1</title>
<polygon fill="lightgray" stroke="black" points="350.5,-396.952 323.5,-396.952 323.5,-378.952 350.5,-378.952 350.5,-396.952"/>
<text text-anchor="middle" x="337" y="-385.752" font-family="Times New Roman,serif" font-size="9.00">t&#45;1</text>
</g>
<!-- t&#45;1&#45;&gt;Target -->
<g id="edge7" class="edge"><title>t&#45;1&#45;&gt;Target</title>
<path fill="none" stroke="green" stroke-width="0.32316" d="M338.767,-378.809C347.093,-341.991 385.372,-188.711 465,-92.5685 481.023,-73.222 504.424,-57.3401 523.742,-46.3255"/>
<polygon fill="green" stroke="green" stroke-width="0.32316" points="525.498,-49.3545 532.568,-41.4642 522.121,-43.2231 525.498,-49.3545"/>
</g>
<!-- t&#45;1&#45;&gt;9538 -->
<g id="edge13" class="edge"><title>t&#45;1&#45;&gt;9538</title>
<path fill="none" stroke="green" stroke-width="0.1011" stroke-dasharray="1,5" d="M335.822,-378.671C333.083,-359.443 326.058,-310.285 320,-269.22 318.748,-260.736 317.378,-251.576 316.093,-243.039"/>
<polygon fill="green" stroke="green" stroke-width="0.1011" points="319.534,-242.386 314.581,-233.02 312.613,-243.431 319.534,-242.386"/>
</g>
<!-- t&#45;1&#45;&gt;12593 -->
<g id="edge26" class="edge"><title>t&#45;1&#45;&gt;12593</title>
<path fill="none" stroke="green" stroke-width="0.295809" d="M332.017,-378.724C325.302,-367.638 312.966,-347.272 302.35,-329.744"/>
<polygon fill="green" stroke="green" stroke-width="0.295809" points="305.169,-327.642 296.994,-320.902 299.181,-331.269 305.169,-327.642"/>
</g>
<!-- 20353&#45;&gt;4420 -->
<g id="edge28" class="edge"><title>20353&#45;&gt;4420</title>
<path fill="none" stroke="red" stroke-width="0.662264" d="M113.564,-276.614C136.511,-254.178 175.772,-215.998 210,-183.723 223.92,-170.597 239.626,-156.122 252.435,-144.402"/>
<polygon fill="red" stroke="red" stroke-width="0.662264" points="254.971,-146.826 259.994,-137.497 250.25,-141.657 254.971,-146.826"/>
</g>
<!-- 9538&#45;&gt;4420 -->
<g id="edge12" class="edge"><title>9538&#45;&gt;4420</title>
<path fill="none" stroke="red" stroke-width="0.188216" d="M302.33,-184.79C298.654,-175.175 294.303,-163.794 290.305,-153.334"/>
<polygon fill="red" stroke="red" stroke-width="0.188216" points="293.453,-151.766 286.612,-143.675 286.914,-154.266 293.453,-151.766"/>
</g>
<!-- 17186&#45;&gt;Target -->
<g id="edge23" class="edge"><title>17186&#45;&gt;Target</title>
<path fill="none" stroke="red" stroke-width="0.1971" d="M516.421,-96.0042C523.032,-85.3956 530.976,-72.6488 538.141,-61.1518"/>
<polygon fill="red" stroke="red" stroke-width="0.1971" points="541.114,-62.9978 543.433,-52.6597 535.173,-59.2955 541.114,-62.9978"/>
</g>
<!-- 4420&#45;&gt;Target -->
<g id="edge9" class="edge"><title>4420&#45;&gt;Target</title>
<path fill="none" stroke="green" stroke-width="0.125561" d="M301.391,-111.639C350.22,-95.9677 463.292,-59.6791 521.669,-40.944"/>
<polygon fill="green" stroke="green" stroke-width="0.125561" points="522.777,-44.2645 531.229,-37.8761 520.638,-37.5994 522.777,-44.2645"/>
</g>
<!-- 9707&#45;&gt;9538 -->
<g id="edge17" class="edge"><title>9707&#45;&gt;9538</title>
<path fill="none" stroke="green" stroke-width="0.508835" d="M315.709,-462.722C330.851,-452.228 350.217,-435.744 359,-415.529 385.005,-355.676 351.798,-279.656 329.039,-238.735"/>
<polygon fill="green" stroke="green" stroke-width="0.508835" points="331.95,-236.775 323.944,-229.836 325.875,-240.253 331.95,-236.775"/>
</g>
<!-- 20302 -->
<g id="node14" class="node"><title>20302</title>
<ellipse fill="white" stroke="black" cx="239" cy="-387.952" rx="27.6545" ry="27.6545"/>
<text text-anchor="middle" x="239" y="-385.752" font-family="Times New Roman,serif" font-size="9.00">20302</text>
</g>
<!-- 9707&#45;&gt;20302 -->
<g id="edge24" class="edge"><title>9707&#45;&gt;20302</title>
<path fill="none" stroke="green" stroke-width="0.411249" d="M281.729,-454.82C274.976,-444.41 266.626,-431.537 259.103,-419.941"/>
<polygon fill="green" stroke="green" stroke-width="0.411249" points="261.931,-417.869 253.552,-411.385 256.058,-421.679 261.931,-417.869"/>
</g>
<!-- 9707&#45;&gt;12593 -->
<g id="edge19" class="edge"><title>9707&#45;&gt;12593</title>
<path fill="none" stroke="green" stroke-width="0.677897" stroke-dasharray="1,5" d="M293.382,-451.342C291.358,-421.416 287.873,-369.87 285.504,-334.835"/>
<polygon fill="green" stroke="green" stroke-width="0.677897" points="288.974,-334.276 284.808,-324.535 281.99,-334.748 288.974,-334.276"/>
</g>
<!-- 20302&#45;&gt;12593 -->
<g id="edge25" class="edge"><title>20302&#45;&gt;12593</title>
<path fill="none" stroke="green" stroke-width="0.133745" d="M251.023,-362.59C255.816,-352.88 261.409,-341.546 266.566,-331.097"/>
<polygon fill="green" stroke="green" stroke-width="0.133745" points="269.857,-332.338 271.144,-321.821 263.579,-329.24 269.857,-332.338"/>
</g>
<!-- 12593&#45;&gt;9538 -->
<g id="edge20" class="edge"><title>12593&#45;&gt;9538</title>
<path fill="none" stroke="red" stroke-width="0.237859" d="M291.249,-270.364C294.116,-261.525 297.373,-251.486 300.403,-242.144"/>
<polygon fill="red" stroke="red" stroke-width="0.237859" points="303.816,-242.964 303.572,-232.372 297.158,-240.804 303.816,-242.964"/>
</g>
<!-- 12593&#45;&gt;9587 -->
<g id="edge29" class="edge"><title>12593&#45;&gt;9587</title>
<path fill="none" stroke="green" stroke-width="0.348622" d="M271.928,-271.291C267.628,-261.772 262.65,-250.753 258.098,-240.678"/>
<polygon fill="green" stroke="green" stroke-width="0.348622" points="261.208,-239.06 253.901,-231.388 254.829,-241.942 261.208,-239.06"/>
</g>
<!-- 9587&#45;&gt;4420 -->
<g id="edge15" class="edge"><title>9587&#45;&gt;4420</title>
<path fill="none" stroke="green" stroke-width="0.154852" d="M252.756,-185.241C256.612,-175.449 261.216,-163.761 265.429,-153.064"/>
<polygon fill="green" stroke="green" stroke-width="0.154852" points="268.748,-154.188 269.156,-143.601 262.234,-151.623 268.748,-154.188"/>
</g>
</g>
</svg>
