<?xml version="1.0" encoding="utf-8" standalone="no"?>
<!DOCTYPE svg PUBLIC "-//W3C//DTD SVG 1.1//EN"
  "http://www.w3.org/Graphics/SVG/1.1/DTD/svg11.dtd">
<!-- Created with matplotlib (https://matplotlib.org/) -->
<svg height="345.6pt" version="1.1" viewBox="0 0 460.8 345.6" width="460.8pt" xmlns="http://www.w3.org/2000/svg" xmlns:xlink="http://www.w3.org/1999/xlink">
 <defs>
  <style type="text/css">
*{stroke-linecap:butt;stroke-linejoin:round;}
  </style>
 </defs>
 <g id="figure_1">
  <g id="patch_1">
   <path d="M 0 345.6 
L 460.8 345.6 
L 460.8 0 
L 0 0 
z
" style="fill:#ffffff;"/>
  </g>
  <g id="axes_1">
   <g id="patch_2">
    <path d="M 57.6 307.584 
L 414.72 307.584 
L 414.72 41.472 
L 57.6 41.472 
z
" style="fill:#ffffff;"/>
   </g>
   <g id="matplotlib.axis_1">
    <g id="xtick_1">
     <g id="line2d_1">
      <path clip-path="url(#pd8c38daa36)" d="M 73.832727 307.584 
L 73.832727 41.472 
" style="fill:none;stroke:#b0b0b0;stroke-linecap:square;stroke-width:0.8;"/>
     </g>
     <g id="line2d_2">
      <defs>
       <path d="M 0 0 
L 0 3.5 
" id="me236af107f" style="stroke:#000000;stroke-width:0.8;"/>
      </defs>
      <g>
       <use style="stroke:#000000;stroke-width:0.8;" x="73.832727" xlink:href="#me236af107f" y="307.584"/>
      </g>
     </g>
     <g id="text_1">
      <!-- 0 -->
      <defs>
       <path d="M 31.78125 66.40625 
Q 24.171875 66.40625 20.328125 58.90625 
Q 16.5 51.421875 16.5 36.375 
Q 16.5 21.390625 20.328125 13.890625 
Q 24.171875 6.390625 31.78125 6.390625 
Q 39.453125 6.390625 43.28125 13.890625 
Q 47.125 21.390625 47.125 36.375 
Q 47.125 51.421875 43.28125 58.90625 
Q 39.453125 66.40625 31.78125 66.40625 
z
M 31.78125 74.21875 
Q 44.046875 74.21875 50.515625 64.515625 
Q 56.984375 54.828125 56.984375 36.375 
Q 56.984375 17.96875 50.515625 8.265625 
Q 44.046875 -1.421875 31.78125 -1.421875 
Q 19.53125 -1.421875 13.0625 8.265625 
Q 6.59375 17.96875 6.59375 36.375 
Q 6.59375 54.828125 13.0625 64.515625 
Q 19.53125 74.21875 31.78125 74.21875 
z
" id="DejaVuSans-48"/>
      </defs>
      <g transform="translate(70.651477 322.182437)scale(0.1 -0.1)">
       <use xlink:href="#DejaVuSans-48"/>
      </g>
     </g>
    </g>
    <g id="xtick_2">
     <g id="line2d_3">
      <path clip-path="url(#pd8c38daa36)" d="M 138.893758 307.584 
L 138.893758 41.472 
" style="fill:none;stroke:#b0b0b0;stroke-linecap:square;stroke-width:0.8;"/>
     </g>
     <g id="line2d_4">
      <g>
       <use style="stroke:#000000;stroke-width:0.8;" x="138.893758" xlink:href="#me236af107f" y="307.584"/>
      </g>
     </g>
     <g id="text_2">
      <!-- 100 -->
      <defs>
       <path d="M 12.40625 8.296875 
L 28.515625 8.296875 
L 28.515625 63.921875 
L 10.984375 60.40625 
L 10.984375 69.390625 
L 28.421875 72.90625 
L 38.28125 72.90625 
L 38.28125 8.296875 
L 54.390625 8.296875 
L 54.390625 0 
L 12.40625 0 
z
" id="DejaVuSans-49"/>
      </defs>
      <g transform="translate(129.350008 322.182437)scale(0.1 -0.1)">
       <use xlink:href="#DejaVuSans-49"/>
       <use x="63.623047" xlink:href="#DejaVuSans-48"/>
       <use x="127.246094" xlink:href="#DejaVuSans-48"/>
      </g>
     </g>
    </g>
    <g id="xtick_3">
     <g id="line2d_5">
      <path clip-path="url(#pd8c38daa36)" d="M 203.95479 307.584 
L 203.95479 41.472 
" style="fill:none;stroke:#b0b0b0;stroke-linecap:square;stroke-width:0.8;"/>
     </g>
     <g id="line2d_6">
      <g>
       <use style="stroke:#000000;stroke-width:0.8;" x="203.95479" xlink:href="#me236af107f" y="307.584"/>
      </g>
     </g>
     <g id="text_3">
      <!-- 200 -->
      <defs>
       <path d="M 19.1875 8.296875 
L 53.609375 8.296875 
L 53.609375 0 
L 7.328125 0 
L 7.328125 8.296875 
Q 12.9375 14.109375 22.625 23.890625 
Q 32.328125 33.6875 34.8125 36.53125 
Q 39.546875 41.84375 41.421875 45.53125 
Q 43.3125 49.21875 43.3125 52.78125 
Q 43.3125 58.59375 39.234375 62.25 
Q 35.15625 65.921875 28.609375 65.921875 
Q 23.96875 65.921875 18.8125 64.3125 
Q 13.671875 62.703125 7.8125 59.421875 
L 7.8125 69.390625 
Q 13.765625 71.78125 18.9375 73 
Q 24.125 74.21875 28.421875 74.21875 
Q 39.75 74.21875 46.484375 68.546875 
Q 53.21875 62.890625 53.21875 53.421875 
Q 53.21875 48.921875 51.53125 44.890625 
Q 49.859375 40.875 45.40625 35.40625 
Q 44.1875 33.984375 37.640625 27.21875 
Q 31.109375 20.453125 19.1875 8.296875 
z
" id="DejaVuSans-50"/>
      </defs>
      <g transform="translate(194.41104 322.182437)scale(0.1 -0.1)">
       <use xlink:href="#DejaVuSans-50"/>
       <use x="63.623047" xlink:href="#DejaVuSans-48"/>
       <use x="127.246094" xlink:href="#DejaVuSans-48"/>
      </g>
     </g>
    </g>
    <g id="xtick_4">
     <g id="line2d_7">
      <path clip-path="url(#pd8c38daa36)" d="M 269.015821 307.584 
L 269.015821 41.472 
" style="fill:none;stroke:#b0b0b0;stroke-linecap:square;stroke-width:0.8;"/>
     </g>
     <g id="line2d_8">
      <g>
       <use style="stroke:#000000;stroke-width:0.8;" x="269.015821" xlink:href="#me236af107f" y="307.584"/>
      </g>
     </g>
     <g id="text_4">
      <!-- 300 -->
      <defs>
       <path d="M 40.578125 39.3125 
Q 47.65625 37.796875 51.625 33 
Q 55.609375 28.21875 55.609375 21.1875 
Q 55.609375 10.40625 48.1875 4.484375 
Q 40.765625 -1.421875 27.09375 -1.421875 
Q 22.515625 -1.421875 17.65625 -0.515625 
Q 12.796875 0.390625 7.625 2.203125 
L 7.625 11.71875 
Q 11.71875 9.328125 16.59375 8.109375 
Q 21.484375 6.890625 26.8125 6.890625 
Q 36.078125 6.890625 40.9375 10.546875 
Q 45.796875 14.203125 45.796875 21.1875 
Q 45.796875 27.640625 41.28125 31.265625 
Q 36.765625 34.90625 28.71875 34.90625 
L 20.21875 34.90625 
L 20.21875 43.015625 
L 29.109375 43.015625 
Q 36.375 43.015625 40.234375 45.921875 
Q 44.09375 48.828125 44.09375 54.296875 
Q 44.09375 59.90625 40.109375 62.90625 
Q 36.140625 65.921875 28.71875 65.921875 
Q 24.65625 65.921875 20.015625 65.03125 
Q 15.375 64.15625 9.8125 62.3125 
L 9.8125 71.09375 
Q 15.4375 72.65625 20.34375 73.4375 
Q 25.25 74.21875 29.59375 74.21875 
Q 40.828125 74.21875 47.359375 69.109375 
Q 53.90625 64.015625 53.90625 55.328125 
Q 53.90625 49.265625 50.4375 45.09375 
Q 46.96875 40.921875 40.578125 39.3125 
z
" id="DejaVuSans-51"/>
      </defs>
      <g transform="translate(259.472071 322.182437)scale(0.1 -0.1)">
       <use xlink:href="#DejaVuSans-51"/>
       <use x="63.623047" xlink:href="#DejaVuSans-48"/>
       <use x="127.246094" xlink:href="#DejaVuSans-48"/>
      </g>
     </g>
    </g>
    <g id="xtick_5">
     <g id="line2d_9">
      <path clip-path="url(#pd8c38daa36)" d="M 334.076852 307.584 
L 334.076852 41.472 
" style="fill:none;stroke:#b0b0b0;stroke-linecap:square;stroke-width:0.8;"/>
     </g>
     <g id="line2d_10">
      <g>
       <use style="stroke:#000000;stroke-width:0.8;" x="334.076852" xlink:href="#me236af107f" y="307.584"/>
      </g>
     </g>
     <g id="text_5">
      <!-- 400 -->
      <defs>
       <path d="M 37.796875 64.3125 
L 12.890625 25.390625 
L 37.796875 25.390625 
z
M 35.203125 72.90625 
L 47.609375 72.90625 
L 47.609375 25.390625 
L 58.015625 25.390625 
L 58.015625 17.1875 
L 47.609375 17.1875 
L 47.609375 0 
L 37.796875 0 
L 37.796875 17.1875 
L 4.890625 17.1875 
L 4.890625 26.703125 
z
" id="DejaVuSans-52"/>
      </defs>
      <g transform="translate(324.533102 322.182437)scale(0.1 -0.1)">
       <use xlink:href="#DejaVuSans-52"/>
       <use x="63.623047" xlink:href="#DejaVuSans-48"/>
       <use x="127.246094" xlink:href="#DejaVuSans-48"/>
      </g>
     </g>
    </g>
    <g id="xtick_6">
     <g id="line2d_11">
      <path clip-path="url(#pd8c38daa36)" d="M 399.137883 307.584 
L 399.137883 41.472 
" style="fill:none;stroke:#b0b0b0;stroke-linecap:square;stroke-width:0.8;"/>
     </g>
     <g id="line2d_12">
      <g>
       <use style="stroke:#000000;stroke-width:0.8;" x="399.137883" xlink:href="#me236af107f" y="307.584"/>
      </g>
     </g>
     <g id="text_6">
      <!-- 500 -->
      <defs>
       <path d="M 10.796875 72.90625 
L 49.515625 72.90625 
L 49.515625 64.59375 
L 19.828125 64.59375 
L 19.828125 46.734375 
Q 21.96875 47.46875 24.109375 47.828125 
Q 26.265625 48.1875 28.421875 48.1875 
Q 40.625 48.1875 47.75 41.5 
Q 54.890625 34.8125 54.890625 23.390625 
Q 54.890625 11.625 47.5625 5.09375 
Q 40.234375 -1.421875 26.90625 -1.421875 
Q 22.3125 -1.421875 17.546875 -0.640625 
Q 12.796875 0.140625 7.71875 1.703125 
L 7.71875 11.625 
Q 12.109375 9.234375 16.796875 8.0625 
Q 21.484375 6.890625 26.703125 6.890625 
Q 35.15625 6.890625 40.078125 11.328125 
Q 45.015625 15.765625 45.015625 23.390625 
Q 45.015625 31 40.078125 35.4375 
Q 35.15625 39.890625 26.703125 39.890625 
Q 22.75 39.890625 18.8125 39.015625 
Q 14.890625 38.140625 10.796875 36.28125 
z
" id="DejaVuSans-53"/>
      </defs>
      <g transform="translate(389.594133 322.182437)scale(0.1 -0.1)">
       <use xlink:href="#DejaVuSans-53"/>
       <use x="63.623047" xlink:href="#DejaVuSans-48"/>
       <use x="127.246094" xlink:href="#DejaVuSans-48"/>
      </g>
     </g>
    </g>
    <g id="text_7">
     <!-- Generations -->
     <defs>
      <path d="M 59.515625 10.40625 
L 59.515625 29.984375 
L 43.40625 29.984375 
L 43.40625 38.09375 
L 69.28125 38.09375 
L 69.28125 6.78125 
Q 63.578125 2.734375 56.6875 0.65625 
Q 49.8125 -1.421875 42 -1.421875 
Q 24.90625 -1.421875 15.25 8.5625 
Q 5.609375 18.5625 5.609375 36.375 
Q 5.609375 54.25 15.25 64.234375 
Q 24.90625 74.21875 42 74.21875 
Q 49.125 74.21875 55.546875 72.453125 
Q 61.96875 70.703125 67.390625 67.28125 
L 67.390625 56.78125 
Q 61.921875 61.421875 55.765625 63.765625 
Q 49.609375 66.109375 42.828125 66.109375 
Q 29.4375 66.109375 22.71875 58.640625 
Q 16.015625 51.171875 16.015625 36.375 
Q 16.015625 21.625 22.71875 14.15625 
Q 29.4375 6.6875 42.828125 6.6875 
Q 48.046875 6.6875 52.140625 7.59375 
Q 56.25 8.5 59.515625 10.40625 
z
" id="DejaVuSans-71"/>
      <path d="M 56.203125 29.59375 
L 56.203125 25.203125 
L 14.890625 25.203125 
Q 15.484375 15.921875 20.484375 11.0625 
Q 25.484375 6.203125 34.421875 6.203125 
Q 39.59375 6.203125 44.453125 7.46875 
Q 49.3125 8.734375 54.109375 11.28125 
L 54.109375 2.78125 
Q 49.265625 0.734375 44.1875 -0.34375 
Q 39.109375 -1.421875 33.890625 -1.421875 
Q 20.796875 -1.421875 13.15625 6.1875 
Q 5.515625 13.8125 5.515625 26.8125 
Q 5.515625 40.234375 12.765625 48.109375 
Q 20.015625 56 32.328125 56 
Q 43.359375 56 49.78125 48.890625 
Q 56.203125 41.796875 56.203125 29.59375 
z
M 47.21875 32.234375 
Q 47.125 39.59375 43.09375 43.984375 
Q 39.0625 48.390625 32.421875 48.390625 
Q 24.90625 48.390625 20.390625 44.140625 
Q 15.875 39.890625 15.1875 32.171875 
z
" id="DejaVuSans-101"/>
      <path d="M 54.890625 33.015625 
L 54.890625 0 
L 45.90625 0 
L 45.90625 32.71875 
Q 45.90625 40.484375 42.875 44.328125 
Q 39.84375 48.1875 33.796875 48.1875 
Q 26.515625 48.1875 22.3125 43.546875 
Q 18.109375 38.921875 18.109375 30.90625 
L 18.109375 0 
L 9.078125 0 
L 9.078125 54.6875 
L 18.109375 54.6875 
L 18.109375 46.1875 
Q 21.34375 51.125 25.703125 53.5625 
Q 30.078125 56 35.796875 56 
Q 45.21875 56 50.046875 50.171875 
Q 54.890625 44.34375 54.890625 33.015625 
z
" id="DejaVuSans-110"/>
      <path d="M 41.109375 46.296875 
Q 39.59375 47.171875 37.8125 47.578125 
Q 36.03125 48 33.890625 48 
Q 26.265625 48 22.1875 43.046875 
Q 18.109375 38.09375 18.109375 28.8125 
L 18.109375 0 
L 9.078125 0 
L 9.078125 54.6875 
L 18.109375 54.6875 
L 18.109375 46.1875 
Q 20.953125 51.171875 25.484375 53.578125 
Q 30.03125 56 36.53125 56 
Q 37.453125 56 38.578125 55.875 
Q 39.703125 55.765625 41.0625 55.515625 
z
" id="DejaVuSans-114"/>
      <path d="M 34.28125 27.484375 
Q 23.390625 27.484375 19.1875 25 
Q 14.984375 22.515625 14.984375 16.5 
Q 14.984375 11.71875 18.140625 8.90625 
Q 21.296875 6.109375 26.703125 6.109375 
Q 34.1875 6.109375 38.703125 11.40625 
Q 43.21875 16.703125 43.21875 25.484375 
L 43.21875 27.484375 
z
M 52.203125 31.203125 
L 52.203125 0 
L 43.21875 0 
L 43.21875 8.296875 
Q 40.140625 3.328125 35.546875 0.953125 
Q 30.953125 -1.421875 24.3125 -1.421875 
Q 15.921875 -1.421875 10.953125 3.296875 
Q 6 8.015625 6 15.921875 
Q 6 25.140625 12.171875 29.828125 
Q 18.359375 34.515625 30.609375 34.515625 
L 43.21875 34.515625 
L 43.21875 35.40625 
Q 43.21875 41.609375 39.140625 45 
Q 35.0625 48.390625 27.6875 48.390625 
Q 23 48.390625 18.546875 47.265625 
Q 14.109375 46.140625 10.015625 43.890625 
L 10.015625 52.203125 
Q 14.9375 54.109375 19.578125 55.046875 
Q 24.21875 56 28.609375 56 
Q 40.484375 56 46.34375 49.84375 
Q 52.203125 43.703125 52.203125 31.203125 
z
" id="DejaVuSans-97"/>
      <path d="M 18.3125 70.21875 
L 18.3125 54.6875 
L 36.8125 54.6875 
L 36.8125 47.703125 
L 18.3125 47.703125 
L 18.3125 18.015625 
Q 18.3125 11.328125 20.140625 9.421875 
Q 21.96875 7.515625 27.59375 7.515625 
L 36.8125 7.515625 
L 36.8125 0 
L 27.59375 0 
Q 17.1875 0 13.234375 3.875 
Q 9.28125 7.765625 9.28125 18.015625 
L 9.28125 47.703125 
L 2.6875 47.703125 
L 2.6875 54.6875 
L 9.28125 54.6875 
L 9.28125 70.21875 
z
" id="DejaVuSans-116"/>
      <path d="M 9.421875 54.6875 
L 18.40625 54.6875 
L 18.40625 0 
L 9.421875 0 
z
M 9.421875 75.984375 
L 18.40625 75.984375 
L 18.40625 64.59375 
L 9.421875 64.59375 
z
" id="DejaVuSans-105"/>
      <path d="M 30.609375 48.390625 
Q 23.390625 48.390625 19.1875 42.75 
Q 14.984375 37.109375 14.984375 27.296875 
Q 14.984375 17.484375 19.15625 11.84375 
Q 23.34375 6.203125 30.609375 6.203125 
Q 37.796875 6.203125 41.984375 11.859375 
Q 46.1875 17.53125 46.1875 27.296875 
Q 46.1875 37.015625 41.984375 42.703125 
Q 37.796875 48.390625 30.609375 48.390625 
z
M 30.609375 56 
Q 42.328125 56 49.015625 48.375 
Q 55.71875 40.765625 55.71875 27.296875 
Q 55.71875 13.875 49.015625 6.21875 
Q 42.328125 -1.421875 30.609375 -1.421875 
Q 18.84375 -1.421875 12.171875 6.21875 
Q 5.515625 13.875 5.515625 27.296875 
Q 5.515625 40.765625 12.171875 48.375 
Q 18.84375 56 30.609375 56 
z
" id="DejaVuSans-111"/>
      <path d="M 44.28125 53.078125 
L 44.28125 44.578125 
Q 40.484375 46.53125 36.375 47.5 
Q 32.28125 48.484375 27.875 48.484375 
Q 21.1875 48.484375 17.84375 46.4375 
Q 14.5 44.390625 14.5 40.28125 
Q 14.5 37.15625 16.890625 35.375 
Q 19.28125 33.59375 26.515625 31.984375 
L 29.59375 31.296875 
Q 39.15625 29.25 43.1875 25.515625 
Q 47.21875 21.78125 47.21875 15.09375 
Q 47.21875 7.46875 41.1875 3.015625 
Q 35.15625 -1.421875 24.609375 -1.421875 
Q 20.21875 -1.421875 15.453125 -0.5625 
Q 10.6875 0.296875 5.421875 2 
L 5.421875 11.28125 
Q 10.40625 8.6875 15.234375 7.390625 
Q 20.0625 6.109375 24.8125 6.109375 
Q 31.15625 6.109375 34.5625 8.28125 
Q 37.984375 10.453125 37.984375 14.40625 
Q 37.984375 18.0625 35.515625 20.015625 
Q 33.0625 21.96875 24.703125 23.78125 
L 21.578125 24.515625 
Q 13.234375 26.265625 9.515625 29.90625 
Q 5.8125 33.546875 5.8125 39.890625 
Q 5.8125 47.609375 11.28125 51.796875 
Q 16.75 56 26.8125 56 
Q 31.78125 56 36.171875 55.265625 
Q 40.578125 54.546875 44.28125 53.078125 
z
" id="DejaVuSans-115"/>
     </defs>
     <g transform="translate(205.662344 335.860562)scale(0.1 -0.1)">
      <use xlink:href="#DejaVuSans-71"/>
      <use x="77.490234" xlink:href="#DejaVuSans-101"/>
      <use x="139.013672" xlink:href="#DejaVuSans-110"/>
      <use x="202.392578" xlink:href="#DejaVuSans-101"/>
      <use x="263.916016" xlink:href="#DejaVuSans-114"/>
      <use x="305.029297" xlink:href="#DejaVuSans-97"/>
      <use x="366.308594" xlink:href="#DejaVuSans-116"/>
      <use x="405.517578" xlink:href="#DejaVuSans-105"/>
      <use x="433.300781" xlink:href="#DejaVuSans-111"/>
      <use x="494.482422" xlink:href="#DejaVuSans-110"/>
      <use x="557.861328" xlink:href="#DejaVuSans-115"/>
     </g>
    </g>
   </g>
   <g id="matplotlib.axis_2">
    <g id="ytick_1">
     <g id="line2d_13">
      <path clip-path="url(#pd8c38daa36)" d="M 57.6 285.100935 
L 414.72 285.100935 
" style="fill:none;stroke:#b0b0b0;stroke-linecap:square;stroke-width:0.8;"/>
     </g>
     <g id="line2d_14">
      <defs>
       <path d="M 0 0 
L -3.5 0 
" id="m45472d4e13" style="stroke:#000000;stroke-width:0.8;"/>
      </defs>
      <g>
       <use style="stroke:#000000;stroke-width:0.8;" x="57.6" xlink:href="#m45472d4e13" y="285.100935"/>
      </g>
     </g>
     <g id="text_8">
      <!-- −40 -->
      <defs>
       <path d="M 10.59375 35.5 
L 73.1875 35.5 
L 73.1875 27.203125 
L 10.59375 27.203125 
z
" id="DejaVuSans-8722"/>
      </defs>
      <g transform="translate(29.495313 288.900153)scale(0.1 -0.1)">
       <use xlink:href="#DejaVuSans-8722"/>
       <use x="83.789062" xlink:href="#DejaVuSans-52"/>
       <use x="147.412109" xlink:href="#DejaVuSans-48"/>
      </g>
     </g>
    </g>
    <g id="ytick_2">
     <g id="line2d_15">
      <path clip-path="url(#pd8c38daa36)" d="M 57.6 255.325956 
L 414.72 255.325956 
" style="fill:none;stroke:#b0b0b0;stroke-linecap:square;stroke-width:0.8;"/>
     </g>
     <g id="line2d_16">
      <g>
       <use style="stroke:#000000;stroke-width:0.8;" x="57.6" xlink:href="#m45472d4e13" y="255.325956"/>
      </g>
     </g>
     <g id="text_9">
      <!-- −30 -->
      <g transform="translate(29.495313 259.125175)scale(0.1 -0.1)">
       <use xlink:href="#DejaVuSans-8722"/>
       <use x="83.789062" xlink:href="#DejaVuSans-51"/>
       <use x="147.412109" xlink:href="#DejaVuSans-48"/>
      </g>
     </g>
    </g>
    <g id="ytick_3">
     <g id="line2d_17">
      <path clip-path="url(#pd8c38daa36)" d="M 57.6 225.550978 
L 414.72 225.550978 
" style="fill:none;stroke:#b0b0b0;stroke-linecap:square;stroke-width:0.8;"/>
     </g>
     <g id="line2d_18">
      <g>
       <use style="stroke:#000000;stroke-width:0.8;" x="57.6" xlink:href="#m45472d4e13" y="225.550978"/>
      </g>
     </g>
     <g id="text_10">
      <!-- −20 -->
      <g transform="translate(29.495313 229.350197)scale(0.1 -0.1)">
       <use xlink:href="#DejaVuSans-8722"/>
       <use x="83.789062" xlink:href="#DejaVuSans-50"/>
       <use x="147.412109" xlink:href="#DejaVuSans-48"/>
      </g>
     </g>
    </g>
    <g id="ytick_4">
     <g id="line2d_19">
      <path clip-path="url(#pd8c38daa36)" d="M 57.6 195.776 
L 414.72 195.776 
" style="fill:none;stroke:#b0b0b0;stroke-linecap:square;stroke-width:0.8;"/>
     </g>
     <g id="line2d_20">
      <g>
       <use style="stroke:#000000;stroke-width:0.8;" x="57.6" xlink:href="#m45472d4e13" y="195.776"/>
      </g>
     </g>
     <g id="text_11">
      <!-- −10 -->
      <g transform="translate(29.495313 199.575218)scale(0.1 -0.1)">
       <use xlink:href="#DejaVuSans-8722"/>
       <use x="83.789062" xlink:href="#DejaVuSans-49"/>
       <use x="147.412109" xlink:href="#DejaVuSans-48"/>
      </g>
     </g>
    </g>
    <g id="ytick_5">
     <g id="line2d_21">
      <path clip-path="url(#pd8c38daa36)" d="M 57.6 166.001021 
L 414.72 166.001021 
" style="fill:none;stroke:#b0b0b0;stroke-linecap:square;stroke-width:0.8;"/>
     </g>
     <g id="line2d_22">
      <g>
       <use style="stroke:#000000;stroke-width:0.8;" x="57.6" xlink:href="#m45472d4e13" y="166.001021"/>
      </g>
     </g>
     <g id="text_12">
      <!-- 0 -->
      <g transform="translate(44.2375 169.80024)scale(0.1 -0.1)">
       <use xlink:href="#DejaVuSans-48"/>
      </g>
     </g>
    </g>
    <g id="ytick_6">
     <g id="line2d_23">
      <path clip-path="url(#pd8c38daa36)" d="M 57.6 136.226043 
L 414.72 136.226043 
" style="fill:none;stroke:#b0b0b0;stroke-linecap:square;stroke-width:0.8;"/>
     </g>
     <g id="line2d_24">
      <g>
       <use style="stroke:#000000;stroke-width:0.8;" x="57.6" xlink:href="#m45472d4e13" y="136.226043"/>
      </g>
     </g>
     <g id="text_13">
      <!-- 10 -->
      <g transform="translate(37.875 140.025262)scale(0.1 -0.1)">
       <use xlink:href="#DejaVuSans-49"/>
       <use x="63.623047" xlink:href="#DejaVuSans-48"/>
      </g>
     </g>
    </g>
    <g id="ytick_7">
     <g id="line2d_25">
      <path clip-path="url(#pd8c38daa36)" d="M 57.6 106.451065 
L 414.72 106.451065 
" style="fill:none;stroke:#b0b0b0;stroke-linecap:square;stroke-width:0.8;"/>
     </g>
     <g id="line2d_26">
      <g>
       <use style="stroke:#000000;stroke-width:0.8;" x="57.6" xlink:href="#m45472d4e13" y="106.451065"/>
      </g>
     </g>
     <g id="text_14">
      <!-- 20 -->
      <g transform="translate(37.875 110.250283)scale(0.1 -0.1)">
       <use xlink:href="#DejaVuSans-50"/>
       <use x="63.623047" xlink:href="#DejaVuSans-48"/>
      </g>
     </g>
    </g>
    <g id="ytick_8">
     <g id="line2d_27">
      <path clip-path="url(#pd8c38daa36)" d="M 57.6 76.676086 
L 414.72 76.676086 
" style="fill:none;stroke:#b0b0b0;stroke-linecap:square;stroke-width:0.8;"/>
     </g>
     <g id="line2d_28">
      <g>
       <use style="stroke:#000000;stroke-width:0.8;" x="57.6" xlink:href="#m45472d4e13" y="76.676086"/>
      </g>
     </g>
     <g id="text_15">
      <!-- 30 -->
      <g transform="translate(37.875 80.475305)scale(0.1 -0.1)">
       <use xlink:href="#DejaVuSans-51"/>
       <use x="63.623047" xlink:href="#DejaVuSans-48"/>
      </g>
     </g>
    </g>
    <g id="ytick_9">
     <g id="line2d_29">
      <path clip-path="url(#pd8c38daa36)" d="M 57.6 46.901108 
L 414.72 46.901108 
" style="fill:none;stroke:#b0b0b0;stroke-linecap:square;stroke-width:0.8;"/>
     </g>
     <g id="line2d_30">
      <g>
       <use style="stroke:#000000;stroke-width:0.8;" x="57.6" xlink:href="#m45472d4e13" y="46.901108"/>
      </g>
     </g>
     <g id="text_16">
      <!-- 40 -->
      <g transform="translate(37.875 50.700327)scale(0.1 -0.1)">
       <use xlink:href="#DejaVuSans-52"/>
       <use x="63.623047" xlink:href="#DejaVuSans-48"/>
      </g>
     </g>
    </g>
    <g id="text_17">
     <!-- Fitness -->
     <defs>
      <path d="M 9.8125 72.90625 
L 51.703125 72.90625 
L 51.703125 64.59375 
L 19.671875 64.59375 
L 19.671875 43.109375 
L 48.578125 43.109375 
L 48.578125 34.8125 
L 19.671875 34.8125 
L 19.671875 0 
L 9.8125 0 
z
" id="DejaVuSans-70"/>
     </defs>
     <g transform="translate(23.415625 192.202219)rotate(-90)scale(0.1 -0.1)">
      <use xlink:href="#DejaVuSans-70"/>
      <use x="57.410156" xlink:href="#DejaVuSans-105"/>
      <use x="85.193359" xlink:href="#DejaVuSans-116"/>
      <use x="124.402344" xlink:href="#DejaVuSans-110"/>
      <use x="187.78125" xlink:href="#DejaVuSans-101"/>
      <use x="249.304688" xlink:href="#DejaVuSans-115"/>
      <use x="301.404297" xlink:href="#DejaVuSans-115"/>
     </g>
    </g>
   </g>
   <g id="line2d_31">
    <path clip-path="url(#pd8c38daa36)" d="M 73.832727 166.890779 
L 74.483338 166.539195 
L 77.085779 166.716478 
L 78.386999 166.604674 
L 79.03761 166.794799 
L 79.68822 166.833973 
L 80.33883 166.63605 
L 80.989441 167.706371 
L 81.640051 166.722494 
L 82.941272 166.66165 
L 83.591882 166.82012 
L 84.242492 167.298359 
L 84.893103 166.753103 
L 85.543713 166.92074 
L 86.194323 166.699538 
L 86.844934 166.824775 
L 87.495544 166.721564 
L 88.146154 166.963562 
L 88.796764 166.768873 
L 89.447375 167.120768 
L 90.097985 166.861964 
L 90.748595 166.973567 
L 91.399206 167.483379 
L 92.049816 167.120764 
L 93.351037 166.832867 
L 94.001647 167.439682 
L 94.652257 167.196221 
L 95.302868 167.303651 
L 95.953478 166.918262 
L 96.604088 166.842414 
L 97.254698 167.044555 
L 97.905309 167.647203 
L 98.555919 166.903071 
L 99.85714 166.854486 
L 100.50775 167.060427 
L 101.808971 167.08715 
L 102.459581 166.75806 
L 103.110191 166.972753 
L 103.760802 166.647955 
L 104.411412 166.878033 
L 105.712633 166.846145 
L 106.363243 166.825422 
L 107.013853 167.543012 
L 107.664463 166.740462 
L 108.965684 166.914988 
L 109.616294 167.864174 
L 110.266905 166.907937 
L 110.917515 167.422252 
L 111.568125 166.918601 
L 112.218736 166.780583 
L 112.869346 170.516024 
L 113.519956 167.765807 
L 114.170567 174.528 
L 114.821177 167.049396 
L 115.471787 167.294416 
L 116.122398 166.933444 
L 116.773008 168.212783 
L 117.423618 167.055798 
L 118.074228 167.360283 
L 118.724839 167.147208 
L 119.375449 167.094602 
L 120.026059 166.820271 
L 120.67667 166.774554 
L 121.32728 167.431767 
L 121.97789 167.401931 
L 123.279111 166.966333 
L 123.929721 167.388227 
L 124.580332 166.721822 
L 125.230942 166.797047 
L 125.881552 167.053201 
L 126.532163 167.065585 
L 127.182773 166.799222 
L 127.833383 166.751451 
L 128.483993 166.966707 
L 129.134604 166.738251 
L 130.435824 167.079629 
L 131.737045 166.923064 
L 132.387655 167.805915 
L 133.038266 166.79667 
L 133.688876 166.775089 
L 134.339486 166.910123 
L 134.990097 166.821326 
L 135.640707 166.975257 
L 136.941927 166.805229 
L 137.592538 167.123464 
L 138.243148 166.836094 
L 138.893758 166.674469 
L 139.544369 166.911876 
L 140.194979 166.774085 
L 140.845589 167.050361 
L 141.4962 166.88045 
L 142.14681 167.063667 
L 142.79742 166.757816 
L 144.749251 166.729429 
L 145.399862 167.712484 
L 146.701082 166.634305 
L 147.351692 166.79446 
L 148.002303 166.83765 
L 148.652913 167.011073 
L 149.303523 166.761365 
L 150.604744 166.669655 
L 151.255354 167.298093 
L 151.905965 166.720091 
L 153.207185 166.880403 
L 153.857796 166.785154 
L 154.508406 166.958863 
L 155.159016 168.683669 
L 155.809627 166.779178 
L 156.460237 166.772446 
L 157.110847 166.897744 
L 159.713288 167.002991 
L 160.363899 166.678194 
L 161.665119 166.904169 
L 162.31573 167.706615 
L 162.96634 166.899728 
L 163.61695 166.875042 
L 164.267561 167.449256 
L 164.918171 166.862624 
L 166.870002 166.801502 
L 167.520612 166.663691 
L 168.171222 166.854131 
L 168.821833 167.349845 
L 169.472443 167.145685 
L 170.123053 166.813094 
L 170.773664 166.703762 
L 171.424274 167.449294 
L 172.074884 166.887639 
L 173.376105 168.30439 
L 174.026715 166.844599 
L 174.677326 166.813916 
L 175.327936 167.920226 
L 175.978546 167.081532 
L 176.629156 166.535416 
L 177.279767 167.600939 
L 177.930377 166.603889 
L 178.580987 166.579875 
L 179.231598 167.333104 
L 179.882208 166.666072 
L 180.532818 166.94515 
L 181.183429 166.689017 
L 181.834039 166.851289 
L 182.484649 166.872632 
L 183.13526 167.046955 
L 184.43648 166.816113 
L 185.087091 167.288827 
L 185.737701 166.707313 
L 186.388311 166.74955 
L 187.038921 167.130885 
L 187.689532 166.701822 
L 188.990752 166.927676 
L 189.641363 167.293059 
L 190.291973 166.770014 
L 191.593194 166.621032 
L 192.243804 166.759628 
L 192.894414 167.06227 
L 193.545025 166.68166 
L 194.195635 166.901885 
L 194.846245 166.805016 
L 195.496856 166.973823 
L 196.147466 166.84149 
L 196.798076 166.962528 
L 197.448686 166.574377 
L 198.099297 166.674607 
L 199.400517 167.050711 
L 201.352348 166.987429 
L 202.002959 166.639288 
L 202.653569 166.932894 
L 203.304179 166.659992 
L 203.95479 166.63828 
L 204.6054 167.063046 
L 205.25601 166.777545 
L 205.906621 166.866338 
L 206.557231 166.686387 
L 207.207841 166.623787 
L 207.858451 167.047807 
L 208.509062 166.653418 
L 209.159672 166.749462 
L 209.810282 167.422083 
L 210.460893 166.787455 
L 211.111503 166.849746 
L 211.762113 167.60789 
L 212.412724 167.004137 
L 213.063334 166.807695 
L 213.713944 167.506586 
L 214.364555 166.85263 
L 215.015165 167.169081 
L 215.665775 166.789476 
L 216.316385 166.601759 
L 216.966996 168.353051 
L 217.617606 166.771669 
L 218.268216 167.093173 
L 218.918827 167.582281 
L 219.569437 167.185609 
L 220.220047 169.585765 
L 220.870658 166.98118 
L 221.521268 167.450551 
L 222.171878 166.976433 
L 222.822489 167.151866 
L 223.473099 166.951002 
L 224.123709 169.664039 
L 224.77432 166.880817 
L 225.42493 167.434751 
L 226.07554 167.158116 
L 227.376761 166.975696 
L 228.027371 166.589959 
L 228.677981 166.837819 
L 229.328592 166.738628 
L 229.979202 166.922854 
L 230.629812 166.912127 
L 231.280423 167.148451 
L 231.931033 166.969194 
L 232.581643 167.648697 
L 233.232254 166.770753 
L 233.882864 166.787909 
L 234.533474 167.458563 
L 235.184085 166.927636 
L 235.834695 166.704038 
L 236.485305 167.540219 
L 237.135915 167.026193 
L 237.786526 166.886077 
L 239.087746 167.120512 
L 239.738357 166.674349 
L 240.388967 166.732401 
L 241.039577 166.977474 
L 242.340798 167.153783 
L 243.642019 166.578001 
L 244.292629 166.914514 
L 244.943239 167.023506 
L 246.89507 166.878825 
L 247.54568 166.695371 
L 249.497511 166.692455 
L 250.148122 167.078611 
L 250.798732 166.713718 
L 251.449342 167.009739 
L 252.099953 167.066506 
L 252.750563 166.728876 
L 253.401173 167.155745 
L 254.051784 166.943057 
L 254.702394 166.901981 
L 255.353004 166.745174 
L 256.003615 167.646412 
L 256.654225 166.719775 
L 257.304835 167.367267 
L 257.955445 166.997675 
L 258.606056 167.617056 
L 259.256666 166.936139 
L 259.907276 166.846196 
L 260.557887 166.929799 
L 261.208497 167.499725 
L 261.859107 166.851098 
L 262.509718 167.057739 
L 263.160328 166.72853 
L 263.810938 167.196388 
L 264.461549 167.514981 
L 265.762769 166.901658 
L 266.413379 167.188982 
L 267.06399 166.957406 
L 267.7146 167.980531 
L 268.36521 167.453281 
L 269.015821 166.769831 
L 269.666431 166.761355 
L 270.317041 166.918802 
L 270.967652 166.741532 
L 272.268872 166.946556 
L 272.919483 166.800619 
L 273.570093 166.990571 
L 274.871314 166.80537 
L 275.521924 167.683234 
L 276.172534 167.133705 
L 276.823144 167.29995 
L 277.473755 166.736851 
L 278.124365 166.820893 
L 279.425586 167.232482 
L 280.076196 167.303762 
L 280.726806 168.152537 
L 281.377417 167.155993 
L 282.028027 167.338946 
L 282.678637 166.827116 
L 283.329248 166.994897 
L 283.979858 166.720351 
L 284.630468 166.636337 
L 285.281079 166.966384 
L 286.582299 167.045362 
L 287.232909 166.842227 
L 287.88352 167.177782 
L 288.53413 166.95629 
L 289.18474 167.12389 
L 289.835351 166.675805 
L 290.485961 167.112373 
L 291.136571 166.914603 
L 291.787182 166.937358 
L 292.437792 167.161249 
L 293.088402 170.233509 
L 293.739013 166.74225 
L 295.040233 166.798923 
L 295.690844 167.204532 
L 296.992064 166.76673 
L 297.642674 166.715758 
L 298.293285 167.11344 
L 298.943895 166.891803 
L 299.594505 167.025288 
L 300.245116 167.449515 
L 300.895726 167.141227 
L 301.546336 166.611421 
L 302.196947 166.717855 
L 302.847557 167.437257 
L 303.498167 166.601095 
L 304.799388 167.020427 
L 305.449998 166.755219 
L 306.100608 166.707049 
L 306.751219 166.819924 
L 308.052439 166.708799 
L 310.00427 166.670642 
L 310.654881 166.934908 
L 311.305491 166.560981 
L 311.956101 166.869158 
L 314.558543 166.867138 
L 315.209153 167.031887 
L 315.859763 166.705055 
L 317.160984 167.210543 
L 317.811594 166.661236 
L 318.462204 166.751083 
L 319.112815 166.683199 
L 319.763425 167.099827 
L 320.414035 166.73491 
L 321.064646 166.649694 
L 321.715256 166.833805 
L 324.317697 166.722238 
L 324.968308 166.957187 
L 325.618918 166.700624 
L 326.920138 166.697238 
L 327.570749 168.291773 
L 328.221359 166.91565 
L 328.871969 166.683399 
L 329.52258 166.639645 
L 330.17319 166.997578 
L 330.8238 166.784724 
L 332.125021 166.945417 
L 332.775631 166.704671 
L 334.076852 166.722324 
L 334.727462 166.702699 
L 335.378073 167.140141 
L 336.028683 166.785688 
L 336.679293 166.795965 
L 337.329903 166.655047 
L 337.980514 166.895636 
L 339.281734 167.039101 
L 339.932345 166.880807 
L 340.582955 167.503301 
L 341.233565 167.155329 
L 341.884176 167.915567 
L 342.534786 167.278843 
L 344.486617 166.599721 
L 345.137227 166.88228 
L 346.438448 166.637732 
L 347.089058 167.060448 
L 347.739668 166.794065 
L 348.390279 167.093473 
L 349.040889 166.625746 
L 349.691499 167.391674 
L 350.34211 166.654162 
L 351.64333 166.79121 
L 352.944551 166.745078 
L 356.197602 166.632597 
L 356.848213 166.608714 
L 357.498823 167.208091 
L 358.149433 166.82613 
L 360.101264 166.801637 
L 360.751875 166.609305 
L 361.402485 166.940202 
L 362.703706 166.665126 
L 363.354316 167.075535 
L 364.004926 166.632063 
L 364.655537 166.91758 
L 365.306147 166.764513 
L 365.956757 166.781466 
L 366.607367 167.142116 
L 367.257978 167.186471 
L 367.908588 166.692758 
L 368.559198 167.115502 
L 369.209809 168.06114 
L 369.860419 168.298873 
L 370.511029 166.666026 
L 371.16164 166.569264 
L 371.81225 166.747584 
L 372.46286 166.55377 
L 373.113471 166.758391 
L 373.764081 167.964204 
L 374.414691 166.667368 
L 375.715912 166.61711 
L 377.667743 166.653706 
L 378.318353 166.821885 
L 378.968963 166.735613 
L 379.619574 166.804166 
L 380.270184 166.685159 
L 380.920794 167.011237 
L 381.571405 167.185806 
L 382.222015 166.880497 
L 382.872625 166.914477 
L 383.523236 167.066402 
L 384.824456 166.874715 
L 385.475066 166.609315 
L 386.125677 166.799212 
L 386.776287 166.622916 
L 387.426897 167.016756 
L 388.077508 166.730798 
L 388.728118 167.074993 
L 389.378728 166.652797 
L 390.029339 167.003533 
L 390.679949 166.665735 
L 391.330559 166.81935 
L 391.98117 166.662143 
L 393.28239 166.869276 
L 393.933001 166.70822 
L 395.884831 167.074686 
L 396.535442 166.781652 
L 397.186052 166.854631 
L 397.836662 166.682383 
L 398.487273 166.689221 
L 398.487273 166.689221 
" style="fill:none;stroke:#0000ff;stroke-linecap:square;stroke-width:1.5;"/>
   </g>
   <g id="line2d_32">
    <path clip-path="url(#pd8c38daa36)" d="M 73.832727 167.409433 
L 74.483338 166.951456 
L 75.133948 167.302542 
L 75.784558 168.190318 
L 76.435169 167.510761 
L 77.085779 168.584332 
L 78.386999 167.464035 
L 79.03761 168.866404 
L 79.68822 168.293026 
L 80.33883 167.565419 
L 80.989441 186.626985 
L 81.640051 168.283821 
L 82.290661 167.587199 
L 82.941272 167.619673 
L 83.591882 168.850012 
L 84.242492 173.149953 
L 84.893103 168.725779 
L 85.543713 169.147685 
L 86.194323 168.09564 
L 86.844934 169.132481 
L 87.495544 168.231711 
L 88.146154 171.683022 
L 88.796764 168.801626 
L 89.447375 170.238966 
L 90.097985 169.226037 
L 90.748595 169.477317 
L 91.399206 176.338821 
L 92.049816 171.381606 
L 92.700426 169.032076 
L 93.351037 168.399194 
L 94.001647 173.353922 
L 94.652257 172.286976 
L 95.302868 172.327809 
L 95.953478 169.636493 
L 96.604088 169.260159 
L 97.254698 170.101984 
L 97.905309 173.994126 
L 98.555919 169.8871 
L 99.206529 169.0472 
L 99.85714 170.390758 
L 100.50775 169.565123 
L 101.808971 170.104104 
L 102.459581 168.832284 
L 103.110191 169.897862 
L 103.760802 167.834737 
L 104.411412 169.206815 
L 105.062022 168.857902 
L 106.363243 169.657193 
L 107.013853 174.001301 
L 107.664463 168.680985 
L 108.315074 170.2048 
L 108.965684 168.669421 
L 109.616294 185.222505 
L 110.266905 169.521072 
L 110.917515 174.142241 
L 111.568125 168.841261 
L 112.218736 168.640151 
L 112.869346 227.084468 
L 113.519956 175.344022 
L 114.170567 295.488 
L 114.821177 170.653288 
L 115.471787 173.813159 
L 116.122398 169.35699 
L 116.773008 177.330922 
L 117.423618 169.963677 
L 118.074228 174.785828 
L 118.724839 170.122238 
L 119.375449 170.054489 
L 120.026059 168.451723 
L 120.67667 168.365983 
L 121.32728 172.358495 
L 121.97789 173.40903 
L 122.628501 170.577296 
L 123.279111 169.140798 
L 123.929721 173.077666 
L 124.580332 167.933022 
L 125.230942 168.59426 
L 125.881552 171.069854 
L 126.532163 171.892985 
L 127.182773 168.838535 
L 127.833383 168.401024 
L 128.483993 169.682018 
L 129.134604 168.043166 
L 129.785214 170.428697 
L 130.435824 169.891959 
L 131.086435 170.898342 
L 131.737045 169.086252 
L 132.387655 178.05462 
L 133.038266 169.104254 
L 133.688876 168.408698 
L 134.339486 168.795 
L 135.640707 170.792216 
L 136.941927 168.912708 
L 137.592538 172.75561 
L 138.243148 168.479972 
L 138.893758 167.892967 
L 139.544369 168.829494 
L 140.194979 168.320872 
L 140.845589 170.864386 
L 141.4962 170.032933 
L 142.14681 170.06789 
L 142.79742 168.669389 
L 143.448031 168.824185 
L 144.098641 171.03347 
L 144.749251 168.532808 
L 145.399862 180.61158 
L 146.701082 167.859166 
L 147.351692 168.361562 
L 148.652913 170.440686 
L 149.303523 168.183718 
L 149.954134 167.745498 
L 150.604744 167.984968 
L 151.255354 171.266348 
L 151.905965 167.93208 
L 152.556575 168.950466 
L 153.207185 169.465229 
L 153.857796 168.834389 
L 154.508406 170.967472 
L 155.159016 191.816911 
L 155.809627 169.157241 
L 156.460237 168.739434 
L 157.761457 169.264286 
L 158.412068 169.729902 
L 159.062678 169.5437 
L 159.713288 171.681863 
L 160.363899 167.981428 
L 161.014509 168.985734 
L 161.665119 170.309478 
L 162.31573 181.332215 
L 162.96634 169.298574 
L 163.61695 170.400756 
L 164.267561 173.030284 
L 164.918171 169.367495 
L 165.568781 168.986937 
L 166.219392 168.074102 
L 166.870002 168.37384 
L 167.520612 167.571155 
L 168.171222 169.340442 
L 168.821833 174.122212 
L 169.472443 170.825645 
L 170.123053 169.272166 
L 170.773664 168.16219 
L 171.424274 175.516625 
L 172.074884 169.062785 
L 173.376105 186.349504 
L 174.026715 169.236684 
L 174.677326 169.413332 
L 175.327936 184.243719 
L 175.978546 169.79539 
L 176.629156 167.137055 
L 177.279767 180.650012 
L 177.930377 167.670082 
L 178.580987 167.660374 
L 179.231598 174.117812 
L 179.882208 167.872598 
L 180.532818 172.124105 
L 181.183429 168.107977 
L 181.834039 170.259873 
L 182.484649 170.024449 
L 183.13526 171.624723 
L 183.78587 170.564408 
L 184.43648 168.608413 
L 185.087091 175.796878 
L 185.737701 168.166244 
L 186.388311 168.787407 
L 187.038921 172.346936 
L 187.689532 168.485882 
L 188.340142 169.220637 
L 188.990752 169.003296 
L 189.641363 173.006851 
L 190.291973 168.532179 
L 190.942583 167.901137 
L 191.593194 167.611094 
L 192.243804 168.18184 
L 192.894414 171.20937 
L 193.545025 167.995538 
L 194.195635 169.849752 
L 194.846245 170.271217 
L 195.496856 170.287656 
L 196.147466 168.792804 
L 196.798076 169.65838 
L 197.448686 167.323099 
L 198.099297 168.875594 
L 198.749907 169.765064 
L 199.400517 169.657322 
L 200.701738 170.918047 
L 201.352348 172.739886 
L 202.002959 167.827147 
L 202.653569 171.131724 
L 203.304179 167.880767 
L 203.95479 168.342703 
L 204.6054 170.281001 
L 205.25601 168.872263 
L 205.906621 170.317531 
L 206.557231 168.259538 
L 207.207841 167.627108 
L 207.858451 170.111666 
L 208.509062 167.714907 
L 209.159672 168.575174 
L 209.810282 174.868876 
L 210.460893 168.623103 
L 211.111503 168.906155 
L 211.762113 173.740643 
L 212.412724 170.313684 
L 213.063334 168.361714 
L 213.713944 177.792666 
L 214.364555 169.156777 
L 215.015165 171.56961 
L 215.665775 168.715383 
L 216.316385 167.657525 
L 216.966996 194.841358 
L 217.617606 168.61159 
L 218.918827 173.575719 
L 219.569437 173.183284 
L 220.220047 215.077946 
L 220.870658 169.592706 
L 221.521268 175.104401 
L 222.171878 169.293847 
L 222.822489 170.563269 
L 223.473099 169.269358 
L 224.123709 208.145816 
L 224.77432 169.451262 
L 225.42493 176.482001 
L 226.07554 172.042124 
L 226.72615 170.692909 
L 227.376761 171.376472 
L 228.027371 167.595398 
L 228.677981 169.646228 
L 229.328592 168.253654 
L 229.979202 169.47503 
L 231.280423 172.556372 
L 231.931033 170.396497 
L 232.581643 177.258694 
L 233.232254 168.90714 
L 233.882864 169.398717 
L 234.533474 176.534625 
L 235.184085 170.422634 
L 235.834695 168.471995 
L 236.485305 173.895938 
L 237.135915 170.508293 
L 237.786526 169.158959 
L 238.437136 169.119493 
L 239.087746 171.218978 
L 239.738357 168.029927 
L 240.388967 168.342902 
L 241.039577 169.488675 
L 241.690188 169.985011 
L 242.340798 173.846941 
L 242.991408 168.736244 
L 243.642019 167.524914 
L 244.292629 169.757808 
L 244.943239 170.838534 
L 245.59385 170.326527 
L 246.24446 170.041838 
L 246.89507 169.351572 
L 247.54568 168.161757 
L 248.196291 168.17234 
L 248.846901 168.299898 
L 249.497511 167.967114 
L 250.148122 170.886932 
L 250.798732 168.941335 
L 251.449342 171.184775 
L 252.099953 171.581849 
L 252.750563 167.755806 
L 253.401173 172.00429 
L 254.051784 171.198855 
L 254.702394 169.457954 
L 255.353004 168.618655 
L 256.003615 182.686012 
L 256.654225 168.304443 
L 257.304835 174.311286 
L 257.955445 170.470782 
L 258.606056 182.285862 
L 259.256666 170.472238 
L 259.907276 170.550525 
L 260.557887 169.696562 
L 261.208497 173.150793 
L 261.859107 168.569101 
L 262.509718 170.059199 
L 263.160328 168.353333 
L 263.810938 171.624889 
L 264.461549 176.493853 
L 265.112159 170.661026 
L 265.762769 169.292165 
L 266.413379 173.898758 
L 267.06399 169.928017 
L 267.7146 179.105079 
L 269.015821 168.577595 
L 269.666431 168.871324 
L 270.317041 169.687648 
L 270.967652 168.452354 
L 271.618262 168.914523 
L 272.268872 171.501693 
L 272.919483 169.581283 
L 274.220703 171.381264 
L 274.871314 169.456062 
L 275.521924 179.991777 
L 276.172534 170.868619 
L 276.823144 172.459542 
L 277.473755 168.328083 
L 278.124365 168.936887 
L 278.774975 170.382922 
L 280.076196 174.167118 
L 280.726806 182.267852 
L 281.377417 173.165703 
L 282.028027 173.546862 
L 282.678637 169.506256 
L 283.329248 170.106157 
L 283.979858 168.110105 
L 284.630468 167.745664 
L 285.281079 170.280079 
L 285.931689 170.187206 
L 286.582299 170.549277 
L 287.232909 168.60341 
L 287.88352 170.293948 
L 288.53413 169.516623 
L 289.18474 170.73076 
L 289.835351 167.908847 
L 290.485961 170.191401 
L 291.136571 168.757228 
L 292.437792 171.126407 
L 293.088402 222.819071 
L 293.739013 168.687449 
L 294.389623 168.348467 
L 295.040233 168.776649 
L 295.690844 170.734124 
L 296.341454 173.235863 
L 296.992064 168.696035 
L 297.642674 168.216286 
L 298.293285 172.684786 
L 298.943895 169.716986 
L 299.594505 173.321725 
L 300.245116 178.265989 
L 301.546336 167.925179 
L 302.196947 168.465095 
L 302.847557 176.369617 
L 303.498167 167.498483 
L 304.148778 168.5719 
L 304.799388 173.490673 
L 305.449998 168.460758 
L 306.100608 168.188678 
L 306.751219 169.60101 
L 307.401829 168.059924 
L 308.052439 168.022303 
L 308.70305 168.171915 
L 309.35366 168.168323 
L 310.00427 168.430446 
L 310.654881 170.36879 
L 311.305491 167.247545 
L 311.956101 169.380639 
L 312.606712 169.973525 
L 313.257322 170.096498 
L 313.907932 168.203142 
L 314.558543 169.651049 
L 315.209153 172.089323 
L 315.859763 168.564075 
L 316.510373 170.511949 
L 317.160984 173.753292 
L 317.811594 169.359646 
L 318.462204 168.470307 
L 319.112815 168.251299 
L 319.763425 172.920795 
L 320.414035 168.664194 
L 321.064646 168.111272 
L 321.715256 170.322588 
L 322.365866 168.777391 
L 323.016477 170.137395 
L 323.667087 168.535761 
L 324.317697 168.552812 
L 324.968308 171.661077 
L 325.618918 167.932908 
L 326.269528 168.943417 
L 326.920138 169.148106 
L 327.570749 193.171905 
L 328.221359 169.999619 
L 328.871969 168.138604 
L 329.52258 167.855008 
L 330.17319 170.798298 
L 330.8238 168.229283 
L 331.474411 169.538287 
L 332.125021 171.944297 
L 332.775631 168.124916 
L 334.076852 168.527237 
L 334.727462 168.012123 
L 335.378073 171.124577 
L 336.028683 168.426268 
L 336.679293 169.923774 
L 337.329903 167.891798 
L 337.980514 169.770635 
L 338.631124 169.081372 
L 339.281734 170.29573 
L 339.932345 169.746911 
L 340.582955 174.492496 
L 341.233565 170.91467 
L 341.884176 179.948812 
L 342.534786 173.713373 
L 343.185396 170.259142 
L 343.836007 168.621654 
L 344.486617 167.623501 
L 345.137227 169.743607 
L 345.787837 168.817408 
L 346.438448 167.633107 
L 347.089058 170.609501 
L 347.739668 168.551651 
L 348.390279 171.2286 
L 349.040889 167.556867 
L 349.691499 174.176496 
L 350.34211 167.682035 
L 350.99272 168.601808 
L 351.64333 168.662778 
L 352.293941 168.361617 
L 352.944551 169.037925 
L 353.595161 168.263835 
L 354.245772 167.989669 
L 354.896382 168.081719 
L 356.197602 167.980898 
L 356.848213 167.802134 
L 357.498823 174.425513 
L 358.149433 170.282144 
L 358.800044 169.463285 
L 360.101264 169.009104 
L 360.751875 167.563266 
L 361.402485 171.493496 
L 362.053095 168.112267 
L 362.703706 168.054242 
L 363.354316 176.863252 
L 364.004926 168.548832 
L 364.655537 172.946004 
L 365.306147 168.538712 
L 365.956757 169.476587 
L 366.607367 171.2817 
L 367.257978 172.164143 
L 367.908588 168.629246 
L 368.559198 171.752045 
L 369.209809 194.148266 
L 369.860419 195.416292 
L 370.511029 168.414571 
L 371.16164 167.39384 
L 371.81225 168.402283 
L 372.46286 167.411268 
L 373.113471 170.063666 
L 373.764081 179.097351 
L 374.414691 168.403333 
L 375.715912 167.652717 
L 376.366522 168.171401 
L 377.017132 167.770364 
L 377.667743 167.622389 
L 378.318353 168.648883 
L 379.619574 168.877488 
L 380.270184 168.444128 
L 380.920794 173.149583 
L 381.571405 173.456912 
L 382.222015 170.234668 
L 382.872625 172.296151 
L 383.523236 170.781068 
L 384.173846 170.983988 
L 385.475066 167.940633 
L 386.125677 169.878725 
L 386.776287 167.939089 
L 387.426897 170.25248 
L 388.077508 168.939696 
L 388.728118 170.198531 
L 389.378728 168.103893 
L 390.029339 173.283928 
L 390.679949 167.70751 
L 391.330559 168.863753 
L 391.98117 168.270197 
L 392.63178 168.187543 
L 393.28239 170.119098 
L 393.933001 169.707378 
L 394.583611 168.759531 
L 395.234221 170.836844 
L 395.884831 170.761361 
L 396.535442 168.922679 
L 397.186052 170.081635 
L 397.836662 167.849994 
L 398.487273 168.306957 
L 398.487273 168.306957 
" style="fill:none;stroke:#008000;stroke-dasharray:9.6,2.4,1.5,2.4;stroke-dashoffset:0;stroke-width:1.5;"/>
   </g>
   <g id="line2d_33">
    <path clip-path="url(#pd8c38daa36)" d="M 73.832727 166.372125 
L 75.133948 165.878801 
L 75.784558 165.230168 
L 76.435169 165.724649 
L 77.085779 164.848623 
L 77.736389 165.228681 
L 78.386999 165.745312 
L 79.03761 164.723194 
L 79.68822 165.37492 
L 80.33883 165.706682 
L 80.989441 148.785758 
L 81.640051 165.161168 
L 82.290661 165.695153 
L 82.941272 165.703628 
L 83.591882 164.790228 
L 84.242492 161.446765 
L 84.893103 164.780427 
L 85.543713 164.693795 
L 86.194323 165.303435 
L 86.844934 164.517069 
L 87.495544 165.211417 
L 88.146154 162.244102 
L 88.796764 164.736119 
L 89.447375 164.002571 
L 90.097985 164.497891 
L 90.748595 164.469816 
L 91.399206 158.627936 
L 92.049816 162.859922 
L 92.700426 164.89432 
L 93.351037 165.266541 
L 94.001647 161.525441 
L 94.652257 162.105467 
L 95.302868 162.279494 
L 95.953478 164.200032 
L 96.604088 164.42467 
L 97.254698 163.987127 
L 97.905309 161.30028 
L 98.555919 163.919042 
L 99.206529 164.729444 
L 99.85714 163.318214 
L 100.50775 164.55573 
L 101.808971 164.070195 
L 102.459581 164.683836 
L 103.110191 164.047644 
L 103.760802 165.461173 
L 104.411412 164.54925 
L 105.062022 164.946322 
L 106.363243 163.993651 
L 107.013853 161.084723 
L 107.664463 164.79994 
L 108.315074 163.471188 
L 108.965684 165.160555 
L 109.616294 150.505843 
L 110.266905 164.294803 
L 110.917515 160.702262 
L 111.568125 164.995941 
L 112.218736 164.921015 
L 112.869346 113.94758 
L 113.519956 160.187591 
L 114.170567 53.568 
L 114.821177 163.445504 
L 115.471787 160.775673 
L 116.122398 164.509898 
L 116.773008 159.094645 
L 117.423618 164.147918 
L 118.074228 159.934737 
L 118.724839 164.172178 
L 119.375449 164.134716 
L 120.026059 165.18882 
L 120.67667 165.183125 
L 121.32728 162.505039 
L 121.97789 161.394832 
L 122.628501 163.801792 
L 123.279111 164.791868 
L 123.929721 161.698788 
L 124.580332 165.510621 
L 125.230942 164.999833 
L 125.881552 163.036547 
L 126.532163 162.238184 
L 127.182773 164.759909 
L 127.833383 165.101877 
L 128.483993 164.251396 
L 129.134604 165.433336 
L 129.785214 163.407634 
L 130.435824 164.2673 
L 131.086435 163.112864 
L 131.737045 164.759877 
L 132.387655 157.557209 
L 133.038266 164.489086 
L 133.688876 165.14148 
L 134.339486 165.025246 
L 134.990097 163.857161 
L 135.640707 163.158299 
L 136.941927 164.697751 
L 137.592538 161.491318 
L 138.243148 165.192216 
L 138.893758 165.455971 
L 139.544369 164.994257 
L 140.194979 165.227298 
L 140.845589 163.236337 
L 141.4962 163.727967 
L 142.14681 164.059443 
L 142.79742 164.846244 
L 143.448031 164.740963 
L 144.098641 162.797395 
L 144.749251 164.92605 
L 145.399862 154.813387 
L 146.701082 165.409444 
L 147.351692 165.227358 
L 148.002303 164.182882 
L 148.652913 163.581459 
L 149.303523 165.339013 
L 149.954134 165.58258 
L 150.604744 165.354342 
L 151.255354 163.329838 
L 151.905965 165.508102 
L 152.556575 164.705146 
L 153.207185 164.295577 
L 153.857796 164.735919 
L 154.508406 162.950253 
L 155.159016 145.550427 
L 155.809627 164.401115 
L 156.460237 164.805458 
L 157.110847 164.767385 
L 158.412068 164.290362 
L 159.062678 164.203037 
L 159.713288 162.324118 
L 160.363899 165.37496 
L 161.014509 164.572866 
L 161.665119 163.49886 
L 162.31573 154.081016 
L 162.96634 164.500883 
L 163.61695 163.349329 
L 164.267561 161.868229 
L 164.918171 164.357754 
L 165.568781 164.736009 
L 166.219392 165.477977 
L 166.870002 165.229165 
L 167.520612 165.756227 
L 168.171222 164.36782 
L 168.821833 160.577479 
L 169.472443 163.465726 
L 170.773664 165.245335 
L 171.424274 159.381962 
L 172.074884 164.712494 
L 173.376105 150.259277 
L 174.026715 164.452513 
L 174.677326 164.214499 
L 175.327936 151.596733 
L 175.978546 164.367674 
L 176.629156 165.933776 
L 177.279767 154.551867 
L 177.930377 165.537695 
L 178.580987 165.499376 
L 179.231598 160.548396 
L 179.882208 165.459546 
L 180.532818 161.766194 
L 181.183429 165.270057 
L 181.834039 163.442705 
L 182.484649 163.720814 
L 183.13526 162.469187 
L 183.78587 163.264293 
L 184.43648 165.023813 
L 185.087091 158.780776 
L 185.737701 165.248383 
L 186.388311 164.711693 
L 187.038921 161.914833 
L 187.689532 164.917762 
L 188.340142 164.33383 
L 188.990752 164.852055 
L 189.641363 161.579267 
L 190.291973 165.007849 
L 190.942583 165.484448 
L 191.593194 165.63097 
L 192.243804 165.337415 
L 192.894414 162.91517 
L 193.545025 165.367782 
L 194.195635 163.954018 
L 194.846245 163.338815 
L 195.496856 163.65999 
L 196.147466 164.890176 
L 196.798076 164.266676 
L 197.448686 165.825656 
L 198.099297 164.47362 
L 198.749907 164.011385 
L 199.400517 164.444101 
L 200.051128 163.639583 
L 200.701738 163.115893 
L 201.352348 161.234971 
L 202.002959 165.45143 
L 202.653569 162.734063 
L 203.304179 165.439218 
L 203.95479 164.933857 
L 204.6054 163.845091 
L 205.25601 164.682826 
L 205.906621 163.415145 
L 206.557231 165.113236 
L 207.207841 165.620467 
L 207.858451 163.983949 
L 208.509062 165.59193 
L 209.159672 164.92375 
L 209.810282 159.975289 
L 210.460893 164.951808 
L 211.111503 164.793338 
L 211.762113 161.475136 
L 212.412724 163.69459 
L 213.063334 165.253677 
L 213.713944 157.220505 
L 214.364555 164.548482 
L 215.015165 162.768552 
L 215.665775 164.863569 
L 216.316385 165.545994 
L 216.966996 141.864744 
L 217.617606 164.931749 
L 218.268216 162.999278 
L 218.918827 161.588843 
L 219.569437 161.187934 
L 220.220047 124.093583 
L 220.870658 164.369653 
L 221.521268 159.796701 
L 222.171878 164.659018 
L 222.822489 163.740463 
L 223.473099 164.632646 
L 224.123709 131.182262 
L 224.77432 164.310371 
L 225.42493 158.387501 
L 226.07554 162.274109 
L 226.72615 163.550162 
L 227.376761 162.574921 
L 228.027371 165.584521 
L 228.677981 164.02941 
L 229.328592 165.223601 
L 229.979202 164.370677 
L 230.629812 162.737788 
L 231.280423 161.740529 
L 231.931033 163.54189 
L 232.581643 158.0387 
L 233.232254 164.634366 
L 233.882864 164.177102 
L 234.533474 158.382501 
L 235.184085 163.432638 
L 235.834695 164.936082 
L 236.485305 161.1845 
L 237.135915 163.544094 
L 237.786526 164.613194 
L 238.437136 164.818071 
L 239.087746 163.022047 
L 239.738357 165.318771 
L 240.388967 165.1219 
L 241.039577 164.466274 
L 241.690188 164.087276 
L 242.340798 160.460624 
L 242.991408 165.024846 
L 243.642019 165.631089 
L 244.292629 164.07122 
L 244.943239 163.208478 
L 246.24446 163.989464 
L 246.89507 164.406078 
L 247.54568 165.228984 
L 248.846901 165.179792 
L 249.497511 165.417796 
L 250.148122 163.270291 
L 250.798732 164.486101 
L 251.449342 162.834703 
L 252.099953 162.551162 
L 252.750563 165.701945 
L 253.401173 162.3072 
L 254.051784 162.687259 
L 254.702394 164.346007 
L 255.353004 164.871694 
L 256.003615 152.606811 
L 256.654225 165.135106 
L 257.304835 160.423247 
L 257.955445 163.524567 
L 258.606056 152.948249 
L 259.256666 163.40004 
L 259.907276 163.141868 
L 260.557887 164.163037 
L 261.208497 161.848657 
L 261.859107 165.133095 
L 262.509718 164.05628 
L 263.160328 165.103727 
L 263.810938 162.767887 
L 264.461549 158.536109 
L 265.112159 163.659104 
L 265.762769 164.51115 
L 266.413379 160.479206 
L 267.06399 163.986795 
L 267.7146 156.855984 
L 269.015821 164.962066 
L 269.666431 164.651386 
L 270.317041 164.149956 
L 270.967652 165.03071 
L 271.618262 164.754347 
L 272.268872 162.391419 
L 272.919483 164.019954 
L 273.570093 163.548863 
L 274.220703 162.494013 
L 274.871314 164.154677 
L 275.521924 155.374691 
L 276.172534 163.398792 
L 276.823144 162.140357 
L 277.473755 165.145619 
L 278.124365 164.704899 
L 278.774975 163.679062 
L 280.076196 160.440406 
L 280.726806 154.037221 
L 281.377417 161.146283 
L 282.028027 161.131031 
L 282.678637 164.147976 
L 283.329248 163.883638 
L 283.979858 165.330598 
L 284.630468 165.527009 
L 285.281079 163.65269 
L 285.931689 163.778499 
L 286.582299 163.541448 
L 287.232909 165.081043 
L 287.88352 164.061616 
L 288.53413 164.395958 
L 289.18474 163.51702 
L 289.835351 165.442763 
L 290.485961 164.033345 
L 291.136571 165.071979 
L 291.787182 163.826172 
L 292.437792 163.196091 
L 293.088402 117.647947 
L 293.739013 164.797051 
L 294.389623 165.109566 
L 295.040233 164.821197 
L 295.690844 163.674939 
L 296.341454 160.766153 
L 296.992064 164.837425 
L 297.642674 165.21523 
L 298.293285 161.542094 
L 298.943895 164.06662 
L 299.594505 160.728851 
L 300.245116 156.633041 
L 301.546336 165.297663 
L 302.196947 164.970614 
L 302.847557 158.504898 
L 303.498167 165.703707 
L 304.148778 165.044306 
L 304.799388 160.550182 
L 305.449998 165.04968 
L 306.100608 165.225419 
L 306.751219 164.038838 
L 307.401829 165.403565 
L 308.052439 165.395295 
L 308.70305 165.199392 
L 309.35366 165.217469 
L 310.00427 164.910839 
L 310.654881 163.501025 
L 311.305491 165.874418 
L 311.956101 164.357677 
L 312.606712 163.737338 
L 313.257322 163.780386 
L 313.907932 165.239983 
L 314.558543 164.083228 
L 315.209153 161.974452 
L 315.859763 164.846034 
L 316.510373 163.374055 
L 317.160984 160.667795 
L 317.811594 163.962826 
L 318.462204 165.03186 
L 319.112815 165.115099 
L 319.763425 161.278859 
L 320.414035 164.805627 
L 321.064646 165.188117 
L 321.715256 163.345023 
L 322.365866 164.828701 
L 323.016477 163.554242 
L 323.667087 164.969369 
L 324.317697 164.891665 
L 324.968308 162.253296 
L 325.618918 165.468341 
L 326.269528 164.475222 
L 326.920138 164.246369 
L 327.570749 143.41164 
L 328.221359 163.831681 
L 328.871969 165.228195 
L 329.52258 165.424281 
L 330.17319 163.196857 
L 330.8238 165.340164 
L 331.474411 164.227525 
L 332.125021 161.946537 
L 332.775631 165.284426 
L 333.426242 165.210848 
L 334.076852 164.917411 
L 334.727462 165.393274 
L 335.378073 163.155706 
L 336.028683 165.145109 
L 336.679293 163.668155 
L 337.329903 165.418296 
L 337.980514 164.020636 
L 338.631124 164.866021 
L 339.281734 163.782471 
L 339.932345 164.014703 
L 340.582955 160.514106 
L 341.233565 163.395988 
L 341.884176 155.882321 
L 342.534786 160.844313 
L 343.185396 163.865804 
L 343.836007 164.971828 
L 344.486617 165.57594 
L 345.137227 164.020954 
L 345.787837 164.614863 
L 346.438448 165.642357 
L 347.089058 163.511394 
L 347.739668 165.03648 
L 348.390279 162.958346 
L 349.040889 165.694625 
L 349.691499 160.606852 
L 350.34211 165.626289 
L 350.99272 164.932243 
L 351.64333 164.919642 
L 352.293941 165.0703 
L 352.944551 164.452231 
L 353.595161 165.220709 
L 354.245772 165.422956 
L 354.896382 165.183356 
L 356.848213 165.415294 
L 357.498823 159.990668 
L 358.149433 163.370115 
L 358.800044 164.183184 
L 359.450654 164.605865 
L 360.101264 164.59417 
L 360.751875 165.655345 
L 361.402485 162.386908 
L 362.053095 165.423841 
L 362.703706 165.276011 
L 363.354316 157.287817 
L 364.004926 164.715295 
L 364.655537 160.889156 
L 365.306147 164.990314 
L 367.257978 162.208799 
L 367.908588 164.75627 
L 368.559198 162.478958 
L 369.209809 141.974013 
L 369.860419 141.181454 
L 370.511029 164.917481 
L 371.16164 165.744688 
L 371.81225 165.092885 
L 372.46286 165.696272 
L 373.113471 163.453116 
L 373.764081 156.831057 
L 374.414691 164.931403 
L 375.065302 165.352904 
L 375.715912 165.581502 
L 376.366522 165.10026 
L 377.017132 165.516878 
L 377.667743 165.685022 
L 378.318353 164.994886 
L 378.968963 164.702296 
L 379.619574 164.730844 
L 380.270184 164.92619 
L 380.920794 160.872891 
L 381.571405 160.9147 
L 382.222015 163.526326 
L 382.872625 161.532802 
L 383.523236 163.351736 
L 384.173846 162.942409 
L 384.824456 164.349459 
L 385.475066 165.277997 
L 386.125677 163.719699 
L 386.776287 165.306743 
L 387.426897 163.781032 
L 388.077508 164.5219 
L 388.728118 163.951455 
L 389.378728 165.201701 
L 390.029339 160.723138 
L 390.679949 165.62396 
L 391.330559 164.774947 
L 392.63178 165.296496 
L 393.28239 163.619454 
L 393.933001 163.709062 
L 394.583611 164.933246 
L 395.234221 163.342539 
L 395.884831 163.388012 
L 396.535442 164.640625 
L 397.186052 163.627627 
L 397.836662 165.514772 
L 398.487273 165.071485 
L 398.487273 165.071485 
" style="fill:none;stroke:#008000;stroke-dasharray:9.6,2.4,1.5,2.4;stroke-dashoffset:0;stroke-width:1.5;"/>
   </g>
   <g id="line2d_34">
    <path clip-path="url(#pd8c38daa36)" d="M 73.832727 166.125629 
L 75.784558 166.0806 
L 398.487273 166.028721 
L 398.487273 166.028721 
" style="fill:none;stroke:#ff0000;stroke-linecap:square;stroke-width:1.5;"/>
   </g>
   <g id="patch_3">
    <path d="M 57.6 307.584 
L 57.6 41.472 
" style="fill:none;stroke:#000000;stroke-linecap:square;stroke-linejoin:miter;stroke-width:0.8;"/>
   </g>
   <g id="patch_4">
    <path d="M 414.72 307.584 
L 414.72 41.472 
" style="fill:none;stroke:#000000;stroke-linecap:square;stroke-linejoin:miter;stroke-width:0.8;"/>
   </g>
   <g id="patch_5">
    <path d="M 57.6 307.584 
L 414.72 307.584 
" style="fill:none;stroke:#000000;stroke-linecap:square;stroke-linejoin:miter;stroke-width:0.8;"/>
   </g>
   <g id="patch_6">
    <path d="M 57.6 41.472 
L 414.72 41.472 
" style="fill:none;stroke:#000000;stroke-linecap:square;stroke-linejoin:miter;stroke-width:0.8;"/>
   </g>
   <g id="text_18">
    <!-- Population's average and best fitness -->
    <defs>
     <path d="M 19.671875 64.796875 
L 19.671875 37.40625 
L 32.078125 37.40625 
Q 38.96875 37.40625 42.71875 40.96875 
Q 46.484375 44.53125 46.484375 51.125 
Q 46.484375 57.671875 42.71875 61.234375 
Q 38.96875 64.796875 32.078125 64.796875 
z
M 9.8125 72.90625 
L 32.078125 72.90625 
Q 44.34375 72.90625 50.609375 67.359375 
Q 56.890625 61.8125 56.890625 51.125 
Q 56.890625 40.328125 50.609375 34.8125 
Q 44.34375 29.296875 32.078125 29.296875 
L 19.671875 29.296875 
L 19.671875 0 
L 9.8125 0 
z
" id="DejaVuSans-80"/>
     <path d="M 18.109375 8.203125 
L 18.109375 -20.796875 
L 9.078125 -20.796875 
L 9.078125 54.6875 
L 18.109375 54.6875 
L 18.109375 46.390625 
Q 20.953125 51.265625 25.265625 53.625 
Q 29.59375 56 35.59375 56 
Q 45.5625 56 51.78125 48.09375 
Q 58.015625 40.1875 58.015625 27.296875 
Q 58.015625 14.40625 51.78125 6.484375 
Q 45.5625 -1.421875 35.59375 -1.421875 
Q 29.59375 -1.421875 25.265625 0.953125 
Q 20.953125 3.328125 18.109375 8.203125 
z
M 48.6875 27.296875 
Q 48.6875 37.203125 44.609375 42.84375 
Q 40.53125 48.484375 33.40625 48.484375 
Q 26.265625 48.484375 22.1875 42.84375 
Q 18.109375 37.203125 18.109375 27.296875 
Q 18.109375 17.390625 22.1875 11.75 
Q 26.265625 6.109375 33.40625 6.109375 
Q 40.53125 6.109375 44.609375 11.75 
Q 48.6875 17.390625 48.6875 27.296875 
z
" id="DejaVuSans-112"/>
     <path d="M 8.5 21.578125 
L 8.5 54.6875 
L 17.484375 54.6875 
L 17.484375 21.921875 
Q 17.484375 14.15625 20.5 10.265625 
Q 23.53125 6.390625 29.59375 6.390625 
Q 36.859375 6.390625 41.078125 11.03125 
Q 45.3125 15.671875 45.3125 23.6875 
L 45.3125 54.6875 
L 54.296875 54.6875 
L 54.296875 0 
L 45.3125 0 
L 45.3125 8.40625 
Q 42.046875 3.421875 37.71875 1 
Q 33.40625 -1.421875 27.6875 -1.421875 
Q 18.265625 -1.421875 13.375 4.4375 
Q 8.5 10.296875 8.5 21.578125 
z
M 31.109375 56 
z
" id="DejaVuSans-117"/>
     <path d="M 9.421875 75.984375 
L 18.40625 75.984375 
L 18.40625 0 
L 9.421875 0 
z
" id="DejaVuSans-108"/>
     <path d="M 17.921875 72.90625 
L 17.921875 45.796875 
L 9.625 45.796875 
L 9.625 72.90625 
z
" id="DejaVuSans-39"/>
     <path id="DejaVuSans-32"/>
     <path d="M 2.984375 54.6875 
L 12.5 54.6875 
L 29.59375 8.796875 
L 46.6875 54.6875 
L 56.203125 54.6875 
L 35.6875 0 
L 23.484375 0 
z
" id="DejaVuSans-118"/>
     <path d="M 45.40625 27.984375 
Q 45.40625 37.75 41.375 43.109375 
Q 37.359375 48.484375 30.078125 48.484375 
Q 22.859375 48.484375 18.828125 43.109375 
Q 14.796875 37.75 14.796875 27.984375 
Q 14.796875 18.265625 18.828125 12.890625 
Q 22.859375 7.515625 30.078125 7.515625 
Q 37.359375 7.515625 41.375 12.890625 
Q 45.40625 18.265625 45.40625 27.984375 
z
M 54.390625 6.78125 
Q 54.390625 -7.171875 48.1875 -13.984375 
Q 42 -20.796875 29.203125 -20.796875 
Q 24.46875 -20.796875 20.265625 -20.09375 
Q 16.0625 -19.390625 12.109375 -17.921875 
L 12.109375 -9.1875 
Q 16.0625 -11.328125 19.921875 -12.34375 
Q 23.78125 -13.375 27.78125 -13.375 
Q 36.625 -13.375 41.015625 -8.765625 
Q 45.40625 -4.15625 45.40625 5.171875 
L 45.40625 9.625 
Q 42.625 4.78125 38.28125 2.390625 
Q 33.9375 0 27.875 0 
Q 17.828125 0 11.671875 7.65625 
Q 5.515625 15.328125 5.515625 27.984375 
Q 5.515625 40.671875 11.671875 48.328125 
Q 17.828125 56 27.875 56 
Q 33.9375 56 38.28125 53.609375 
Q 42.625 51.21875 45.40625 46.390625 
L 45.40625 54.6875 
L 54.390625 54.6875 
z
" id="DejaVuSans-103"/>
     <path d="M 45.40625 46.390625 
L 45.40625 75.984375 
L 54.390625 75.984375 
L 54.390625 0 
L 45.40625 0 
L 45.40625 8.203125 
Q 42.578125 3.328125 38.25 0.953125 
Q 33.9375 -1.421875 27.875 -1.421875 
Q 17.96875 -1.421875 11.734375 6.484375 
Q 5.515625 14.40625 5.515625 27.296875 
Q 5.515625 40.1875 11.734375 48.09375 
Q 17.96875 56 27.875 56 
Q 33.9375 56 38.25 53.625 
Q 42.578125 51.265625 45.40625 46.390625 
z
M 14.796875 27.296875 
Q 14.796875 17.390625 18.875 11.75 
Q 22.953125 6.109375 30.078125 6.109375 
Q 37.203125 6.109375 41.296875 11.75 
Q 45.40625 17.390625 45.40625 27.296875 
Q 45.40625 37.203125 41.296875 42.84375 
Q 37.203125 48.484375 30.078125 48.484375 
Q 22.953125 48.484375 18.875 42.84375 
Q 14.796875 37.203125 14.796875 27.296875 
z
" id="DejaVuSans-100"/>
     <path d="M 48.6875 27.296875 
Q 48.6875 37.203125 44.609375 42.84375 
Q 40.53125 48.484375 33.40625 48.484375 
Q 26.265625 48.484375 22.1875 42.84375 
Q 18.109375 37.203125 18.109375 27.296875 
Q 18.109375 17.390625 22.1875 11.75 
Q 26.265625 6.109375 33.40625 6.109375 
Q 40.53125 6.109375 44.609375 11.75 
Q 48.6875 17.390625 48.6875 27.296875 
z
M 18.109375 46.390625 
Q 20.953125 51.265625 25.265625 53.625 
Q 29.59375 56 35.59375 56 
Q 45.5625 56 51.78125 48.09375 
Q 58.015625 40.1875 58.015625 27.296875 
Q 58.015625 14.40625 51.78125 6.484375 
Q 45.5625 -1.421875 35.59375 -1.421875 
Q 29.59375 -1.421875 25.265625 0.953125 
Q 20.953125 3.328125 18.109375 8.203125 
L 18.109375 0 
L 9.078125 0 
L 9.078125 75.984375 
L 18.109375 75.984375 
z
" id="DejaVuSans-98"/>
     <path d="M 37.109375 75.984375 
L 37.109375 68.5 
L 28.515625 68.5 
Q 23.6875 68.5 21.796875 66.546875 
Q 19.921875 64.59375 19.921875 59.515625 
L 19.921875 54.6875 
L 34.71875 54.6875 
L 34.71875 47.703125 
L 19.921875 47.703125 
L 19.921875 0 
L 10.890625 0 
L 10.890625 47.703125 
L 2.296875 47.703125 
L 2.296875 54.6875 
L 10.890625 54.6875 
L 10.890625 58.5 
Q 10.890625 67.625 15.140625 71.796875 
Q 19.390625 75.984375 28.609375 75.984375 
z
" id="DejaVuSans-102"/>
    </defs>
    <g transform="translate(123.315 35.472)scale(0.12 -0.12)">
     <use xlink:href="#DejaVuSans-80"/>
     <use x="60.255859" xlink:href="#DejaVuSans-111"/>
     <use x="121.4375" xlink:href="#DejaVuSans-112"/>
     <use x="184.914062" xlink:href="#DejaVuSans-117"/>
     <use x="248.292969" xlink:href="#DejaVuSans-108"/>
     <use x="276.076172" xlink:href="#DejaVuSans-97"/>
     <use x="337.355469" xlink:href="#DejaVuSans-116"/>
     <use x="376.564453" xlink:href="#DejaVuSans-105"/>
     <use x="404.347656" xlink:href="#DejaVuSans-111"/>
     <use x="465.529297" xlink:href="#DejaVuSans-110"/>
     <use x="528.908203" xlink:href="#DejaVuSans-39"/>
     <use x="556.398438" xlink:href="#DejaVuSans-115"/>
     <use x="608.498047" xlink:href="#DejaVuSans-32"/>
     <use x="640.285156" xlink:href="#DejaVuSans-97"/>
     <use x="701.564453" xlink:href="#DejaVuSans-118"/>
     <use x="760.744141" xlink:href="#DejaVuSans-101"/>
     <use x="822.267578" xlink:href="#DejaVuSans-114"/>
     <use x="863.380859" xlink:href="#DejaVuSans-97"/>
     <use x="924.660156" xlink:href="#DejaVuSans-103"/>
     <use x="988.136719" xlink:href="#DejaVuSans-101"/>
     <use x="1049.660156" xlink:href="#DejaVuSans-32"/>
     <use x="1081.447266" xlink:href="#DejaVuSans-97"/>
     <use x="1142.726562" xlink:href="#DejaVuSans-110"/>
     <use x="1206.105469" xlink:href="#DejaVuSans-100"/>
     <use x="1269.582031" xlink:href="#DejaVuSans-32"/>
     <use x="1301.369141" xlink:href="#DejaVuSans-98"/>
     <use x="1364.845703" xlink:href="#DejaVuSans-101"/>
     <use x="1426.369141" xlink:href="#DejaVuSans-115"/>
     <use x="1478.46875" xlink:href="#DejaVuSans-116"/>
     <use x="1517.677734" xlink:href="#DejaVuSans-32"/>
     <use x="1549.464844" xlink:href="#DejaVuSans-102"/>
     <use x="1584.669922" xlink:href="#DejaVuSans-105"/>
     <use x="1612.453125" xlink:href="#DejaVuSans-116"/>
     <use x="1651.662109" xlink:href="#DejaVuSans-110"/>
     <use x="1715.041016" xlink:href="#DejaVuSans-101"/>
     <use x="1776.564453" xlink:href="#DejaVuSans-115"/>
     <use x="1828.664062" xlink:href="#DejaVuSans-115"/>
    </g>
   </g>
   <g id="legend_1">
    <g id="patch_7">
     <path d="M 334.779375 108.1845 
L 407.72 108.1845 
Q 409.72 108.1845 409.72 106.1845 
L 409.72 48.472 
Q 409.72 46.472 407.72 46.472 
L 334.779375 46.472 
Q 332.779375 46.472 332.779375 48.472 
L 332.779375 106.1845 
Q 332.779375 108.1845 334.779375 108.1845 
z
" style="fill:#ffffff;opacity:0.8;stroke:#cccccc;stroke-linejoin:miter;"/>
    </g>
    <g id="line2d_35">
     <path d="M 336.779375 54.570438 
L 356.779375 54.570438 
" style="fill:none;stroke:#0000ff;stroke-linecap:square;stroke-width:1.5;"/>
    </g>
    <g id="line2d_36"/>
    <g id="text_19">
     <!-- average -->
     <g transform="translate(364.779375 58.070438)scale(0.1 -0.1)">
      <use xlink:href="#DejaVuSans-97"/>
      <use x="61.279297" xlink:href="#DejaVuSans-118"/>
      <use x="120.458984" xlink:href="#DejaVuSans-101"/>
      <use x="181.982422" xlink:href="#DejaVuSans-114"/>
      <use x="223.095703" xlink:href="#DejaVuSans-97"/>
      <use x="284.375" xlink:href="#DejaVuSans-103"/>
      <use x="347.851562" xlink:href="#DejaVuSans-101"/>
     </g>
    </g>
    <g id="line2d_37">
     <path d="M 336.779375 69.248563 
L 356.779375 69.248563 
" style="fill:none;stroke:#008000;stroke-dasharray:9.6,2.4,1.5,2.4;stroke-dashoffset:0;stroke-width:1.5;"/>
    </g>
    <g id="line2d_38"/>
    <g id="text_20">
     <!-- -1 sd -->
     <defs>
      <path d="M 4.890625 31.390625 
L 31.203125 31.390625 
L 31.203125 23.390625 
L 4.890625 23.390625 
z
" id="DejaVuSans-45"/>
     </defs>
     <g transform="translate(364.779375 72.748563)scale(0.1 -0.1)">
      <use xlink:href="#DejaVuSans-45"/>
      <use x="36.083984" xlink:href="#DejaVuSans-49"/>
      <use x="99.707031" xlink:href="#DejaVuSans-32"/>
      <use x="131.494141" xlink:href="#DejaVuSans-115"/>
      <use x="183.59375" xlink:href="#DejaVuSans-100"/>
     </g>
    </g>
    <g id="line2d_39">
     <path d="M 336.779375 83.926688 
L 356.779375 83.926688 
" style="fill:none;stroke:#008000;stroke-dasharray:9.6,2.4,1.5,2.4;stroke-dashoffset:0;stroke-width:1.5;"/>
    </g>
    <g id="line2d_40"/>
    <g id="text_21">
     <!-- +1 sd -->
     <defs>
      <path d="M 46 62.703125 
L 46 35.5 
L 73.1875 35.5 
L 73.1875 27.203125 
L 46 27.203125 
L 46 0 
L 37.796875 0 
L 37.796875 27.203125 
L 10.59375 27.203125 
L 10.59375 35.5 
L 37.796875 35.5 
L 37.796875 62.703125 
z
" id="DejaVuSans-43"/>
     </defs>
     <g transform="translate(364.779375 87.426688)scale(0.1 -0.1)">
      <use xlink:href="#DejaVuSans-43"/>
      <use x="83.789062" xlink:href="#DejaVuSans-49"/>
      <use x="147.412109" xlink:href="#DejaVuSans-32"/>
      <use x="179.199219" xlink:href="#DejaVuSans-115"/>
      <use x="231.298828" xlink:href="#DejaVuSans-100"/>
     </g>
    </g>
    <g id="line2d_41">
     <path d="M 336.779375 98.604813 
L 356.779375 98.604813 
" style="fill:none;stroke:#ff0000;stroke-linecap:square;stroke-width:1.5;"/>
    </g>
    <g id="line2d_42"/>
    <g id="text_22">
     <!-- best -->
     <g transform="translate(364.779375 102.104813)scale(0.1 -0.1)">
      <use xlink:href="#DejaVuSans-98"/>
      <use x="63.476562" xlink:href="#DejaVuSans-101"/>
      <use x="125" xlink:href="#DejaVuSans-115"/>
      <use x="177.099609" xlink:href="#DejaVuSans-116"/>
     </g>
    </g>
   </g>
  </g>
 </g>
 <defs>
  <clipPath id="pd8c38daa36">
   <rect height="266.112" width="357.12" x="57.6" y="41.472"/>
  </clipPath>
 </defs>
</svg>
