<?xml version="1.0" encoding="utf-8" standalone="no"?>
<!DOCTYPE svg PUBLIC "-//W3C//DTD SVG 1.1//EN"
  "http://www.w3.org/Graphics/SVG/1.1/DTD/svg11.dtd">
<!-- Created with matplotlib (https://matplotlib.org/) -->
<svg height="345.6pt" version="1.1" viewBox="0 0 460.8 345.6" width="460.8pt" xmlns="http://www.w3.org/2000/svg" xmlns:xlink="http://www.w3.org/1999/xlink">
 <defs>
  <style type="text/css">
*{stroke-linecap:butt;stroke-linejoin:round;}
  </style>
 </defs>
 <g id="figure_1">
  <g id="patch_1">
   <path d="M 0 345.6 
L 460.8 345.6 
L 460.8 0 
L 0 0 
z
" style="fill:#ffffff;"/>
  </g>
  <g id="axes_1">
   <g id="patch_2">
    <path d="M 57.6 307.584 
L 414.72 307.584 
L 414.72 41.472 
L 57.6 41.472 
z
" style="fill:#ffffff;"/>
   </g>
   <g id="matplotlib.axis_1">
    <g id="xtick_1">
     <g id="line2d_1">
      <path clip-path="url(#pbd2e4e041e)" d="M 73.832727 307.584 
L 73.832727 41.472 
" style="fill:none;stroke:#b0b0b0;stroke-linecap:square;stroke-width:0.8;"/>
     </g>
     <g id="line2d_2">
      <defs>
       <path d="M 0 0 
L 0 3.5 
" id="mdd99150bd2" style="stroke:#000000;stroke-width:0.8;"/>
      </defs>
      <g>
       <use style="stroke:#000000;stroke-width:0.8;" x="73.832727" xlink:href="#mdd99150bd2" y="307.584"/>
      </g>
     </g>
     <g id="text_1">
      <!-- 0 -->
      <defs>
       <path d="M 31.78125 66.40625 
Q 24.171875 66.40625 20.328125 58.90625 
Q 16.5 51.421875 16.5 36.375 
Q 16.5 21.390625 20.328125 13.890625 
Q 24.171875 6.390625 31.78125 6.390625 
Q 39.453125 6.390625 43.28125 13.890625 
Q 47.125 21.390625 47.125 36.375 
Q 47.125 51.421875 43.28125 58.90625 
Q 39.453125 66.40625 31.78125 66.40625 
z
M 31.78125 74.21875 
Q 44.046875 74.21875 50.515625 64.515625 
Q 56.984375 54.828125 56.984375 36.375 
Q 56.984375 17.96875 50.515625 8.265625 
Q 44.046875 -1.421875 31.78125 -1.421875 
Q 19.53125 -1.421875 13.0625 8.265625 
Q 6.59375 17.96875 6.59375 36.375 
Q 6.59375 54.828125 13.0625 64.515625 
Q 19.53125 74.21875 31.78125 74.21875 
z
" id="DejaVuSans-48"/>
      </defs>
      <g transform="translate(70.651477 322.182437)scale(0.1 -0.1)">
       <use xlink:href="#DejaVuSans-48"/>
      </g>
     </g>
    </g>
    <g id="xtick_2">
     <g id="line2d_3">
      <path clip-path="url(#pbd2e4e041e)" d="M 138.893758 307.584 
L 138.893758 41.472 
" style="fill:none;stroke:#b0b0b0;stroke-linecap:square;stroke-width:0.8;"/>
     </g>
     <g id="line2d_4">
      <g>
       <use style="stroke:#000000;stroke-width:0.8;" x="138.893758" xlink:href="#mdd99150bd2" y="307.584"/>
      </g>
     </g>
     <g id="text_2">
      <!-- 100 -->
      <defs>
       <path d="M 12.40625 8.296875 
L 28.515625 8.296875 
L 28.515625 63.921875 
L 10.984375 60.40625 
L 10.984375 69.390625 
L 28.421875 72.90625 
L 38.28125 72.90625 
L 38.28125 8.296875 
L 54.390625 8.296875 
L 54.390625 0 
L 12.40625 0 
z
" id="DejaVuSans-49"/>
      </defs>
      <g transform="translate(129.350008 322.182437)scale(0.1 -0.1)">
       <use xlink:href="#DejaVuSans-49"/>
       <use x="63.623047" xlink:href="#DejaVuSans-48"/>
       <use x="127.246094" xlink:href="#DejaVuSans-48"/>
      </g>
     </g>
    </g>
    <g id="xtick_3">
     <g id="line2d_5">
      <path clip-path="url(#pbd2e4e041e)" d="M 203.95479 307.584 
L 203.95479 41.472 
" style="fill:none;stroke:#b0b0b0;stroke-linecap:square;stroke-width:0.8;"/>
     </g>
     <g id="line2d_6">
      <g>
       <use style="stroke:#000000;stroke-width:0.8;" x="203.95479" xlink:href="#mdd99150bd2" y="307.584"/>
      </g>
     </g>
     <g id="text_3">
      <!-- 200 -->
      <defs>
       <path d="M 19.1875 8.296875 
L 53.609375 8.296875 
L 53.609375 0 
L 7.328125 0 
L 7.328125 8.296875 
Q 12.9375 14.109375 22.625 23.890625 
Q 32.328125 33.6875 34.8125 36.53125 
Q 39.546875 41.84375 41.421875 45.53125 
Q 43.3125 49.21875 43.3125 52.78125 
Q 43.3125 58.59375 39.234375 62.25 
Q 35.15625 65.921875 28.609375 65.921875 
Q 23.96875 65.921875 18.8125 64.3125 
Q 13.671875 62.703125 7.8125 59.421875 
L 7.8125 69.390625 
Q 13.765625 71.78125 18.9375 73 
Q 24.125 74.21875 28.421875 74.21875 
Q 39.75 74.21875 46.484375 68.546875 
Q 53.21875 62.890625 53.21875 53.421875 
Q 53.21875 48.921875 51.53125 44.890625 
Q 49.859375 40.875 45.40625 35.40625 
Q 44.1875 33.984375 37.640625 27.21875 
Q 31.109375 20.453125 19.1875 8.296875 
z
" id="DejaVuSans-50"/>
      </defs>
      <g transform="translate(194.41104 322.182437)scale(0.1 -0.1)">
       <use xlink:href="#DejaVuSans-50"/>
       <use x="63.623047" xlink:href="#DejaVuSans-48"/>
       <use x="127.246094" xlink:href="#DejaVuSans-48"/>
      </g>
     </g>
    </g>
    <g id="xtick_4">
     <g id="line2d_7">
      <path clip-path="url(#pbd2e4e041e)" d="M 269.015821 307.584 
L 269.015821 41.472 
" style="fill:none;stroke:#b0b0b0;stroke-linecap:square;stroke-width:0.8;"/>
     </g>
     <g id="line2d_8">
      <g>
       <use style="stroke:#000000;stroke-width:0.8;" x="269.015821" xlink:href="#mdd99150bd2" y="307.584"/>
      </g>
     </g>
     <g id="text_4">
      <!-- 300 -->
      <defs>
       <path d="M 40.578125 39.3125 
Q 47.65625 37.796875 51.625 33 
Q 55.609375 28.21875 55.609375 21.1875 
Q 55.609375 10.40625 48.1875 4.484375 
Q 40.765625 -1.421875 27.09375 -1.421875 
Q 22.515625 -1.421875 17.65625 -0.515625 
Q 12.796875 0.390625 7.625 2.203125 
L 7.625 11.71875 
Q 11.71875 9.328125 16.59375 8.109375 
Q 21.484375 6.890625 26.8125 6.890625 
Q 36.078125 6.890625 40.9375 10.546875 
Q 45.796875 14.203125 45.796875 21.1875 
Q 45.796875 27.640625 41.28125 31.265625 
Q 36.765625 34.90625 28.71875 34.90625 
L 20.21875 34.90625 
L 20.21875 43.015625 
L 29.109375 43.015625 
Q 36.375 43.015625 40.234375 45.921875 
Q 44.09375 48.828125 44.09375 54.296875 
Q 44.09375 59.90625 40.109375 62.90625 
Q 36.140625 65.921875 28.71875 65.921875 
Q 24.65625 65.921875 20.015625 65.03125 
Q 15.375 64.15625 9.8125 62.3125 
L 9.8125 71.09375 
Q 15.4375 72.65625 20.34375 73.4375 
Q 25.25 74.21875 29.59375 74.21875 
Q 40.828125 74.21875 47.359375 69.109375 
Q 53.90625 64.015625 53.90625 55.328125 
Q 53.90625 49.265625 50.4375 45.09375 
Q 46.96875 40.921875 40.578125 39.3125 
z
" id="DejaVuSans-51"/>
      </defs>
      <g transform="translate(259.472071 322.182437)scale(0.1 -0.1)">
       <use xlink:href="#DejaVuSans-51"/>
       <use x="63.623047" xlink:href="#DejaVuSans-48"/>
       <use x="127.246094" xlink:href="#DejaVuSans-48"/>
      </g>
     </g>
    </g>
    <g id="xtick_5">
     <g id="line2d_9">
      <path clip-path="url(#pbd2e4e041e)" d="M 334.076852 307.584 
L 334.076852 41.472 
" style="fill:none;stroke:#b0b0b0;stroke-linecap:square;stroke-width:0.8;"/>
     </g>
     <g id="line2d_10">
      <g>
       <use style="stroke:#000000;stroke-width:0.8;" x="334.076852" xlink:href="#mdd99150bd2" y="307.584"/>
      </g>
     </g>
     <g id="text_5">
      <!-- 400 -->
      <defs>
       <path d="M 37.796875 64.3125 
L 12.890625 25.390625 
L 37.796875 25.390625 
z
M 35.203125 72.90625 
L 47.609375 72.90625 
L 47.609375 25.390625 
L 58.015625 25.390625 
L 58.015625 17.1875 
L 47.609375 17.1875 
L 47.609375 0 
L 37.796875 0 
L 37.796875 17.1875 
L 4.890625 17.1875 
L 4.890625 26.703125 
z
" id="DejaVuSans-52"/>
      </defs>
      <g transform="translate(324.533102 322.182437)scale(0.1 -0.1)">
       <use xlink:href="#DejaVuSans-52"/>
       <use x="63.623047" xlink:href="#DejaVuSans-48"/>
       <use x="127.246094" xlink:href="#DejaVuSans-48"/>
      </g>
     </g>
    </g>
    <g id="xtick_6">
     <g id="line2d_11">
      <path clip-path="url(#pbd2e4e041e)" d="M 399.137883 307.584 
L 399.137883 41.472 
" style="fill:none;stroke:#b0b0b0;stroke-linecap:square;stroke-width:0.8;"/>
     </g>
     <g id="line2d_12">
      <g>
       <use style="stroke:#000000;stroke-width:0.8;" x="399.137883" xlink:href="#mdd99150bd2" y="307.584"/>
      </g>
     </g>
     <g id="text_6">
      <!-- 500 -->
      <defs>
       <path d="M 10.796875 72.90625 
L 49.515625 72.90625 
L 49.515625 64.59375 
L 19.828125 64.59375 
L 19.828125 46.734375 
Q 21.96875 47.46875 24.109375 47.828125 
Q 26.265625 48.1875 28.421875 48.1875 
Q 40.625 48.1875 47.75 41.5 
Q 54.890625 34.8125 54.890625 23.390625 
Q 54.890625 11.625 47.5625 5.09375 
Q 40.234375 -1.421875 26.90625 -1.421875 
Q 22.3125 -1.421875 17.546875 -0.640625 
Q 12.796875 0.140625 7.71875 1.703125 
L 7.71875 11.625 
Q 12.109375 9.234375 16.796875 8.0625 
Q 21.484375 6.890625 26.703125 6.890625 
Q 35.15625 6.890625 40.078125 11.328125 
Q 45.015625 15.765625 45.015625 23.390625 
Q 45.015625 31 40.078125 35.4375 
Q 35.15625 39.890625 26.703125 39.890625 
Q 22.75 39.890625 18.8125 39.015625 
Q 14.890625 38.140625 10.796875 36.28125 
z
" id="DejaVuSans-53"/>
      </defs>
      <g transform="translate(389.594133 322.182437)scale(0.1 -0.1)">
       <use xlink:href="#DejaVuSans-53"/>
       <use x="63.623047" xlink:href="#DejaVuSans-48"/>
       <use x="127.246094" xlink:href="#DejaVuSans-48"/>
      </g>
     </g>
    </g>
    <g id="text_7">
     <!-- Generations -->
     <defs>
      <path d="M 59.515625 10.40625 
L 59.515625 29.984375 
L 43.40625 29.984375 
L 43.40625 38.09375 
L 69.28125 38.09375 
L 69.28125 6.78125 
Q 63.578125 2.734375 56.6875 0.65625 
Q 49.8125 -1.421875 42 -1.421875 
Q 24.90625 -1.421875 15.25 8.5625 
Q 5.609375 18.5625 5.609375 36.375 
Q 5.609375 54.25 15.25 64.234375 
Q 24.90625 74.21875 42 74.21875 
Q 49.125 74.21875 55.546875 72.453125 
Q 61.96875 70.703125 67.390625 67.28125 
L 67.390625 56.78125 
Q 61.921875 61.421875 55.765625 63.765625 
Q 49.609375 66.109375 42.828125 66.109375 
Q 29.4375 66.109375 22.71875 58.640625 
Q 16.015625 51.171875 16.015625 36.375 
Q 16.015625 21.625 22.71875 14.15625 
Q 29.4375 6.6875 42.828125 6.6875 
Q 48.046875 6.6875 52.140625 7.59375 
Q 56.25 8.5 59.515625 10.40625 
z
" id="DejaVuSans-71"/>
      <path d="M 56.203125 29.59375 
L 56.203125 25.203125 
L 14.890625 25.203125 
Q 15.484375 15.921875 20.484375 11.0625 
Q 25.484375 6.203125 34.421875 6.203125 
Q 39.59375 6.203125 44.453125 7.46875 
Q 49.3125 8.734375 54.109375 11.28125 
L 54.109375 2.78125 
Q 49.265625 0.734375 44.1875 -0.34375 
Q 39.109375 -1.421875 33.890625 -1.421875 
Q 20.796875 -1.421875 13.15625 6.1875 
Q 5.515625 13.8125 5.515625 26.8125 
Q 5.515625 40.234375 12.765625 48.109375 
Q 20.015625 56 32.328125 56 
Q 43.359375 56 49.78125 48.890625 
Q 56.203125 41.796875 56.203125 29.59375 
z
M 47.21875 32.234375 
Q 47.125 39.59375 43.09375 43.984375 
Q 39.0625 48.390625 32.421875 48.390625 
Q 24.90625 48.390625 20.390625 44.140625 
Q 15.875 39.890625 15.1875 32.171875 
z
" id="DejaVuSans-101"/>
      <path d="M 54.890625 33.015625 
L 54.890625 0 
L 45.90625 0 
L 45.90625 32.71875 
Q 45.90625 40.484375 42.875 44.328125 
Q 39.84375 48.1875 33.796875 48.1875 
Q 26.515625 48.1875 22.3125 43.546875 
Q 18.109375 38.921875 18.109375 30.90625 
L 18.109375 0 
L 9.078125 0 
L 9.078125 54.6875 
L 18.109375 54.6875 
L 18.109375 46.1875 
Q 21.34375 51.125 25.703125 53.5625 
Q 30.078125 56 35.796875 56 
Q 45.21875 56 50.046875 50.171875 
Q 54.890625 44.34375 54.890625 33.015625 
z
" id="DejaVuSans-110"/>
      <path d="M 41.109375 46.296875 
Q 39.59375 47.171875 37.8125 47.578125 
Q 36.03125 48 33.890625 48 
Q 26.265625 48 22.1875 43.046875 
Q 18.109375 38.09375 18.109375 28.8125 
L 18.109375 0 
L 9.078125 0 
L 9.078125 54.6875 
L 18.109375 54.6875 
L 18.109375 46.1875 
Q 20.953125 51.171875 25.484375 53.578125 
Q 30.03125 56 36.53125 56 
Q 37.453125 56 38.578125 55.875 
Q 39.703125 55.765625 41.0625 55.515625 
z
" id="DejaVuSans-114"/>
      <path d="M 34.28125 27.484375 
Q 23.390625 27.484375 19.1875 25 
Q 14.984375 22.515625 14.984375 16.5 
Q 14.984375 11.71875 18.140625 8.90625 
Q 21.296875 6.109375 26.703125 6.109375 
Q 34.1875 6.109375 38.703125 11.40625 
Q 43.21875 16.703125 43.21875 25.484375 
L 43.21875 27.484375 
z
M 52.203125 31.203125 
L 52.203125 0 
L 43.21875 0 
L 43.21875 8.296875 
Q 40.140625 3.328125 35.546875 0.953125 
Q 30.953125 -1.421875 24.3125 -1.421875 
Q 15.921875 -1.421875 10.953125 3.296875 
Q 6 8.015625 6 15.921875 
Q 6 25.140625 12.171875 29.828125 
Q 18.359375 34.515625 30.609375 34.515625 
L 43.21875 34.515625 
L 43.21875 35.40625 
Q 43.21875 41.609375 39.140625 45 
Q 35.0625 48.390625 27.6875 48.390625 
Q 23 48.390625 18.546875 47.265625 
Q 14.109375 46.140625 10.015625 43.890625 
L 10.015625 52.203125 
Q 14.9375 54.109375 19.578125 55.046875 
Q 24.21875 56 28.609375 56 
Q 40.484375 56 46.34375 49.84375 
Q 52.203125 43.703125 52.203125 31.203125 
z
" id="DejaVuSans-97"/>
      <path d="M 18.3125 70.21875 
L 18.3125 54.6875 
L 36.8125 54.6875 
L 36.8125 47.703125 
L 18.3125 47.703125 
L 18.3125 18.015625 
Q 18.3125 11.328125 20.140625 9.421875 
Q 21.96875 7.515625 27.59375 7.515625 
L 36.8125 7.515625 
L 36.8125 0 
L 27.59375 0 
Q 17.1875 0 13.234375 3.875 
Q 9.28125 7.765625 9.28125 18.015625 
L 9.28125 47.703125 
L 2.6875 47.703125 
L 2.6875 54.6875 
L 9.28125 54.6875 
L 9.28125 70.21875 
z
" id="DejaVuSans-116"/>
      <path d="M 9.421875 54.6875 
L 18.40625 54.6875 
L 18.40625 0 
L 9.421875 0 
z
M 9.421875 75.984375 
L 18.40625 75.984375 
L 18.40625 64.59375 
L 9.421875 64.59375 
z
" id="DejaVuSans-105"/>
      <path d="M 30.609375 48.390625 
Q 23.390625 48.390625 19.1875 42.75 
Q 14.984375 37.109375 14.984375 27.296875 
Q 14.984375 17.484375 19.15625 11.84375 
Q 23.34375 6.203125 30.609375 6.203125 
Q 37.796875 6.203125 41.984375 11.859375 
Q 46.1875 17.53125 46.1875 27.296875 
Q 46.1875 37.015625 41.984375 42.703125 
Q 37.796875 48.390625 30.609375 48.390625 
z
M 30.609375 56 
Q 42.328125 56 49.015625 48.375 
Q 55.71875 40.765625 55.71875 27.296875 
Q 55.71875 13.875 49.015625 6.21875 
Q 42.328125 -1.421875 30.609375 -1.421875 
Q 18.84375 -1.421875 12.171875 6.21875 
Q 5.515625 13.875 5.515625 27.296875 
Q 5.515625 40.765625 12.171875 48.375 
Q 18.84375 56 30.609375 56 
z
" id="DejaVuSans-111"/>
      <path d="M 44.28125 53.078125 
L 44.28125 44.578125 
Q 40.484375 46.53125 36.375 47.5 
Q 32.28125 48.484375 27.875 48.484375 
Q 21.1875 48.484375 17.84375 46.4375 
Q 14.5 44.390625 14.5 40.28125 
Q 14.5 37.15625 16.890625 35.375 
Q 19.28125 33.59375 26.515625 31.984375 
L 29.59375 31.296875 
Q 39.15625 29.25 43.1875 25.515625 
Q 47.21875 21.78125 47.21875 15.09375 
Q 47.21875 7.46875 41.1875 3.015625 
Q 35.15625 -1.421875 24.609375 -1.421875 
Q 20.21875 -1.421875 15.453125 -0.5625 
Q 10.6875 0.296875 5.421875 2 
L 5.421875 11.28125 
Q 10.40625 8.6875 15.234375 7.390625 
Q 20.0625 6.109375 24.8125 6.109375 
Q 31.15625 6.109375 34.5625 8.28125 
Q 37.984375 10.453125 37.984375 14.40625 
Q 37.984375 18.0625 35.515625 20.015625 
Q 33.0625 21.96875 24.703125 23.78125 
L 21.578125 24.515625 
Q 13.234375 26.265625 9.515625 29.90625 
Q 5.8125 33.546875 5.8125 39.890625 
Q 5.8125 47.609375 11.28125 51.796875 
Q 16.75 56 26.8125 56 
Q 31.78125 56 36.171875 55.265625 
Q 40.578125 54.546875 44.28125 53.078125 
z
" id="DejaVuSans-115"/>
     </defs>
     <g transform="translate(205.662344 335.860562)scale(0.1 -0.1)">
      <use xlink:href="#DejaVuSans-71"/>
      <use x="77.490234" xlink:href="#DejaVuSans-101"/>
      <use x="139.013672" xlink:href="#DejaVuSans-110"/>
      <use x="202.392578" xlink:href="#DejaVuSans-101"/>
      <use x="263.916016" xlink:href="#DejaVuSans-114"/>
      <use x="305.029297" xlink:href="#DejaVuSans-97"/>
      <use x="366.308594" xlink:href="#DejaVuSans-116"/>
      <use x="405.517578" xlink:href="#DejaVuSans-105"/>
      <use x="433.300781" xlink:href="#DejaVuSans-111"/>
      <use x="494.482422" xlink:href="#DejaVuSans-110"/>
      <use x="557.861328" xlink:href="#DejaVuSans-115"/>
     </g>
    </g>
   </g>
   <g id="matplotlib.axis_2">
    <g id="ytick_1">
     <g id="line2d_13">
      <path clip-path="url(#pbd2e4e041e)" d="M 57.6 293.981382 
L 414.72 293.981382 
" style="fill:none;stroke:#b0b0b0;stroke-linecap:square;stroke-width:0.8;"/>
     </g>
     <g id="line2d_14">
      <defs>
       <path d="M 0 0 
L -3.5 0 
" id="mcee17216c3" style="stroke:#000000;stroke-width:0.8;"/>
      </defs>
      <g>
       <use style="stroke:#000000;stroke-width:0.8;" x="57.6" xlink:href="#mcee17216c3" y="293.981382"/>
      </g>
     </g>
     <g id="text_8">
      <!-- −10.0 -->
      <defs>
       <path d="M 10.59375 35.5 
L 73.1875 35.5 
L 73.1875 27.203125 
L 10.59375 27.203125 
z
" id="DejaVuSans-8722"/>
       <path d="M 10.6875 12.40625 
L 21 12.40625 
L 21 0 
L 10.6875 0 
z
" id="DejaVuSans-46"/>
      </defs>
      <g transform="translate(19.954687 297.780601)scale(0.1 -0.1)">
       <use xlink:href="#DejaVuSans-8722"/>
       <use x="83.789062" xlink:href="#DejaVuSans-49"/>
       <use x="147.412109" xlink:href="#DejaVuSans-48"/>
       <use x="211.035156" xlink:href="#DejaVuSans-46"/>
       <use x="242.822266" xlink:href="#DejaVuSans-48"/>
      </g>
     </g>
    </g>
    <g id="ytick_2">
     <g id="line2d_15">
      <path clip-path="url(#pbd2e4e041e)" d="M 57.6 260.317254 
L 414.72 260.317254 
" style="fill:none;stroke:#b0b0b0;stroke-linecap:square;stroke-width:0.8;"/>
     </g>
     <g id="line2d_16">
      <g>
       <use style="stroke:#000000;stroke-width:0.8;" x="57.6" xlink:href="#mcee17216c3" y="260.317254"/>
      </g>
     </g>
     <g id="text_9">
      <!-- −7.5 -->
      <defs>
       <path d="M 8.203125 72.90625 
L 55.078125 72.90625 
L 55.078125 68.703125 
L 28.609375 0 
L 18.3125 0 
L 43.21875 64.59375 
L 8.203125 64.59375 
z
" id="DejaVuSans-55"/>
      </defs>
      <g transform="translate(26.317187 264.116473)scale(0.1 -0.1)">
       <use xlink:href="#DejaVuSans-8722"/>
       <use x="83.789062" xlink:href="#DejaVuSans-55"/>
       <use x="147.412109" xlink:href="#DejaVuSans-46"/>
       <use x="179.199219" xlink:href="#DejaVuSans-53"/>
      </g>
     </g>
    </g>
    <g id="ytick_3">
     <g id="line2d_17">
      <path clip-path="url(#pbd2e4e041e)" d="M 57.6 226.653126 
L 414.72 226.653126 
" style="fill:none;stroke:#b0b0b0;stroke-linecap:square;stroke-width:0.8;"/>
     </g>
     <g id="line2d_18">
      <g>
       <use style="stroke:#000000;stroke-width:0.8;" x="57.6" xlink:href="#mcee17216c3" y="226.653126"/>
      </g>
     </g>
     <g id="text_10">
      <!-- −5.0 -->
      <g transform="translate(26.317187 230.452345)scale(0.1 -0.1)">
       <use xlink:href="#DejaVuSans-8722"/>
       <use x="83.789062" xlink:href="#DejaVuSans-53"/>
       <use x="147.412109" xlink:href="#DejaVuSans-46"/>
       <use x="179.199219" xlink:href="#DejaVuSans-48"/>
      </g>
     </g>
    </g>
    <g id="ytick_4">
     <g id="line2d_19">
      <path clip-path="url(#pbd2e4e041e)" d="M 57.6 192.988998 
L 414.72 192.988998 
" style="fill:none;stroke:#b0b0b0;stroke-linecap:square;stroke-width:0.8;"/>
     </g>
     <g id="line2d_20">
      <g>
       <use style="stroke:#000000;stroke-width:0.8;" x="57.6" xlink:href="#mcee17216c3" y="192.988998"/>
      </g>
     </g>
     <g id="text_11">
      <!-- −2.5 -->
      <g transform="translate(26.317187 196.788217)scale(0.1 -0.1)">
       <use xlink:href="#DejaVuSans-8722"/>
       <use x="83.789062" xlink:href="#DejaVuSans-50"/>
       <use x="147.412109" xlink:href="#DejaVuSans-46"/>
       <use x="179.199219" xlink:href="#DejaVuSans-53"/>
      </g>
     </g>
    </g>
    <g id="ytick_5">
     <g id="line2d_21">
      <path clip-path="url(#pbd2e4e041e)" d="M 57.6 159.32487 
L 414.72 159.32487 
" style="fill:none;stroke:#b0b0b0;stroke-linecap:square;stroke-width:0.8;"/>
     </g>
     <g id="line2d_22">
      <g>
       <use style="stroke:#000000;stroke-width:0.8;" x="57.6" xlink:href="#mcee17216c3" y="159.32487"/>
      </g>
     </g>
     <g id="text_12">
      <!-- 0.0 -->
      <g transform="translate(34.696875 163.124088)scale(0.1 -0.1)">
       <use xlink:href="#DejaVuSans-48"/>
       <use x="63.623047" xlink:href="#DejaVuSans-46"/>
       <use x="95.410156" xlink:href="#DejaVuSans-48"/>
      </g>
     </g>
    </g>
    <g id="ytick_6">
     <g id="line2d_23">
      <path clip-path="url(#pbd2e4e041e)" d="M 57.6 125.660741 
L 414.72 125.660741 
" style="fill:none;stroke:#b0b0b0;stroke-linecap:square;stroke-width:0.8;"/>
     </g>
     <g id="line2d_24">
      <g>
       <use style="stroke:#000000;stroke-width:0.8;" x="57.6" xlink:href="#mcee17216c3" y="125.660741"/>
      </g>
     </g>
     <g id="text_13">
      <!-- 2.5 -->
      <g transform="translate(34.696875 129.45996)scale(0.1 -0.1)">
       <use xlink:href="#DejaVuSans-50"/>
       <use x="63.623047" xlink:href="#DejaVuSans-46"/>
       <use x="95.410156" xlink:href="#DejaVuSans-53"/>
      </g>
     </g>
    </g>
    <g id="ytick_7">
     <g id="line2d_25">
      <path clip-path="url(#pbd2e4e041e)" d="M 57.6 91.996613 
L 414.72 91.996613 
" style="fill:none;stroke:#b0b0b0;stroke-linecap:square;stroke-width:0.8;"/>
     </g>
     <g id="line2d_26">
      <g>
       <use style="stroke:#000000;stroke-width:0.8;" x="57.6" xlink:href="#mcee17216c3" y="91.996613"/>
      </g>
     </g>
     <g id="text_14">
      <!-- 5.0 -->
      <g transform="translate(34.696875 95.795832)scale(0.1 -0.1)">
       <use xlink:href="#DejaVuSans-53"/>
       <use x="63.623047" xlink:href="#DejaVuSans-46"/>
       <use x="95.410156" xlink:href="#DejaVuSans-48"/>
      </g>
     </g>
    </g>
    <g id="ytick_8">
     <g id="line2d_27">
      <path clip-path="url(#pbd2e4e041e)" d="M 57.6 58.332485 
L 414.72 58.332485 
" style="fill:none;stroke:#b0b0b0;stroke-linecap:square;stroke-width:0.8;"/>
     </g>
     <g id="line2d_28">
      <g>
       <use style="stroke:#000000;stroke-width:0.8;" x="57.6" xlink:href="#mcee17216c3" y="58.332485"/>
      </g>
     </g>
     <g id="text_15">
      <!-- 7.5 -->
      <g transform="translate(34.696875 62.131704)scale(0.1 -0.1)">
       <use xlink:href="#DejaVuSans-55"/>
       <use x="63.623047" xlink:href="#DejaVuSans-46"/>
       <use x="95.410156" xlink:href="#DejaVuSans-53"/>
      </g>
     </g>
    </g>
    <g id="text_16">
     <!-- Fitness -->
     <defs>
      <path d="M 9.8125 72.90625 
L 51.703125 72.90625 
L 51.703125 64.59375 
L 19.671875 64.59375 
L 19.671875 43.109375 
L 48.578125 43.109375 
L 48.578125 34.8125 
L 19.671875 34.8125 
L 19.671875 0 
L 9.8125 0 
z
" id="DejaVuSans-70"/>
     </defs>
     <g transform="translate(13.875 192.202219)rotate(-90)scale(0.1 -0.1)">
      <use xlink:href="#DejaVuSans-70"/>
      <use x="57.410156" xlink:href="#DejaVuSans-105"/>
      <use x="85.193359" xlink:href="#DejaVuSans-116"/>
      <use x="124.402344" xlink:href="#DejaVuSans-110"/>
      <use x="187.78125" xlink:href="#DejaVuSans-101"/>
      <use x="249.304688" xlink:href="#DejaVuSans-115"/>
      <use x="301.404297" xlink:href="#DejaVuSans-115"/>
     </g>
    </g>
   </g>
   <g id="line2d_29">
    <path clip-path="url(#pbd2e4e041e)" d="M 73.832727 162.844501 
L 74.483338 162.85438 
L 75.784558 162.303216 
L 76.435169 161.640185 
L 77.085779 163.470831 
L 77.736389 164.357139 
L 78.386999 164.769266 
L 79.03761 164.09475 
L 79.68822 165.248723 
L 80.33883 163.622849 
L 80.989441 163.739186 
L 81.640051 163.285438 
L 82.941272 161.954703 
L 83.591882 162.940089 
L 84.242492 162.699012 
L 84.893103 163.305394 
L 85.543713 161.527817 
L 86.194323 162.009448 
L 86.844934 161.715706 
L 87.495544 162.484656 
L 88.146154 162.107559 
L 88.796764 161.433115 
L 89.447375 161.894903 
L 90.748595 162.511886 
L 91.399206 161.421291 
L 92.049816 162.328284 
L 92.700426 161.931601 
L 94.001647 161.739203 
L 94.652257 162.255343 
L 95.302868 161.576479 
L 96.604088 162.087869 
L 97.254698 161.621842 
L 97.905309 162.551152 
L 98.555919 163.759361 
L 99.206529 161.64839 
L 99.85714 161.982995 
L 100.50775 161.402109 
L 101.15836 162.460799 
L 101.808971 161.669784 
L 102.459581 162.446504 
L 103.110191 162.448586 
L 103.760802 161.621282 
L 104.411412 165.070462 
L 105.062022 173.136548 
L 105.712633 161.712253 
L 106.363243 162.672559 
L 107.013853 162.373028 
L 107.664463 162.997719 
L 108.965684 161.60567 
L 109.616294 162.246362 
L 110.266905 162.102015 
L 110.917515 161.679798 
L 111.568125 163.954925 
L 112.218736 161.65387 
L 112.869346 161.719181 
L 113.519956 162.063881 
L 114.170567 162.988568 
L 114.821177 161.426491 
L 115.471787 161.712687 
L 116.122398 162.415152 
L 116.773008 161.904369 
L 117.423618 161.668916 
L 118.074228 161.596397 
L 118.724839 162.806914 
L 119.375449 167.7235 
L 120.026059 161.873471 
L 121.32728 161.616587 
L 121.97789 161.229852 
L 123.279111 161.697795 
L 123.929721 161.43224 
L 124.580332 161.87093 
L 125.230942 161.916862 
L 125.881552 161.848068 
L 126.532163 162.423213 
L 127.182773 162.542648 
L 127.833383 162.931017 
L 128.483993 161.768053 
L 129.134604 162.230377 
L 129.785214 162.849683 
L 130.435824 161.590385 
L 131.086435 165.448069 
L 131.737045 162.454654 
L 132.387655 161.152067 
L 133.038266 162.343796 
L 133.688876 162.200423 
L 134.339486 162.204979 
L 134.990097 161.720479 
L 135.640707 162.970694 
L 136.291317 161.865016 
L 136.941927 161.796008 
L 137.592538 162.151918 
L 138.243148 162.300771 
L 138.893758 161.681825 
L 139.544369 162.192107 
L 140.194979 162.059813 
L 140.845589 161.623102 
L 141.4962 161.326163 
L 142.14681 162.45583 
L 142.79742 161.789249 
L 143.448031 161.936338 
L 144.749251 161.550083 
L 145.399862 161.767558 
L 146.050472 164.271133 
L 146.701082 161.397787 
L 147.351692 161.675709 
L 148.002303 164.053824 
L 148.652913 162.196084 
L 149.303523 162.005866 
L 149.954134 161.543317 
L 150.604744 161.42168 
L 151.255354 162.222364 
L 151.905965 164.36225 
L 152.556575 161.957307 
L 153.207185 162.887396 
L 153.857796 161.746216 
L 154.508406 161.585706 
L 155.159016 161.66086 
L 155.809627 161.59658 
L 156.460237 169.482969 
L 157.110847 162.192971 
L 157.761457 162.354971 
L 158.412068 162.020062 
L 159.062678 163.110015 
L 159.713288 161.404667 
L 160.363899 166.347539 
L 161.014509 162.092236 
L 161.665119 161.603172 
L 162.31573 162.169629 
L 162.96634 163.012981 
L 163.61695 162.109584 
L 164.267561 161.716385 
L 164.918171 162.420666 
L 165.568781 161.582517 
L 166.219392 161.83708 
L 166.870002 161.847194 
L 167.520612 161.296778 
L 168.171222 163.582251 
L 168.821833 162.992623 
L 169.472443 161.431409 
L 170.123053 161.753759 
L 170.773664 164.562326 
L 171.424274 162.380187 
L 172.074884 161.921437 
L 172.725495 162.497491 
L 173.376105 161.502043 
L 174.026715 161.623565 
L 174.677326 161.526683 
L 175.327936 162.181022 
L 175.978546 164.09789 
L 176.629156 163.27267 
L 177.279767 162.08629 
L 177.930377 162.388964 
L 178.580987 161.447167 
L 179.231598 163.047553 
L 179.882208 161.401622 
L 180.532818 162.309246 
L 181.183429 162.041578 
L 181.834039 163.782496 
L 182.484649 161.421592 
L 183.13526 161.546946 
L 183.78587 161.803042 
L 184.43648 161.621001 
L 185.087091 161.920564 
L 185.737701 162.750013 
L 186.388311 163.180464 
L 187.038921 161.646247 
L 187.689532 161.912675 
L 188.340142 163.199133 
L 188.990752 162.309744 
L 189.641363 163.480816 
L 190.291973 161.561269 
L 190.942583 161.99663 
L 191.593194 161.894089 
L 192.243804 162.013425 
L 192.894414 162.892953 
L 193.545025 161.490074 
L 194.195635 161.560489 
L 195.496856 161.263376 
L 196.147466 161.931731 
L 196.798076 162.288952 
L 197.448686 161.703506 
L 198.099297 163.253231 
L 198.749907 162.94394 
L 199.400517 162.36854 
L 200.051128 163.169596 
L 200.701738 161.70448 
L 201.352348 162.336934 
L 202.002959 162.10174 
L 202.653569 170.375513 
L 203.304179 162.433245 
L 203.95479 161.951841 
L 204.6054 163.47598 
L 205.25601 162.308763 
L 205.906621 161.850815 
L 206.557231 161.723892 
L 207.207841 161.954286 
L 207.858451 162.498745 
L 208.509062 161.893975 
L 209.159672 161.754839 
L 209.810282 164.991585 
L 210.460893 162.527513 
L 211.111503 161.618031 
L 211.762113 161.579509 
L 212.412724 161.396415 
L 213.063334 161.507738 
L 213.713944 161.449654 
L 214.364555 162.006189 
L 215.015165 162.246592 
L 215.665775 162.635705 
L 216.316385 162.002257 
L 216.966996 163.033464 
L 217.617606 161.54801 
L 218.918827 161.724683 
L 219.569437 162.362209 
L 220.870658 161.803899 
L 221.521268 161.766569 
L 222.171878 166.296027 
L 222.822489 161.578935 
L 224.123709 161.361802 
L 224.77432 161.888655 
L 226.07554 161.239108 
L 226.72615 162.013984 
L 227.376761 161.632853 
L 228.027371 161.479893 
L 228.677981 162.826428 
L 229.328592 161.446558 
L 229.979202 162.20735 
L 230.629812 161.533021 
L 231.280423 162.0171 
L 231.931033 161.798136 
L 232.581643 161.900315 
L 233.232254 161.570851 
L 233.882864 161.73265 
L 234.533474 162.279968 
L 235.184085 161.395852 
L 235.834695 162.540406 
L 236.485305 161.61628 
L 237.135915 163.103682 
L 237.786526 163.219415 
L 238.437136 161.307133 
L 239.087746 161.742445 
L 239.738357 162.353126 
L 240.388967 161.403511 
L 241.690188 161.879787 
L 242.340798 161.591532 
L 242.991408 161.710488 
L 243.642019 161.396503 
L 244.292629 161.687197 
L 245.59385 161.757622 
L 246.24446 163.047228 
L 246.89507 161.735309 
L 247.54568 162.317094 
L 248.196291 161.741807 
L 248.846901 161.633006 
L 249.497511 163.404042 
L 250.148122 162.058495 
L 250.798732 164.057405 
L 251.449342 161.818599 
L 252.099953 161.385332 
L 252.750563 162.588348 
L 253.401173 162.497107 
L 254.051784 162.276464 
L 254.702394 161.585509 
L 255.353004 161.177175 
L 256.003615 161.279318 
L 256.654225 162.841325 
L 257.304835 163.989548 
L 257.955445 161.833157 
L 258.606056 161.616163 
L 259.256666 161.900575 
L 259.907276 162.993855 
L 260.557887 162.686234 
L 261.208497 161.360254 
L 261.859107 166.404 
L 262.509718 161.68796 
L 263.160328 161.381006 
L 264.461549 161.852245 
L 265.112159 161.481797 
L 265.762769 161.855571 
L 266.413379 161.34099 
L 267.06399 165.011463 
L 267.7146 161.795292 
L 268.36521 168.508437 
L 269.015821 171.142145 
L 269.666431 162.449302 
L 270.317041 162.621715 
L 271.618262 162.21372 
L 272.268872 161.485837 
L 272.919483 161.839396 
L 274.220703 162.041286 
L 274.871314 161.712571 
L 275.521924 163.3084 
L 276.172534 163.620473 
L 276.823144 164.12665 
L 277.473755 162.229566 
L 278.124365 163.263979 
L 278.774975 162.369993 
L 280.076196 161.879645 
L 280.726806 161.732795 
L 281.377417 161.4411 
L 282.028027 162.815312 
L 282.678637 161.307202 
L 283.329248 165.0995 
L 283.979858 161.963745 
L 284.630468 161.305856 
L 285.281079 161.315791 
L 285.931689 161.544348 
L 286.582299 164.52405 
L 287.232909 162.064978 
L 287.88352 161.495058 
L 288.53413 161.73076 
L 289.18474 162.611956 
L 289.835351 161.335835 
L 290.485961 162.575809 
L 291.136571 161.36091 
L 291.787182 166.245161 
L 292.437792 161.603931 
L 293.088402 163.226268 
L 293.739013 162.206224 
L 294.389623 164.880557 
L 295.040233 163.779128 
L 296.341454 163.266684 
L 296.992064 163.066637 
L 297.642674 163.309114 
L 298.293285 161.49839 
L 298.943895 162.727204 
L 299.594505 162.1694 
L 300.245116 162.289686 
L 300.895726 163.735271 
L 302.847557 161.840087 
L 303.498167 162.286546 
L 304.148778 162.289228 
L 304.799388 161.427976 
L 305.449998 161.893288 
L 306.100608 164.446841 
L 306.751219 162.828092 
L 307.401829 161.979371 
L 308.052439 163.369589 
L 308.70305 162.688333 
L 309.35366 162.876916 
L 310.00427 161.631264 
L 310.654881 163.435975 
L 311.305491 162.188654 
L 311.956101 161.703566 
L 312.606712 164.568142 
L 313.257322 161.929673 
L 313.907932 162.485249 
L 314.558543 165.200608 
L 315.209153 164.032003 
L 315.859763 162.092073 
L 317.160984 161.92094 
L 317.811594 163.744285 
L 318.462204 162.638587 
L 319.112815 163.787952 
L 319.763425 163.691343 
L 320.414035 163.302372 
L 321.064646 161.544109 
L 321.715256 162.101427 
L 322.365866 161.589436 
L 323.016477 162.120805 
L 323.667087 161.775454 
L 324.317697 165.771352 
L 324.968308 161.559222 
L 325.618918 162.824507 
L 326.920138 161.73379 
L 327.570749 163.435351 
L 328.221359 161.9997 
L 328.871969 163.054752 
L 329.52258 161.709583 
L 330.17319 162.863003 
L 331.474411 161.998942 
L 332.125021 162.161857 
L 332.775631 161.636222 
L 333.426242 162.294073 
L 334.076852 164.622862 
L 334.727462 162.777235 
L 335.378073 164.605318 
L 336.028683 162.231757 
L 336.679293 162.154141 
L 337.980514 164.251846 
L 339.281734 162.392431 
L 339.932345 162.536371 
L 340.582955 162.370187 
L 341.233565 161.705232 
L 341.884176 163.345579 
L 342.534786 164.184694 
L 343.185396 161.311789 
L 343.836007 162.264699 
L 344.486617 162.237534 
L 345.137227 163.227526 
L 345.787837 162.033528 
L 346.438448 162.279892 
L 347.089058 169.304468 
L 347.739668 163.046159 
L 348.390279 162.173039 
L 349.040889 162.575051 
L 350.34211 161.495642 
L 350.99272 163.791364 
L 351.64333 161.583134 
L 352.293941 162.994919 
L 352.944551 165.078269 
L 353.595161 162.045326 
L 354.245772 163.314899 
L 354.896382 166.908643 
L 356.197602 162.966345 
L 356.848213 162.784042 
L 357.498823 161.539753 
L 358.149433 174.528 
L 358.800044 161.895933 
L 359.450654 162.418754 
L 360.101264 161.453134 
L 360.751875 162.394211 
L 362.053095 162.563825 
L 362.703706 162.141148 
L 363.354316 162.457419 
L 364.004926 161.455596 
L 364.655537 163.912982 
L 365.306147 161.894237 
L 365.956757 161.605483 
L 366.607367 162.912441 
L 367.257978 162.082104 
L 367.908588 161.692715 
L 368.559198 161.764953 
L 369.209809 170.620604 
L 369.860419 162.53482 
L 370.511029 161.356936 
L 371.16164 161.509708 
L 371.81225 162.132849 
L 372.46286 162.098301 
L 373.764081 162.741453 
L 375.065302 161.618458 
L 375.715912 161.561392 
L 376.366522 162.014333 
L 377.017132 163.125103 
L 377.667743 161.563854 
L 378.318353 163.544696 
L 378.968963 162.226203 
L 379.619574 162.154327 
L 380.920794 161.579556 
L 381.571405 164.948441 
L 382.222015 162.569421 
L 382.872625 162.885881 
L 383.523236 161.352636 
L 384.173846 161.829468 
L 384.824456 162.671699 
L 385.475066 162.89487 
L 386.125677 161.932447 
L 386.776287 162.304365 
L 387.426897 161.615984 
L 388.077508 162.003236 
L 389.378728 161.31212 
L 390.029339 161.975487 
L 390.679949 163.400575 
L 391.330559 163.080338 
L 391.98117 162.579676 
L 392.63178 162.719126 
L 393.28239 162.192698 
L 393.933001 163.535935 
L 394.583611 161.658368 
L 395.884831 161.586496 
L 396.535442 162.428106 
L 397.186052 162.309282 
L 397.836662 166.576732 
L 398.487273 162.228887 
L 398.487273 162.228887 
" style="fill:none;stroke:#0000ff;stroke-linecap:square;stroke-width:1.5;"/>
   </g>
   <g id="line2d_30">
    <path clip-path="url(#pbd2e4e041e)" d="M 73.832727 164.908401 
L 74.483338 170.623777 
L 75.133948 174.295368 
L 75.784558 168.177778 
L 76.435169 163.241839 
L 77.085779 171.539989 
L 77.736389 183.190888 
L 78.386999 184.145116 
L 79.03761 182.157215 
L 79.68822 191.653263 
L 80.33883 180.486014 
L 80.989441 176.398782 
L 81.640051 174.274885 
L 82.290661 167.388325 
L 82.941272 164.326196 
L 83.591882 170.049095 
L 84.242492 168.867668 
L 84.893103 175.023842 
L 85.543713 163.201829 
L 86.194323 164.322063 
L 86.844934 163.640373 
L 87.495544 168.520974 
L 88.146154 164.234754 
L 88.796764 162.887382 
L 90.097985 165.105899 
L 90.748595 170.970409 
L 91.399206 162.804453 
L 92.049816 166.813865 
L 92.700426 164.910907 
L 93.351037 164.596304 
L 94.001647 164.142701 
L 94.652257 168.349284 
L 95.302868 163.795567 
L 95.953478 163.778451 
L 96.604088 167.271086 
L 97.254698 163.376609 
L 97.905309 172.324099 
L 98.555919 175.171061 
L 99.206529 164.145089 
L 99.85714 167.498324 
L 100.50775 163.084898 
L 101.15836 167.894056 
L 101.808971 163.956716 
L 102.459581 167.554988 
L 103.110191 168.510331 
L 103.760802 164.479714 
L 104.411412 184.157872 
L 105.062022 268.468975 
L 105.712633 163.999386 
L 106.363243 170.150102 
L 107.013853 166.435596 
L 107.664463 173.269518 
L 108.315074 170.475463 
L 108.965684 164.000804 
L 109.616294 167.848353 
L 110.917515 163.46787 
L 111.568125 188.472758 
L 112.218736 164.254835 
L 112.869346 164.275385 
L 113.519956 166.652101 
L 114.170567 174.239216 
L 114.821177 163.254134 
L 115.471787 163.635253 
L 116.122398 168.656919 
L 116.773008 165.021782 
L 117.423618 163.573969 
L 118.074228 163.471616 
L 118.724839 169.433016 
L 119.375449 215.954576 
L 120.026059 164.331533 
L 120.67667 163.727481 
L 121.32728 163.388683 
L 121.97789 162.473553 
L 122.628501 163.160587 
L 123.279111 163.561105 
L 123.929721 163.066453 
L 124.580332 164.061556 
L 125.230942 166.553033 
L 125.881552 164.600786 
L 126.532163 169.184711 
L 127.833383 173.165834 
L 128.483993 164.218187 
L 129.134604 165.276427 
L 129.785214 172.382779 
L 130.435824 163.30805 
L 131.086435 202.323047 
L 131.737045 168.143515 
L 132.387655 162.189499 
L 133.038266 167.74281 
L 133.688876 171.280524 
L 134.990097 163.518879 
L 135.640707 175.413238 
L 136.291317 165.497921 
L 136.941927 164.138108 
L 137.592538 168.180269 
L 138.243148 167.07688 
L 138.893758 164.405545 
L 139.544369 166.649178 
L 140.194979 165.81689 
L 140.845589 163.341888 
L 141.4962 162.6542 
L 142.14681 169.239371 
L 142.79742 165.061195 
L 143.448031 164.785376 
L 144.098641 163.948089 
L 144.749251 163.918283 
L 145.399862 164.672432 
L 146.050472 186.975965 
L 146.701082 162.814763 
L 147.351692 163.43596 
L 148.002303 187.110539 
L 148.652913 166.952388 
L 149.303523 166.446252 
L 149.954134 163.430365 
L 150.604744 163.698436 
L 151.255354 168.372052 
L 151.905965 190.666963 
L 152.556575 166.267567 
L 153.207185 171.761312 
L 153.857796 163.72575 
L 154.508406 163.301352 
L 155.159016 163.457124 
L 155.809627 164.119834 
L 156.460237 248.615555 
L 157.110847 167.886411 
L 158.412068 164.575318 
L 159.062678 170.833317 
L 159.713288 162.934619 
L 160.363899 195.905558 
L 161.014509 166.394449 
L 161.665119 163.582215 
L 162.31573 166.7195 
L 162.96634 179.122229 
L 163.61695 167.031915 
L 164.267561 163.888164 
L 164.918171 168.4878 
L 165.568781 163.346086 
L 166.219392 164.03507 
L 166.870002 165.545639 
L 167.520612 162.567837 
L 168.171222 175.298506 
L 168.821833 178.310218 
L 169.472443 163.870457 
L 170.123053 163.975419 
L 170.773664 194.903453 
L 171.424274 167.251477 
L 172.074884 165.321782 
L 172.725495 168.956753 
L 173.376105 163.216267 
L 174.026715 164.083221 
L 174.677326 163.113834 
L 175.327936 170.825083 
L 175.978546 190.223399 
L 176.629156 177.033988 
L 177.279767 166.924304 
L 177.930377 168.017172 
L 178.580987 163.081962 
L 179.231598 177.817734 
L 179.882208 163.213952 
L 180.532818 172.208355 
L 181.183429 167.729348 
L 181.834039 180.991008 
L 182.484649 163.098319 
L 183.13526 163.461617 
L 183.78587 165.150015 
L 184.43648 163.705685 
L 185.087091 164.040435 
L 185.737701 168.837695 
L 186.388311 175.590789 
L 187.038921 163.792738 
L 187.689532 165.424972 
L 188.340142 175.855912 
L 188.990752 166.311932 
L 189.641363 176.297079 
L 190.291973 163.301925 
L 190.942583 167.511129 
L 191.593194 164.693494 
L 192.243804 167.965241 
L 192.894414 174.141526 
L 193.545025 163.185224 
L 194.195635 163.298573 
L 194.846245 163.1206 
L 195.496856 162.693357 
L 196.147466 165.8524 
L 196.798076 167.918225 
L 197.448686 165.463367 
L 198.099297 179.269949 
L 198.749907 171.657207 
L 199.400517 166.373792 
L 200.051128 174.591343 
L 200.701738 163.678263 
L 201.352348 169.044466 
L 202.002959 168.588883 
L 202.653569 260.026424 
L 203.304179 168.23597 
L 203.95479 166.867167 
L 204.6054 175.283644 
L 205.25601 165.734423 
L 205.906621 164.865562 
L 206.557231 164.649474 
L 207.207841 164.137278 
L 207.858451 167.290826 
L 208.509062 165.408312 
L 209.159672 165.241266 
L 209.810282 199.301479 
L 210.460893 167.416186 
L 211.111503 163.407091 
L 211.762113 163.523338 
L 212.412724 163.209235 
L 213.063334 163.548598 
L 213.713944 163.075974 
L 214.364555 164.438258 
L 215.015165 169.470912 
L 215.665775 172.289683 
L 216.316385 167.817541 
L 216.966996 173.890111 
L 217.617606 163.230765 
L 218.268216 163.482054 
L 218.918827 163.949406 
L 219.569437 168.187129 
L 220.220047 166.50119 
L 220.870658 163.766524 
L 221.521268 164.48358 
L 222.171878 203.985252 
L 222.822489 163.392243 
L 223.473099 163.553644 
L 224.123709 162.7776 
L 224.77432 164.499792 
L 225.42493 162.978437 
L 226.07554 162.448754 
L 226.72615 168.663714 
L 227.376761 164.080089 
L 228.027371 163.058773 
L 228.677981 174.721491 
L 229.328592 163.003911 
L 229.979202 167.112345 
L 230.629812 164.375521 
L 231.280423 166.494351 
L 231.931033 164.20992 
L 232.581643 166.29451 
L 233.232254 163.351837 
L 233.882864 163.705532 
L 234.533474 169.456123 
L 235.184085 163.310571 
L 235.834695 169.703643 
L 236.485305 163.984989 
L 237.135915 176.456417 
L 237.786526 175.12306 
L 238.437136 162.583499 
L 239.087746 163.6916 
L 239.738357 167.617981 
L 240.388967 163.022746 
L 241.039577 163.9263 
L 241.690188 165.462887 
L 242.340798 163.63914 
L 242.991408 164.465944 
L 243.642019 162.866609 
L 244.292629 164.40667 
L 244.943239 163.407866 
L 245.59385 164.156143 
L 246.24446 175.237352 
L 246.89507 163.631219 
L 247.54568 167.810121 
L 248.196291 164.165368 
L 248.846901 163.581029 
L 249.497511 180.640419 
L 250.148122 164.573122 
L 250.798732 180.638478 
L 251.449342 164.228113 
L 252.099953 163.173518 
L 252.750563 170.134359 
L 253.401173 168.618703 
L 254.051784 166.696293 
L 254.702394 163.325408 
L 255.353004 162.666065 
L 256.003615 163.109365 
L 256.654225 175.221183 
L 257.304835 178.366042 
L 257.955445 166.16075 
L 258.606056 163.556401 
L 259.256666 164.219949 
L 259.907276 172.781774 
L 260.557887 170.139445 
L 261.208497 162.887301 
L 261.859107 210.992002 
L 262.509718 164.909334 
L 263.160328 163.184452 
L 263.810938 163.42241 
L 264.461549 164.342183 
L 265.112159 163.245524 
L 265.762769 165.305243 
L 266.413379 162.753057 
L 267.06399 190.588265 
L 267.7146 165.84436 
L 268.36521 233.662984 
L 269.015821 236.901542 
L 269.666431 168.159037 
L 270.317041 167.017421 
L 270.967652 173.56415 
L 272.268872 162.912459 
L 272.919483 164.514901 
L 273.570093 168.955687 
L 274.220703 164.892237 
L 274.871314 166.042622 
L 275.521924 174.058901 
L 276.172534 179.404176 
L 276.823144 182.434535 
L 277.473755 171.094656 
L 278.124365 171.766176 
L 278.774975 165.720356 
L 279.425586 166.148483 
L 280.076196 166.763876 
L 280.726806 164.140221 
L 281.377417 163.215523 
L 282.028027 171.938283 
L 282.678637 162.880917 
L 283.329248 188.708854 
L 283.979858 164.503472 
L 284.630468 162.777329 
L 285.281079 162.712476 
L 285.931689 163.3225 
L 286.582299 188.653774 
L 287.232909 165.640053 
L 287.88352 163.123191 
L 288.53413 164.037295 
L 289.18474 169.353681 
L 289.835351 162.817209 
L 290.485961 166.723333 
L 291.136571 162.77988 
L 291.787182 206.166293 
L 292.437792 163.930427 
L 293.088402 173.411375 
L 293.739013 169.540143 
L 294.389623 184.831411 
L 295.040233 174.893946 
L 295.690844 175.622851 
L 296.341454 171.266145 
L 296.992064 172.867637 
L 297.642674 181.095849 
L 298.293285 163.406361 
L 298.943895 168.246184 
L 299.594505 165.664034 
L 300.245116 167.629788 
L 300.895726 177.184758 
L 301.546336 171.433168 
L 302.847557 163.694175 
L 303.498167 168.004501 
L 304.148778 167.556579 
L 304.799388 163.775119 
L 305.449998 164.983987 
L 306.100608 180.701458 
L 306.751219 168.69947 
L 307.401829 165.154426 
L 308.052439 173.123085 
L 308.70305 168.73252 
L 309.35366 171.998839 
L 310.00427 164.117911 
L 310.654881 173.276538 
L 311.305491 164.759544 
L 311.956101 164.832668 
L 312.606712 181.76477 
L 313.257322 164.499214 
L 313.907932 166.867977 
L 314.558543 186.65681 
L 315.209153 183.303856 
L 315.859763 167.054129 
L 316.510373 168.048147 
L 317.160984 165.482669 
L 317.811594 175.162449 
L 318.462204 172.887164 
L 319.112815 175.971449 
L 319.763425 172.808598 
L 320.414035 171.723207 
L 321.064646 163.24524 
L 321.715256 165.36995 
L 322.365866 163.377789 
L 323.016477 165.189815 
L 323.667087 164.641683 
L 324.317697 196.940669 
L 324.968308 164.160698 
L 325.618918 171.511737 
L 326.269528 166.779089 
L 326.920138 164.139288 
L 327.570749 171.003183 
L 328.221359 165.847107 
L 328.871969 172.387684 
L 329.52258 164.238114 
L 330.17319 172.577461 
L 330.8238 167.245025 
L 331.474411 167.107402 
L 332.125021 166.045279 
L 332.775631 164.193472 
L 333.426242 167.238181 
L 334.076852 183.742212 
L 334.727462 171.530428 
L 335.378073 179.196556 
L 336.028683 167.417505 
L 336.679293 166.434836 
L 337.329903 171.724092 
L 337.980514 193.583274 
L 338.631124 176.651803 
L 339.281734 167.612425 
L 339.932345 169.226478 
L 340.582955 166.741515 
L 341.233565 165.43131 
L 341.884176 174.956602 
L 342.534786 181.442751 
L 343.185396 162.82389 
L 343.836007 171.633164 
L 344.486617 167.49706 
L 345.137227 175.881524 
L 345.787837 164.919239 
L 346.438448 167.246465 
L 347.089058 233.764168 
L 347.739668 172.433845 
L 348.390279 165.77037 
L 349.040889 174.388874 
L 349.691499 166.440813 
L 350.34211 163.163433 
L 350.99272 181.720035 
L 351.64333 163.905302 
L 352.293941 175.595218 
L 352.944551 194.207936 
L 353.595161 165.696744 
L 354.245772 174.508948 
L 354.896382 208.291023 
L 355.546992 183.123081 
L 356.197602 173.939292 
L 356.848213 176.359637 
L 357.498823 163.223699 
L 358.149433 295.488 
L 358.800044 164.611804 
L 359.450654 168.546478 
L 360.101264 163.095566 
L 360.751875 170.146894 
L 361.402485 168.82956 
L 362.053095 169.123169 
L 362.703706 167.379317 
L 363.354316 168.544322 
L 364.004926 163.003667 
L 364.655537 182.883085 
L 365.306147 165.087078 
L 365.956757 163.662595 
L 366.607367 174.277508 
L 367.257978 168.136911 
L 367.908588 164.2964 
L 368.559198 165.055898 
L 369.209809 258.668292 
L 369.860419 171.570963 
L 370.511029 163.089246 
L 371.16164 163.884965 
L 371.81225 167.410268 
L 372.46286 165.39575 
L 373.113471 171.024975 
L 373.764081 171.305519 
L 374.414691 168.436559 
L 375.065302 164.178668 
L 375.715912 165.341642 
L 376.366522 165.489769 
L 377.017132 171.481686 
L 377.667743 163.513909 
L 378.318353 177.713911 
L 378.968963 168.283466 
L 379.619574 167.108222 
L 380.270184 164.651989 
L 380.920794 164.020368 
L 381.571405 198.68229 
L 382.222015 168.196718 
L 382.872625 171.265954 
L 383.523236 163.188557 
L 384.173846 164.602462 
L 384.824456 169.413585 
L 385.475066 169.918 
L 386.125677 165.483165 
L 386.776287 167.575327 
L 387.426897 163.541222 
L 388.077508 165.046281 
L 388.728118 163.774999 
L 389.378728 162.815814 
L 390.029339 167.026241 
L 390.679949 172.251699 
L 391.330559 178.568933 
L 391.98117 172.627863 
L 392.63178 171.216761 
L 393.28239 167.583807 
L 393.933001 181.409409 
L 394.583611 163.458473 
L 395.234221 164.229392 
L 395.884831 164.592071 
L 396.535442 167.904346 
L 397.186052 169.595697 
L 397.836662 219.002749 
L 398.487273 166.915572 
L 398.487273 166.915572 
" style="fill:none;stroke:#008000;stroke-dasharray:9.6,2.4,1.5,2.4;stroke-dashoffset:0;stroke-width:1.5;"/>
   </g>
   <g id="line2d_31">
    <path clip-path="url(#pbd2e4e041e)" d="M 73.832727 160.780602 
L 74.483338 155.084984 
L 75.133948 150.974627 
L 75.784558 156.428653 
L 76.435169 160.038531 
L 77.085779 155.401673 
L 77.736389 145.523389 
L 78.386999 145.393416 
L 79.03761 146.032285 
L 79.68822 138.844184 
L 80.33883 146.759684 
L 80.989441 151.07959 
L 81.640051 152.295991 
L 82.290661 157.934862 
L 82.941272 159.583209 
L 83.591882 155.831083 
L 84.242492 156.530355 
L 84.893103 151.586946 
L 85.543713 159.853805 
L 86.194323 159.696833 
L 86.844934 159.791039 
L 87.495544 156.448339 
L 88.146154 159.980364 
L 88.796764 159.978847 
L 89.447375 159.836179 
L 90.097985 159.203964 
L 90.748595 154.053363 
L 91.399206 160.038129 
L 92.049816 157.842704 
L 92.700426 158.952295 
L 93.351037 159.05815 
L 94.001647 159.335705 
L 94.652257 156.161403 
L 95.302868 159.357391 
L 95.953478 159.851722 
L 96.604088 156.904651 
L 97.254698 159.867075 
L 97.905309 152.778206 
L 98.555919 152.347662 
L 99.206529 159.151691 
L 99.85714 156.467666 
L 100.50775 159.71932 
L 101.15836 157.027542 
L 101.808971 159.382851 
L 102.459581 157.338021 
L 103.110191 156.386842 
L 103.760802 158.76285 
L 104.411412 145.983052 
L 105.062022 77.804121 
L 105.712633 159.42512 
L 106.363243 155.195016 
L 107.013853 158.31046 
L 107.664463 152.725919 
L 108.315074 154.261462 
L 108.965684 159.210536 
L 109.616294 156.644372 
L 110.917515 159.891727 
L 111.568125 139.437093 
L 112.218736 159.052906 
L 112.869346 159.162976 
L 113.519956 157.475662 
L 114.170567 151.73792 
L 114.821177 159.598848 
L 115.471787 159.790121 
L 116.122398 156.173385 
L 116.773008 158.786956 
L 117.423618 159.763864 
L 118.074228 159.721178 
L 118.724839 156.180811 
L 119.375449 119.492424 
L 120.026059 159.415409 
L 121.32728 159.844491 
L 121.97789 159.98615 
L 122.628501 159.655438 
L 123.279111 159.834484 
L 124.580332 159.680305 
L 125.230942 157.280691 
L 125.881552 159.095349 
L 126.532163 155.661716 
L 127.182773 153.89355 
L 127.833383 152.696199 
L 128.483993 159.317919 
L 129.134604 159.184327 
L 129.785214 153.316586 
L 130.435824 159.87272 
L 131.086435 128.573092 
L 131.737045 156.765793 
L 132.387655 160.114634 
L 133.038266 156.944782 
L 133.688876 153.120323 
L 134.339486 157.255786 
L 134.990097 159.922078 
L 135.640707 150.528151 
L 136.291317 158.232112 
L 136.941927 159.453907 
L 137.592538 156.123567 
L 138.893758 158.958104 
L 139.544369 157.735036 
L 140.194979 158.302736 
L 140.845589 159.904316 
L 141.4962 159.998125 
L 142.14681 155.672289 
L 142.79742 158.517302 
L 144.098641 159.577723 
L 145.399862 158.862684 
L 146.050472 141.566302 
L 146.701082 159.980812 
L 147.351692 159.915459 
L 148.002303 140.997109 
L 148.652913 157.439781 
L 149.303523 157.56548 
L 149.954134 159.656269 
L 150.604744 159.144924 
L 151.255354 156.072677 
L 151.905965 138.057538 
L 152.556575 157.647047 
L 153.207185 154.013479 
L 153.857796 159.766682 
L 155.159016 159.864595 
L 155.809627 159.073325 
L 156.460237 90.350384 
L 157.110847 156.499532 
L 157.761457 158.630559 
L 158.412068 159.464806 
L 159.062678 155.386712 
L 159.713288 159.874715 
L 160.363899 136.789521 
L 161.014509 157.790023 
L 161.665119 159.624129 
L 162.31573 157.619758 
L 162.96634 146.903732 
L 163.61695 157.187253 
L 164.267561 159.544607 
L 164.918171 156.353531 
L 165.568781 159.818949 
L 166.219392 159.639091 
L 166.870002 158.148749 
L 167.520612 160.025718 
L 168.171222 151.865997 
L 168.821833 147.675029 
L 169.472443 158.992361 
L 170.123053 159.5321 
L 170.773664 134.221199 
L 171.424274 157.508897 
L 172.074884 158.521092 
L 172.725495 156.038228 
L 173.376105 159.787818 
L 174.026715 159.163908 
L 174.677326 159.939532 
L 175.327936 153.53696 
L 175.978546 137.972381 
L 176.629156 149.511352 
L 177.279767 157.248277 
L 177.930377 156.760756 
L 178.580987 159.812371 
L 179.231598 148.277373 
L 179.882208 159.589291 
L 180.532818 152.410137 
L 181.183429 156.353808 
L 181.834039 146.573985 
L 182.484649 159.744866 
L 183.13526 159.632275 
L 183.78587 158.456068 
L 184.43648 159.536317 
L 185.087091 159.800693 
L 185.737701 156.662332 
L 186.388311 150.770138 
L 187.038921 159.499755 
L 187.689532 158.400377 
L 188.340142 150.542354 
L 188.990752 158.307556 
L 189.641363 150.664554 
L 190.291973 159.820613 
L 190.942583 156.482131 
L 191.593194 159.094685 
L 192.243804 156.061608 
L 192.894414 151.644381 
L 193.545025 159.794924 
L 194.195635 159.822405 
L 194.846245 159.64225 
L 195.496856 159.833394 
L 196.147466 158.011061 
L 196.798076 156.659679 
L 197.448686 157.943646 
L 198.099297 147.236512 
L 198.749907 154.230674 
L 199.400517 158.363289 
L 200.051128 151.747849 
L 200.701738 159.730698 
L 201.352348 155.629402 
L 202.002959 155.614597 
L 202.653569 80.724602 
L 203.304179 156.63052 
L 203.95479 157.036515 
L 204.6054 151.668316 
L 205.25601 158.883103 
L 206.557231 158.79831 
L 207.207841 159.771294 
L 207.858451 157.706664 
L 208.509062 158.379638 
L 209.159672 158.268411 
L 209.810282 130.681691 
L 210.460893 157.63884 
L 211.111503 159.828971 
L 211.762113 159.63568 
L 213.063334 159.466877 
L 213.713944 159.823333 
L 214.364555 159.57412 
L 215.015165 155.022272 
L 215.665775 152.981727 
L 216.316385 156.186973 
L 216.966996 152.176817 
L 217.617606 159.865255 
L 218.268216 159.835405 
L 218.918827 159.499959 
L 219.569437 156.53729 
L 220.220047 157.542629 
L 220.870658 159.841274 
L 221.521268 159.049558 
L 222.171878 128.606803 
L 222.822489 159.765628 
L 223.473099 159.418153 
L 224.123709 159.946004 
L 224.77432 159.277518 
L 225.42493 160.024634 
L 226.07554 160.029462 
L 226.72615 155.364255 
L 227.376761 159.185618 
L 228.027371 159.901012 
L 228.677981 150.931365 
L 229.328592 159.889206 
L 229.979202 157.302354 
L 230.629812 158.690521 
L 231.280423 157.53985 
L 231.931033 159.386351 
L 232.581643 157.50612 
L 233.232254 159.789865 
L 233.882864 159.759768 
L 234.533474 155.103814 
L 235.184085 159.481133 
L 235.834695 155.377168 
L 236.485305 159.24757 
L 237.135915 149.750946 
L 237.786526 151.31577 
L 238.437136 160.030768 
L 239.087746 159.79329 
L 239.738357 157.08827 
L 240.388967 159.784276 
L 241.039577 159.248945 
L 241.690188 158.296686 
L 242.340798 159.543924 
L 242.991408 158.955031 
L 243.642019 159.926398 
L 244.292629 158.967725 
L 244.943239 159.988089 
L 245.59385 159.3591 
L 246.24446 150.857103 
L 246.89507 159.839398 
L 247.54568 156.824068 
L 248.196291 159.318246 
L 248.846901 159.684984 
L 249.497511 146.167665 
L 250.148122 159.543868 
L 250.798732 147.476331 
L 251.449342 159.409084 
L 252.099953 159.597146 
L 252.750563 155.042337 
L 254.051784 157.856636 
L 254.702394 159.84561 
L 256.003615 159.449271 
L 256.654225 150.461468 
L 257.304835 149.613054 
L 257.955445 157.505564 
L 258.606056 159.675925 
L 259.256666 159.581201 
L 259.907276 153.205935 
L 260.557887 155.233024 
L 261.208497 159.833207 
L 261.859107 121.815997 
L 262.509718 158.466587 
L 263.160328 159.57756 
L 263.810938 159.808527 
L 264.461549 159.362308 
L 265.112159 159.71807 
L 265.762769 158.405898 
L 266.413379 159.928923 
L 267.06399 139.43466 
L 267.7146 157.746225 
L 268.36521 103.35389 
L 269.015821 105.382749 
L 269.666431 156.739567 
L 270.317041 158.226008 
L 270.967652 151.274696 
L 272.268872 160.059215 
L 272.919483 159.163891 
L 273.570093 154.944278 
L 274.220703 159.190334 
L 274.871314 157.382519 
L 276.172534 147.83677 
L 276.823144 145.818765 
L 277.473755 153.364475 
L 278.124365 154.761782 
L 278.774975 159.01963 
L 280.076196 156.995414 
L 280.726806 159.325369 
L 281.377417 159.666676 
L 282.028027 153.692341 
L 282.678637 159.733487 
L 283.329248 141.490146 
L 283.979858 159.424018 
L 284.630468 159.834383 
L 285.281079 159.919105 
L 285.931689 159.766195 
L 286.582299 140.394325 
L 287.232909 158.489902 
L 287.88352 159.866925 
L 288.53413 159.424226 
L 289.18474 155.870231 
L 289.835351 159.85446 
L 290.485961 158.428285 
L 291.136571 159.94194 
L 291.787182 126.324029 
L 292.437792 159.277434 
L 293.088402 153.041161 
L 293.739013 154.872304 
L 294.389623 144.929702 
L 295.040233 152.66431 
L 295.690844 151.370899 
L 296.341454 155.267224 
L 296.992064 153.265637 
L 297.642674 145.522378 
L 298.293285 159.590419 
L 298.943895 157.208224 
L 299.594505 158.674766 
L 300.245116 156.949584 
L 300.895726 150.285785 
L 301.546336 154.83346 
L 302.196947 157.682433 
L 302.847557 159.985999 
L 303.498167 156.56859 
L 304.148778 157.021877 
L 304.799388 159.080833 
L 305.449998 158.802588 
L 306.100608 148.192224 
L 306.751219 156.956713 
L 307.401829 158.804317 
L 308.052439 153.616093 
L 308.70305 156.644147 
L 309.35366 153.754994 
L 310.00427 159.144617 
L 310.654881 153.595413 
L 311.305491 159.617764 
L 311.956101 158.574465 
L 312.606712 147.371514 
L 313.257322 159.360132 
L 313.907932 158.102521 
L 314.558543 143.744406 
L 315.209153 144.76015 
L 315.859763 157.130017 
L 316.510373 156.064149 
L 317.160984 158.359211 
L 317.811594 152.326122 
L 318.462204 152.39001 
L 319.112815 151.604454 
L 319.763425 154.574088 
L 320.414035 154.881537 
L 321.064646 159.842978 
L 321.715256 158.832904 
L 322.365866 159.801083 
L 323.016477 159.051796 
L 323.667087 158.909224 
L 324.317697 134.602034 
L 324.968308 158.957747 
L 325.618918 154.137276 
L 326.269528 157.660663 
L 326.920138 159.328291 
L 327.570749 155.867519 
L 328.221359 158.152292 
L 328.871969 153.72182 
L 329.52258 159.181053 
L 330.17319 153.148546 
L 330.8238 157.626601 
L 331.474411 156.890481 
L 332.125021 158.278436 
L 332.775631 159.078972 
L 333.426242 157.349965 
L 334.076852 145.503512 
L 334.727462 154.024041 
L 335.378073 150.01408 
L 336.028683 157.04601 
L 336.679293 157.873445 
L 337.329903 154.881249 
L 337.980514 134.920417 
L 338.631124 150.083716 
L 339.281734 157.172437 
L 339.932345 155.846263 
L 340.582955 157.998859 
L 341.233565 157.979154 
L 341.884176 151.734555 
L 342.534786 146.926638 
L 343.185396 159.799688 
L 343.836007 152.896234 
L 344.486617 156.978009 
L 345.137227 150.573528 
L 345.787837 159.147817 
L 346.438448 157.313319 
L 347.089058 104.844769 
L 347.739668 153.658472 
L 348.390279 158.575708 
L 349.040889 150.761228 
L 349.691499 157.594626 
L 350.34211 159.827852 
L 350.99272 145.862693 
L 351.64333 159.260966 
L 352.293941 150.39462 
L 352.944551 135.948602 
L 353.595161 158.393908 
L 354.245772 152.120849 
L 354.896382 125.526263 
L 355.546992 146.9201 
L 356.197602 151.993397 
L 356.848213 149.208448 
L 357.498823 159.855808 
L 358.149433 53.568 
L 358.800044 159.180062 
L 359.450654 156.29103 
L 360.101264 159.810701 
L 360.751875 154.641528 
L 361.402485 156.15457 
L 362.053095 156.004481 
L 362.703706 156.902979 
L 363.354316 156.370516 
L 364.004926 159.907525 
L 364.655537 144.942879 
L 365.306147 158.701395 
L 365.956757 159.548371 
L 366.607367 151.547374 
L 367.257978 156.027297 
L 367.908588 159.089029 
L 368.559198 158.474009 
L 369.209809 82.572916 
L 369.860419 153.498677 
L 370.511029 159.624625 
L 371.16164 159.13445 
L 371.81225 156.855431 
L 372.46286 158.800853 
L 373.113471 153.940318 
L 373.764081 154.177387 
L 374.414691 156.016991 
L 375.065302 159.058248 
L 375.715912 157.781142 
L 376.366522 158.538898 
L 377.017132 154.76852 
L 377.667743 159.6138 
L 378.318353 149.37548 
L 378.968963 156.168941 
L 379.619574 157.200431 
L 380.270184 158.989257 
L 380.920794 159.138744 
L 381.571405 131.214592 
L 382.222015 156.942123 
L 382.872625 154.505808 
L 383.523236 159.516715 
L 384.173846 159.056474 
L 384.824456 155.929813 
L 385.475066 155.871739 
L 386.125677 158.381729 
L 386.776287 157.033402 
L 387.426897 159.690746 
L 388.077508 158.960191 
L 388.728118 159.601048 
L 389.378728 159.808426 
L 390.029339 156.924734 
L 390.679949 154.549452 
L 391.330559 147.591742 
L 391.98117 152.531488 
L 392.63178 154.22149 
L 393.28239 156.80159 
L 393.933001 145.662461 
L 394.583611 159.858264 
L 395.234221 159.0067 
L 395.884831 158.580921 
L 396.535442 156.951866 
L 397.186052 155.022866 
L 397.836662 114.150714 
L 398.487273 157.542202 
L 398.487273 157.542202 
" style="fill:none;stroke:#008000;stroke-dasharray:9.6,2.4,1.5,2.4;stroke-dashoffset:0;stroke-width:1.5;"/>
   </g>
   <g id="line2d_32">
    <path clip-path="url(#pbd2e4e041e)" d="M 73.832727 160.404511 
L 74.483338 160.085146 
L 78.386999 160.006847 
L 79.68822 159.88925 
L 82.290661 159.805721 
L 82.941272 159.662385 
L 229.979202 159.564321 
L 231.280423 159.50049 
L 398.487273 159.497639 
L 398.487273 159.497639 
" style="fill:none;stroke:#ff0000;stroke-linecap:square;stroke-width:1.5;"/>
   </g>
   <g id="patch_3">
    <path d="M 57.6 307.584 
L 57.6 41.472 
" style="fill:none;stroke:#000000;stroke-linecap:square;stroke-linejoin:miter;stroke-width:0.8;"/>
   </g>
   <g id="patch_4">
    <path d="M 414.72 307.584 
L 414.72 41.472 
" style="fill:none;stroke:#000000;stroke-linecap:square;stroke-linejoin:miter;stroke-width:0.8;"/>
   </g>
   <g id="patch_5">
    <path d="M 57.6 307.584 
L 414.72 307.584 
" style="fill:none;stroke:#000000;stroke-linecap:square;stroke-linejoin:miter;stroke-width:0.8;"/>
   </g>
   <g id="patch_6">
    <path d="M 57.6 41.472 
L 414.72 41.472 
" style="fill:none;stroke:#000000;stroke-linecap:square;stroke-linejoin:miter;stroke-width:0.8;"/>
   </g>
   <g id="text_17">
    <!-- Population's average and best fitness -->
    <defs>
     <path d="M 19.671875 64.796875 
L 19.671875 37.40625 
L 32.078125 37.40625 
Q 38.96875 37.40625 42.71875 40.96875 
Q 46.484375 44.53125 46.484375 51.125 
Q 46.484375 57.671875 42.71875 61.234375 
Q 38.96875 64.796875 32.078125 64.796875 
z
M 9.8125 72.90625 
L 32.078125 72.90625 
Q 44.34375 72.90625 50.609375 67.359375 
Q 56.890625 61.8125 56.890625 51.125 
Q 56.890625 40.328125 50.609375 34.8125 
Q 44.34375 29.296875 32.078125 29.296875 
L 19.671875 29.296875 
L 19.671875 0 
L 9.8125 0 
z
" id="DejaVuSans-80"/>
     <path d="M 18.109375 8.203125 
L 18.109375 -20.796875 
L 9.078125 -20.796875 
L 9.078125 54.6875 
L 18.109375 54.6875 
L 18.109375 46.390625 
Q 20.953125 51.265625 25.265625 53.625 
Q 29.59375 56 35.59375 56 
Q 45.5625 56 51.78125 48.09375 
Q 58.015625 40.1875 58.015625 27.296875 
Q 58.015625 14.40625 51.78125 6.484375 
Q 45.5625 -1.421875 35.59375 -1.421875 
Q 29.59375 -1.421875 25.265625 0.953125 
Q 20.953125 3.328125 18.109375 8.203125 
z
M 48.6875 27.296875 
Q 48.6875 37.203125 44.609375 42.84375 
Q 40.53125 48.484375 33.40625 48.484375 
Q 26.265625 48.484375 22.1875 42.84375 
Q 18.109375 37.203125 18.109375 27.296875 
Q 18.109375 17.390625 22.1875 11.75 
Q 26.265625 6.109375 33.40625 6.109375 
Q 40.53125 6.109375 44.609375 11.75 
Q 48.6875 17.390625 48.6875 27.296875 
z
" id="DejaVuSans-112"/>
     <path d="M 8.5 21.578125 
L 8.5 54.6875 
L 17.484375 54.6875 
L 17.484375 21.921875 
Q 17.484375 14.15625 20.5 10.265625 
Q 23.53125 6.390625 29.59375 6.390625 
Q 36.859375 6.390625 41.078125 11.03125 
Q 45.3125 15.671875 45.3125 23.6875 
L 45.3125 54.6875 
L 54.296875 54.6875 
L 54.296875 0 
L 45.3125 0 
L 45.3125 8.40625 
Q 42.046875 3.421875 37.71875 1 
Q 33.40625 -1.421875 27.6875 -1.421875 
Q 18.265625 -1.421875 13.375 4.4375 
Q 8.5 10.296875 8.5 21.578125 
z
M 31.109375 56 
z
" id="DejaVuSans-117"/>
     <path d="M 9.421875 75.984375 
L 18.40625 75.984375 
L 18.40625 0 
L 9.421875 0 
z
" id="DejaVuSans-108"/>
     <path d="M 17.921875 72.90625 
L 17.921875 45.796875 
L 9.625 45.796875 
L 9.625 72.90625 
z
" id="DejaVuSans-39"/>
     <path id="DejaVuSans-32"/>
     <path d="M 2.984375 54.6875 
L 12.5 54.6875 
L 29.59375 8.796875 
L 46.6875 54.6875 
L 56.203125 54.6875 
L 35.6875 0 
L 23.484375 0 
z
" id="DejaVuSans-118"/>
     <path d="M 45.40625 27.984375 
Q 45.40625 37.75 41.375 43.109375 
Q 37.359375 48.484375 30.078125 48.484375 
Q 22.859375 48.484375 18.828125 43.109375 
Q 14.796875 37.75 14.796875 27.984375 
Q 14.796875 18.265625 18.828125 12.890625 
Q 22.859375 7.515625 30.078125 7.515625 
Q 37.359375 7.515625 41.375 12.890625 
Q 45.40625 18.265625 45.40625 27.984375 
z
M 54.390625 6.78125 
Q 54.390625 -7.171875 48.1875 -13.984375 
Q 42 -20.796875 29.203125 -20.796875 
Q 24.46875 -20.796875 20.265625 -20.09375 
Q 16.0625 -19.390625 12.109375 -17.921875 
L 12.109375 -9.1875 
Q 16.0625 -11.328125 19.921875 -12.34375 
Q 23.78125 -13.375 27.78125 -13.375 
Q 36.625 -13.375 41.015625 -8.765625 
Q 45.40625 -4.15625 45.40625 5.171875 
L 45.40625 9.625 
Q 42.625 4.78125 38.28125 2.390625 
Q 33.9375 0 27.875 0 
Q 17.828125 0 11.671875 7.65625 
Q 5.515625 15.328125 5.515625 27.984375 
Q 5.515625 40.671875 11.671875 48.328125 
Q 17.828125 56 27.875 56 
Q 33.9375 56 38.28125 53.609375 
Q 42.625 51.21875 45.40625 46.390625 
L 45.40625 54.6875 
L 54.390625 54.6875 
z
" id="DejaVuSans-103"/>
     <path d="M 45.40625 46.390625 
L 45.40625 75.984375 
L 54.390625 75.984375 
L 54.390625 0 
L 45.40625 0 
L 45.40625 8.203125 
Q 42.578125 3.328125 38.25 0.953125 
Q 33.9375 -1.421875 27.875 -1.421875 
Q 17.96875 -1.421875 11.734375 6.484375 
Q 5.515625 14.40625 5.515625 27.296875 
Q 5.515625 40.1875 11.734375 48.09375 
Q 17.96875 56 27.875 56 
Q 33.9375 56 38.25 53.625 
Q 42.578125 51.265625 45.40625 46.390625 
z
M 14.796875 27.296875 
Q 14.796875 17.390625 18.875 11.75 
Q 22.953125 6.109375 30.078125 6.109375 
Q 37.203125 6.109375 41.296875 11.75 
Q 45.40625 17.390625 45.40625 27.296875 
Q 45.40625 37.203125 41.296875 42.84375 
Q 37.203125 48.484375 30.078125 48.484375 
Q 22.953125 48.484375 18.875 42.84375 
Q 14.796875 37.203125 14.796875 27.296875 
z
" id="DejaVuSans-100"/>
     <path d="M 48.6875 27.296875 
Q 48.6875 37.203125 44.609375 42.84375 
Q 40.53125 48.484375 33.40625 48.484375 
Q 26.265625 48.484375 22.1875 42.84375 
Q 18.109375 37.203125 18.109375 27.296875 
Q 18.109375 17.390625 22.1875 11.75 
Q 26.265625 6.109375 33.40625 6.109375 
Q 40.53125 6.109375 44.609375 11.75 
Q 48.6875 17.390625 48.6875 27.296875 
z
M 18.109375 46.390625 
Q 20.953125 51.265625 25.265625 53.625 
Q 29.59375 56 35.59375 56 
Q 45.5625 56 51.78125 48.09375 
Q 58.015625 40.1875 58.015625 27.296875 
Q 58.015625 14.40625 51.78125 6.484375 
Q 45.5625 -1.421875 35.59375 -1.421875 
Q 29.59375 -1.421875 25.265625 0.953125 
Q 20.953125 3.328125 18.109375 8.203125 
L 18.109375 0 
L 9.078125 0 
L 9.078125 75.984375 
L 18.109375 75.984375 
z
" id="DejaVuSans-98"/>
     <path d="M 37.109375 75.984375 
L 37.109375 68.5 
L 28.515625 68.5 
Q 23.6875 68.5 21.796875 66.546875 
Q 19.921875 64.59375 19.921875 59.515625 
L 19.921875 54.6875 
L 34.71875 54.6875 
L 34.71875 47.703125 
L 19.921875 47.703125 
L 19.921875 0 
L 10.890625 0 
L 10.890625 47.703125 
L 2.296875 47.703125 
L 2.296875 54.6875 
L 10.890625 54.6875 
L 10.890625 58.5 
Q 10.890625 67.625 15.140625 71.796875 
Q 19.390625 75.984375 28.609375 75.984375 
z
" id="DejaVuSans-102"/>
    </defs>
    <g transform="translate(123.315 35.472)scale(0.12 -0.12)">
     <use xlink:href="#DejaVuSans-80"/>
     <use x="60.255859" xlink:href="#DejaVuSans-111"/>
     <use x="121.4375" xlink:href="#DejaVuSans-112"/>
     <use x="184.914062" xlink:href="#DejaVuSans-117"/>
     <use x="248.292969" xlink:href="#DejaVuSans-108"/>
     <use x="276.076172" xlink:href="#DejaVuSans-97"/>
     <use x="337.355469" xlink:href="#DejaVuSans-116"/>
     <use x="376.564453" xlink:href="#DejaVuSans-105"/>
     <use x="404.347656" xlink:href="#DejaVuSans-111"/>
     <use x="465.529297" xlink:href="#DejaVuSans-110"/>
     <use x="528.908203" xlink:href="#DejaVuSans-39"/>
     <use x="556.398438" xlink:href="#DejaVuSans-115"/>
     <use x="608.498047" xlink:href="#DejaVuSans-32"/>
     <use x="640.285156" xlink:href="#DejaVuSans-97"/>
     <use x="701.564453" xlink:href="#DejaVuSans-118"/>
     <use x="760.744141" xlink:href="#DejaVuSans-101"/>
     <use x="822.267578" xlink:href="#DejaVuSans-114"/>
     <use x="863.380859" xlink:href="#DejaVuSans-97"/>
     <use x="924.660156" xlink:href="#DejaVuSans-103"/>
     <use x="988.136719" xlink:href="#DejaVuSans-101"/>
     <use x="1049.660156" xlink:href="#DejaVuSans-32"/>
     <use x="1081.447266" xlink:href="#DejaVuSans-97"/>
     <use x="1142.726562" xlink:href="#DejaVuSans-110"/>
     <use x="1206.105469" xlink:href="#DejaVuSans-100"/>
     <use x="1269.582031" xlink:href="#DejaVuSans-32"/>
     <use x="1301.369141" xlink:href="#DejaVuSans-98"/>
     <use x="1364.845703" xlink:href="#DejaVuSans-101"/>
     <use x="1426.369141" xlink:href="#DejaVuSans-115"/>
     <use x="1478.46875" xlink:href="#DejaVuSans-116"/>
     <use x="1517.677734" xlink:href="#DejaVuSans-32"/>
     <use x="1549.464844" xlink:href="#DejaVuSans-102"/>
     <use x="1584.669922" xlink:href="#DejaVuSans-105"/>
     <use x="1612.453125" xlink:href="#DejaVuSans-116"/>
     <use x="1651.662109" xlink:href="#DejaVuSans-110"/>
     <use x="1715.041016" xlink:href="#DejaVuSans-101"/>
     <use x="1776.564453" xlink:href="#DejaVuSans-115"/>
     <use x="1828.664062" xlink:href="#DejaVuSans-115"/>
    </g>
   </g>
   <g id="legend_1">
    <g id="patch_7">
     <path d="M 64.6 108.1845 
L 137.540625 108.1845 
Q 139.540625 108.1845 139.540625 106.1845 
L 139.540625 48.472 
Q 139.540625 46.472 137.540625 46.472 
L 64.6 46.472 
Q 62.6 46.472 62.6 48.472 
L 62.6 106.1845 
Q 62.6 108.1845 64.6 108.1845 
z
" style="fill:#ffffff;opacity:0.8;stroke:#cccccc;stroke-linejoin:miter;"/>
    </g>
    <g id="line2d_33">
     <path d="M 66.6 54.570438 
L 86.6 54.570438 
" style="fill:none;stroke:#0000ff;stroke-linecap:square;stroke-width:1.5;"/>
    </g>
    <g id="line2d_34"/>
    <g id="text_18">
     <!-- average -->
     <g transform="translate(94.6 58.070438)scale(0.1 -0.1)">
      <use xlink:href="#DejaVuSans-97"/>
      <use x="61.279297" xlink:href="#DejaVuSans-118"/>
      <use x="120.458984" xlink:href="#DejaVuSans-101"/>
      <use x="181.982422" xlink:href="#DejaVuSans-114"/>
      <use x="223.095703" xlink:href="#DejaVuSans-97"/>
      <use x="284.375" xlink:href="#DejaVuSans-103"/>
      <use x="347.851562" xlink:href="#DejaVuSans-101"/>
     </g>
    </g>
    <g id="line2d_35">
     <path d="M 66.6 69.248563 
L 86.6 69.248563 
" style="fill:none;stroke:#008000;stroke-dasharray:9.6,2.4,1.5,2.4;stroke-dashoffset:0;stroke-width:1.5;"/>
    </g>
    <g id="line2d_36"/>
    <g id="text_19">
     <!-- -1 sd -->
     <defs>
      <path d="M 4.890625 31.390625 
L 31.203125 31.390625 
L 31.203125 23.390625 
L 4.890625 23.390625 
z
" id="DejaVuSans-45"/>
     </defs>
     <g transform="translate(94.6 72.748563)scale(0.1 -0.1)">
      <use xlink:href="#DejaVuSans-45"/>
      <use x="36.083984" xlink:href="#DejaVuSans-49"/>
      <use x="99.707031" xlink:href="#DejaVuSans-32"/>
      <use x="131.494141" xlink:href="#DejaVuSans-115"/>
      <use x="183.59375" xlink:href="#DejaVuSans-100"/>
     </g>
    </g>
    <g id="line2d_37">
     <path d="M 66.6 83.926688 
L 86.6 83.926688 
" style="fill:none;stroke:#008000;stroke-dasharray:9.6,2.4,1.5,2.4;stroke-dashoffset:0;stroke-width:1.5;"/>
    </g>
    <g id="line2d_38"/>
    <g id="text_20">
     <!-- +1 sd -->
     <defs>
      <path d="M 46 62.703125 
L 46 35.5 
L 73.1875 35.5 
L 73.1875 27.203125 
L 46 27.203125 
L 46 0 
L 37.796875 0 
L 37.796875 27.203125 
L 10.59375 27.203125 
L 10.59375 35.5 
L 37.796875 35.5 
L 37.796875 62.703125 
z
" id="DejaVuSans-43"/>
     </defs>
     <g transform="translate(94.6 87.426688)scale(0.1 -0.1)">
      <use xlink:href="#DejaVuSans-43"/>
      <use x="83.789062" xlink:href="#DejaVuSans-49"/>
      <use x="147.412109" xlink:href="#DejaVuSans-32"/>
      <use x="179.199219" xlink:href="#DejaVuSans-115"/>
      <use x="231.298828" xlink:href="#DejaVuSans-100"/>
     </g>
    </g>
    <g id="line2d_39">
     <path d="M 66.6 98.604813 
L 86.6 98.604813 
" style="fill:none;stroke:#ff0000;stroke-linecap:square;stroke-width:1.5;"/>
    </g>
    <g id="line2d_40"/>
    <g id="text_21">
     <!-- best -->
     <g transform="translate(94.6 102.104813)scale(0.1 -0.1)">
      <use xlink:href="#DejaVuSans-98"/>
      <use x="63.476562" xlink:href="#DejaVuSans-101"/>
      <use x="125" xlink:href="#DejaVuSans-115"/>
      <use x="177.099609" xlink:href="#DejaVuSans-116"/>
     </g>
    </g>
   </g>
  </g>
 </g>
 <defs>
  <clipPath id="pbd2e4e041e">
   <rect height="266.112" width="357.12" x="57.6" y="41.472"/>
  </clipPath>
 </defs>
</svg>
