<?xml version="1.0" encoding="UTF-8" standalone="no"?>
<!DOCTYPE svg PUBLIC "-//W3C//DTD SVG 1.1//EN"
 "http://www.w3.org/Graphics/SVG/1.1/DTD/svg11.dtd">
<!-- Generated by graphviz version 2.42.3 (20191010.1750)
 -->
<!-- Title: %3 Pages: 1 -->
<svg width="563pt" height="180pt"
 viewBox="0.00 0.00 563.00 180.44" xmlns="http://www.w3.org/2000/svg" xmlns:xlink="http://www.w3.org/1999/xlink">
<g id="graph0" class="graph" transform="scale(1 1) rotate(0) translate(4 176.44)">
<title>%3</title>
<polygon fill="white" stroke="transparent" points="-4,4 -4,-176.44 559,-176.44 559,4 -4,4"/>
<!-- &#45;1 -->
<g id="node1" class="node">
<title>&#45;1</title>
<polygon fill="lightgray" stroke="black" points="23.75,-100.71 -0.25,-100.71 -0.25,-83.71 23.75,-83.71 23.75,-100.71"/>
<text text-anchor="middle" x="11.75" y="-89.51" font-family="Times,serif" font-size="9.00">&#45;1</text>
</g>
<!-- 0 -->
<g id="node9" class="node">
<title>0</title>
<ellipse fill="lightblue" stroke="black" cx="285.75" cy="-14.5" rx="14.49" ry="14.49"/>
<text text-anchor="middle" x="285.75" y="-11.8" font-family="Times,serif" font-size="9.00">0</text>
</g>
<!-- &#45;1&#45;&gt;0 -->
<g id="edge1" class="edge">
<title>&#45;1&#45;&gt;0</title>
<path fill="none" stroke="red" stroke-width="0.43" d="M15.58,-83.54C18.99,-77.53 24.55,-69.46 31.75,-64.99 105.57,-19.14 212.85,-14.32 260.88,-14.7"/>
<polygon fill="red" stroke="red" stroke-width="0.43" points="260.92,-18.2 270.98,-14.87 261.04,-11.2 260.92,-18.2"/>
</g>
<!-- &#45;2 -->
<g id="node2" class="node">
<title>&#45;2</title>
<polygon fill="lightgray" stroke="black" points="64.75,-100.71 40.75,-100.71 40.75,-83.71 64.75,-83.71 64.75,-100.71"/>
<text text-anchor="middle" x="52.75" y="-89.51" font-family="Times,serif" font-size="9.00">&#45;2</text>
</g>
<!-- &#45;2&#45;&gt;0 -->
<g id="edge2" class="edge">
<title>&#45;2&#45;&gt;0</title>
<path fill="none" stroke="red" stroke-width="0.13" d="M58.31,-83.63C63.08,-77.68 70.48,-69.64 78.75,-64.99 138.64,-31.32 220.74,-20.45 261.19,-17.02"/>
<polygon fill="red" stroke="red" stroke-width="0.13" points="261.51,-20.51 271.21,-16.25 260.97,-13.53 261.51,-20.51"/>
</g>
<!-- &#45;3 -->
<g id="node3" class="node">
<title>&#45;3</title>
<polygon fill="lightgray" stroke="black" points="132.75,-172.44 108.75,-172.44 108.75,-155.44 132.75,-155.44 132.75,-172.44"/>
<text text-anchor="middle" x="120.75" y="-161.24" font-family="Times,serif" font-size="9.00">&#45;3</text>
</g>
<!-- &#45;3&#45;&gt;0 -->
<g id="edge3" class="edge">
<title>&#45;3&#45;&gt;0</title>
<path fill="none" stroke="green" stroke-width="0.44" stroke-dasharray="1,5" d="M116.94,-155.38C108.58,-137.59 90.96,-92.52 111.75,-64.99 129.85,-41.02 218.05,-25.24 261.49,-18.79"/>
<polygon fill="green" stroke="green" stroke-width="0.44" points="262.09,-22.24 271.49,-17.35 261.1,-15.31 262.09,-22.24"/>
</g>
<!-- 37194 -->
<g id="node12" class="node">
<title>37194</title>
<ellipse fill="white" stroke="black" cx="147.75" cy="-92.21" rx="27.45" ry="27.45"/>
<text text-anchor="middle" x="147.75" y="-89.51" font-family="Times,serif" font-size="9.00">37194</text>
</g>
<!-- &#45;3&#45;&gt;37194 -->
<g id="edge16" class="edge">
<title>&#45;3&#45;&gt;37194</title>
<path fill="none" stroke="green" stroke-width="0.25" d="M123.74,-155.21C126.39,-148.37 130.45,-137.88 134.49,-127.47"/>
<polygon fill="green" stroke="green" stroke-width="0.25" points="137.79,-128.62 138.14,-118.03 131.27,-126.09 137.79,-128.62"/>
</g>
<!-- &#45;4 -->
<g id="node4" class="node">
<title>&#45;4</title>
<polygon fill="lightgray" stroke="black" points="241.75,-172.44 217.75,-172.44 217.75,-155.44 241.75,-155.44 241.75,-172.44"/>
<text text-anchor="middle" x="229.75" y="-161.24" font-family="Times,serif" font-size="9.00">&#45;4</text>
</g>
<!-- &#45;4&#45;&gt;0 -->
<g id="edge4" class="edge">
<title>&#45;4&#45;&gt;0</title>
<path fill="none" stroke="green" stroke-width="0.27" stroke-dasharray="1,5" d="M226.61,-155.33C220.05,-138.18 206.71,-95.62 221.75,-64.99 230.43,-47.3 248.81,-34.14 263.66,-25.85"/>
<polygon fill="green" stroke="green" stroke-width="0.27" points="265.51,-28.83 272.77,-21.11 262.28,-22.62 265.51,-28.83"/>
</g>
<!-- 13610 -->
<g id="node11" class="node">
<title>13610</title>
<ellipse fill="white" stroke="black" cx="257.75" cy="-92.21" rx="27.45" ry="27.45"/>
<text text-anchor="middle" x="257.75" y="-89.51" font-family="Times,serif" font-size="9.00">13610</text>
</g>
<!-- &#45;4&#45;&gt;13610 -->
<g id="edge14" class="edge">
<title>&#45;4&#45;&gt;13610</title>
<path fill="none" stroke="green" stroke-width="0.42" d="M232.85,-155.21C235.62,-148.32 239.88,-137.71 244.09,-127.22"/>
<polygon fill="green" stroke="green" stroke-width="0.42" points="247.43,-128.3 247.91,-117.72 240.93,-125.69 247.43,-128.3"/>
</g>
<!-- &#45;5 -->
<g id="node5" class="node">
<title>&#45;5</title>
<polygon fill="lightgray" stroke="black" points="326.75,-100.71 302.75,-100.71 302.75,-83.71 326.75,-83.71 326.75,-100.71"/>
<text text-anchor="middle" x="314.75" y="-89.51" font-family="Times,serif" font-size="9.00">&#45;5</text>
</g>
<!-- &#45;5&#45;&gt;0 -->
<g id="edge5" class="edge">
<title>&#45;5&#45;&gt;0</title>
<path fill="none" stroke="green" stroke-width="0.42" d="M311.86,-83.68C307.8,-73.06 300.21,-53.26 294.26,-37.72"/>
<polygon fill="green" stroke="green" stroke-width="0.42" points="297.49,-36.35 290.64,-28.27 290.95,-38.86 297.49,-36.35"/>
</g>
<!-- &#45;6 -->
<g id="node6" class="node">
<title>&#45;6</title>
<polygon fill="lightgray" stroke="black" points="392.75,-172.44 368.75,-172.44 368.75,-155.44 392.75,-155.44 392.75,-172.44"/>
<text text-anchor="middle" x="380.75" y="-161.24" font-family="Times,serif" font-size="9.00">&#45;6</text>
</g>
<!-- &#45;6&#45;&gt;0 -->
<g id="edge6" class="edge">
<title>&#45;6&#45;&gt;0</title>
<path fill="none" stroke="red" stroke-width="0.3" stroke-dasharray="1,5" d="M378.31,-155.33C372.6,-138.19 357.21,-95.66 335.75,-64.99 326.91,-52.36 314.63,-40.15 304.45,-31.01"/>
<polygon fill="red" stroke="red" stroke-width="0.3" points="306.68,-28.32 296.84,-24.4 302.09,-33.6 306.68,-28.32"/>
</g>
<!-- 9488 -->
<g id="node13" class="node">
<title>9488</title>
<ellipse fill="white" stroke="black" cx="406.75" cy="-92.21" rx="24.08" ry="24.08"/>
<text text-anchor="middle" x="406.75" y="-89.51" font-family="Times,serif" font-size="9.00">9488</text>
</g>
<!-- &#45;6&#45;&gt;9488 -->
<g id="edge12" class="edge">
<title>&#45;6&#45;&gt;9488</title>
<path fill="none" stroke="red" stroke-width="0.17" d="M383.63,-155.21C386.41,-147.75 390.81,-135.96 395.03,-124.65"/>
<polygon fill="red" stroke="red" stroke-width="0.17" points="398.43,-125.55 398.64,-114.95 391.87,-123.1 398.43,-125.55"/>
</g>
<!-- &#45;7 -->
<g id="node7" class="node">
<title>&#45;7</title>
<polygon fill="lightgray" stroke="black" points="475.75,-172.44 451.75,-172.44 451.75,-155.44 475.75,-155.44 475.75,-172.44"/>
<text text-anchor="middle" x="463.75" y="-161.24" font-family="Times,serif" font-size="9.00">&#45;7</text>
</g>
<!-- &#45;7&#45;&gt;0 -->
<g id="edge7" class="edge">
<title>&#45;7&#45;&gt;0</title>
<path fill="none" stroke="green" stroke-width="0.46" stroke-dasharray="1,5" d="M464.2,-155.43C464.87,-137.35 463.98,-90.99 439.75,-64.99 405.72,-28.47 344.69,-18.8 310.57,-16.3"/>
<polygon fill="green" stroke="green" stroke-width="0.46" points="310.69,-12.81 300.51,-15.72 310.29,-19.79 310.69,-12.81"/>
</g>
<!-- 3425 -->
<g id="node10" class="node">
<title>3425</title>
<ellipse fill="white" stroke="black" cx="510.75" cy="-92.21" rx="24.08" ry="24.08"/>
<text text-anchor="middle" x="510.75" y="-89.51" font-family="Times,serif" font-size="9.00">3425</text>
</g>
<!-- &#45;7&#45;&gt;3425 -->
<g id="edge11" class="edge">
<title>&#45;7&#45;&gt;3425</title>
<path fill="none" stroke="red" stroke-width="0.31" d="M468.96,-155.21C474.55,-146.91 483.76,-133.25 492.11,-120.86"/>
<polygon fill="red" stroke="red" stroke-width="0.31" points="495.02,-122.82 497.7,-112.57 489.21,-118.9 495.02,-122.82"/>
</g>
<!-- &#45;8 -->
<g id="node8" class="node">
<title>&#45;8</title>
<polygon fill="lightgray" stroke="black" points="548.75,-172.44 524.75,-172.44 524.75,-155.44 548.75,-155.44 548.75,-172.44"/>
<text text-anchor="middle" x="536.75" y="-161.24" font-family="Times,serif" font-size="9.00">&#45;8</text>
</g>
<!-- &#45;8&#45;&gt;0 -->
<g id="edge8" class="edge">
<title>&#45;8&#45;&gt;0</title>
<path fill="none" stroke="red" stroke-width="0.12" stroke-dasharray="1,5" d="M540.48,-155.25C548.64,-137.17 565.69,-91.54 543.75,-64.99 514.27,-29.32 369.42,-19.1 310.62,-16.4"/>
<polygon fill="red" stroke="red" stroke-width="0.12" points="310.52,-12.89 300.38,-15.96 310.22,-19.88 310.52,-12.89"/>
</g>
<!-- &#45;8&#45;&gt;3425 -->
<g id="edge9" class="edge">
<title>&#45;8&#45;&gt;3425</title>
<path fill="none" stroke="green" stroke-width="0.75" d="M533.87,-155.21C531.09,-147.75 526.69,-135.96 522.47,-124.65"/>
<polygon fill="green" stroke="green" stroke-width="0.75" points="525.63,-123.1 518.85,-114.95 519.07,-125.55 525.63,-123.1"/>
</g>
<!-- 3425&#45;&gt;0 -->
<g id="edge10" class="edge">
<title>3425&#45;&gt;0</title>
<path fill="none" stroke="red" stroke-width="0.43" d="M492.19,-76.51C486.24,-72.33 479.45,-68.07 472.75,-64.99 417.73,-39.67 347.43,-25.46 310.68,-19.27"/>
<polygon fill="red" stroke="red" stroke-width="0.43" points="310.83,-15.75 300.4,-17.61 309.71,-22.66 310.83,-15.75"/>
</g>
<!-- 13610&#45;&gt;0 -->
<g id="edge15" class="edge">
<title>13610&#45;&gt;0</title>
<path fill="none" stroke="green" stroke-width="0.11" d="M266.92,-66.42C270.35,-57.15 274.22,-46.68 277.55,-37.65"/>
<polygon fill="green" stroke="green" stroke-width="0.11" points="280.86,-38.82 281.04,-28.22 274.29,-36.39 280.86,-38.82"/>
</g>
<!-- 37194&#45;&gt;0 -->
<g id="edge17" class="edge">
<title>37194&#45;&gt;0</title>
<path fill="none" stroke="red" stroke-width="0.14" d="M170.06,-76.39C176.06,-72.56 182.59,-68.52 188.75,-64.99 214.01,-50.52 243.97,-35.55 263.85,-25.91"/>
<polygon fill="red" stroke="red" stroke-width="0.14" points="265.49,-29.01 272.98,-21.52 262.46,-22.7 265.49,-29.01"/>
</g>
<!-- 9488&#45;&gt;0 -->
<g id="edge13" class="edge">
<title>9488&#45;&gt;0</title>
<path fill="none" stroke="green" stroke-width="0.12" d="M387.58,-77.62C381.61,-73.48 374.95,-68.98 368.75,-64.99 348.1,-51.73 323.94,-37.46 307.04,-27.67"/>
<polygon fill="green" stroke="green" stroke-width="0.12" points="308.41,-24.42 298,-22.46 304.92,-30.49 308.41,-24.42"/>
</g>
</g>
</svg>
