<?xml version="1.0" encoding="UTF-8" standalone="no"?>
<!DOCTYPE svg PUBLIC "-//W3C//DTD SVG 1.1//EN"
 "http://www.w3.org/Graphics/SVG/1.1/DTD/svg11.dtd">
<!-- Generated by graphviz version 2.38.0 (20140413.2041)
 -->
<!-- Title: %3 Pages: 1 -->
<svg width="334pt" height="210pt"
 viewBox="0.00 0.00 334.08 209.72" xmlns="http://www.w3.org/2000/svg" xmlns:xlink="http://www.w3.org/1999/xlink">
<g id="graph0" class="graph" transform="scale(1 1) rotate(0) translate(4 205.723)">
<title>%3</title>
<polygon fill="white" stroke="none" points="-4,4 -4,-205.723 330.077,-205.723 330.077,4 -4,4"/>
<!-- t&#45;8 -->
<g id="node1" class="node"><title>t&#45;8</title>
<polygon fill="lightgray" stroke="black" points="27,-201.723 0,-201.723 0,-183.723 27,-183.723 27,-201.723"/>
<text text-anchor="middle" x="13.5" y="-190.523" font-family="Times New Roman,serif" font-size="9.00">t&#45;8</text>
</g>
<!-- t&#45;7 -->
<g id="node2" class="node"><title>t&#45;7</title>
<polygon fill="lightgray" stroke="black" points="224,-201.723 197,-201.723 197,-183.723 224,-183.723 224,-201.723"/>
<text text-anchor="middle" x="210.5" y="-190.523" font-family="Times New Roman,serif" font-size="9.00">t&#45;7</text>
</g>
<!-- Target -->
<g id="node9" class="node"><title>Target</title>
<ellipse fill="lightblue" stroke="black" cx="151.5" cy="-119.439" rx="28.0702" ry="28.0702"/>
<text text-anchor="middle" x="151.5" y="-117.239" font-family="Times New Roman,serif" font-size="9.00">Target</text>
</g>
<!-- t&#45;7&#45;&gt;Target -->
<g id="edge1" class="edge"><title>t&#45;7&#45;&gt;Target</title>
<path fill="none" stroke="red" stroke-width="0.407433" stroke-dasharray="1,5" d="M203.732,-183.546C196.879,-175.266 185.873,-161.969 175.728,-149.711"/>
<polygon fill="red" stroke="red" stroke-width="0.407433" points="178.309,-147.341 169.237,-141.869 172.917,-151.804 178.309,-147.341"/>
</g>
<!-- 52795 -->
<g id="node12" class="node"><title>52795</title>
<ellipse fill="white" stroke="black" cx="225.5" cy="-119.439" rx="27.6545" ry="27.6545"/>
<text text-anchor="middle" x="225.5" y="-117.239" font-family="Times New Roman,serif" font-size="9.00">52795</text>
</g>
<!-- t&#45;7&#45;&gt;52795 -->
<g id="edge8" class="edge"><title>t&#45;7&#45;&gt;52795</title>
<path fill="none" stroke="red" stroke-width="0.479025" stroke-dasharray="1,5" d="M212.221,-183.546C213.64,-176.798 215.761,-166.719 217.894,-156.586"/>
<polygon fill="red" stroke="red" stroke-width="0.479025" points="221.37,-157.062 220.004,-146.555 214.52,-155.62 221.37,-157.062"/>
</g>
<!-- t&#45;6 -->
<g id="node3" class="node"><title>t&#45;6</title>
<polygon fill="lightgray" stroke="black" points="269,-201.723 242,-201.723 242,-183.723 269,-183.723 269,-201.723"/>
<text text-anchor="middle" x="255.5" y="-190.523" font-family="Times New Roman,serif" font-size="9.00">t&#45;6</text>
</g>
<!-- t&#45;5 -->
<g id="node4" class="node"><title>t&#45;5</title>
<polygon fill="lightgray" stroke="black" points="305,-128.439 278,-128.439 278,-110.439 305,-110.439 305,-128.439"/>
<text text-anchor="middle" x="291.5" y="-117.239" font-family="Times New Roman,serif" font-size="9.00">t&#45;5</text>
</g>
<!-- 72729 -->
<g id="node11" class="node"><title>72729</title>
<ellipse fill="white" stroke="black" cx="298.5" cy="-27.5772" rx="27.6545" ry="27.6545"/>
<text text-anchor="middle" x="298.5" y="-25.3772" font-family="Times New Roman,serif" font-size="9.00">72729</text>
</g>
<!-- t&#45;5&#45;&gt;72729 -->
<g id="edge10" class="edge"><title>t&#45;5&#45;&gt;72729</title>
<path fill="none" stroke="green" stroke-width="0.497655" d="M292.146,-110.146C292.942,-99.927 294.347,-81.885 295.634,-65.3632"/>
<polygon fill="green" stroke="green" stroke-width="0.497655" points="299.127,-65.5977 296.414,-55.356 292.148,-65.054 299.127,-65.5977"/>
</g>
<!-- 53087 -->
<g id="node14" class="node"><title>53087</title>
<ellipse fill="white" stroke="black" cx="225.5" cy="-27.5772" rx="27.6545" ry="27.6545"/>
<text text-anchor="middle" x="225.5" y="-25.3772" font-family="Times New Roman,serif" font-size="9.00">53087</text>
</g>
<!-- t&#45;5&#45;&gt;53087 -->
<g id="edge9" class="edge"><title>t&#45;5&#45;&gt;53087</title>
<path fill="none" stroke="green" stroke-width="0.160913" stroke-dasharray="1,5" d="M285.409,-110.146C276.908,-98.5706 261.034,-76.9574 247.761,-58.8861"/>
<polygon fill="green" stroke="green" stroke-width="0.160913" points="250.238,-56.3466 241.498,-50.3588 244.597,-60.4904 250.238,-56.3466"/>
</g>
<!-- t&#45;4 -->
<g id="node5" class="node"><title>t&#45;4</title>
<polygon fill="lightgray" stroke="black" points="314,-201.723 287,-201.723 287,-183.723 314,-183.723 314,-201.723"/>
<text text-anchor="middle" x="300.5" y="-190.523" font-family="Times New Roman,serif" font-size="9.00">t&#45;4</text>
</g>
<!-- t&#45;3 -->
<g id="node6" class="node"><title>t&#45;3</title>
<polygon fill="lightgray" stroke="black" points="119,-201.723 92,-201.723 92,-183.723 119,-183.723 119,-201.723"/>
<text text-anchor="middle" x="105.5" y="-190.523" font-family="Times New Roman,serif" font-size="9.00">t&#45;3</text>
</g>
<!-- t&#45;3&#45;&gt;Target -->
<g id="edge2" class="edge"><title>t&#45;3&#45;&gt;Target</title>
<path fill="none" stroke="red" stroke-width="0.236008" stroke-dasharray="1,5" d="M110.777,-183.546C115.741,-175.852 123.502,-163.827 130.922,-152.328"/>
<polygon fill="red" stroke="red" stroke-width="0.236008" points="133.996,-154.018 136.478,-143.718 128.115,-150.223 133.996,-154.018"/>
</g>
<!-- 43212 -->
<g id="node10" class="node"><title>43212</title>
<ellipse fill="white" stroke="black" cx="78.5" cy="-27.5772" rx="27.6545" ry="27.6545"/>
<text text-anchor="middle" x="78.5" y="-25.3772" font-family="Times New Roman,serif" font-size="9.00">43212</text>
</g>
<!-- t&#45;3&#45;&gt;43212 -->
<g id="edge7" class="edge"><title>t&#45;3&#45;&gt;43212</title>
<path fill="none" stroke="red" stroke-width="0.487899" d="M104.124,-183.408C100.578,-161.982 90.9594,-103.862 84.5686,-65.2461"/>
<polygon fill="red" stroke="red" stroke-width="0.487899" points="87.9452,-64.2125 82.8593,-54.9182 81.0391,-65.3555 87.9452,-64.2125"/>
</g>
<!-- t&#45;2 -->
<g id="node7" class="node"><title>t&#45;2</title>
<polygon fill="lightgray" stroke="black" points="72,-201.723 45,-201.723 45,-183.723 72,-183.723 72,-201.723"/>
<text text-anchor="middle" x="58.5" y="-190.523" font-family="Times New Roman,serif" font-size="9.00">t&#45;2</text>
</g>
<!-- t&#45;2&#45;&gt;Target -->
<g id="edge3" class="edge"><title>t&#45;2&#45;&gt;Target</title>
<path fill="none" stroke="red" stroke-width="0.27992" d="M69.1683,-183.546C81.7148,-173.929 103.092,-157.543 120.919,-143.879"/>
<polygon fill="red" stroke="red" stroke-width="0.27992" points="123.524,-146.292 129.331,-137.431 119.265,-140.737 123.524,-146.292"/>
</g>
<!-- t&#45;2&#45;&gt;43212 -->
<g id="edge5" class="edge"><title>t&#45;2&#45;&gt;43212</title>
<path fill="none" stroke="green" stroke-width="0.213602" stroke-dasharray="1,5" d="M59.5193,-183.408C62.1387,-162.041 69.2314,-104.184 73.9654,-65.5675"/>
<polygon fill="green" stroke="green" stroke-width="0.213602" points="77.4895,-65.5837 75.2324,-55.2321 70.5415,-64.7319 77.4895,-65.5837"/>
</g>
<!-- t&#45;1 -->
<g id="node8" class="node"><title>t&#45;1</title>
<polygon fill="lightgray" stroke="black" points="165,-201.723 138,-201.723 138,-183.723 165,-183.723 165,-201.723"/>
<text text-anchor="middle" x="151.5" y="-190.523" font-family="Times New Roman,serif" font-size="9.00">t&#45;1</text>
</g>
<!-- t&#45;1&#45;&gt;Target -->
<g id="edge4" class="edge"><title>t&#45;1&#45;&gt;Target</title>
<path fill="none" stroke="green" stroke-width="0.440403" d="M151.5,-183.546C151.5,-177.086 151.5,-167.572 151.5,-157.88"/>
<polygon fill="green" stroke="green" stroke-width="0.440403" points="155,-157.836 151.5,-147.836 148,-157.837 155,-157.836"/>
</g>
<!-- Target&#45;&gt;43212 -->
<g id="edge6" class="edge"><title>Target&#45;&gt;43212</title>
<path fill="none" stroke="red" stroke-width="0.211489" stroke-dasharray="1,5" d="M133.829,-96.6857C124.275,-84.9255 112.352,-70.248 102.023,-57.5329"/>
<polygon fill="red" stroke="red" stroke-width="0.211489" points="104.528,-55.0659 95.5059,-49.511 99.0946,-59.4796 104.528,-55.0659"/>
</g>
<!-- 50877 -->
<g id="node13" class="node"><title>50877</title>
<ellipse fill="white" stroke="black" cx="151.5" cy="-27.5772" rx="27.6545" ry="27.6545"/>
<text text-anchor="middle" x="151.5" y="-25.3772" font-family="Times New Roman,serif" font-size="9.00">50877</text>
</g>
<!-- Target&#45;&gt;50877 -->
<g id="edge11" class="edge"><title>Target&#45;&gt;50877</title>
<path fill="none" stroke="green" stroke-width="0.591414" d="M151.5,-90.9889C151.5,-82.9161 151.5,-73.9513 151.5,-65.3928"/>
<polygon fill="green" stroke="green" stroke-width="0.591414" points="155,-65.2421 151.5,-55.2421 148,-65.2421 155,-65.2421"/>
</g>
<!-- 52795&#45;&gt;53087 -->
<g id="edge12" class="edge"><title>52795&#45;&gt;53087</title>
<path fill="none" stroke="green" stroke-width="0.164174" stroke-dasharray="1,5" d="M225.5,-91.4772C225.5,-83.2282 225.5,-74.0117 225.5,-65.2319"/>
<polygon fill="green" stroke="green" stroke-width="0.164174" points="229,-65.2098 225.5,-55.2099 222,-65.2099 229,-65.2098"/>
</g>
</g>
</svg>
