<?xml version="1.0" encoding="UTF-8" standalone="no"?>
<!DOCTYPE svg PUBLIC "-//W3C//DTD SVG 1.1//EN"
 "http://www.w3.org/Graphics/SVG/1.1/DTD/svg11.dtd">
<!-- Generated by graphviz version 2.42.3 (20191010.1750)
 -->
<!-- Title: %3 Pages: 1 -->
<svg width="318pt" height="116pt"
 viewBox="0.00 0.00 318.50 115.73" xmlns="http://www.w3.org/2000/svg" xmlns:xlink="http://www.w3.org/1999/xlink">
<g id="graph0" class="graph" transform="scale(1 1) rotate(0) translate(4 111.73)">
<title>%3</title>
<polygon fill="white" stroke="transparent" points="-4,4 -4,-111.73 314.5,-111.73 314.5,4 -4,4"/>
<!-- &#45;8 -->
<g id="node1" class="node">
<title>&#45;8</title>
<polygon fill="lightgray" stroke="black" points="23.75,-107.73 -0.25,-107.73 -0.25,-90.73 23.75,-90.73 23.75,-107.73"/>
<text text-anchor="middle" x="11.75" y="-96.53" font-family="Times,serif" font-size="9.00">&#45;8</text>
</g>
<!-- &#45;7 -->
<g id="node2" class="node">
<title>&#45;7</title>
<polygon fill="lightgray" stroke="black" points="64.75,-107.73 40.75,-107.73 40.75,-90.73 64.75,-90.73 64.75,-107.73"/>
<text text-anchor="middle" x="52.75" y="-96.53" font-family="Times,serif" font-size="9.00">&#45;7</text>
</g>
<!-- &#45;6 -->
<g id="node3" class="node">
<title>&#45;6</title>
<polygon fill="lightgray" stroke="black" points="105.75,-107.73 81.75,-107.73 81.75,-90.73 105.75,-90.73 105.75,-107.73"/>
<text text-anchor="middle" x="93.75" y="-96.53" font-family="Times,serif" font-size="9.00">&#45;6</text>
</g>
<!-- &#45;5 -->
<g id="node4" class="node">
<title>&#45;5</title>
<polygon fill="lightgray" stroke="black" points="146.75,-107.73 122.75,-107.73 122.75,-90.73 146.75,-90.73 146.75,-107.73"/>
<text text-anchor="middle" x="134.75" y="-96.53" font-family="Times,serif" font-size="9.00">&#45;5</text>
</g>
<!-- &#45;4 -->
<g id="node5" class="node">
<title>&#45;4</title>
<polygon fill="lightgray" stroke="black" points="187.75,-107.73 163.75,-107.73 163.75,-90.73 187.75,-90.73 187.75,-107.73"/>
<text text-anchor="middle" x="175.75" y="-96.53" font-family="Times,serif" font-size="9.00">&#45;4</text>
</g>
<!-- &#45;3 -->
<g id="node6" class="node">
<title>&#45;3</title>
<polygon fill="lightgray" stroke="black" points="228.75,-107.73 204.75,-107.73 204.75,-90.73 228.75,-90.73 228.75,-107.73"/>
<text text-anchor="middle" x="216.75" y="-96.53" font-family="Times,serif" font-size="9.00">&#45;3</text>
</g>
<!-- &#45;2 -->
<g id="node7" class="node">
<title>&#45;2</title>
<polygon fill="lightgray" stroke="black" points="269.75,-107.73 245.75,-107.73 245.75,-90.73 269.75,-90.73 269.75,-107.73"/>
<text text-anchor="middle" x="257.75" y="-96.53" font-family="Times,serif" font-size="9.00">&#45;2</text>
</g>
<!-- Target -->
<g id="node9" class="node">
<title>Target</title>
<ellipse fill="lightblue" stroke="black" cx="277.75" cy="-27.36" rx="27.23" ry="27.23"/>
<text text-anchor="middle" x="277.75" y="-24.66" font-family="Times,serif" font-size="9.00">Target</text>
</g>
<!-- &#45;2&#45;&gt;Target -->
<g id="edge1" class="edge">
<title>&#45;2&#45;&gt;Target</title>
<path fill="none" stroke="red" stroke-width="0.23" d="M259.97,-90.48C261.88,-83.81 264.78,-73.66 267.69,-63.49"/>
<polygon fill="red" stroke="red" stroke-width="0.23" points="271.06,-64.43 270.45,-53.85 264.33,-62.5 271.06,-64.43"/>
</g>
<!-- &#45;1 -->
<g id="node8" class="node">
<title>&#45;1</title>
<polygon fill="lightgray" stroke="black" points="310.75,-107.73 286.75,-107.73 286.75,-90.73 310.75,-90.73 310.75,-107.73"/>
<text text-anchor="middle" x="298.75" y="-96.53" font-family="Times,serif" font-size="9.00">&#45;1</text>
</g>
<!-- &#45;1&#45;&gt;Target -->
<g id="edge2" class="edge">
<title>&#45;1&#45;&gt;Target</title>
<path fill="none" stroke="green" stroke-width="0.38" d="M296.42,-90.48C294.41,-83.81 291.36,-73.66 288.31,-63.49"/>
<polygon fill="green" stroke="green" stroke-width="0.38" points="291.64,-62.42 285.41,-53.85 284.94,-64.44 291.64,-62.42"/>
</g>
</g>
</svg>
