<?xml version="1.0" encoding="UTF-8" standalone="no"?>
<!DOCTYPE svg PUBLIC "-//W3C//DTD SVG 1.1//EN"
 "http://www.w3.org/Graphics/SVG/1.1/DTD/svg11.dtd">
<!-- Generated by graphviz version 2.38.0 (20140413.2041)
 -->
<!-- Title: %3 Pages: 1 -->
<svg width="406pt" height="338pt"
 viewBox="0.00 0.00 406.00 337.65" xmlns="http://www.w3.org/2000/svg" xmlns:xlink="http://www.w3.org/1999/xlink">
<g id="graph0" class="graph" transform="scale(1 1) rotate(0) translate(4 333.647)">
<title>%3</title>
<polygon fill="white" stroke="none" points="-4,4 -4,-333.647 402,-333.647 402,4 -4,4"/>
<!-- &#45;8 -->
<g id="node1" class="node"><title>&#45;8</title>
<polygon fill="lightgray" stroke="black" points="104,-146.823 80,-146.823 80,-128.823 104,-128.823 104,-146.823"/>
<text text-anchor="middle" x="92" y="-135.623" font-family="Times New Roman,serif" font-size="9.00">&#45;8</text>
</g>
<!-- Target -->
<g id="node9" class="node"><title>Target</title>
<ellipse fill="lightblue" stroke="black" cx="92" cy="-33.9411" rx="28.0702" ry="28.0702"/>
<text text-anchor="middle" x="92" y="-31.7411" font-family="Times New Roman,serif" font-size="9.00">Target</text>
</g>
<!-- &#45;8&#45;&gt;Target -->
<g id="edge15" class="edge"><title>&#45;8&#45;&gt;Target</title>
<path fill="none" stroke="green" stroke-width="0.125962" d="M92,-128.486C92,-116.345 92,-93.0305 92,-72.7155"/>
<polygon fill="green" stroke="green" stroke-width="0.125962" points="95.5001,-72.4406 92,-62.4406 88.5001,-72.4406 95.5001,-72.4406"/>
</g>
<!-- &#45;7 -->
<g id="node2" class="node"><title>&#45;7</title>
<polygon fill="lightgray" stroke="black" points="248,-329.647 224,-329.647 224,-311.647 248,-311.647 248,-329.647"/>
<text text-anchor="middle" x="236" y="-318.447" font-family="Times New Roman,serif" font-size="9.00">&#45;7</text>
</g>
<!-- 7091490 -->
<g id="node10" class="node"><title>7091490</title>
<ellipse fill="white" stroke="black" cx="236" cy="-241.706" rx="33.8824" ry="33.8824"/>
<text text-anchor="middle" x="236" y="-239.506" font-family="Times New Roman,serif" font-size="9.00">7091490</text>
</g>
<!-- &#45;7&#45;&gt;7091490 -->
<g id="edge13" class="edge"><title>&#45;7&#45;&gt;7091490</title>
<path fill="none" stroke="green" stroke-width="0.327534" d="M236,-311.413C236,-305.083 236,-295.802 236,-286.097"/>
<polygon fill="green" stroke="green" stroke-width="0.327534" points="239.5,-285.936 236,-275.936 232.5,-285.936 239.5,-285.936"/>
</g>
<!-- 6475412 -->
<g id="node12" class="node"><title>6475412</title>
<ellipse fill="white" stroke="black" cx="236" cy="-137.823" rx="33.8824" ry="33.8824"/>
<text text-anchor="middle" x="236" y="-135.623" font-family="Times New Roman,serif" font-size="9.00">6475412</text>
</g>
<!-- &#45;7&#45;&gt;6475412 -->
<g id="edge6" class="edge"><title>&#45;7&#45;&gt;6475412</title>
<path fill="none" stroke="red" stroke-width="0.149461" d="M223.917,-311.512C213.507,-303.708 199.207,-290.879 193,-275.647 181.615,-247.708 184.696,-236.769 193,-207.765 196.458,-195.686 202.714,-183.668 209.403,-173.13"/>
<polygon fill="red" stroke="red" stroke-width="0.149461" points="212.421,-174.914 215.072,-164.657 206.603,-171.022 212.421,-174.914"/>
</g>
<!-- 7017367 -->
<g id="node14" class="node"><title>7017367</title>
<ellipse fill="white" stroke="black" cx="322" cy="-241.706" rx="33.8824" ry="33.8824"/>
<text text-anchor="middle" x="322" y="-239.506" font-family="Times New Roman,serif" font-size="9.00">7017367</text>
</g>
<!-- &#45;7&#45;&gt;7017367 -->
<g id="edge9" class="edge"><title>&#45;7&#45;&gt;7017367</title>
<path fill="none" stroke="green" stroke-width="0.290624" d="M245.204,-311.413C255.779,-301.951 273.723,-285.898 289.607,-271.687"/>
<polygon fill="green" stroke="green" stroke-width="0.290624" points="292.078,-274.172 297.197,-264.896 287.411,-268.955 292.078,-274.172"/>
</g>
<!-- &#45;6 -->
<g id="node3" class="node"><title>&#45;6</title>
<polygon fill="lightgray" stroke="black" points="398,-146.823 374,-146.823 374,-128.823 398,-128.823 398,-146.823"/>
<text text-anchor="middle" x="386" y="-135.623" font-family="Times New Roman,serif" font-size="9.00">&#45;6</text>
</g>
<!-- 3772561 -->
<g id="node11" class="node"><title>3772561</title>
<ellipse fill="white" stroke="black" cx="279" cy="-33.9411" rx="33.8824" ry="33.8824"/>
<text text-anchor="middle" x="279" y="-31.7411" font-family="Times New Roman,serif" font-size="9.00">3772561</text>
</g>
<!-- &#45;6&#45;&gt;3772561 -->
<g id="edge8" class="edge"><title>&#45;6&#45;&gt;3772561</title>
<path fill="none" stroke="green" stroke-width="0.499322" d="M381.827,-128.73C377.997,-121.73 371.885,-111.555 365,-103.882 350.309,-87.5085 331.469,-71.9378 315.17,-59.7509"/>
<polygon fill="green" stroke="green" stroke-width="0.499322" points="317.048,-56.7882 306.913,-53.7001 312.91,-62.4343 317.048,-56.7882"/>
</g>
<!-- &#45;5 -->
<g id="node4" class="node"><title>&#45;5</title>
<polygon fill="lightgray" stroke="black" points="290,-329.647 266,-329.647 266,-311.647 290,-311.647 290,-329.647"/>
<text text-anchor="middle" x="278" y="-318.447" font-family="Times New Roman,serif" font-size="9.00">&#45;5</text>
</g>
<!-- &#45;4 -->
<g id="node5" class="node"><title>&#45;4</title>
<polygon fill="lightgray" stroke="black" points="332,-329.647 308,-329.647 308,-311.647 332,-311.647 332,-329.647"/>
<text text-anchor="middle" x="320" y="-318.447" font-family="Times New Roman,serif" font-size="9.00">&#45;4</text>
</g>
<!-- &#45;3 -->
<g id="node6" class="node"><title>&#45;3</title>
<polygon fill="lightgray" stroke="black" points="374,-329.647 350,-329.647 350,-311.647 374,-311.647 374,-329.647"/>
<text text-anchor="middle" x="362" y="-318.447" font-family="Times New Roman,serif" font-size="9.00">&#45;3</text>
</g>
<!-- &#45;2 -->
<g id="node7" class="node"><title>&#45;2</title>
<polygon fill="lightgray" stroke="black" points="24,-146.823 0,-146.823 0,-128.823 24,-128.823 24,-146.823"/>
<text text-anchor="middle" x="12" y="-135.623" font-family="Times New Roman,serif" font-size="9.00">&#45;2</text>
</g>
<!-- &#45;2&#45;&gt;Target -->
<g id="edge2" class="edge"><title>&#45;2&#45;&gt;Target</title>
<path fill="none" stroke="red" stroke-width="0.243148" d="M18.5467,-128.486C29.334,-114.748 51.3546,-86.7042 68.4855,-64.8874"/>
<polygon fill="red" stroke="red" stroke-width="0.243148" points="71.355,-66.9003 74.7781,-56.8737 65.8495,-62.5772 71.355,-66.9003"/>
</g>
<!-- &#45;1 -->
<g id="node8" class="node"><title>&#45;1</title>
<polygon fill="lightgray" stroke="black" points="105,-250.706 81,-250.706 81,-232.706 105,-232.706 105,-250.706"/>
<text text-anchor="middle" x="93" y="-239.506" font-family="Times New Roman,serif" font-size="9.00">&#45;1</text>
</g>
<!-- &#45;1&#45;&gt;Target -->
<g id="edge1" class="edge"><title>&#45;1&#45;&gt;Target</title>
<path fill="none" stroke="green" stroke-width="0.386952" d="M89.4297,-232.418C84.1531,-219.671 74.5176,-194.358 71,-171.765 66.3588,-141.954 66.5559,-133.723 71,-103.882 72.6481,-92.8159 75.7071,-81.0689 78.9902,-70.4669"/>
<polygon fill="green" stroke="green" stroke-width="0.386952" points="82.3982,-71.3049 82.1679,-60.7126 75.7425,-69.1366 82.3982,-71.3049"/>
</g>
<!-- 259519 -->
<g id="node15" class="node"><title>259519</title>
<ellipse fill="white" stroke="black" cx="153" cy="-137.823" rx="31.2258" ry="31.2258"/>
<text text-anchor="middle" x="153" y="-135.623" font-family="Times New Roman,serif" font-size="9.00">259519</text>
</g>
<!-- &#45;1&#45;&gt;259519 -->
<g id="edge3" class="edge"><title>&#45;1&#45;&gt;259519</title>
<path fill="none" stroke="green" stroke-width="0.510791" d="M97.9101,-232.368C105.404,-219.644 120.126,-194.645 132.466,-173.69"/>
<polygon fill="green" stroke="green" stroke-width="0.510791" points="135.523,-175.398 137.581,-165.005 129.491,-171.845 135.523,-175.398"/>
</g>
<!-- 7091490&#45;&gt;6475412 -->
<g id="edge14" class="edge"><title>7091490&#45;&gt;6475412</title>
<path fill="none" stroke="red" stroke-width="0.342313" stroke-dasharray="1,5" d="M236,-207.627C236,-199.531 236,-190.745 236,-182.245"/>
<polygon fill="red" stroke="red" stroke-width="0.342313" points="239.5,-182.084 236,-172.084 232.5,-182.084 239.5,-182.084"/>
</g>
<!-- 6475412&#45;&gt;Target -->
<g id="edge7" class="edge"><title>6475412&#45;&gt;Target</title>
<path fill="none" stroke="green" stroke-width="0.402028" stroke-dasharray="1,5" d="M209.333,-116.035C203.965,-111.952 198.333,-107.741 193,-103.882 170.226,-87.4049 143.991,-69.5298 123.968,-56.1106"/>
<polygon fill="green" stroke="green" stroke-width="0.402028" points="125.778,-53.1104 115.519,-50.465 121.889,-58.9307 125.778,-53.1104"/>
</g>
<!-- 6475412&#45;&gt;3772561 -->
<g id="edge12" class="edge"><title>6475412&#45;&gt;3772561</title>
<path fill="none" stroke="red" stroke-width="0.382329" d="M248.901,-106.255C253.068,-96.3826 257.751,-85.2876 262.159,-74.843"/>
<polygon fill="red" stroke="red" stroke-width="0.382329" points="265.444,-76.0616 266.108,-65.4876 258.995,-73.3397 265.444,-76.0616"/>
</g>
<!-- 7086932 -->
<g id="node13" class="node"><title>7086932</title>
<ellipse fill="white" stroke="black" cx="322" cy="-137.823" rx="33.8824" ry="33.8824"/>
<text text-anchor="middle" x="322" y="-135.623" font-family="Times New Roman,serif" font-size="9.00">7086932</text>
</g>
<!-- 7086932&#45;&gt;3772561 -->
<g id="edge11" class="edge"><title>7086932&#45;&gt;3772561</title>
<path fill="none" stroke="red" stroke-width="0.524666" stroke-dasharray="1,5" d="M309.099,-106.255C304.932,-96.3826 300.249,-85.2876 295.841,-74.843"/>
<polygon fill="red" stroke="red" stroke-width="0.524666" points="299.005,-73.3397 291.892,-65.4876 292.556,-76.0616 299.005,-73.3397"/>
</g>
<!-- 7017367&#45;&gt;6475412 -->
<g id="edge10" class="edge"><title>7017367&#45;&gt;6475412</title>
<path fill="none" stroke="green" stroke-width="0.593543" d="M300.52,-215.259C289.541,-202.252 276.039,-186.257 264.23,-172.267"/>
<polygon fill="green" stroke="green" stroke-width="0.593543" points="266.629,-169.682 257.504,-164.298 261.28,-174.198 266.629,-169.682"/>
</g>
<!-- 259519&#45;&gt;Target -->
<g id="edge4" class="edge"><title>259519&#45;&gt;Target</title>
<path fill="none" stroke="red" stroke-width="0.243946" d="M137.449,-110.851C129.573,-97.6961 119.93,-81.5906 111.556,-67.6043"/>
<polygon fill="red" stroke="red" stroke-width="0.243946" points="114.408,-65.5535 106.268,-58.7717 108.402,-69.1494 114.408,-65.5535"/>
</g>
<!-- 259519&#45;&gt;3772561 -->
<g id="edge5" class="edge"><title>259519&#45;&gt;3772561</title>
<path fill="none" stroke="red" stroke-width="0.299726" d="M176.647,-117.263C182.013,-112.849 187.694,-108.194 193,-103.882 209.947,-90.1126 228.873,-74.9208 244.646,-62.3105"/>
<polygon fill="red" stroke="red" stroke-width="0.299726" points="246.952,-64.9486 252.58,-55.9726 242.583,-59.4793 246.952,-64.9486"/>
</g>
</g>
</svg>
