<?xml version="1.0" encoding="UTF-8" standalone="no"?>
<!DOCTYPE svg PUBLIC "-//W3C//DTD SVG 1.1//EN"
 "http://www.w3.org/Graphics/SVG/1.1/DTD/svg11.dtd">
<!-- Generated by graphviz version 2.38.0 (20140413.2041)
 -->
<!-- Title: %3 Pages: 1 -->
<svg width="608pt" height="301pt"
 viewBox="0.00 0.00 608.00 300.88" xmlns="http://www.w3.org/2000/svg" xmlns:xlink="http://www.w3.org/1999/xlink">
<g id="graph0" class="graph" transform="scale(1 1) rotate(0) translate(4 296.877)">
<title>%3</title>
<polygon fill="white" stroke="none" points="-4,4 -4,-296.877 604,-296.877 604,4 -4,4"/>
<!-- t&#45;8 -->
<g id="node1" class="node"><title>t&#45;8</title>
<polygon fill="lightgray" stroke="black" points="27,-129.146 0,-129.146 0,-111.146 27,-111.146 27,-129.146"/>
<text text-anchor="middle" x="13.5" y="-117.946" font-family="Times New Roman,serif" font-size="9.00">t&#45;8</text>
</g>
<!-- Target -->
<g id="node13" class="node"><title>Target</title>
<ellipse fill="lightblue" stroke="black" cx="291.5" cy="-28.2843" rx="28.0702" ry="28.0702"/>
<text text-anchor="middle" x="291.5" y="-26.0843" font-family="Times New Roman,serif" font-size="9.00">Target</text>
</g>
<!-- t&#45;8&#45;&gt;Target -->
<g id="edge1" class="edge"><title>t&#45;8&#45;&gt;Target</title>
<path fill="none" stroke="red" stroke-width="0.119301" d="M18.2542,-110.97C22.1481,-104.992 28.196,-97.1564 35.5,-92.5685 104.05,-49.5102 200.033,-35.7419 252.851,-31.344"/>
<polygon fill="red" stroke="red" stroke-width="0.119301" points="253.424,-34.8106 263.13,-30.562 252.893,-27.8308 253.424,-34.8106"/>
</g>
<!-- t&#45;7 -->
<g id="node2" class="node"><title>t&#45;7</title>
<polygon fill="lightgray" stroke="black" points="72,-129.146 45,-129.146 45,-111.146 72,-111.146 72,-129.146"/>
<text text-anchor="middle" x="58.5" y="-117.946" font-family="Times New Roman,serif" font-size="9.00">t&#45;7</text>
</g>
<!-- t&#45;7&#45;&gt;Target -->
<g id="edge2" class="edge"><title>t&#45;7&#45;&gt;Target</title>
<path fill="none" stroke="green" stroke-width="0.171093" d="M65.1053,-111.134C70.3517,-105.242 78.1698,-97.4424 86.5,-92.5685 140.109,-61.2029 210.858,-43.8481 253.672,-35.5595"/>
<polygon fill="green" stroke="green" stroke-width="0.171093" points="254.48,-38.9691 263.667,-33.6914 253.194,-32.0882 254.48,-38.9691"/>
</g>
<!-- t&#45;6 -->
<g id="node3" class="node"><title>t&#45;6</title>
<polygon fill="lightgray" stroke="black" points="68,-220.3 41,-220.3 41,-202.3 68,-202.3 68,-220.3"/>
<text text-anchor="middle" x="54.5" y="-209.1" font-family="Times New Roman,serif" font-size="9.00">t&#45;6</text>
</g>
<!-- t&#45;6&#45;&gt;Target -->
<g id="edge3" class="edge"><title>t&#45;6&#45;&gt;Target</title>
<path fill="none" stroke="red" stroke-width="0.303725" stroke-dasharray="1,5" d="M58.0868,-202.153C68.7729,-178.189 100.811,-108.614 119.5,-92.5685 158.116,-59.4136 215.629,-42.9839 253.346,-35.3228"/>
<polygon fill="red" stroke="red" stroke-width="0.303725" points="254.266,-38.7102 263.427,-33.3879 252.946,-31.8356 254.266,-38.7102"/>
</g>
<!-- 3555 -->
<g id="node14" class="node"><title>3555</title>
<ellipse fill="white" stroke="black" cx="153.5" cy="-120.146" rx="25" ry="25"/>
<text text-anchor="middle" x="153.5" y="-117.946" font-family="Times New Roman,serif" font-size="9.00">3555</text>
</g>
<!-- t&#45;6&#45;&gt;3555 -->
<g id="edge14" class="edge"><title>t&#45;6&#45;&gt;3555</title>
<path fill="none" stroke="green" stroke-width="0.126193" stroke-dasharray="1,5" d="M63.2492,-201.837C68.7317,-196.573 75.972,-189.694 82.5,-183.723 97.2967,-170.188 114.122,-155.336 127.679,-143.498"/>
<polygon fill="green" stroke="green" stroke-width="0.126193" points="130.001,-146.117 135.243,-136.91 125.404,-140.839 130.001,-146.117"/>
</g>
<!-- t&#45;5 -->
<g id="node4" class="node"><title>t&#45;5</title>
<polygon fill="lightgray" stroke="black" points="263,-129.146 236,-129.146 236,-111.146 263,-111.146 263,-129.146"/>
<text text-anchor="middle" x="249.5" y="-117.946" font-family="Times New Roman,serif" font-size="9.00">t&#45;5</text>
</g>
<!-- t&#45;5&#45;&gt;Target -->
<g id="edge4" class="edge"><title>t&#45;5&#45;&gt;Target</title>
<path fill="none" stroke="red" stroke-width="0.218442" stroke-dasharray="1,5" d="M253.376,-110.853C258.414,-100.075 267.519,-80.5933 275.568,-63.3721"/>
<polygon fill="red" stroke="red" stroke-width="0.218442" points="278.835,-64.6483 279.898,-54.107 272.493,-61.6843 278.835,-64.6483"/>
</g>
<!-- t&#45;4 -->
<g id="node5" class="node"><title>t&#45;4</title>
<polygon fill="lightgray" stroke="black" points="336,-220.3 309,-220.3 309,-202.3 336,-202.3 336,-220.3"/>
<text text-anchor="middle" x="322.5" y="-209.1" font-family="Times New Roman,serif" font-size="9.00">t&#45;4</text>
</g>
<!-- t&#45;4&#45;&gt;Target -->
<g id="edge5" class="edge"><title>t&#45;4&#45;&gt;Target</title>
<path fill="none" stroke="green" stroke-width="0.116321" d="M320.868,-202.214C318.482,-190.304 313.952,-167.333 310.5,-147.723 305.741,-120.688 300.845,-90.0939 297.216,-66.7726"/>
<polygon fill="green" stroke="green" stroke-width="0.116321" points="300.631,-65.9549 295.642,-56.6081 293.713,-67.0259 300.631,-65.9549"/>
</g>
<!-- 23771 -->
<g id="node16" class="node"><title>23771</title>
<ellipse fill="white" stroke="black" cx="347.5" cy="-120.146" rx="27.6545" ry="27.6545"/>
<text text-anchor="middle" x="347.5" y="-117.946" font-family="Times New Roman,serif" font-size="9.00">23771</text>
</g>
<!-- t&#45;4&#45;&gt;23771 -->
<g id="edge19" class="edge"><title>t&#45;4&#45;&gt;23771</title>
<path fill="none" stroke="red" stroke-width="0.211988" stroke-dasharray="1,5" d="M324.807,-202.072C327.69,-191.791 332.811,-173.528 337.46,-156.951"/>
<polygon fill="red" stroke="red" stroke-width="0.211988" points="340.939,-157.506 340.269,-146.933 334.199,-155.616 340.939,-157.506"/>
</g>
<!-- t&#45;3 -->
<g id="node6" class="node"><title>t&#45;3</title>
<polygon fill="lightgray" stroke="black" points="386,-220.3 359,-220.3 359,-202.3 386,-202.3 386,-220.3"/>
<text text-anchor="middle" x="372.5" y="-209.1" font-family="Times New Roman,serif" font-size="9.00">t&#45;3</text>
</g>
<!-- t&#45;3&#45;&gt;Target -->
<g id="edge6" class="edge"><title>t&#45;3&#45;&gt;Target</title>
<path fill="none" stroke="red" stroke-width="0.284258" stroke-dasharray="1,5" d="M376.21,-202.286C384.843,-182.379 404.101,-129.615 384.5,-92.5685 372.382,-69.6651 347.844,-53.5034 327.015,-43.2474"/>
<polygon fill="red" stroke="red" stroke-width="0.284258" points="328.307,-39.9886 317.764,-38.9478 325.357,-46.3365 328.307,-39.9886"/>
</g>
<!-- t&#45;3&#45;&gt;23771 -->
<g id="edge17" class="edge"><title>t&#45;3&#45;&gt;23771</title>
<path fill="none" stroke="green" stroke-width="0.296772" d="M370.193,-202.072C367.31,-191.791 362.189,-173.528 357.54,-156.951"/>
<polygon fill="green" stroke="green" stroke-width="0.296772" points="360.801,-155.616 354.731,-146.933 354.061,-157.506 360.801,-155.616"/>
</g>
<!-- t&#45;2 -->
<g id="node7" class="node"><title>t&#45;2</title>
<polygon fill="lightgray" stroke="black" points="166,-292.877 139,-292.877 139,-274.877 166,-274.877 166,-292.877"/>
<text text-anchor="middle" x="152.5" y="-281.677" font-family="Times New Roman,serif" font-size="9.00">t&#45;2</text>
</g>
<!-- t&#45;2&#45;&gt;Target -->
<g id="edge7" class="edge"><title>t&#45;2&#45;&gt;Target</title>
<path fill="none" stroke="red" stroke-width="0.259265" stroke-dasharray="1,5" d="M161.454,-274.64C169.901,-266.383 182.31,-252.912 189.5,-238.877 220.082,-179.182 192.985,-150.668 226.5,-92.5685 235.28,-77.3485 248.752,-63.3755 261.159,-52.453"/>
<polygon fill="red" stroke="red" stroke-width="0.259265" points="263.726,-54.8654 269.098,-45.7335 259.204,-49.5222 263.726,-54.8654"/>
</g>
<!-- t&#45;2&#45;&gt;3555 -->
<g id="edge12" class="edge"><title>t&#45;2&#45;&gt;3555</title>
<path fill="none" stroke="green" stroke-width="0.502598" stroke-dasharray="1,5" d="M142.415,-274.677C133.406,-266.644 120.833,-253.505 115.5,-238.877 107.104,-215.847 108.894,-207.329 115.5,-183.723 119.006,-171.196 125.782,-158.684 132.653,-148.177"/>
<polygon fill="green" stroke="green" stroke-width="0.502598" points="135.587,-150.087 138.377,-139.866 129.822,-146.116 135.587,-150.087"/>
</g>
<!-- 13734 -->
<g id="node15" class="node"><title>13734</title>
<ellipse fill="white" stroke="black" cx="152.5" cy="-211.3" rx="27.6545" ry="27.6545"/>
<text text-anchor="middle" x="152.5" y="-209.1" font-family="Times New Roman,serif" font-size="9.00">13734</text>
</g>
<!-- t&#45;2&#45;&gt;13734 -->
<g id="edge15" class="edge"><title>t&#45;2&#45;&gt;13734</title>
<path fill="none" stroke="red" stroke-width="0.391077" d="M152.5,-274.781C152.5,-268.332 152.5,-258.807 152.5,-249.128"/>
<polygon fill="red" stroke="red" stroke-width="0.391077" points="156,-249.108 152.5,-239.108 149,-249.108 156,-249.108"/>
</g>
<!-- t&#45;1 -->
<g id="node8" class="node"><title>t&#45;1</title>
<polygon fill="lightgray" stroke="black" points="459,-129.146 432,-129.146 432,-111.146 459,-111.146 459,-129.146"/>
<text text-anchor="middle" x="445.5" y="-117.946" font-family="Times New Roman,serif" font-size="9.00">t&#45;1</text>
</g>
<!-- t&#45;1&#45;&gt;Target -->
<g id="edge8" class="edge"><title>t&#45;1&#45;&gt;Target</title>
<path fill="none" stroke="red" stroke-width="0.650545" stroke-dasharray="1,5" d="M438.192,-111.043C432.832,-105.405 425.178,-97.9622 417.5,-92.5685 389.082,-72.605 353.463,-55.3321 327.353,-43.899"/>
<polygon fill="red" stroke="red" stroke-width="0.650545" points="328.416,-40.5462 317.847,-39.8097 325.65,-46.9765 328.416,-40.5462"/>
</g>
<!-- &#45;9 -->
<g id="node9" class="node"><title>&#45;9</title>
<polygon fill="lightgray" stroke="black" points="208.5,-292.877 184.5,-292.877 184.5,-274.877 208.5,-274.877 208.5,-292.877"/>
<text text-anchor="middle" x="196.5" y="-281.677" font-family="Times New Roman,serif" font-size="9.00">&#45;9</text>
</g>
<!-- &#45;10 -->
<g id="node10" class="node"><title>&#45;10</title>
<polygon fill="lightgray" stroke="black" points="506,-129.146 477,-129.146 477,-111.146 506,-111.146 506,-129.146"/>
<text text-anchor="middle" x="491.5" y="-117.946" font-family="Times New Roman,serif" font-size="9.00">&#45;10</text>
</g>
<!-- &#45;10&#45;&gt;Target -->
<g id="edge11" class="edge"><title>&#45;10&#45;&gt;Target</title>
<path fill="none" stroke="red" stroke-width="0.278458" stroke-dasharray="1,5" d="M485.823,-110.954C481.414,-105.125 474.832,-97.4856 467.5,-92.5685 424.362,-63.6388 366.417,-46.1541 329.012,-37.1067"/>
<polygon fill="red" stroke="red" stroke-width="0.278458" points="329.569,-33.6429 319.035,-34.7762 327.977,-40.4593 329.569,-33.6429"/>
</g>
<!-- &#45;11 -->
<g id="node11" class="node"><title>&#45;11</title>
<polygon fill="lightgray" stroke="black" points="553,-129.146 524,-129.146 524,-111.146 553,-111.146 553,-129.146"/>
<text text-anchor="middle" x="538.5" y="-117.946" font-family="Times New Roman,serif" font-size="9.00">&#45;11</text>
</g>
<!-- &#45;11&#45;&gt;Target -->
<g id="edge9" class="edge"><title>&#45;11&#45;&gt;Target</title>
<path fill="none" stroke="red" stroke-width="0.262779" d="M533.104,-111.051C528.746,-105.115 522.102,-97.2967 514.5,-92.5685 456.042,-56.2098 376.137,-40.1849 329.55,-33.5536"/>
<polygon fill="red" stroke="red" stroke-width="0.262779" points="329.954,-30.0764 319.575,-32.2055 329.016,-37.0134 329.954,-30.0764"/>
</g>
<!-- &#45;12 -->
<g id="node12" class="node"><title>&#45;12</title>
<polygon fill="lightgray" stroke="black" points="600,-129.146 571,-129.146 571,-111.146 600,-111.146 600,-129.146"/>
<text text-anchor="middle" x="585.5" y="-117.946" font-family="Times New Roman,serif" font-size="9.00">&#45;12</text>
</g>
<!-- &#45;12&#45;&gt;Target -->
<g id="edge10" class="edge"><title>&#45;12&#45;&gt;Target</title>
<path fill="none" stroke="green" stroke-width="0.467432" d="M580.165,-110.949C575.839,-104.96 569.209,-97.1195 561.5,-92.5685 487.3,-48.767 384.89,-35.2792 329.975,-31.128"/>
<polygon fill="green" stroke="green" stroke-width="0.467432" points="330.187,-27.6344 319.97,-30.4362 329.704,-34.6178 330.187,-27.6344"/>
</g>
<!-- 3555&#45;&gt;Target -->
<g id="edge13" class="edge"><title>3555&#45;&gt;Target</title>
<path fill="none" stroke="red" stroke-width="0.271337" stroke-dasharray="1,5" d="M173.815,-105.574C180.113,-101.386 187.084,-96.7717 193.5,-92.5685 215.438,-78.1978 240.257,-62.1733 259.429,-49.8449"/>
<polygon fill="red" stroke="red" stroke-width="0.271337" points="261.558,-52.6372 268.079,-44.2869 257.774,-46.748 261.558,-52.6372"/>
</g>
<!-- 13734&#45;&gt;3555 -->
<g id="edge16" class="edge"><title>13734&#45;&gt;3555</title>
<path fill="none" stroke="green" stroke-width="0.367983" d="M152.8,-183.551C152.9,-174.681 153.012,-164.685 153.117,-155.334"/>
<polygon fill="green" stroke="green" stroke-width="0.367983" points="156.618,-155.184 153.231,-145.146 149.619,-155.106 156.618,-155.184"/>
</g>
<!-- 23771&#45;&gt;Target -->
<g id="edge18" class="edge"><title>23771&#45;&gt;Target</title>
<path fill="none" stroke="red" stroke-width="0.404763" d="M333.079,-96.0042C326.468,-85.3956 318.524,-72.6488 311.359,-61.1518"/>
<polygon fill="red" stroke="red" stroke-width="0.404763" points="314.327,-59.2955 306.067,-52.6597 308.386,-62.9978 314.327,-59.2955"/>
</g>
</g>
</svg>
