<?xml version="1.0" encoding="utf-8" standalone="no"?>
<!DOCTYPE svg PUBLIC "-//W3C//DTD SVG 1.1//EN"
  "http://www.w3.org/Graphics/SVG/1.1/DTD/svg11.dtd">
<!-- Created with matplotlib (https://matplotlib.org/) -->
<svg height="345.6pt" version="1.1" viewBox="0 0 460.8 345.6" width="460.8pt" xmlns="http://www.w3.org/2000/svg" xmlns:xlink="http://www.w3.org/1999/xlink">
 <defs>
  <style type="text/css">
*{stroke-linecap:butt;stroke-linejoin:round;}
  </style>
 </defs>
 <g id="figure_1">
  <g id="patch_1">
   <path d="M 0 345.6 
L 460.8 345.6 
L 460.8 0 
L 0 0 
z
" style="fill:#ffffff;"/>
  </g>
  <g id="axes_1">
   <g id="patch_2">
    <path d="M 57.6 307.584 
L 414.72 307.584 
L 414.72 41.472 
L 57.6 41.472 
z
" style="fill:#ffffff;"/>
   </g>
   <g id="PolyCollection_1">
    <path clip-path="url(#pda50f7d39a)" d="M 73.832727 54.144 
L 73.832727 307.584 
L 74.483338 307.584 
L 75.133948 307.584 
L 75.784558 307.584 
L 76.435169 307.584 
L 77.085779 307.584 
L 77.736389 307.584 
L 78.386999 307.584 
L 79.03761 307.584 
L 79.68822 307.584 
L 80.33883 307.584 
L 80.989441 307.584 
L 81.640051 307.584 
L 82.290661 307.584 
L 82.941272 307.584 
L 83.591882 307.584 
L 84.242492 307.584 
L 84.893103 307.584 
L 85.543713 307.584 
L 86.194323 307.584 
L 86.844934 307.584 
L 87.495544 307.584 
L 88.146154 307.584 
L 88.796764 307.584 
L 89.447375 307.584 
L 90.097985 307.584 
L 90.748595 307.584 
L 91.399206 307.584 
L 92.049816 307.584 
L 92.700426 307.584 
L 93.351037 307.584 
L 94.001647 307.584 
L 94.652257 307.584 
L 95.302868 307.584 
L 95.953478 307.584 
L 96.604088 307.584 
L 97.254698 307.584 
L 97.905309 307.584 
L 98.555919 307.584 
L 99.206529 307.584 
L 99.85714 307.584 
L 100.50775 307.584 
L 101.15836 307.584 
L 101.808971 307.584 
L 102.459581 307.584 
L 103.110191 307.584 
L 103.760802 307.584 
L 104.411412 307.584 
L 105.062022 307.584 
L 105.712633 307.584 
L 106.363243 307.584 
L 107.013853 307.584 
L 107.664463 307.584 
L 108.315074 307.584 
L 108.965684 307.584 
L 109.616294 307.584 
L 110.266905 307.584 
L 110.917515 307.584 
L 111.568125 307.584 
L 112.218736 307.584 
L 112.869346 307.584 
L 113.519956 307.584 
L 114.170567 307.584 
L 114.821177 307.584 
L 115.471787 307.584 
L 116.122398 307.584 
L 116.773008 307.584 
L 117.423618 307.584 
L 118.074228 307.584 
L 118.724839 307.584 
L 119.375449 307.584 
L 120.026059 307.584 
L 120.67667 307.584 
L 121.32728 307.584 
L 121.97789 307.584 
L 122.628501 307.584 
L 123.279111 307.584 
L 123.929721 307.584 
L 124.580332 307.584 
L 125.230942 307.584 
L 125.881552 307.584 
L 126.532163 307.584 
L 127.182773 307.584 
L 127.833383 307.584 
L 128.483993 307.584 
L 129.134604 307.584 
L 129.785214 307.584 
L 130.435824 307.584 
L 131.086435 307.584 
L 131.737045 307.584 
L 132.387655 307.584 
L 133.038266 307.584 
L 133.688876 307.584 
L 134.339486 307.584 
L 134.990097 307.584 
L 135.640707 307.584 
L 136.291317 307.584 
L 136.941927 307.584 
L 137.592538 307.584 
L 138.243148 307.584 
L 138.893758 307.584 
L 139.544369 307.584 
L 140.194979 307.584 
L 140.845589 307.584 
L 141.4962 307.584 
L 142.14681 307.584 
L 142.79742 307.584 
L 143.448031 307.584 
L 144.098641 307.584 
L 144.749251 307.584 
L 145.399862 307.584 
L 146.050472 307.584 
L 146.701082 307.584 
L 147.351692 307.584 
L 148.002303 307.584 
L 148.652913 307.584 
L 149.303523 307.584 
L 149.954134 307.584 
L 150.604744 307.584 
L 151.255354 307.584 
L 151.905965 307.584 
L 152.556575 307.584 
L 153.207185 307.584 
L 153.857796 307.584 
L 154.508406 307.584 
L 155.159016 307.584 
L 155.809627 307.584 
L 156.460237 307.584 
L 157.110847 307.584 
L 157.761457 307.584 
L 158.412068 307.584 
L 159.062678 307.584 
L 159.713288 307.584 
L 160.363899 307.584 
L 161.014509 307.584 
L 161.665119 307.584 
L 162.31573 307.584 
L 162.96634 307.584 
L 163.61695 307.584 
L 164.267561 307.584 
L 164.918171 307.584 
L 165.568781 307.584 
L 166.219392 307.584 
L 166.870002 307.584 
L 167.520612 307.584 
L 168.171222 307.584 
L 168.821833 307.584 
L 169.472443 307.584 
L 170.123053 307.584 
L 170.773664 307.584 
L 171.424274 307.584 
L 172.074884 307.584 
L 172.725495 307.584 
L 173.376105 307.584 
L 174.026715 307.584 
L 174.677326 307.584 
L 175.327936 307.584 
L 175.978546 307.584 
L 176.629156 307.584 
L 177.279767 307.584 
L 177.930377 307.584 
L 178.580987 307.584 
L 179.231598 307.584 
L 179.882208 307.584 
L 180.532818 307.584 
L 181.183429 307.584 
L 181.834039 307.584 
L 182.484649 307.584 
L 183.13526 307.584 
L 183.78587 307.584 
L 184.43648 307.584 
L 185.087091 307.584 
L 185.737701 307.584 
L 186.388311 307.584 
L 187.038921 307.584 
L 187.689532 307.584 
L 188.340142 307.584 
L 188.990752 307.584 
L 189.641363 307.584 
L 190.291973 307.584 
L 190.942583 307.584 
L 191.593194 307.584 
L 192.243804 307.584 
L 192.894414 307.584 
L 193.545025 307.584 
L 194.195635 307.584 
L 194.846245 307.584 
L 195.496856 307.584 
L 196.147466 307.584 
L 196.798076 307.584 
L 197.448686 307.584 
L 198.099297 307.584 
L 198.749907 307.584 
L 199.400517 307.584 
L 200.051128 307.584 
L 200.701738 307.584 
L 201.352348 307.584 
L 202.002959 307.584 
L 202.653569 307.584 
L 203.304179 307.584 
L 203.95479 307.584 
L 204.6054 307.584 
L 205.25601 307.584 
L 205.906621 307.584 
L 206.557231 307.584 
L 207.207841 307.584 
L 207.858451 307.584 
L 208.509062 307.584 
L 209.159672 307.584 
L 209.810282 307.584 
L 210.460893 307.584 
L 211.111503 307.584 
L 211.762113 307.584 
L 212.412724 307.584 
L 213.063334 307.584 
L 213.713944 307.584 
L 214.364555 307.584 
L 215.015165 307.584 
L 215.665775 307.584 
L 216.316385 307.584 
L 216.966996 307.584 
L 217.617606 307.584 
L 218.268216 307.584 
L 218.918827 307.584 
L 219.569437 307.584 
L 220.220047 307.584 
L 220.870658 307.584 
L 221.521268 307.584 
L 222.171878 307.584 
L 222.822489 307.584 
L 223.473099 307.584 
L 224.123709 307.584 
L 224.77432 307.584 
L 225.42493 307.584 
L 226.07554 307.584 
L 226.72615 307.584 
L 227.376761 307.584 
L 228.027371 307.584 
L 228.677981 307.584 
L 229.328592 307.584 
L 229.979202 307.584 
L 230.629812 307.584 
L 231.280423 307.584 
L 231.931033 307.584 
L 232.581643 307.584 
L 233.232254 307.584 
L 233.882864 307.584 
L 234.533474 307.584 
L 235.184085 307.584 
L 235.834695 307.584 
L 236.485305 307.584 
L 237.135915 307.584 
L 237.786526 307.584 
L 238.437136 307.584 
L 239.087746 307.584 
L 239.738357 307.584 
L 240.388967 307.584 
L 241.039577 307.584 
L 241.690188 307.584 
L 242.340798 307.584 
L 242.991408 307.584 
L 243.642019 307.584 
L 244.292629 307.584 
L 244.943239 307.584 
L 245.59385 307.584 
L 246.24446 307.584 
L 246.89507 307.584 
L 247.54568 307.584 
L 248.196291 307.584 
L 248.846901 307.584 
L 249.497511 307.584 
L 250.148122 307.584 
L 250.798732 307.584 
L 251.449342 307.584 
L 252.099953 307.584 
L 252.750563 307.584 
L 253.401173 307.584 
L 254.051784 307.584 
L 254.702394 307.584 
L 255.353004 307.584 
L 256.003615 307.584 
L 256.654225 307.584 
L 257.304835 307.584 
L 257.955445 307.584 
L 258.606056 307.584 
L 259.256666 307.584 
L 259.907276 307.584 
L 260.557887 307.584 
L 261.208497 307.584 
L 261.859107 307.584 
L 262.509718 307.584 
L 263.160328 307.584 
L 263.810938 307.584 
L 264.461549 307.584 
L 265.112159 307.584 
L 265.762769 307.584 
L 266.413379 307.584 
L 267.06399 307.584 
L 267.7146 307.584 
L 268.36521 307.584 
L 269.015821 307.584 
L 269.666431 307.584 
L 270.317041 307.584 
L 270.967652 307.584 
L 271.618262 307.584 
L 272.268872 307.584 
L 272.919483 307.584 
L 273.570093 307.584 
L 274.220703 307.584 
L 274.871314 307.584 
L 275.521924 307.584 
L 276.172534 307.584 
L 276.823144 307.584 
L 277.473755 307.584 
L 278.124365 307.584 
L 278.774975 307.584 
L 279.425586 307.584 
L 280.076196 307.584 
L 280.726806 307.584 
L 281.377417 307.584 
L 282.028027 307.584 
L 282.678637 307.584 
L 283.329248 307.584 
L 283.979858 307.584 
L 284.630468 307.584 
L 285.281079 307.584 
L 285.931689 307.584 
L 286.582299 307.584 
L 287.232909 307.584 
L 287.88352 307.584 
L 288.53413 307.584 
L 289.18474 307.584 
L 289.835351 307.584 
L 290.485961 307.584 
L 291.136571 307.584 
L 291.787182 307.584 
L 292.437792 307.584 
L 293.088402 307.584 
L 293.739013 307.584 
L 294.389623 307.584 
L 295.040233 307.584 
L 295.690844 307.584 
L 296.341454 307.584 
L 296.992064 307.584 
L 297.642674 307.584 
L 298.293285 307.584 
L 298.943895 307.584 
L 299.594505 307.584 
L 300.245116 307.584 
L 300.895726 307.584 
L 301.546336 307.584 
L 302.196947 307.584 
L 302.847557 307.584 
L 303.498167 307.584 
L 304.148778 307.584 
L 304.799388 307.584 
L 305.449998 307.584 
L 306.100608 307.584 
L 306.751219 307.584 
L 307.401829 307.584 
L 308.052439 307.584 
L 308.70305 307.584 
L 309.35366 307.584 
L 310.00427 307.584 
L 310.654881 307.584 
L 311.305491 307.584 
L 311.956101 307.584 
L 312.606712 307.584 
L 313.257322 307.584 
L 313.907932 307.584 
L 314.558543 307.584 
L 315.209153 307.584 
L 315.859763 307.584 
L 316.510373 307.584 
L 317.160984 307.584 
L 317.811594 307.584 
L 318.462204 307.584 
L 319.112815 307.584 
L 319.763425 307.584 
L 320.414035 307.584 
L 321.064646 307.584 
L 321.715256 307.584 
L 322.365866 307.584 
L 323.016477 307.584 
L 323.667087 307.584 
L 324.317697 307.584 
L 324.968308 307.584 
L 325.618918 307.584 
L 326.269528 307.584 
L 326.920138 307.584 
L 327.570749 307.584 
L 328.221359 307.584 
L 328.871969 307.584 
L 329.52258 307.584 
L 330.17319 307.584 
L 330.8238 307.584 
L 331.474411 307.584 
L 332.125021 307.584 
L 332.775631 307.584 
L 333.426242 307.584 
L 334.076852 307.584 
L 334.727462 307.584 
L 335.378073 307.584 
L 336.028683 307.584 
L 336.679293 307.584 
L 337.329903 307.584 
L 337.980514 307.584 
L 338.631124 307.584 
L 339.281734 307.584 
L 339.932345 307.584 
L 340.582955 307.584 
L 341.233565 307.584 
L 341.884176 307.584 
L 342.534786 307.584 
L 343.185396 307.584 
L 343.836007 307.584 
L 344.486617 307.584 
L 345.137227 307.584 
L 345.787837 307.584 
L 346.438448 307.584 
L 347.089058 307.584 
L 347.739668 307.584 
L 348.390279 307.584 
L 349.040889 307.584 
L 349.691499 307.584 
L 350.34211 307.584 
L 350.99272 307.584 
L 351.64333 307.584 
L 352.293941 307.584 
L 352.944551 307.584 
L 353.595161 307.584 
L 354.245772 307.584 
L 354.896382 307.584 
L 355.546992 307.584 
L 356.197602 307.584 
L 356.848213 307.584 
L 357.498823 307.584 
L 358.149433 307.584 
L 358.800044 307.584 
L 359.450654 307.584 
L 360.101264 307.584 
L 360.751875 307.584 
L 361.402485 307.584 
L 362.053095 307.584 
L 362.703706 307.584 
L 363.354316 307.584 
L 364.004926 307.584 
L 364.655537 307.584 
L 365.306147 307.584 
L 365.956757 307.584 
L 366.607367 307.584 
L 367.257978 307.584 
L 367.908588 307.584 
L 368.559198 307.584 
L 369.209809 307.584 
L 369.860419 307.584 
L 370.511029 307.584 
L 371.16164 307.584 
L 371.81225 307.584 
L 372.46286 307.584 
L 373.113471 307.584 
L 373.764081 307.584 
L 374.414691 307.584 
L 375.065302 307.584 
L 375.715912 307.584 
L 376.366522 307.584 
L 377.017132 307.584 
L 377.667743 307.584 
L 378.318353 307.584 
L 378.968963 307.584 
L 379.619574 307.584 
L 380.270184 307.584 
L 380.920794 307.584 
L 381.571405 307.584 
L 382.222015 307.584 
L 382.872625 307.584 
L 383.523236 307.584 
L 384.173846 307.584 
L 384.824456 307.584 
L 385.475066 307.584 
L 386.125677 307.584 
L 386.776287 307.584 
L 387.426897 307.584 
L 388.077508 307.584 
L 388.728118 307.584 
L 389.378728 307.584 
L 390.029339 307.584 
L 390.679949 307.584 
L 391.330559 307.584 
L 391.98117 307.584 
L 392.63178 307.584 
L 393.28239 307.584 
L 393.933001 307.584 
L 394.583611 307.584 
L 395.234221 307.584 
L 395.884831 307.584 
L 396.535442 307.584 
L 397.186052 307.584 
L 397.836662 307.584 
L 398.487273 307.584 
L 398.487273 185.9328 
L 398.487273 185.9328 
L 397.836662 180.864 
L 397.186052 178.3296 
L 396.535442 180.864 
L 395.884831 178.3296 
L 395.234221 183.3984 
L 394.583611 183.3984 
L 393.933001 180.864 
L 393.28239 178.3296 
L 392.63178 178.3296 
L 391.98117 173.2608 
L 391.330559 175.7952 
L 390.679949 188.4672 
L 390.029339 193.536 
L 389.378728 191.0016 
L 388.728118 188.4672 
L 388.077508 178.3296 
L 387.426897 180.864 
L 386.776287 178.3296 
L 386.125677 183.3984 
L 385.475066 180.864 
L 384.824456 185.9328 
L 384.173846 178.3296 
L 383.523236 180.864 
L 382.872625 180.864 
L 382.222015 175.7952 
L 381.571405 178.3296 
L 380.920794 178.3296 
L 380.270184 180.864 
L 379.619574 180.864 
L 378.968963 185.9328 
L 378.318353 198.6048 
L 377.667743 198.6048 
L 377.017132 208.7424 
L 376.366522 193.536 
L 375.715912 185.9328 
L 375.065302 193.536 
L 374.414691 196.0704 
L 373.764081 188.4672 
L 373.113471 191.0016 
L 372.46286 173.2608 
L 371.81225 180.864 
L 371.16164 188.4672 
L 370.511029 185.9328 
L 369.860419 178.3296 
L 369.209809 185.9328 
L 368.559198 183.3984 
L 367.908588 185.9328 
L 367.257978 180.864 
L 366.607367 180.864 
L 365.956757 178.3296 
L 365.306147 193.536 
L 364.655537 193.536 
L 364.004926 185.9328 
L 363.354316 175.7952 
L 362.703706 175.7952 
L 362.053095 180.864 
L 361.402485 175.7952 
L 360.751875 170.7264 
L 360.101264 178.3296 
L 359.450654 180.864 
L 358.800044 178.3296 
L 358.149433 183.3984 
L 357.498823 180.864 
L 356.848213 175.7952 
L 356.197602 178.3296 
L 355.546992 180.864 
L 354.896382 183.3984 
L 354.245772 178.3296 
L 353.595161 180.864 
L 352.944551 178.3296 
L 352.293941 180.864 
L 351.64333 180.864 
L 350.99272 178.3296 
L 350.34211 180.864 
L 349.691499 183.3984 
L 349.040889 183.3984 
L 348.390279 178.3296 
L 347.739668 173.2608 
L 347.089058 180.864 
L 346.438448 183.3984 
L 345.787837 180.864 
L 345.137227 185.9328 
L 344.486617 173.2608 
L 343.836007 173.2608 
L 343.185396 183.3984 
L 342.534786 178.3296 
L 341.884176 183.3984 
L 341.233565 191.0016 
L 340.582955 196.0704 
L 339.932345 180.864 
L 339.281734 175.7952 
L 338.631124 168.192 
L 337.980514 175.7952 
L 337.329903 175.7952 
L 336.679293 180.864 
L 336.028683 178.3296 
L 335.378073 175.7952 
L 334.727462 173.2608 
L 334.076852 175.7952 
L 333.426242 175.7952 
L 332.775631 178.3296 
L 332.125021 175.7952 
L 331.474411 180.864 
L 330.8238 180.864 
L 330.17319 178.3296 
L 329.52258 175.7952 
L 328.871969 178.3296 
L 328.221359 178.3296 
L 327.570749 178.3296 
L 326.920138 180.864 
L 326.269528 178.3296 
L 325.618918 178.3296 
L 324.968308 175.7952 
L 324.317697 183.3984 
L 323.667087 178.3296 
L 323.016477 180.864 
L 322.365866 178.3296 
L 321.715256 180.864 
L 321.064646 175.7952 
L 320.414035 178.3296 
L 319.763425 183.3984 
L 319.112815 185.9328 
L 318.462204 180.864 
L 317.811594 178.3296 
L 317.160984 175.7952 
L 316.510373 180.864 
L 315.859763 178.3296 
L 315.209153 183.3984 
L 314.558543 183.3984 
L 313.907932 178.3296 
L 313.257322 173.2608 
L 312.606712 170.7264 
L 311.956101 180.864 
L 311.305491 188.4672 
L 310.654881 180.864 
L 310.00427 185.9328 
L 309.35366 185.9328 
L 308.70305 173.2608 
L 308.052439 173.2608 
L 307.401829 178.3296 
L 306.751219 183.3984 
L 306.100608 188.4672 
L 305.449998 175.7952 
L 304.799388 178.3296 
L 304.148778 180.864 
L 303.498167 178.3296 
L 302.847557 173.2608 
L 302.196947 180.864 
L 301.546336 183.3984 
L 300.895726 178.3296 
L 300.245116 178.3296 
L 299.594505 175.7952 
L 298.943895 180.864 
L 298.293285 178.3296 
L 297.642674 183.3984 
L 296.992064 188.4672 
L 296.341454 191.0016 
L 295.690844 185.9328 
L 295.040233 178.3296 
L 294.389623 188.4672 
L 293.739013 180.864 
L 293.088402 180.864 
L 292.437792 175.7952 
L 291.787182 180.864 
L 291.136571 178.3296 
L 290.485961 183.3984 
L 289.835351 180.864 
L 289.18474 180.864 
L 288.53413 183.3984 
L 287.88352 178.3296 
L 287.232909 173.2608 
L 286.582299 180.864 
L 285.931689 178.3296 
L 285.281079 180.864 
L 284.630468 183.3984 
L 283.979858 180.864 
L 283.329248 180.864 
L 282.678637 180.864 
L 282.028027 178.3296 
L 281.377417 178.3296 
L 280.726806 175.7952 
L 280.076196 180.864 
L 279.425586 178.3296 
L 278.774975 175.7952 
L 278.124365 178.3296 
L 277.473755 178.3296 
L 276.823144 183.3984 
L 276.172534 188.4672 
L 275.521924 180.864 
L 274.871314 188.4672 
L 274.220703 183.3984 
L 273.570093 185.9328 
L 272.919483 180.864 
L 272.268872 183.3984 
L 271.618262 180.864 
L 270.967652 178.3296 
L 270.317041 173.2608 
L 269.666431 178.3296 
L 269.015821 178.3296 
L 268.36521 173.2608 
L 267.7146 185.9328 
L 267.06399 185.9328 
L 266.413379 185.9328 
L 265.762769 180.864 
L 265.112159 183.3984 
L 264.461549 180.864 
L 263.810938 178.3296 
L 263.160328 185.9328 
L 262.509718 183.3984 
L 261.859107 183.3984 
L 261.208497 183.3984 
L 260.557887 183.3984 
L 259.907276 180.864 
L 259.256666 178.3296 
L 258.606056 188.4672 
L 257.955445 196.0704 
L 257.304835 191.0016 
L 256.654225 180.864 
L 256.003615 183.3984 
L 255.353004 188.4672 
L 254.702394 188.4672 
L 254.051784 193.536 
L 253.401173 196.0704 
L 252.750563 191.0016 
L 252.099953 188.4672 
L 251.449342 175.7952 
L 250.798732 180.864 
L 250.148122 188.4672 
L 249.497511 180.864 
L 248.846901 183.3984 
L 248.196291 183.3984 
L 247.54568 185.9328 
L 246.89507 188.4672 
L 246.24446 188.4672 
L 245.59385 196.0704 
L 244.943239 185.9328 
L 244.292629 185.9328 
L 243.642019 183.3984 
L 242.991408 180.864 
L 242.340798 180.864 
L 241.690188 175.7952 
L 241.039577 188.4672 
L 240.388967 185.9328 
L 239.738357 191.0016 
L 239.087746 185.9328 
L 238.437136 183.3984 
L 237.786526 183.3984 
L 237.135915 178.3296 
L 236.485305 183.3984 
L 235.834695 180.864 
L 235.184085 183.3984 
L 234.533474 185.9328 
L 233.882864 180.864 
L 233.232254 183.3984 
L 232.581643 188.4672 
L 231.931033 188.4672 
L 231.280423 180.864 
L 230.629812 183.3984 
L 229.979202 188.4672 
L 229.328592 193.536 
L 228.677981 193.536 
L 228.027371 183.3984 
L 227.376761 183.3984 
L 226.72615 185.9328 
L 226.07554 185.9328 
L 225.42493 183.3984 
L 224.77432 183.3984 
L 224.123709 173.2608 
L 223.473099 183.3984 
L 222.822489 191.0016 
L 222.171878 188.4672 
L 221.521268 178.3296 
L 220.870658 183.3984 
L 220.220047 180.864 
L 219.569437 180.864 
L 218.918827 183.3984 
L 218.268216 183.3984 
L 217.617606 185.9328 
L 216.966996 180.864 
L 216.316385 183.3984 
L 215.665775 185.9328 
L 215.015165 183.3984 
L 214.364555 185.9328 
L 213.713944 188.4672 
L 213.063334 183.3984 
L 212.412724 185.9328 
L 211.762113 183.3984 
L 211.111503 185.9328 
L 210.460893 180.864 
L 209.810282 183.3984 
L 209.159672 180.864 
L 208.509062 180.864 
L 207.858451 175.7952 
L 207.207841 183.3984 
L 206.557231 180.864 
L 205.906621 183.3984 
L 205.25601 185.9328 
L 204.6054 193.536 
L 203.95479 183.3984 
L 203.304179 180.864 
L 202.653569 183.3984 
L 202.002959 183.3984 
L 201.352348 178.3296 
L 200.701738 183.3984 
L 200.051128 185.9328 
L 199.400517 188.4672 
L 198.749907 185.9328 
L 198.099297 183.3984 
L 197.448686 180.864 
L 196.798076 183.3984 
L 196.147466 183.3984 
L 195.496856 188.4672 
L 194.846245 180.864 
L 194.195635 183.3984 
L 193.545025 178.3296 
L 192.894414 180.864 
L 192.243804 180.864 
L 191.593194 178.3296 
L 190.942583 178.3296 
L 190.291973 173.2608 
L 189.641363 183.3984 
L 188.990752 183.3984 
L 188.340142 180.864 
L 187.689532 178.3296 
L 187.038921 178.3296 
L 186.388311 180.864 
L 185.737701 183.3984 
L 185.087091 185.9328 
L 184.43648 185.9328 
L 183.78587 183.3984 
L 183.13526 196.0704 
L 182.484649 193.536 
L 181.834039 198.6048 
L 181.183429 188.4672 
L 180.532818 196.0704 
L 179.882208 193.536 
L 179.231598 173.2608 
L 178.580987 180.864 
L 177.930377 178.3296 
L 177.279767 178.3296 
L 176.629156 178.3296 
L 175.978546 175.7952 
L 175.327936 173.2608 
L 174.677326 183.3984 
L 174.026715 185.9328 
L 173.376105 183.3984 
L 172.725495 180.864 
L 172.074884 180.864 
L 171.424274 173.2608 
L 170.773664 178.3296 
L 170.123053 180.864 
L 169.472443 180.864 
L 168.821833 178.3296 
L 168.171222 191.0016 
L 167.520612 183.3984 
L 166.870002 185.9328 
L 166.219392 188.4672 
L 165.568781 180.864 
L 164.918171 183.3984 
L 164.267561 183.3984 
L 163.61695 180.864 
L 162.96634 178.3296 
L 162.31573 188.4672 
L 161.665119 188.4672 
L 161.014509 185.9328 
L 160.363899 188.4672 
L 159.713288 185.9328 
L 159.062678 180.864 
L 158.412068 183.3984 
L 157.761457 183.3984 
L 157.110847 185.9328 
L 156.460237 180.864 
L 155.809627 183.3984 
L 155.159016 185.9328 
L 154.508406 191.0016 
L 153.857796 180.864 
L 153.207185 183.3984 
L 152.556575 183.3984 
L 151.905965 185.9328 
L 151.255354 191.0016 
L 150.604744 188.4672 
L 149.954134 183.3984 
L 149.303523 170.7264 
L 148.652913 180.864 
L 148.002303 191.0016 
L 147.351692 185.9328 
L 146.701082 183.3984 
L 146.050472 178.3296 
L 145.399862 178.3296 
L 144.749251 178.3296 
L 144.098641 178.3296 
L 143.448031 183.3984 
L 142.79742 180.864 
L 142.14681 178.3296 
L 141.4962 170.7264 
L 140.845589 180.864 
L 140.194979 180.864 
L 139.544369 180.864 
L 138.893758 188.4672 
L 138.243148 201.1392 
L 137.592538 213.8112 
L 136.941927 261.9648 
L 136.291317 160.5888 
L 135.640707 135.2448 
L 134.990097 178.3296 
L 134.339486 178.3296 
L 133.688876 183.3984 
L 133.038266 188.4672 
L 132.387655 183.3984 
L 131.737045 183.3984 
L 131.086435 178.3296 
L 130.435824 188.4672 
L 129.785214 185.9328 
L 129.134604 188.4672 
L 128.483993 191.0016 
L 127.833383 193.536 
L 127.182773 191.0016 
L 126.532163 191.0016 
L 125.881552 191.0016 
L 125.230942 198.6048 
L 124.580332 188.4672 
L 123.929721 183.3984 
L 123.279111 193.536 
L 122.628501 185.9328 
L 121.97789 188.4672 
L 121.32728 185.9328 
L 120.67667 185.9328 
L 120.026059 188.4672 
L 119.375449 183.3984 
L 118.724839 173.2608 
L 118.074228 180.864 
L 117.423618 180.864 
L 116.773008 183.3984 
L 116.122398 185.9328 
L 115.471787 185.9328 
L 114.821177 191.0016 
L 114.170567 193.536 
L 113.519956 193.536 
L 112.869346 201.1392 
L 112.218736 196.0704 
L 111.568125 188.4672 
L 110.917515 183.3984 
L 110.266905 191.0016 
L 109.616294 191.0016 
L 108.965684 183.3984 
L 108.315074 193.536 
L 107.664463 193.536 
L 107.013853 191.0016 
L 106.363243 196.0704 
L 105.712633 185.9328 
L 105.062022 188.4672 
L 104.411412 185.9328 
L 103.760802 188.4672 
L 103.110191 191.0016 
L 102.459581 191.0016 
L 101.808971 196.0704 
L 101.15836 191.0016 
L 100.50775 193.536 
L 99.85714 188.4672 
L 99.206529 185.9328 
L 98.555919 188.4672 
L 97.905309 185.9328 
L 97.254698 183.3984 
L 96.604088 188.4672 
L 95.953478 183.3984 
L 95.302868 183.3984 
L 94.652257 185.9328 
L 94.001647 188.4672 
L 93.351037 188.4672 
L 92.700426 191.0016 
L 92.049816 188.4672 
L 91.399206 188.4672 
L 90.748595 191.0016 
L 90.097985 198.6048 
L 89.447375 213.8112 
L 88.796764 226.4832 
L 88.146154 198.6048 
L 87.495544 201.1392 
L 86.844934 203.6736 
L 86.194323 183.3984 
L 85.543713 158.0544 
L 84.893103 191.0016 
L 84.242492 178.3296 
L 83.591882 180.864 
L 82.941272 175.7952 
L 82.290661 185.9328 
L 81.640051 185.9328 
L 80.989441 185.9328 
L 80.33883 155.52 
L 79.68822 142.848 
L 79.03761 234.0864 
L 78.386999 61.7472 
L 77.736389 54.144 
L 77.085779 54.144 
L 76.435169 54.144 
L 75.784558 54.144 
L 75.133948 54.144 
L 74.483338 54.144 
L 73.832727 54.144 
z
" style="fill:#1f77b4;"/>
   </g>
   <g id="PolyCollection_2">
    <path clip-path="url(#pda50f7d39a)" d="M 73.832727 54.144 
L 73.832727 54.144 
L 74.483338 54.144 
L 75.133948 54.144 
L 75.784558 54.144 
L 76.435169 54.144 
L 77.085779 54.144 
L 77.736389 54.144 
L 78.386999 61.7472 
L 79.03761 234.0864 
L 79.68822 142.848 
L 80.33883 155.52 
L 80.989441 185.9328 
L 81.640051 185.9328 
L 82.290661 185.9328 
L 82.941272 175.7952 
L 83.591882 180.864 
L 84.242492 178.3296 
L 84.893103 191.0016 
L 85.543713 158.0544 
L 86.194323 183.3984 
L 86.844934 203.6736 
L 87.495544 201.1392 
L 88.146154 198.6048 
L 88.796764 226.4832 
L 89.447375 213.8112 
L 90.097985 198.6048 
L 90.748595 191.0016 
L 91.399206 188.4672 
L 92.049816 188.4672 
L 92.700426 191.0016 
L 93.351037 188.4672 
L 94.001647 188.4672 
L 94.652257 185.9328 
L 95.302868 183.3984 
L 95.953478 183.3984 
L 96.604088 188.4672 
L 97.254698 183.3984 
L 97.905309 185.9328 
L 98.555919 188.4672 
L 99.206529 185.9328 
L 99.85714 188.4672 
L 100.50775 193.536 
L 101.15836 191.0016 
L 101.808971 196.0704 
L 102.459581 191.0016 
L 103.110191 191.0016 
L 103.760802 188.4672 
L 104.411412 185.9328 
L 105.062022 188.4672 
L 105.712633 185.9328 
L 106.363243 196.0704 
L 107.013853 191.0016 
L 107.664463 193.536 
L 108.315074 193.536 
L 108.965684 183.3984 
L 109.616294 191.0016 
L 110.266905 191.0016 
L 110.917515 183.3984 
L 111.568125 188.4672 
L 112.218736 196.0704 
L 112.869346 201.1392 
L 113.519956 193.536 
L 114.170567 193.536 
L 114.821177 191.0016 
L 115.471787 185.9328 
L 116.122398 185.9328 
L 116.773008 183.3984 
L 117.423618 180.864 
L 118.074228 180.864 
L 118.724839 173.2608 
L 119.375449 183.3984 
L 120.026059 188.4672 
L 120.67667 185.9328 
L 121.32728 185.9328 
L 121.97789 188.4672 
L 122.628501 185.9328 
L 123.279111 193.536 
L 123.929721 183.3984 
L 124.580332 188.4672 
L 125.230942 198.6048 
L 125.881552 191.0016 
L 126.532163 191.0016 
L 127.182773 191.0016 
L 127.833383 193.536 
L 128.483993 191.0016 
L 129.134604 188.4672 
L 129.785214 185.9328 
L 130.435824 188.4672 
L 131.086435 178.3296 
L 131.737045 183.3984 
L 132.387655 183.3984 
L 133.038266 188.4672 
L 133.688876 183.3984 
L 134.339486 178.3296 
L 134.990097 178.3296 
L 135.640707 135.2448 
L 136.291317 160.5888 
L 136.941927 261.9648 
L 137.592538 213.8112 
L 138.243148 201.1392 
L 138.893758 188.4672 
L 139.544369 180.864 
L 140.194979 180.864 
L 140.845589 180.864 
L 141.4962 170.7264 
L 142.14681 178.3296 
L 142.79742 180.864 
L 143.448031 183.3984 
L 144.098641 178.3296 
L 144.749251 178.3296 
L 145.399862 178.3296 
L 146.050472 178.3296 
L 146.701082 183.3984 
L 147.351692 185.9328 
L 148.002303 191.0016 
L 148.652913 180.864 
L 149.303523 170.7264 
L 149.954134 183.3984 
L 150.604744 188.4672 
L 151.255354 191.0016 
L 151.905965 185.9328 
L 152.556575 183.3984 
L 153.207185 183.3984 
L 153.857796 180.864 
L 154.508406 191.0016 
L 155.159016 185.9328 
L 155.809627 183.3984 
L 156.460237 180.864 
L 157.110847 185.9328 
L 157.761457 183.3984 
L 158.412068 183.3984 
L 159.062678 180.864 
L 159.713288 185.9328 
L 160.363899 188.4672 
L 161.014509 185.9328 
L 161.665119 188.4672 
L 162.31573 188.4672 
L 162.96634 178.3296 
L 163.61695 180.864 
L 164.267561 183.3984 
L 164.918171 183.3984 
L 165.568781 180.864 
L 166.219392 188.4672 
L 166.870002 185.9328 
L 167.520612 183.3984 
L 168.171222 191.0016 
L 168.821833 178.3296 
L 169.472443 180.864 
L 170.123053 180.864 
L 170.773664 178.3296 
L 171.424274 173.2608 
L 172.074884 180.864 
L 172.725495 180.864 
L 173.376105 183.3984 
L 174.026715 185.9328 
L 174.677326 183.3984 
L 175.327936 173.2608 
L 175.978546 175.7952 
L 176.629156 178.3296 
L 177.279767 178.3296 
L 177.930377 178.3296 
L 178.580987 180.864 
L 179.231598 173.2608 
L 179.882208 193.536 
L 180.532818 196.0704 
L 181.183429 188.4672 
L 181.834039 198.6048 
L 182.484649 193.536 
L 183.13526 196.0704 
L 183.78587 183.3984 
L 184.43648 185.9328 
L 185.087091 185.9328 
L 185.737701 183.3984 
L 186.388311 180.864 
L 187.038921 178.3296 
L 187.689532 178.3296 
L 188.340142 180.864 
L 188.990752 183.3984 
L 189.641363 183.3984 
L 190.291973 173.2608 
L 190.942583 178.3296 
L 191.593194 178.3296 
L 192.243804 180.864 
L 192.894414 180.864 
L 193.545025 178.3296 
L 194.195635 183.3984 
L 194.846245 180.864 
L 195.496856 188.4672 
L 196.147466 183.3984 
L 196.798076 183.3984 
L 197.448686 180.864 
L 198.099297 183.3984 
L 198.749907 185.9328 
L 199.400517 188.4672 
L 200.051128 185.9328 
L 200.701738 183.3984 
L 201.352348 178.3296 
L 202.002959 183.3984 
L 202.653569 183.3984 
L 203.304179 180.864 
L 203.95479 183.3984 
L 204.6054 193.536 
L 205.25601 185.9328 
L 205.906621 183.3984 
L 206.557231 180.864 
L 207.207841 183.3984 
L 207.858451 175.7952 
L 208.509062 180.864 
L 209.159672 180.864 
L 209.810282 183.3984 
L 210.460893 180.864 
L 211.111503 185.9328 
L 211.762113 183.3984 
L 212.412724 185.9328 
L 213.063334 183.3984 
L 213.713944 188.4672 
L 214.364555 185.9328 
L 215.015165 183.3984 
L 215.665775 185.9328 
L 216.316385 183.3984 
L 216.966996 180.864 
L 217.617606 185.9328 
L 218.268216 183.3984 
L 218.918827 183.3984 
L 219.569437 180.864 
L 220.220047 180.864 
L 220.870658 183.3984 
L 221.521268 178.3296 
L 222.171878 188.4672 
L 222.822489 191.0016 
L 223.473099 183.3984 
L 224.123709 173.2608 
L 224.77432 183.3984 
L 225.42493 183.3984 
L 226.07554 185.9328 
L 226.72615 185.9328 
L 227.376761 183.3984 
L 228.027371 183.3984 
L 228.677981 193.536 
L 229.328592 193.536 
L 229.979202 188.4672 
L 230.629812 183.3984 
L 231.280423 180.864 
L 231.931033 188.4672 
L 232.581643 188.4672 
L 233.232254 183.3984 
L 233.882864 180.864 
L 234.533474 185.9328 
L 235.184085 183.3984 
L 235.834695 180.864 
L 236.485305 183.3984 
L 237.135915 178.3296 
L 237.786526 183.3984 
L 238.437136 183.3984 
L 239.087746 185.9328 
L 239.738357 191.0016 
L 240.388967 185.9328 
L 241.039577 188.4672 
L 241.690188 175.7952 
L 242.340798 180.864 
L 242.991408 180.864 
L 243.642019 183.3984 
L 244.292629 185.9328 
L 244.943239 185.9328 
L 245.59385 196.0704 
L 246.24446 188.4672 
L 246.89507 188.4672 
L 247.54568 185.9328 
L 248.196291 183.3984 
L 248.846901 183.3984 
L 249.497511 180.864 
L 250.148122 188.4672 
L 250.798732 180.864 
L 251.449342 175.7952 
L 252.099953 188.4672 
L 252.750563 191.0016 
L 253.401173 196.0704 
L 254.051784 193.536 
L 254.702394 188.4672 
L 255.353004 188.4672 
L 256.003615 183.3984 
L 256.654225 180.864 
L 257.304835 191.0016 
L 257.955445 196.0704 
L 258.606056 188.4672 
L 259.256666 178.3296 
L 259.907276 180.864 
L 260.557887 183.3984 
L 261.208497 183.3984 
L 261.859107 183.3984 
L 262.509718 183.3984 
L 263.160328 185.9328 
L 263.810938 178.3296 
L 264.461549 180.864 
L 265.112159 183.3984 
L 265.762769 180.864 
L 266.413379 185.9328 
L 267.06399 185.9328 
L 267.7146 185.9328 
L 268.36521 173.2608 
L 269.015821 178.3296 
L 269.666431 178.3296 
L 270.317041 173.2608 
L 270.967652 178.3296 
L 271.618262 180.864 
L 272.268872 183.3984 
L 272.919483 180.864 
L 273.570093 185.9328 
L 274.220703 183.3984 
L 274.871314 188.4672 
L 275.521924 180.864 
L 276.172534 188.4672 
L 276.823144 183.3984 
L 277.473755 178.3296 
L 278.124365 178.3296 
L 278.774975 175.7952 
L 279.425586 178.3296 
L 280.076196 180.864 
L 280.726806 175.7952 
L 281.377417 178.3296 
L 282.028027 178.3296 
L 282.678637 180.864 
L 283.329248 180.864 
L 283.979858 180.864 
L 284.630468 183.3984 
L 285.281079 180.864 
L 285.931689 178.3296 
L 286.582299 180.864 
L 287.232909 173.2608 
L 287.88352 178.3296 
L 288.53413 183.3984 
L 289.18474 180.864 
L 289.835351 180.864 
L 290.485961 183.3984 
L 291.136571 178.3296 
L 291.787182 180.864 
L 292.437792 175.7952 
L 293.088402 180.864 
L 293.739013 180.864 
L 294.389623 188.4672 
L 295.040233 178.3296 
L 295.690844 185.9328 
L 296.341454 191.0016 
L 296.992064 188.4672 
L 297.642674 183.3984 
L 298.293285 178.3296 
L 298.943895 180.864 
L 299.594505 175.7952 
L 300.245116 178.3296 
L 300.895726 178.3296 
L 301.546336 183.3984 
L 302.196947 180.864 
L 302.847557 173.2608 
L 303.498167 178.3296 
L 304.148778 180.864 
L 304.799388 178.3296 
L 305.449998 175.7952 
L 306.100608 188.4672 
L 306.751219 183.3984 
L 307.401829 178.3296 
L 308.052439 173.2608 
L 308.70305 173.2608 
L 309.35366 185.9328 
L 310.00427 185.9328 
L 310.654881 180.864 
L 311.305491 188.4672 
L 311.956101 180.864 
L 312.606712 170.7264 
L 313.257322 173.2608 
L 313.907932 178.3296 
L 314.558543 183.3984 
L 315.209153 183.3984 
L 315.859763 178.3296 
L 316.510373 180.864 
L 317.160984 175.7952 
L 317.811594 178.3296 
L 318.462204 180.864 
L 319.112815 185.9328 
L 319.763425 183.3984 
L 320.414035 178.3296 
L 321.064646 175.7952 
L 321.715256 180.864 
L 322.365866 178.3296 
L 323.016477 180.864 
L 323.667087 178.3296 
L 324.317697 183.3984 
L 324.968308 175.7952 
L 325.618918 178.3296 
L 326.269528 178.3296 
L 326.920138 180.864 
L 327.570749 178.3296 
L 328.221359 178.3296 
L 328.871969 178.3296 
L 329.52258 175.7952 
L 330.17319 178.3296 
L 330.8238 180.864 
L 331.474411 180.864 
L 332.125021 175.7952 
L 332.775631 178.3296 
L 333.426242 175.7952 
L 334.076852 175.7952 
L 334.727462 173.2608 
L 335.378073 175.7952 
L 336.028683 178.3296 
L 336.679293 180.864 
L 337.329903 175.7952 
L 337.980514 175.7952 
L 338.631124 168.192 
L 339.281734 175.7952 
L 339.932345 180.864 
L 340.582955 196.0704 
L 341.233565 191.0016 
L 341.884176 183.3984 
L 342.534786 178.3296 
L 343.185396 183.3984 
L 343.836007 173.2608 
L 344.486617 173.2608 
L 345.137227 185.9328 
L 345.787837 180.864 
L 346.438448 183.3984 
L 347.089058 180.864 
L 347.739668 173.2608 
L 348.390279 178.3296 
L 349.040889 183.3984 
L 349.691499 183.3984 
L 350.34211 180.864 
L 350.99272 178.3296 
L 351.64333 180.864 
L 352.293941 180.864 
L 352.944551 178.3296 
L 353.595161 180.864 
L 354.245772 178.3296 
L 354.896382 183.3984 
L 355.546992 180.864 
L 356.197602 178.3296 
L 356.848213 175.7952 
L 357.498823 180.864 
L 358.149433 183.3984 
L 358.800044 178.3296 
L 359.450654 180.864 
L 360.101264 178.3296 
L 360.751875 170.7264 
L 361.402485 175.7952 
L 362.053095 180.864 
L 362.703706 175.7952 
L 363.354316 175.7952 
L 364.004926 185.9328 
L 364.655537 193.536 
L 365.306147 193.536 
L 365.956757 178.3296 
L 366.607367 180.864 
L 367.257978 180.864 
L 367.908588 185.9328 
L 368.559198 183.3984 
L 369.209809 185.9328 
L 369.860419 178.3296 
L 370.511029 185.9328 
L 371.16164 188.4672 
L 371.81225 180.864 
L 372.46286 173.2608 
L 373.113471 191.0016 
L 373.764081 188.4672 
L 374.414691 196.0704 
L 375.065302 193.536 
L 375.715912 185.9328 
L 376.366522 193.536 
L 377.017132 208.7424 
L 377.667743 198.6048 
L 378.318353 198.6048 
L 378.968963 185.9328 
L 379.619574 180.864 
L 380.270184 180.864 
L 380.920794 178.3296 
L 381.571405 178.3296 
L 382.222015 175.7952 
L 382.872625 180.864 
L 383.523236 180.864 
L 384.173846 178.3296 
L 384.824456 185.9328 
L 385.475066 180.864 
L 386.125677 183.3984 
L 386.776287 178.3296 
L 387.426897 180.864 
L 388.077508 178.3296 
L 388.728118 188.4672 
L 389.378728 191.0016 
L 390.029339 193.536 
L 390.679949 188.4672 
L 391.330559 175.7952 
L 391.98117 173.2608 
L 392.63178 178.3296 
L 393.28239 178.3296 
L 393.933001 180.864 
L 394.583611 183.3984 
L 395.234221 183.3984 
L 395.884831 178.3296 
L 396.535442 180.864 
L 397.186052 178.3296 
L 397.836662 180.864 
L 398.487273 185.9328 
L 398.487273 54.144 
L 398.487273 54.144 
L 397.836662 54.144 
L 397.186052 54.144 
L 396.535442 54.144 
L 395.884831 54.144 
L 395.234221 54.144 
L 394.583611 54.144 
L 393.933001 54.144 
L 393.28239 54.144 
L 392.63178 54.144 
L 391.98117 54.144 
L 391.330559 54.144 
L 390.679949 54.144 
L 390.029339 54.144 
L 389.378728 54.144 
L 388.728118 54.144 
L 388.077508 54.144 
L 387.426897 54.144 
L 386.776287 54.144 
L 386.125677 54.144 
L 385.475066 54.144 
L 384.824456 54.144 
L 384.173846 54.144 
L 383.523236 54.144 
L 382.872625 54.144 
L 382.222015 54.144 
L 381.571405 54.144 
L 380.920794 54.144 
L 380.270184 54.144 
L 379.619574 54.144 
L 378.968963 54.144 
L 378.318353 54.144 
L 377.667743 54.144 
L 377.017132 54.144 
L 376.366522 54.144 
L 375.715912 54.144 
L 375.065302 54.144 
L 374.414691 54.144 
L 373.764081 54.144 
L 373.113471 54.144 
L 372.46286 54.144 
L 371.81225 54.144 
L 371.16164 54.144 
L 370.511029 54.144 
L 369.860419 54.144 
L 369.209809 54.144 
L 368.559198 54.144 
L 367.908588 54.144 
L 367.257978 54.144 
L 366.607367 54.144 
L 365.956757 54.144 
L 365.306147 54.144 
L 364.655537 54.144 
L 364.004926 54.144 
L 363.354316 54.144 
L 362.703706 54.144 
L 362.053095 54.144 
L 361.402485 54.144 
L 360.751875 54.144 
L 360.101264 54.144 
L 359.450654 54.144 
L 358.800044 54.144 
L 358.149433 54.144 
L 357.498823 54.144 
L 356.848213 54.144 
L 356.197602 54.144 
L 355.546992 54.144 
L 354.896382 54.144 
L 354.245772 54.144 
L 353.595161 54.144 
L 352.944551 54.144 
L 352.293941 54.144 
L 351.64333 54.144 
L 350.99272 54.144 
L 350.34211 54.144 
L 349.691499 54.144 
L 349.040889 54.144 
L 348.390279 54.144 
L 347.739668 54.144 
L 347.089058 54.144 
L 346.438448 54.144 
L 345.787837 54.144 
L 345.137227 54.144 
L 344.486617 54.144 
L 343.836007 54.144 
L 343.185396 54.144 
L 342.534786 54.144 
L 341.884176 54.144 
L 341.233565 54.144 
L 340.582955 54.144 
L 339.932345 54.144 
L 339.281734 54.144 
L 338.631124 54.144 
L 337.980514 54.144 
L 337.329903 54.144 
L 336.679293 54.144 
L 336.028683 54.144 
L 335.378073 54.144 
L 334.727462 54.144 
L 334.076852 54.144 
L 333.426242 54.144 
L 332.775631 54.144 
L 332.125021 54.144 
L 331.474411 54.144 
L 330.8238 54.144 
L 330.17319 54.144 
L 329.52258 54.144 
L 328.871969 54.144 
L 328.221359 54.144 
L 327.570749 54.144 
L 326.920138 54.144 
L 326.269528 54.144 
L 325.618918 54.144 
L 324.968308 54.144 
L 324.317697 54.144 
L 323.667087 54.144 
L 323.016477 54.144 
L 322.365866 54.144 
L 321.715256 54.144 
L 321.064646 54.144 
L 320.414035 54.144 
L 319.763425 54.144 
L 319.112815 54.144 
L 318.462204 54.144 
L 317.811594 54.144 
L 317.160984 54.144 
L 316.510373 54.144 
L 315.859763 54.144 
L 315.209153 54.144 
L 314.558543 54.144 
L 313.907932 54.144 
L 313.257322 54.144 
L 312.606712 54.144 
L 311.956101 54.144 
L 311.305491 54.144 
L 310.654881 54.144 
L 310.00427 54.144 
L 309.35366 54.144 
L 308.70305 54.144 
L 308.052439 54.144 
L 307.401829 54.144 
L 306.751219 54.144 
L 306.100608 54.144 
L 305.449998 54.144 
L 304.799388 54.144 
L 304.148778 54.144 
L 303.498167 54.144 
L 302.847557 54.144 
L 302.196947 54.144 
L 301.546336 54.144 
L 300.895726 54.144 
L 300.245116 54.144 
L 299.594505 54.144 
L 298.943895 54.144 
L 298.293285 54.144 
L 297.642674 54.144 
L 296.992064 54.144 
L 296.341454 54.144 
L 295.690844 54.144 
L 295.040233 54.144 
L 294.389623 54.144 
L 293.739013 54.144 
L 293.088402 54.144 
L 292.437792 54.144 
L 291.787182 54.144 
L 291.136571 54.144 
L 290.485961 54.144 
L 289.835351 54.144 
L 289.18474 54.144 
L 288.53413 54.144 
L 287.88352 54.144 
L 287.232909 54.144 
L 286.582299 54.144 
L 285.931689 54.144 
L 285.281079 54.144 
L 284.630468 54.144 
L 283.979858 54.144 
L 283.329248 54.144 
L 282.678637 54.144 
L 282.028027 54.144 
L 281.377417 54.144 
L 280.726806 54.144 
L 280.076196 54.144 
L 279.425586 54.144 
L 278.774975 54.144 
L 278.124365 54.144 
L 277.473755 54.144 
L 276.823144 54.144 
L 276.172534 54.144 
L 275.521924 54.144 
L 274.871314 54.144 
L 274.220703 54.144 
L 273.570093 54.144 
L 272.919483 54.144 
L 272.268872 54.144 
L 271.618262 54.144 
L 270.967652 54.144 
L 270.317041 54.144 
L 269.666431 54.144 
L 269.015821 54.144 
L 268.36521 54.144 
L 267.7146 54.144 
L 267.06399 54.144 
L 266.413379 54.144 
L 265.762769 54.144 
L 265.112159 54.144 
L 264.461549 54.144 
L 263.810938 54.144 
L 263.160328 54.144 
L 262.509718 54.144 
L 261.859107 54.144 
L 261.208497 54.144 
L 260.557887 54.144 
L 259.907276 54.144 
L 259.256666 54.144 
L 258.606056 54.144 
L 257.955445 54.144 
L 257.304835 54.144 
L 256.654225 54.144 
L 256.003615 54.144 
L 255.353004 54.144 
L 254.702394 54.144 
L 254.051784 54.144 
L 253.401173 54.144 
L 252.750563 54.144 
L 252.099953 54.144 
L 251.449342 54.144 
L 250.798732 54.144 
L 250.148122 54.144 
L 249.497511 54.144 
L 248.846901 54.144 
L 248.196291 54.144 
L 247.54568 54.144 
L 246.89507 54.144 
L 246.24446 54.144 
L 245.59385 54.144 
L 244.943239 54.144 
L 244.292629 54.144 
L 243.642019 54.144 
L 242.991408 54.144 
L 242.340798 54.144 
L 241.690188 54.144 
L 241.039577 54.144 
L 240.388967 54.144 
L 239.738357 54.144 
L 239.087746 54.144 
L 238.437136 54.144 
L 237.786526 54.144 
L 237.135915 54.144 
L 236.485305 54.144 
L 235.834695 54.144 
L 235.184085 54.144 
L 234.533474 54.144 
L 233.882864 54.144 
L 233.232254 54.144 
L 232.581643 54.144 
L 231.931033 54.144 
L 231.280423 54.144 
L 230.629812 54.144 
L 229.979202 54.144 
L 229.328592 54.144 
L 228.677981 54.144 
L 228.027371 54.144 
L 227.376761 54.144 
L 226.72615 54.144 
L 226.07554 54.144 
L 225.42493 54.144 
L 224.77432 54.144 
L 224.123709 54.144 
L 223.473099 54.144 
L 222.822489 54.144 
L 222.171878 54.144 
L 221.521268 54.144 
L 220.870658 54.144 
L 220.220047 54.144 
L 219.569437 54.144 
L 218.918827 54.144 
L 218.268216 54.144 
L 217.617606 54.144 
L 216.966996 54.144 
L 216.316385 54.144 
L 215.665775 54.144 
L 215.015165 54.144 
L 214.364555 54.144 
L 213.713944 54.144 
L 213.063334 54.144 
L 212.412724 54.144 
L 211.762113 54.144 
L 211.111503 54.144 
L 210.460893 54.144 
L 209.810282 54.144 
L 209.159672 54.144 
L 208.509062 54.144 
L 207.858451 54.144 
L 207.207841 54.144 
L 206.557231 54.144 
L 205.906621 54.144 
L 205.25601 54.144 
L 204.6054 54.144 
L 203.95479 54.144 
L 203.304179 54.144 
L 202.653569 54.144 
L 202.002959 54.144 
L 201.352348 54.144 
L 200.701738 54.144 
L 200.051128 54.144 
L 199.400517 54.144 
L 198.749907 54.144 
L 198.099297 54.144 
L 197.448686 54.144 
L 196.798076 54.144 
L 196.147466 54.144 
L 195.496856 54.144 
L 194.846245 54.144 
L 194.195635 54.144 
L 193.545025 54.144 
L 192.894414 54.144 
L 192.243804 54.144 
L 191.593194 54.144 
L 190.942583 54.144 
L 190.291973 54.144 
L 189.641363 54.144 
L 188.990752 54.144 
L 188.340142 54.144 
L 187.689532 54.144 
L 187.038921 54.144 
L 186.388311 54.144 
L 185.737701 54.144 
L 185.087091 54.144 
L 184.43648 54.144 
L 183.78587 54.144 
L 183.13526 54.144 
L 182.484649 54.144 
L 181.834039 54.144 
L 181.183429 54.144 
L 180.532818 54.144 
L 179.882208 54.144 
L 179.231598 54.144 
L 178.580987 54.144 
L 177.930377 54.144 
L 177.279767 54.144 
L 176.629156 54.144 
L 175.978546 54.144 
L 175.327936 54.144 
L 174.677326 54.144 
L 174.026715 54.144 
L 173.376105 54.144 
L 172.725495 54.144 
L 172.074884 54.144 
L 171.424274 54.144 
L 170.773664 54.144 
L 170.123053 54.144 
L 169.472443 54.144 
L 168.821833 54.144 
L 168.171222 54.144 
L 167.520612 54.144 
L 166.870002 54.144 
L 166.219392 54.144 
L 165.568781 54.144 
L 164.918171 54.144 
L 164.267561 54.144 
L 163.61695 54.144 
L 162.96634 54.144 
L 162.31573 54.144 
L 161.665119 54.144 
L 161.014509 54.144 
L 160.363899 54.144 
L 159.713288 54.144 
L 159.062678 54.144 
L 158.412068 54.144 
L 157.761457 54.144 
L 157.110847 54.144 
L 156.460237 54.144 
L 155.809627 54.144 
L 155.159016 54.144 
L 154.508406 54.144 
L 153.857796 54.144 
L 153.207185 54.144 
L 152.556575 54.144 
L 151.905965 54.144 
L 151.255354 54.144 
L 150.604744 54.144 
L 149.954134 54.144 
L 149.303523 54.144 
L 148.652913 54.144 
L 148.002303 54.144 
L 147.351692 54.144 
L 146.701082 54.144 
L 146.050472 54.144 
L 145.399862 54.144 
L 144.749251 54.144 
L 144.098641 54.144 
L 143.448031 54.144 
L 142.79742 54.144 
L 142.14681 54.144 
L 141.4962 54.144 
L 140.845589 54.144 
L 140.194979 54.144 
L 139.544369 54.144 
L 138.893758 54.144 
L 138.243148 54.144 
L 137.592538 54.144 
L 136.941927 54.144 
L 136.291317 54.144 
L 135.640707 54.144 
L 134.990097 54.144 
L 134.339486 54.144 
L 133.688876 54.144 
L 133.038266 54.144 
L 132.387655 54.144 
L 131.737045 54.144 
L 131.086435 54.144 
L 130.435824 54.144 
L 129.785214 54.144 
L 129.134604 54.144 
L 128.483993 54.144 
L 127.833383 54.144 
L 127.182773 54.144 
L 126.532163 54.144 
L 125.881552 54.144 
L 125.230942 54.144 
L 124.580332 54.144 
L 123.929721 54.144 
L 123.279111 54.144 
L 122.628501 54.144 
L 121.97789 54.144 
L 121.32728 54.144 
L 120.67667 54.144 
L 120.026059 54.144 
L 119.375449 54.144 
L 118.724839 54.144 
L 118.074228 54.144 
L 117.423618 54.144 
L 116.773008 54.144 
L 116.122398 54.144 
L 115.471787 54.144 
L 114.821177 54.144 
L 114.170567 54.144 
L 113.519956 54.144 
L 112.869346 54.144 
L 112.218736 54.144 
L 111.568125 54.144 
L 110.917515 54.144 
L 110.266905 54.144 
L 109.616294 54.144 
L 108.965684 54.144 
L 108.315074 54.144 
L 107.664463 54.144 
L 107.013853 54.144 
L 106.363243 54.144 
L 105.712633 54.144 
L 105.062022 54.144 
L 104.411412 54.144 
L 103.760802 54.144 
L 103.110191 54.144 
L 102.459581 54.144 
L 101.808971 54.144 
L 101.15836 54.144 
L 100.50775 54.144 
L 99.85714 54.144 
L 99.206529 54.144 
L 98.555919 54.144 
L 97.905309 54.144 
L 97.254698 54.144 
L 96.604088 54.144 
L 95.953478 54.144 
L 95.302868 54.144 
L 94.652257 54.144 
L 94.001647 54.144 
L 93.351037 54.144 
L 92.700426 54.144 
L 92.049816 54.144 
L 91.399206 54.144 
L 90.748595 54.144 
L 90.097985 54.144 
L 89.447375 54.144 
L 88.796764 54.144 
L 88.146154 54.144 
L 87.495544 54.144 
L 86.844934 54.144 
L 86.194323 54.144 
L 85.543713 54.144 
L 84.893103 54.144 
L 84.242492 54.144 
L 83.591882 54.144 
L 82.941272 54.144 
L 82.290661 54.144 
L 81.640051 54.144 
L 80.989441 54.144 
L 80.33883 54.144 
L 79.68822 54.144 
L 79.03761 54.144 
L 78.386999 54.144 
L 77.736389 54.144 
L 77.085779 54.144 
L 76.435169 54.144 
L 75.784558 54.144 
L 75.133948 54.144 
L 74.483338 54.144 
L 73.832727 54.144 
z
" style="fill:#ff7f0e;"/>
   </g>
   <g id="matplotlib.axis_1">
    <g id="xtick_1">
     <g id="line2d_1">
      <defs>
       <path d="M 0 0 
L 0 3.5 
" id="m17f9e392ad" style="stroke:#000000;stroke-width:0.8;"/>
      </defs>
      <g>
       <use style="stroke:#000000;stroke-width:0.8;" x="73.832727" xlink:href="#m17f9e392ad" y="307.584"/>
      </g>
     </g>
     <g id="text_1">
      <!-- 0 -->
      <defs>
       <path d="M 31.78125 66.40625 
Q 24.171875 66.40625 20.328125 58.90625 
Q 16.5 51.421875 16.5 36.375 
Q 16.5 21.390625 20.328125 13.890625 
Q 24.171875 6.390625 31.78125 6.390625 
Q 39.453125 6.390625 43.28125 13.890625 
Q 47.125 21.390625 47.125 36.375 
Q 47.125 51.421875 43.28125 58.90625 
Q 39.453125 66.40625 31.78125 66.40625 
z
M 31.78125 74.21875 
Q 44.046875 74.21875 50.515625 64.515625 
Q 56.984375 54.828125 56.984375 36.375 
Q 56.984375 17.96875 50.515625 8.265625 
Q 44.046875 -1.421875 31.78125 -1.421875 
Q 19.53125 -1.421875 13.0625 8.265625 
Q 6.59375 17.96875 6.59375 36.375 
Q 6.59375 54.828125 13.0625 64.515625 
Q 19.53125 74.21875 31.78125 74.21875 
z
" id="DejaVuSans-48"/>
      </defs>
      <g transform="translate(70.651477 322.182437)scale(0.1 -0.1)">
       <use xlink:href="#DejaVuSans-48"/>
      </g>
     </g>
    </g>
    <g id="xtick_2">
     <g id="line2d_2">
      <g>
       <use style="stroke:#000000;stroke-width:0.8;" x="138.893758" xlink:href="#m17f9e392ad" y="307.584"/>
      </g>
     </g>
     <g id="text_2">
      <!-- 100 -->
      <defs>
       <path d="M 12.40625 8.296875 
L 28.515625 8.296875 
L 28.515625 63.921875 
L 10.984375 60.40625 
L 10.984375 69.390625 
L 28.421875 72.90625 
L 38.28125 72.90625 
L 38.28125 8.296875 
L 54.390625 8.296875 
L 54.390625 0 
L 12.40625 0 
z
" id="DejaVuSans-49"/>
      </defs>
      <g transform="translate(129.350008 322.182437)scale(0.1 -0.1)">
       <use xlink:href="#DejaVuSans-49"/>
       <use x="63.623047" xlink:href="#DejaVuSans-48"/>
       <use x="127.246094" xlink:href="#DejaVuSans-48"/>
      </g>
     </g>
    </g>
    <g id="xtick_3">
     <g id="line2d_3">
      <g>
       <use style="stroke:#000000;stroke-width:0.8;" x="203.95479" xlink:href="#m17f9e392ad" y="307.584"/>
      </g>
     </g>
     <g id="text_3">
      <!-- 200 -->
      <defs>
       <path d="M 19.1875 8.296875 
L 53.609375 8.296875 
L 53.609375 0 
L 7.328125 0 
L 7.328125 8.296875 
Q 12.9375 14.109375 22.625 23.890625 
Q 32.328125 33.6875 34.8125 36.53125 
Q 39.546875 41.84375 41.421875 45.53125 
Q 43.3125 49.21875 43.3125 52.78125 
Q 43.3125 58.59375 39.234375 62.25 
Q 35.15625 65.921875 28.609375 65.921875 
Q 23.96875 65.921875 18.8125 64.3125 
Q 13.671875 62.703125 7.8125 59.421875 
L 7.8125 69.390625 
Q 13.765625 71.78125 18.9375 73 
Q 24.125 74.21875 28.421875 74.21875 
Q 39.75 74.21875 46.484375 68.546875 
Q 53.21875 62.890625 53.21875 53.421875 
Q 53.21875 48.921875 51.53125 44.890625 
Q 49.859375 40.875 45.40625 35.40625 
Q 44.1875 33.984375 37.640625 27.21875 
Q 31.109375 20.453125 19.1875 8.296875 
z
" id="DejaVuSans-50"/>
      </defs>
      <g transform="translate(194.41104 322.182437)scale(0.1 -0.1)">
       <use xlink:href="#DejaVuSans-50"/>
       <use x="63.623047" xlink:href="#DejaVuSans-48"/>
       <use x="127.246094" xlink:href="#DejaVuSans-48"/>
      </g>
     </g>
    </g>
    <g id="xtick_4">
     <g id="line2d_4">
      <g>
       <use style="stroke:#000000;stroke-width:0.8;" x="269.015821" xlink:href="#m17f9e392ad" y="307.584"/>
      </g>
     </g>
     <g id="text_4">
      <!-- 300 -->
      <defs>
       <path d="M 40.578125 39.3125 
Q 47.65625 37.796875 51.625 33 
Q 55.609375 28.21875 55.609375 21.1875 
Q 55.609375 10.40625 48.1875 4.484375 
Q 40.765625 -1.421875 27.09375 -1.421875 
Q 22.515625 -1.421875 17.65625 -0.515625 
Q 12.796875 0.390625 7.625 2.203125 
L 7.625 11.71875 
Q 11.71875 9.328125 16.59375 8.109375 
Q 21.484375 6.890625 26.8125 6.890625 
Q 36.078125 6.890625 40.9375 10.546875 
Q 45.796875 14.203125 45.796875 21.1875 
Q 45.796875 27.640625 41.28125 31.265625 
Q 36.765625 34.90625 28.71875 34.90625 
L 20.21875 34.90625 
L 20.21875 43.015625 
L 29.109375 43.015625 
Q 36.375 43.015625 40.234375 45.921875 
Q 44.09375 48.828125 44.09375 54.296875 
Q 44.09375 59.90625 40.109375 62.90625 
Q 36.140625 65.921875 28.71875 65.921875 
Q 24.65625 65.921875 20.015625 65.03125 
Q 15.375 64.15625 9.8125 62.3125 
L 9.8125 71.09375 
Q 15.4375 72.65625 20.34375 73.4375 
Q 25.25 74.21875 29.59375 74.21875 
Q 40.828125 74.21875 47.359375 69.109375 
Q 53.90625 64.015625 53.90625 55.328125 
Q 53.90625 49.265625 50.4375 45.09375 
Q 46.96875 40.921875 40.578125 39.3125 
z
" id="DejaVuSans-51"/>
      </defs>
      <g transform="translate(259.472071 322.182437)scale(0.1 -0.1)">
       <use xlink:href="#DejaVuSans-51"/>
       <use x="63.623047" xlink:href="#DejaVuSans-48"/>
       <use x="127.246094" xlink:href="#DejaVuSans-48"/>
      </g>
     </g>
    </g>
    <g id="xtick_5">
     <g id="line2d_5">
      <g>
       <use style="stroke:#000000;stroke-width:0.8;" x="334.076852" xlink:href="#m17f9e392ad" y="307.584"/>
      </g>
     </g>
     <g id="text_5">
      <!-- 400 -->
      <defs>
       <path d="M 37.796875 64.3125 
L 12.890625 25.390625 
L 37.796875 25.390625 
z
M 35.203125 72.90625 
L 47.609375 72.90625 
L 47.609375 25.390625 
L 58.015625 25.390625 
L 58.015625 17.1875 
L 47.609375 17.1875 
L 47.609375 0 
L 37.796875 0 
L 37.796875 17.1875 
L 4.890625 17.1875 
L 4.890625 26.703125 
z
" id="DejaVuSans-52"/>
      </defs>
      <g transform="translate(324.533102 322.182437)scale(0.1 -0.1)">
       <use xlink:href="#DejaVuSans-52"/>
       <use x="63.623047" xlink:href="#DejaVuSans-48"/>
       <use x="127.246094" xlink:href="#DejaVuSans-48"/>
      </g>
     </g>
    </g>
    <g id="xtick_6">
     <g id="line2d_6">
      <g>
       <use style="stroke:#000000;stroke-width:0.8;" x="399.137883" xlink:href="#m17f9e392ad" y="307.584"/>
      </g>
     </g>
     <g id="text_6">
      <!-- 500 -->
      <defs>
       <path d="M 10.796875 72.90625 
L 49.515625 72.90625 
L 49.515625 64.59375 
L 19.828125 64.59375 
L 19.828125 46.734375 
Q 21.96875 47.46875 24.109375 47.828125 
Q 26.265625 48.1875 28.421875 48.1875 
Q 40.625 48.1875 47.75 41.5 
Q 54.890625 34.8125 54.890625 23.390625 
Q 54.890625 11.625 47.5625 5.09375 
Q 40.234375 -1.421875 26.90625 -1.421875 
Q 22.3125 -1.421875 17.546875 -0.640625 
Q 12.796875 0.140625 7.71875 1.703125 
L 7.71875 11.625 
Q 12.109375 9.234375 16.796875 8.0625 
Q 21.484375 6.890625 26.703125 6.890625 
Q 35.15625 6.890625 40.078125 11.328125 
Q 45.015625 15.765625 45.015625 23.390625 
Q 45.015625 31 40.078125 35.4375 
Q 35.15625 39.890625 26.703125 39.890625 
Q 22.75 39.890625 18.8125 39.015625 
Q 14.890625 38.140625 10.796875 36.28125 
z
" id="DejaVuSans-53"/>
      </defs>
      <g transform="translate(389.594133 322.182437)scale(0.1 -0.1)">
       <use xlink:href="#DejaVuSans-53"/>
       <use x="63.623047" xlink:href="#DejaVuSans-48"/>
       <use x="127.246094" xlink:href="#DejaVuSans-48"/>
      </g>
     </g>
    </g>
    <g id="text_7">
     <!-- Generations -->
     <defs>
      <path d="M 59.515625 10.40625 
L 59.515625 29.984375 
L 43.40625 29.984375 
L 43.40625 38.09375 
L 69.28125 38.09375 
L 69.28125 6.78125 
Q 63.578125 2.734375 56.6875 0.65625 
Q 49.8125 -1.421875 42 -1.421875 
Q 24.90625 -1.421875 15.25 8.5625 
Q 5.609375 18.5625 5.609375 36.375 
Q 5.609375 54.25 15.25 64.234375 
Q 24.90625 74.21875 42 74.21875 
Q 49.125 74.21875 55.546875 72.453125 
Q 61.96875 70.703125 67.390625 67.28125 
L 67.390625 56.78125 
Q 61.921875 61.421875 55.765625 63.765625 
Q 49.609375 66.109375 42.828125 66.109375 
Q 29.4375 66.109375 22.71875 58.640625 
Q 16.015625 51.171875 16.015625 36.375 
Q 16.015625 21.625 22.71875 14.15625 
Q 29.4375 6.6875 42.828125 6.6875 
Q 48.046875 6.6875 52.140625 7.59375 
Q 56.25 8.5 59.515625 10.40625 
z
" id="DejaVuSans-71"/>
      <path d="M 56.203125 29.59375 
L 56.203125 25.203125 
L 14.890625 25.203125 
Q 15.484375 15.921875 20.484375 11.0625 
Q 25.484375 6.203125 34.421875 6.203125 
Q 39.59375 6.203125 44.453125 7.46875 
Q 49.3125 8.734375 54.109375 11.28125 
L 54.109375 2.78125 
Q 49.265625 0.734375 44.1875 -0.34375 
Q 39.109375 -1.421875 33.890625 -1.421875 
Q 20.796875 -1.421875 13.15625 6.1875 
Q 5.515625 13.8125 5.515625 26.8125 
Q 5.515625 40.234375 12.765625 48.109375 
Q 20.015625 56 32.328125 56 
Q 43.359375 56 49.78125 48.890625 
Q 56.203125 41.796875 56.203125 29.59375 
z
M 47.21875 32.234375 
Q 47.125 39.59375 43.09375 43.984375 
Q 39.0625 48.390625 32.421875 48.390625 
Q 24.90625 48.390625 20.390625 44.140625 
Q 15.875 39.890625 15.1875 32.171875 
z
" id="DejaVuSans-101"/>
      <path d="M 54.890625 33.015625 
L 54.890625 0 
L 45.90625 0 
L 45.90625 32.71875 
Q 45.90625 40.484375 42.875 44.328125 
Q 39.84375 48.1875 33.796875 48.1875 
Q 26.515625 48.1875 22.3125 43.546875 
Q 18.109375 38.921875 18.109375 30.90625 
L 18.109375 0 
L 9.078125 0 
L 9.078125 54.6875 
L 18.109375 54.6875 
L 18.109375 46.1875 
Q 21.34375 51.125 25.703125 53.5625 
Q 30.078125 56 35.796875 56 
Q 45.21875 56 50.046875 50.171875 
Q 54.890625 44.34375 54.890625 33.015625 
z
" id="DejaVuSans-110"/>
      <path d="M 41.109375 46.296875 
Q 39.59375 47.171875 37.8125 47.578125 
Q 36.03125 48 33.890625 48 
Q 26.265625 48 22.1875 43.046875 
Q 18.109375 38.09375 18.109375 28.8125 
L 18.109375 0 
L 9.078125 0 
L 9.078125 54.6875 
L 18.109375 54.6875 
L 18.109375 46.1875 
Q 20.953125 51.171875 25.484375 53.578125 
Q 30.03125 56 36.53125 56 
Q 37.453125 56 38.578125 55.875 
Q 39.703125 55.765625 41.0625 55.515625 
z
" id="DejaVuSans-114"/>
      <path d="M 34.28125 27.484375 
Q 23.390625 27.484375 19.1875 25 
Q 14.984375 22.515625 14.984375 16.5 
Q 14.984375 11.71875 18.140625 8.90625 
Q 21.296875 6.109375 26.703125 6.109375 
Q 34.1875 6.109375 38.703125 11.40625 
Q 43.21875 16.703125 43.21875 25.484375 
L 43.21875 27.484375 
z
M 52.203125 31.203125 
L 52.203125 0 
L 43.21875 0 
L 43.21875 8.296875 
Q 40.140625 3.328125 35.546875 0.953125 
Q 30.953125 -1.421875 24.3125 -1.421875 
Q 15.921875 -1.421875 10.953125 3.296875 
Q 6 8.015625 6 15.921875 
Q 6 25.140625 12.171875 29.828125 
Q 18.359375 34.515625 30.609375 34.515625 
L 43.21875 34.515625 
L 43.21875 35.40625 
Q 43.21875 41.609375 39.140625 45 
Q 35.0625 48.390625 27.6875 48.390625 
Q 23 48.390625 18.546875 47.265625 
Q 14.109375 46.140625 10.015625 43.890625 
L 10.015625 52.203125 
Q 14.9375 54.109375 19.578125 55.046875 
Q 24.21875 56 28.609375 56 
Q 40.484375 56 46.34375 49.84375 
Q 52.203125 43.703125 52.203125 31.203125 
z
" id="DejaVuSans-97"/>
      <path d="M 18.3125 70.21875 
L 18.3125 54.6875 
L 36.8125 54.6875 
L 36.8125 47.703125 
L 18.3125 47.703125 
L 18.3125 18.015625 
Q 18.3125 11.328125 20.140625 9.421875 
Q 21.96875 7.515625 27.59375 7.515625 
L 36.8125 7.515625 
L 36.8125 0 
L 27.59375 0 
Q 17.1875 0 13.234375 3.875 
Q 9.28125 7.765625 9.28125 18.015625 
L 9.28125 47.703125 
L 2.6875 47.703125 
L 2.6875 54.6875 
L 9.28125 54.6875 
L 9.28125 70.21875 
z
" id="DejaVuSans-116"/>
      <path d="M 9.421875 54.6875 
L 18.40625 54.6875 
L 18.40625 0 
L 9.421875 0 
z
M 9.421875 75.984375 
L 18.40625 75.984375 
L 18.40625 64.59375 
L 9.421875 64.59375 
z
" id="DejaVuSans-105"/>
      <path d="M 30.609375 48.390625 
Q 23.390625 48.390625 19.1875 42.75 
Q 14.984375 37.109375 14.984375 27.296875 
Q 14.984375 17.484375 19.15625 11.84375 
Q 23.34375 6.203125 30.609375 6.203125 
Q 37.796875 6.203125 41.984375 11.859375 
Q 46.1875 17.53125 46.1875 27.296875 
Q 46.1875 37.015625 41.984375 42.703125 
Q 37.796875 48.390625 30.609375 48.390625 
z
M 30.609375 56 
Q 42.328125 56 49.015625 48.375 
Q 55.71875 40.765625 55.71875 27.296875 
Q 55.71875 13.875 49.015625 6.21875 
Q 42.328125 -1.421875 30.609375 -1.421875 
Q 18.84375 -1.421875 12.171875 6.21875 
Q 5.515625 13.875 5.515625 27.296875 
Q 5.515625 40.765625 12.171875 48.375 
Q 18.84375 56 30.609375 56 
z
" id="DejaVuSans-111"/>
      <path d="M 44.28125 53.078125 
L 44.28125 44.578125 
Q 40.484375 46.53125 36.375 47.5 
Q 32.28125 48.484375 27.875 48.484375 
Q 21.1875 48.484375 17.84375 46.4375 
Q 14.5 44.390625 14.5 40.28125 
Q 14.5 37.15625 16.890625 35.375 
Q 19.28125 33.59375 26.515625 31.984375 
L 29.59375 31.296875 
Q 39.15625 29.25 43.1875 25.515625 
Q 47.21875 21.78125 47.21875 15.09375 
Q 47.21875 7.46875 41.1875 3.015625 
Q 35.15625 -1.421875 24.609375 -1.421875 
Q 20.21875 -1.421875 15.453125 -0.5625 
Q 10.6875 0.296875 5.421875 2 
L 5.421875 11.28125 
Q 10.40625 8.6875 15.234375 7.390625 
Q 20.0625 6.109375 24.8125 6.109375 
Q 31.15625 6.109375 34.5625 8.28125 
Q 37.984375 10.453125 37.984375 14.40625 
Q 37.984375 18.0625 35.515625 20.015625 
Q 33.0625 21.96875 24.703125 23.78125 
L 21.578125 24.515625 
Q 13.234375 26.265625 9.515625 29.90625 
Q 5.8125 33.546875 5.8125 39.890625 
Q 5.8125 47.609375 11.28125 51.796875 
Q 16.75 56 26.8125 56 
Q 31.78125 56 36.171875 55.265625 
Q 40.578125 54.546875 44.28125 53.078125 
z
" id="DejaVuSans-115"/>
     </defs>
     <g transform="translate(205.662344 335.860562)scale(0.1 -0.1)">
      <use xlink:href="#DejaVuSans-71"/>
      <use x="77.490234" xlink:href="#DejaVuSans-101"/>
      <use x="139.013672" xlink:href="#DejaVuSans-110"/>
      <use x="202.392578" xlink:href="#DejaVuSans-101"/>
      <use x="263.916016" xlink:href="#DejaVuSans-114"/>
      <use x="305.029297" xlink:href="#DejaVuSans-97"/>
      <use x="366.308594" xlink:href="#DejaVuSans-116"/>
      <use x="405.517578" xlink:href="#DejaVuSans-105"/>
      <use x="433.300781" xlink:href="#DejaVuSans-111"/>
      <use x="494.482422" xlink:href="#DejaVuSans-110"/>
      <use x="557.861328" xlink:href="#DejaVuSans-115"/>
     </g>
    </g>
   </g>
   <g id="matplotlib.axis_2">
    <g id="ytick_1">
     <g id="line2d_7">
      <defs>
       <path d="M 0 0 
L -3.5 0 
" id="mdcb89032dc" style="stroke:#000000;stroke-width:0.8;"/>
      </defs>
      <g>
       <use style="stroke:#000000;stroke-width:0.8;" x="57.6" xlink:href="#mdcb89032dc" y="307.584"/>
      </g>
     </g>
     <g id="text_8">
      <!-- 0 -->
      <g transform="translate(44.2375 311.383219)scale(0.1 -0.1)">
       <use xlink:href="#DejaVuSans-48"/>
      </g>
     </g>
    </g>
    <g id="ytick_2">
     <g id="line2d_8">
      <g>
       <use style="stroke:#000000;stroke-width:0.8;" x="57.6" xlink:href="#mdcb89032dc" y="256.896"/>
      </g>
     </g>
     <g id="text_9">
      <!-- 20 -->
      <g transform="translate(37.875 260.695219)scale(0.1 -0.1)">
       <use xlink:href="#DejaVuSans-50"/>
       <use x="63.623047" xlink:href="#DejaVuSans-48"/>
      </g>
     </g>
    </g>
    <g id="ytick_3">
     <g id="line2d_9">
      <g>
       <use style="stroke:#000000;stroke-width:0.8;" x="57.6" xlink:href="#mdcb89032dc" y="206.208"/>
      </g>
     </g>
     <g id="text_10">
      <!-- 40 -->
      <g transform="translate(37.875 210.007219)scale(0.1 -0.1)">
       <use xlink:href="#DejaVuSans-52"/>
       <use x="63.623047" xlink:href="#DejaVuSans-48"/>
      </g>
     </g>
    </g>
    <g id="ytick_4">
     <g id="line2d_10">
      <g>
       <use style="stroke:#000000;stroke-width:0.8;" x="57.6" xlink:href="#mdcb89032dc" y="155.52"/>
      </g>
     </g>
     <g id="text_11">
      <!-- 60 -->
      <defs>
       <path d="M 33.015625 40.375 
Q 26.375 40.375 22.484375 35.828125 
Q 18.609375 31.296875 18.609375 23.390625 
Q 18.609375 15.53125 22.484375 10.953125 
Q 26.375 6.390625 33.015625 6.390625 
Q 39.65625 6.390625 43.53125 10.953125 
Q 47.40625 15.53125 47.40625 23.390625 
Q 47.40625 31.296875 43.53125 35.828125 
Q 39.65625 40.375 33.015625 40.375 
z
M 52.59375 71.296875 
L 52.59375 62.3125 
Q 48.875 64.0625 45.09375 64.984375 
Q 41.3125 65.921875 37.59375 65.921875 
Q 27.828125 65.921875 22.671875 59.328125 
Q 17.53125 52.734375 16.796875 39.40625 
Q 19.671875 43.65625 24.015625 45.921875 
Q 28.375 48.1875 33.59375 48.1875 
Q 44.578125 48.1875 50.953125 41.515625 
Q 57.328125 34.859375 57.328125 23.390625 
Q 57.328125 12.15625 50.6875 5.359375 
Q 44.046875 -1.421875 33.015625 -1.421875 
Q 20.359375 -1.421875 13.671875 8.265625 
Q 6.984375 17.96875 6.984375 36.375 
Q 6.984375 53.65625 15.1875 63.9375 
Q 23.390625 74.21875 37.203125 74.21875 
Q 40.921875 74.21875 44.703125 73.484375 
Q 48.484375 72.75 52.59375 71.296875 
z
" id="DejaVuSans-54"/>
      </defs>
      <g transform="translate(37.875 159.319219)scale(0.1 -0.1)">
       <use xlink:href="#DejaVuSans-54"/>
       <use x="63.623047" xlink:href="#DejaVuSans-48"/>
      </g>
     </g>
    </g>
    <g id="ytick_5">
     <g id="line2d_11">
      <g>
       <use style="stroke:#000000;stroke-width:0.8;" x="57.6" xlink:href="#mdcb89032dc" y="104.832"/>
      </g>
     </g>
     <g id="text_12">
      <!-- 80 -->
      <defs>
       <path d="M 31.78125 34.625 
Q 24.75 34.625 20.71875 30.859375 
Q 16.703125 27.09375 16.703125 20.515625 
Q 16.703125 13.921875 20.71875 10.15625 
Q 24.75 6.390625 31.78125 6.390625 
Q 38.8125 6.390625 42.859375 10.171875 
Q 46.921875 13.96875 46.921875 20.515625 
Q 46.921875 27.09375 42.890625 30.859375 
Q 38.875 34.625 31.78125 34.625 
z
M 21.921875 38.8125 
Q 15.578125 40.375 12.03125 44.71875 
Q 8.5 49.078125 8.5 55.328125 
Q 8.5 64.0625 14.71875 69.140625 
Q 20.953125 74.21875 31.78125 74.21875 
Q 42.671875 74.21875 48.875 69.140625 
Q 55.078125 64.0625 55.078125 55.328125 
Q 55.078125 49.078125 51.53125 44.71875 
Q 48 40.375 41.703125 38.8125 
Q 48.828125 37.15625 52.796875 32.3125 
Q 56.78125 27.484375 56.78125 20.515625 
Q 56.78125 9.90625 50.3125 4.234375 
Q 43.84375 -1.421875 31.78125 -1.421875 
Q 19.734375 -1.421875 13.25 4.234375 
Q 6.78125 9.90625 6.78125 20.515625 
Q 6.78125 27.484375 10.78125 32.3125 
Q 14.796875 37.15625 21.921875 38.8125 
z
M 18.3125 54.390625 
Q 18.3125 48.734375 21.84375 45.5625 
Q 25.390625 42.390625 31.78125 42.390625 
Q 38.140625 42.390625 41.71875 45.5625 
Q 45.3125 48.734375 45.3125 54.390625 
Q 45.3125 60.0625 41.71875 63.234375 
Q 38.140625 66.40625 31.78125 66.40625 
Q 25.390625 66.40625 21.84375 63.234375 
Q 18.3125 60.0625 18.3125 54.390625 
z
" id="DejaVuSans-56"/>
      </defs>
      <g transform="translate(37.875 108.631219)scale(0.1 -0.1)">
       <use xlink:href="#DejaVuSans-56"/>
       <use x="63.623047" xlink:href="#DejaVuSans-48"/>
      </g>
     </g>
    </g>
    <g id="ytick_6">
     <g id="line2d_12">
      <g>
       <use style="stroke:#000000;stroke-width:0.8;" x="57.6" xlink:href="#mdcb89032dc" y="54.144"/>
      </g>
     </g>
     <g id="text_13">
      <!-- 100 -->
      <g transform="translate(31.5125 57.943219)scale(0.1 -0.1)">
       <use xlink:href="#DejaVuSans-49"/>
       <use x="63.623047" xlink:href="#DejaVuSans-48"/>
       <use x="127.246094" xlink:href="#DejaVuSans-48"/>
      </g>
     </g>
    </g>
    <g id="text_14">
     <!-- Size per Species -->
     <defs>
      <path d="M 53.515625 70.515625 
L 53.515625 60.890625 
Q 47.90625 63.578125 42.921875 64.890625 
Q 37.9375 66.21875 33.296875 66.21875 
Q 25.25 66.21875 20.875 63.09375 
Q 16.5 59.96875 16.5 54.203125 
Q 16.5 49.359375 19.40625 46.890625 
Q 22.3125 44.4375 30.421875 42.921875 
L 36.375 41.703125 
Q 47.40625 39.59375 52.65625 34.296875 
Q 57.90625 29 57.90625 20.125 
Q 57.90625 9.515625 50.796875 4.046875 
Q 43.703125 -1.421875 29.984375 -1.421875 
Q 24.8125 -1.421875 18.96875 -0.25 
Q 13.140625 0.921875 6.890625 3.21875 
L 6.890625 13.375 
Q 12.890625 10.015625 18.65625 8.296875 
Q 24.421875 6.59375 29.984375 6.59375 
Q 38.421875 6.59375 43.015625 9.90625 
Q 47.609375 13.234375 47.609375 19.390625 
Q 47.609375 24.75 44.3125 27.78125 
Q 41.015625 30.8125 33.5 32.328125 
L 27.484375 33.5 
Q 16.453125 35.6875 11.515625 40.375 
Q 6.59375 45.0625 6.59375 53.421875 
Q 6.59375 63.09375 13.40625 68.65625 
Q 20.21875 74.21875 32.171875 74.21875 
Q 37.3125 74.21875 42.625 73.28125 
Q 47.953125 72.359375 53.515625 70.515625 
z
" id="DejaVuSans-83"/>
      <path d="M 5.515625 54.6875 
L 48.1875 54.6875 
L 48.1875 46.484375 
L 14.40625 7.171875 
L 48.1875 7.171875 
L 48.1875 0 
L 4.296875 0 
L 4.296875 8.203125 
L 38.09375 47.515625 
L 5.515625 47.515625 
z
" id="DejaVuSans-122"/>
      <path id="DejaVuSans-32"/>
      <path d="M 18.109375 8.203125 
L 18.109375 -20.796875 
L 9.078125 -20.796875 
L 9.078125 54.6875 
L 18.109375 54.6875 
L 18.109375 46.390625 
Q 20.953125 51.265625 25.265625 53.625 
Q 29.59375 56 35.59375 56 
Q 45.5625 56 51.78125 48.09375 
Q 58.015625 40.1875 58.015625 27.296875 
Q 58.015625 14.40625 51.78125 6.484375 
Q 45.5625 -1.421875 35.59375 -1.421875 
Q 29.59375 -1.421875 25.265625 0.953125 
Q 20.953125 3.328125 18.109375 8.203125 
z
M 48.6875 27.296875 
Q 48.6875 37.203125 44.609375 42.84375 
Q 40.53125 48.484375 33.40625 48.484375 
Q 26.265625 48.484375 22.1875 42.84375 
Q 18.109375 37.203125 18.109375 27.296875 
Q 18.109375 17.390625 22.1875 11.75 
Q 26.265625 6.109375 33.40625 6.109375 
Q 40.53125 6.109375 44.609375 11.75 
Q 48.6875 17.390625 48.6875 27.296875 
z
" id="DejaVuSans-112"/>
      <path d="M 48.78125 52.59375 
L 48.78125 44.1875 
Q 44.96875 46.296875 41.140625 47.34375 
Q 37.3125 48.390625 33.40625 48.390625 
Q 24.65625 48.390625 19.8125 42.84375 
Q 14.984375 37.3125 14.984375 27.296875 
Q 14.984375 17.28125 19.8125 11.734375 
Q 24.65625 6.203125 33.40625 6.203125 
Q 37.3125 6.203125 41.140625 7.25 
Q 44.96875 8.296875 48.78125 10.40625 
L 48.78125 2.09375 
Q 45.015625 0.34375 40.984375 -0.53125 
Q 36.96875 -1.421875 32.421875 -1.421875 
Q 20.0625 -1.421875 12.78125 6.34375 
Q 5.515625 14.109375 5.515625 27.296875 
Q 5.515625 40.671875 12.859375 48.328125 
Q 20.21875 56 33.015625 56 
Q 37.15625 56 41.109375 55.140625 
Q 45.0625 54.296875 48.78125 52.59375 
z
" id="DejaVuSans-99"/>
     </defs>
     <g transform="translate(25.432812 215.520969)rotate(-90)scale(0.1 -0.1)">
      <use xlink:href="#DejaVuSans-83"/>
      <use x="63.476562" xlink:href="#DejaVuSans-105"/>
      <use x="91.259766" xlink:href="#DejaVuSans-122"/>
      <use x="143.75" xlink:href="#DejaVuSans-101"/>
      <use x="205.273438" xlink:href="#DejaVuSans-32"/>
      <use x="237.060547" xlink:href="#DejaVuSans-112"/>
      <use x="300.537109" xlink:href="#DejaVuSans-101"/>
      <use x="362.060547" xlink:href="#DejaVuSans-114"/>
      <use x="403.173828" xlink:href="#DejaVuSans-32"/>
      <use x="434.960938" xlink:href="#DejaVuSans-83"/>
      <use x="498.4375" xlink:href="#DejaVuSans-112"/>
      <use x="561.914062" xlink:href="#DejaVuSans-101"/>
      <use x="623.4375" xlink:href="#DejaVuSans-99"/>
      <use x="678.417969" xlink:href="#DejaVuSans-105"/>
      <use x="706.201172" xlink:href="#DejaVuSans-101"/>
      <use x="767.724609" xlink:href="#DejaVuSans-115"/>
     </g>
    </g>
   </g>
   <g id="patch_3">
    <path d="M 57.6 307.584 
L 57.6 41.472 
" style="fill:none;stroke:#000000;stroke-linecap:square;stroke-linejoin:miter;stroke-width:0.8;"/>
   </g>
   <g id="patch_4">
    <path d="M 414.72 307.584 
L 414.72 41.472 
" style="fill:none;stroke:#000000;stroke-linecap:square;stroke-linejoin:miter;stroke-width:0.8;"/>
   </g>
   <g id="patch_5">
    <path d="M 57.6 307.584 
L 414.72 307.584 
" style="fill:none;stroke:#000000;stroke-linecap:square;stroke-linejoin:miter;stroke-width:0.8;"/>
   </g>
   <g id="patch_6">
    <path d="M 57.6 41.472 
L 414.72 41.472 
" style="fill:none;stroke:#000000;stroke-linecap:square;stroke-linejoin:miter;stroke-width:0.8;"/>
   </g>
   <g id="text_15">
    <!-- Speciation -->
    <g transform="translate(204.714375 35.472)scale(0.12 -0.12)">
     <use xlink:href="#DejaVuSans-83"/>
     <use x="63.476562" xlink:href="#DejaVuSans-112"/>
     <use x="126.953125" xlink:href="#DejaVuSans-101"/>
     <use x="188.476562" xlink:href="#DejaVuSans-99"/>
     <use x="243.457031" xlink:href="#DejaVuSans-105"/>
     <use x="271.240234" xlink:href="#DejaVuSans-97"/>
     <use x="332.519531" xlink:href="#DejaVuSans-116"/>
     <use x="371.728516" xlink:href="#DejaVuSans-105"/>
     <use x="399.511719" xlink:href="#DejaVuSans-111"/>
     <use x="460.693359" xlink:href="#DejaVuSans-110"/>
    </g>
   </g>
  </g>
 </g>
 <defs>
  <clipPath id="pda50f7d39a">
   <rect height="266.112" width="357.12" x="57.6" y="41.472"/>
  </clipPath>
 </defs>
</svg>
