<?xml version="1.0" encoding="UTF-8" standalone="no"?>
<!DOCTYPE svg PUBLIC "-//W3C//DTD SVG 1.1//EN"
 "http://www.w3.org/Graphics/SVG/1.1/DTD/svg11.dtd">
<!-- Generated by graphviz version 2.38.0 (20140413.2041)
 -->
<!-- Title: %3 Pages: 1 -->
<svg width="503pt" height="407pt"
 viewBox="0.00 0.00 503.50 406.56" xmlns="http://www.w3.org/2000/svg" xmlns:xlink="http://www.w3.org/1999/xlink">
<g id="graph0" class="graph" transform="scale(1 1) rotate(0) translate(4 402.558)">
<title>%3</title>
<polygon fill="white" stroke="none" points="-4,4 -4,-402.558 499.497,-402.558 499.497,4 -4,4"/>
<!-- t&#45;7 -->
<g id="node1" class="node"><title>t&#45;7</title>
<polygon fill="lightgray" stroke="black" points="356.249,-382.81 329.249,-382.81 329.249,-364.81 356.249,-364.81 356.249,-382.81"/>
<text text-anchor="middle" x="342.749" y="-371.61" font-family="Times New Roman,serif" font-size="9.00">t&#45;7</text>
</g>
<!-- t&#45;6 -->
<g id="node2" class="node"><title>t&#45;6</title>
<polygon fill="lightgray" stroke="black" points="112.249,-211.815 85.2487,-211.815 85.2487,-193.815 112.249,-193.815 112.249,-211.815"/>
<text text-anchor="middle" x="98.7487" y="-200.615" font-family="Times New Roman,serif" font-size="9.00">t&#45;6</text>
</g>
<!-- Target -->
<g id="node8" class="node"><title>Target</title>
<ellipse fill="lightblue" stroke="black" cx="239.749" cy="-113.782" rx="28.0702" ry="28.0702"/>
<text text-anchor="middle" x="239.749" y="-111.582" font-family="Times New Roman,serif" font-size="9.00">Target</text>
</g>
<!-- t&#45;6&#45;&gt;Target -->
<g id="edge1" class="edge"><title>t&#45;6&#45;&gt;Target</title>
<path fill="none" stroke="green" stroke-width="0.394957" stroke-dasharray="1,5" d="M111.761,-193.783C133.354,-180.454 177.212,-153.383 207.523,-134.673"/>
<polygon fill="green" stroke="green" stroke-width="0.394957" points="209.398,-137.629 216.069,-129.398 205.721,-131.672 209.398,-137.629"/>
</g>
<!-- 4976 -->
<g id="node11" class="node"><title>4976</title>
<ellipse fill="white" stroke="black" cx="24.7487" cy="-113.782" rx="25" ry="25"/>
<text text-anchor="middle" x="24.7487" y="-111.582" font-family="Times New Roman,serif" font-size="9.00">4976</text>
</g>
<!-- t&#45;6&#45;&gt;4976 -->
<g id="edge13" class="edge"><title>t&#45;6&#45;&gt;4976</title>
<path fill="none" stroke="green" stroke-width="0.386448" d="M91.9196,-193.783C81.8045,-181.886 62.3809,-159.042 47.0121,-140.966"/>
<polygon fill="green" stroke="green" stroke-width="0.386448" points="49.4282,-138.405 40.2841,-133.053 44.0953,-142.939 49.4282,-138.405"/>
</g>
<!-- 1140 -->
<g id="node13" class="node"><title>1140</title>
<ellipse fill="white" stroke="black" cx="130.749" cy="-113.782" rx="25" ry="25"/>
<text text-anchor="middle" x="130.749" y="-111.582" font-family="Times New Roman,serif" font-size="9.00">1140</text>
</g>
<!-- t&#45;6&#45;&gt;1140 -->
<g id="edge6" class="edge"><title>t&#45;6&#45;&gt;1140</title>
<path fill="none" stroke="red" stroke-width="0.157745" stroke-dasharray="1,5" d="M101.702,-193.783C105.608,-183.159 112.724,-163.805 118.935,-146.913"/>
<polygon fill="red" stroke="red" stroke-width="0.157745" points="122.29,-147.93 122.456,-137.336 115.72,-145.514 122.29,-147.93"/>
</g>
<!-- 2527 -->
<g id="node16" class="node"><title>2527</title>
<ellipse fill="white" stroke="black" cx="50.7487" cy="-24.7487" rx="25" ry="25"/>
<text text-anchor="middle" x="50.7487" y="-22.5487" font-family="Times New Roman,serif" font-size="9.00">2527</text>
</g>
<!-- t&#45;6&#45;&gt;2527 -->
<g id="edge12" class="edge"><title>t&#45;6&#45;&gt;2527</title>
<path fill="none" stroke="green" stroke-width="0.33058" stroke-dasharray="1,5" d="M96.5615,-193.792C90.1401,-170.238 71.0769,-100.313 59.665,-58.4541"/>
<polygon fill="green" stroke="green" stroke-width="0.33058" points="63.0168,-57.4413 57.0097,-48.7141 56.2632,-59.2826 63.0168,-57.4413"/>
</g>
<!-- t&#45;5 -->
<g id="node3" class="node"><title>t&#45;5</title>
<polygon fill="lightgray" stroke="black" points="178.249,-211.815 151.249,-211.815 151.249,-193.815 178.249,-193.815 178.249,-211.815"/>
<text text-anchor="middle" x="164.749" y="-200.615" font-family="Times New Roman,serif" font-size="9.00">t&#45;5</text>
</g>
<!-- t&#45;5&#45;&gt;Target -->
<g id="edge2" class="edge"><title>t&#45;5&#45;&gt;Target</title>
<path fill="none" stroke="red" stroke-width="0.101087" d="M171.67,-193.783C181.419,-182.47 199.698,-161.258 214.863,-143.66"/>
<polygon fill="red" stroke="red" stroke-width="0.101087" points="217.693,-145.738 221.569,-135.878 212.39,-141.168 217.693,-145.738"/>
</g>
<!-- 1225 -->
<g id="node9" class="node"><title>1225</title>
<ellipse fill="white" stroke="black" cx="299.749" cy="-24.7487" rx="25" ry="25"/>
<text text-anchor="middle" x="299.749" y="-22.5487" font-family="Times New Roman,serif" font-size="9.00">1225</text>
</g>
<!-- t&#45;5&#45;&gt;1225 -->
<g id="edge8" class="edge"><title>t&#45;5&#45;&gt;1225</title>
<path fill="none" stroke="red" stroke-width="0.260523" d="M165.496,-193.581C167.723,-173.19 175.93,-119.541 202.749,-85.4975 219.625,-64.0749 246.461,-48.3962 267.633,-38.4885"/>
<polygon fill="red" stroke="red" stroke-width="0.260523" points="269.205,-41.6194 276.905,-34.3425 266.348,-35.2291 269.205,-41.6194"/>
</g>
<!-- t&#45;4 -->
<g id="node4" class="node"><title>t&#45;4</title>
<polygon fill="lightgray" stroke="black" points="223.249,-211.815 196.249,-211.815 196.249,-193.815 223.249,-193.815 223.249,-211.815"/>
<text text-anchor="middle" x="209.749" y="-200.615" font-family="Times New Roman,serif" font-size="9.00">t&#45;4</text>
</g>
<!-- t&#45;4&#45;&gt;Target -->
<g id="edge3" class="edge"><title>t&#45;4&#45;&gt;Target</title>
<path fill="none" stroke="green" stroke-width="0.229963" stroke-dasharray="1,5" d="M212.517,-193.783C215.929,-183.886 221.952,-166.412 227.468,-150.41"/>
<polygon fill="green" stroke="green" stroke-width="0.229963" points="230.859,-151.312 230.809,-140.718 224.241,-149.031 230.859,-151.312"/>
</g>
<!-- t&#45;3 -->
<g id="node5" class="node"><title>t&#45;3</title>
<polygon fill="lightgray" stroke="black" points="313.249,-122.782 286.249,-122.782 286.249,-104.782 313.249,-104.782 313.249,-122.782"/>
<text text-anchor="middle" x="299.749" y="-111.582" font-family="Times New Roman,serif" font-size="9.00">t&#45;3</text>
</g>
<!-- t&#45;3&#45;&gt;1225 -->
<g id="edge19" class="edge"><title>t&#45;3&#45;&gt;1225</title>
<path fill="none" stroke="red" stroke-width="0.34076" d="M299.749,-104.75C299.749,-94.601 299.749,-76.4846 299.749,-60.1584"/>
<polygon fill="red" stroke="red" stroke-width="0.34076" points="303.249,-59.7901 299.749,-49.7901 296.249,-59.7902 303.249,-59.7901"/>
</g>
<!-- t&#45;2 -->
<g id="node6" class="node"><title>t&#45;2</title>
<polygon fill="lightgray" stroke="black" points="268.249,-211.815 241.249,-211.815 241.249,-193.815 268.249,-193.815 268.249,-211.815"/>
<text text-anchor="middle" x="254.749" y="-200.615" font-family="Times New Roman,serif" font-size="9.00">t&#45;2</text>
</g>
<!-- t&#45;2&#45;&gt;Target -->
<g id="edge4" class="edge"><title>t&#45;2&#45;&gt;Target</title>
<path fill="none" stroke="green" stroke-width="0.264284" stroke-dasharray="1,5" d="M253.364,-193.783C251.711,-184.186 248.829,-167.466 246.141,-151.871"/>
<polygon fill="green" stroke="green" stroke-width="0.264284" points="249.565,-151.132 244.418,-141.872 242.667,-152.321 249.565,-151.132"/>
</g>
<!-- t&#45;1 -->
<g id="node7" class="node"><title>t&#45;1</title>
<polygon fill="lightgray" stroke="black" points="313.249,-211.815 286.249,-211.815 286.249,-193.815 313.249,-193.815 313.249,-211.815"/>
<text text-anchor="middle" x="299.749" y="-200.615" font-family="Times New Roman,serif" font-size="9.00">t&#45;1</text>
</g>
<!-- t&#45;1&#45;&gt;Target -->
<g id="edge5" class="edge"><title>t&#45;1&#45;&gt;Target</title>
<path fill="none" stroke="green" stroke-width="0.298511" d="M294.212,-193.783C286.8,-183.032 273.226,-163.342 261.483,-146.309"/>
<polygon fill="green" stroke="green" stroke-width="0.298511" points="264.11,-143.952 255.552,-137.706 258.347,-147.925 264.11,-143.952"/>
</g>
<!-- 1738 -->
<g id="node10" class="node"><title>1738</title>
<ellipse fill="white" stroke="black" cx="394.749" cy="-113.782" rx="25" ry="25"/>
<text text-anchor="middle" x="394.749" y="-111.582" font-family="Times New Roman,serif" font-size="9.00">1738</text>
</g>
<!-- 1738&#45;&gt;1225 -->
<g id="edge11" class="edge"><title>1738&#45;&gt;1225</title>
<path fill="none" stroke="red" stroke-width="0.124842" stroke-dasharray="1,5" d="M376.88,-96.4115C362.284,-83.0395 341.473,-63.9736 325.145,-49.0156"/>
<polygon fill="red" stroke="red" stroke-width="0.124842" points="327.275,-46.22 317.537,-42.0456 322.547,-51.3815 327.275,-46.22"/>
</g>
<!-- 4976&#45;&gt;2527 -->
<g id="edge14" class="edge"><title>4976&#45;&gt;2527</title>
<path fill="none" stroke="red" stroke-width="0.111637" d="M31.5799,-89.9148C34.4532,-80.2969 37.8498,-68.927 40.9796,-58.45"/>
<polygon fill="red" stroke="red" stroke-width="0.111637" points="44.364,-59.3485 43.8729,-48.7651 37.6569,-57.3448 44.364,-59.3485"/>
</g>
<!-- 5586 -->
<g id="node12" class="node"><title>5586</title>
<ellipse fill="white" stroke="black" cx="432.749" cy="-202.815" rx="25" ry="25"/>
<text text-anchor="middle" x="432.749" y="-200.615" font-family="Times New Roman,serif" font-size="9.00">5586</text>
</g>
<!-- 5586&#45;&gt;1738 -->
<g id="edge16" class="edge"><title>5586&#45;&gt;1738</title>
<path fill="none" stroke="red" stroke-width="0.774193" d="M423.16,-179.853C418.704,-169.648 413.325,-157.328 408.452,-146.166"/>
<polygon fill="red" stroke="red" stroke-width="0.774193" points="411.544,-144.501 404.335,-136.737 405.129,-147.302 411.544,-144.501"/>
</g>
<!-- 1140&#45;&gt;1225 -->
<g id="edge7" class="edge"><title>1140&#45;&gt;1225</title>
<path fill="none" stroke="red" stroke-width="0.551555" stroke-dasharray="1,5" d="M150.139,-98.192C156.262,-93.8664 163.154,-89.2791 169.749,-85.4975 201.99,-67.0102 240.952,-49.7229 267.765,-38.5482"/>
<polygon fill="red" stroke="red" stroke-width="0.551555" points="269.147,-41.7641 277.059,-34.7169 266.479,-35.2925 269.147,-41.7641"/>
</g>
<!-- 1685 -->
<g id="node14" class="node"><title>1685</title>
<ellipse fill="white" stroke="black" cx="398.749" cy="-373.81" rx="25" ry="25"/>
<text text-anchor="middle" x="398.749" y="-371.61" font-family="Times New Roman,serif" font-size="9.00">1685</text>
</g>
<!-- 1685&#45;&gt;1225 -->
<g id="edge9" class="edge"><title>1685&#45;&gt;1225</title>
<path fill="none" stroke="green" stroke-width="0.466898" stroke-dasharray="1,5" d="M393.268,-349.513C381.532,-300.333 352.524,-182.463 321.749,-85.4975 318.826,-76.29 315.336,-66.4062 312.005,-57.3807"/>
<polygon fill="green" stroke="green" stroke-width="0.466898" points="315.275,-56.1323 308.488,-47.9965 308.72,-58.5888 315.275,-56.1323"/>
</g>
<!-- 1685&#45;&gt;1738 -->
<g id="edge10" class="edge"><title>1685&#45;&gt;1738</title>
<path fill="none" stroke="red" stroke-width="0.770908" d="M398.38,-348.998C397.667,-303.01 396.098,-201.844 395.276,-148.784"/>
<polygon fill="red" stroke="red" stroke-width="0.770908" points="398.772,-148.481 395.117,-138.536 391.773,-148.589 398.772,-148.481"/>
</g>
<!-- 1685&#45;&gt;5586 -->
<g id="edge15" class="edge"><title>1685&#45;&gt;5586</title>
<path fill="none" stroke="red" stroke-width="0.173237" d="M403.476,-349.312C409.321,-320.26 419.311,-270.608 425.971,-237.504"/>
<polygon fill="red" stroke="red" stroke-width="0.173237" points="429.465,-237.879 428.007,-227.385 422.603,-236.498 429.465,-237.879"/>
</g>
<!-- 6618 -->
<g id="node15" class="node"><title>6618</title>
<ellipse fill="white" stroke="black" cx="470.749" cy="-288.312" rx="25" ry="25"/>
<text text-anchor="middle" x="470.749" y="-286.112" font-family="Times New Roman,serif" font-size="9.00">6618</text>
</g>
<!-- 1685&#45;&gt;6618 -->
<g id="edge17" class="edge"><title>1685&#45;&gt;6618</title>
<path fill="none" stroke="green" stroke-width="0.285494" d="M414.728,-354.279C424.584,-342.849 437.375,-328.016 448.246,-315.409"/>
<polygon fill="green" stroke="green" stroke-width="0.285494" points="451.182,-317.363 455.062,-307.504 445.881,-312.792 451.182,-317.363"/>
</g>
<!-- 6618&#45;&gt;5586 -->
<g id="edge18" class="edge"><title>6618&#45;&gt;5586</title>
<path fill="none" stroke="green" stroke-width="0.129326" d="M460.765,-265.374C456.532,-256.074 451.522,-245.066 446.918,-234.948"/>
<polygon fill="green" stroke="green" stroke-width="0.129326" points="449.994,-233.258 442.666,-225.606 443.623,-236.158 449.994,-233.258"/>
</g>
</g>
</svg>
