<?xml version="1.0" encoding="UTF-8" standalone="no"?>
<!DOCTYPE svg PUBLIC "-//W3C//DTD SVG 1.1//EN"
 "http://www.w3.org/Graphics/SVG/1.1/DTD/svg11.dtd">
<!-- Generated by graphviz version 2.42.3 (20191010.1750)
 -->
<!-- Title: %3 Pages: 1 -->
<svg width="870pt" height="639pt"
 viewBox="0.00 0.00 869.75 638.57" xmlns="http://www.w3.org/2000/svg" xmlns:xlink="http://www.w3.org/1999/xlink">
<g id="graph0" class="graph" transform="scale(1 1) rotate(0) translate(4 634.57)">
<title>%3</title>
<polygon fill="white" stroke="transparent" points="-4,4 -4,-634.57 865.75,-634.57 865.75,4 -4,4"/>
<!-- &#45;1 -->
<g id="node1" class="node">
<title>&#45;1</title>
<polygon fill="lightgray" stroke="black" points="215,-630.57 191,-630.57 191,-613.57 215,-613.57 215,-630.57"/>
<text text-anchor="middle" x="203" y="-619.37" font-family="Times,serif" font-size="9.00">&#45;1</text>
</g>
<!-- 0 -->
<g id="node8" class="node">
<title>0</title>
<ellipse fill="lightblue" stroke="black" cx="510" cy="-14.5" rx="14.49" ry="14.49"/>
<text text-anchor="middle" x="510" y="-11.8" font-family="Times,serif" font-size="9.00">0</text>
</g>
<!-- &#45;1&#45;&gt;0 -->
<g id="edge1" class="edge">
<title>&#45;1&#45;&gt;0</title>
<path fill="none" stroke="red" stroke-width="0.31" stroke-dasharray="1,5" d="M191.05,-620.82C163.66,-619.61 95.54,-612.99 55,-577.57 9.9,-538.16 0,-514.43 0,-454.54 0,-454.54 0,-454.54 0,-181.66 0,-88.92 86.52,-98.49 173,-64.99 283.63,-22.14 427.84,-16.05 485.05,-15.43"/>
<polygon fill="red" stroke="red" stroke-width="0.31" points="485.31,-18.92 495.29,-15.36 485.27,-11.92 485.31,-18.92"/>
</g>
<!-- 15595 -->
<g id="node16" class="node">
<title>15595</title>
<ellipse fill="white" stroke="black" cx="203" cy="-547.17" rx="27.45" ry="27.45"/>
<text text-anchor="middle" x="203" y="-544.47" font-family="Times,serif" font-size="9.00">15595</text>
</g>
<!-- &#45;1&#45;&gt;15595 -->
<g id="edge37" class="edge">
<title>&#45;1&#45;&gt;15595</title>
<path fill="none" stroke="red" stroke-width="0.28" d="M203,-613.54C203,-606.6 203,-595.74 203,-584.85"/>
<polygon fill="red" stroke="red" stroke-width="0.28" points="206.5,-584.53 203,-574.53 199.5,-584.53 206.5,-584.53"/>
</g>
<!-- 9773 -->
<g id="node17" class="node">
<title>9773</title>
<ellipse fill="white" stroke="black" cx="417" cy="-182.66" rx="24.08" ry="24.08"/>
<text text-anchor="middle" x="417" y="-179.96" font-family="Times,serif" font-size="9.00">9773</text>
</g>
<!-- &#45;1&#45;&gt;9773 -->
<g id="edge20" class="edge">
<title>&#45;1&#45;&gt;9773</title>
<path fill="none" stroke="green" stroke-width="0.26" d="M211.25,-613.29C234.01,-590.95 296,-523.75 296,-454.54 296,-454.54 296,-454.54 296,-362.32 296,-309.89 285.72,-289.39 315,-245.89 331.62,-221.19 361.66,-204.63 384.85,-194.84"/>
<polygon fill="green" stroke="green" stroke-width="0.26" points="386.32,-198.02 394.31,-191.06 383.72,-191.52 386.32,-198.02"/>
</g>
<!-- &#45;2 -->
<g id="node2" class="node">
<title>&#45;2</title>
<polygon fill="lightgray" stroke="black" points="482,-100.71 458,-100.71 458,-83.71 482,-83.71 482,-100.71"/>
<text text-anchor="middle" x="470" y="-89.51" font-family="Times,serif" font-size="9.00">&#45;2</text>
</g>
<!-- &#45;2&#45;&gt;0 -->
<g id="edge2" class="edge">
<title>&#45;2&#45;&gt;0</title>
<path fill="none" stroke="green" stroke-width="0.21" d="M473.98,-83.68C479.71,-72.84 490.49,-52.42 498.78,-36.74"/>
<polygon fill="green" stroke="green" stroke-width="0.21" points="501.97,-38.2 503.54,-27.72 495.78,-34.93 501.97,-38.2"/>
</g>
<!-- &#45;3 -->
<g id="node3" class="node">
<title>&#45;3</title>
<polygon fill="lightgray" stroke="black" points="484,-371.82 460,-371.82 460,-354.82 484,-354.82 484,-371.82"/>
<text text-anchor="middle" x="472" y="-360.62" font-family="Times,serif" font-size="9.00">&#45;3</text>
</g>
<!-- &#45;3&#45;&gt;0 -->
<g id="edge3" class="edge">
<title>&#45;3&#45;&gt;0</title>
<path fill="none" stroke="red" stroke-width="0.56" stroke-dasharray="1,5" d="M472.83,-354.76C477.41,-312.91 499.73,-109.2 507.4,-39.18"/>
<polygon fill="red" stroke="red" stroke-width="0.56" points="510.9,-39.46 508.51,-29.14 503.94,-38.7 510.9,-39.46"/>
</g>
<!-- 15619 -->
<g id="node13" class="node">
<title>15619</title>
<ellipse fill="white" stroke="black" cx="586" cy="-182.66" rx="27.45" ry="27.45"/>
<text text-anchor="middle" x="586" y="-179.96" font-family="Times,serif" font-size="9.00">15619</text>
</g>
<!-- &#45;3&#45;&gt;15619 -->
<g id="edge27" class="edge">
<title>&#45;3&#45;&gt;15619</title>
<path fill="none" stroke="red" stroke-width="0.21" d="M484.02,-360.76C510.69,-356.57 574.54,-342.4 601,-300.33 616.65,-275.46 609.96,-241.68 601.11,-216.87"/>
<polygon fill="red" stroke="red" stroke-width="0.21" points="604.37,-215.59 597.52,-207.51 597.83,-218.1 604.37,-215.59"/>
</g>
<!-- 17403 -->
<g id="node14" class="node">
<title>17403</title>
<ellipse fill="white" stroke="black" cx="417" cy="-273.11" rx="27.45" ry="27.45"/>
<text text-anchor="middle" x="417" y="-270.41" font-family="Times,serif" font-size="9.00">17403</text>
</g>
<!-- &#45;3&#45;&gt;17403 -->
<g id="edge40" class="edge">
<title>&#45;3&#45;&gt;17403</title>
<path fill="none" stroke="red" stroke-width="0.32" d="M467.31,-354.8C460.54,-343.95 447.63,-323.24 436.58,-305.52"/>
<polygon fill="red" stroke="red" stroke-width="0.32" points="439.28,-303.23 431.02,-296.59 433.34,-306.93 439.28,-303.23"/>
</g>
<!-- &#45;3&#45;&gt;9773 -->
<g id="edge26" class="edge">
<title>&#45;3&#45;&gt;9773</title>
<path fill="none" stroke="green" stroke-width="0.31" stroke-dasharray="1,5" d="M471.71,-354.73C470.78,-335.81 467.06,-285.23 453,-245.89 448.75,-233.98 442.22,-221.75 435.89,-211.32"/>
<polygon fill="green" stroke="green" stroke-width="0.31" points="438.73,-209.26 430.43,-202.67 432.81,-212.99 438.73,-209.26"/>
</g>
<!-- 3631 -->
<g id="node19" class="node">
<title>3631</title>
<ellipse fill="white" stroke="black" cx="348" cy="-273.11" rx="24.08" ry="24.08"/>
<text text-anchor="middle" x="348" y="-270.41" font-family="Times,serif" font-size="9.00">3631</text>
</g>
<!-- &#45;3&#45;&gt;3631 -->
<g id="edge23" class="edge">
<title>&#45;3&#45;&gt;3631</title>
<path fill="none" stroke="red" stroke-width="0.38" d="M460.32,-354.76C442.81,-343.34 408.86,-320.85 381,-300.33 378.89,-298.78 376.72,-297.14 374.55,-295.48"/>
<polygon fill="red" stroke="red" stroke-width="0.38" points="376.35,-292.45 366.32,-289.05 372.04,-297.97 376.35,-292.45"/>
</g>
<!-- &#45;4 -->
<g id="node4" class="node">
<title>&#45;4</title>
<polygon fill="lightgray" stroke="black" points="478,-630.57 454,-630.57 454,-613.57 478,-613.57 478,-630.57"/>
<text text-anchor="middle" x="466" y="-619.37" font-family="Times,serif" font-size="9.00">&#45;4</text>
</g>
<!-- &#45;4&#45;&gt;0 -->
<g id="edge4" class="edge">
<title>&#45;4&#45;&gt;0</title>
<path fill="none" stroke="green" stroke-width="0.73" stroke-dasharray="1,5" d="M473.41,-613.43C500.76,-585.04 598.16,-482.58 669,-390.31 698.27,-352.19 709.24,-344.15 729,-300.33 746.1,-262.42 747.62,-251.13 753,-209.89 761.77,-142.62 758.35,-106.89 705,-64.99 654.15,-25.06 574.89,-17 534.89,-15.59"/>
<polygon fill="green" stroke="green" stroke-width="0.73" points="534.78,-12.09 524.7,-15.35 534.62,-19.09 534.78,-12.09"/>
</g>
<!-- 9668 -->
<g id="node12" class="node">
<title>9668</title>
<ellipse fill="white" stroke="black" cx="131" cy="-182.66" rx="24.08" ry="24.08"/>
<text text-anchor="middle" x="131" y="-179.96" font-family="Times,serif" font-size="9.00">9668</text>
</g>
<!-- &#45;4&#45;&gt;9668 -->
<g id="edge9" class="edge">
<title>&#45;4&#45;&gt;9668</title>
<path fill="none" stroke="green" stroke-width="0.8" d="M454.02,-620.3C404.92,-616.99 219.23,-603 167,-577.57 95.77,-542.89 38,-533.77 38,-454.54 38,-454.54 38,-454.54 38,-362.32 38,-301.72 80.62,-241.29 108.16,-208.57"/>
<polygon fill="green" stroke="green" stroke-width="0.8" points="110.92,-210.73 114.8,-200.87 105.62,-206.16 110.92,-210.73"/>
</g>
<!-- &#45;4&#45;&gt;15595 -->
<g id="edge24" class="edge">
<title>&#45;4&#45;&gt;15595</title>
<path fill="none" stroke="green" stroke-width="0.16" stroke-dasharray="1,5" d="M453.92,-620.5C419.64,-618.52 319.35,-610.13 244,-577.57 240.02,-575.85 236.05,-573.7 232.22,-571.34"/>
<polygon fill="green" stroke="green" stroke-width="0.16" points="233.91,-568.26 223.65,-565.59 230,-574.07 233.91,-568.26"/>
</g>
<!-- &#45;4&#45;&gt;3631 -->
<g id="edge8" class="edge">
<title>&#45;4&#45;&gt;3631</title>
<path fill="none" stroke="red" stroke-width="0.17" d="M463.43,-613.5C449.68,-573.1 384.64,-381.84 358.71,-305.6"/>
<polygon fill="red" stroke="red" stroke-width="0.17" points="361.99,-304.39 355.46,-296.05 355.37,-306.64 361.99,-304.39"/>
</g>
<!-- 10229 -->
<g id="node21" class="node">
<title>10229</title>
<ellipse fill="white" stroke="black" cx="685" cy="-453.54" rx="27.45" ry="27.45"/>
<text text-anchor="middle" x="685" y="-450.84" font-family="Times,serif" font-size="9.00">10229</text>
</g>
<!-- &#45;4&#45;&gt;10229 -->
<g id="edge13" class="edge">
<title>&#45;4&#45;&gt;10229</title>
<path fill="none" stroke="red" stroke-width="0.11" stroke-dasharray="1,5" d="M477.88,-620.53C519.02,-618.4 654.38,-609.05 681,-577.57 701.19,-553.69 699.61,-516.92 694.55,-489.79"/>
<polygon fill="red" stroke="red" stroke-width="0.11" points="697.95,-488.98 692.47,-479.92 691.1,-490.42 697.95,-488.98"/>
</g>
<!-- 10807 -->
<g id="node22" class="node">
<title>10807</title>
<ellipse fill="white" stroke="black" cx="755" cy="-547.17" rx="27.45" ry="27.45"/>
<text text-anchor="middle" x="755" y="-544.47" font-family="Times,serif" font-size="9.00">10807</text>
</g>
<!-- &#45;4&#45;&gt;10807 -->
<g id="edge14" class="edge">
<title>&#45;4&#45;&gt;10807</title>
<path fill="none" stroke="red" stroke-width="0.1" d="M477.89,-620.84C514.56,-619.75 628.57,-613.48 714,-577.57 718,-575.89 721.98,-573.76 725.81,-571.42"/>
<polygon fill="red" stroke="red" stroke-width="0.1" points="728.02,-574.15 734.38,-565.68 724.13,-568.33 728.02,-574.15"/>
</g>
<!-- 120217 -->
<g id="node24" class="node">
<title>120217</title>
<ellipse fill="white" stroke="black" cx="642" cy="-547.17" rx="30.31" ry="30.31"/>
<text text-anchor="middle" x="642" y="-544.47" font-family="Times,serif" font-size="9.00">120217</text>
</g>
<!-- &#45;4&#45;&gt;120217 -->
<g id="edge43" class="edge">
<title>&#45;4&#45;&gt;120217</title>
<path fill="none" stroke="green" stroke-width="0.56" d="M478.07,-618.26C501.82,-612.49 555.93,-598.09 598,-577.57 601.61,-575.81 605.28,-573.79 608.87,-571.66"/>
<polygon fill="green" stroke="green" stroke-width="0.56" points="610.97,-574.47 617.57,-566.18 607.24,-568.54 610.97,-574.47"/>
</g>
<!-- 11291 -->
<g id="node25" class="node">
<title>11291</title>
<ellipse fill="white" stroke="black" cx="203" cy="-363.32" rx="26.98" ry="26.98"/>
<text text-anchor="middle" x="203" y="-360.62" font-family="Times,serif" font-size="9.00">11291</text>
</g>
<!-- &#45;4&#45;&gt;11291 -->
<g id="edge15" class="edge">
<title>&#45;4&#45;&gt;11291</title>
<path fill="none" stroke="green" stroke-width="0.55" d="M453.99,-617.18C435.8,-610.89 400.76,-597.18 376,-577.57 308.72,-524.3 250.53,-440.52 221.9,-395.46"/>
<polygon fill="green" stroke="green" stroke-width="0.55" points="224.86,-393.59 216.58,-386.99 218.93,-397.32 224.86,-393.59"/>
</g>
<!-- &#45;5 -->
<g id="node5" class="node">
<title>&#45;5</title>
<polygon fill="lightgray" stroke="black" points="862,-100.71 838,-100.71 838,-83.71 862,-83.71 862,-100.71"/>
<text text-anchor="middle" x="850" y="-89.51" font-family="Times,serif" font-size="9.00">&#45;5</text>
</g>
<!-- &#45;5&#45;&gt;0 -->
<g id="edge5" class="edge">
<title>&#45;5&#45;&gt;0</title>
<path fill="none" stroke="red" stroke-width="0.11" d="M844.53,-83.46C839.82,-77.4 832.45,-69.31 824,-64.99 773.15,-38.97 599.2,-22.66 534.5,-17.38"/>
<polygon fill="red" stroke="red" stroke-width="0.11" points="534.66,-13.88 524.41,-16.57 534.1,-20.86 534.66,-13.88"/>
</g>
<!-- &#45;6 -->
<g id="node6" class="node">
<title>&#45;6</title>
<polygon fill="lightgray" stroke="black" points="660,-371.82 636,-371.82 636,-354.82 660,-354.82 660,-371.82"/>
<text text-anchor="middle" x="648" y="-360.62" font-family="Times,serif" font-size="9.00">&#45;6</text>
</g>
<!-- &#45;6&#45;&gt;0 -->
<g id="edge6" class="edge">
<title>&#45;6&#45;&gt;0</title>
<path fill="none" stroke="green" stroke-width="0.51" stroke-dasharray="1,5" d="M648.32,-354.5C649.18,-326.46 649.89,-228.87 622,-155.44 602.16,-103.2 555.05,-55.39 528.68,-31.5"/>
<polygon fill="green" stroke="green" stroke-width="0.51" points="530.72,-28.63 520.91,-24.61 526.07,-33.86 530.72,-28.63"/>
</g>
<!-- &#45;6&#45;&gt;9773 -->
<g id="edge12" class="edge">
<title>&#45;6&#45;&gt;9773</title>
<path fill="none" stroke="red" stroke-width="1.1" stroke-dasharray="1,5" d="M647.1,-354.56C644.29,-333.87 633.81,-276.86 601,-245.89 559.27,-206.49 491.71,-191.97 451.1,-186.67"/>
<polygon fill="red" stroke="red" stroke-width="1.1" points="451.48,-183.19 441.14,-185.48 450.66,-190.14 451.48,-183.19"/>
</g>
<!-- 15981 -->
<g id="node18" class="node">
<title>15981</title>
<ellipse fill="white" stroke="black" cx="565" cy="-273.11" rx="27.45" ry="27.45"/>
<text text-anchor="middle" x="565" y="-270.41" font-family="Times,serif" font-size="9.00">15981</text>
</g>
<!-- &#45;6&#45;&gt;15981 -->
<g id="edge38" class="edge">
<title>&#45;6&#45;&gt;15981</title>
<path fill="none" stroke="red" stroke-width="0.28" d="M640.92,-354.8C629.88,-343.06 608,-319.81 590.55,-301.27"/>
<polygon fill="red" stroke="red" stroke-width="0.28" points="592.79,-298.54 583.39,-293.66 587.69,-303.34 592.79,-298.54"/>
</g>
<!-- 15739 -->
<g id="node20" class="node">
<title>15739</title>
<ellipse fill="white" stroke="black" cx="717" cy="-182.66" rx="27.45" ry="27.45"/>
<text text-anchor="middle" x="717" y="-179.96" font-family="Times,serif" font-size="9.00">15739</text>
</g>
<!-- &#45;6&#45;&gt;15739 -->
<g id="edge33" class="edge">
<title>&#45;6&#45;&gt;15739</title>
<path fill="none" stroke="green" stroke-width="0.84" d="M659.66,-354.75C674.4,-344.44 699.14,-324.49 710,-300.33 721.31,-275.19 722.59,-243.86 721.29,-220"/>
<polygon fill="green" stroke="green" stroke-width="0.84" points="724.78,-219.67 720.57,-209.95 717.8,-220.17 724.78,-219.67"/>
</g>
<!-- &#45;7 -->
<g id="node7" class="node">
<title>&#45;7</title>
<polygon fill="lightgray" stroke="black" points="794,-630.57 770,-630.57 770,-613.57 794,-613.57 794,-630.57"/>
<text text-anchor="middle" x="782" y="-619.37" font-family="Times,serif" font-size="9.00">&#45;7</text>
</g>
<!-- &#45;7&#45;&gt;0 -->
<g id="edge7" class="edge">
<title>&#45;7&#45;&gt;0</title>
<path fill="none" stroke="red" stroke-width="0.3" d="M784.2,-613.51C790.8,-590.11 810,-516.69 810,-454.54 810,-454.54 810,-454.54 810,-181.66 810,-121.42 789.89,-100.19 741,-64.99 677.34,-19.17 579.89,-14.19 534.65,-14.6"/>
<polygon fill="red" stroke="red" stroke-width="0.3" points="534.51,-11.1 524.58,-14.79 534.64,-18.1 534.51,-11.1"/>
</g>
<!-- &#45;7&#45;&gt;10807 -->
<g id="edge42" class="edge">
<title>&#45;7&#45;&gt;10807</title>
<path fill="none" stroke="green" stroke-width="0.61" d="M779.21,-613.54C776.45,-606.1 772.03,-594.16 767.72,-582.5"/>
<polygon fill="green" stroke="green" stroke-width="0.61" points="770.91,-581.05 764.16,-572.89 764.35,-583.48 770.91,-581.05"/>
</g>
<!-- 15649 -->
<g id="node9" class="node">
<title>15649</title>
<ellipse fill="white" stroke="black" cx="274" cy="-92.21" rx="27.45" ry="27.45"/>
<text text-anchor="middle" x="274" y="-89.51" font-family="Times,serif" font-size="9.00">15649</text>
</g>
<!-- 15649&#45;&gt;0 -->
<g id="edge30" class="edge">
<title>15649&#45;&gt;0</title>
<path fill="none" stroke="red" stroke-width="0.1" d="M298.78,-80.53C310.81,-75.52 325.54,-69.64 339,-64.99 390.93,-47.05 453.19,-30.16 486.4,-21.51"/>
<polygon fill="red" stroke="red" stroke-width="0.1" points="487.3,-24.89 496.11,-19 485.55,-18.12 487.3,-24.89"/>
</g>
<!-- 15799 -->
<g id="node10" class="node">
<title>15799</title>
<ellipse fill="white" stroke="black" cx="203" cy="-453.54" rx="27.45" ry="27.45"/>
<text text-anchor="middle" x="203" y="-450.84" font-family="Times,serif" font-size="9.00">15799</text>
</g>
<!-- 15799&#45;&gt;11291 -->
<g id="edge36" class="edge">
<title>15799&#45;&gt;11291</title>
<path fill="none" stroke="green" stroke-width="0.16" d="M203,-426.07C203,-418.06 203,-409.12 203,-400.59"/>
<polygon fill="green" stroke="green" stroke-width="0.16" points="206.5,-400.47 203,-390.47 199.5,-400.47 206.5,-400.47"/>
</g>
<!-- 14211 -->
<g id="node11" class="node">
<title>14211</title>
<ellipse fill="white" stroke="black" cx="375" cy="-92.21" rx="26.98" ry="26.98"/>
<text text-anchor="middle" x="375" y="-89.51" font-family="Times,serif" font-size="9.00">14211</text>
</g>
<!-- 14211&#45;&gt;0 -->
<g id="edge22" class="edge">
<title>14211&#45;&gt;0</title>
<path fill="none" stroke="green" stroke-width="0.59" stroke-dasharray="1,5" d="M397.35,-76.44C403.34,-72.61 409.86,-68.56 416,-64.99 440.3,-50.86 468.99,-36.01 488.22,-26.3"/>
<polygon fill="green" stroke="green" stroke-width="0.59" points="489.98,-29.34 497.35,-21.73 486.84,-23.08 489.98,-29.34"/>
</g>
<!-- 9668&#45;&gt;0 -->
<g id="edge10" class="edge">
<title>9668&#45;&gt;0</title>
<path fill="none" stroke="red" stroke-width="0.15" stroke-dasharray="1,5" d="M143.41,-161.45C160.96,-134.74 195.65,-88.36 238,-64.99 320.04,-19.71 435.15,-14.71 485.17,-14.88"/>
<polygon fill="red" stroke="red" stroke-width="0.15" points="485.32,-18.39 495.36,-15 485.4,-11.39 485.32,-18.39"/>
</g>
<!-- 9668&#45;&gt;15649 -->
<g id="edge29" class="edge">
<title>9668&#45;&gt;15649</title>
<path fill="none" stroke="red" stroke-width="0.15" d="M151.19,-169.18C174.94,-154.48 214.68,-129.91 242.5,-112.7"/>
<polygon fill="red" stroke="red" stroke-width="0.15" points="244.42,-115.63 251.08,-107.39 240.73,-109.67 244.42,-115.63"/>
</g>
<!-- 15619&#45;&gt;0 -->
<g id="edge28" class="edge">
<title>15619&#45;&gt;0</title>
<path fill="none" stroke="red" stroke-width="0.38" d="M574.95,-157.5C560.16,-125.17 534.16,-68.33 519.96,-37.27"/>
<polygon fill="red" stroke="red" stroke-width="0.38" points="523.13,-35.79 515.79,-28.15 516.77,-38.7 523.13,-35.79"/>
</g>
<!-- 17403&#45;&gt;9773 -->
<g id="edge41" class="edge">
<title>17403&#45;&gt;9773</title>
<path fill="none" stroke="green" stroke-width="0.16" d="M417,-245.57C417,-236.63 417,-226.52 417,-217.11"/>
<polygon fill="green" stroke="green" stroke-width="0.16" points="420.5,-216.88 417,-206.88 413.5,-216.88 420.5,-216.88"/>
</g>
<!-- 13226 -->
<g id="node15" class="node">
<title>13226</title>
<ellipse fill="white" stroke="black" cx="131" cy="-273.11" rx="27.45" ry="27.45"/>
<text text-anchor="middle" x="131" y="-270.41" font-family="Times,serif" font-size="9.00">13226</text>
</g>
<!-- 13226&#45;&gt;9668 -->
<g id="edge18" class="edge">
<title>13226&#45;&gt;9668</title>
<path fill="none" stroke="green" stroke-width="0.3" d="M131,-245.57C131,-236.63 131,-226.52 131,-217.11"/>
<polygon fill="green" stroke="green" stroke-width="0.3" points="134.5,-216.88 131,-206.88 127.5,-216.88 134.5,-216.88"/>
</g>
<!-- 15595&#45;&gt;15799 -->
<g id="edge35" class="edge">
<title>15595&#45;&gt;15799</title>
<path fill="none" stroke="green" stroke-width="0.2" d="M203,-519.66C203,-510.74 203,-500.61 203,-491.05"/>
<polygon fill="green" stroke="green" stroke-width="0.2" points="206.5,-490.98 203,-480.98 199.5,-490.98 206.5,-490.98"/>
</g>
<!-- 15595&#45;&gt;11291 -->
<g id="edge25" class="edge">
<title>15595&#45;&gt;11291</title>
<path fill="none" stroke="red" stroke-width="0.44" stroke-dasharray="1,5" d="M187.54,-524.64C179.71,-512.41 171.03,-496.45 167,-480.76 160.98,-457.32 160.71,-449.68 167,-426.31 170.02,-415.09 175.63,-403.8 181.54,-393.99"/>
<polygon fill="red" stroke="red" stroke-width="0.44" points="184.56,-395.76 186.98,-385.45 178.66,-392 184.56,-395.76"/>
</g>
<!-- 9773&#45;&gt;0 -->
<g id="edge11" class="edge">
<title>9773&#45;&gt;0</title>
<path fill="none" stroke="red" stroke-width="0.41" stroke-dasharray="1,5" d="M419.13,-158.46C422.33,-133.6 430.17,-93.83 449,-64.99 459.12,-49.5 475.65,-36.52 488.95,-27.75"/>
<polygon fill="red" stroke="red" stroke-width="0.41" points="490.91,-30.65 497.52,-22.37 487.19,-24.72 490.91,-30.65"/>
</g>
<!-- 9773&#45;&gt;14211 -->
<g id="edge21" class="edge">
<title>9773&#45;&gt;14211</title>
<path fill="none" stroke="red" stroke-width="0.37" d="M407.05,-160.7C402.16,-150.4 396.15,-137.76 390.66,-126.2"/>
<polygon fill="red" stroke="red" stroke-width="0.37" points="393.67,-124.36 386.21,-116.83 387.34,-127.37 393.67,-124.36"/>
</g>
<!-- 15981&#45;&gt;9773 -->
<g id="edge39" class="edge">
<title>15981&#45;&gt;9773</title>
<path fill="none" stroke="red" stroke-width="0.33" d="M541.88,-258.29C516.05,-242.86 474.21,-217.85 446.16,-201.09"/>
<polygon fill="red" stroke="red" stroke-width="0.33" points="447.96,-198.09 437.58,-195.96 444.37,-204.09 447.96,-198.09"/>
</g>
<!-- 15739&#45;&gt;0 -->
<g id="edge34" class="edge">
<title>15739&#45;&gt;0</title>
<path fill="none" stroke="red" stroke-width="0.71" d="M714.59,-155.24C710.79,-128.84 701.02,-88.84 676,-64.99 636.74,-27.58 570.41,-18.31 534.64,-16.11"/>
<polygon fill="red" stroke="red" stroke-width="0.71" points="534.74,-12.61 524.58,-15.62 534.4,-19.6 534.74,-12.61"/>
</g>
<!-- 15704 -->
<g id="node23" class="node">
<title>15704</title>
<ellipse fill="white" stroke="black" cx="203" cy="-273.11" rx="27.45" ry="27.45"/>
<text text-anchor="middle" x="203" y="-270.41" font-family="Times,serif" font-size="9.00">15704</text>
</g>
<!-- 15704&#45;&gt;9773 -->
<g id="edge32" class="edge">
<title>15704&#45;&gt;9773</title>
<path fill="none" stroke="red" stroke-width="0.15" d="M225.03,-256.75C231.03,-252.92 237.63,-249.02 244,-245.89 290.92,-222.8 348.64,-203.78 384.12,-193.08"/>
<polygon fill="red" stroke="red" stroke-width="0.15" points="385.36,-196.36 393.94,-190.15 383.36,-189.65 385.36,-196.36"/>
</g>
<!-- 120217&#45;&gt;10229 -->
<g id="edge44" class="edge">
<title>120217&#45;&gt;10229</title>
<path fill="none" stroke="green" stroke-width="0.63" d="M654.67,-519.17C659.3,-509.31 664.59,-498.04 669.44,-487.7"/>
<polygon fill="green" stroke="green" stroke-width="0.63" points="672.66,-489.08 673.74,-478.54 666.32,-486.1 672.66,-489.08"/>
</g>
<!-- 11291&#45;&gt;9668 -->
<g id="edge16" class="edge">
<title>11291&#45;&gt;9668</title>
<path fill="none" stroke="red" stroke-width="0.13" stroke-dasharray="1,5" d="M177.11,-355.65C151.14,-347.42 112.55,-330.64 95,-300.33 78.54,-271.91 95.2,-235.14 110.91,-210.55"/>
<polygon fill="red" stroke="red" stroke-width="0.13" points="113.93,-212.33 116.6,-202.08 108.12,-208.43 113.93,-212.33"/>
</g>
<!-- 11291&#45;&gt;13226 -->
<g id="edge17" class="edge">
<title>11291&#45;&gt;13226</title>
<path fill="none" stroke="red" stroke-width="0.57" d="M186.3,-341.86C176.83,-330.26 164.82,-315.55 154.42,-302.8"/>
<polygon fill="red" stroke="red" stroke-width="0.57" points="156.89,-300.3 147.86,-294.76 151.47,-304.72 156.89,-300.3"/>
</g>
<!-- 11291&#45;&gt;9773 -->
<g id="edge19" class="edge">
<title>11291&#45;&gt;9773</title>
<path fill="none" stroke="green" stroke-width="0.29" stroke-dasharray="1,5" d="M216.37,-339.64C234.24,-309.89 265.56,-259.83 282,-245.89 312.29,-220.21 354.93,-202.92 384.14,-193.21"/>
<polygon fill="green" stroke="green" stroke-width="0.29" points="385.42,-196.48 393.87,-190.09 383.28,-189.81 385.42,-196.48"/>
</g>
<!-- 11291&#45;&gt;15704 -->
<g id="edge31" class="edge">
<title>11291&#45;&gt;15704</title>
<path fill="none" stroke="red" stroke-width="0.1" d="M203,-335.86C203,-327.92 203,-319.07 203,-310.6"/>
<polygon fill="red" stroke="red" stroke-width="0.1" points="206.5,-310.56 203,-300.56 199.5,-310.56 206.5,-310.56"/>
</g>
</g>
</svg>
